<svg xmlns="http://www.w3.org/2000/svg" width="560" height="300" font-family="sans-serif">
<rect x="0" y="0" width="560" height="300" fill="#1b1b1b"/>
<text x="20" y="16" fill="#ddd" font-size="13">A. Gilder Jr. (COR) — 127 tiros, Clasificatorio</text>
<rect x="20" y="28" width="520" height="252" fill="none" stroke="#555"/>
<path d="M467.0 36.9 L473.4 43.3 M467.0 43.3 L473.4 36.9" stroke="#e0556b" stroke-width="1.6"/>
<circle cx="502.7" cy="172.5" r="3.4" fill="#2ec26b" opacity="0.85"/>
<path d="M421.6 61.1 L428.0 67.5 M421.6 67.5 L428.0 61.1" stroke="#e0556b" stroke-width="1.6"/>
<circle cx="501.9" cy="127.7" r="3.4" fill="#2ec26b" opacity="0.85"/>
<circle cx="510.8" cy="33.0" r="3.4" fill="#2ec26b" opacity="0.85"/>
<circle cx="503.5" cy="35.1" r="3.4" fill="#2ec26b" opacity="0.85"/>
<circle cx="398.0" cy="229.4" r="3.4" fill="#2ec26b" opacity="0.85"/>
<path d="M395.6 75.4 L402.0 81.8 M395.6 81.8 L402.0 75.4" stroke="#e0556b" stroke-width="1.6"/>
<circle cx="471.9" cy="155.4" r="3.4" fill="#2ec26b" opacity="0.85"/>
<path d="M436.2 141.6 L442.6 148.0 M436.2 148.0 L442.6 141.6" stroke="#e0556b" stroke-width="1.6"/>
<path d="M440.3 44.7 L446.7 51.1 M440.3 51.1 L446.7 44.7" stroke="#e0556b" stroke-width="1.6"/>
<path d="M395.6 78.9 L402.0 85.3 M395.6 85.3 L402.0 78.9" stroke="#e0556b" stroke-width="1.6"/>
<circle cx="370.4" cy="137.6" r="3.4" fill="#2ec26b" opacity="0.85"/>
<path d="M430.5 256.2 L436.9 262.6 M430.5 262.6 L436.9 256.2" stroke="#e0556b" stroke-width="1.6"/>
<path d="M399.5 79.9 L405.9 86.3 M399.5 86.3 L405.9 79.9" stroke="#e0556b" stroke-width="1.6"/>
<path d="M490.4 170.3 L496.8 176.7 M490.4 176.7 L496.8 170.3" stroke="#e0556b" stroke-width="1.6"/>
<circle cx="509.0" cy="162.8" r="3.4" fill="#2ec26b" opacity="0.85"/>
<path d="M514.8 156.1 L521.2 162.5 M514.8 162.5 L521.2 156.1" stroke="#e0556b" stroke-width="1.6"/>
<circle cx="345.9" cy="104.5" r="3.4" fill="#2ec26b" opacity="0.85"/>
<circle cx="396.3" cy="224.8" r="3.4" fill="#2ec26b" opacity="0.85"/>
<path d="M463.6 230.1 L470.0 236.5 M463.6 236.5 L470.0 230.1" stroke="#e0556b" stroke-width="1.6"/>
<path d="M370.3 243.6 L376.7 250.0 M370.3 250.0 L376.7 243.6" stroke="#e0556b" stroke-width="1.6"/>
<path d="M512.6 162.6 L519.0 169.0 M512.6 169.0 L519.0 162.6" stroke="#e0556b" stroke-width="1.6"/>
<path d="M409.6 52.3 L416.0 58.7 M409.6 58.7 L416.0 52.3" stroke="#e0556b" stroke-width="1.6"/>
<path d="M465.6 260.8 L472.0 267.2 M465.6 267.2 L472.0 260.8" stroke="#e0556b" stroke-width="1.6"/>
<path d="M498.8 154.1 L505.2 160.5 M498.8 160.5 L505.2 154.1" stroke="#e0556b" stroke-width="1.6"/>
<path d="M400.7 231.7 L407.1 238.1 M400.7 238.1 L407.1 231.7" stroke="#e0556b" stroke-width="1.6"/>
<path d="M421.8 102.8 L428.2 109.2 M421.8 109.2 L428.2 102.8" stroke="#e0556b" stroke-width="1.6"/>
<path d="M390.1 88.6 L396.5 95.0 M390.1 95.0 L396.5 88.6" stroke="#e0556b" stroke-width="1.6"/>
<path d="M412.8 50.2 L419.2 56.6 M412.8 56.6 L419.2 50.2" stroke="#e0556b" stroke-width="1.6"/>
<circle cx="424.7" cy="114.4" r="3.4" fill="#2ec26b" opacity="0.85"/>
<path d="M407.6 53.6 L414.0 60.0 M407.6 60.0 L414.0 53.6" stroke="#e0556b" stroke-width="1.6"/>
<circle cx="381.7" cy="231.2" r="3.4" fill="#2ec26b" opacity="0.85"/>
<path d="M432.8 39.3 L439.2 45.7 M432.8 45.7 L439.2 39.3" stroke="#e0556b" stroke-width="1.6"/>
<circle cx="487.9" cy="117.3" r="3.4" fill="#2ec26b" opacity="0.85"/>
<path d="M462.8 144.7 L469.2 151.1 M462.8 151.1 L469.2 144.7" stroke="#e0556b" stroke-width="1.6"/>
<circle cx="499.3" cy="123.7" r="3.4" fill="#2ec26b" opacity="0.85"/>
<path d="M373.6 90.6 L380.0 97.0 M373.6 97.0 L380.0 90.6" stroke="#e0556b" stroke-width="1.6"/>
<circle cx="510.6" cy="163.6" r="3.4" fill="#2ec26b" opacity="0.85"/>
<circle cx="496.8" cy="178.5" r="3.4" fill="#2ec26b" opacity="0.85"/>
<circle cx="456.3" cy="142.9" r="3.4" fill="#2ec26b" opacity="0.85"/>
<path d="M487.1 168.2 L493.5 174.6 M487.1 174.6 L493.5 168.2" stroke="#e0556b" stroke-width="1.6"/>
<path d="M375.2 103.4 L381.6 109.8 M375.2 109.8 L381.6 103.4" stroke="#e0556b" stroke-width="1.6"/>
<path d="M480.2 190.4 L486.6 196.8 M480.2 196.8 L486.6 190.4" stroke="#e0556b" stroke-width="1.6"/>
<circle cx="504.5" cy="176.5" r="3.4" fill="#2ec26b" opacity="0.85"/>
<path d="M481.8 148.4 L488.2 154.8 M481.8 154.8 L488.2 148.4" stroke="#e0556b" stroke-width="1.6"/>
<path d="M438.8 262.3 L445.2 268.7 M438.8 268.7 L445.2 262.3" stroke="#e0556b" stroke-width="1.6"/>
<path d="M447.7 122.0 L454.1 128.4 M447.7 128.4 L454.1 122.0" stroke="#e0556b" stroke-width="1.6"/>
<path d="M501.3 176.2 L507.7 182.6 M501.3 182.6 L507.7 176.2" stroke="#e0556b" stroke-width="1.6"/>
<path d="M493.2 134.1 L499.6 140.5 M493.2 140.5 L499.6 134.1" stroke="#e0556b" stroke-width="1.6"/>
<circle cx="505.3" cy="161.5" r="3.4" fill="#2ec26b" opacity="0.85"/>
<path d="M498.0 149.8 L504.4 156.2 M498.0 156.2 L504.4 149.8" stroke="#e0556b" stroke-width="1.6"/>
<circle cx="375.5" cy="92.5" r="3.4" fill="#2ec26b" opacity="0.85"/>
<path d="M335.8 238.8 L342.2 245.2 M335.8 245.2 L342.2 238.8" stroke="#e0556b" stroke-width="1.6"/>
<path d="M506.1 142.7 L512.5 149.1 M506.1 149.1 L512.5 142.7" stroke="#e0556b" stroke-width="1.6"/>
<circle cx="508.8" cy="154.0" r="3.4" fill="#2ec26b" opacity="0.85"/>
<circle cx="514.2" cy="153.0" r="3.4" fill="#2ec26b" opacity="0.85"/>
<circle cx="420.9" cy="56.9" r="3.4" fill="#2ec26b" opacity="0.85"/>
<circle cx="403.9" cy="128.1" r="3.4" fill="#2ec26b" opacity="0.85"/>
<path d="M497.2 146.2 L503.6 152.6 M497.2 152.6 L503.6 146.2" stroke="#e0556b" stroke-width="1.6"/>
<path d="M502.9 153.4 L509.3 159.8 M502.9 159.8 L509.3 153.4" stroke="#e0556b" stroke-width="1.6"/>
<circle cx="394.1" cy="86.8" r="3.4" fill="#2ec26b" opacity="0.85"/>
<path d="M365.0 107.8 L371.4 114.2 M365.0 114.2 L371.4 107.8" stroke="#e0556b" stroke-width="1.6"/>
<path d="M512.6 151.2 L519.0 157.6 M512.6 157.6 L519.0 151.2" stroke="#e0556b" stroke-width="1.6"/>
<circle cx="509.3" cy="148.7" r="3.4" fill="#2ec26b" opacity="0.85"/>
<circle cx="503.7" cy="156.6" r="3.4" fill="#2ec26b" opacity="0.85"/>
<circle cx="507.7" cy="150.9" r="3.4" fill="#2ec26b" opacity="0.85"/>
<circle cx="507.7" cy="151.6" r="3.4" fill="#2ec26b" opacity="0.85"/>
<circle cx="513.4" cy="270.4" r="3.4" fill="#2ec26b" opacity="0.85"/>
<path d="M429.1 132.7 L435.5 139.1 M429.1 139.1 L435.5 132.7" stroke="#e0556b" stroke-width="1.6"/>
<circle cx="508.2" cy="152.2" r="3.4" fill="#2ec26b" opacity="0.85"/>
<circle cx="371.1" cy="154.3" r="3.4" fill="#2ec26b" opacity="0.85"/>
<path d="M466.1 265.7 L472.5 272.1 M466.1 272.1 L472.5 265.7" stroke="#e0556b" stroke-width="1.6"/>
<circle cx="512.2" cy="153.6" r="3.4" fill="#2ec26b" opacity="0.85"/>
<path d="M519.6 35.1 L526.0 41.5 M519.6 41.5 L526.0 35.1" stroke="#e0556b" stroke-width="1.6"/>
<path d="M497.7 113.4 L504.1 119.8 M497.7 119.8 L504.1 113.4" stroke="#e0556b" stroke-width="1.6"/>
<path d="M479.0 219.4 L485.4 225.8 M479.0 225.8 L485.4 219.4" stroke="#e0556b" stroke-width="1.6"/>
<circle cx="495.2" cy="170.7" r="3.4" fill="#2ec26b" opacity="0.85"/>
<path d="M383.3 89.2 L389.7 95.6 M383.3 95.6 L389.7 89.2" stroke="#e0556b" stroke-width="1.6"/>
<path d="M432.0 255.7 L438.4 262.1 M432.0 262.1 L438.4 255.7" stroke="#e0556b" stroke-width="1.6"/>
<circle cx="395.4" cy="81.0" r="3.4" fill="#2ec26b" opacity="0.85"/>
<circle cx="474.1" cy="173.5" r="3.4" fill="#2ec26b" opacity="0.85"/>
<circle cx="496.0" cy="127.9" r="3.4" fill="#2ec26b" opacity="0.85"/>
<path d="M505.6 150.8 L512.0 157.2 M505.6 157.2 L512.0 150.8" stroke="#e0556b" stroke-width="1.6"/>
<circle cx="472.5" cy="162.1" r="3.4" fill="#2ec26b" opacity="0.85"/>
<circle cx="384.4" cy="100.3" r="3.4" fill="#2ec26b" opacity="0.85"/>
<circle cx="504.5" cy="185.8" r="3.4" fill="#2ec26b" opacity="0.85"/>
<path d="M503.7 108.5 L510.1 114.9 M503.7 114.9 L510.1 108.5" stroke="#e0556b" stroke-width="1.6"/>
<path d="M390.1 68.6 L396.5 75.0 M390.1 75.0 L396.5 68.6" stroke="#e0556b" stroke-width="1.6"/>
<circle cx="496.4" cy="170.8" r="3.4" fill="#2ec26b" opacity="0.85"/>
<circle cx="499.6" cy="137.3" r="3.4" fill="#2ec26b" opacity="0.85"/>
<path d="M485.8 112.1 L492.2 118.5 M485.8 118.5 L492.2 112.1" stroke="#e0556b" stroke-width="1.6"/>
<path d="M394.2 218.1 L400.6 224.5 M394.2 224.5 L400.6 218.1" stroke="#e0556b" stroke-width="1.6"/>
<path d="M486.7 140.5 L493.1 146.9 M486.7 146.9 L493.1 140.5" stroke="#e0556b" stroke-width="1.6"/>
<path d="M390.1 209.6 L396.5 216.0 M390.1 216.0 L396.5 209.6" stroke="#e0556b" stroke-width="1.6"/>
<path d="M444.5 261.6 L450.9 268.0 M444.5 268.0 L450.9 261.6" stroke="#e0556b" stroke-width="1.6"/>
<circle cx="515.0" cy="175.1" r="3.4" fill="#2ec26b" opacity="0.85"/>
<circle cx="435.2" cy="53.2" r="3.4" fill="#2ec26b" opacity="0.85"/>
<circle cx="522.8" cy="172.1" r="3.4" fill="#2ec26b" opacity="0.85"/>
<path d="M517.1 129.7 L523.5 136.1 M517.1 136.1 L523.5 129.7" stroke="#e0556b" stroke-width="1.6"/>
<circle cx="498.5" cy="36.8" r="3.4" fill="#2ec26b" opacity="0.85"/>
<circle cx="370.3" cy="145.0" r="3.4" fill="#2ec26b" opacity="0.85"/>
<circle cx="513.1" cy="174.2" r="3.4" fill="#2ec26b" opacity="0.85"/>
<path d="M509.0 221.6 L515.4 228.0 M509.0 228.0 L515.4 221.6" stroke="#e0556b" stroke-width="1.6"/>
<path d="M446.6 260.0 L453.0 266.4 M446.6 266.4 L453.0 260.0" stroke="#e0556b" stroke-width="1.6"/>
<path d="M475.0 145.4 L481.4 151.8 M475.0 151.8 L481.4 145.4" stroke="#e0556b" stroke-width="1.6"/>
<circle cx="500.1" cy="156.4" r="3.4" fill="#2ec26b" opacity="0.85"/>
<circle cx="499.3" cy="152.2" r="3.4" fill="#2ec26b" opacity="0.85"/>
<path d="M370.3 214.4 L376.7 220.8 M370.3 220.8 L376.7 214.4" stroke="#e0556b" stroke-width="1.6"/>
<path d="M399.5 71.3 L405.9 77.7 M399.5 77.7 L405.9 71.3" stroke="#e0556b" stroke-width="1.6"/>
<circle cx="509.0" cy="152.2" r="3.4" fill="#2ec26b" opacity="0.85"/>
<path d="M399.5 237.9 L405.9 244.3 M399.5 244.3 L405.9 237.9" stroke="#e0556b" stroke-width="1.6"/>
<circle cx="509.8" cy="155.0" r="3.4" fill="#2ec26b" opacity="0.85"/>
<path d="M481.5 136.8 L487.9 143.2 M481.5 143.2 L487.9 136.8" stroke="#e0556b" stroke-width="1.6"/>
<circle cx="496.8" cy="155.7" r="3.4" fill="#2ec26b" opacity="0.85"/>
<circle cx="376.8" cy="110.9" r="3.4" fill="#2ec26b" opacity="0.85"/>
<circle cx="493.6" cy="231.2" r="3.4" fill="#2ec26b" opacity="0.85"/>
<path d="M392.6 234.5 L399.0 240.9 M392.6 240.9 L399.0 234.5" stroke="#e0556b" stroke-width="1.6"/>
<path d="M477.7 159.8 L484.1 166.2 M477.7 166.2 L484.1 159.8" stroke="#e0556b" stroke-width="1.6"/>
<circle cx="352.0" cy="145.9" r="3.4" fill="#2ec26b" opacity="0.85"/>
<circle cx="369.8" cy="93.2" r="3.4" fill="#2ec26b" opacity="0.85"/>
<path d="M420.9 252.3 L427.3 258.7 M420.9 258.7 L427.3 252.3" stroke="#e0556b" stroke-width="1.6"/>
<circle cx="507.7" cy="153.0" r="3.4" fill="#2ec26b" opacity="0.85"/>
<path d="M362.5 105.7 L368.9 112.1 M362.5 112.1 L368.9 105.7" stroke="#e0556b" stroke-width="1.6"/>
<path d="M442.8 213.9 L449.2 220.3 M442.8 220.3 L449.2 213.9" stroke="#e0556b" stroke-width="1.6"/>
<circle cx="510.2" cy="145.9" r="3.4" fill="#2ec26b" opacity="0.85"/>
<path d="M481.0 78.6 L487.4 85.0 M481.0 85.0 L487.4 78.6" stroke="#e0556b" stroke-width="1.6"/>
</svg>