<svg xmlns="http://www.w3.org/2000/svg" width="560" height="300" font-family="sans-serif">
<rect x="0" y="0" width="560" height="300" fill="#1b1b1b"/>
<text x="20" y="16" fill="#ddd" font-size="13">A. Louis (HYM) — 268 tiros, Clasificatorio</text>
<rect x="20" y="28" width="520" height="252" fill="none" stroke="#555"/>
<path d="M411.7 231.5 L418.1 237.9 M411.7 237.9 L418.1 231.5" stroke="#e0556b" stroke-width="1.6"/>
<path d="M513.1 131.9 L519.5 138.3 M513.1 138.3 L519.5 131.9" stroke="#e0556b" stroke-width="1.6"/>
<circle cx="431.9" cy="125.8" r="3.4" fill="#2ec26b" opacity="0.85"/>
<path d="M417.4 245.8 L423.8 252.2 M417.4 252.2 L423.8 245.8" stroke="#e0556b" stroke-width="1.6"/>
<path d="M427.1 113.4 L433.5 119.8 M427.1 119.8 L433.5 113.4" stroke="#e0556b" stroke-width="1.6"/>
<path d="M513.1 170.3 L519.5 176.7 M513.1 176.7 L519.5 170.3" stroke="#e0556b" stroke-width="1.6"/>
<circle cx="509.8" cy="76.7" r="3.4" fill="#2ec26b" opacity="0.85"/>
<circle cx="513.9" cy="150.7" r="3.4" fill="#2ec26b" opacity="0.85"/>
<circle cx="435.5" cy="66.9" r="3.4" fill="#2ec26b" opacity="0.85"/>
<circle cx="515.8" cy="160.1" r="3.4" fill="#2ec26b" opacity="0.85"/>
<path d="M443.7 221.0 L450.1 227.4 M443.7 227.4 L450.1 221.0" stroke="#e0556b" stroke-width="1.6"/>
<path d="M410.4 162.6 L416.8 169.0 M410.4 169.0 L416.8 162.6" stroke="#e0556b" stroke-width="1.6"/>
<path d="M456.7 201.8 L463.1 208.2 M456.7 208.2 L463.1 201.8" stroke="#e0556b" stroke-width="1.6"/>
<path d="M512.6 161.2 L519.0 167.6 M512.6 167.6 L519.0 161.2" stroke="#e0556b" stroke-width="1.6"/>
<path d="M502.9 131.3 L509.3 137.7 M502.9 137.7 L509.3 131.3" stroke="#e0556b" stroke-width="1.6"/>
<circle cx="514.2" cy="145.9" r="3.4" fill="#2ec26b" opacity="0.85"/>
<path d="M423.4 193.2 L429.8 199.6 M423.4 199.6 L429.8 193.2" stroke="#e0556b" stroke-width="1.6"/>
<circle cx="447.7" cy="262.6" r="3.4" fill="#2ec26b" opacity="0.85"/>
<circle cx="397.4" cy="226.3" r="3.4" fill="#2ec26b" opacity="0.85"/>
<path d="M406.3 229.5 L412.7 235.9 M406.3 235.9 L412.7 229.5" stroke="#e0556b" stroke-width="1.6"/>
<circle cx="510.9" cy="140.9" r="3.4" fill="#2ec26b" opacity="0.85"/>
<path d="M452.2 40.8 L458.6 47.2 M452.2 47.2 L458.6 40.8" stroke="#e0556b" stroke-width="1.6"/>
<path d="M503.4 176.0 L509.8 182.4 M503.4 182.4 L509.8 176.0" stroke="#e0556b" stroke-width="1.6"/>
<circle cx="513.1" cy="149.3" r="3.4" fill="#2ec26b" opacity="0.85"/>
<path d="M380.1 103.4 L386.5 109.8 M380.1 109.8 L386.5 103.4" stroke="#e0556b" stroke-width="1.6"/>
<circle cx="507.4" cy="152.2" r="3.4" fill="#2ec26b" opacity="0.85"/>
<circle cx="507.4" cy="168.5" r="3.4" fill="#2ec26b" opacity="0.85"/>
<path d="M471.7 225.1 L478.1 231.5 M471.7 231.5 L478.1 225.1" stroke="#e0556b" stroke-width="1.6"/>
<path d="M389.8 209.5 L396.2 215.9 M389.8 215.9 L396.2 209.5" stroke="#e0556b" stroke-width="1.6"/>
<circle cx="516.3" cy="161.4" r="3.4" fill="#2ec26b" opacity="0.85"/>
<path d="M467.7 150.4 L474.1 156.8 M467.7 156.8 L474.1 150.4" stroke="#e0556b" stroke-width="1.6"/>
<circle cx="376.8" cy="125.1" r="3.4" fill="#2ec26b" opacity="0.85"/>
<circle cx="516.3" cy="155.0" r="3.4" fill="#2ec26b" opacity="0.85"/>
<circle cx="513.1" cy="155.7" r="3.4" fill="#2ec26b" opacity="0.85"/>
<path d="M389.8 99.8 L396.2 106.2 M389.8 106.2 L396.2 99.8" stroke="#e0556b" stroke-width="1.6"/>
<circle cx="418.9" cy="137.9" r="3.4" fill="#2ec26b" opacity="0.85"/>
<circle cx="515.5" cy="160.7" r="3.4" fill="#2ec26b" opacity="0.85"/>
<circle cx="378.7" cy="124.5" r="3.4" fill="#2ec26b" opacity="0.85"/>
<path d="M374.7 168.3 L381.1 174.7 M374.7 174.7 L381.1 168.3" stroke="#e0556b" stroke-width="1.6"/>
<path d="M456.7 212.4 L463.1 218.8 M456.7 218.8 L463.1 212.4" stroke="#e0556b" stroke-width="1.6"/>
<path d="M468.8 34.5 L475.2 40.9 M468.8 40.9 L475.2 34.5" stroke="#e0556b" stroke-width="1.6"/>
<path d="M462.3 166.2 L468.7 172.6 M462.3 172.6 L468.7 166.2" stroke="#e0556b" stroke-width="1.6"/>
<path d="M517.5 265.8 L523.9 272.2 M517.5 272.2 L523.9 265.8" stroke="#e0556b" stroke-width="1.6"/>
<path d="M504.5 139.8 L510.9 146.2 M504.5 146.2 L510.9 139.8" stroke="#e0556b" stroke-width="1.6"/>
<circle cx="510.9" cy="158.0" r="3.4" fill="#2ec26b" opacity="0.85"/>
<path d="M429.9 145.5 L436.3 151.9 M429.9 151.9 L436.3 145.5" stroke="#e0556b" stroke-width="1.6"/>
<path d="M485.1 196.8 L491.5 203.2 M485.1 203.2 L491.5 196.8" stroke="#e0556b" stroke-width="1.6"/>
<path d="M489.9 176.2 L496.3 182.6 M489.9 182.6 L496.3 176.2" stroke="#e0556b" stroke-width="1.6"/>
<circle cx="490.7" cy="144.4" r="3.4" fill="#2ec26b" opacity="0.85"/>
<path d="M472.1 122.8 L478.5 129.2 M472.1 129.2 L478.5 122.8" stroke="#e0556b" stroke-width="1.6"/>
<circle cx="398.2" cy="76.8" r="3.4" fill="#2ec26b" opacity="0.85"/>
<path d="M448.2 142.5 L454.6 148.9 M448.2 148.9 L454.6 142.5" stroke="#e0556b" stroke-width="1.6"/>
<path d="M517.1 113.4 L523.5 119.8 M517.1 119.8 L523.5 113.4" stroke="#e0556b" stroke-width="1.6"/>
<circle cx="503.3" cy="120.1" r="3.4" fill="#2ec26b" opacity="0.85"/>
<path d="M506.6 175.3 L513.0 181.7 M506.6 181.7 L513.0 175.3" stroke="#e0556b" stroke-width="1.6"/>
<path d="M427.9 250.7 L434.3 257.1 M427.9 257.1 L434.3 250.7" stroke="#e0556b" stroke-width="1.6"/>
<path d="M506.6 124.7 L513.0 131.1 M506.6 131.1 L513.0 124.7" stroke="#e0556b" stroke-width="1.6"/>
<circle cx="408.4" cy="236.2" r="3.4" fill="#2ec26b" opacity="0.85"/>
<path d="M416.9 129.9 L423.3 136.3 M416.9 136.3 L423.3 129.9" stroke="#e0556b" stroke-width="1.6"/>
<circle cx="507.7" cy="54.1" r="3.4" fill="#2ec26b" opacity="0.85"/>
<path d="M459.1 259.4 L465.5 265.8 M459.1 265.8 L465.5 259.4" stroke="#e0556b" stroke-width="1.6"/>
<circle cx="446.9" cy="191.4" r="3.4" fill="#2ec26b" opacity="0.85"/>
<path d="M503.7 125.6 L510.1 132.0 M503.7 132.0 L510.1 125.6" stroke="#e0556b" stroke-width="1.6"/>
<path d="M505.6 150.8 L512.0 157.2 M505.6 157.2 L512.0 150.8" stroke="#e0556b" stroke-width="1.6"/>
<path d="M481.0 151.2 L487.4 157.6 M481.0 157.6 L487.4 151.2" stroke="#e0556b" stroke-width="1.6"/>
<path d="M490.4 30.8 L496.8 37.2 M490.4 37.2 L496.8 30.8" stroke="#e0556b" stroke-width="1.6"/>
<circle cx="508.8" cy="154.0" r="3.4" fill="#2ec26b" opacity="0.85"/>
<path d="M476.6 103.4 L483.0 109.8 M476.6 109.8 L483.0 103.4" stroke="#e0556b" stroke-width="1.6"/>
<circle cx="522.8" cy="271.0" r="3.4" fill="#2ec26b" opacity="0.85"/>
<path d="M510.7 268.5 L517.1 274.9 M510.7 274.9 L517.1 268.5" stroke="#e0556b" stroke-width="1.6"/>
<circle cx="513.9" cy="155.0" r="3.4" fill="#2ec26b" opacity="0.85"/>
<circle cx="509.0" cy="53.7" r="3.4" fill="#2ec26b" opacity="0.85"/>
<circle cx="509.8" cy="172.8" r="3.4" fill="#2ec26b" opacity="0.85"/>
<circle cx="522.0" cy="270.3" r="3.4" fill="#2ec26b" opacity="0.85"/>
<path d="M498.5 230.1 L504.9 236.5 M498.5 236.5 L504.9 230.1" stroke="#e0556b" stroke-width="1.6"/>
<path d="M506.6 35.8 L513.0 42.2 M506.6 42.2 L513.0 35.8" stroke="#e0556b" stroke-width="1.6"/>
<circle cx="378.4" cy="136.5" r="3.4" fill="#2ec26b" opacity="0.85"/>
<path d="M512.3 142.5 L518.7 148.9 M512.3 148.9 L518.7 142.5" stroke="#e0556b" stroke-width="1.6"/>
<path d="M509.9 137.6 L516.3 144.0 M509.9 144.0 L516.3 137.6" stroke="#e0556b" stroke-width="1.6"/>
<path d="M416.6 244.3 L423.0 250.7 M416.6 250.7 L423.0 244.3" stroke="#e0556b" stroke-width="1.6"/>
<path d="M367.1 126.2 L373.5 132.6 M367.1 132.6 L373.5 126.2" stroke="#e0556b" stroke-width="1.6"/>
<circle cx="499.3" cy="255.4" r="3.4" fill="#2ec26b" opacity="0.85"/>
<circle cx="378.4" cy="151.4" r="3.4" fill="#2ec26b" opacity="0.85"/>
<path d="M505.0 87.0 L511.4 93.4 M505.0 93.4 L511.4 87.0" stroke="#e0556b" stroke-width="1.6"/>
<circle cx="487.1" cy="276.0" r="3.4" fill="#2ec26b" opacity="0.85"/>
<path d="M443.4 261.4 L449.8 267.8 M443.4 267.8 L449.8 261.4" stroke="#e0556b" stroke-width="1.6"/>
<path d="M513.1 149.7 L519.5 156.1 M513.1 156.1 L519.5 149.7" stroke="#e0556b" stroke-width="1.6"/>
<path d="M504.5 216.0 L510.9 222.4 M504.5 222.4 L510.9 216.0" stroke="#e0556b" stroke-width="1.6"/>
<path d="M374.7 94.3 L381.1 100.7 M374.7 100.7 L381.1 94.3" stroke="#e0556b" stroke-width="1.6"/>
<circle cx="502.0" cy="154.4" r="3.4" fill="#2ec26b" opacity="0.85"/>
<circle cx="507.7" cy="150.9" r="3.4" fill="#2ec26b" opacity="0.85"/>
<path d="M492.8 224.4 L499.2 230.8 M492.8 230.8 L499.2 224.4" stroke="#e0556b" stroke-width="1.6"/>
<path d="M419.8 218.7 L426.2 225.1 M419.8 225.1 L426.2 218.7" stroke="#e0556b" stroke-width="1.6"/>
<path d="M510.7 138.3 L517.1 144.7 M510.7 144.7 L517.1 138.3" stroke="#e0556b" stroke-width="1.6"/>
<path d="M490.4 164.6 L496.8 171.0 M490.4 171.0 L496.8 164.6" stroke="#e0556b" stroke-width="1.6"/>
<path d="M506.6 158.9 L513.0 165.3 M506.6 165.3 L513.0 158.9" stroke="#e0556b" stroke-width="1.6"/>
<path d="M498.0 154.1 L504.4 160.5 M498.0 160.5 L504.4 154.1" stroke="#e0556b" stroke-width="1.6"/>
<path d="M498.0 156.2 L504.4 162.6 M498.0 162.6 L504.4 156.2" stroke="#e0556b" stroke-width="1.6"/>
<circle cx="506.9" cy="146.6" r="3.4" fill="#2ec26b" opacity="0.85"/>
<path d="M507.7 162.6 L514.1 169.0 M507.7 169.0 L514.1 162.6" stroke="#e0556b" stroke-width="1.6"/>
<circle cx="506.9" cy="157.3" r="3.4" fill="#2ec26b" opacity="0.85"/>
<path d="M506.6 270.7 L513.0 277.1 M506.6 277.1 L513.0 270.7" stroke="#e0556b" stroke-width="1.6"/>
<circle cx="496.8" cy="207.7" r="3.4" fill="#2ec26b" opacity="0.85"/>
<path d="M409.3 72.1 L415.7 78.5 M409.3 78.5 L415.7 72.1" stroke="#e0556b" stroke-width="1.6"/>
<circle cx="509.8" cy="156.4" r="3.4" fill="#2ec26b" opacity="0.85"/>
<path d="M496.9 199.5 L503.3 205.9 M496.9 205.9 L503.3 199.5" stroke="#e0556b" stroke-width="1.6"/>
<path d="M374.4 130.4 L380.8 136.8 M374.4 136.8 L380.8 130.4" stroke="#e0556b" stroke-width="1.6"/>
<path d="M507.4 268.5 L513.8 274.9 M507.4 274.9 L513.8 268.5" stroke="#e0556b" stroke-width="1.6"/>
<circle cx="517.1" cy="147.9" r="3.4" fill="#2ec26b" opacity="0.85"/>
<path d="M505.0 144.7 L511.4 151.1 M505.0 151.1 L511.4 144.7" stroke="#e0556b" stroke-width="1.6"/>
<circle cx="425.0" cy="172.2" r="3.4" fill="#2ec26b" opacity="0.85"/>
<path d="M444.5 187.5 L450.9 193.9 M444.5 193.9 L450.9 187.5" stroke="#e0556b" stroke-width="1.6"/>
<circle cx="508.8" cy="154.0" r="3.4" fill="#2ec26b" opacity="0.85"/>
<circle cx="514.2" cy="157.3" r="3.4" fill="#2ec26b" opacity="0.85"/>
<path d="M510.2 265.1 L516.6 271.5 M510.2 271.5 L516.6 265.1" stroke="#e0556b" stroke-width="1.6"/>
<path d="M509.4 162.6 L515.8 169.0 M509.4 169.0 L515.8 162.6" stroke="#e0556b" stroke-width="1.6"/>
<circle cx="490.7" cy="131.6" r="3.4" fill="#2ec26b" opacity="0.85"/>
<circle cx="508.8" cy="154.0" r="3.4" fill="#2ec26b" opacity="0.85"/>
<path d="M476.9 36.6 L483.3 43.0 M476.9 43.0 L483.3 36.6" stroke="#e0556b" stroke-width="1.6"/>
<path d="M436.4 100.7 L442.8 107.1 M436.4 107.1 L442.8 100.7" stroke="#e0556b" stroke-width="1.6"/>
<path d="M505.3 34.5 L511.7 40.9 M505.3 40.9 L511.7 34.5" stroke="#e0556b" stroke-width="1.6"/>
<path d="M504.2 161.8 L510.6 168.2 M504.2 168.2 L510.6 161.8" stroke="#e0556b" stroke-width="1.6"/>
<path d="M449.9 99.1 L456.3 105.5 M449.9 105.5 L456.3 99.1" stroke="#e0556b" stroke-width="1.6"/>
<path d="M433.6 50.7 L440.0 57.1 M433.6 57.1 L440.0 50.7" stroke="#e0556b" stroke-width="1.6"/>
<path d="M505.8 141.1 L512.2 147.5 M505.8 147.5 L512.2 141.1" stroke="#e0556b" stroke-width="1.6"/>
<path d="M420.6 62.1 L427.0 68.5 M420.6 68.5 L427.0 62.1" stroke="#e0556b" stroke-width="1.6"/>
<circle cx="506.6" cy="155.7" r="3.4" fill="#2ec26b" opacity="0.85"/>
<circle cx="436.0" cy="216.2" r="3.4" fill="#2ec26b" opacity="0.85"/>
<circle cx="500.1" cy="270.3" r="3.4" fill="#2ec26b" opacity="0.85"/>
<path d="M455.5 233.0 L461.9 239.4 M455.5 239.4 L461.9 233.0" stroke="#e0556b" stroke-width="1.6"/>
<circle cx="508.8" cy="154.0" r="3.4" fill="#2ec26b" opacity="0.85"/>
<circle cx="511.5" cy="153.6" r="3.4" fill="#2ec26b" opacity="0.85"/>
<circle cx="504.5" cy="145.9" r="3.4" fill="#2ec26b" opacity="0.85"/>
<circle cx="431.5" cy="145.9" r="3.4" fill="#2ec26b" opacity="0.85"/>
<path d="M497.2 140.5 L503.6 146.9 M497.2 146.9 L503.6 140.5" stroke="#e0556b" stroke-width="1.6"/>
<circle cx="501.2" cy="245.6" r="3.4" fill="#2ec26b" opacity="0.85"/>
<path d="M381.2 98.6 L387.6 105.0 M381.2 105.0 L387.6 98.6" stroke="#e0556b" stroke-width="1.6"/>
<circle cx="515.0" cy="144.4" r="3.4" fill="#2ec26b" opacity="0.85"/>
<circle cx="512.6" cy="165.1" r="3.4" fill="#2ec26b" opacity="0.85"/>
<circle cx="397.4" cy="212.8" r="3.4" fill="#2ec26b" opacity="0.85"/>
<circle cx="416.9" cy="150.1" r="3.4" fill="#2ec26b" opacity="0.85"/>
<circle cx="504.5" cy="168.7" r="3.4" fill="#2ec26b" opacity="0.85"/>
<circle cx="406.8" cy="230.5" r="3.4" fill="#2ec26b" opacity="0.85"/>
<circle cx="466.8" cy="84.5" r="3.4" fill="#2ec26b" opacity="0.85"/>
<circle cx="506.6" cy="152.2" r="3.4" fill="#2ec26b" opacity="0.85"/>
<circle cx="386.5" cy="204.1" r="3.4" fill="#2ec26b" opacity="0.85"/>
<circle cx="511.5" cy="141.5" r="3.4" fill="#2ec26b" opacity="0.85"/>
<path d="M417.4 59.2 L423.8 65.6 M417.4 65.6 L423.8 59.2" stroke="#e0556b" stroke-width="1.6"/>
<path d="M485.5 159.6 L491.9 166.0 M485.5 166.0 L491.9 159.6" stroke="#e0556b" stroke-width="1.6"/>
<path d="M464.8 151.9 L471.2 158.3 M464.8 158.3 L471.2 151.9" stroke="#e0556b" stroke-width="1.6"/>
<circle cx="377.1" cy="170.8" r="3.4" fill="#2ec26b" opacity="0.85"/>
<path d="M495.6 146.9 L502.0 153.3 M495.6 153.3 L502.0 146.9" stroke="#e0556b" stroke-width="1.6"/>
<path d="M415.3 238.8 L421.7 245.2 M415.3 245.2 L421.7 238.8" stroke="#e0556b" stroke-width="1.6"/>
<circle cx="510.9" cy="140.2" r="3.4" fill="#2ec26b" opacity="0.85"/>
<path d="M509.4 134.1 L515.8 140.5 M509.4 140.5 L515.8 134.1" stroke="#e0556b" stroke-width="1.6"/>
<circle cx="510.9" cy="162.3" r="3.4" fill="#2ec26b" opacity="0.85"/>
<path d="M455.8 142.7 L462.2 149.1 M455.8 149.1 L462.2 142.7" stroke="#e0556b" stroke-width="1.6"/>
<circle cx="422.5" cy="57.6" r="3.4" fill="#2ec26b" opacity="0.85"/>
<circle cx="414.4" cy="244.8" r="3.4" fill="#2ec26b" opacity="0.85"/>
<path d="M464.4 94.9 L470.8 101.3 M464.4 101.3 L470.8 94.9" stroke="#e0556b" stroke-width="1.6"/>
<circle cx="461.2" cy="96.6" r="3.4" fill="#2ec26b" opacity="0.85"/>
<path d="M409.3 244.3 L415.7 250.7 M409.3 250.7 L415.7 244.3" stroke="#e0556b" stroke-width="1.6"/>
<circle cx="498.5" cy="154.3" r="3.4" fill="#2ec26b" opacity="0.85"/>
<path d="M470.9 267.1 L477.3 273.5 M470.9 273.5 L477.3 267.1" stroke="#e0556b" stroke-width="1.6"/>
<path d="M492.8 215.9 L499.2 222.3 M492.8 222.3 L499.2 215.9" stroke="#e0556b" stroke-width="1.6"/>
<path d="M510.7 156.1 L517.1 162.5 M510.7 162.5 L517.1 156.1" stroke="#e0556b" stroke-width="1.6"/>
<path d="M406.0 233.0 L412.4 239.4 M406.0 239.4 L412.4 233.0" stroke="#e0556b" stroke-width="1.6"/>
<circle cx="376.8" cy="177.8" r="3.4" fill="#2ec26b" opacity="0.85"/>
<path d="M502.1 30.9 L508.5 37.3 M502.1 37.3 L508.5 30.9" stroke="#e0556b" stroke-width="1.6"/>
<circle cx="472.0" cy="214.2" r="3.4" fill="#2ec26b" opacity="0.85"/>
<path d="M370.7 199.6 L377.1 206.0 M370.7 206.0 L377.1 199.6" stroke="#e0556b" stroke-width="1.6"/>
<circle cx="450.9" cy="126.0" r="3.4" fill="#2ec26b" opacity="0.85"/>
<path d="M458.3 263.7 L464.7 270.1 M458.3 270.1 L464.7 263.7" stroke="#e0556b" stroke-width="1.6"/>
<circle cx="499.6" cy="168.0" r="3.4" fill="#2ec26b" opacity="0.85"/>
<path d="M416.7 256.2 L423.1 262.6 M416.7 262.6 L423.1 256.2" stroke="#e0556b" stroke-width="1.6"/>
<circle cx="479.2" cy="182.5" r="3.4" fill="#2ec26b" opacity="0.85"/>
<path d="M525.5 36.2 L531.9 42.6 M525.5 42.6 L531.9 36.2" stroke="#e0556b" stroke-width="1.6"/>
<path d="M434.6 230.5 L441.0 236.9 M434.6 236.9 L441.0 230.5" stroke="#e0556b" stroke-width="1.6"/>
<circle cx="514.8" cy="149.0" r="3.4" fill="#2ec26b" opacity="0.85"/>
<path d="M419.2 54.7 L425.6 61.1 M419.2 61.1 L425.6 54.7" stroke="#e0556b" stroke-width="1.6"/>
<path d="M510.9 268.3 L517.3 274.7 M510.9 274.7 L517.3 268.3" stroke="#e0556b" stroke-width="1.6"/>
<circle cx="511.6" cy="218.1" r="3.4" fill="#2ec26b" opacity="0.85"/>
<path d="M521.4 176.4 L527.8 182.8 M521.4 182.8 L527.8 176.4" stroke="#e0556b" stroke-width="1.6"/>
<circle cx="407.8" cy="62.2" r="3.4" fill="#2ec26b" opacity="0.85"/>
<path d="M439.3 262.1 L445.7 268.5 M439.3 268.5 L445.7 262.1" stroke="#e0556b" stroke-width="1.6"/>
<circle cx="370.3" cy="188.4" r="3.4" fill="#2ec26b" opacity="0.85"/>
<path d="M487.1 151.1 L493.5 157.5 M487.1 157.5 L493.5 151.1" stroke="#e0556b" stroke-width="1.6"/>
<path d="M499.3 152.5 L505.7 158.9 M499.3 158.9 L505.7 152.5" stroke="#e0556b" stroke-width="1.6"/>
<path d="M498.0 142.7 L504.4 149.1 M498.0 149.1 L504.4 142.7" stroke="#e0556b" stroke-width="1.6"/>
<circle cx="447.7" cy="42.7" r="3.4" fill="#2ec26b" opacity="0.85"/>
<path d="M362.5 182.6 L368.9 189.0 M362.5 189.0 L368.9 182.6" stroke="#e0556b" stroke-width="1.6"/>
<path d="M405.6 57.3 L412.0 63.7 M405.6 63.7 L412.0 57.3" stroke="#e0556b" stroke-width="1.6"/>
<path d="M386.6 198.8 L393.0 205.2 M386.6 205.2 L393.0 198.8" stroke="#e0556b" stroke-width="1.6"/>
<path d="M448.2 217.3 L454.6 223.7 M448.2 223.7 L454.6 217.3" stroke="#e0556b" stroke-width="1.6"/>
<path d="M503.4 156.8 L509.8 163.2 M503.4 163.2 L509.8 156.8" stroke="#e0556b" stroke-width="1.6"/>
<circle cx="500.9" cy="127.2" r="3.4" fill="#2ec26b" opacity="0.85"/>
<circle cx="443.3" cy="96.6" r="3.4" fill="#2ec26b" opacity="0.85"/>
<path d="M491.2 233.0 L497.6 239.4 M491.2 239.4 L497.6 233.0" stroke="#e0556b" stroke-width="1.6"/>
<path d="M493.6 265.0 L500.0 271.4 M493.6 271.4 L500.0 265.0" stroke="#e0556b" stroke-width="1.6"/>
<circle cx="425.0" cy="145.9" r="3.4" fill="#2ec26b" opacity="0.85"/>
<path d="M497.2 151.2 L503.6 157.6 M497.2 157.6 L503.6 151.2" stroke="#e0556b" stroke-width="1.6"/>
<circle cx="413.6" cy="115.3" r="3.4" fill="#2ec26b" opacity="0.85"/>
<path d="M479.3 197.5 L485.7 203.9 M479.3 203.9 L485.7 197.5" stroke="#e0556b" stroke-width="1.6"/>
<path d="M369.0 145.5 L375.4 151.9 M369.0 151.9 L375.4 145.5" stroke="#e0556b" stroke-width="1.6"/>
<circle cx="510.2" cy="140.2" r="3.4" fill="#2ec26b" opacity="0.85"/>
<circle cx="506.1" cy="161.5" r="3.4" fill="#2ec26b" opacity="0.85"/>
<circle cx="496.4" cy="168.0" r="3.4" fill="#2ec26b" opacity="0.85"/>
<circle cx="526.1" cy="207.7" r="3.4" fill="#2ec26b" opacity="0.85"/>
<circle cx="420.6" cy="244.7" r="3.4" fill="#2ec26b" opacity="0.85"/>
<path d="M442.5 153.2 L448.9 159.6 M442.5 159.6 L448.9 153.2" stroke="#e0556b" stroke-width="1.6"/>
<path d="M505.8 154.7 L512.2 161.1 M505.8 161.1 L512.2 154.7" stroke="#e0556b" stroke-width="1.6"/>
<circle cx="508.8" cy="154.0" r="3.4" fill="#2ec26b" opacity="0.85"/>
<path d="M519.6 84.9 L526.0 91.3 M519.6 91.3 L526.0 84.9" stroke="#e0556b" stroke-width="1.6"/>
<circle cx="516.0" cy="252.1" r="3.4" fill="#2ec26b" opacity="0.85"/>
<path d="M375.5 122.8 L381.9 129.2 M375.5 129.2 L381.9 122.8" stroke="#e0556b" stroke-width="1.6"/>
<path d="M472.9 164.0 L479.3 170.4 M472.9 170.4 L479.3 164.0" stroke="#e0556b" stroke-width="1.6"/>
<path d="M429.9 204.6 L436.3 211.0 M429.9 211.0 L436.3 204.6" stroke="#e0556b" stroke-width="1.6"/>
<path d="M507.7 146.2 L514.1 152.6 M507.7 152.6 L514.1 146.2" stroke="#e0556b" stroke-width="1.6"/>
<path d="M499.6 222.4 L506.0 228.8 M499.6 228.8 L506.0 222.4" stroke="#e0556b" stroke-width="1.6"/>
<circle cx="368.2" cy="194.3" r="3.4" fill="#2ec26b" opacity="0.85"/>
<path d="M488.3 149.8 L494.7 156.2 M488.3 156.2 L494.7 149.8" stroke="#e0556b" stroke-width="1.6"/>
<circle cx="498.0" cy="145.9" r="3.4" fill="#2ec26b" opacity="0.85"/>
<circle cx="493.9" cy="145.9" r="3.4" fill="#2ec26b" opacity="0.85"/>
<path d="M491.5 138.4 L497.9 144.8 M491.5 144.8 L497.9 138.4" stroke="#e0556b" stroke-width="1.6"/>
<path d="M503.4 144.7 L509.8 151.1 M503.4 151.1 L509.8 144.7" stroke="#e0556b" stroke-width="1.6"/>
<circle cx="468.4" cy="221.9" r="3.4" fill="#2ec26b" opacity="0.85"/>
<path d="M378.5 187.4 L384.9 193.8 M378.5 193.8 L384.9 187.4" stroke="#e0556b" stroke-width="1.6"/>
<circle cx="509.8" cy="145.0" r="3.4" fill="#2ec26b" opacity="0.85"/>
<circle cx="444.9" cy="256.8" r="3.4" fill="#2ec26b" opacity="0.85"/>
<circle cx="512.6" cy="271.2" r="3.4" fill="#2ec26b" opacity="0.85"/>
<circle cx="508.5" cy="165.1" r="3.4" fill="#2ec26b" opacity="0.85"/>
<circle cx="394.1" cy="94.6" r="3.4" fill="#2ec26b" opacity="0.85"/>
<path d="M414.4 65.1 L420.8 71.5 M414.4 71.5 L420.8 65.1" stroke="#e0556b" stroke-width="1.6"/>
<path d="M501.3 232.4 L507.7 238.8 M501.3 238.8 L507.7 232.4" stroke="#e0556b" stroke-width="1.6"/>
<circle cx="387.3" cy="95.2" r="3.4" fill="#2ec26b" opacity="0.85"/>
<circle cx="518.7" cy="153.6" r="3.4" fill="#2ec26b" opacity="0.85"/>
<path d="M489.6 152.5 L496.0 158.9 M489.6 158.9 L496.0 152.5" stroke="#e0556b" stroke-width="1.6"/>
<circle cx="513.1" cy="151.4" r="3.4" fill="#2ec26b" opacity="0.85"/>
<path d="M370.3 192.4 L376.7 198.8 M370.3 198.8 L376.7 192.4" stroke="#e0556b" stroke-width="1.6"/>
<path d="M447.4 211.6 L453.8 218.0 M447.4 218.0 L453.8 211.6" stroke="#e0556b" stroke-width="1.6"/>
<circle cx="520.7" cy="271.2" r="3.4" fill="#2ec26b" opacity="0.85"/>
<path d="M489.1 151.2 L495.5 157.6 M489.1 157.6 L495.5 151.2" stroke="#e0556b" stroke-width="1.6"/>
<path d="M403.1 233.8 L409.5 240.2 M403.1 240.2 L409.5 233.8" stroke="#e0556b" stroke-width="1.6"/>
<path d="M491.5 144.8 L497.9 151.2 M491.5 151.2 L497.9 144.8" stroke="#e0556b" stroke-width="1.6"/>
<path d="M364.2 117.8 L370.6 124.2 M364.2 124.2 L370.6 117.8" stroke="#e0556b" stroke-width="1.6"/>
<path d="M367.9 178.1 L374.3 184.5 M367.9 184.5 L374.3 178.1" stroke="#e0556b" stroke-width="1.6"/>
<path d="M496.1 181.7 L502.5 188.1 M496.1 188.1 L502.5 181.7" stroke="#e0556b" stroke-width="1.6"/>
<circle cx="390.6" cy="231.9" r="3.4" fill="#2ec26b" opacity="0.85"/>
<circle cx="444.4" cy="200.0" r="3.4" fill="#2ec26b" opacity="0.85"/>
<circle cx="491.5" cy="166.5" r="3.4" fill="#2ec26b" opacity="0.85"/>
<circle cx="526.4" cy="271.2" r="3.4" fill="#2ec26b" opacity="0.85"/>
<circle cx="506.1" cy="174.4" r="3.4" fill="#2ec26b" opacity="0.85"/>
<path d="M437.2 128.4 L443.6 134.8 M437.2 134.8 L443.6 128.4" stroke="#e0556b" stroke-width="1.6"/>
<path d="M497.2 178.3 L503.6 184.7 M497.2 184.7 L503.6 178.3" stroke="#e0556b" stroke-width="1.6"/>
<path d="M500.5 172.6 L506.9 179.0 M500.5 179.0 L506.9 172.6" stroke="#e0556b" stroke-width="1.6"/>
<circle cx="485.0" cy="37.0" r="3.4" fill="#2ec26b" opacity="0.85"/>
<circle cx="492.3" cy="128.8" r="3.4" fill="#2ec26b" opacity="0.85"/>
<path d="M420.2 53.0 L426.6 59.4 M420.2 59.4 L426.6 53.0" stroke="#e0556b" stroke-width="1.6"/>
<path d="M493.2 148.4 L499.6 154.8 M493.2 154.8 L499.6 148.4" stroke="#e0556b" stroke-width="1.6"/>
<path d="M491.5 147.7 L497.9 154.1 M491.5 154.1 L497.9 147.7" stroke="#e0556b" stroke-width="1.6"/>
<circle cx="373.0" cy="160.1" r="3.4" fill="#2ec26b" opacity="0.85"/>
<circle cx="506.1" cy="153.7" r="3.4" fill="#2ec26b" opacity="0.85"/>
<circle cx="504.5" cy="137.3" r="3.4" fill="#2ec26b" opacity="0.85"/>
<path d="M429.9 207.5 L436.3 213.9 M429.9 213.9 L436.3 207.5" stroke="#e0556b" stroke-width="1.6"/>
<path d="M499.3 269.3 L505.7 275.7 M499.3 275.7 L505.7 269.3" stroke="#e0556b" stroke-width="1.6"/>
<path d="M385.0 84.2 L391.4 90.6 M385.0 90.6 L391.4 84.2" stroke="#e0556b" stroke-width="1.6"/>
<path d="M367.9 179.6 L374.3 186.0 M367.9 186.0 L374.3 179.6" stroke="#e0556b" stroke-width="1.6"/>
<circle cx="513.9" cy="158.6" r="3.4" fill="#2ec26b" opacity="0.85"/>
</svg>