<svg xmlns="http://www.w3.org/2000/svg" width="560" height="300" font-family="sans-serif">
<rect x="0" y="0" width="560" height="300" fill="#1b1b1b"/>
<text x="20" y="16" fill="#ddd" font-size="13">A. Peña (WEL) — 136 tiros, Clasificatorio</text>
<rect x="20" y="28" width="520" height="252" fill="none" stroke="#555"/>
<circle cx="510.6" cy="172.8" r="3.4" fill="#2ec26b" opacity="0.85"/>
<circle cx="474.9" cy="170.7" r="3.4" fill="#2ec26b" opacity="0.85"/>
<circle cx="462.8" cy="134.3" r="3.4" fill="#2ec26b" opacity="0.85"/>
<circle cx="485.5" cy="162.8" r="3.4" fill="#2ec26b" opacity="0.85"/>
<path d="M443.4 124.7 L449.8 131.1 M443.4 131.1 L449.8 124.7" stroke="#e0556b" stroke-width="1.6"/>
<path d="M481.8 148.4 L488.2 154.8 M481.8 154.8 L488.2 148.4" stroke="#e0556b" stroke-width="1.6"/>
<circle cx="507.7" cy="177.9" r="3.4" fill="#2ec26b" opacity="0.85"/>
<path d="M509.4 192.5 L515.8 198.9 M509.4 198.9 L515.8 192.5" stroke="#e0556b" stroke-width="1.6"/>
<path d="M505.6 150.8 L512.0 157.2 M505.6 157.2 L512.0 150.8" stroke="#e0556b" stroke-width="1.6"/>
<circle cx="508.8" cy="154.0" r="3.4" fill="#2ec26b" opacity="0.85"/>
<path d="M497.2 134.8 L503.6 141.2 M497.2 141.2 L503.6 134.8" stroke="#e0556b" stroke-width="1.6"/>
<path d="M489.9 158.3 L496.3 164.7 M489.9 164.7 L496.3 158.3" stroke="#e0556b" stroke-width="1.6"/>
<path d="M472.1 117.8 L478.5 124.2 M472.1 124.2 L478.5 117.8" stroke="#e0556b" stroke-width="1.6"/>
<circle cx="490.7" cy="163.0" r="3.4" fill="#2ec26b" opacity="0.85"/>
<circle cx="498.0" cy="175.1" r="3.4" fill="#2ec26b" opacity="0.85"/>
<circle cx="502.8" cy="143.0" r="3.4" fill="#2ec26b" opacity="0.85"/>
<circle cx="504.5" cy="166.5" r="3.4" fill="#2ec26b" opacity="0.85"/>
<circle cx="498.0" cy="140.2" r="3.4" fill="#2ec26b" opacity="0.85"/>
<circle cx="506.9" cy="164.4" r="3.4" fill="#2ec26b" opacity="0.85"/>
<path d="M467.7 67.1 L474.1 73.5 M467.7 73.5 L474.1 67.1" stroke="#e0556b" stroke-width="1.6"/>
<circle cx="502.5" cy="55.3" r="3.4" fill="#2ec26b" opacity="0.85"/>
<circle cx="504.1" cy="163.6" r="3.4" fill="#2ec26b" opacity="0.85"/>
<circle cx="506.6" cy="145.0" r="3.4" fill="#2ec26b" opacity="0.85"/>
<path d="M501.8 133.3 L508.2 139.7 M501.8 139.7 L508.2 133.3" stroke="#e0556b" stroke-width="1.6"/>
<circle cx="503.3" cy="165.0" r="3.4" fill="#2ec26b" opacity="0.85"/>
<circle cx="511.5" cy="152.9" r="3.4" fill="#2ec26b" opacity="0.85"/>
<circle cx="511.5" cy="160.7" r="3.4" fill="#2ec26b" opacity="0.85"/>
<path d="M513.9 145.4 L520.3 151.8 M513.9 151.8 L520.3 145.4" stroke="#e0556b" stroke-width="1.6"/>
<circle cx="515.5" cy="153.6" r="3.4" fill="#2ec26b" opacity="0.85"/>
<circle cx="513.1" cy="151.4" r="3.4" fill="#2ec26b" opacity="0.85"/>
<circle cx="502.5" cy="156.4" r="3.4" fill="#2ec26b" opacity="0.85"/>
<path d="M504.2 143.3 L510.6 149.7 M504.2 149.7 L510.6 143.3" stroke="#e0556b" stroke-width="1.6"/>
<circle cx="511.5" cy="162.1" r="3.4" fill="#2ec26b" opacity="0.85"/>
<path d="M509.4 150.5 L515.8 156.9 M509.4 156.9 L515.8 150.5" stroke="#e0556b" stroke-width="1.6"/>
<circle cx="512.6" cy="154.4" r="3.4" fill="#2ec26b" opacity="0.85"/>
<path d="M412.1 63.0 L418.5 69.4 M412.1 69.4 L418.5 63.0" stroke="#e0556b" stroke-width="1.6"/>
<circle cx="510.9" cy="153.7" r="3.4" fill="#2ec26b" opacity="0.85"/>
<circle cx="479.2" cy="145.5" r="3.4" fill="#2ec26b" opacity="0.85"/>
<circle cx="514.8" cy="38.0" r="3.4" fill="#2ec26b" opacity="0.85"/>
<circle cx="393.2" cy="97.8" r="3.4" fill="#2ec26b" opacity="0.85"/>
<path d="M453.2 265.4 L459.6 271.8 M453.2 271.8 L459.6 265.4" stroke="#e0556b" stroke-width="1.6"/>
<path d="M478.4 167.2 L484.8 173.6 M478.4 173.6 L484.8 167.2" stroke="#e0556b" stroke-width="1.6"/>
<circle cx="497.8" cy="178.9" r="3.4" fill="#2ec26b" opacity="0.85"/>
<path d="M485.7 166.4 L492.1 172.8 M485.7 172.8 L492.1 166.4" stroke="#e0556b" stroke-width="1.6"/>
<path d="M451.6 259.0 L458.0 265.4 M451.6 265.4 L458.0 259.0" stroke="#e0556b" stroke-width="1.6"/>
<circle cx="480.8" cy="144.8" r="3.4" fill="#2ec26b" opacity="0.85"/>
<circle cx="514.8" cy="128.4" r="3.4" fill="#2ec26b" opacity="0.85"/>
<circle cx="479.2" cy="173.2" r="3.4" fill="#2ec26b" opacity="0.85"/>
<circle cx="505.9" cy="122.7" r="3.4" fill="#2ec26b" opacity="0.85"/>
<circle cx="482.4" cy="150.4" r="3.4" fill="#2ec26b" opacity="0.85"/>
<circle cx="492.2" cy="177.5" r="3.4" fill="#2ec26b" opacity="0.85"/>
<circle cx="490.5" cy="122.0" r="3.4" fill="#2ec26b" opacity="0.85"/>
<path d="M463.8 167.9 L470.2 174.3 M463.8 174.3 L470.2 167.9" stroke="#e0556b" stroke-width="1.6"/>
<path d="M500.1 167.5 L506.5 173.9 M500.1 173.9 L506.5 167.5" stroke="#e0556b" stroke-width="1.6"/>
<circle cx="503.3" cy="142.2" r="3.4" fill="#2ec26b" opacity="0.85"/>
<path d="M479.9 244.3 L486.3 250.7 M479.9 250.7 L486.3 244.3" stroke="#e0556b" stroke-width="1.6"/>
<circle cx="498.5" cy="162.8" r="3.4" fill="#2ec26b" opacity="0.85"/>
<path d="M426.6 55.1 L433.0 61.5 M426.6 61.5 L433.0 55.1" stroke="#e0556b" stroke-width="1.6"/>
<circle cx="502.0" cy="172.9" r="3.4" fill="#2ec26b" opacity="0.85"/>
<circle cx="488.3" cy="145.2" r="3.4" fill="#2ec26b" opacity="0.85"/>
<circle cx="505.3" cy="155.1" r="3.4" fill="#2ec26b" opacity="0.85"/>
<path d="M465.6 156.2 L472.0 162.6 M465.6 162.6 L472.0 156.2" stroke="#e0556b" stroke-width="1.6"/>
<circle cx="511.8" cy="158.0" r="3.4" fill="#2ec26b" opacity="0.85"/>
<circle cx="502.8" cy="150.9" r="3.4" fill="#2ec26b" opacity="0.85"/>
<path d="M481.8 163.3 L488.2 169.7 M481.8 169.7 L488.2 163.3" stroke="#e0556b" stroke-width="1.6"/>
<path d="M494.8 145.5 L501.2 151.9 M494.8 151.9 L501.2 145.5" stroke="#e0556b" stroke-width="1.6"/>
<circle cx="502.8" cy="151.6" r="3.4" fill="#2ec26b" opacity="0.85"/>
<path d="M519.6 124.7 L526.0 131.1 M519.6 131.1 L526.0 124.7" stroke="#e0556b" stroke-width="1.6"/>
<path d="M505.6 150.8 L512.0 157.2 M505.6 157.2 L512.0 150.8" stroke="#e0556b" stroke-width="1.6"/>
<circle cx="487.1" cy="150.7" r="3.4" fill="#2ec26b" opacity="0.85"/>
<circle cx="508.2" cy="156.4" r="3.4" fill="#2ec26b" opacity="0.85"/>
<path d="M491.9 129.6 L498.3 136.0 M491.9 136.0 L498.3 129.6" stroke="#e0556b" stroke-width="1.6"/>
<circle cx="510.6" cy="127.9" r="3.4" fill="#2ec26b" opacity="0.85"/>
<circle cx="486.3" cy="159.3" r="3.4" fill="#2ec26b" opacity="0.85"/>
<path d="M505.6 150.8 L512.0 157.2 M505.6 157.2 L512.0 150.8" stroke="#e0556b" stroke-width="1.6"/>
<path d="M505.6 150.8 L512.0 157.2 M505.6 157.2 L512.0 150.8" stroke="#e0556b" stroke-width="1.6"/>
<path d="M503.4 132.6 L509.8 139.0 M503.4 139.0 L509.8 132.6" stroke="#e0556b" stroke-width="1.6"/>
<path d="M425.5 55.7 L431.9 62.1 M425.5 62.1 L431.9 55.7" stroke="#e0556b" stroke-width="1.6"/>
<circle cx="511.5" cy="137.9" r="3.4" fill="#2ec26b" opacity="0.85"/>
<circle cx="501.2" cy="150.9" r="3.4" fill="#2ec26b" opacity="0.85"/>
<circle cx="482.5" cy="147.3" r="3.4" fill="#2ec26b" opacity="0.85"/>
<path d="M524.0 233.8 L530.4 240.2 M524.0 240.2 L530.4 233.8" stroke="#e0556b" stroke-width="1.6"/>
<circle cx="498.8" cy="123.1" r="3.4" fill="#2ec26b" opacity="0.85"/>
<path d="M506.6 162.5 L513.0 168.9 M506.6 168.9 L513.0 162.5" stroke="#e0556b" stroke-width="1.6"/>
<path d="M500.9 35.1 L507.3 41.5 M500.9 41.5 L507.3 35.1" stroke="#e0556b" stroke-width="1.6"/>
<path d="M484.7 170.3 L491.1 176.7 M484.7 176.7 L491.1 170.3" stroke="#e0556b" stroke-width="1.6"/>
<path d="M465.2 119.8 L471.6 126.2 M465.2 126.2 L471.6 119.8" stroke="#e0556b" stroke-width="1.6"/>
<circle cx="492.8" cy="152.2" r="3.4" fill="#2ec26b" opacity="0.85"/>
<circle cx="490.3" cy="156.4" r="3.4" fill="#2ec26b" opacity="0.85"/>
<circle cx="457.1" cy="124.4" r="3.4" fill="#2ec26b" opacity="0.85"/>
<circle cx="509.8" cy="152.2" r="3.4" fill="#2ec26b" opacity="0.85"/>
<circle cx="512.6" cy="163.0" r="3.4" fill="#2ec26b" opacity="0.85"/>
<path d="M471.2 104.3 L477.6 110.7 M471.2 110.7 L477.6 104.3" stroke="#e0556b" stroke-width="1.6"/>
<path d="M505.3 136.3 L511.7 142.7 M505.3 142.7 L511.7 136.3" stroke="#e0556b" stroke-width="1.6"/>
<path d="M502.1 163.3 L508.5 169.7 M502.1 169.7 L508.5 163.3" stroke="#e0556b" stroke-width="1.6"/>
<circle cx="505.3" cy="177.2" r="3.4" fill="#2ec26b" opacity="0.85"/>
<circle cx="501.2" cy="188.6" r="3.4" fill="#2ec26b" opacity="0.85"/>
<path d="M499.6 162.6 L506.0 169.0 M499.6 169.0 L506.0 162.6" stroke="#e0556b" stroke-width="1.6"/>
<path d="M455.8 258.0 L462.2 264.4 M455.8 264.4 L462.2 258.0" stroke="#e0556b" stroke-width="1.6"/>
<path d="M505.6 150.8 L512.0 157.2 M505.6 157.2 L512.0 150.8" stroke="#e0556b" stroke-width="1.6"/>
<circle cx="506.1" cy="163.0" r="3.4" fill="#2ec26b" opacity="0.85"/>
<circle cx="505.0" cy="160.7" r="3.4" fill="#2ec26b" opacity="0.85"/>
<path d="M491.2 113.4 L497.6 119.8 M491.2 119.8 L497.6 113.4" stroke="#e0556b" stroke-width="1.6"/>
<circle cx="433.1" cy="257.6" r="3.4" fill="#2ec26b" opacity="0.85"/>
<path d="M377.9 91.4 L384.3 97.8 M377.9 97.8 L384.3 91.4" stroke="#e0556b" stroke-width="1.6"/>
<path d="M507.7 177.6 L514.1 184.0 M507.7 184.0 L514.1 177.6" stroke="#e0556b" stroke-width="1.6"/>
<circle cx="484.2" cy="157.3" r="3.4" fill="#2ec26b" opacity="0.85"/>
<circle cx="499.6" cy="155.8" r="3.4" fill="#2ec26b" opacity="0.85"/>
<circle cx="511.8" cy="174.4" r="3.4" fill="#2ec26b" opacity="0.85"/>
<path d="M462.3 146.2 L468.7 152.6 M462.3 152.6 L468.7 146.2" stroke="#e0556b" stroke-width="1.6"/>
<path d="M491.5 125.6 L497.9 132.0 M491.5 132.0 L497.9 125.6" stroke="#e0556b" stroke-width="1.6"/>
<path d="M516.4 131.9 L522.8 138.3 M516.4 138.3 L522.8 131.9" stroke="#e0556b" stroke-width="1.6"/>
<path d="M464.4 37.9 L470.8 44.3 M464.4 44.3 L470.8 37.9" stroke="#e0556b" stroke-width="1.6"/>
<path d="M516.4 270.0 L522.8 276.4 M516.4 276.4 L522.8 270.0" stroke="#e0556b" stroke-width="1.6"/>
<circle cx="469.3" cy="154.3" r="3.4" fill="#2ec26b" opacity="0.85"/>
<path d="M438.5 52.1 L444.9 58.5 M438.5 58.5 L444.9 52.1" stroke="#e0556b" stroke-width="1.6"/>
<circle cx="513.1" cy="170.7" r="3.4" fill="#2ec26b" opacity="0.85"/>
<path d="M458.7 39.3 L465.1 45.7 M458.7 45.7 L465.1 39.3" stroke="#e0556b" stroke-width="1.6"/>
<circle cx="519.1" cy="197.1" r="3.4" fill="#2ec26b" opacity="0.85"/>
<path d="M512.6 84.3 L519.0 90.7 M512.6 90.7 L519.0 84.3" stroke="#e0556b" stroke-width="1.6"/>
<path d="M459.9 113.5 L466.3 119.9 M459.9 119.9 L466.3 113.5" stroke="#e0556b" stroke-width="1.6"/>
<circle cx="502.8" cy="167.2" r="3.4" fill="#2ec26b" opacity="0.85"/>
<path d="M511.8 31.6 L518.2 38.0 M511.8 38.0 L518.2 31.6" stroke="#e0556b" stroke-width="1.6"/>
<path d="M485.8 124.9 L492.2 131.3 M485.8 131.3 L492.2 124.9" stroke="#e0556b" stroke-width="1.6"/>
<circle cx="489.0" cy="160.1" r="3.4" fill="#2ec26b" opacity="0.85"/>
<circle cx="518.3" cy="179.4" r="3.4" fill="#2ec26b" opacity="0.85"/>
<path d="M517.5 136.3 L523.9 142.7 M517.5 142.7 L523.9 136.3" stroke="#e0556b" stroke-width="1.6"/>
<path d="M405.6 70.1 L412.0 76.5 M405.6 76.5 L412.0 70.1" stroke="#e0556b" stroke-width="1.6"/>
<circle cx="508.8" cy="154.0" r="3.4" fill="#2ec26b" opacity="0.85"/>
<circle cx="510.9" cy="207.8" r="3.4" fill="#2ec26b" opacity="0.85"/>
<path d="M507.7 206.7 L514.1 213.1 M507.7 213.1 L514.1 206.7" stroke="#e0556b" stroke-width="1.6"/>
<circle cx="522.3" cy="171.5" r="3.4" fill="#2ec26b" opacity="0.85"/>
<circle cx="493.9" cy="165.1" r="3.4" fill="#2ec26b" opacity="0.85"/>
<path d="M511.5 236.5 L517.9 242.9 M511.5 242.9 L517.9 236.5" stroke="#e0556b" stroke-width="1.6"/>
<circle cx="500.9" cy="125.1" r="3.4" fill="#2ec26b" opacity="0.85"/>
<circle cx="529.3" cy="127.2" r="3.4" fill="#2ec26b" opacity="0.85"/>
</svg>