<svg xmlns="http://www.w3.org/2000/svg" width="560" height="300" font-family="sans-serif">
<rect x="0" y="0" width="560" height="300" fill="#1b1b1b"/>
<text x="20" y="16" fill="#ddd" font-size="13">B. Beamer (COR) — 193 tiros, Clasificatorio</text>
<rect x="20" y="28" width="520" height="252" fill="none" stroke="#555"/>
<path d="M372.3 179.0 L378.7 185.4 M372.3 185.4 L378.7 179.0" stroke="#e0556b" stroke-width="1.6"/>
<path d="M356.9 181.8 L363.3 188.2 M356.9 188.2 L363.3 181.8" stroke="#e0556b" stroke-width="1.6"/>
<path d="M480.2 71.5 L486.6 77.9 M480.2 77.9 L486.6 71.5" stroke="#e0556b" stroke-width="1.6"/>
<circle cx="427.4" cy="245.6" r="3.4" fill="#2ec26b" opacity="0.85"/>
<circle cx="472.0" cy="105.3" r="3.4" fill="#2ec26b" opacity="0.85"/>
<path d="M504.5 162.6 L510.9 169.0 M504.5 169.0 L510.9 162.6" stroke="#e0556b" stroke-width="1.6"/>
<path d="M492.3 151.2 L498.7 157.6 M492.3 157.6 L498.7 151.2" stroke="#e0556b" stroke-width="1.6"/>
<circle cx="501.2" cy="148.0" r="3.4" fill="#2ec26b" opacity="0.85"/>
<path d="M387.7 71.5 L394.1 77.9 M387.7 77.9 L394.1 71.5" stroke="#e0556b" stroke-width="1.6"/>
<path d="M498.8 171.2 L505.2 177.6 M498.8 177.6 L505.2 171.2" stroke="#e0556b" stroke-width="1.6"/>
<circle cx="441.7" cy="253.9" r="3.4" fill="#2ec26b" opacity="0.85"/>
<path d="M383.3 215.2 L389.7 221.6 M383.3 221.6 L389.7 215.2" stroke="#e0556b" stroke-width="1.6"/>
<path d="M396.3 82.0 L402.7 88.4 M396.3 88.4 L402.7 82.0" stroke="#e0556b" stroke-width="1.6"/>
<circle cx="504.1" cy="141.5" r="3.4" fill="#2ec26b" opacity="0.85"/>
<path d="M486.4 135.4 L492.8 141.8 M486.4 141.8 L492.8 135.4" stroke="#e0556b" stroke-width="1.6"/>
<circle cx="461.2" cy="207.0" r="3.4" fill="#2ec26b" opacity="0.85"/>
<path d="M394.7 218.7 L401.1 225.1 M394.7 225.1 L401.1 218.7" stroke="#e0556b" stroke-width="1.6"/>
<path d="M484.7 124.0 L491.1 130.4 M484.7 130.4 L491.1 124.0" stroke="#e0556b" stroke-width="1.6"/>
<circle cx="508.2" cy="162.8" r="3.4" fill="#2ec26b" opacity="0.85"/>
<circle cx="375.2" cy="201.3" r="3.4" fill="#2ec26b" opacity="0.85"/>
<circle cx="516.3" cy="271.0" r="3.4" fill="#2ec26b" opacity="0.85"/>
<path d="M385.0 97.7 L391.4 104.1 M385.0 104.1 L391.4 97.7" stroke="#e0556b" stroke-width="1.6"/>
<path d="M498.5 161.8 L504.9 168.2 M498.5 168.2 L504.9 161.8" stroke="#e0556b" stroke-width="1.6"/>
<path d="M432.8 49.3 L439.2 55.7 M432.8 55.7 L439.2 49.3" stroke="#e0556b" stroke-width="1.6"/>
<circle cx="513.1" cy="152.2" r="3.4" fill="#2ec26b" opacity="0.85"/>
<path d="M376.0 185.2 L382.4 191.6 M376.0 191.6 L382.4 185.2" stroke="#e0556b" stroke-width="1.6"/>
<path d="M500.9 124.0 L507.3 130.4 M500.9 130.4 L507.3 124.0" stroke="#e0556b" stroke-width="1.6"/>
<path d="M369.5 141.8 L375.9 148.2 M369.5 148.2 L375.9 141.8" stroke="#e0556b" stroke-width="1.6"/>
<circle cx="501.7" cy="157.1" r="3.4" fill="#2ec26b" opacity="0.85"/>
<circle cx="503.7" cy="182.9" r="3.4" fill="#2ec26b" opacity="0.85"/>
<path d="M359.3 142.0 L365.7 148.4 M359.3 148.4 L365.7 142.0" stroke="#e0556b" stroke-width="1.6"/>
<circle cx="383.6" cy="116.7" r="3.4" fill="#2ec26b" opacity="0.85"/>
<path d="M411.2 49.4 L417.6 55.8 M411.2 55.8 L417.6 49.4" stroke="#e0556b" stroke-width="1.6"/>
<path d="M488.3 33.1 L494.7 39.5 M488.3 39.5 L494.7 33.1" stroke="#e0556b" stroke-width="1.6"/>
<circle cx="390.9" cy="213.5" r="3.4" fill="#2ec26b" opacity="0.85"/>
<path d="M420.2 56.6 L426.6 63.0 M420.2 63.0 L426.6 56.6" stroke="#e0556b" stroke-width="1.6"/>
<circle cx="438.8" cy="259.1" r="3.4" fill="#2ec26b" opacity="0.85"/>
<circle cx="509.3" cy="154.4" r="3.4" fill="#2ec26b" opacity="0.85"/>
<path d="M457.4 164.0 L463.8 170.4 M457.4 170.4 L463.8 164.0" stroke="#e0556b" stroke-width="1.6"/>
<path d="M506.1 121.3 L512.5 127.7 M506.1 127.7 L512.5 121.3" stroke="#e0556b" stroke-width="1.6"/>
<path d="M437.2 251.6 L443.6 258.0 M437.2 258.0 L443.6 251.6" stroke="#e0556b" stroke-width="1.6"/>
<path d="M384.4 208.2 L390.8 214.6 M384.4 214.6 L390.8 208.2" stroke="#e0556b" stroke-width="1.6"/>
<circle cx="423.4" cy="227.0" r="3.4" fill="#2ec26b" opacity="0.85"/>
<circle cx="514.2" cy="145.9" r="3.4" fill="#2ec26b" opacity="0.85"/>
<path d="M508.3 171.7 L514.7 178.1 M508.3 178.1 L514.7 171.7" stroke="#e0556b" stroke-width="1.6"/>
<path d="M376.8 181.7 L383.2 188.1 M376.8 188.1 L383.2 181.7" stroke="#e0556b" stroke-width="1.6"/>
<circle cx="505.0" cy="187.7" r="3.4" fill="#2ec26b" opacity="0.85"/>
<circle cx="442.5" cy="257.5" r="3.4" fill="#2ec26b" opacity="0.85"/>
<path d="M409.3 76.3 L415.7 82.7 M409.3 82.7 L415.7 76.3" stroke="#e0556b" stroke-width="1.6"/>
<path d="M519.6 270.0 L526.0 276.4 M519.6 276.4 L526.0 270.0" stroke="#e0556b" stroke-width="1.6"/>
<path d="M394.7 90.6 L401.1 97.0 M394.7 97.0 L401.1 90.6" stroke="#e0556b" stroke-width="1.6"/>
<path d="M424.7 57.8 L431.1 64.2 M424.7 64.2 L431.1 57.8" stroke="#e0556b" stroke-width="1.6"/>
<path d="M422.2 52.1 L428.6 58.5 M422.2 58.5 L428.6 52.1" stroke="#e0556b" stroke-width="1.6"/>
<path d="M519.6 126.9 L526.0 133.3 M519.6 133.3 L526.0 126.9" stroke="#e0556b" stroke-width="1.6"/>
<circle cx="506.6" cy="176.4" r="3.4" fill="#2ec26b" opacity="0.85"/>
<circle cx="514.7" cy="141.5" r="3.4" fill="#2ec26b" opacity="0.85"/>
<path d="M507.7 173.3 L514.1 179.7 M507.7 179.7 L514.1 173.3" stroke="#e0556b" stroke-width="1.6"/>
<circle cx="381.1" cy="111.7" r="3.4" fill="#2ec26b" opacity="0.85"/>
<path d="M369.0 142.7 L375.4 149.1 M369.0 149.1 L375.4 142.7" stroke="#e0556b" stroke-width="1.6"/>
<circle cx="515.0" cy="134.5" r="3.4" fill="#2ec26b" opacity="0.85"/>
<circle cx="510.9" cy="168.7" r="3.4" fill="#2ec26b" opacity="0.85"/>
<circle cx="519.9" cy="137.3" r="3.4" fill="#2ec26b" opacity="0.85"/>
<circle cx="487.4" cy="133.1" r="3.4" fill="#2ec26b" opacity="0.85"/>
<path d="M505.6 150.8 L512.0 157.2 M505.6 157.2 L512.0 150.8" stroke="#e0556b" stroke-width="1.6"/>
<path d="M510.2 170.5 L516.6 176.9 M510.2 176.9 L516.6 170.5" stroke="#e0556b" stroke-width="1.6"/>
<circle cx="513.4" cy="168.7" r="3.4" fill="#2ec26b" opacity="0.85"/>
<path d="M496.2 116.6 L502.6 123.0 M496.2 123.0 L502.6 116.6" stroke="#e0556b" stroke-width="1.6"/>
<circle cx="388.3" cy="82.1" r="3.4" fill="#2ec26b" opacity="0.85"/>
<circle cx="486.4" cy="165.4" r="3.4" fill="#2ec26b" opacity="0.85"/>
<path d="M484.9 269.0 L491.3 275.4 M484.9 275.4 L491.3 269.0" stroke="#e0556b" stroke-width="1.6"/>
<path d="M411.1 67.5 L417.5 73.9 M411.1 73.9 L417.5 67.5" stroke="#e0556b" stroke-width="1.6"/>
<circle cx="501.1" cy="165.4" r="3.4" fill="#2ec26b" opacity="0.85"/>
<path d="M486.5 141.6 L492.9 148.0 M486.5 148.0 L492.9 141.6" stroke="#e0556b" stroke-width="1.6"/>
<circle cx="492.2" cy="40.1" r="3.4" fill="#2ec26b" opacity="0.85"/>
<circle cx="368.0" cy="120.5" r="3.4" fill="#2ec26b" opacity="0.85"/>
<path d="M431.3 252.6 L437.7 259.0 M431.3 259.0 L437.7 252.6" stroke="#e0556b" stroke-width="1.6"/>
<circle cx="488.1" cy="161.1" r="3.4" fill="#2ec26b" opacity="0.85"/>
<circle cx="514.1" cy="179.6" r="3.4" fill="#2ec26b" opacity="0.85"/>
<circle cx="468.6" cy="180.3" r="3.4" fill="#2ec26b" opacity="0.85"/>
<circle cx="418.9" cy="248.2" r="3.4" fill="#2ec26b" opacity="0.85"/>
<path d="M488.0 144.0 L494.4 150.4 M488.0 150.4 L494.4 144.0" stroke="#e0556b" stroke-width="1.6"/>
<circle cx="500.1" cy="153.6" r="3.4" fill="#2ec26b" opacity="0.85"/>
<circle cx="500.1" cy="271.0" r="3.4" fill="#2ec26b" opacity="0.85"/>
<path d="M470.1 184.5 L476.5 190.9 M470.1 190.9 L476.5 184.5" stroke="#e0556b" stroke-width="1.6"/>
<path d="M391.4 64.9 L397.8 71.3 M391.4 71.3 L397.8 64.9" stroke="#e0556b" stroke-width="1.6"/>
<circle cx="425.4" cy="59.6" r="3.4" fill="#2ec26b" opacity="0.85"/>
<circle cx="505.8" cy="159.3" r="3.4" fill="#2ec26b" opacity="0.85"/>
<circle cx="509.0" cy="151.4" r="3.4" fill="#2ec26b" opacity="0.85"/>
<circle cx="513.9" cy="37.6" r="3.4" fill="#2ec26b" opacity="0.85"/>
<circle cx="488.3" cy="165.8" r="3.4" fill="#2ec26b" opacity="0.85"/>
<path d="M468.8 173.3 L475.2 179.7 M468.8 179.7 L475.2 173.3" stroke="#e0556b" stroke-width="1.6"/>
<circle cx="515.0" cy="165.8" r="3.4" fill="#2ec26b" opacity="0.85"/>
<circle cx="517.4" cy="168.0" r="3.4" fill="#2ec26b" opacity="0.85"/>
<path d="M514.2 163.3 L520.6 169.7 M514.2 169.7 L520.6 163.3" stroke="#e0556b" stroke-width="1.6"/>
<path d="M384.4 222.4 L390.8 228.8 M384.4 228.8 L390.8 222.4" stroke="#e0556b" stroke-width="1.6"/>
<path d="M395.0 55.8 L401.4 62.2 M395.0 62.2 L401.4 55.8" stroke="#e0556b" stroke-width="1.6"/>
<circle cx="506.6" cy="168.5" r="3.4" fill="#2ec26b" opacity="0.85"/>
<circle cx="500.1" cy="155.7" r="3.4" fill="#2ec26b" opacity="0.85"/>
<path d="M477.4 156.8 L483.8 163.2 M477.4 163.2 L483.8 156.8" stroke="#e0556b" stroke-width="1.6"/>
<path d="M363.8 139.0 L370.2 145.4 M363.8 145.4 L370.2 139.0" stroke="#e0556b" stroke-width="1.6"/>
<circle cx="509.8" cy="165.0" r="3.4" fill="#2ec26b" opacity="0.85"/>
<circle cx="480.6" cy="181.3" r="3.4" fill="#2ec26b" opacity="0.85"/>
<circle cx="474.1" cy="110.9" r="3.4" fill="#2ec26b" opacity="0.85"/>
<circle cx="497.7" cy="130.8" r="3.4" fill="#2ec26b" opacity="0.85"/>
<circle cx="496.8" cy="183.5" r="3.4" fill="#2ec26b" opacity="0.85"/>
<circle cx="504.5" cy="151.6" r="3.4" fill="#2ec26b" opacity="0.85"/>
<circle cx="506.9" cy="182.9" r="3.4" fill="#2ec26b" opacity="0.85"/>
<path d="M411.2 39.5 L417.6 45.9 M411.2 45.9 L417.6 39.5" stroke="#e0556b" stroke-width="1.6"/>
<path d="M485.8 130.6 L492.2 137.0 M485.8 137.0 L492.2 130.6" stroke="#e0556b" stroke-width="1.6"/>
<path d="M408.0 69.4 L414.4 75.8 M408.0 75.8 L414.4 69.4" stroke="#e0556b" stroke-width="1.6"/>
<circle cx="504.5" cy="148.7" r="3.4" fill="#2ec26b" opacity="0.85"/>
<circle cx="375.5" cy="105.3" r="3.4" fill="#2ec26b" opacity="0.85"/>
<path d="M399.9 237.4 L406.3 243.8 M399.9 243.8 L406.3 237.4" stroke="#e0556b" stroke-width="1.6"/>
<path d="M418.5 56.6 L424.9 63.0 M418.5 63.0 L424.9 56.6" stroke="#e0556b" stroke-width="1.6"/>
<path d="M397.4 82.9 L403.8 89.3 M397.4 89.3 L403.8 82.9" stroke="#e0556b" stroke-width="1.6"/>
<circle cx="509.3" cy="149.4" r="3.4" fill="#2ec26b" opacity="0.85"/>
<circle cx="507.7" cy="148.7" r="3.4" fill="#2ec26b" opacity="0.85"/>
<path d="M398.7 82.7 L405.1 89.1 M398.7 89.1 L405.1 82.7" stroke="#e0556b" stroke-width="1.6"/>
<path d="M409.3 242.9 L415.7 249.3 M409.3 249.3 L415.7 242.9" stroke="#e0556b" stroke-width="1.6"/>
<path d="M513.1 141.8 L519.5 148.2 M513.1 148.2 L519.5 141.8" stroke="#e0556b" stroke-width="1.6"/>
<circle cx="509.8" cy="184.9" r="3.4" fill="#2ec26b" opacity="0.85"/>
<circle cx="510.6" cy="157.1" r="3.4" fill="#2ec26b" opacity="0.85"/>
<circle cx="503.7" cy="128.8" r="3.4" fill="#2ec26b" opacity="0.85"/>
<circle cx="510.9" cy="142.3" r="3.4" fill="#2ec26b" opacity="0.85"/>
<circle cx="519.1" cy="177.2" r="3.4" fill="#2ec26b" opacity="0.85"/>
<circle cx="482.5" cy="113.9" r="3.4" fill="#2ec26b" opacity="0.85"/>
<path d="M361.7 132.0 L368.1 138.4 M361.7 138.4 L368.1 132.0" stroke="#e0556b" stroke-width="1.6"/>
<circle cx="442.8" cy="254.1" r="3.4" fill="#2ec26b" opacity="0.85"/>
<path d="M437.2 250.2 L443.6 256.6 M437.2 256.6 L443.6 250.2" stroke="#e0556b" stroke-width="1.6"/>
<circle cx="510.9" cy="135.9" r="3.4" fill="#2ec26b" opacity="0.85"/>
<circle cx="470.1" cy="52.5" r="3.4" fill="#2ec26b" opacity="0.85"/>
<circle cx="505.8" cy="174.9" r="3.4" fill="#2ec26b" opacity="0.85"/>
<circle cx="519.6" cy="129.4" r="3.4" fill="#2ec26b" opacity="0.85"/>
<path d="M435.2 45.7 L441.6 52.1 M435.2 52.1 L441.6 45.7" stroke="#e0556b" stroke-width="1.6"/>
<path d="M502.6 124.7 L509.0 131.1 M502.6 131.1 L509.0 124.7" stroke="#e0556b" stroke-width="1.6"/>
<path d="M363.8 129.7 L370.2 136.1 M363.8 136.1 L370.2 129.7" stroke="#e0556b" stroke-width="1.6"/>
<path d="M486.4 150.4 L492.8 156.8 M486.4 156.8 L492.8 150.4" stroke="#e0556b" stroke-width="1.6"/>
<circle cx="500.1" cy="162.1" r="3.4" fill="#2ec26b" opacity="0.85"/>
<circle cx="501.7" cy="139.3" r="3.4" fill="#2ec26b" opacity="0.85"/>
<circle cx="359.8" cy="165.0" r="3.4" fill="#2ec26b" opacity="0.85"/>
<path d="M440.1 260.7 L446.5 267.1 M440.1 267.1 L446.5 260.7" stroke="#e0556b" stroke-width="1.6"/>
<path d="M458.0 264.3 L464.4 270.7 M458.0 270.7 L464.4 264.3" stroke="#e0556b" stroke-width="1.6"/>
<circle cx="505.0" cy="155.0" r="3.4" fill="#2ec26b" opacity="0.85"/>
<path d="M498.5 147.5 L504.9 153.9 M498.5 153.9 L504.9 147.5" stroke="#e0556b" stroke-width="1.6"/>
<circle cx="508.2" cy="162.8" r="3.4" fill="#2ec26b" opacity="0.85"/>
<circle cx="470.1" cy="179.9" r="3.4" fill="#2ec26b" opacity="0.85"/>
<path d="M504.5 153.4 L510.9 159.8 M504.5 159.8 L510.9 153.4" stroke="#e0556b" stroke-width="1.6"/>
<circle cx="491.5" cy="150.9" r="3.4" fill="#2ec26b" opacity="0.85"/>
<path d="M504.5 151.2 L510.9 157.6 M504.5 157.6 L510.9 151.2" stroke="#e0556b" stroke-width="1.6"/>
<path d="M455.8 265.1 L462.2 271.5 M455.8 271.5 L462.2 265.1" stroke="#e0556b" stroke-width="1.6"/>
<path d="M399.9 53.7 L406.3 60.1 M399.9 60.1 L406.3 53.7" stroke="#e0556b" stroke-width="1.6"/>
<circle cx="492.0" cy="128.6" r="3.4" fill="#2ec26b" opacity="0.85"/>
<circle cx="488.7" cy="178.5" r="3.4" fill="#2ec26b" opacity="0.85"/>
<circle cx="498.5" cy="176.4" r="3.4" fill="#2ec26b" opacity="0.85"/>
<circle cx="479.0" cy="170.0" r="3.4" fill="#2ec26b" opacity="0.85"/>
<path d="M492.3 176.9 L498.7 183.3 M492.3 183.3 L498.7 176.9" stroke="#e0556b" stroke-width="1.6"/>
<circle cx="512.6" cy="178.6" r="3.4" fill="#2ec26b" opacity="0.85"/>
<path d="M489.1 119.9 L495.5 126.3 M489.1 126.3 L495.5 119.9" stroke="#e0556b" stroke-width="1.6"/>
<circle cx="501.2" cy="40.5" r="3.4" fill="#2ec26b" opacity="0.85"/>
<path d="M473.7 191.8 L480.1 198.2 M473.7 198.2 L480.1 191.8" stroke="#e0556b" stroke-width="1.6"/>
<circle cx="374.7" cy="160.8" r="3.4" fill="#2ec26b" opacity="0.85"/>
<path d="M400.7 73.6 L407.1 80.0 M400.7 80.0 L407.1 73.6" stroke="#e0556b" stroke-width="1.6"/>
<circle cx="489.9" cy="126.7" r="3.4" fill="#2ec26b" opacity="0.85"/>
<circle cx="492.8" cy="141.5" r="3.4" fill="#2ec26b" opacity="0.85"/>
<path d="M500.1 165.3 L506.5 171.7 M500.1 171.7 L506.5 165.3" stroke="#e0556b" stroke-width="1.6"/>
<circle cx="509.8" cy="162.1" r="3.4" fill="#2ec26b" opacity="0.85"/>
<path d="M390.6 230.8 L397.0 237.2 M390.6 237.2 L397.0 230.8" stroke="#e0556b" stroke-width="1.6"/>
<path d="M471.7 176.7 L478.1 183.1 M471.7 183.1 L478.1 176.7" stroke="#e0556b" stroke-width="1.6"/>
<path d="M497.7 126.9 L504.1 133.3 M497.7 133.3 L504.1 126.9" stroke="#e0556b" stroke-width="1.6"/>
<circle cx="500.1" cy="115.1" r="3.4" fill="#2ec26b" opacity="0.85"/>
<path d="M376.0 164.6 L382.4 171.0 M376.0 171.0 L382.4 164.6" stroke="#e0556b" stroke-width="1.6"/>
<path d="M427.1 105.5 L433.5 111.9 M427.1 111.9 L433.5 105.5" stroke="#e0556b" stroke-width="1.6"/>
<circle cx="432.3" cy="247.7" r="3.4" fill="#2ec26b" opacity="0.85"/>
<path d="M505.6 150.8 L512.0 157.2 M505.6 157.2 L512.0 150.8" stroke="#e0556b" stroke-width="1.6"/>
<circle cx="505.3" cy="164.4" r="3.4" fill="#2ec26b" opacity="0.85"/>
<path d="M416.9 67.2 L423.3 73.6 M416.9 73.6 L423.3 67.2" stroke="#e0556b" stroke-width="1.6"/>
<circle cx="500.4" cy="71.8" r="3.4" fill="#2ec26b" opacity="0.85"/>
<path d="M493.2 162.6 L499.6 169.0 M493.2 169.0 L499.6 162.6" stroke="#e0556b" stroke-width="1.6"/>
<circle cx="501.2" cy="189.3" r="3.4" fill="#2ec26b" opacity="0.85"/>
<circle cx="504.5" cy="154.4" r="3.4" fill="#2ec26b" opacity="0.85"/>
<path d="M491.5 142.7 L497.9 149.1 M491.5 149.1 L497.9 142.7" stroke="#e0556b" stroke-width="1.6"/>
<circle cx="522.9" cy="157.6" r="3.4" fill="#2ec26b" opacity="0.85"/>
<circle cx="514.8" cy="162.5" r="3.4" fill="#2ec26b" opacity="0.85"/>
<circle cx="498.6" cy="173.9" r="3.4" fill="#2ec26b" opacity="0.85"/>
<circle cx="449.2" cy="47.9" r="3.4" fill="#2ec26b" opacity="0.85"/>
<circle cx="518.1" cy="144.8" r="3.4" fill="#2ec26b" opacity="0.85"/>
<path d="M478.4 155.8 L484.8 162.2 M478.4 162.2 L484.8 155.8" stroke="#e0556b" stroke-width="1.6"/>
<circle cx="512.4" cy="209.5" r="3.4" fill="#2ec26b" opacity="0.85"/>
<circle cx="511.6" cy="161.8" r="3.4" fill="#2ec26b" opacity="0.85"/>
<circle cx="466.2" cy="179.6" r="3.4" fill="#2ec26b" opacity="0.85"/>
<path d="M507.6 136.6 L514.0 143.0 M507.6 143.0 L514.0 136.6" stroke="#e0556b" stroke-width="1.6"/>
<path d="M514.9 135.2 L521.3 141.6 M514.9 141.6 L521.3 135.2" stroke="#e0556b" stroke-width="1.6"/>
<path d="M506.8 148.0 L513.2 154.4 M506.8 154.4 L513.2 148.0" stroke="#e0556b" stroke-width="1.6"/>
</svg>