<svg xmlns="http://www.w3.org/2000/svg" width="560" height="300" font-family="sans-serif">
<rect x="0" y="0" width="560" height="300" fill="#1b1b1b"/>
<text x="20" y="16" fill="#ddd" font-size="13">C. Zinaich (CNF) — 176 tiros, Clasificatorio</text>
<rect x="20" y="28" width="520" height="252" fill="none" stroke="#555"/>
<circle cx="521.5" cy="151.6" r="3.4" fill="#2ec26b" opacity="0.85"/>
<circle cx="488.3" cy="37.0" r="3.4" fill="#2ec26b" opacity="0.85"/>
<path d="M514.2 35.2 L520.6 41.6 M514.2 41.6 L520.6 35.2" stroke="#e0556b" stroke-width="1.6"/>
<circle cx="508.8" cy="154.0" r="3.4" fill="#2ec26b" opacity="0.85"/>
<path d="M400.4 77.0 L406.8 83.4 M400.4 83.4 L406.8 77.0" stroke="#e0556b" stroke-width="1.6"/>
<circle cx="517.1" cy="165.0" r="3.4" fill="#2ec26b" opacity="0.85"/>
<circle cx="509.8" cy="161.4" r="3.4" fill="#2ec26b" opacity="0.85"/>
<circle cx="523.6" cy="192.0" r="3.4" fill="#2ec26b" opacity="0.85"/>
<circle cx="516.7" cy="168.7" r="3.4" fill="#2ec26b" opacity="0.85"/>
<path d="M509.4 48.7 L515.8 55.1 M509.4 55.1 L515.8 48.7" stroke="#e0556b" stroke-width="1.6"/>
<path d="M511.0 137.0 L517.4 143.4 M511.0 143.4 L517.4 137.0" stroke="#e0556b" stroke-width="1.6"/>
<circle cx="515.8" cy="160.1" r="3.4" fill="#2ec26b" opacity="0.85"/>
<circle cx="514.2" cy="141.6" r="3.4" fill="#2ec26b" opacity="0.85"/>
<circle cx="419.8" cy="65.3" r="3.4" fill="#2ec26b" opacity="0.85"/>
<circle cx="509.8" cy="158.6" r="3.4" fill="#2ec26b" opacity="0.85"/>
<circle cx="409.2" cy="65.3" r="3.4" fill="#2ec26b" opacity="0.85"/>
<circle cx="510.2" cy="147.3" r="3.4" fill="#2ec26b" opacity="0.85"/>
<path d="M463.1 85.0 L469.5 91.4 M463.1 91.4 L469.5 85.0" stroke="#e0556b" stroke-width="1.6"/>
<circle cx="466.3" cy="247.7" r="3.4" fill="#2ec26b" opacity="0.85"/>
<circle cx="510.2" cy="152.3" r="3.4" fill="#2ec26b" opacity="0.85"/>
<path d="M485.1 102.1 L491.5 108.5 M485.1 108.5 L491.5 102.1" stroke="#e0556b" stroke-width="1.6"/>
<circle cx="507.7" cy="152.3" r="3.4" fill="#2ec26b" opacity="0.85"/>
<circle cx="508.8" cy="154.0" r="3.4" fill="#2ec26b" opacity="0.85"/>
<path d="M392.6 82.2 L399.0 88.6 M392.6 88.6 L399.0 82.2" stroke="#e0556b" stroke-width="1.6"/>
<circle cx="396.3" cy="99.5" r="3.4" fill="#2ec26b" opacity="0.85"/>
<path d="M409.3 69.9 L415.7 76.3 M409.3 76.3 L415.7 69.9" stroke="#e0556b" stroke-width="1.6"/>
<circle cx="512.2" cy="152.9" r="3.4" fill="#2ec26b" opacity="0.85"/>
<path d="M492.8 124.7 L499.2 131.1 M492.8 131.1 L499.2 124.7" stroke="#e0556b" stroke-width="1.6"/>
<circle cx="509.8" cy="159.3" r="3.4" fill="#2ec26b" opacity="0.85"/>
<circle cx="508.8" cy="154.0" r="3.4" fill="#2ec26b" opacity="0.85"/>
<path d="M380.1 195.9 L386.5 202.3 M380.1 202.3 L386.5 195.9" stroke="#e0556b" stroke-width="1.6"/>
<path d="M511.5 154.7 L517.9 161.1 M511.5 161.1 L517.9 154.7" stroke="#e0556b" stroke-width="1.6"/>
<circle cx="501.2" cy="157.3" r="3.4" fill="#2ec26b" opacity="0.85"/>
<circle cx="508.8" cy="154.0" r="3.4" fill="#2ec26b" opacity="0.85"/>
<circle cx="494.4" cy="173.5" r="3.4" fill="#2ec26b" opacity="0.85"/>
<circle cx="496.0" cy="149.3" r="3.4" fill="#2ec26b" opacity="0.85"/>
<circle cx="489.6" cy="153.6" r="3.4" fill="#2ec26b" opacity="0.85"/>
<circle cx="495.2" cy="157.9" r="3.4" fill="#2ec26b" opacity="0.85"/>
<path d="M458.0 125.4 L464.4 131.8 M458.0 131.8 L464.4 125.4" stroke="#e0556b" stroke-width="1.6"/>
<path d="M452.2 265.0 L458.6 271.4 M452.2 271.4 L458.6 265.0" stroke="#e0556b" stroke-width="1.6"/>
<path d="M408.0 112.8 L414.4 119.2 M408.0 119.2 L414.4 112.8" stroke="#e0556b" stroke-width="1.6"/>
<circle cx="403.9" cy="75.4" r="3.4" fill="#2ec26b" opacity="0.85"/>
<path d="M505.6 150.8 L512.0 157.2 M505.6 157.2 L512.0 150.8" stroke="#e0556b" stroke-width="1.6"/>
<circle cx="507.7" cy="155.1" r="3.4" fill="#2ec26b" opacity="0.85"/>
<path d="M372.3 149.8 L378.7 156.2 M372.3 156.2 L378.7 149.8" stroke="#e0556b" stroke-width="1.6"/>
<path d="M487.5 174.7 L493.9 181.1 M487.5 181.1 L493.9 174.7" stroke="#e0556b" stroke-width="1.6"/>
<path d="M495.3 142.5 L501.7 148.9 M495.3 148.9 L501.7 142.5" stroke="#e0556b" stroke-width="1.6"/>
<circle cx="503.3" cy="147.9" r="3.4" fill="#2ec26b" opacity="0.85"/>
<circle cx="508.2" cy="157.1" r="3.4" fill="#2ec26b" opacity="0.85"/>
<circle cx="490.3" cy="184.2" r="3.4" fill="#2ec26b" opacity="0.85"/>
<path d="M476.9 149.1 L483.3 155.5 M476.9 155.5 L483.3 149.1" stroke="#e0556b" stroke-width="1.6"/>
<path d="M367.4 108.5 L373.8 114.9 M367.4 114.9 L373.8 108.5" stroke="#e0556b" stroke-width="1.6"/>
<circle cx="506.6" cy="160.0" r="3.4" fill="#2ec26b" opacity="0.85"/>
<circle cx="492.0" cy="150.7" r="3.4" fill="#2ec26b" opacity="0.85"/>
<path d="M423.9 47.2 L430.3 53.6 M423.9 53.6 L430.3 47.2" stroke="#e0556b" stroke-width="1.6"/>
<circle cx="513.1" cy="157.9" r="3.4" fill="#2ec26b" opacity="0.85"/>
<circle cx="501.7" cy="157.9" r="3.4" fill="#2ec26b" opacity="0.85"/>
<circle cx="489.6" cy="150.7" r="3.4" fill="#2ec26b" opacity="0.85"/>
<circle cx="479.8" cy="162.1" r="3.4" fill="#2ec26b" opacity="0.85"/>
<path d="M505.6 150.8 L512.0 157.2 M505.6 157.2 L512.0 150.8" stroke="#e0556b" stroke-width="1.6"/>
<circle cx="496.0" cy="157.1" r="3.4" fill="#2ec26b" opacity="0.85"/>
<circle cx="508.5" cy="155.1" r="3.4" fill="#2ec26b" opacity="0.85"/>
<circle cx="507.7" cy="143.7" r="3.4" fill="#2ec26b" opacity="0.85"/>
<circle cx="501.2" cy="170.1" r="3.4" fill="#2ec26b" opacity="0.85"/>
<circle cx="505.8" cy="163.6" r="3.4" fill="#2ec26b" opacity="0.85"/>
<path d="M488.8 121.2 L495.2 127.6 M488.8 127.6 L495.2 121.2" stroke="#e0556b" stroke-width="1.6"/>
<circle cx="500.1" cy="147.9" r="3.4" fill="#2ec26b" opacity="0.85"/>
<path d="M498.8 154.1 L505.2 160.5 M498.8 160.5 L505.2 154.1" stroke="#e0556b" stroke-width="1.6"/>
<circle cx="511.8" cy="158.7" r="3.4" fill="#2ec26b" opacity="0.85"/>
<path d="M500.5 159.8 L506.9 166.2 M500.5 166.2 L506.9 159.8" stroke="#e0556b" stroke-width="1.6"/>
<circle cx="508.8" cy="154.0" r="3.4" fill="#2ec26b" opacity="0.85"/>
<path d="M362.2 151.1 L368.6 157.5 M362.2 157.5 L368.6 151.1" stroke="#e0556b" stroke-width="1.6"/>
<path d="M513.9 157.5 L520.3 163.9 M513.9 163.9 L520.3 157.5" stroke="#e0556b" stroke-width="1.6"/>
<circle cx="512.2" cy="147.2" r="3.4" fill="#2ec26b" opacity="0.85"/>
<path d="M311.4 72.9 L317.8 79.3 M311.4 79.3 L317.8 72.9" stroke="#e0556b" stroke-width="1.6"/>
<circle cx="516.3" cy="149.3" r="3.4" fill="#2ec26b" opacity="0.85"/>
<circle cx="500.9" cy="189.2" r="3.4" fill="#2ec26b" opacity="0.85"/>
<circle cx="464.4" cy="157.1" r="3.4" fill="#2ec26b" opacity="0.85"/>
<path d="M496.1 103.4 L502.5 109.8 M496.1 109.8 L502.5 103.4" stroke="#e0556b" stroke-width="1.6"/>
<path d="M445.0 178.1 L451.4 184.5 M445.0 184.5 L451.4 178.1" stroke="#e0556b" stroke-width="1.6"/>
<circle cx="507.4" cy="127.9" r="3.4" fill="#2ec26b" opacity="0.85"/>
<circle cx="496.0" cy="128.6" r="3.4" fill="#2ec26b" opacity="0.85"/>
<circle cx="508.8" cy="154.0" r="3.4" fill="#2ec26b" opacity="0.85"/>
<path d="M510.2 195.4 L516.6 201.8 M510.2 201.8 L516.6 195.4" stroke="#e0556b" stroke-width="1.6"/>
<path d="M498.8 96.4 L505.2 102.8 M498.8 102.8 L505.2 96.4" stroke="#e0556b" stroke-width="1.6"/>
<circle cx="459.9" cy="128.8" r="3.4" fill="#2ec26b" opacity="0.85"/>
<circle cx="508.8" cy="154.0" r="3.4" fill="#2ec26b" opacity="0.85"/>
<path d="M473.7 141.2 L480.1 147.6 M473.7 147.6 L480.1 141.2" stroke="#e0556b" stroke-width="1.6"/>
<path d="M412.8 51.6 L419.2 58.0 M412.8 58.0 L419.2 51.6" stroke="#e0556b" stroke-width="1.6"/>
<circle cx="505.3" cy="171.5" r="3.4" fill="#2ec26b" opacity="0.85"/>
<path d="M467.7 153.2 L474.1 159.6 M467.7 159.6 L474.1 153.2" stroke="#e0556b" stroke-width="1.6"/>
<circle cx="496.8" cy="151.4" r="3.4" fill="#2ec26b" opacity="0.85"/>
<path d="M510.7 94.9 L517.1 101.3 M510.7 101.3 L517.1 94.9" stroke="#e0556b" stroke-width="1.6"/>
<path d="M461.2 158.2 L467.6 164.6 M461.2 164.6 L467.6 158.2" stroke="#e0556b" stroke-width="1.6"/>
<path d="M514.8 267.8 L521.2 274.2 M514.8 274.2 L521.2 267.8" stroke="#e0556b" stroke-width="1.6"/>
<circle cx="364.6" cy="184.9" r="3.4" fill="#2ec26b" opacity="0.85"/>
<path d="M504.2 96.3 L510.6 102.7 M504.2 102.7 L510.6 96.3" stroke="#e0556b" stroke-width="1.6"/>
<path d="M488.3 125.6 L494.7 132.0 M488.3 132.0 L494.7 125.6" stroke="#e0556b" stroke-width="1.6"/>
<path d="M500.5 198.2 L506.9 204.6 M500.5 204.6 L506.9 198.2" stroke="#e0556b" stroke-width="1.6"/>
<path d="M505.6 150.8 L512.0 157.2 M505.6 157.2 L512.0 150.8" stroke="#e0556b" stroke-width="1.6"/>
<circle cx="365.7" cy="165.8" r="3.4" fill="#2ec26b" opacity="0.85"/>
<path d="M458.3 168.3 L464.7 174.7 M458.3 174.7 L464.7 168.3" stroke="#e0556b" stroke-width="1.6"/>
<circle cx="509.3" cy="177.9" r="3.4" fill="#2ec26b" opacity="0.85"/>
<circle cx="500.4" cy="160.1" r="3.4" fill="#2ec26b" opacity="0.85"/>
<circle cx="489.0" cy="134.5" r="3.4" fill="#2ec26b" opacity="0.85"/>
<circle cx="481.8" cy="145.9" r="3.4" fill="#2ec26b" opacity="0.85"/>
<circle cx="506.9" cy="164.4" r="3.4" fill="#2ec26b" opacity="0.85"/>
<circle cx="497.2" cy="162.3" r="3.4" fill="#2ec26b" opacity="0.85"/>
<path d="M503.7 217.4 L510.1 223.8 M503.7 223.8 L510.1 217.4" stroke="#e0556b" stroke-width="1.6"/>
<path d="M475.3 122.8 L481.7 129.2 M475.3 129.2 L481.7 122.8" stroke="#e0556b" stroke-width="1.6"/>
<path d="M511.0 197.5 L517.4 203.9 M511.0 203.9 L517.4 197.5" stroke="#e0556b" stroke-width="1.6"/>
<path d="M492.3 169.7 L498.7 176.1 M492.3 176.1 L498.7 169.7" stroke="#e0556b" stroke-width="1.6"/>
<path d="M458.7 203.8 L465.1 210.2 M458.7 210.2 L465.1 203.8" stroke="#e0556b" stroke-width="1.6"/>
<circle cx="496.8" cy="136.5" r="3.4" fill="#2ec26b" opacity="0.85"/>
<circle cx="502.5" cy="186.3" r="3.4" fill="#2ec26b" opacity="0.85"/>
<circle cx="493.6" cy="164.3" r="3.4" fill="#2ec26b" opacity="0.85"/>
<path d="M493.6 176.0 L500.0 182.4 M493.6 182.4 L500.0 176.0" stroke="#e0556b" stroke-width="1.6"/>
<circle cx="450.6" cy="152.2" r="3.4" fill="#2ec26b" opacity="0.85"/>
<path d="M459.6 161.8 L466.0 168.2 M459.6 168.2 L466.0 161.8" stroke="#e0556b" stroke-width="1.6"/>
<circle cx="499.3" cy="165.0" r="3.4" fill="#2ec26b" opacity="0.85"/>
<circle cx="491.2" cy="165.0" r="3.4" fill="#2ec26b" opacity="0.85"/>
<circle cx="483.1" cy="123.0" r="3.4" fill="#2ec26b" opacity="0.85"/>
<circle cx="461.9" cy="167.8" r="3.4" fill="#2ec26b" opacity="0.85"/>
<circle cx="499.6" cy="132.4" r="3.4" fill="#2ec26b" opacity="0.85"/>
<path d="M366.6 176.2 L373.0 182.6 M366.6 182.6 L373.0 176.2" stroke="#e0556b" stroke-width="1.6"/>
<circle cx="510.9" cy="143.7" r="3.4" fill="#2ec26b" opacity="0.85"/>
<circle cx="510.2" cy="135.9" r="3.4" fill="#2ec26b" opacity="0.85"/>
<circle cx="485.8" cy="160.1" r="3.4" fill="#2ec26b" opacity="0.85"/>
<circle cx="500.4" cy="150.1" r="3.4" fill="#2ec26b" opacity="0.85"/>
<circle cx="502.0" cy="150.1" r="3.4" fill="#2ec26b" opacity="0.85"/>
<circle cx="497.7" cy="146.5" r="3.4" fill="#2ec26b" opacity="0.85"/>
<circle cx="493.6" cy="155.7" r="3.4" fill="#2ec26b" opacity="0.85"/>
<circle cx="497.7" cy="157.9" r="3.4" fill="#2ec26b" opacity="0.85"/>
<circle cx="506.6" cy="153.6" r="3.4" fill="#2ec26b" opacity="0.85"/>
<circle cx="377.9" cy="93.9" r="3.4" fill="#2ec26b" opacity="0.85"/>
<path d="M386.9 98.6 L393.3 105.0 M386.9 105.0 L393.3 98.6" stroke="#e0556b" stroke-width="1.6"/>
<path d="M503.7 142.0 L510.1 148.4 M503.7 148.4 L510.1 142.0" stroke="#e0556b" stroke-width="1.6"/>
<circle cx="509.3" cy="170.1" r="3.4" fill="#2ec26b" opacity="0.85"/>
<path d="M397.4 80.7 L403.8 87.1 M397.4 87.1 L403.8 80.7" stroke="#e0556b" stroke-width="1.6"/>
<path d="M503.7 157.6 L510.1 164.0 M503.7 164.0 L510.1 157.6" stroke="#e0556b" stroke-width="1.6"/>
<path d="M483.1 147.5 L489.5 153.9 M483.1 153.9 L489.5 147.5" stroke="#e0556b" stroke-width="1.6"/>
<path d="M492.8 156.1 L499.2 162.5 M492.8 162.5 L499.2 156.1" stroke="#e0556b" stroke-width="1.6"/>
<path d="M491.2 139.0 L497.6 145.4 M491.2 145.4 L497.6 139.0" stroke="#e0556b" stroke-width="1.6"/>
<circle cx="491.5" cy="146.6" r="3.4" fill="#2ec26b" opacity="0.85"/>
<circle cx="525.5" cy="37.0" r="3.4" fill="#2ec26b" opacity="0.85"/>
<circle cx="508.8" cy="154.0" r="3.4" fill="#2ec26b" opacity="0.85"/>
<circle cx="498.0" cy="143.0" r="3.4" fill="#2ec26b" opacity="0.85"/>
<path d="M480.2 162.6 L486.6 169.0 M480.2 169.0 L486.6 162.6" stroke="#e0556b" stroke-width="1.6"/>
<circle cx="522.3" cy="154.4" r="3.4" fill="#2ec26b" opacity="0.85"/>
<path d="M517.5 173.3 L523.9 179.7 M517.5 179.7 L523.9 173.3" stroke="#e0556b" stroke-width="1.6"/>
<path d="M505.6 150.8 L512.0 157.2 M505.6 157.2 L512.0 150.8" stroke="#e0556b" stroke-width="1.6"/>
<path d="M496.9 108.4 L503.3 114.8 M496.9 114.8 L503.3 108.4" stroke="#e0556b" stroke-width="1.6"/>
<circle cx="508.8" cy="154.0" r="3.4" fill="#2ec26b" opacity="0.85"/>
<path d="M513.9 124.7 L520.3 131.1 M513.9 131.1 L520.3 124.7" stroke="#e0556b" stroke-width="1.6"/>
<path d="M372.8 121.9 L379.2 128.3 M372.8 128.3 L379.2 121.9" stroke="#e0556b" stroke-width="1.6"/>
<path d="M435.2 151.8 L441.6 158.2 M435.2 158.2 L441.6 151.8" stroke="#e0556b" stroke-width="1.6"/>
<circle cx="513.2" cy="159.7" r="3.4" fill="#2ec26b" opacity="0.85"/>
<circle cx="518.1" cy="144.0" r="3.4" fill="#2ec26b" opacity="0.85"/>
<path d="M409.5 238.4 L415.9 244.8 M409.5 244.8 L415.9 238.4" stroke="#e0556b" stroke-width="1.6"/>
<path d="M486.5 135.2 L492.9 141.6 M486.5 141.6 L492.9 135.2" stroke="#e0556b" stroke-width="1.6"/>
<path d="M432.2 48.3 L438.6 54.7 M432.2 54.7 L438.6 48.3" stroke="#e0556b" stroke-width="1.6"/>
<circle cx="519.7" cy="167.5" r="3.4" fill="#2ec26b" opacity="0.85"/>
<path d="M508.6 137.0 L515.0 143.4 M508.6 143.4 L515.0 137.0" stroke="#e0556b" stroke-width="1.6"/>
<circle cx="514.2" cy="152.3" r="3.4" fill="#2ec26b" opacity="0.85"/>
<path d="M501.3 165.5 L507.7 171.9 M501.3 171.9 L507.7 165.5" stroke="#e0556b" stroke-width="1.6"/>
<path d="M499.6 174.0 L506.0 180.4 M499.6 180.4 L506.0 174.0" stroke="#e0556b" stroke-width="1.6"/>
<circle cx="502.0" cy="144.4" r="3.4" fill="#2ec26b" opacity="0.85"/>
<circle cx="514.2" cy="141.6" r="3.4" fill="#2ec26b" opacity="0.85"/>
<path d="M456.7 139.8 L463.1 146.2 M456.7 146.2 L463.1 139.8" stroke="#e0556b" stroke-width="1.6"/>
<circle cx="508.8" cy="154.0" r="3.4" fill="#2ec26b" opacity="0.85"/>
<circle cx="510.6" cy="155.0" r="3.4" fill="#2ec26b" opacity="0.85"/>
<circle cx="470.9" cy="38.3" r="3.4" fill="#2ec26b" opacity="0.85"/>
<path d="M380.9 181.7 L387.3 188.1 M380.9 188.1 L387.3 181.7" stroke="#e0556b" stroke-width="1.6"/>
<circle cx="509.8" cy="159.3" r="3.4" fill="#2ec26b" opacity="0.85"/>
<circle cx="509.0" cy="162.1" r="3.4" fill="#2ec26b" opacity="0.85"/>
<circle cx="510.6" cy="155.7" r="3.4" fill="#2ec26b" opacity="0.85"/>
</svg>