<svg xmlns="http://www.w3.org/2000/svg" width="560" height="300" font-family="sans-serif">
<rect x="0" y="0" width="560" height="300" fill="#1b1b1b"/>
<text x="20" y="16" fill="#ddd" font-size="13">D. Hicks (BIG) — 269 tiros, Clasificatorio</text>
<rect x="20" y="28" width="520" height="252" fill="none" stroke="#555"/>
<path d="M506.6 116.2 L513.0 122.6 M506.6 122.6 L513.0 116.2" stroke="#e0556b" stroke-width="1.6"/>
<path d="M494.5 167.5 L500.9 173.9 M494.5 173.9 L500.9 167.5" stroke="#e0556b" stroke-width="1.6"/>
<circle cx="371.1" cy="159.3" r="3.4" fill="#2ec26b" opacity="0.85"/>
<circle cx="449.8" cy="156.4" r="3.4" fill="#2ec26b" opacity="0.85"/>
<circle cx="450.1" cy="154.4" r="3.4" fill="#2ec26b" opacity="0.85"/>
<circle cx="448.5" cy="127.4" r="3.4" fill="#2ec26b" opacity="0.85"/>
<circle cx="429.8" cy="54.1" r="3.4" fill="#2ec26b" opacity="0.85"/>
<path d="M428.3 146.9 L434.7 153.3 M428.3 153.3 L434.7 146.9" stroke="#e0556b" stroke-width="1.6"/>
<circle cx="420.9" cy="52.6" r="3.4" fill="#2ec26b" opacity="0.85"/>
<path d="M360.9 174.0 L367.3 180.4 M360.9 180.4 L367.3 174.0" stroke="#e0556b" stroke-width="1.6"/>
<path d="M429.9 176.9 L436.3 183.3 M429.9 183.3 L436.3 176.9" stroke="#e0556b" stroke-width="1.6"/>
<circle cx="514.2" cy="194.3" r="3.4" fill="#2ec26b" opacity="0.85"/>
<circle cx="384.4" cy="109.6" r="3.4" fill="#2ec26b" opacity="0.85"/>
<path d="M445.3 127.0 L451.7 133.4 M445.3 133.4 L451.7 127.0" stroke="#e0556b" stroke-width="1.6"/>
<path d="M409.6 48.7 L416.0 55.1 M409.6 55.1 L416.0 48.7" stroke="#e0556b" stroke-width="1.6"/>
<path d="M504.5 144.8 L510.9 151.2 M504.5 151.2 L510.9 144.8" stroke="#e0556b" stroke-width="1.6"/>
<circle cx="454.1" cy="205.7" r="3.4" fill="#2ec26b" opacity="0.85"/>
<path d="M478.6 151.2 L485.0 157.6 M478.6 157.6 L485.0 151.2" stroke="#e0556b" stroke-width="1.6"/>
<path d="M488.3 145.5 L494.7 151.9 M488.3 151.9 L494.7 145.5" stroke="#e0556b" stroke-width="1.6"/>
<circle cx="387.6" cy="76.1" r="3.4" fill="#2ec26b" opacity="0.85"/>
<path d="M476.9 140.5 L483.3 146.9 M476.9 146.9 L483.3 140.5" stroke="#e0556b" stroke-width="1.6"/>
<circle cx="360.9" cy="163.7" r="3.4" fill="#2ec26b" opacity="0.85"/>
<path d="M491.5 156.2 L497.9 162.6 M491.5 162.6 L497.9 156.2" stroke="#e0556b" stroke-width="1.6"/>
<path d="M370.7 196.1 L377.1 202.5 M370.7 202.5 L377.1 196.1" stroke="#e0556b" stroke-width="1.6"/>
<circle cx="502.0" cy="154.4" r="3.4" fill="#2ec26b" opacity="0.85"/>
<circle cx="466.8" cy="157.9" r="3.4" fill="#2ec26b" opacity="0.85"/>
<path d="M471.7 153.9 L478.1 160.3 M471.7 160.3 L478.1 153.9" stroke="#e0556b" stroke-width="1.6"/>
<circle cx="400.3" cy="155.7" r="3.4" fill="#2ec26b" opacity="0.85"/>
<path d="M488.0 145.4 L494.4 151.8 M488.0 151.8 L494.4 145.4" stroke="#e0556b" stroke-width="1.6"/>
<circle cx="458.7" cy="170.0" r="3.4" fill="#2ec26b" opacity="0.85"/>
<circle cx="467.6" cy="174.2" r="3.4" fill="#2ec26b" opacity="0.85"/>
<path d="M419.0 53.6 L425.4 60.0 M419.0 60.0 L425.4 53.6" stroke="#e0556b" stroke-width="1.6"/>
<circle cx="444.9" cy="180.6" r="3.4" fill="#2ec26b" opacity="0.85"/>
<circle cx="367.0" cy="165.0" r="3.4" fill="#2ec26b" opacity="0.85"/>
<circle cx="506.6" cy="111.6" r="3.4" fill="#2ec26b" opacity="0.85"/>
<circle cx="474.1" cy="182.8" r="3.4" fill="#2ec26b" opacity="0.85"/>
<circle cx="360.5" cy="131.5" r="3.4" fill="#2ec26b" opacity="0.85"/>
<path d="M508.6 106.4 L515.0 112.8 M508.6 112.8 L515.0 106.4" stroke="#e0556b" stroke-width="1.6"/>
<circle cx="515.8" cy="174.4" r="3.4" fill="#2ec26b" opacity="0.85"/>
<circle cx="509.3" cy="226.3" r="3.4" fill="#2ec26b" opacity="0.85"/>
<path d="M337.4 150.5 L343.8 156.9 M337.4 156.9 L343.8 150.5" stroke="#e0556b" stroke-width="1.6"/>
<path d="M394.2 58.7 L400.6 65.1 M394.2 65.1 L400.6 58.7" stroke="#e0556b" stroke-width="1.6"/>
<circle cx="444.4" cy="158.0" r="3.4" fill="#2ec26b" opacity="0.85"/>
<path d="M500.9 88.4 L507.3 94.8 M500.9 94.8 L507.3 88.4" stroke="#e0556b" stroke-width="1.6"/>
<circle cx="480.6" cy="172.8" r="3.4" fill="#2ec26b" opacity="0.85"/>
<path d="M503.4 120.5 L509.8 126.9 M503.4 126.9 L509.8 120.5" stroke="#e0556b" stroke-width="1.6"/>
<circle cx="474.9" cy="137.9" r="3.4" fill="#2ec26b" opacity="0.85"/>
<path d="M488.8 121.9 L495.2 128.3 M488.8 128.3 L495.2 121.9" stroke="#e0556b" stroke-width="1.6"/>
<circle cx="367.9" cy="168.5" r="3.4" fill="#2ec26b" opacity="0.85"/>
<path d="M433.6 47.2 L440.0 53.6 M433.6 53.6 L440.0 47.2" stroke="#e0556b" stroke-width="1.6"/>
<circle cx="468.8" cy="158.0" r="3.4" fill="#2ec26b" opacity="0.85"/>
<circle cx="475.3" cy="133.8" r="3.4" fill="#2ec26b" opacity="0.85"/>
<path d="M452.6 147.7 L459.0 154.1 M452.6 154.1 L459.0 147.7" stroke="#e0556b" stroke-width="1.6"/>
<circle cx="480.9" cy="160.1" r="3.4" fill="#2ec26b" opacity="0.85"/>
<path d="M475.3 130.6 L481.7 137.0 M475.3 137.0 L481.7 130.6" stroke="#e0556b" stroke-width="1.6"/>
<path d="M468.8 122.8 L475.2 129.2 M468.8 129.2 L475.2 122.8" stroke="#e0556b" stroke-width="1.6"/>
<path d="M406.3 241.6 L412.7 248.0 M406.3 248.0 L412.7 241.6" stroke="#e0556b" stroke-width="1.6"/>
<circle cx="487.4" cy="155.8" r="3.4" fill="#2ec26b" opacity="0.85"/>
<path d="M461.5 179.7 L467.9 186.1 M461.5 186.1 L467.9 179.7" stroke="#e0556b" stroke-width="1.6"/>
<path d="M449.3 175.4 L455.7 181.8 M449.3 181.8 L455.7 175.4" stroke="#e0556b" stroke-width="1.6"/>
<circle cx="366.6" cy="195.7" r="3.4" fill="#2ec26b" opacity="0.85"/>
<circle cx="387.6" cy="66.2" r="3.4" fill="#2ec26b" opacity="0.85"/>
<circle cx="497.2" cy="153.0" r="3.4" fill="#2ec26b" opacity="0.85"/>
<circle cx="499.3" cy="210.5" r="3.4" fill="#2ec26b" opacity="0.85"/>
<path d="M459.6 148.2 L466.0 154.6 M459.6 154.6 L466.0 148.2" stroke="#e0556b" stroke-width="1.6"/>
<circle cx="381.7" cy="222.6" r="3.4" fill="#2ec26b" opacity="0.85"/>
<path d="M353.3 150.4 L359.7 156.8 M353.3 156.8 L359.7 150.4" stroke="#e0556b" stroke-width="1.6"/>
<path d="M380.1 96.3 L386.5 102.7 M380.1 102.7 L386.5 96.3" stroke="#e0556b" stroke-width="1.6"/>
<path d="M483.9 150.4 L490.3 156.8 M483.9 156.8 L490.3 150.4" stroke="#e0556b" stroke-width="1.6"/>
<circle cx="376.8" cy="210.5" r="3.4" fill="#2ec26b" opacity="0.85"/>
<path d="M475.8 141.8 L482.2 148.2 M475.8 148.2 L482.2 141.8" stroke="#e0556b" stroke-width="1.6"/>
<circle cx="496.8" cy="159.3" r="3.4" fill="#2ec26b" opacity="0.85"/>
<path d="M393.9 230.1 L400.3 236.5 M393.9 236.5 L400.3 230.1" stroke="#e0556b" stroke-width="1.6"/>
<circle cx="494.4" cy="120.1" r="3.4" fill="#2ec26b" opacity="0.85"/>
<circle cx="516.3" cy="192.7" r="3.4" fill="#2ec26b" opacity="0.85"/>
<path d="M499.3 182.4 L505.7 188.8 M499.3 188.8 L505.7 182.4" stroke="#e0556b" stroke-width="1.6"/>
<path d="M437.7 51.4 L444.1 57.8 M437.7 57.8 L444.1 51.4" stroke="#e0556b" stroke-width="1.6"/>
<path d="M390.6 214.4 L397.0 220.8 M390.6 220.8 L397.0 214.4" stroke="#e0556b" stroke-width="1.6"/>
<path d="M492.3 179.0 L498.7 185.4 M492.3 185.4 L498.7 179.0" stroke="#e0556b" stroke-width="1.6"/>
<circle cx="497.2" cy="145.9" r="3.4" fill="#2ec26b" opacity="0.85"/>
<circle cx="442.0" cy="49.1" r="3.4" fill="#2ec26b" opacity="0.85"/>
<circle cx="457.4" cy="118.1" r="3.4" fill="#2ec26b" opacity="0.85"/>
<circle cx="450.9" cy="165.8" r="3.4" fill="#2ec26b" opacity="0.85"/>
<path d="M471.2 182.6 L477.6 189.0 M471.2 189.0 L477.6 182.6" stroke="#e0556b" stroke-width="1.6"/>
<path d="M400.7 69.4 L407.1 75.8 M400.7 75.8 L407.1 69.4" stroke="#e0556b" stroke-width="1.6"/>
<path d="M398.9 218.4 L405.3 224.8 M398.9 224.8 L405.3 218.4" stroke="#e0556b" stroke-width="1.6"/>
<circle cx="464.5" cy="265.1" r="3.4" fill="#2ec26b" opacity="0.85"/>
<path d="M363.2 176.4 L369.6 182.8 M363.2 182.8 L369.6 176.4" stroke="#e0556b" stroke-width="1.6"/>
<circle cx="480.8" cy="148.3" r="3.4" fill="#2ec26b" opacity="0.85"/>
<path d="M480.8 113.1 L487.2 119.5 M480.8 119.5 L487.2 113.1" stroke="#e0556b" stroke-width="1.6"/>
<path d="M444.3 177.1 L450.7 183.5 M444.3 183.5 L450.7 177.1" stroke="#e0556b" stroke-width="1.6"/>
<circle cx="368.0" cy="181.8" r="3.4" fill="#2ec26b" opacity="0.85"/>
<path d="M365.6 150.8 L372.0 157.2 M365.6 157.2 L372.0 150.8" stroke="#e0556b" stroke-width="1.6"/>
<circle cx="474.3" cy="156.8" r="3.4" fill="#2ec26b" opacity="0.85"/>
<circle cx="481.6" cy="140.5" r="3.4" fill="#2ec26b" opacity="0.85"/>
<circle cx="492.2" cy="129.8" r="3.4" fill="#2ec26b" opacity="0.85"/>
<path d="M393.2 94.6 L399.6 101.0 M393.2 101.0 L399.6 94.6" stroke="#e0556b" stroke-width="1.6"/>
<circle cx="385.9" cy="223.0" r="3.4" fill="#2ec26b" opacity="0.85"/>
<path d="M353.3 119.0 L359.7 125.4 M353.3 125.4 L359.7 119.0" stroke="#e0556b" stroke-width="1.6"/>
<path d="M469.3 139.0 L475.7 145.4 M469.3 145.4 L475.7 139.0" stroke="#e0556b" stroke-width="1.6"/>
<circle cx="391.4" cy="234.0" r="3.4" fill="#2ec26b" opacity="0.85"/>
<circle cx="487.1" cy="154.3" r="3.4" fill="#2ec26b" opacity="0.85"/>
<path d="M467.7 133.3 L474.1 139.7 M467.7 139.7 L474.1 133.3" stroke="#e0556b" stroke-width="1.6"/>
<circle cx="487.1" cy="150.7" r="3.4" fill="#2ec26b" opacity="0.85"/>
<path d="M350.1 159.6 L356.5 166.0 M350.1 166.0 L356.5 159.6" stroke="#e0556b" stroke-width="1.6"/>
<path d="M471.2 155.5 L477.6 161.9 M471.2 161.9 L477.6 155.5" stroke="#e0556b" stroke-width="1.6"/>
<path d="M357.7 125.6 L364.1 132.0 M357.7 132.0 L364.1 125.6" stroke="#e0556b" stroke-width="1.6"/>
<circle cx="382.0" cy="96.1" r="3.4" fill="#2ec26b" opacity="0.85"/>
<circle cx="501.2" cy="147.3" r="3.4" fill="#2ec26b" opacity="0.85"/>
<path d="M383.7 80.0 L390.1 86.4 M383.7 86.4 L390.1 80.0" stroke="#e0556b" stroke-width="1.6"/>
<path d="M472.1 139.8 L478.5 146.2 M472.1 146.2 L478.5 139.8" stroke="#e0556b" stroke-width="1.6"/>
<path d="M344.7 151.9 L351.1 158.3 M344.7 158.3 L351.1 151.9" stroke="#e0556b" stroke-width="1.6"/>
<circle cx="394.1" cy="62.6" r="3.4" fill="#2ec26b" opacity="0.85"/>
<path d="M459.1 159.1 L465.5 165.5 M459.1 165.5 L465.5 159.1" stroke="#e0556b" stroke-width="1.6"/>
<path d="M472.1 162.6 L478.5 169.0 M472.1 169.0 L478.5 162.6" stroke="#e0556b" stroke-width="1.6"/>
<circle cx="420.9" cy="61.2" r="3.4" fill="#2ec26b" opacity="0.85"/>
<path d="M477.7 142.7 L484.1 149.1 M477.7 149.1 L484.1 142.7" stroke="#e0556b" stroke-width="1.6"/>
<path d="M479.3 151.9 L485.7 158.3 M479.3 158.3 L485.7 151.9" stroke="#e0556b" stroke-width="1.6"/>
<circle cx="438.8" cy="259.8" r="3.4" fill="#2ec26b" opacity="0.85"/>
<path d="M446.1 119.2 L452.5 125.6 M446.1 125.6 L452.5 119.2" stroke="#e0556b" stroke-width="1.6"/>
<circle cx="503.3" cy="135.1" r="3.4" fill="#2ec26b" opacity="0.85"/>
<path d="M425.5 242.9 L431.9 249.3 M425.5 249.3 L431.9 242.9" stroke="#e0556b" stroke-width="1.6"/>
<circle cx="494.4" cy="136.5" r="3.4" fill="#2ec26b" opacity="0.85"/>
<circle cx="473.3" cy="173.5" r="3.4" fill="#2ec26b" opacity="0.85"/>
<path d="M419.0 241.5 L425.4 247.9 M419.0 247.9 L425.4 241.5" stroke="#e0556b" stroke-width="1.6"/>
<path d="M378.5 119.8 L384.9 126.2 M378.5 126.2 L384.9 119.8" stroke="#e0556b" stroke-width="1.6"/>
<circle cx="453.1" cy="135.8" r="3.4" fill="#2ec26b" opacity="0.85"/>
<path d="M441.7 45.0 L448.1 51.4 M441.7 51.4 L448.1 45.0" stroke="#e0556b" stroke-width="1.6"/>
<path d="M420.6 252.2 L427.0 258.6 M420.6 258.6 L427.0 252.2" stroke="#e0556b" stroke-width="1.6"/>
<circle cx="490.3" cy="182.0" r="3.4" fill="#2ec26b" opacity="0.85"/>
<path d="M478.2 164.6 L484.6 171.0 M478.2 171.0 L484.6 164.6" stroke="#e0556b" stroke-width="1.6"/>
<path d="M487.1 190.2 L493.5 196.6 M487.1 196.6 L493.5 190.2" stroke="#e0556b" stroke-width="1.6"/>
<path d="M453.1 149.0 L459.5 155.4 M453.1 155.4 L459.5 149.0" stroke="#e0556b" stroke-width="1.6"/>
<circle cx="474.4" cy="133.8" r="3.4" fill="#2ec26b" opacity="0.85"/>
<path d="M375.5 179.7 L381.9 186.1 M375.5 186.1 L381.9 179.7" stroke="#e0556b" stroke-width="1.6"/>
<path d="M480.2 114.9 L486.6 121.3 M480.2 121.3 L486.6 114.9" stroke="#e0556b" stroke-width="1.6"/>
<circle cx="423.4" cy="54.1" r="3.4" fill="#2ec26b" opacity="0.85"/>
<circle cx="506.9" cy="143.0" r="3.4" fill="#2ec26b" opacity="0.85"/>
<circle cx="373.0" cy="69.7" r="3.4" fill="#2ec26b" opacity="0.85"/>
<path d="M332.5 155.5 L338.9 161.9 M332.5 161.9 L338.9 155.5" stroke="#e0556b" stroke-width="1.6"/>
<path d="M499.6 30.9 L506.0 37.3 M499.6 37.3 L506.0 30.9" stroke="#e0556b" stroke-width="1.6"/>
<circle cx="510.9" cy="172.2" r="3.4" fill="#2ec26b" opacity="0.85"/>
<circle cx="455.8" cy="266.9" r="3.4" fill="#2ec26b" opacity="0.85"/>
<path d="M349.5 149.1 L355.9 155.5 M349.5 155.5 L355.9 149.1" stroke="#e0556b" stroke-width="1.6"/>
<circle cx="500.4" cy="207.1" r="3.4" fill="#2ec26b" opacity="0.85"/>
<circle cx="525.5" cy="37.0" r="3.4" fill="#2ec26b" opacity="0.85"/>
<circle cx="446.9" cy="192.2" r="3.4" fill="#2ec26b" opacity="0.85"/>
<circle cx="415.3" cy="49.8" r="3.4" fill="#2ec26b" opacity="0.85"/>
<circle cx="448.5" cy="264.0" r="3.4" fill="#2ec26b" opacity="0.85"/>
<path d="M470.9 186.7 L477.3 193.1 M470.9 193.1 L477.3 186.7" stroke="#e0556b" stroke-width="1.6"/>
<circle cx="469.4" cy="41.5" r="3.4" fill="#2ec26b" opacity="0.85"/>
<circle cx="512.4" cy="146.2" r="3.4" fill="#2ec26b" opacity="0.85"/>
<path d="M468.7 183.5 L475.1 189.9 M468.7 189.9 L475.1 183.5" stroke="#e0556b" stroke-width="1.6"/>
<circle cx="483.2" cy="141.2" r="3.4" fill="#2ec26b" opacity="0.85"/>
<circle cx="432.9" cy="43.6" r="3.4" fill="#2ec26b" opacity="0.85"/>
<path d="M462.2 178.6 L468.6 185.0 M462.2 185.0 L468.6 178.6" stroke="#e0556b" stroke-width="1.6"/>
<circle cx="376.9" cy="91.4" r="3.4" fill="#2ec26b" opacity="0.85"/>
<circle cx="441.0" cy="152.6" r="3.4" fill="#2ec26b" opacity="0.85"/>
<circle cx="418.5" cy="68.3" r="3.4" fill="#2ec26b" opacity="0.85"/>
<path d="M426.6 43.0 L433.0 49.4 M426.6 49.4 L433.0 43.0" stroke="#e0556b" stroke-width="1.6"/>
<path d="M518.3 131.3 L524.7 137.7 M518.3 137.7 L524.7 131.3" stroke="#e0556b" stroke-width="1.6"/>
<circle cx="528.8" cy="37.7" r="3.4" fill="#2ec26b" opacity="0.85"/>
<path d="M391.8 213.9 L398.2 220.3 M391.8 220.3 L398.2 213.9" stroke="#e0556b" stroke-width="1.6"/>
<path d="M440.4 254.4 L446.8 260.8 M440.4 260.8 L446.8 254.4" stroke="#e0556b" stroke-width="1.6"/>
<circle cx="512.6" cy="155.8" r="3.4" fill="#2ec26b" opacity="0.85"/>
<circle cx="382.0" cy="113.9" r="3.4" fill="#2ec26b" opacity="0.85"/>
<circle cx="514.2" cy="180.1" r="3.4" fill="#2ec26b" opacity="0.85"/>
<path d="M507.0 148.4 L513.4 154.8 M507.0 154.8 L513.4 148.4" stroke="#e0556b" stroke-width="1.6"/>
<path d="M383.7 99.3 L390.1 105.7 M383.7 105.7 L390.1 99.3" stroke="#e0556b" stroke-width="1.6"/>
<circle cx="480.6" cy="193.4" r="3.4" fill="#2ec26b" opacity="0.85"/>
<path d="M387.4 211.6 L393.8 218.0 M387.4 218.0 L393.8 211.6" stroke="#e0556b" stroke-width="1.6"/>
<circle cx="523.6" cy="167.8" r="3.4" fill="#2ec26b" opacity="0.85"/>
<path d="M365.5 99.1 L371.9 105.5 M365.5 105.5 L371.9 99.1" stroke="#e0556b" stroke-width="1.6"/>
<path d="M452.2 173.2 L458.6 179.6 M452.2 179.6 L458.6 173.2" stroke="#e0556b" stroke-width="1.6"/>
<circle cx="373.0" cy="128.8" r="3.4" fill="#2ec26b" opacity="0.85"/>
<circle cx="510.9" cy="148.7" r="3.4" fill="#2ec26b" opacity="0.85"/>
<circle cx="482.5" cy="136.6" r="3.4" fill="#2ec26b" opacity="0.85"/>
<path d="M502.1 148.4 L508.5 154.8 M502.1 154.8 L508.5 148.4" stroke="#e0556b" stroke-width="1.6"/>
<circle cx="493.6" cy="158.6" r="3.4" fill="#2ec26b" opacity="0.85"/>
<circle cx="468.4" cy="153.6" r="3.4" fill="#2ec26b" opacity="0.85"/>
<circle cx="462.8" cy="45.4" r="3.4" fill="#2ec26b" opacity="0.85"/>
<circle cx="380.8" cy="97.3" r="3.4" fill="#2ec26b" opacity="0.85"/>
<path d="M474.2 220.1 L480.6 226.5 M474.2 226.5 L480.6 220.1" stroke="#e0556b" stroke-width="1.6"/>
<circle cx="464.4" cy="159.3" r="3.4" fill="#2ec26b" opacity="0.85"/>
<circle cx="397.1" cy="213.4" r="3.4" fill="#2ec26b" opacity="0.85"/>
<circle cx="515.5" cy="153.6" r="3.4" fill="#2ec26b" opacity="0.85"/>
<path d="M490.4 93.4 L496.8 99.8 M490.4 99.8 L496.8 93.4" stroke="#e0556b" stroke-width="1.6"/>
<circle cx="444.1" cy="258.2" r="3.4" fill="#2ec26b" opacity="0.85"/>
<path d="M455.5 39.3 L461.9 45.7 M455.5 45.7 L461.9 39.3" stroke="#e0556b" stroke-width="1.6"/>
<circle cx="450.1" cy="151.6" r="3.4" fill="#2ec26b" opacity="0.85"/>
<circle cx="472.8" cy="175.8" r="3.4" fill="#2ec26b" opacity="0.85"/>
<circle cx="464.7" cy="150.9" r="3.4" fill="#2ec26b" opacity="0.85"/>
<path d="M502.9 186.8 L509.3 193.2 M502.9 193.2 L509.3 186.8" stroke="#e0556b" stroke-width="1.6"/>
<circle cx="456.6" cy="262.6" r="3.4" fill="#2ec26b" opacity="0.85"/>
<path d="M464.8 100.0 L471.2 106.4 M464.8 106.4 L471.2 100.0" stroke="#e0556b" stroke-width="1.6"/>
<path d="M405.6 228.8 L412.0 235.2 M405.6 235.2 L412.0 228.8" stroke="#e0556b" stroke-width="1.6"/>
<path d="M481.0 176.9 L487.4 183.3 M481.0 183.3 L487.4 176.9" stroke="#e0556b" stroke-width="1.6"/>
<path d="M507.4 176.0 L513.8 182.4 M507.4 182.4 L513.8 176.0" stroke="#e0556b" stroke-width="1.6"/>
<circle cx="492.0" cy="133.6" r="3.4" fill="#2ec26b" opacity="0.85"/>
<path d="M371.1 169.6 L377.5 176.0 M371.1 176.0 L377.5 169.6" stroke="#e0556b" stroke-width="1.6"/>
<path d="M453.1 163.9 L459.5 170.3 M453.1 170.3 L459.5 163.9" stroke="#e0556b" stroke-width="1.6"/>
<path d="M510.7 119.0 L517.1 125.4 M510.7 125.4 L517.1 119.0" stroke="#e0556b" stroke-width="1.6"/>
<circle cx="483.1" cy="191.3" r="3.4" fill="#2ec26b" opacity="0.85"/>
<path d="M506.1 184.7 L512.5 191.1 M506.1 191.1 L512.5 184.7" stroke="#e0556b" stroke-width="1.6"/>
<path d="M502.1 193.9 L508.5 200.3 M502.1 200.3 L508.5 193.9" stroke="#e0556b" stroke-width="1.6"/>
<circle cx="377.9" cy="90.4" r="3.4" fill="#2ec26b" opacity="0.85"/>
<circle cx="463.9" cy="128.1" r="3.4" fill="#2ec26b" opacity="0.85"/>
<circle cx="513.1" cy="156.4" r="3.4" fill="#2ec26b" opacity="0.85"/>
<circle cx="410.1" cy="250.4" r="3.4" fill="#2ec26b" opacity="0.85"/>
<circle cx="490.3" cy="133.6" r="3.4" fill="#2ec26b" opacity="0.85"/>
<path d="M478.6 156.9 L485.0 163.3 M478.6 163.3 L485.0 156.9" stroke="#e0556b" stroke-width="1.6"/>
<circle cx="399.8" cy="60.5" r="3.4" fill="#2ec26b" opacity="0.85"/>
<path d="M391.8 225.3 L398.2 231.7 M391.8 231.7 L398.2 225.3" stroke="#e0556b" stroke-width="1.6"/>
<circle cx="506.1" cy="79.7" r="3.4" fill="#2ec26b" opacity="0.85"/>
<path d="M384.4 208.9 L390.8 215.3 M384.4 215.3 L390.8 208.9" stroke="#e0556b" stroke-width="1.6"/>
<circle cx="352.6" cy="114.8" r="3.4" fill="#2ec26b" opacity="0.85"/>
<circle cx="368.0" cy="161.8" r="3.4" fill="#2ec26b" opacity="0.85"/>
<path d="M440.3 152.9 L446.7 159.3 M440.3 159.3 L446.7 152.9" stroke="#e0556b" stroke-width="1.6"/>
<path d="M398.1 54.0 L404.5 60.4 M398.1 60.4 L404.5 54.0" stroke="#e0556b" stroke-width="1.6"/>
<path d="M493.0 176.4 L499.4 182.8 M493.0 182.8 L499.4 176.4" stroke="#e0556b" stroke-width="1.6"/>
<path d="M338.1 155.1 L344.5 161.5 M338.1 161.5 L344.5 155.1" stroke="#e0556b" stroke-width="1.6"/>
<path d="M409.5 56.1 L415.9 62.5 M409.5 62.5 L415.9 56.1" stroke="#e0556b" stroke-width="1.6"/>
<circle cx="415.1" cy="243.7" r="3.4" fill="#2ec26b" opacity="0.85"/>
<circle cx="512.8" cy="149.5" r="3.4" fill="#2ec26b" opacity="0.85"/>
<path d="M359.9 168.6 L366.3 175.0 M359.9 175.0 L366.3 168.6" stroke="#e0556b" stroke-width="1.6"/>
<path d="M446.6 160.4 L453.0 166.8 M446.6 166.8 L453.0 160.4" stroke="#e0556b" stroke-width="1.6"/>
<path d="M492.0 267.8 L498.4 274.2 M492.0 274.2 L498.4 267.8" stroke="#e0556b" stroke-width="1.6"/>
<circle cx="468.4" cy="268.2" r="3.4" fill="#2ec26b" opacity="0.85"/>
<circle cx="376.8" cy="184.2" r="3.4" fill="#2ec26b" opacity="0.85"/>
<circle cx="418.9" cy="67.4" r="3.4" fill="#2ec26b" opacity="0.85"/>
<circle cx="493.5" cy="176.0" r="3.4" fill="#2ec26b" opacity="0.85"/>
<path d="M367.9 141.8 L374.3 148.2 M367.9 148.2 L374.3 141.8" stroke="#e0556b" stroke-width="1.6"/>
<path d="M367.9 176.0 L374.3 182.4 M367.9 182.4 L374.3 176.0" stroke="#e0556b" stroke-width="1.6"/>
<path d="M471.2 100.0 L477.6 106.4 M471.2 106.4 L477.6 100.0" stroke="#e0556b" stroke-width="1.6"/>
<circle cx="373.9" cy="107.5" r="3.4" fill="#2ec26b" opacity="0.85"/>
<circle cx="465.5" cy="42.0" r="3.4" fill="#2ec26b" opacity="0.85"/>
<path d="M481.8 137.7 L488.2 144.1 M481.8 144.1 L488.2 137.7" stroke="#e0556b" stroke-width="1.6"/>
<path d="M497.2 182.6 L503.6 189.0 M497.2 189.0 L503.6 182.6" stroke="#e0556b" stroke-width="1.6"/>
<path d="M387.7 97.1 L394.1 103.5 M387.7 103.5 L394.1 97.1" stroke="#e0556b" stroke-width="1.6"/>
<circle cx="369.8" cy="198.6" r="3.4" fill="#2ec26b" opacity="0.85"/>
<path d="M340.5 145.8 L346.9 152.2 M340.5 152.2 L346.9 145.8" stroke="#e0556b" stroke-width="1.6"/>
<path d="M513.1 211.6 L519.5 218.0 M513.1 218.0 L519.5 211.6" stroke="#e0556b" stroke-width="1.6"/>
<circle cx="434.4" cy="53.9" r="3.4" fill="#2ec26b" opacity="0.85"/>
<circle cx="516.3" cy="153.6" r="3.4" fill="#2ec26b" opacity="0.85"/>
<circle cx="480.6" cy="221.9" r="3.4" fill="#2ec26b" opacity="0.85"/>
<circle cx="494.4" cy="128.6" r="3.4" fill="#2ec26b" opacity="0.85"/>
<circle cx="443.3" cy="152.9" r="3.4" fill="#2ec26b" opacity="0.85"/>
<path d="M445.0 175.3 L451.4 181.7 M445.0 181.7 L451.4 175.3" stroke="#e0556b" stroke-width="1.6"/>
<circle cx="514.2" cy="155.8" r="3.4" fill="#2ec26b" opacity="0.85"/>
<circle cx="491.5" cy="177.2" r="3.4" fill="#2ec26b" opacity="0.85"/>
<circle cx="459.9" cy="133.1" r="3.4" fill="#2ec26b" opacity="0.85"/>
<circle cx="475.3" cy="201.4" r="3.4" fill="#2ec26b" opacity="0.85"/>
<circle cx="362.5" cy="147.3" r="3.4" fill="#2ec26b" opacity="0.85"/>
<circle cx="469.6" cy="184.3" r="3.4" fill="#2ec26b" opacity="0.85"/>
<circle cx="444.4" cy="157.3" r="3.4" fill="#2ec26b" opacity="0.85"/>
<path d="M470.9 146.1 L477.3 152.5 M470.9 152.5 L477.3 146.1" stroke="#e0556b" stroke-width="1.6"/>
<circle cx="373.5" cy="119.4" r="3.4" fill="#2ec26b" opacity="0.85"/>
<circle cx="500.1" cy="162.1" r="3.4" fill="#2ec26b" opacity="0.85"/>
<circle cx="508.8" cy="154.0" r="3.4" fill="#2ec26b" opacity="0.85"/>
<path d="M436.0 208.7 L442.4 215.1 M436.0 215.1 L442.4 208.7" stroke="#e0556b" stroke-width="1.6"/>
<circle cx="496.0" cy="157.9" r="3.4" fill="#2ec26b" opacity="0.85"/>
<path d="M473.4 146.8 L479.8 153.2 M473.4 153.2 L479.8 146.8" stroke="#e0556b" stroke-width="1.6"/>
<path d="M480.6 144.7 L487.0 151.1 M480.6 151.1 L487.0 144.7" stroke="#e0556b" stroke-width="1.6"/>
<circle cx="475.3" cy="158.7" r="3.4" fill="#2ec26b" opacity="0.85"/>
<circle cx="487.4" cy="145.9" r="3.4" fill="#2ec26b" opacity="0.85"/>
<path d="M464.8 165.5 L471.2 171.9 M464.8 171.9 L471.2 165.5" stroke="#e0556b" stroke-width="1.6"/>
<circle cx="363.3" cy="129.5" r="3.4" fill="#2ec26b" opacity="0.85"/>
<circle cx="411.2" cy="248.4" r="3.4" fill="#2ec26b" opacity="0.85"/>
<circle cx="471.2" cy="179.4" r="3.4" fill="#2ec26b" opacity="0.85"/>
</svg>