<svg xmlns="http://www.w3.org/2000/svg" width="560" height="300" font-family="sans-serif">
<rect x="0" y="0" width="560" height="300" fill="#1b1b1b"/>
<text x="20" y="16" fill="#ddd" font-size="13">D. Zekovic (MAL) — 206 tiros, Clasificatorio</text>
<rect x="20" y="28" width="520" height="252" fill="none" stroke="#555"/>
<circle cx="498.5" cy="131.5" r="3.4" fill="#2ec26b" opacity="0.85"/>
<circle cx="512.2" cy="142.2" r="3.4" fill="#2ec26b" opacity="0.85"/>
<path d="M376.8 125.4 L383.2 131.8 M376.8 131.8 L383.2 125.4" stroke="#e0556b" stroke-width="1.6"/>
<circle cx="510.6" cy="154.3" r="3.4" fill="#2ec26b" opacity="0.85"/>
<circle cx="503.3" cy="167.1" r="3.4" fill="#2ec26b" opacity="0.85"/>
<path d="M471.2 132.7 L477.6 139.1 M471.2 139.1 L477.6 132.7" stroke="#e0556b" stroke-width="1.6"/>
<path d="M501.3 124.2 L507.7 130.6 M501.3 130.6 L507.7 124.2" stroke="#e0556b" stroke-width="1.6"/>
<circle cx="373.9" cy="160.8" r="3.4" fill="#2ec26b" opacity="0.85"/>
<path d="M362.5 105.0 L368.9 111.4 M362.5 111.4 L368.9 105.0" stroke="#e0556b" stroke-width="1.6"/>
<path d="M506.1 48.7 L512.5 55.1 M506.1 55.1 L512.5 48.7" stroke="#e0556b" stroke-width="1.6"/>
<circle cx="463.9" cy="126.0" r="3.4" fill="#2ec26b" opacity="0.85"/>
<circle cx="376.8" cy="167.1" r="3.4" fill="#2ec26b" opacity="0.85"/>
<path d="M486.4 187.4 L492.8 193.8 M486.4 193.8 L492.8 187.4" stroke="#e0556b" stroke-width="1.6"/>
<path d="M470.1 182.4 L476.5 188.8 M470.1 188.8 L476.5 182.4" stroke="#e0556b" stroke-width="1.6"/>
<circle cx="373.5" cy="167.8" r="3.4" fill="#2ec26b" opacity="0.85"/>
<path d="M488.3 128.4 L494.7 134.8 M488.3 134.8 L494.7 128.4" stroke="#e0556b" stroke-width="1.6"/>
<circle cx="433.1" cy="257.6" r="3.4" fill="#2ec26b" opacity="0.85"/>
<circle cx="489.0" cy="133.8" r="3.4" fill="#2ec26b" opacity="0.85"/>
<path d="M509.4 198.2 L515.8 204.6 M509.4 204.6 L515.8 198.2" stroke="#e0556b" stroke-width="1.6"/>
<path d="M404.7 70.1 L411.1 76.5 M404.7 76.5 L411.1 70.1" stroke="#e0556b" stroke-width="1.6"/>
<circle cx="460.3" cy="162.1" r="3.4" fill="#2ec26b" opacity="0.85"/>
<circle cx="508.8" cy="154.0" r="3.4" fill="#2ec26b" opacity="0.85"/>
<circle cx="449.0" cy="45.4" r="3.4" fill="#2ec26b" opacity="0.85"/>
<path d="M414.1 245.0 L420.5 251.4 M414.1 251.4 L420.5 245.0" stroke="#e0556b" stroke-width="1.6"/>
<path d="M500.9 188.1 L507.3 194.5 M500.9 194.5 L507.3 188.1" stroke="#e0556b" stroke-width="1.6"/>
<circle cx="421.4" cy="59.6" r="3.4" fill="#2ec26b" opacity="0.85"/>
<path d="M493.2 134.1 L499.6 140.5 M493.2 140.5 L499.6 134.1" stroke="#e0556b" stroke-width="1.6"/>
<circle cx="503.7" cy="159.4" r="3.4" fill="#2ec26b" opacity="0.85"/>
<circle cx="509.3" cy="151.6" r="3.4" fill="#2ec26b" opacity="0.85"/>
<circle cx="501.2" cy="151.6" r="3.4" fill="#2ec26b" opacity="0.85"/>
<path d="M388.5 96.4 L394.9 102.8 M388.5 102.8 L394.9 96.4" stroke="#e0556b" stroke-width="1.6"/>
<circle cx="435.2" cy="251.8" r="3.4" fill="#2ec26b" opacity="0.85"/>
<circle cx="496.8" cy="63.9" r="3.4" fill="#2ec26b" opacity="0.85"/>
<circle cx="512.2" cy="144.3" r="3.4" fill="#2ec26b" opacity="0.85"/>
<path d="M381.7 121.9 L388.1 128.3 M381.7 128.3 L388.1 121.9" stroke="#e0556b" stroke-width="1.6"/>
<circle cx="431.9" cy="250.4" r="3.4" fill="#2ec26b" opacity="0.85"/>
<circle cx="409.5" cy="69.7" r="3.4" fill="#2ec26b" opacity="0.85"/>
<path d="M400.7 68.6 L407.1 75.0 M400.7 75.0 L407.1 68.6" stroke="#e0556b" stroke-width="1.6"/>
<circle cx="455.8" cy="59.0" r="3.4" fill="#2ec26b" opacity="0.85"/>
<path d="M492.3 126.3 L498.7 132.7 M492.3 132.7 L498.7 126.3" stroke="#e0556b" stroke-width="1.6"/>
<circle cx="513.1" cy="193.4" r="3.4" fill="#2ec26b" opacity="0.85"/>
<path d="M505.0 176.0 L511.4 182.4 M505.0 182.4 L511.4 176.0" stroke="#e0556b" stroke-width="1.6"/>
<path d="M408.5 72.8 L414.9 79.2 M408.5 79.2 L414.9 72.8" stroke="#e0556b" stroke-width="1.6"/>
<circle cx="373.5" cy="170.7" r="3.4" fill="#2ec26b" opacity="0.85"/>
<path d="M419.8 245.8 L426.2 252.2 M419.8 252.2 L426.2 245.8" stroke="#e0556b" stroke-width="1.6"/>
<path d="M455.8 38.8 L462.2 45.2 M455.8 45.2 L462.2 38.8" stroke="#e0556b" stroke-width="1.6"/>
<circle cx="507.7" cy="155.1" r="3.4" fill="#2ec26b" opacity="0.85"/>
<path d="M498.0 148.4 L504.4 154.8 M498.0 154.8 L504.4 148.4" stroke="#e0556b" stroke-width="1.6"/>
<circle cx="342.2" cy="134.5" r="3.4" fill="#2ec26b" opacity="0.85"/>
<path d="M345.5 149.8 L351.9 156.2 M345.5 156.2 L351.9 149.8" stroke="#e0556b" stroke-width="1.6"/>
<path d="M506.1 148.4 L512.5 154.8 M506.1 154.8 L512.5 148.4" stroke="#e0556b" stroke-width="1.6"/>
<path d="M364.2 97.1 L370.6 103.5 M364.2 103.5 L370.6 97.1" stroke="#e0556b" stroke-width="1.6"/>
<path d="M365.0 114.2 L371.4 120.6 M365.0 120.6 L371.4 114.2" stroke="#e0556b" stroke-width="1.6"/>
<path d="M500.1 141.8 L506.5 148.2 M500.1 148.2 L506.5 141.8" stroke="#e0556b" stroke-width="1.6"/>
<path d="M477.4 150.4 L483.8 156.8 M477.4 156.8 L483.8 150.4" stroke="#e0556b" stroke-width="1.6"/>
<path d="M356.6 150.4 L363.0 156.8 M356.6 156.8 L363.0 150.4" stroke="#e0556b" stroke-width="1.6"/>
<circle cx="380.0" cy="225.5" r="3.4" fill="#2ec26b" opacity="0.85"/>
<circle cx="487.3" cy="201.7" r="3.4" fill="#2ec26b" opacity="0.85"/>
<circle cx="494.6" cy="189.6" r="3.4" fill="#2ec26b" opacity="0.85"/>
<circle cx="488.1" cy="163.2" r="3.4" fill="#2ec26b" opacity="0.85"/>
<circle cx="500.3" cy="124.1" r="3.4" fill="#2ec26b" opacity="0.85"/>
<circle cx="487.3" cy="180.3" r="3.4" fill="#2ec26b" opacity="0.85"/>
<path d="M475.1 271.1 L481.5 277.5 M475.1 277.5 L481.5 271.1" stroke="#e0556b" stroke-width="1.6"/>
<circle cx="385.0" cy="109.9" r="3.4" fill="#2ec26b" opacity="0.85"/>
<circle cx="384.3" cy="98.5" r="3.4" fill="#2ec26b" opacity="0.85"/>
<path d="M471.1 152.9 L477.5 159.3 M471.1 159.3 L477.5 152.9" stroke="#e0556b" stroke-width="1.6"/>
<circle cx="489.7" cy="178.2" r="3.4" fill="#2ec26b" opacity="0.85"/>
<path d="M351.0 69.7 L357.4 76.1 M351.0 76.1 L357.4 69.7" stroke="#e0556b" stroke-width="1.6"/>
<path d="M469.6 122.8 L476.0 129.2 M469.6 129.2 L476.0 122.8" stroke="#e0556b" stroke-width="1.6"/>
<path d="M346.3 141.2 L352.7 147.6 M346.3 147.6 L352.7 141.2" stroke="#e0556b" stroke-width="1.6"/>
<path d="M501.3 128.4 L507.7 134.8 M501.3 134.8 L507.7 128.4" stroke="#e0556b" stroke-width="1.6"/>
<path d="M363.4 191.8 L369.8 198.2 M363.4 198.2 L369.8 191.8" stroke="#e0556b" stroke-width="1.6"/>
<circle cx="518.3" cy="120.3" r="3.4" fill="#2ec26b" opacity="0.85"/>
<circle cx="490.3" cy="135.1" r="3.4" fill="#2ec26b" opacity="0.85"/>
<path d="M399.5 233.0 L405.9 239.4 M399.5 239.4 L405.9 233.0" stroke="#e0556b" stroke-width="1.6"/>
<circle cx="507.4" cy="156.4" r="3.4" fill="#2ec26b" opacity="0.85"/>
<path d="M357.3 112.6 L363.7 119.0 M357.3 119.0 L363.7 112.6" stroke="#e0556b" stroke-width="1.6"/>
<path d="M495.3 175.3 L501.7 181.7 M495.3 181.7 L501.7 175.3" stroke="#e0556b" stroke-width="1.6"/>
<circle cx="508.8" cy="154.0" r="3.4" fill="#2ec26b" opacity="0.85"/>
<path d="M466.1 150.4 L472.5 156.8 M466.1 156.8 L472.5 150.4" stroke="#e0556b" stroke-width="1.6"/>
<circle cx="486.3" cy="204.8" r="3.4" fill="#2ec26b" opacity="0.85"/>
<path d="M365.0 97.1 L371.4 103.5 M365.0 103.5 L371.4 97.1" stroke="#e0556b" stroke-width="1.6"/>
<circle cx="498.0" cy="148.0" r="3.4" fill="#2ec26b" opacity="0.85"/>
<circle cx="509.3" cy="150.1" r="3.4" fill="#2ec26b" opacity="0.85"/>
<path d="M363.4 169.0 L369.8 175.4 M363.4 175.4 L369.8 169.0" stroke="#e0556b" stroke-width="1.6"/>
<circle cx="485.0" cy="155.8" r="3.4" fill="#2ec26b" opacity="0.85"/>
<circle cx="503.3" cy="159.3" r="3.4" fill="#2ec26b" opacity="0.85"/>
<circle cx="506.6" cy="144.3" r="3.4" fill="#2ec26b" opacity="0.85"/>
<circle cx="496.8" cy="182.8" r="3.4" fill="#2ec26b" opacity="0.85"/>
<path d="M363.8 144.0 L370.2 150.4 M363.8 150.4 L370.2 144.0" stroke="#e0556b" stroke-width="1.6"/>
<path d="M507.7 148.4 L514.1 154.8 M507.7 154.8 L514.1 148.4" stroke="#e0556b" stroke-width="1.6"/>
<circle cx="512.6" cy="142.3" r="3.4" fill="#2ec26b" opacity="0.85"/>
<path d="M491.5 121.3 L497.9 127.7 M491.5 127.7 L497.9 121.3" stroke="#e0556b" stroke-width="1.6"/>
<path d="M403.1 67.9 L409.5 74.3 M403.1 74.3 L409.5 67.9" stroke="#e0556b" stroke-width="1.6"/>
<path d="M367.4 144.1 L373.8 150.5 M367.4 150.5 L373.8 144.1" stroke="#e0556b" stroke-width="1.6"/>
<circle cx="371.4" cy="140.9" r="3.4" fill="#2ec26b" opacity="0.85"/>
<path d="M516.7 159.8 L523.1 166.2 M516.7 166.2 L523.1 159.8" stroke="#e0556b" stroke-width="1.6"/>
<circle cx="507.7" cy="177.9" r="3.4" fill="#2ec26b" opacity="0.85"/>
<path d="M462.3 166.2 L468.7 172.6 M462.3 172.6 L468.7 166.2" stroke="#e0556b" stroke-width="1.6"/>
<circle cx="501.2" cy="125.2" r="3.4" fill="#2ec26b" opacity="0.85"/>
<path d="M512.6 171.2 L519.0 177.6 M512.6 177.6 L519.0 171.2" stroke="#e0556b" stroke-width="1.6"/>
<circle cx="502.5" cy="125.8" r="3.4" fill="#2ec26b" opacity="0.85"/>
<circle cx="518.0" cy="174.9" r="3.4" fill="#2ec26b" opacity="0.85"/>
<path d="M490.4 129.7 L496.8 136.1 M490.4 136.1 L496.8 129.7" stroke="#e0556b" stroke-width="1.6"/>
<path d="M513.1 128.3 L519.5 134.7 M513.1 134.7 L519.5 128.3" stroke="#e0556b" stroke-width="1.6"/>
<circle cx="406.0" cy="235.4" r="3.4" fill="#2ec26b" opacity="0.85"/>
<path d="M481.5 144.7 L487.9 151.1 M481.5 151.1 L487.9 144.7" stroke="#e0556b" stroke-width="1.6"/>
<circle cx="490.3" cy="98.1" r="3.4" fill="#2ec26b" opacity="0.85"/>
<circle cx="470.1" cy="140.8" r="3.4" fill="#2ec26b" opacity="0.85"/>
<path d="M373.6 169.6 L380.0 176.0 M373.6 176.0 L380.0 169.6" stroke="#e0556b" stroke-width="1.6"/>
<path d="M500.1 176.0 L506.5 182.4 M500.1 182.4 L506.5 176.0" stroke="#e0556b" stroke-width="1.6"/>
<circle cx="514.2" cy="185.0" r="3.4" fill="#2ec26b" opacity="0.85"/>
<path d="M432.4 66.0 L438.8 72.4 M432.4 72.4 L438.8 66.0" stroke="#e0556b" stroke-width="1.6"/>
<circle cx="492.3" cy="160.1" r="3.4" fill="#2ec26b" opacity="0.85"/>
<path d="M492.3 129.2 L498.7 135.6 M492.3 135.6 L498.7 129.2" stroke="#e0556b" stroke-width="1.6"/>
<path d="M371.5 119.9 L377.9 126.3 M371.5 126.3 L377.9 119.9" stroke="#e0556b" stroke-width="1.6"/>
<circle cx="514.7" cy="270.3" r="3.4" fill="#2ec26b" opacity="0.85"/>
<path d="M404.4 233.0 L410.8 239.4 M404.4 239.4 L410.8 233.0" stroke="#e0556b" stroke-width="1.6"/>
<circle cx="485.5" cy="145.0" r="3.4" fill="#2ec26b" opacity="0.85"/>
<circle cx="483.8" cy="220.5" r="3.4" fill="#2ec26b" opacity="0.85"/>
<path d="M475.8 157.5 L482.2 163.9 M475.8 163.9 L482.2 157.5" stroke="#e0556b" stroke-width="1.6"/>
<circle cx="361.4" cy="142.9" r="3.4" fill="#2ec26b" opacity="0.85"/>
<circle cx="420.6" cy="184.9" r="3.4" fill="#2ec26b" opacity="0.85"/>
<circle cx="509.0" cy="148.6" r="3.4" fill="#2ec26b" opacity="0.85"/>
<path d="M385.7 93.4 L392.1 99.8 M385.7 99.8 L392.1 93.4" stroke="#e0556b" stroke-width="1.6"/>
<path d="M503.7 161.9 L510.1 168.3 M503.7 168.3 L510.1 161.9" stroke="#e0556b" stroke-width="1.6"/>
<path d="M475.3 126.3 L481.7 132.7 M475.3 132.7 L481.7 126.3" stroke="#e0556b" stroke-width="1.6"/>
<path d="M442.8 259.4 L449.2 265.8 M442.8 265.8 L449.2 259.4" stroke="#e0556b" stroke-width="1.6"/>
<circle cx="496.4" cy="155.1" r="3.4" fill="#2ec26b" opacity="0.85"/>
<path d="M374.7 203.9 L381.1 210.3 M374.7 210.3 L381.1 203.9" stroke="#e0556b" stroke-width="1.6"/>
<circle cx="478.5" cy="133.1" r="3.4" fill="#2ec26b" opacity="0.85"/>
<circle cx="381.1" cy="234.9" r="3.4" fill="#2ec26b" opacity="0.85"/>
<path d="M409.3 252.9 L415.7 259.3 M409.3 259.3 L415.7 252.9" stroke="#e0556b" stroke-width="1.6"/>
<circle cx="367.9" cy="119.4" r="3.4" fill="#2ec26b" opacity="0.85"/>
<circle cx="496.8" cy="159.3" r="3.4" fill="#2ec26b" opacity="0.85"/>
<path d="M371.1 130.4 L377.5 136.8 M371.1 136.8 L377.5 130.4" stroke="#e0556b" stroke-width="1.6"/>
<circle cx="482.2" cy="215.5" r="3.4" fill="#2ec26b" opacity="0.85"/>
<circle cx="358.9" cy="162.8" r="3.4" fill="#2ec26b" opacity="0.85"/>
<path d="M363.0 125.4 L369.4 131.8 M363.0 131.8 L369.4 125.4" stroke="#e0556b" stroke-width="1.6"/>
<circle cx="512.2" cy="145.0" r="3.4" fill="#2ec26b" opacity="0.85"/>
<circle cx="502.8" cy="192.2" r="3.4" fill="#2ec26b" opacity="0.85"/>
<path d="M505.3 202.5 L511.7 208.9 M505.3 208.9 L511.7 202.5" stroke="#e0556b" stroke-width="1.6"/>
<path d="M494.8 141.2 L501.2 147.6 M494.8 147.6 L501.2 141.2" stroke="#e0556b" stroke-width="1.6"/>
<path d="M377.9 101.4 L384.3 107.8 M377.9 107.8 L384.3 101.4" stroke="#e0556b" stroke-width="1.6"/>
<circle cx="508.8" cy="154.0" r="3.4" fill="#2ec26b" opacity="0.85"/>
<circle cx="377.9" cy="134.5" r="3.4" fill="#2ec26b" opacity="0.85"/>
<path d="M382.8 97.8 L389.2 104.2 M382.8 104.2 L389.2 97.8" stroke="#e0556b" stroke-width="1.6"/>
<path d="M389.3 207.5 L395.7 213.9 M389.3 213.9 L395.7 207.5" stroke="#e0556b" stroke-width="1.6"/>
<circle cx="516.7" cy="183.6" r="3.4" fill="#2ec26b" opacity="0.85"/>
<path d="M400.7 69.4 L407.1 75.8 M400.7 75.8 L407.1 69.4" stroke="#e0556b" stroke-width="1.6"/>
<circle cx="507.7" cy="152.3" r="3.4" fill="#2ec26b" opacity="0.85"/>
<path d="M523.6 210.2 L530.0 216.6 M523.6 216.6 L530.0 210.2" stroke="#e0556b" stroke-width="1.6"/>
<circle cx="373.5" cy="151.4" r="3.4" fill="#2ec26b" opacity="0.85"/>
<circle cx="508.8" cy="154.0" r="3.4" fill="#2ec26b" opacity="0.85"/>
<circle cx="479.8" cy="37.6" r="3.4" fill="#2ec26b" opacity="0.85"/>
<path d="M377.6 131.9 L384.0 138.3 M377.6 138.3 L384.0 131.9" stroke="#e0556b" stroke-width="1.6"/>
<circle cx="511.5" cy="178.5" r="3.4" fill="#2ec26b" opacity="0.85"/>
<circle cx="513.2" cy="151.2" r="3.4" fill="#2ec26b" opacity="0.85"/>
<path d="M355.1 109.5 L361.5 115.9 M355.1 115.9 L361.5 109.5" stroke="#e0556b" stroke-width="1.6"/>
<circle cx="359.1" cy="99.9" r="3.4" fill="#2ec26b" opacity="0.85"/>
<path d="M513.3 157.2 L519.7 163.6 M513.3 163.6 L519.7 157.2" stroke="#e0556b" stroke-width="1.6"/>
<circle cx="508.8" cy="154.0" r="3.4" fill="#2ec26b" opacity="0.85"/>
<circle cx="510.8" cy="146.9" r="3.4" fill="#2ec26b" opacity="0.85"/>
<circle cx="520.6" cy="175.3" r="3.4" fill="#2ec26b" opacity="0.85"/>
<path d="M512.5 170.7 L518.9 177.1 M512.5 177.1 L518.9 170.7" stroke="#e0556b" stroke-width="1.6"/>
<circle cx="407.8" cy="49.3" r="3.4" fill="#2ec26b" opacity="0.85"/>
<path d="M490.6 153.6 L497.0 160.0 M490.6 160.0 L497.0 153.6" stroke="#e0556b" stroke-width="1.6"/>
<circle cx="372.9" cy="80.0" r="3.4" fill="#2ec26b" opacity="0.85"/>
<circle cx="456.4" cy="151.9" r="3.4" fill="#2ec26b" opacity="0.85"/>
<path d="M432.2 256.2 L438.6 262.6 M432.2 262.6 L438.6 256.2" stroke="#e0556b" stroke-width="1.6"/>
<path d="M359.1 211.3 L365.5 217.7 M359.1 217.7 L365.5 211.3" stroke="#e0556b" stroke-width="1.6"/>
<path d="M450.0 259.7 L456.4 266.1 M450.0 266.1 L456.4 259.7" stroke="#e0556b" stroke-width="1.6"/>
<path d="M433.8 48.3 L440.2 54.7 M433.8 54.7 L440.2 48.3" stroke="#e0556b" stroke-width="1.6"/>
<path d="M377.8 90.3 L384.2 96.7 M377.8 96.7 L384.2 90.3" stroke="#e0556b" stroke-width="1.6"/>
<circle cx="513.2" cy="161.1" r="3.4" fill="#2ec26b" opacity="0.85"/>
<circle cx="505.1" cy="155.4" r="3.4" fill="#2ec26b" opacity="0.85"/>
<path d="M403.0 73.2 L409.4 79.6 M403.0 79.6 L409.4 73.2" stroke="#e0556b" stroke-width="1.6"/>
<path d="M510.0 133.7 L516.4 140.1 M510.0 140.1 L516.4 133.7" stroke="#e0556b" stroke-width="1.6"/>
<path d="M416.0 86.7 L422.4 93.1 M416.0 93.1 L422.4 86.7" stroke="#e0556b" stroke-width="1.6"/>
<circle cx="510.8" cy="136.9" r="3.4" fill="#2ec26b" opacity="0.85"/>
<circle cx="430.5" cy="159.0" r="3.4" fill="#2ec26b" opacity="0.85"/>
<circle cx="521.3" cy="172.5" r="3.4" fill="#2ec26b" opacity="0.85"/>
<path d="M369.7 208.5 L376.1 214.9 M369.7 214.9 L376.1 208.5" stroke="#e0556b" stroke-width="1.6"/>
<path d="M512.5 159.3 L518.9 165.7 M512.5 165.7 L518.9 159.3" stroke="#e0556b" stroke-width="1.6"/>
<path d="M505.6 150.8 L512.0 157.2 M505.6 157.2 L512.0 150.8" stroke="#e0556b" stroke-width="1.6"/>
<path d="M370.3 149.7 L376.7 156.1 M370.3 156.1 L376.7 149.7" stroke="#e0556b" stroke-width="1.6"/>
<path d="M367.1 158.9 L373.5 165.3 M367.1 165.3 L373.5 158.9" stroke="#e0556b" stroke-width="1.6"/>
<path d="M434.4 45.0 L440.8 51.4 M434.4 51.4 L440.8 45.0" stroke="#e0556b" stroke-width="1.6"/>
<circle cx="481.8" cy="106.0" r="3.4" fill="#2ec26b" opacity="0.85"/>
<path d="M376.3 179.7 L382.7 186.1 M376.3 186.1 L382.7 179.7" stroke="#e0556b" stroke-width="1.6"/>
<path d="M494.0 125.6 L500.4 132.0 M494.0 132.0 L500.4 125.6" stroke="#e0556b" stroke-width="1.6"/>
<path d="M503.7 203.2 L510.1 209.6 M503.7 209.6 L510.1 203.2" stroke="#e0556b" stroke-width="1.6"/>
<path d="M358.2 153.2 L364.6 159.6 M358.2 159.6 L364.6 153.2" stroke="#e0556b" stroke-width="1.6"/>
<path d="M477.4 145.4 L483.8 151.8 M477.4 151.8 L483.8 145.4" stroke="#e0556b" stroke-width="1.6"/>
<path d="M499.3 149.7 L505.7 156.1 M499.3 156.1 L505.7 149.7" stroke="#e0556b" stroke-width="1.6"/>
<path d="M383.3 85.6 L389.7 92.0 M383.3 92.0 L389.7 85.6" stroke="#e0556b" stroke-width="1.6"/>
<path d="M419.0 247.2 L425.4 253.6 M419.0 253.6 L425.4 247.2" stroke="#e0556b" stroke-width="1.6"/>
<path d="M411.9 63.2 L418.3 69.6 M411.9 69.6 L418.3 63.2" stroke="#e0556b" stroke-width="1.6"/>
<circle cx="509.2" cy="194.6" r="3.4" fill="#2ec26b" opacity="0.85"/>
<path d="M498.7 174.3 L505.1 180.7 M498.7 180.7 L505.1 174.3" stroke="#e0556b" stroke-width="1.6"/>
<path d="M398.9 68.2 L405.3 74.6 M398.9 74.6 L405.3 68.2" stroke="#e0556b" stroke-width="1.6"/>
<circle cx="500.3" cy="144.8" r="3.4" fill="#2ec26b" opacity="0.85"/>
<circle cx="514.1" cy="189.6" r="3.4" fill="#2ec26b" opacity="0.85"/>
<path d="M455.7 262.6 L462.1 269.0 M455.7 269.0 L462.1 262.6" stroke="#e0556b" stroke-width="1.6"/>
<path d="M407.0 253.3 L413.4 259.7 M407.0 259.7 L413.4 253.3" stroke="#e0556b" stroke-width="1.6"/>
<circle cx="488.9" cy="147.6" r="3.4" fill="#2ec26b" opacity="0.85"/>
</svg>