<svg xmlns="http://www.w3.org/2000/svg" width="560" height="300" font-family="sans-serif">
<rect x="0" y="0" width="560" height="300" fill="#1b1b1b"/>
<text x="20" y="16" fill="#ddd" font-size="13">E. Bonet (GOE) — 194 tiros, Clasificatorio</text>
<rect x="20" y="28" width="520" height="252" fill="none" stroke="#555"/>
<circle cx="468.0" cy="197.1" r="3.4" fill="#2ec26b" opacity="0.85"/>
<circle cx="502.8" cy="158.7" r="3.4" fill="#2ec26b" opacity="0.85"/>
<circle cx="411.2" cy="245.6" r="3.4" fill="#2ec26b" opacity="0.85"/>
<path d="M433.1 255.2 L439.5 261.6 M433.1 261.6 L439.5 255.2" stroke="#e0556b" stroke-width="1.6"/>
<path d="M499.6 132.0 L506.0 138.4 M499.6 138.4 L506.0 132.0" stroke="#e0556b" stroke-width="1.6"/>
<path d="M488.8 126.2 L495.2 132.6 M488.8 132.6 L495.2 126.2" stroke="#e0556b" stroke-width="1.6"/>
<circle cx="435.2" cy="96.6" r="3.4" fill="#2ec26b" opacity="0.85"/>
<path d="M475.8 130.4 L482.2 136.8 M475.8 136.8 L482.2 130.4" stroke="#e0556b" stroke-width="1.6"/>
<path d="M482.3 133.3 L488.7 139.7 M482.3 139.7 L488.7 133.3" stroke="#e0556b" stroke-width="1.6"/>
<path d="M497.7 168.2 L504.1 174.6 M497.7 174.6 L504.1 168.2" stroke="#e0556b" stroke-width="1.6"/>
<circle cx="488.7" cy="159.3" r="3.4" fill="#2ec26b" opacity="0.85"/>
<circle cx="393.0" cy="82.4" r="3.4" fill="#2ec26b" opacity="0.85"/>
<circle cx="496.0" cy="156.4" r="3.4" fill="#2ec26b" opacity="0.85"/>
<path d="M381.7 56.4 L388.1 62.8 M381.7 62.8 L388.1 56.4" stroke="#e0556b" stroke-width="1.6"/>
<path d="M493.6 158.2 L500.0 164.6 M493.6 164.6 L500.0 158.2" stroke="#e0556b" stroke-width="1.6"/>
<path d="M361.4 134.0 L367.8 140.4 M361.4 140.4 L367.8 134.0" stroke="#e0556b" stroke-width="1.6"/>
<circle cx="500.1" cy="154.3" r="3.4" fill="#2ec26b" opacity="0.85"/>
<path d="M481.5 153.2 L487.9 159.6 M481.5 159.6 L487.9 153.2" stroke="#e0556b" stroke-width="1.6"/>
<circle cx="502.0" cy="148.7" r="3.4" fill="#2ec26b" opacity="0.85"/>
<path d="M397.4 236.7 L403.8 243.1 M397.4 243.1 L403.8 236.7" stroke="#e0556b" stroke-width="1.6"/>
<path d="M498.0 30.9 L504.4 37.3 M498.0 37.3 L504.4 30.9" stroke="#e0556b" stroke-width="1.6"/>
<circle cx="508.5" cy="147.3" r="3.4" fill="#2ec26b" opacity="0.85"/>
<circle cx="516.7" cy="140.2" r="3.4" fill="#2ec26b" opacity="0.85"/>
<path d="M470.4 268.0 L476.8 274.4 M470.4 274.4 L476.8 268.0" stroke="#e0556b" stroke-width="1.6"/>
<path d="M502.1 172.6 L508.5 179.0 M502.1 179.0 L508.5 172.6" stroke="#e0556b" stroke-width="1.6"/>
<path d="M399.9 230.3 L406.3 236.7 M399.9 236.7 L406.3 230.3" stroke="#e0556b" stroke-width="1.6"/>
<circle cx="506.9" cy="153.0" r="3.4" fill="#2ec26b" opacity="0.85"/>
<circle cx="516.3" cy="173.5" r="3.4" fill="#2ec26b" opacity="0.85"/>
<circle cx="513.1" cy="118.7" r="3.4" fill="#2ec26b" opacity="0.85"/>
<path d="M449.9 43.6 L456.3 50.0 M449.9 50.0 L456.3 43.6" stroke="#e0556b" stroke-width="1.6"/>
<circle cx="513.9" cy="145.0" r="3.4" fill="#2ec26b" opacity="0.85"/>
<path d="M454.7 265.0 L461.1 271.4 M454.7 271.4 L461.1 265.0" stroke="#e0556b" stroke-width="1.6"/>
<circle cx="518.0" cy="145.0" r="3.4" fill="#2ec26b" opacity="0.85"/>
<circle cx="526.8" cy="163.6" r="3.4" fill="#2ec26b" opacity="0.85"/>
<circle cx="513.9" cy="157.1" r="3.4" fill="#2ec26b" opacity="0.85"/>
<path d="M506.6 166.0 L513.0 172.4 M506.6 172.4 L513.0 166.0" stroke="#e0556b" stroke-width="1.6"/>
<path d="M420.2 48.0 L426.6 54.4 M420.2 54.4 L426.6 48.0" stroke="#e0556b" stroke-width="1.6"/>
<path d="M379.6 195.4 L386.0 201.8 M379.6 201.8 L386.0 195.4" stroke="#e0556b" stroke-width="1.6"/>
<circle cx="517.4" cy="161.5" r="3.4" fill="#2ec26b" opacity="0.85"/>
<circle cx="502.0" cy="39.1" r="3.4" fill="#2ec26b" opacity="0.85"/>
<path d="M510.2 144.8 L516.6 151.2 M510.2 151.2 L516.6 144.8" stroke="#e0556b" stroke-width="1.6"/>
<path d="M405.6 60.8 L412.0 67.2 M405.6 67.2 L412.0 60.8" stroke="#e0556b" stroke-width="1.6"/>
<path d="M515.9 30.9 L522.3 37.3 M515.9 37.3 L522.3 30.9" stroke="#e0556b" stroke-width="1.6"/>
<path d="M482.6 139.8 L489.0 146.2 M482.6 146.2 L489.0 139.8" stroke="#e0556b" stroke-width="1.6"/>
<circle cx="510.2" cy="138.0" r="3.4" fill="#2ec26b" opacity="0.85"/>
<circle cx="521.2" cy="171.4" r="3.4" fill="#2ec26b" opacity="0.85"/>
<path d="M518.0 170.3 L524.4 176.7 M518.0 176.7 L524.4 170.3" stroke="#e0556b" stroke-width="1.6"/>
<path d="M428.7 52.8 L435.1 59.2 M428.7 59.2 L435.1 52.8" stroke="#e0556b" stroke-width="1.6"/>
<path d="M377.0 207.8 L383.4 214.2 M377.0 214.2 L383.4 207.8" stroke="#e0556b" stroke-width="1.6"/>
<path d="M497.1 124.5 L503.5 130.9 M497.1 130.9 L503.5 124.5" stroke="#e0556b" stroke-width="1.6"/>
<path d="M493.0 107.4 L499.4 113.8 M493.0 113.8 L499.4 107.4" stroke="#e0556b" stroke-width="1.6"/>
<circle cx="411.8" cy="65.0" r="3.4" fill="#2ec26b" opacity="0.85"/>
<path d="M495.4 125.2 L501.8 131.6 M495.4 131.6 L501.8 125.2" stroke="#e0556b" stroke-width="1.6"/>
<circle cx="471.0" cy="156.8" r="3.4" fill="#2ec26b" opacity="0.85"/>
<path d="M371.3 145.1 L377.7 151.5 M371.3 151.5 L377.7 145.1" stroke="#e0556b" stroke-width="1.6"/>
<path d="M382.7 105.9 L389.1 112.3 M382.7 112.3 L389.1 105.9" stroke="#e0556b" stroke-width="1.6"/>
<path d="M384.4 64.4 L390.8 70.8 M384.4 70.8 L390.8 64.4" stroke="#e0556b" stroke-width="1.6"/>
<circle cx="499.6" cy="165.8" r="3.4" fill="#2ec26b" opacity="0.85"/>
<circle cx="489.9" cy="150.1" r="3.4" fill="#2ec26b" opacity="0.85"/>
<path d="M405.6 59.4 L412.0 65.8 M405.6 65.8 L412.0 59.4" stroke="#e0556b" stroke-width="1.6"/>
<circle cx="526.1" cy="130.1" r="3.4" fill="#2ec26b" opacity="0.85"/>
<path d="M405.2 62.8 L411.6 69.2 M405.2 69.2 L411.6 62.8" stroke="#e0556b" stroke-width="1.6"/>
<path d="M407.0 64.0 L413.4 70.4 M407.0 70.4 L413.4 64.0" stroke="#e0556b" stroke-width="1.6"/>
<path d="M478.4 172.9 L484.8 179.3 M478.4 179.3 L484.8 172.9" stroke="#e0556b" stroke-width="1.6"/>
<path d="M370.5 157.9 L376.9 164.3 M370.5 164.3 L376.9 157.9" stroke="#e0556b" stroke-width="1.6"/>
<path d="M493.8 205.6 L500.2 212.0 M493.8 212.0 L500.2 205.6" stroke="#e0556b" stroke-width="1.6"/>
<path d="M485.7 171.4 L492.1 177.8 M485.7 177.8 L492.1 171.4" stroke="#e0556b" stroke-width="1.6"/>
<path d="M415.1 242.6 L421.5 249.0 M415.1 249.0 L421.5 242.6" stroke="#e0556b" stroke-width="1.6"/>
<path d="M502.9 162.6 L509.3 169.0 M502.9 169.0 L509.3 162.6" stroke="#e0556b" stroke-width="1.6"/>
<path d="M496.4 178.3 L502.8 184.7 M496.4 184.7 L502.8 178.3" stroke="#e0556b" stroke-width="1.6"/>
<path d="M425.8 250.9 L432.2 257.3 M425.8 257.3 L432.2 250.9" stroke="#e0556b" stroke-width="1.6"/>
<circle cx="509.3" cy="140.2" r="3.4" fill="#2ec26b" opacity="0.85"/>
<path d="M507.0 156.9 L513.4 163.3 M507.0 163.3 L513.4 156.9" stroke="#e0556b" stroke-width="1.6"/>
<path d="M505.0 132.6 L511.4 139.0 M505.0 139.0 L511.4 132.6" stroke="#e0556b" stroke-width="1.6"/>
<path d="M496.9 156.8 L503.3 163.2 M496.9 163.2 L503.3 156.8" stroke="#e0556b" stroke-width="1.6"/>
<path d="M501.8 162.5 L508.2 168.9 M501.8 168.9 L508.2 162.5" stroke="#e0556b" stroke-width="1.6"/>
<circle cx="506.6" cy="163.6" r="3.4" fill="#2ec26b" opacity="0.85"/>
<path d="M436.9 46.4 L443.3 52.8 M436.9 52.8 L443.3 46.4" stroke="#e0556b" stroke-width="1.6"/>
<path d="M352.8 122.8 L359.2 129.2 M352.8 129.2 L359.2 122.8" stroke="#e0556b" stroke-width="1.6"/>
<circle cx="498.0" cy="150.9" r="3.4" fill="#2ec26b" opacity="0.85"/>
<path d="M511.5 159.6 L517.9 166.0 M511.5 166.0 L517.9 159.6" stroke="#e0556b" stroke-width="1.6"/>
<circle cx="470.9" cy="40.4" r="3.4" fill="#2ec26b" opacity="0.85"/>
<path d="M511.5 141.8 L517.9 148.2 M511.5 148.2 L517.9 141.8" stroke="#e0556b" stroke-width="1.6"/>
<circle cx="496.8" cy="155.0" r="3.4" fill="#2ec26b" opacity="0.85"/>
<path d="M502.1 171.9 L508.5 178.3 M502.1 178.3 L508.5 171.9" stroke="#e0556b" stroke-width="1.6"/>
<path d="M501.3 141.2 L507.7 147.6 M501.3 147.6 L507.7 141.2" stroke="#e0556b" stroke-width="1.6"/>
<circle cx="400.6" cy="222.8" r="3.4" fill="#2ec26b" opacity="0.85"/>
<path d="M509.9 129.7 L516.3 136.1 M509.9 136.1 L516.3 129.7" stroke="#e0556b" stroke-width="1.6"/>
<path d="M394.7 218.7 L401.1 225.1 M394.7 225.1 L401.1 218.7" stroke="#e0556b" stroke-width="1.6"/>
<path d="M451.5 40.8 L457.9 47.2 M451.5 47.2 L457.9 40.8" stroke="#e0556b" stroke-width="1.6"/>
<circle cx="375.3" cy="168.9" r="3.4" fill="#2ec26b" opacity="0.85"/>
<circle cx="421.5" cy="105.6" r="3.4" fill="#2ec26b" opacity="0.85"/>
<path d="M498.7 169.3 L505.1 175.7 M498.7 175.7 L505.1 169.3" stroke="#e0556b" stroke-width="1.6"/>
<circle cx="451.6" cy="265.1" r="3.4" fill="#2ec26b" opacity="0.85"/>
<circle cx="517.3" cy="137.6" r="3.4" fill="#2ec26b" opacity="0.85"/>
<circle cx="438.6" cy="252.2" r="3.4" fill="#2ec26b" opacity="0.85"/>
<circle cx="455.7" cy="47.2" r="3.4" fill="#2ec26b" opacity="0.85"/>
<path d="M465.4 35.5 L471.8 41.9 M465.4 41.9 L471.8 35.5" stroke="#e0556b" stroke-width="1.6"/>
<path d="M337.2 144.4 L343.6 150.8 M337.2 150.8 L343.6 144.4" stroke="#e0556b" stroke-width="1.6"/>
<path d="M515.7 156.5 L522.1 162.9 M515.7 162.9 L522.1 156.5" stroke="#e0556b" stroke-width="1.6"/>
<path d="M409.5 239.1 L415.9 245.5 M409.5 245.5 L415.9 239.1" stroke="#e0556b" stroke-width="1.6"/>
<path d="M471.1 190.7 L477.5 197.1 M471.1 197.1 L477.5 190.7" stroke="#e0556b" stroke-width="1.6"/>
<path d="M354.3 59.0 L360.7 65.4 M354.3 65.4 L360.7 59.0" stroke="#e0556b" stroke-width="1.6"/>
<path d="M390.8 95.3 L397.2 101.7 M390.8 101.7 L397.2 95.3" stroke="#e0556b" stroke-width="1.6"/>
<circle cx="501.1" cy="151.2" r="3.4" fill="#2ec26b" opacity="0.85"/>
<path d="M367.1 131.9 L373.5 138.3 M367.1 138.3 L373.5 131.9" stroke="#e0556b" stroke-width="1.6"/>
<circle cx="518.7" cy="154.3" r="3.4" fill="#2ec26b" opacity="0.85"/>
<path d="M369.8 182.6 L376.2 189.0 M369.8 189.0 L376.2 182.6" stroke="#e0556b" stroke-width="1.6"/>
<path d="M395.5 49.3 L401.9 55.7 M395.5 55.7 L401.9 49.3" stroke="#e0556b" stroke-width="1.6"/>
<path d="M469.3 133.3 L475.7 139.7 M469.3 139.7 L475.7 133.3" stroke="#e0556b" stroke-width="1.6"/>
<circle cx="513.4" cy="166.5" r="3.4" fill="#2ec26b" opacity="0.85"/>
<path d="M476.1 119.9 L482.5 126.3 M476.1 126.3 L482.5 119.9" stroke="#e0556b" stroke-width="1.6"/>
<path d="M400.7 48.7 L407.1 55.1 M400.7 55.1 L407.1 48.7" stroke="#e0556b" stroke-width="1.6"/>
<circle cx="400.6" cy="63.3" r="3.4" fill="#2ec26b" opacity="0.85"/>
<path d="M493.8 162.2 L500.2 168.6 M493.8 168.6 L500.2 162.2" stroke="#e0556b" stroke-width="1.6"/>
<path d="M372.9 243.3 L379.3 249.7 M372.9 249.7 L379.3 243.3" stroke="#e0556b" stroke-width="1.6"/>
<circle cx="383.4" cy="87.8" r="3.4" fill="#2ec26b" opacity="0.85"/>
<path d="M402.1 236.9 L408.5 243.3 M402.1 243.3 L408.5 236.9" stroke="#e0556b" stroke-width="1.6"/>
<path d="M504.4 160.0 L510.8 166.4 M504.4 166.4 L510.8 160.0" stroke="#e0556b" stroke-width="1.6"/>
<circle cx="522.9" cy="171.8" r="3.4" fill="#2ec26b" opacity="0.85"/>
<circle cx="480.0" cy="270.0" r="3.4" fill="#2ec26b" opacity="0.85"/>
<path d="M379.4 198.5 L385.8 204.9 M379.4 204.9 L385.8 198.5" stroke="#e0556b" stroke-width="1.6"/>
<circle cx="524.6" cy="38.0" r="3.4" fill="#2ec26b" opacity="0.85"/>
<path d="M435.4 254.0 L441.8 260.4 M435.4 260.4 L441.8 254.0" stroke="#e0556b" stroke-width="1.6"/>
<circle cx="444.1" cy="48.9" r="3.4" fill="#2ec26b" opacity="0.85"/>
<path d="M516.4 33.6 L522.8 40.0 M516.4 40.0 L522.8 33.6" stroke="#e0556b" stroke-width="1.6"/>
<path d="M514.8 172.4 L521.2 178.8 M514.8 178.8 L521.2 172.4" stroke="#e0556b" stroke-width="1.6"/>
<circle cx="510.2" cy="272.6" r="3.4" fill="#2ec26b" opacity="0.85"/>
<path d="M433.1 49.4 L439.5 55.8 M433.1 55.8 L439.5 49.4" stroke="#e0556b" stroke-width="1.6"/>
<path d="M510.7 119.8 L517.1 126.2 M510.7 126.2 L517.1 119.8" stroke="#e0556b" stroke-width="1.6"/>
<path d="M382.5 76.3 L388.9 82.7 M382.5 82.7 L388.9 76.3" stroke="#e0556b" stroke-width="1.6"/>
<path d="M483.1 128.3 L489.5 134.7 M483.1 134.7 L489.5 128.3" stroke="#e0556b" stroke-width="1.6"/>
<path d="M490.4 167.5 L496.8 173.9 M490.4 173.9 L496.8 167.5" stroke="#e0556b" stroke-width="1.6"/>
<circle cx="483.8" cy="170.0" r="3.4" fill="#2ec26b" opacity="0.85"/>
<path d="M406.3 231.0 L412.7 237.4 M406.3 237.4 L412.7 231.0" stroke="#e0556b" stroke-width="1.6"/>
<circle cx="512.6" cy="131.6" r="3.4" fill="#2ec26b" opacity="0.85"/>
<path d="M490.7 136.3 L497.1 142.7 M490.7 142.7 L497.1 136.3" stroke="#e0556b" stroke-width="1.6"/>
<circle cx="507.7" cy="128.1" r="3.4" fill="#2ec26b" opacity="0.85"/>
<path d="M507.7 174.0 L514.1 180.4 M507.7 180.4 L514.1 174.0" stroke="#e0556b" stroke-width="1.6"/>
<circle cx="506.6" cy="170.7" r="3.4" fill="#2ec26b" opacity="0.85"/>
<circle cx="501.7" cy="135.8" r="3.4" fill="#2ec26b" opacity="0.85"/>
<path d="M399.5 245.8 L405.9 252.2 M399.5 252.2 L405.9 245.8" stroke="#e0556b" stroke-width="1.6"/>
<circle cx="498.5" cy="170.7" r="3.4" fill="#2ec26b" opacity="0.85"/>
<circle cx="503.3" cy="153.6" r="3.4" fill="#2ec26b" opacity="0.85"/>
<path d="M423.1 48.6 L429.5 55.0 M423.1 55.0 L429.5 48.6" stroke="#e0556b" stroke-width="1.6"/>
<circle cx="500.1" cy="139.3" r="3.4" fill="#2ec26b" opacity="0.85"/>
<path d="M500.1 193.8 L506.5 200.2 M500.1 200.2 L506.5 193.8" stroke="#e0556b" stroke-width="1.6"/>
<path d="M504.2 267.8 L510.6 274.2 M504.2 274.2 L510.6 267.8" stroke="#e0556b" stroke-width="1.6"/>
<circle cx="529.3" cy="39.7" r="3.4" fill="#2ec26b" opacity="0.85"/>
<path d="M520.4 269.3 L526.8 275.7 M520.4 275.7 L526.8 269.3" stroke="#e0556b" stroke-width="1.6"/>
<circle cx="505.0" cy="139.3" r="3.4" fill="#2ec26b" opacity="0.85"/>
<circle cx="508.5" cy="177.2" r="3.4" fill="#2ec26b" opacity="0.85"/>
<path d="M494.0 184.7 L500.4 191.1 M494.0 191.1 L500.4 184.7" stroke="#e0556b" stroke-width="1.6"/>
<path d="M364.2 51.6 L370.6 58.0 M364.2 58.0 L370.6 51.6" stroke="#e0556b" stroke-width="1.6"/>
<circle cx="515.0" cy="157.3" r="3.4" fill="#2ec26b" opacity="0.85"/>
<circle cx="504.5" cy="150.9" r="3.4" fill="#2ec26b" opacity="0.85"/>
<path d="M478.6 149.1 L485.0 155.5 M478.6 155.5 L485.0 149.1" stroke="#e0556b" stroke-width="1.6"/>
<path d="M509.4 132.7 L515.8 139.1 M509.4 139.1 L515.8 132.7" stroke="#e0556b" stroke-width="1.6"/>
<path d="M487.5 181.1 L493.9 187.5 M487.5 187.5 L493.9 181.1" stroke="#e0556b" stroke-width="1.6"/>
<circle cx="396.3" cy="70.3" r="3.4" fill="#2ec26b" opacity="0.85"/>
<path d="M357.3 173.2 L363.7 179.6 M357.3 179.6 L363.7 173.2" stroke="#e0556b" stroke-width="1.6"/>
<circle cx="501.7" cy="162.1" r="3.4" fill="#2ec26b" opacity="0.85"/>
<path d="M498.5 154.7 L504.9 161.1 M498.5 161.1 L504.9 154.7" stroke="#e0556b" stroke-width="1.6"/>
<circle cx="506.6" cy="156.4" r="3.4" fill="#2ec26b" opacity="0.85"/>
<path d="M515.9 150.5 L522.3 156.9 M515.9 156.9 L522.3 150.5" stroke="#e0556b" stroke-width="1.6"/>
<path d="M485.1 34.5 L491.5 40.9 M485.1 40.9 L491.5 34.5" stroke="#e0556b" stroke-width="1.6"/>
<path d="M503.7 152.6 L510.1 159.0 M503.7 159.0 L510.1 152.6" stroke="#e0556b" stroke-width="1.6"/>
<circle cx="430.6" cy="245.6" r="3.4" fill="#2ec26b" opacity="0.85"/>
<path d="M441.7 46.4 L448.1 52.8 M441.7 52.8 L448.1 46.4" stroke="#e0556b" stroke-width="1.6"/>
<path d="M488.0 178.1 L494.4 184.5 M488.0 184.5 L494.4 178.1" stroke="#e0556b" stroke-width="1.6"/>
<path d="M448.2 156.8 L454.6 163.2 M448.2 163.2 L454.6 156.8" stroke="#e0556b" stroke-width="1.6"/>
<circle cx="500.1" cy="170.7" r="3.4" fill="#2ec26b" opacity="0.85"/>
<path d="M491.5 153.4 L497.9 159.8 M491.5 159.8 L497.9 153.4" stroke="#e0556b" stroke-width="1.6"/>
<circle cx="480.9" cy="137.3" r="3.4" fill="#2ec26b" opacity="0.85"/>
<circle cx="433.9" cy="54.8" r="3.4" fill="#2ec26b" opacity="0.85"/>
<circle cx="493.9" cy="183.6" r="3.4" fill="#2ec26b" opacity="0.85"/>
<path d="M420.2 250.9 L426.6 257.3 M420.2 257.3 L426.6 250.9" stroke="#e0556b" stroke-width="1.6"/>
<circle cx="517.4" cy="133.1" r="3.4" fill="#2ec26b" opacity="0.85"/>
<path d="M516.7 177.6 L523.1 184.0 M516.7 184.0 L523.1 177.6" stroke="#e0556b" stroke-width="1.6"/>
<path d="M520.7 182.6 L527.1 189.0 M520.7 189.0 L527.1 182.6" stroke="#e0556b" stroke-width="1.6"/>
<path d="M436.4 45.9 L442.8 52.3 M436.4 52.3 L442.8 45.9" stroke="#e0556b" stroke-width="1.6"/>
<path d="M374.7 150.5 L381.1 156.9 M374.7 156.9 L381.1 150.5" stroke="#e0556b" stroke-width="1.6"/>
<path d="M427.1 255.0 L433.5 261.4 M427.1 261.4 L433.5 255.0" stroke="#e0556b" stroke-width="1.6"/>
<path d="M496.9 270.0 L503.3 276.4 M496.9 276.4 L503.3 270.0" stroke="#e0556b" stroke-width="1.6"/>
<path d="M449.0 34.4 L455.4 40.8 M449.0 40.8 L455.4 34.4" stroke="#e0556b" stroke-width="1.6"/>
<circle cx="510.2" cy="156.6" r="3.4" fill="#2ec26b" opacity="0.85"/>
<circle cx="463.9" cy="112.4" r="3.4" fill="#2ec26b" opacity="0.85"/>
<path d="M484.2 135.6 L490.6 142.0 M484.2 142.0 L490.6 135.6" stroke="#e0556b" stroke-width="1.6"/>
<path d="M383.7 90.0 L390.1 96.4 M383.7 96.4 L390.1 90.0" stroke="#e0556b" stroke-width="1.6"/>
<path d="M406.3 65.1 L412.7 71.5 M406.3 71.5 L412.7 65.1" stroke="#e0556b" stroke-width="1.6"/>
<path d="M500.5 138.4 L506.9 144.8 M500.5 144.8 L506.9 138.4" stroke="#e0556b" stroke-width="1.6"/>
<circle cx="510.2" cy="143.0" r="3.4" fill="#2ec26b" opacity="0.85"/>
<circle cx="505.3" cy="155.8" r="3.4" fill="#2ec26b" opacity="0.85"/>
<path d="M390.9 77.2 L397.3 83.6 M390.9 83.6 L397.3 77.2" stroke="#e0556b" stroke-width="1.6"/>
</svg>