<svg xmlns="http://www.w3.org/2000/svg" width="560" height="300" font-family="sans-serif">
<rect x="0" y="0" width="560" height="300" fill="#1b1b1b"/>
<text x="20" y="16" fill="#ddd" font-size="13">E. Clark (AGU) — 314 tiros, Clasificatorio</text>
<rect x="20" y="28" width="520" height="252" fill="none" stroke="#555"/>
<circle cx="502.0" cy="165.8" r="3.4" fill="#2ec26b" opacity="0.85"/>
<path d="M424.2 82.2 L430.6 88.6 M424.2 88.6 L430.6 82.2" stroke="#e0556b" stroke-width="1.6"/>
<path d="M403.9 233.1 L410.3 239.5 M403.9 239.5 L410.3 233.1" stroke="#e0556b" stroke-width="1.6"/>
<path d="M498.0 268.0 L504.4 274.4 M498.0 274.4 L504.4 268.0" stroke="#e0556b" stroke-width="1.6"/>
<circle cx="372.2" cy="164.4" r="3.4" fill="#2ec26b" opacity="0.85"/>
<circle cx="507.7" cy="106.0" r="3.4" fill="#2ec26b" opacity="0.85"/>
<path d="M510.2 248.0 L516.6 254.4 M510.2 254.4 L516.6 248.0" stroke="#e0556b" stroke-width="1.6"/>
<circle cx="502.8" cy="194.3" r="3.4" fill="#2ec26b" opacity="0.85"/>
<circle cx="424.1" cy="56.2" r="3.4" fill="#2ec26b" opacity="0.85"/>
<circle cx="508.5" cy="163.0" r="3.4" fill="#2ec26b" opacity="0.85"/>
<path d="M369.0 176.2 L375.4 182.6 M369.0 182.6 L375.4 176.2" stroke="#e0556b" stroke-width="1.6"/>
<circle cx="447.7" cy="121.7" r="3.4" fill="#2ec26b" opacity="0.85"/>
<circle cx="506.9" cy="101.8" r="3.4" fill="#2ec26b" opacity="0.85"/>
<path d="M418.5 186.1 L424.9 192.5 M418.5 192.5 L424.9 186.1" stroke="#e0556b" stroke-width="1.6"/>
<path d="M487.1 69.9 L493.5 76.3 M487.1 76.3 L493.5 69.9" stroke="#e0556b" stroke-width="1.6"/>
<path d="M470.9 190.9 L477.3 197.3 M470.9 197.3 L477.3 190.9" stroke="#e0556b" stroke-width="1.6"/>
<path d="M496.9 164.6 L503.3 171.0 M496.9 171.0 L503.3 164.6" stroke="#e0556b" stroke-width="1.6"/>
<circle cx="505.0" cy="152.9" r="3.4" fill="#2ec26b" opacity="0.85"/>
<path d="M449.0 91.3 L455.4 97.7 M449.0 97.7 L455.4 91.3" stroke="#e0556b" stroke-width="1.6"/>
<path d="M420.6 50.7 L427.0 57.1 M420.6 57.1 L427.0 50.7" stroke="#e0556b" stroke-width="1.6"/>
<path d="M493.6 145.4 L500.0 151.8 M493.6 151.8 L500.0 145.4" stroke="#e0556b" stroke-width="1.6"/>
<circle cx="504.1" cy="82.4" r="3.4" fill="#2ec26b" opacity="0.85"/>
<path d="M419.0 244.3 L425.4 250.7 M419.0 250.7 L425.4 244.3" stroke="#e0556b" stroke-width="1.6"/>
<path d="M481.5 212.3 L487.9 218.7 M481.5 218.7 L487.9 212.3" stroke="#e0556b" stroke-width="1.6"/>
<path d="M502.1 107.1 L508.5 113.5 M502.1 113.5 L508.5 107.1" stroke="#e0556b" stroke-width="1.6"/>
<circle cx="510.9" cy="60.5" r="3.4" fill="#2ec26b" opacity="0.85"/>
<path d="M442.8 165.5 L449.2 171.9 M442.8 171.9 L449.2 165.5" stroke="#e0556b" stroke-width="1.6"/>
<circle cx="508.8" cy="154.0" r="3.4" fill="#2ec26b" opacity="0.85"/>
<circle cx="454.1" cy="103.2" r="3.4" fill="#2ec26b" opacity="0.85"/>
<circle cx="522.3" cy="208.5" r="3.4" fill="#2ec26b" opacity="0.85"/>
<path d="M407.2 137.7 L413.6 144.1 M407.2 144.1 L413.6 137.7" stroke="#e0556b" stroke-width="1.6"/>
<circle cx="455.8" cy="230.6" r="3.4" fill="#2ec26b" opacity="0.85"/>
<circle cx="498.5" cy="75.3" r="3.4" fill="#2ec26b" opacity="0.85"/>
<path d="M414.1 56.4 L420.5 62.8 M414.1 62.8 L420.5 56.4" stroke="#e0556b" stroke-width="1.6"/>
<circle cx="371.1" cy="157.1" r="3.4" fill="#2ec26b" opacity="0.85"/>
<circle cx="450.6" cy="260.3" r="3.4" fill="#2ec26b" opacity="0.85"/>
<circle cx="466.8" cy="267.5" r="3.4" fill="#2ec26b" opacity="0.85"/>
<path d="M494.5 58.5 L500.9 64.9 M494.5 64.9 L500.9 58.5" stroke="#e0556b" stroke-width="1.6"/>
<circle cx="515.5" cy="129.4" r="3.4" fill="#2ec26b" opacity="0.85"/>
<circle cx="380.0" cy="190.6" r="3.4" fill="#2ec26b" opacity="0.85"/>
<path d="M490.4 77.0 L496.8 83.4 M490.4 83.4 L496.8 77.0" stroke="#e0556b" stroke-width="1.6"/>
<path d="M376.0 90.6 L382.4 97.0 M376.0 97.0 L382.4 90.6" stroke="#e0556b" stroke-width="1.6"/>
<circle cx="496.0" cy="96.6" r="3.4" fill="#2ec26b" opacity="0.85"/>
<circle cx="498.5" cy="227.6" r="3.4" fill="#2ec26b" opacity="0.85"/>
<circle cx="487.1" cy="157.1" r="3.4" fill="#2ec26b" opacity="0.85"/>
<circle cx="439.2" cy="266.8" r="3.4" fill="#2ec26b" opacity="0.85"/>
<circle cx="508.8" cy="154.0" r="3.4" fill="#2ec26b" opacity="0.85"/>
<path d="M513.9 33.6 L520.3 40.0 M513.9 40.0 L520.3 33.6" stroke="#e0556b" stroke-width="1.6"/>
<path d="M458.0 227.3 L464.4 233.7 M458.0 233.7 L464.4 227.3" stroke="#e0556b" stroke-width="1.6"/>
<circle cx="506.6" cy="153.6" r="3.4" fill="#2ec26b" opacity="0.85"/>
<path d="M489.9 134.1 L496.3 140.5 M489.9 140.5 L496.3 134.1" stroke="#e0556b" stroke-width="1.6"/>
<path d="M494.8 166.9 L501.2 173.3 M494.8 173.3 L501.2 166.9" stroke="#e0556b" stroke-width="1.6"/>
<path d="M491.5 55.1 L497.9 61.5 M491.5 61.5 L497.9 55.1" stroke="#e0556b" stroke-width="1.6"/>
<circle cx="498.0" cy="152.3" r="3.4" fill="#2ec26b" opacity="0.85"/>
<path d="M377.9 219.6 L384.3 226.0 M377.9 226.0 L384.3 219.6" stroke="#e0556b" stroke-width="1.6"/>
<path d="M389.3 94.3 L395.7 100.7 M389.3 100.7 L395.7 94.3" stroke="#e0556b" stroke-width="1.6"/>
<circle cx="476.9" cy="151.6" r="3.4" fill="#2ec26b" opacity="0.85"/>
<path d="M509.4 268.0 L515.8 274.4 M509.4 274.4 L515.8 268.0" stroke="#e0556b" stroke-width="1.6"/>
<path d="M445.3 65.8 L451.7 72.2 M445.3 72.2 L451.7 65.8" stroke="#e0556b" stroke-width="1.6"/>
<path d="M409.6 231.7 L416.0 238.1 M409.6 238.1 L416.0 231.7" stroke="#e0556b" stroke-width="1.6"/>
<circle cx="501.2" cy="236.3" r="3.4" fill="#2ec26b" opacity="0.85"/>
<circle cx="508.5" cy="159.4" r="3.4" fill="#2ec26b" opacity="0.85"/>
<circle cx="514.2" cy="61.2" r="3.4" fill="#2ec26b" opacity="0.85"/>
<circle cx="449.8" cy="133.6" r="3.4" fill="#2ec26b" opacity="0.85"/>
<circle cx="428.7" cy="213.4" r="3.4" fill="#2ec26b" opacity="0.85"/>
<path d="M381.7 203.8 L388.1 210.2 M381.7 210.2 L388.1 203.8" stroke="#e0556b" stroke-width="1.6"/>
<path d="M509.0 46.4 L515.4 52.8 M509.0 52.8 L515.4 46.4" stroke="#e0556b" stroke-width="1.6"/>
<path d="M488.8 149.0 L495.2 155.4 M488.8 155.4 L495.2 149.0" stroke="#e0556b" stroke-width="1.6"/>
<circle cx="503.3" cy="167.8" r="3.4" fill="#2ec26b" opacity="0.85"/>
<circle cx="402.7" cy="83.8" r="3.4" fill="#2ec26b" opacity="0.85"/>
<path d="M373.6 115.5 L380.0 121.9 M373.6 121.9 L380.0 115.5" stroke="#e0556b" stroke-width="1.6"/>
<path d="M485.5 161.1 L491.9 167.5 M485.5 167.5 L491.9 161.1" stroke="#e0556b" stroke-width="1.6"/>
<path d="M416.6 208.7 L423.0 215.1 M416.6 215.1 L423.0 208.7" stroke="#e0556b" stroke-width="1.6"/>
<path d="M494.5 115.5 L500.9 121.9 M494.5 121.9 L500.9 115.5" stroke="#e0556b" stroke-width="1.6"/>
<circle cx="496.0" cy="60.3" r="3.4" fill="#2ec26b" opacity="0.85"/>
<path d="M515.5 269.3 L521.9 275.7 M515.5 275.7 L521.9 269.3" stroke="#e0556b" stroke-width="1.6"/>
<path d="M461.2 146.8 L467.6 153.2 M461.2 153.2 L467.6 146.8" stroke="#e0556b" stroke-width="1.6"/>
<path d="M375.2 124.7 L381.6 131.1 M375.2 131.1 L381.6 124.7" stroke="#e0556b" stroke-width="1.6"/>
<circle cx="509.8" cy="145.0" r="3.4" fill="#2ec26b" opacity="0.85"/>
<circle cx="483.1" cy="127.2" r="3.4" fill="#2ec26b" opacity="0.85"/>
<path d="M487.1 56.4 L493.5 62.8 M487.1 62.8 L493.5 56.4" stroke="#e0556b" stroke-width="1.6"/>
<path d="M508.3 166.8 L514.7 173.2 M508.3 173.2 L514.7 166.8" stroke="#e0556b" stroke-width="1.6"/>
<circle cx="488.7" cy="73.8" r="3.4" fill="#2ec26b" opacity="0.85"/>
<path d="M378.5 94.9 L384.9 101.3 M378.5 101.3 L384.9 94.9" stroke="#e0556b" stroke-width="1.6"/>
<path d="M415.7 56.4 L422.1 62.8 M415.7 62.8 L422.1 56.4" stroke="#e0556b" stroke-width="1.6"/>
<path d="M491.2 175.3 L497.6 181.7 M491.2 181.7 L497.6 175.3" stroke="#e0556b" stroke-width="1.6"/>
<path d="M506.1 92.9 L512.5 99.3 M506.1 99.3 L512.5 92.9" stroke="#e0556b" stroke-width="1.6"/>
<circle cx="508.8" cy="154.0" r="3.4" fill="#2ec26b" opacity="0.85"/>
<circle cx="387.6" cy="108.2" r="3.4" fill="#2ec26b" opacity="0.85"/>
<circle cx="478.5" cy="266.2" r="3.4" fill="#2ec26b" opacity="0.85"/>
<path d="M503.7 240.9 L510.1 247.3 M503.7 247.3 L510.1 240.9" stroke="#e0556b" stroke-width="1.6"/>
<path d="M374.7 157.6 L381.1 164.0 M374.7 164.0 L381.1 157.6" stroke="#e0556b" stroke-width="1.6"/>
<path d="M380.4 197.5 L386.8 203.9 M380.4 203.9 L386.8 197.5" stroke="#e0556b" stroke-width="1.6"/>
<path d="M384.4 201.8 L390.8 208.2 M384.4 208.2 L390.8 201.8" stroke="#e0556b" stroke-width="1.6"/>
<path d="M395.0 178.3 L401.4 184.7 M395.0 184.7 L401.4 178.3" stroke="#e0556b" stroke-width="1.6"/>
<path d="M442.8 75.0 L449.2 81.4 M442.8 81.4 L449.2 75.0" stroke="#e0556b" stroke-width="1.6"/>
<path d="M498.0 80.0 L504.4 86.4 M498.0 86.4 L504.4 80.0" stroke="#e0556b" stroke-width="1.6"/>
<circle cx="510.2" cy="129.5" r="3.4" fill="#2ec26b" opacity="0.85"/>
<path d="M407.2 232.4 L413.6 238.8 M407.2 238.8 L413.6 232.4" stroke="#e0556b" stroke-width="1.6"/>
<path d="M511.0 164.0 L517.4 170.4 M511.0 170.4 L517.4 164.0" stroke="#e0556b" stroke-width="1.6"/>
<circle cx="519.1" cy="150.1" r="3.4" fill="#2ec26b" opacity="0.85"/>
<circle cx="494.7" cy="143.7" r="3.4" fill="#2ec26b" opacity="0.85"/>
<path d="M410.4 86.4 L416.8 92.8 M410.4 92.8 L416.8 86.4" stroke="#e0556b" stroke-width="1.6"/>
<circle cx="455.8" cy="245.6" r="3.4" fill="#2ec26b" opacity="0.85"/>
<path d="M377.9 203.2 L384.3 209.6 M377.9 209.6 L384.3 203.2" stroke="#e0556b" stroke-width="1.6"/>
<circle cx="493.6" cy="271.0" r="3.4" fill="#2ec26b" opacity="0.85"/>
<path d="M380.1 200.2 L386.5 206.6 M380.1 206.6 L386.5 200.2" stroke="#e0556b" stroke-width="1.6"/>
<circle cx="508.2" cy="164.3" r="3.4" fill="#2ec26b" opacity="0.85"/>
<path d="M504.2 84.2 L510.6 90.6 M504.2 90.6 L510.6 84.2" stroke="#e0556b" stroke-width="1.6"/>
<circle cx="509.0" cy="173.5" r="3.4" fill="#2ec26b" opacity="0.85"/>
<path d="M506.6 134.0 L513.0 140.4 M506.6 140.4 L513.0 134.0" stroke="#e0556b" stroke-width="1.6"/>
<path d="M411.7 242.2 L418.1 248.6 M411.7 248.6 L418.1 242.2" stroke="#e0556b" stroke-width="1.6"/>
<path d="M490.4 220.1 L496.8 226.5 M490.4 226.5 L496.8 220.1" stroke="#e0556b" stroke-width="1.6"/>
<circle cx="503.3" cy="162.1" r="3.4" fill="#2ec26b" opacity="0.85"/>
<circle cx="505.0" cy="137.2" r="3.4" fill="#2ec26b" opacity="0.85"/>
<circle cx="517.1" cy="81.7" r="3.4" fill="#2ec26b" opacity="0.85"/>
<circle cx="513.1" cy="130.1" r="3.4" fill="#2ec26b" opacity="0.85"/>
<path d="M501.3 74.3 L507.7 80.7 M501.3 80.7 L507.7 74.3" stroke="#e0556b" stroke-width="1.6"/>
<path d="M470.4 110.7 L476.8 117.1 M470.4 117.1 L476.8 110.7" stroke="#e0556b" stroke-width="1.6"/>
<circle cx="513.4" cy="128.8" r="3.4" fill="#2ec26b" opacity="0.85"/>
<path d="M502.9 126.3 L509.3 132.7 M502.9 132.7 L509.3 126.3" stroke="#e0556b" stroke-width="1.6"/>
<circle cx="515.8" cy="157.3" r="3.4" fill="#2ec26b" opacity="0.85"/>
<path d="M498.0 120.6 L504.4 127.0 M498.0 127.0 L504.4 120.6" stroke="#e0556b" stroke-width="1.6"/>
<circle cx="459.9" cy="43.4" r="3.4" fill="#2ec26b" opacity="0.85"/>
<circle cx="510.2" cy="134.5" r="3.4" fill="#2ec26b" opacity="0.85"/>
<path d="M513.5 31.6 L519.9 38.0 M513.5 38.0 L519.9 31.6" stroke="#e0556b" stroke-width="1.6"/>
<path d="M511.0 128.4 L517.4 134.8 M511.0 134.8 L517.4 128.4" stroke="#e0556b" stroke-width="1.6"/>
<circle cx="392.5" cy="177.2" r="3.4" fill="#2ec26b" opacity="0.85"/>
<path d="M513.5 198.9 L519.9 205.3 M513.5 205.3 L519.9 198.9" stroke="#e0556b" stroke-width="1.6"/>
<path d="M481.8 53.0 L488.2 59.4 M481.8 59.4 L488.2 53.0" stroke="#e0556b" stroke-width="1.6"/>
<circle cx="402.3" cy="225.6" r="3.4" fill="#2ec26b" opacity="0.85"/>
<circle cx="510.9" cy="130.9" r="3.4" fill="#2ec26b" opacity="0.85"/>
<path d="M509.4 265.8 L515.8 272.2 M509.4 272.2 L515.8 265.8" stroke="#e0556b" stroke-width="1.6"/>
<path d="M508.6 82.9 L515.0 89.3 M508.6 89.3 L515.0 82.9" stroke="#e0556b" stroke-width="1.6"/>
<path d="M511.0 169.0 L517.4 175.4 M511.0 175.4 L517.4 169.0" stroke="#e0556b" stroke-width="1.6"/>
<circle cx="520.7" cy="188.6" r="3.4" fill="#2ec26b" opacity="0.85"/>
<path d="M451.5 260.0 L457.9 266.4 M451.5 266.4 L457.9 260.0" stroke="#e0556b" stroke-width="1.6"/>
<circle cx="418.2" cy="142.2" r="3.4" fill="#2ec26b" opacity="0.85"/>
<circle cx="444.4" cy="48.4" r="3.4" fill="#2ec26b" opacity="0.85"/>
<path d="M505.3 179.7 L511.7 186.1 M505.3 186.1 L511.7 179.7" stroke="#e0556b" stroke-width="1.6"/>
<path d="M503.7 148.4 L510.1 154.8 M503.7 154.8 L510.1 148.4" stroke="#e0556b" stroke-width="1.6"/>
<path d="M423.4 244.5 L429.8 250.9 M423.4 250.9 L429.8 244.5" stroke="#e0556b" stroke-width="1.6"/>
<path d="M499.6 143.4 L506.0 149.8 M499.6 149.8 L506.0 143.4" stroke="#e0556b" stroke-width="1.6"/>
<circle cx="508.8" cy="154.0" r="3.4" fill="#2ec26b" opacity="0.85"/>
<circle cx="510.9" cy="151.6" r="3.4" fill="#2ec26b" opacity="0.85"/>
<circle cx="510.2" cy="256.2" r="3.4" fill="#2ec26b" opacity="0.85"/>
<circle cx="423.4" cy="91.1" r="3.4" fill="#2ec26b" opacity="0.85"/>
<circle cx="514.7" cy="158.6" r="3.4" fill="#2ec26b" opacity="0.85"/>
<circle cx="510.6" cy="152.2" r="3.4" fill="#2ec26b" opacity="0.85"/>
<path d="M383.3 119.0 L389.7 125.4 M383.3 125.4 L389.7 119.0" stroke="#e0556b" stroke-width="1.6"/>
<circle cx="429.5" cy="59.6" r="3.4" fill="#2ec26b" opacity="0.85"/>
<path d="M415.7 67.1 L422.1 73.5 M415.7 73.5 L422.1 67.1" stroke="#e0556b" stroke-width="1.6"/>
<circle cx="367.9" cy="127.9" r="3.4" fill="#2ec26b" opacity="0.85"/>
<circle cx="492.8" cy="154.3" r="3.4" fill="#2ec26b" opacity="0.85"/>
<circle cx="418.9" cy="190.6" r="3.4" fill="#2ec26b" opacity="0.85"/>
<path d="M473.4 153.9 L479.8 160.3 M473.4 160.3 L479.8 153.9" stroke="#e0556b" stroke-width="1.6"/>
<circle cx="508.8" cy="154.0" r="3.4" fill="#2ec26b" opacity="0.85"/>
<path d="M415.7 102.0 L422.1 108.4 M415.7 108.4 L422.1 102.0" stroke="#e0556b" stroke-width="1.6"/>
<circle cx="505.0" cy="152.2" r="3.4" fill="#2ec26b" opacity="0.85"/>
<path d="M513.1 41.5 L519.5 47.9 M513.1 47.9 L519.5 41.5" stroke="#e0556b" stroke-width="1.6"/>
<circle cx="457.4" cy="165.1" r="3.4" fill="#2ec26b" opacity="0.85"/>
<path d="M485.1 152.6 L491.5 159.0 M485.1 159.0 L491.5 152.6" stroke="#e0556b" stroke-width="1.6"/>
<circle cx="472.8" cy="74.0" r="3.4" fill="#2ec26b" opacity="0.85"/>
<circle cx="497.2" cy="34.8" r="3.4" fill="#2ec26b" opacity="0.85"/>
<path d="M494.0 66.5 L500.4 72.9 M494.0 72.9 L500.4 66.5" stroke="#e0556b" stroke-width="1.6"/>
<path d="M411.2 57.3 L417.6 63.7 M411.2 63.7 L417.6 57.3" stroke="#e0556b" stroke-width="1.6"/>
<path d="M501.3 74.3 L507.7 80.7 M501.3 80.7 L507.7 74.3" stroke="#e0556b" stroke-width="1.6"/>
<circle cx="416.9" cy="195.0" r="3.4" fill="#2ec26b" opacity="0.85"/>
<circle cx="381.1" cy="82.5" r="3.4" fill="#2ec26b" opacity="0.85"/>
<path d="M455.0 216.7 L461.4 223.1 M455.0 223.1 L461.4 216.7" stroke="#e0556b" stroke-width="1.6"/>
<circle cx="513.4" cy="36.3" r="3.4" fill="#2ec26b" opacity="0.85"/>
<circle cx="503.7" cy="159.4" r="3.4" fill="#2ec26b" opacity="0.85"/>
<path d="M498.8 226.0 L505.2 232.4 M498.8 232.4 L505.2 226.0" stroke="#e0556b" stroke-width="1.6"/>
<circle cx="485.0" cy="234.2" r="3.4" fill="#2ec26b" opacity="0.85"/>
<circle cx="486.6" cy="245.6" r="3.4" fill="#2ec26b" opacity="0.85"/>
<path d="M392.6 225.3 L399.0 231.7 M392.6 231.7 L399.0 225.3" stroke="#e0556b" stroke-width="1.6"/>
<circle cx="471.2" cy="70.4" r="3.4" fill="#2ec26b" opacity="0.85"/>
<circle cx="418.9" cy="211.9" r="3.4" fill="#2ec26b" opacity="0.85"/>
<circle cx="496.8" cy="88.1" r="3.4" fill="#2ec26b" opacity="0.85"/>
<path d="M498.5 57.8 L504.9 64.2 M498.5 64.2 L504.9 57.8" stroke="#e0556b" stroke-width="1.6"/>
<path d="M508.3 32.9 L514.7 39.3 M508.3 39.3 L514.7 32.9" stroke="#e0556b" stroke-width="1.6"/>
<path d="M506.6 36.5 L513.0 42.9 M506.6 42.9 L513.0 36.5" stroke="#e0556b" stroke-width="1.6"/>
<circle cx="508.8" cy="154.0" r="3.4" fill="#2ec26b" opacity="0.85"/>
<path d="M501.8 61.4 L508.2 67.8 M501.8 67.8 L508.2 61.4" stroke="#e0556b" stroke-width="1.6"/>
<path d="M504.2 33.6 L510.6 40.0 M504.2 40.0 L510.6 33.6" stroke="#e0556b" stroke-width="1.6"/>
<circle cx="515.8" cy="271.9" r="3.4" fill="#2ec26b" opacity="0.85"/>
<path d="M387.7 224.6 L394.1 231.0 M387.7 231.0 L394.1 224.6" stroke="#e0556b" stroke-width="1.6"/>
<path d="M511.8 188.2 L518.2 194.6 M511.8 194.6 L518.2 188.2" stroke="#e0556b" stroke-width="1.6"/>
<circle cx="510.9" cy="209.9" r="3.4" fill="#2ec26b" opacity="0.85"/>
<circle cx="523.6" cy="40.4" r="3.4" fill="#2ec26b" opacity="0.85"/>
<path d="M402.8 247.2 L409.2 253.6 M402.8 253.6 L409.2 247.2" stroke="#e0556b" stroke-width="1.6"/>
<path d="M403.9 143.4 L410.3 149.8 M403.9 149.8 L410.3 143.4" stroke="#e0556b" stroke-width="1.6"/>
<circle cx="503.7" cy="148.7" r="3.4" fill="#2ec26b" opacity="0.85"/>
<circle cx="500.4" cy="151.6" r="3.4" fill="#2ec26b" opacity="0.85"/>
<circle cx="510.2" cy="165.8" r="3.4" fill="#2ec26b" opacity="0.85"/>
<path d="M502.1 162.6 L508.5 169.0 M502.1 169.0 L508.5 162.6" stroke="#e0556b" stroke-width="1.6"/>
<path d="M501.3 148.4 L507.7 154.8 M501.3 154.8 L507.7 148.4" stroke="#e0556b" stroke-width="1.6"/>
<path d="M496.4 155.5 L502.8 161.9 M496.4 161.9 L502.8 155.5" stroke="#e0556b" stroke-width="1.6"/>
<path d="M501.3 145.5 L507.7 151.9 M501.3 151.9 L507.7 145.5" stroke="#e0556b" stroke-width="1.6"/>
<path d="M464.4 119.0 L470.8 125.4 M464.4 125.4 L470.8 119.0" stroke="#e0556b" stroke-width="1.6"/>
<path d="M376.8 162.5 L383.2 168.9 M376.8 168.9 L383.2 162.5" stroke="#e0556b" stroke-width="1.6"/>
<path d="M419.0 240.1 L425.4 246.5 M419.0 246.5 L425.4 240.1" stroke="#e0556b" stroke-width="1.6"/>
<path d="M370.3 157.5 L376.7 163.9 M370.3 163.9 L376.7 157.5" stroke="#e0556b" stroke-width="1.6"/>
<path d="M501.8 62.8 L508.2 69.2 M501.8 69.2 L508.2 62.8" stroke="#e0556b" stroke-width="1.6"/>
<path d="M448.2 217.3 L454.6 223.7 M448.2 223.7 L454.6 217.3" stroke="#e0556b" stroke-width="1.6"/>
<path d="M389.3 95.0 L395.7 101.4 M389.3 101.4 L395.7 95.0" stroke="#e0556b" stroke-width="1.6"/>
<path d="M471.2 161.9 L477.6 168.3 M471.2 168.3 L477.6 161.9" stroke="#e0556b" stroke-width="1.6"/>
<circle cx="415.3" cy="126.7" r="3.4" fill="#2ec26b" opacity="0.85"/>
<circle cx="516.7" cy="49.8" r="3.4" fill="#2ec26b" opacity="0.85"/>
<path d="M509.4 171.2 L515.8 177.6 M509.4 177.6 L515.8 171.2" stroke="#e0556b" stroke-width="1.6"/>
<circle cx="451.4" cy="259.6" r="3.4" fill="#2ec26b" opacity="0.85"/>
<path d="M376.0 189.5 L382.4 195.9 M376.0 195.9 L382.4 189.5" stroke="#e0556b" stroke-width="1.6"/>
<circle cx="419.3" cy="83.9" r="3.4" fill="#2ec26b" opacity="0.85"/>
<circle cx="514.2" cy="131.6" r="3.4" fill="#2ec26b" opacity="0.85"/>
<path d="M445.3 232.4 L451.7 238.8 M445.3 238.8 L451.7 232.4" stroke="#e0556b" stroke-width="1.6"/>
<circle cx="437.1" cy="54.8" r="3.4" fill="#2ec26b" opacity="0.85"/>
<circle cx="481.8" cy="164.4" r="3.4" fill="#2ec26b" opacity="0.85"/>
<path d="M456.3 261.4 L462.7 267.8 M456.3 267.8 L462.7 261.4" stroke="#e0556b" stroke-width="1.6"/>
<circle cx="376.0" cy="195.6" r="3.4" fill="#2ec26b" opacity="0.85"/>
<path d="M511.0 238.1 L517.4 244.5 M511.0 244.5 L517.4 238.1" stroke="#e0556b" stroke-width="1.6"/>
<circle cx="507.7" cy="37.7" r="3.4" fill="#2ec26b" opacity="0.85"/>
<path d="M508.6 225.3 L515.0 231.7 M508.6 231.7 L515.0 225.3" stroke="#e0556b" stroke-width="1.6"/>
<circle cx="488.3" cy="141.6" r="3.4" fill="#2ec26b" opacity="0.85"/>
<circle cx="472.0" cy="205.7" r="3.4" fill="#2ec26b" opacity="0.85"/>
<path d="M380.1 181.7 L386.5 188.1 M380.1 188.1 L386.5 181.7" stroke="#e0556b" stroke-width="1.6"/>
<circle cx="510.6" cy="39.7" r="3.4" fill="#2ec26b" opacity="0.85"/>
<circle cx="376.8" cy="140.8" r="3.4" fill="#2ec26b" opacity="0.85"/>
<circle cx="442.5" cy="51.8" r="3.4" fill="#2ec26b" opacity="0.85"/>
<circle cx="500.9" cy="36.8" r="3.4" fill="#2ec26b" opacity="0.85"/>
<circle cx="408.4" cy="258.9" r="3.4" fill="#2ec26b" opacity="0.85"/>
<path d="M398.2 213.9 L404.6 220.3 M398.2 220.3 L404.6 213.9" stroke="#e0556b" stroke-width="1.6"/>
<circle cx="457.4" cy="184.3" r="3.4" fill="#2ec26b" opacity="0.85"/>
<path d="M455.0 41.6 L461.4 48.0 M455.0 48.0 L461.4 41.6" stroke="#e0556b" stroke-width="1.6"/>
<circle cx="505.3" cy="189.3" r="3.4" fill="#2ec26b" opacity="0.85"/>
<path d="M450.9 172.6 L457.3 179.0 M450.9 179.0 L457.3 172.6" stroke="#e0556b" stroke-width="1.6"/>
<circle cx="515.8" cy="154.4" r="3.4" fill="#2ec26b" opacity="0.85"/>
<circle cx="461.5" cy="212.1" r="3.4" fill="#2ec26b" opacity="0.85"/>
<circle cx="410.8" cy="239.0" r="3.4" fill="#2ec26b" opacity="0.85"/>
<circle cx="510.6" cy="167.1" r="3.4" fill="#2ec26b" opacity="0.85"/>
<path d="M507.4 133.3 L513.8 139.7 M507.4 139.7 L513.8 133.3" stroke="#e0556b" stroke-width="1.6"/>
<circle cx="519.6" cy="271.7" r="3.4" fill="#2ec26b" opacity="0.85"/>
<path d="M362.5 100.0 L368.9 106.4 M362.5 106.4 L368.9 100.0" stroke="#e0556b" stroke-width="1.6"/>
<path d="M494.8 113.5 L501.2 119.9 M494.8 119.9 L501.2 113.5" stroke="#e0556b" stroke-width="1.6"/>
<path d="M508.6 34.5 L515.0 40.9 M508.6 40.9 L515.0 34.5" stroke="#e0556b" stroke-width="1.6"/>
<circle cx="485.8" cy="33.4" r="3.4" fill="#2ec26b" opacity="0.85"/>
<path d="M476.1 168.3 L482.5 174.7 M476.1 174.7 L482.5 168.3" stroke="#e0556b" stroke-width="1.6"/>
<circle cx="429.8" cy="257.6" r="3.4" fill="#2ec26b" opacity="0.85"/>
<circle cx="372.7" cy="190.6" r="3.4" fill="#2ec26b" opacity="0.85"/>
<path d="M396.3 66.4 L402.7 72.8 M396.3 72.8 L402.7 66.4" stroke="#e0556b" stroke-width="1.6"/>
<path d="M463.6 270.0 L470.0 276.4 M463.6 276.4 L470.0 270.0" stroke="#e0556b" stroke-width="1.6"/>
<path d="M425.5 259.3 L431.9 265.7 M425.5 265.7 L431.9 259.3" stroke="#e0556b" stroke-width="1.6"/>
<circle cx="503.3" cy="166.4" r="3.4" fill="#2ec26b" opacity="0.85"/>
<path d="M505.8 123.3 L512.2 129.7 M505.8 129.7 L512.2 123.3" stroke="#e0556b" stroke-width="1.6"/>
<path d="M499.3 154.7 L505.7 161.1 M499.3 161.1 L505.7 154.7" stroke="#e0556b" stroke-width="1.6"/>
<path d="M421.5 55.0 L427.9 61.4 M421.5 61.4 L427.9 55.0" stroke="#e0556b" stroke-width="1.6"/>
<path d="M373.6 157.5 L380.0 163.9 M373.6 163.9 L380.0 157.5" stroke="#e0556b" stroke-width="1.6"/>
<path d="M500.1 60.0 L506.5 66.4 M500.1 66.4 L506.5 60.0" stroke="#e0556b" stroke-width="1.6"/>
<circle cx="390.9" cy="205.7" r="3.4" fill="#2ec26b" opacity="0.85"/>
<path d="M524.0 32.3 L530.4 38.7 M524.0 38.7 L530.4 32.3" stroke="#e0556b" stroke-width="1.6"/>
<path d="M367.4 149.1 L373.8 155.5 M367.4 155.5 L373.8 149.1" stroke="#e0556b" stroke-width="1.6"/>
<path d="M501.3 148.4 L507.7 154.8 M501.3 154.8 L507.7 148.4" stroke="#e0556b" stroke-width="1.6"/>
<path d="M409.6 228.1 L416.0 234.5 M409.6 234.5 L416.0 228.1" stroke="#e0556b" stroke-width="1.6"/>
<path d="M498.8 78.6 L505.2 85.0 M498.8 85.0 L505.2 78.6" stroke="#e0556b" stroke-width="1.6"/>
<circle cx="509.3" cy="151.6" r="3.4" fill="#2ec26b" opacity="0.85"/>
<circle cx="510.2" cy="152.3" r="3.4" fill="#2ec26b" opacity="0.85"/>
<circle cx="377.9" cy="154.4" r="3.4" fill="#2ec26b" opacity="0.85"/>
<circle cx="510.9" cy="150.1" r="3.4" fill="#2ec26b" opacity="0.85"/>
<circle cx="470.4" cy="39.1" r="3.4" fill="#2ec26b" opacity="0.85"/>
<path d="M516.7 30.9 L523.1 37.3 M516.7 37.3 L523.1 30.9" stroke="#e0556b" stroke-width="1.6"/>
<circle cx="520.7" cy="36.3" r="3.4" fill="#2ec26b" opacity="0.85"/>
<circle cx="499.6" cy="151.6" r="3.4" fill="#2ec26b" opacity="0.85"/>
<path d="M392.6 80.7 L399.0 87.1 M392.6 87.1 L399.0 80.7" stroke="#e0556b" stroke-width="1.6"/>
<path d="M498.0 153.4 L504.4 159.8 M498.0 159.8 L504.4 153.4" stroke="#e0556b" stroke-width="1.6"/>
<circle cx="514.7" cy="158.6" r="3.4" fill="#2ec26b" opacity="0.85"/>
<circle cx="498.5" cy="100.2" r="3.4" fill="#2ec26b" opacity="0.85"/>
<path d="M436.9 209.5 L443.3 215.9 M436.9 215.9 L443.3 209.5" stroke="#e0556b" stroke-width="1.6"/>
<path d="M487.1 74.9 L493.5 81.3 M487.1 81.3 L493.5 74.9" stroke="#e0556b" stroke-width="1.6"/>
<path d="M510.2 231.0 L516.6 237.4 M510.2 237.4 L516.6 231.0" stroke="#e0556b" stroke-width="1.6"/>
<circle cx="369.0" cy="150.1" r="3.4" fill="#2ec26b" opacity="0.85"/>
<circle cx="514.2" cy="80.4" r="3.4" fill="#2ec26b" opacity="0.85"/>
<circle cx="501.2" cy="161.5" r="3.4" fill="#2ec26b" opacity="0.85"/>
<circle cx="510.9" cy="220.6" r="3.4" fill="#2ec26b" opacity="0.85"/>
<circle cx="489.9" cy="171.5" r="3.4" fill="#2ec26b" opacity="0.85"/>
<path d="M507.0 148.4 L513.4 154.8 M507.0 154.8 L513.4 148.4" stroke="#e0556b" stroke-width="1.6"/>
<circle cx="504.1" cy="165.7" r="3.4" fill="#2ec26b" opacity="0.85"/>
<circle cx="396.3" cy="236.2" r="3.4" fill="#2ec26b" opacity="0.85"/>
<path d="M406.0 112.6 L412.4 119.0 M406.0 119.0 L412.4 112.6" stroke="#e0556b" stroke-width="1.6"/>
<path d="M496.1 235.8 L502.5 242.2 M496.1 242.2 L502.5 235.8" stroke="#e0556b" stroke-width="1.6"/>
<path d="M380.1 190.2 L386.5 196.6 M380.1 196.6 L386.5 190.2" stroke="#e0556b" stroke-width="1.6"/>
<path d="M367.1 181.7 L373.5 188.1 M367.1 188.1 L373.5 181.7" stroke="#e0556b" stroke-width="1.6"/>
<path d="M432.0 148.2 L438.4 154.6 M432.0 154.6 L438.4 148.2" stroke="#e0556b" stroke-width="1.6"/>
<circle cx="388.2" cy="79.5" r="3.4" fill="#2ec26b" opacity="0.85"/>
<path d="M511.0 227.4 L517.4 233.8 M511.0 233.8 L517.4 227.4" stroke="#e0556b" stroke-width="1.6"/>
<circle cx="379.5" cy="180.1" r="3.4" fill="#2ec26b" opacity="0.85"/>
<circle cx="488.3" cy="135.9" r="3.4" fill="#2ec26b" opacity="0.85"/>
<circle cx="510.9" cy="88.2" r="3.4" fill="#2ec26b" opacity="0.85"/>
<path d="M481.0 216.7 L487.4 223.1 M481.0 223.1 L487.4 216.7" stroke="#e0556b" stroke-width="1.6"/>
<circle cx="404.7" cy="239.2" r="3.4" fill="#2ec26b" opacity="0.85"/>
<path d="M443.7 60.8 L450.1 67.2 M443.7 67.2 L450.1 60.8" stroke="#e0556b" stroke-width="1.6"/>
<path d="M498.8 172.6 L505.2 179.0 M498.8 179.0 L505.2 172.6" stroke="#e0556b" stroke-width="1.6"/>
<circle cx="387.6" cy="88.2" r="3.4" fill="#2ec26b" opacity="0.85"/>
<path d="M377.9 99.3 L384.3 105.7 M377.9 105.7 L384.3 99.3" stroke="#e0556b" stroke-width="1.6"/>
<circle cx="496.4" cy="143.0" r="3.4" fill="#2ec26b" opacity="0.85"/>
<circle cx="411.7" cy="73.1" r="3.4" fill="#2ec26b" opacity="0.85"/>
<circle cx="487.1" cy="99.5" r="3.4" fill="#2ec26b" opacity="0.85"/>
<path d="M483.9 72.1 L490.3 78.5 M483.9 78.5 L490.3 72.1" stroke="#e0556b" stroke-width="1.6"/>
<circle cx="486.3" cy="170.7" r="3.4" fill="#2ec26b" opacity="0.85"/>
<path d="M390.6 220.9 L397.0 227.3 M390.6 227.3 L397.0 220.9" stroke="#e0556b" stroke-width="1.6"/>
<path d="M412.5 238.6 L418.9 245.0 M412.5 245.0 L418.9 238.6" stroke="#e0556b" stroke-width="1.6"/>
<path d="M488.8 169.6 L495.2 176.0 M488.8 176.0 L495.2 169.6" stroke="#e0556b" stroke-width="1.6"/>
<circle cx="483.8" cy="162.1" r="3.4" fill="#2ec26b" opacity="0.85"/>
<path d="M477.4 193.1 L483.8 199.5 M477.4 199.5 L483.8 193.1" stroke="#e0556b" stroke-width="1.6"/>
<circle cx="479.8" cy="96.6" r="3.4" fill="#2ec26b" opacity="0.85"/>
<path d="M453.9 144.0 L460.3 150.4 M453.9 150.4 L460.3 144.0" stroke="#e0556b" stroke-width="1.6"/>
</svg>