<svg xmlns="http://www.w3.org/2000/svg" width="560" height="300" font-family="sans-serif">
<rect x="0" y="0" width="560" height="300" fill="#1b1b1b"/>
<text x="20" y="16" fill="#ddd" font-size="13">E. Weaver (DSC) — 202 tiros, Clasificatorio</text>
<rect x="20" y="28" width="520" height="252" fill="none" stroke="#555"/>
<circle cx="379.2" cy="170.7" r="3.4" fill="#2ec26b" opacity="0.85"/>
<path d="M512.3 151.1 L518.7 157.5 M512.3 157.5 L518.7 151.1" stroke="#e0556b" stroke-width="1.6"/>
<path d="M504.2 209.5 L510.6 215.9 M504.2 215.9 L510.6 209.5" stroke="#e0556b" stroke-width="1.6"/>
<circle cx="509.3" cy="155.1" r="3.4" fill="#2ec26b" opacity="0.85"/>
<circle cx="402.3" cy="224.9" r="3.4" fill="#2ec26b" opacity="0.85"/>
<circle cx="514.2" cy="146.6" r="3.4" fill="#2ec26b" opacity="0.85"/>
<path d="M527.2 268.0 L533.6 274.4 M527.2 274.4 L533.6 268.0" stroke="#e0556b" stroke-width="1.6"/>
<circle cx="509.0" cy="157.1" r="3.4" fill="#2ec26b" opacity="0.85"/>
<circle cx="372.7" cy="105.9" r="3.4" fill="#2ec26b" opacity="0.85"/>
<circle cx="496.8" cy="166.4" r="3.4" fill="#2ec26b" opacity="0.85"/>
<path d="M447.4 163.2 L453.8 169.6 M447.4 169.6 L453.8 163.2" stroke="#e0556b" stroke-width="1.6"/>
<circle cx="493.6" cy="126.5" r="3.4" fill="#2ec26b" opacity="0.85"/>
<circle cx="497.7" cy="144.3" r="3.4" fill="#2ec26b" opacity="0.85"/>
<path d="M509.0 202.3 L515.4 208.7 M509.0 208.7 L515.4 202.3" stroke="#e0556b" stroke-width="1.6"/>
<circle cx="418.5" cy="256.2" r="3.4" fill="#2ec26b" opacity="0.85"/>
<circle cx="468.8" cy="209.9" r="3.4" fill="#2ec26b" opacity="0.85"/>
<circle cx="384.4" cy="76.1" r="3.4" fill="#2ec26b" opacity="0.85"/>
<circle cx="355.2" cy="116.0" r="3.4" fill="#2ec26b" opacity="0.85"/>
<path d="M354.4 102.8 L360.8 109.2 M354.4 109.2 L360.8 102.8" stroke="#e0556b" stroke-width="1.6"/>
<circle cx="506.9" cy="168.7" r="3.4" fill="#2ec26b" opacity="0.85"/>
<path d="M520.0 207.5 L526.4 213.9 M520.0 213.9 L526.4 207.5" stroke="#e0556b" stroke-width="1.6"/>
<path d="M500.1 169.6 L506.5 176.0 M500.1 176.0 L506.5 169.6" stroke="#e0556b" stroke-width="1.6"/>
<circle cx="518.0" cy="136.5" r="3.4" fill="#2ec26b" opacity="0.85"/>
<path d="M448.2 264.3 L454.6 270.7 M448.2 270.7 L454.6 264.3" stroke="#e0556b" stroke-width="1.6"/>
<circle cx="508.2" cy="170.7" r="3.4" fill="#2ec26b" opacity="0.85"/>
<circle cx="375.2" cy="132.2" r="3.4" fill="#2ec26b" opacity="0.85"/>
<circle cx="465.5" cy="42.0" r="3.4" fill="#2ec26b" opacity="0.85"/>
<circle cx="510.9" cy="153.7" r="3.4" fill="#2ec26b" opacity="0.85"/>
<circle cx="482.5" cy="271.9" r="3.4" fill="#2ec26b" opacity="0.85"/>
<circle cx="508.5" cy="141.6" r="3.4" fill="#2ec26b" opacity="0.85"/>
<path d="M383.7 96.4 L390.1 102.8 M383.7 102.8 L390.1 96.4" stroke="#e0556b" stroke-width="1.6"/>
<circle cx="507.7" cy="143.7" r="3.4" fill="#2ec26b" opacity="0.85"/>
<path d="M395.0 169.0 L401.4 175.4 M395.0 175.4 L401.4 169.0" stroke="#e0556b" stroke-width="1.6"/>
<circle cx="507.7" cy="137.3" r="3.4" fill="#2ec26b" opacity="0.85"/>
<circle cx="499.6" cy="145.9" r="3.4" fill="#2ec26b" opacity="0.85"/>
<path d="M500.5 129.2 L506.9 135.6 M500.5 135.6 L506.9 129.2" stroke="#e0556b" stroke-width="1.6"/>
<path d="M398.2 215.3 L404.6 221.7 M398.2 221.7 L404.6 215.3" stroke="#e0556b" stroke-width="1.6"/>
<circle cx="504.5" cy="37.0" r="3.4" fill="#2ec26b" opacity="0.85"/>
<circle cx="395.0" cy="228.5" r="3.4" fill="#2ec26b" opacity="0.85"/>
<circle cx="501.7" cy="140.0" r="3.4" fill="#2ec26b" opacity="0.85"/>
<circle cx="418.2" cy="244.7" r="3.4" fill="#2ec26b" opacity="0.85"/>
<circle cx="407.6" cy="242.6" r="3.4" fill="#2ec26b" opacity="0.85"/>
<path d="M509.9 163.9 L516.3 170.3 M509.9 170.3 L516.3 163.9" stroke="#e0556b" stroke-width="1.6"/>
<circle cx="502.5" cy="163.6" r="3.4" fill="#2ec26b" opacity="0.85"/>
<path d="M429.6 73.5 L436.0 79.9 M429.6 79.9 L436.0 73.5" stroke="#e0556b" stroke-width="1.6"/>
<path d="M475.0 34.4 L481.4 40.8 M475.0 40.8 L481.4 34.4" stroke="#e0556b" stroke-width="1.6"/>
<path d="M419.0 150.4 L425.4 156.8 M419.0 156.8 L425.4 150.4" stroke="#e0556b" stroke-width="1.6"/>
<circle cx="516.3" cy="182.8" r="3.4" fill="#2ec26b" opacity="0.85"/>
<path d="M425.5 124.7 L431.9 131.1 M425.5 131.1 L431.9 124.7" stroke="#e0556b" stroke-width="1.6"/>
<circle cx="513.1" cy="110.9" r="3.4" fill="#2ec26b" opacity="0.85"/>
<circle cx="449.8" cy="44.7" r="3.4" fill="#2ec26b" opacity="0.85"/>
<path d="M496.9 205.2 L503.3 211.6 M496.9 211.6 L503.3 205.2" stroke="#e0556b" stroke-width="1.6"/>
<circle cx="414.1" cy="68.8" r="3.4" fill="#2ec26b" opacity="0.85"/>
<circle cx="382.4" cy="113.0" r="3.4" fill="#2ec26b" opacity="0.85"/>
<circle cx="523.2" cy="274.0" r="3.4" fill="#2ec26b" opacity="0.85"/>
<circle cx="515.8" cy="182.9" r="3.4" fill="#2ec26b" opacity="0.85"/>
<circle cx="489.9" cy="154.4" r="3.4" fill="#2ec26b" opacity="0.85"/>
<circle cx="467.8" cy="213.8" r="3.4" fill="#2ec26b" opacity="0.85"/>
<circle cx="478.3" cy="271.5" r="3.4" fill="#2ec26b" opacity="0.85"/>
<circle cx="492.9" cy="129.1" r="3.4" fill="#2ec26b" opacity="0.85"/>
<path d="M390.0 219.1 L396.4 225.5 M390.0 225.5 L396.4 219.1" stroke="#e0556b" stroke-width="1.6"/>
<path d="M374.6 185.0 L381.0 191.4 M374.6 191.4 L381.0 185.0" stroke="#e0556b" stroke-width="1.6"/>
<path d="M424.8 248.3 L431.2 254.7 M424.8 254.7 L431.2 248.3" stroke="#e0556b" stroke-width="1.6"/>
<path d="M484.1 115.2 L490.5 121.6 M484.1 121.6 L490.5 115.2" stroke="#e0556b" stroke-width="1.6"/>
<circle cx="381.8" cy="200.3" r="3.4" fill="#2ec26b" opacity="0.85"/>
<circle cx="484.0" cy="270.8" r="3.4" fill="#2ec26b" opacity="0.85"/>
<path d="M480.8 130.9 L487.2 137.3 M480.8 137.3 L487.2 130.9" stroke="#e0556b" stroke-width="1.6"/>
<path d="M378.6 110.9 L385.0 117.3 M378.6 117.3 L385.0 110.9" stroke="#e0556b" stroke-width="1.6"/>
<path d="M476.0 133.7 L482.4 140.1 M476.0 140.1 L482.4 133.7" stroke="#e0556b" stroke-width="1.6"/>
<circle cx="490.5" cy="269.3" r="3.4" fill="#2ec26b" opacity="0.85"/>
<path d="M377.8 108.8 L384.2 115.2 M377.8 115.2 L384.2 108.8" stroke="#e0556b" stroke-width="1.6"/>
<path d="M446.0 117.3 L452.4 123.7 M446.0 123.7 L452.4 117.3" stroke="#e0556b" stroke-width="1.6"/>
<circle cx="506.7" cy="169.6" r="3.4" fill="#2ec26b" opacity="0.85"/>
<circle cx="517.3" cy="146.2" r="3.4" fill="#2ec26b" opacity="0.85"/>
<circle cx="518.1" cy="36.5" r="3.4" fill="#2ec26b" opacity="0.85"/>
<circle cx="522.2" cy="144.0" r="3.4" fill="#2ec26b" opacity="0.85"/>
<circle cx="507.6" cy="144.8" r="3.4" fill="#2ec26b" opacity="0.85"/>
<circle cx="511.6" cy="144.0" r="3.4" fill="#2ec26b" opacity="0.85"/>
<circle cx="520.6" cy="148.3" r="3.4" fill="#2ec26b" opacity="0.85"/>
<path d="M451.6 197.1 L458.0 203.5 M451.6 203.5 L458.0 197.1" stroke="#e0556b" stroke-width="1.6"/>
<circle cx="514.8" cy="136.2" r="3.4" fill="#2ec26b" opacity="0.85"/>
<path d="M364.0 140.8 L370.4 147.2 M364.0 147.2 L370.4 140.8" stroke="#e0556b" stroke-width="1.6"/>
<path d="M378.6 120.9 L385.0 127.3 M378.6 127.3 L385.0 120.9" stroke="#e0556b" stroke-width="1.6"/>
<circle cx="518.9" cy="159.0" r="3.4" fill="#2ec26b" opacity="0.85"/>
<circle cx="517.3" cy="149.0" r="3.4" fill="#2ec26b" opacity="0.85"/>
<path d="M452.5 44.7 L458.9 51.1 M452.5 51.1 L458.9 44.7" stroke="#e0556b" stroke-width="1.6"/>
<circle cx="471.0" cy="42.2" r="3.4" fill="#2ec26b" opacity="0.85"/>
<circle cx="516.5" cy="147.6" r="3.4" fill="#2ec26b" opacity="0.85"/>
<circle cx="500.1" cy="162.8" r="3.4" fill="#2ec26b" opacity="0.85"/>
<path d="M406.0 47.9 L412.4 54.3 M406.0 54.3 L412.4 47.9" stroke="#e0556b" stroke-width="1.6"/>
<circle cx="501.7" cy="155.0" r="3.4" fill="#2ec26b" opacity="0.85"/>
<path d="M393.9 229.4 L400.3 235.8 M393.9 235.8 L400.3 229.4" stroke="#e0556b" stroke-width="1.6"/>
<circle cx="376.8" cy="125.1" r="3.4" fill="#2ec26b" opacity="0.85"/>
<path d="M363.0 247.2 L369.4 253.6 M363.0 253.6 L369.4 247.2" stroke="#e0556b" stroke-width="1.6"/>
<path d="M379.2 96.3 L385.6 102.7 M379.2 102.7 L385.6 96.3" stroke="#e0556b" stroke-width="1.6"/>
<circle cx="499.6" cy="154.4" r="3.4" fill="#2ec26b" opacity="0.85"/>
<path d="M522.3 267.2 L528.7 273.6 M522.3 273.6 L528.7 267.2" stroke="#e0556b" stroke-width="1.6"/>
<circle cx="372.2" cy="108.9" r="3.4" fill="#2ec26b" opacity="0.85"/>
<circle cx="491.5" cy="180.1" r="3.4" fill="#2ec26b" opacity="0.85"/>
<circle cx="459.0" cy="180.1" r="3.4" fill="#2ec26b" opacity="0.85"/>
<path d="M413.7 39.5 L420.1 45.9 M413.7 45.9 L420.1 39.5" stroke="#e0556b" stroke-width="1.6"/>
<circle cx="520.6" cy="35.1" r="3.4" fill="#2ec26b" opacity="0.85"/>
<path d="M389.2 78.2 L395.6 84.6 M389.2 84.6 L395.6 78.2" stroke="#e0556b" stroke-width="1.6"/>
<circle cx="514.8" cy="162.5" r="3.4" fill="#2ec26b" opacity="0.85"/>
<circle cx="522.9" cy="272.2" r="3.4" fill="#2ec26b" opacity="0.85"/>
<path d="M396.5 236.2 L402.9 242.6 M396.5 242.6 L402.9 236.2" stroke="#e0556b" stroke-width="1.6"/>
<circle cx="514.1" cy="182.5" r="3.4" fill="#2ec26b" opacity="0.85"/>
<path d="M425.7 49.0 L432.1 55.4 M425.7 55.4 L432.1 49.0" stroke="#e0556b" stroke-width="1.6"/>
<circle cx="458.9" cy="154.0" r="3.4" fill="#2ec26b" opacity="0.85"/>
<circle cx="398.0" cy="244.4" r="3.4" fill="#2ec26b" opacity="0.85"/>
<path d="M413.5 128.7 L419.9 135.1 M413.5 135.1 L419.9 128.7" stroke="#e0556b" stroke-width="1.6"/>
<path d="M493.0 171.4 L499.4 177.8 M493.0 177.8 L499.4 171.4" stroke="#e0556b" stroke-width="1.6"/>
<path d="M396.5 76.8 L402.9 83.2 M396.5 83.2 L402.9 76.8" stroke="#e0556b" stroke-width="1.6"/>
<circle cx="440.9" cy="256.1" r="3.4" fill="#2ec26b" opacity="0.85"/>
<circle cx="509.0" cy="162.8" r="3.4" fill="#2ec26b" opacity="0.85"/>
<circle cx="502.5" cy="164.3" r="3.4" fill="#2ec26b" opacity="0.85"/>
<path d="M495.3 116.9 L501.7 123.3 M495.3 123.3 L501.7 116.9" stroke="#e0556b" stroke-width="1.6"/>
<path d="M413.4 62.1 L419.8 68.5 M413.4 68.5 L419.8 62.1" stroke="#e0556b" stroke-width="1.6"/>
<path d="M500.1 32.2 L506.5 38.6 M500.1 38.6 L506.5 32.2" stroke="#e0556b" stroke-width="1.6"/>
<path d="M485.5 167.5 L491.9 173.9 M485.5 173.9 L491.9 167.5" stroke="#e0556b" stroke-width="1.6"/>
<circle cx="438.8" cy="170.8" r="3.4" fill="#2ec26b" opacity="0.85"/>
<circle cx="392.5" cy="159.4" r="3.4" fill="#2ec26b" opacity="0.85"/>
<path d="M376.3 166.9 L382.7 173.3 M376.3 173.3 L382.7 166.9" stroke="#e0556b" stroke-width="1.6"/>
<circle cx="510.2" cy="164.4" r="3.4" fill="#2ec26b" opacity="0.85"/>
<path d="M390.9 208.9 L397.3 215.3 M390.9 215.3 L397.3 208.9" stroke="#e0556b" stroke-width="1.6"/>
<circle cx="472.0" cy="237.0" r="3.4" fill="#2ec26b" opacity="0.85"/>
<circle cx="492.3" cy="158.7" r="3.4" fill="#2ec26b" opacity="0.85"/>
<circle cx="504.5" cy="149.4" r="3.4" fill="#2ec26b" opacity="0.85"/>
<circle cx="400.6" cy="159.4" r="3.4" fill="#2ec26b" opacity="0.85"/>
<path d="M498.8 154.8 L505.2 161.2 M498.8 161.2 L505.2 154.8" stroke="#e0556b" stroke-width="1.6"/>
<circle cx="361.7" cy="170.8" r="3.4" fill="#2ec26b" opacity="0.85"/>
<path d="M374.7 79.3 L381.1 85.7 M374.7 85.7 L381.1 79.3" stroke="#e0556b" stroke-width="1.6"/>
<path d="M360.9 141.2 L367.3 147.6 M360.9 147.6 L367.3 141.2" stroke="#e0556b" stroke-width="1.6"/>
<circle cx="507.4" cy="155.0" r="3.4" fill="#2ec26b" opacity="0.85"/>
<circle cx="384.1" cy="78.8" r="3.4" fill="#2ec26b" opacity="0.85"/>
<path d="M387.4 230.8 L393.8 237.2 M387.4 237.2 L393.8 230.8" stroke="#e0556b" stroke-width="1.6"/>
<path d="M496.1 150.4 L502.5 156.8 M496.1 156.8 L502.5 150.4" stroke="#e0556b" stroke-width="1.6"/>
<path d="M506.6 141.8 L513.0 148.2 M506.6 148.2 L513.0 141.8" stroke="#e0556b" stroke-width="1.6"/>
<path d="M363.8 112.6 L370.2 119.0 M363.8 119.0 L370.2 112.6" stroke="#e0556b" stroke-width="1.6"/>
<path d="M496.9 150.4 L503.3 156.8 M496.9 156.8 L503.3 150.4" stroke="#e0556b" stroke-width="1.6"/>
<circle cx="493.6" cy="161.4" r="3.4" fill="#2ec26b" opacity="0.85"/>
<circle cx="499.2" cy="158.0" r="3.4" fill="#2ec26b" opacity="0.85"/>
<circle cx="493.5" cy="155.2" r="3.4" fill="#2ec26b" opacity="0.85"/>
<path d="M467.3 176.4 L473.7 182.8 M467.3 182.8 L473.7 176.4" stroke="#e0556b" stroke-width="1.6"/>
<circle cx="498.3" cy="158.8" r="3.4" fill="#2ec26b" opacity="0.85"/>
<path d="M500.1 126.2 L506.5 132.6 M500.1 132.6 L506.5 126.2" stroke="#e0556b" stroke-width="1.6"/>
<circle cx="427.9" cy="126.5" r="3.4" fill="#2ec26b" opacity="0.85"/>
<path d="M389.8 61.4 L396.2 67.8 M389.8 67.8 L396.2 61.4" stroke="#e0556b" stroke-width="1.6"/>
<path d="M406.9 60.0 L413.3 66.4 M406.9 66.4 L413.3 60.0" stroke="#e0556b" stroke-width="1.6"/>
<path d="M361.4 190.2 L367.8 196.6 M361.4 196.6 L367.8 190.2" stroke="#e0556b" stroke-width="1.6"/>
<circle cx="489.6" cy="136.5" r="3.4" fill="#2ec26b" opacity="0.85"/>
<circle cx="496.8" cy="138.6" r="3.4" fill="#2ec26b" opacity="0.85"/>
<path d="M500.9 114.8 L507.3 121.2 M500.9 121.2 L507.3 114.8" stroke="#e0556b" stroke-width="1.6"/>
<path d="M361.7 139.8 L368.1 146.2 M361.7 146.2 L368.1 139.8" stroke="#e0556b" stroke-width="1.6"/>
<circle cx="503.7" cy="185.8" r="3.4" fill="#2ec26b" opacity="0.85"/>
<path d="M498.0 196.8 L504.4 203.2 M498.0 203.2 L504.4 196.8" stroke="#e0556b" stroke-width="1.6"/>
<circle cx="507.7" cy="148.7" r="3.4" fill="#2ec26b" opacity="0.85"/>
<path d="M515.9 30.9 L522.3 37.3 M515.9 37.3 L522.3 30.9" stroke="#e0556b" stroke-width="1.6"/>
<circle cx="502.8" cy="148.7" r="3.4" fill="#2ec26b" opacity="0.85"/>
<circle cx="498.0" cy="155.8" r="3.4" fill="#2ec26b" opacity="0.85"/>
<path d="M355.3 135.6 L361.7 142.0 M355.3 142.0 L361.7 135.6" stroke="#e0556b" stroke-width="1.6"/>
<circle cx="386.9" cy="216.4" r="3.4" fill="#2ec26b" opacity="0.85"/>
<circle cx="498.8" cy="133.1" r="3.4" fill="#2ec26b" opacity="0.85"/>
<path d="M369.5 136.1 L375.9 142.5 M369.5 142.5 L375.9 136.1" stroke="#e0556b" stroke-width="1.6"/>
<circle cx="512.2" cy="140.8" r="3.4" fill="#2ec26b" opacity="0.85"/>
<path d="M445.0 258.6 L451.4 265.0 M445.0 265.0 L451.4 258.6" stroke="#e0556b" stroke-width="1.6"/>
<circle cx="448.2" cy="198.4" r="3.4" fill="#2ec26b" opacity="0.85"/>
<path d="M393.1 93.4 L399.5 99.8 M393.1 99.8 L399.5 93.4" stroke="#e0556b" stroke-width="1.6"/>
<circle cx="501.7" cy="183.5" r="3.4" fill="#2ec26b" opacity="0.85"/>
<path d="M498.5 164.6 L504.9 171.0 M498.5 171.0 L504.9 164.6" stroke="#e0556b" stroke-width="1.6"/>
<circle cx="416.7" cy="243.0" r="3.4" fill="#2ec26b" opacity="0.85"/>
<path d="M494.6 174.3 L501.0 180.7 M494.6 180.7 L501.0 174.3" stroke="#e0556b" stroke-width="1.6"/>
<circle cx="409.4" cy="236.6" r="3.4" fill="#2ec26b" opacity="0.85"/>
<circle cx="412.7" cy="70.0" r="3.4" fill="#2ec26b" opacity="0.85"/>
<circle cx="501.1" cy="160.4" r="3.4" fill="#2ec26b" opacity="0.85"/>
<circle cx="497.0" cy="140.5" r="3.4" fill="#2ec26b" opacity="0.85"/>
<circle cx="514.8" cy="156.8" r="3.4" fill="#2ec26b" opacity="0.85"/>
<path d="M411.1 68.9 L417.5 75.3 M411.1 75.3 L417.5 68.9" stroke="#e0556b" stroke-width="1.6"/>
<path d="M519.0 113.8 L525.4 120.2 M519.0 120.2 L525.4 113.8" stroke="#e0556b" stroke-width="1.6"/>
<path d="M458.1 85.3 L464.5 91.7 M458.1 91.7 L464.5 85.3" stroke="#e0556b" stroke-width="1.6"/>
<circle cx="521.3" cy="163.2" r="3.4" fill="#2ec26b" opacity="0.85"/>
<circle cx="511.6" cy="149.0" r="3.4" fill="#2ec26b" opacity="0.85"/>
<path d="M451.6 42.6 L458.0 49.0 M451.6 49.0 L458.0 42.6" stroke="#e0556b" stroke-width="1.6"/>
<path d="M465.4 263.3 L471.8 269.7 M465.4 269.7 L471.8 263.3" stroke="#e0556b" stroke-width="1.6"/>
<circle cx="380.8" cy="203.4" r="3.4" fill="#2ec26b" opacity="0.85"/>
<circle cx="470.9" cy="174.2" r="3.4" fill="#2ec26b" opacity="0.85"/>
<circle cx="422.2" cy="253.2" r="3.4" fill="#2ec26b" opacity="0.85"/>
<path d="M387.4 211.6 L393.8 218.0 M387.4 218.0 L393.8 211.6" stroke="#e0556b" stroke-width="1.6"/>
<circle cx="492.0" cy="177.8" r="3.4" fill="#2ec26b" opacity="0.85"/>
<circle cx="493.6" cy="149.3" r="3.4" fill="#2ec26b" opacity="0.85"/>
<path d="M367.1 160.4 L373.5 166.8 M367.1 166.8 L373.5 160.4" stroke="#e0556b" stroke-width="1.6"/>
<circle cx="416.6" cy="60.3" r="3.4" fill="#2ec26b" opacity="0.85"/>
<path d="M423.1 55.7 L429.5 62.1 M423.1 62.1 L429.5 55.7" stroke="#e0556b" stroke-width="1.6"/>
<path d="M399.1 73.6 L405.5 80.0 M399.1 80.0 L405.5 73.6" stroke="#e0556b" stroke-width="1.6"/>
<circle cx="465.5" cy="33.4" r="3.4" fill="#2ec26b" opacity="0.85"/>
<circle cx="484.2" cy="136.6" r="3.4" fill="#2ec26b" opacity="0.85"/>
<path d="M421.8 242.4 L428.2 248.8 M421.8 248.8 L428.2 242.4" stroke="#e0556b" stroke-width="1.6"/>
<circle cx="508.5" cy="133.1" r="3.4" fill="#2ec26b" opacity="0.85"/>
<circle cx="462.3" cy="266.2" r="3.4" fill="#2ec26b" opacity="0.85"/>
<circle cx="502.8" cy="122.4" r="3.4" fill="#2ec26b" opacity="0.85"/>
<path d="M390.1 91.4 L396.5 97.8 M390.1 97.8 L396.5 91.4" stroke="#e0556b" stroke-width="1.6"/>
<path d="M375.5 161.9 L381.9 168.3 M375.5 168.3 L381.9 161.9" stroke="#e0556b" stroke-width="1.6"/>
</svg>