<svg xmlns="http://www.w3.org/2000/svg" width="560" height="300" font-family="sans-serif">
<rect x="0" y="0" width="560" height="300" fill="#1b1b1b"/>
<text x="20" y="16" fill="#ddd" font-size="13">F. Garcia (WEL) — 178 tiros, Clasificatorio</text>
<rect x="20" y="28" width="520" height="252" fill="none" stroke="#555"/>
<path d="M499.6 137.7 L506.0 144.1 M499.6 144.1 L506.0 137.7" stroke="#e0556b" stroke-width="1.6"/>
<path d="M501.3 265.8 L507.7 272.2 M501.3 272.2 L507.7 265.8" stroke="#e0556b" stroke-width="1.6"/>
<path d="M369.5 159.6 L375.9 166.0 M369.5 166.0 L375.9 159.6" stroke="#e0556b" stroke-width="1.6"/>
<path d="M467.7 136.8 L474.1 143.2 M467.7 143.2 L474.1 136.8" stroke="#e0556b" stroke-width="1.6"/>
<path d="M472.5 267.8 L478.9 274.2 M472.5 274.2 L478.9 267.8" stroke="#e0556b" stroke-width="1.6"/>
<path d="M396.3 78.5 L402.7 84.9 M396.3 84.9 L402.7 78.5" stroke="#e0556b" stroke-width="1.6"/>
<path d="M479.9 153.2 L486.3 159.6 M479.9 159.6 L486.3 153.2" stroke="#e0556b" stroke-width="1.6"/>
<circle cx="500.1" cy="162.8" r="3.4" fill="#2ec26b" opacity="0.85"/>
<circle cx="466.0" cy="120.8" r="3.4" fill="#2ec26b" opacity="0.85"/>
<circle cx="487.1" cy="133.6" r="3.4" fill="#2ec26b" opacity="0.85"/>
<path d="M402.0 69.2 L408.4 75.6 M402.0 75.6 L408.4 69.2" stroke="#e0556b" stroke-width="1.6"/>
<path d="M487.1 30.8 L493.5 37.2 M487.1 37.2 L493.5 30.8" stroke="#e0556b" stroke-width="1.6"/>
<circle cx="429.8" cy="247.7" r="3.4" fill="#2ec26b" opacity="0.85"/>
<path d="M393.4 85.0 L399.8 91.4 M393.4 91.4 L399.8 85.0" stroke="#e0556b" stroke-width="1.6"/>
<path d="M504.5 163.3 L510.9 169.7 M504.5 169.7 L510.9 163.3" stroke="#e0556b" stroke-width="1.6"/>
<circle cx="432.3" cy="155.8" r="3.4" fill="#2ec26b" opacity="0.85"/>
<circle cx="391.7" cy="81.1" r="3.4" fill="#2ec26b" opacity="0.85"/>
<circle cx="415.7" cy="197.7" r="3.4" fill="#2ec26b" opacity="0.85"/>
<path d="M458.7 39.3 L465.1 45.7 M458.7 45.7 L465.1 39.3" stroke="#e0556b" stroke-width="1.6"/>
<path d="M392.2 213.7 L398.6 220.1 M392.2 220.1 L398.6 213.7" stroke="#e0556b" stroke-width="1.6"/>
<circle cx="509.8" cy="143.6" r="3.4" fill="#2ec26b" opacity="0.85"/>
<circle cx="502.5" cy="160.0" r="3.4" fill="#2ec26b" opacity="0.85"/>
<path d="M398.7 83.5 L405.1 89.9 M398.7 89.9 L405.1 83.5" stroke="#e0556b" stroke-width="1.6"/>
<path d="M471.7 147.5 L478.1 153.9 M471.7 153.9 L478.1 147.5" stroke="#e0556b" stroke-width="1.6"/>
<path d="M406.0 250.0 L412.4 256.4 M406.0 256.4 L412.4 250.0" stroke="#e0556b" stroke-width="1.6"/>
<path d="M472.5 137.6 L478.9 144.0 M472.5 144.0 L478.9 137.6" stroke="#e0556b" stroke-width="1.6"/>
<circle cx="402.7" cy="231.2" r="3.4" fill="#2ec26b" opacity="0.85"/>
<circle cx="512.2" cy="154.3" r="3.4" fill="#2ec26b" opacity="0.85"/>
<path d="M378.5 125.4 L384.9 131.8 M378.5 131.8 L384.9 125.4" stroke="#e0556b" stroke-width="1.6"/>
<path d="M483.1 153.2 L489.5 159.6 M483.1 159.6 L489.5 153.2" stroke="#e0556b" stroke-width="1.6"/>
<circle cx="373.9" cy="157.3" r="3.4" fill="#2ec26b" opacity="0.85"/>
<circle cx="495.5" cy="121.0" r="3.4" fill="#2ec26b" opacity="0.85"/>
<path d="M394.2 80.0 L400.6 86.4 M394.2 86.4 L400.6 80.0" stroke="#e0556b" stroke-width="1.6"/>
<circle cx="479.2" cy="142.6" r="3.4" fill="#2ec26b" opacity="0.85"/>
<path d="M380.2 109.5 L386.6 115.9 M380.2 115.9 L386.6 109.5" stroke="#e0556b" stroke-width="1.6"/>
<circle cx="506.7" cy="178.9" r="3.4" fill="#2ec26b" opacity="0.85"/>
<path d="M398.1 78.2 L404.5 84.6 M398.1 84.6 L404.5 78.2" stroke="#e0556b" stroke-width="1.6"/>
<path d="M400.5 52.6 L406.9 59.0 M400.5 59.0 L406.9 52.6" stroke="#e0556b" stroke-width="1.6"/>
<circle cx="406.9" cy="228.7" r="3.4" fill="#2ec26b" opacity="0.85"/>
<circle cx="416.7" cy="248.0" r="3.4" fill="#2ec26b" opacity="0.85"/>
<circle cx="496.2" cy="131.9" r="3.4" fill="#2ec26b" opacity="0.85"/>
<circle cx="415.7" cy="64.6" r="3.4" fill="#2ec26b" opacity="0.85"/>
<path d="M389.0 207.3 L395.4 213.7 M389.0 213.7 L395.4 207.3" stroke="#e0556b" stroke-width="1.6"/>
<circle cx="505.8" cy="162.8" r="3.4" fill="#2ec26b" opacity="0.85"/>
<circle cx="414.9" cy="73.8" r="3.4" fill="#2ec26b" opacity="0.85"/>
<path d="M504.5 159.8 L510.9 166.2 M504.5 166.2 L510.9 159.8" stroke="#e0556b" stroke-width="1.6"/>
<path d="M386.1 148.4 L392.5 154.8 M386.1 154.8 L392.5 148.4" stroke="#e0556b" stroke-width="1.6"/>
<circle cx="507.7" cy="167.2" r="3.4" fill="#2ec26b" opacity="0.85"/>
<circle cx="507.7" cy="144.4" r="3.4" fill="#2ec26b" opacity="0.85"/>
<path d="M494.0 131.3 L500.4 137.7 M494.0 137.7 L500.4 131.3" stroke="#e0556b" stroke-width="1.6"/>
<path d="M463.9 262.3 L470.3 268.7 M463.9 268.7 L470.3 262.3" stroke="#e0556b" stroke-width="1.6"/>
<path d="M455.0 40.2 L461.4 46.6 M455.0 46.6 L461.4 40.2" stroke="#e0556b" stroke-width="1.6"/>
<circle cx="510.2" cy="268.3" r="3.4" fill="#2ec26b" opacity="0.85"/>
<path d="M511.8 155.5 L518.2 161.9 M511.8 161.9 L518.2 155.5" stroke="#e0556b" stroke-width="1.6"/>
<circle cx="510.2" cy="154.4" r="3.4" fill="#2ec26b" opacity="0.85"/>
<path d="M449.9 45.0 L456.3 51.4 M449.9 51.4 L456.3 45.0" stroke="#e0556b" stroke-width="1.6"/>
<path d="M505.0 144.7 L511.4 151.1 M505.0 151.1 L511.4 144.7" stroke="#e0556b" stroke-width="1.6"/>
<circle cx="397.9" cy="88.1" r="3.4" fill="#2ec26b" opacity="0.85"/>
<path d="M419.0 116.2 L425.4 122.6 M419.0 122.6 L425.4 116.2" stroke="#e0556b" stroke-width="1.6"/>
<circle cx="453.8" cy="261.8" r="3.4" fill="#2ec26b" opacity="0.85"/>
<circle cx="383.3" cy="108.0" r="3.4" fill="#2ec26b" opacity="0.85"/>
<path d="M439.3 228.0 L445.7 234.4 M439.3 234.4 L445.7 228.0" stroke="#e0556b" stroke-width="1.6"/>
<path d="M488.3 166.9 L494.7 173.3 M488.3 173.3 L494.7 166.9" stroke="#e0556b" stroke-width="1.6"/>
<circle cx="382.8" cy="116.7" r="3.4" fill="#2ec26b" opacity="0.85"/>
<path d="M430.7 155.5 L437.1 161.9 M430.7 161.9 L437.1 155.5" stroke="#e0556b" stroke-width="1.6"/>
<path d="M374.7 174.0 L381.1 180.4 M374.7 180.4 L381.1 174.0" stroke="#e0556b" stroke-width="1.6"/>
<path d="M382.5 111.9 L388.9 118.3 M382.5 118.3 L388.9 111.9" stroke="#e0556b" stroke-width="1.6"/>
<path d="M505.8 267.1 L512.2 273.5 M505.8 273.5 L512.2 267.1" stroke="#e0556b" stroke-width="1.6"/>
<path d="M507.4 160.4 L513.8 166.8 M507.4 166.8 L513.8 160.4" stroke="#e0556b" stroke-width="1.6"/>
<path d="M449.3 92.1 L455.7 98.5 M449.3 98.5 L455.7 92.1" stroke="#e0556b" stroke-width="1.6"/>
<circle cx="405.5" cy="77.5" r="3.4" fill="#2ec26b" opacity="0.85"/>
<path d="M492.3 176.9 L498.7 183.3 M492.3 183.3 L498.7 176.9" stroke="#e0556b" stroke-width="1.6"/>
<path d="M488.3 116.4 L494.7 122.8 M488.3 122.8 L494.7 116.4" stroke="#e0556b" stroke-width="1.6"/>
<circle cx="382.0" cy="205.7" r="3.4" fill="#2ec26b" opacity="0.85"/>
<path d="M379.2 106.2 L385.6 112.6 M379.2 112.6 L385.6 106.2" stroke="#e0556b" stroke-width="1.6"/>
<circle cx="477.4" cy="122.2" r="3.4" fill="#2ec26b" opacity="0.85"/>
<circle cx="513.9" cy="139.3" r="3.4" fill="#2ec26b" opacity="0.85"/>
<circle cx="459.5" cy="40.4" r="3.4" fill="#2ec26b" opacity="0.85"/>
<path d="M370.3 215.2 L376.7 221.6 M370.3 221.6 L376.7 215.2" stroke="#e0556b" stroke-width="1.6"/>
<path d="M383.3 87.7 L389.7 94.1 M383.3 94.1 L389.7 87.7" stroke="#e0556b" stroke-width="1.6"/>
<path d="M394.2 60.1 L400.6 66.5 M394.2 66.5 L400.6 60.1" stroke="#e0556b" stroke-width="1.6"/>
<circle cx="373.0" cy="128.1" r="3.4" fill="#2ec26b" opacity="0.85"/>
<circle cx="364.1" cy="160.1" r="3.4" fill="#2ec26b" opacity="0.85"/>
<circle cx="409.5" cy="59.8" r="3.4" fill="#2ec26b" opacity="0.85"/>
<path d="M478.6 139.1 L485.0 145.5 M478.6 145.5 L485.0 139.1" stroke="#e0556b" stroke-width="1.6"/>
<path d="M498.8 149.8 L505.2 156.2 M498.8 156.2 L505.2 149.8" stroke="#e0556b" stroke-width="1.6"/>
<path d="M492.3 175.4 L498.7 181.8 M492.3 181.8 L498.7 175.4" stroke="#e0556b" stroke-width="1.6"/>
<circle cx="367.4" cy="118.1" r="3.4" fill="#2ec26b" opacity="0.85"/>
<circle cx="444.9" cy="44.7" r="3.4" fill="#2ec26b" opacity="0.85"/>
<path d="M423.9 242.9 L430.3 249.3 M423.9 249.3 L430.3 242.9" stroke="#e0556b" stroke-width="1.6"/>
<circle cx="463.6" cy="266.0" r="3.4" fill="#2ec26b" opacity="0.85"/>
<circle cx="519.6" cy="127.2" r="3.4" fill="#2ec26b" opacity="0.85"/>
<path d="M436.0 46.4 L442.4 52.8 M436.0 52.8 L442.4 46.4" stroke="#e0556b" stroke-width="1.6"/>
<path d="M453.4 257.3 L459.8 263.7 M453.4 263.7 L459.8 257.3" stroke="#e0556b" stroke-width="1.6"/>
<path d="M489.9 169.7 L496.3 176.1 M489.9 176.1 L496.3 169.7" stroke="#e0556b" stroke-width="1.6"/>
<path d="M361.7 161.9 L368.1 168.3 M361.7 168.3 L368.1 161.9" stroke="#e0556b" stroke-width="1.6"/>
<path d="M462.3 179.7 L468.7 186.1 M462.3 186.1 L468.7 179.7" stroke="#e0556b" stroke-width="1.6"/>
<circle cx="501.2" cy="275.4" r="3.4" fill="#2ec26b" opacity="0.85"/>
<circle cx="430.6" cy="254.1" r="3.4" fill="#2ec26b" opacity="0.85"/>
<path d="M498.0 265.1 L504.4 271.5 M498.0 271.5 L504.4 265.1" stroke="#e0556b" stroke-width="1.6"/>
<path d="M380.9 200.2 L387.3 206.6 M380.9 206.6 L387.3 200.2" stroke="#e0556b" stroke-width="1.6"/>
<path d="M491.2 31.5 L497.6 37.9 M491.2 37.9 L497.6 31.5" stroke="#e0556b" stroke-width="1.6"/>
<path d="M448.2 258.6 L454.6 265.0 M448.2 265.0 L454.6 258.6" stroke="#e0556b" stroke-width="1.6"/>
<path d="M368.7 154.7 L375.1 161.1 M368.7 161.1 L375.1 154.7" stroke="#e0556b" stroke-width="1.6"/>
<path d="M393.1 93.4 L399.5 99.8 M393.1 99.8 L399.5 93.4" stroke="#e0556b" stroke-width="1.6"/>
<path d="M366.3 154.7 L372.7 161.1 M366.3 161.1 L372.7 154.7" stroke="#e0556b" stroke-width="1.6"/>
<path d="M391.4 83.5 L397.8 89.9 M391.4 89.9 L397.8 83.5" stroke="#e0556b" stroke-width="1.6"/>
<circle cx="505.8" cy="150.7" r="3.4" fill="#2ec26b" opacity="0.85"/>
<circle cx="420.9" cy="115.3" r="3.4" fill="#2ec26b" opacity="0.85"/>
<circle cx="418.5" cy="54.8" r="3.4" fill="#2ec26b" opacity="0.85"/>
<circle cx="388.5" cy="66.9" r="3.4" fill="#2ec26b" opacity="0.85"/>
<path d="M404.7 58.7 L411.1 65.1 M404.7 65.1 L411.1 58.7" stroke="#e0556b" stroke-width="1.6"/>
<path d="M485.1 148.4 L491.5 154.8 M485.1 154.8 L491.5 148.4" stroke="#e0556b" stroke-width="1.6"/>
<circle cx="403.9" cy="244.1" r="3.4" fill="#2ec26b" opacity="0.85"/>
<path d="M364.2 186.8 L370.6 193.2 M364.2 193.2 L370.6 186.8" stroke="#e0556b" stroke-width="1.6"/>
<path d="M510.9 163.6 L517.3 170.0 M510.9 170.0 L517.3 163.6" stroke="#e0556b" stroke-width="1.6"/>
<path d="M372.9 116.6 L379.3 123.0 M372.9 123.0 L379.3 116.6" stroke="#e0556b" stroke-width="1.6"/>
<path d="M511.6 152.9 L518.0 159.3 M511.6 159.3 L518.0 152.9" stroke="#e0556b" stroke-width="1.6"/>
<circle cx="360.7" cy="178.9" r="3.4" fill="#2ec26b" opacity="0.85"/>
<circle cx="368.8" cy="188.2" r="3.4" fill="#2ec26b" opacity="0.85"/>
<path d="M423.2 56.8 L429.6 63.2 M423.2 63.2 L429.6 56.8" stroke="#e0556b" stroke-width="1.6"/>
<path d="M506.8 172.1 L513.2 178.5 M506.8 178.5 L513.2 172.1" stroke="#e0556b" stroke-width="1.6"/>
<path d="M366.4 237.6 L372.8 244.0 M366.4 244.0 L372.8 237.6" stroke="#e0556b" stroke-width="1.6"/>
<circle cx="393.8" cy="239.7" r="3.4" fill="#2ec26b" opacity="0.85"/>
<circle cx="425.4" cy="58.2" r="3.4" fill="#2ec26b" opacity="0.85"/>
<path d="M385.7 72.1 L392.1 78.5 M385.7 78.5 L392.1 72.1" stroke="#e0556b" stroke-width="1.6"/>
<circle cx="355.7" cy="153.6" r="3.4" fill="#2ec26b" opacity="0.85"/>
<circle cx="354.0" cy="150.7" r="3.4" fill="#2ec26b" opacity="0.85"/>
<circle cx="376.0" cy="127.9" r="3.4" fill="#2ec26b" opacity="0.85"/>
<path d="M359.3 203.2 L365.7 209.6 M359.3 209.6 L365.7 203.2" stroke="#e0556b" stroke-width="1.6"/>
<path d="M498.0 156.9 L504.4 163.3 M498.0 163.3 L504.4 156.9" stroke="#e0556b" stroke-width="1.6"/>
<path d="M363.8 168.2 L370.2 174.6 M363.8 174.6 L370.2 168.2" stroke="#e0556b" stroke-width="1.6"/>
<path d="M500.1 161.8 L506.5 168.2 M500.1 168.2 L506.5 161.8" stroke="#e0556b" stroke-width="1.6"/>
<path d="M500.1 270.7 L506.5 277.1 M500.1 277.1 L506.5 270.7" stroke="#e0556b" stroke-width="1.6"/>
<path d="M507.4 126.2 L513.8 132.6 M507.4 132.6 L513.8 126.2" stroke="#e0556b" stroke-width="1.6"/>
<circle cx="502.0" cy="159.4" r="3.4" fill="#2ec26b" opacity="0.85"/>
<circle cx="391.7" cy="217.1" r="3.4" fill="#2ec26b" opacity="0.85"/>
<circle cx="420.1" cy="64.7" r="3.4" fill="#2ec26b" opacity="0.85"/>
<path d="M454.2 265.1 L460.6 271.5 M454.2 271.5 L460.6 265.1" stroke="#e0556b" stroke-width="1.6"/>
<path d="M393.4 72.9 L399.8 79.3 M393.4 79.3 L399.8 72.9" stroke="#e0556b" stroke-width="1.6"/>
<path d="M357.7 171.2 L364.1 177.6 M357.7 177.6 L364.1 171.2" stroke="#e0556b" stroke-width="1.6"/>
<path d="M376.8 218.0 L383.2 224.4 M376.8 224.4 L383.2 218.0" stroke="#e0556b" stroke-width="1.6"/>
<path d="M464.4 263.6 L470.8 270.0 M464.4 270.0 L470.8 263.6" stroke="#e0556b" stroke-width="1.6"/>
<path d="M501.8 33.6 L508.2 40.0 M501.8 40.0 L508.2 33.6" stroke="#e0556b" stroke-width="1.6"/>
<path d="M511.0 35.2 L517.4 41.6 M511.0 41.6 L517.4 35.2" stroke="#e0556b" stroke-width="1.6"/>
<path d="M498.5 156.1 L504.9 162.5 M498.5 162.5 L504.9 156.1" stroke="#e0556b" stroke-width="1.6"/>
<circle cx="397.9" cy="244.0" r="3.4" fill="#2ec26b" opacity="0.85"/>
<path d="M386.6 228.0 L393.0 234.4 M386.6 234.4 L393.0 228.0" stroke="#e0556b" stroke-width="1.6"/>
<circle cx="369.0" cy="121.0" r="3.4" fill="#2ec26b" opacity="0.85"/>
<circle cx="417.6" cy="54.8" r="3.4" fill="#2ec26b" opacity="0.85"/>
<path d="M356.0 142.0 L362.4 148.4 M356.0 148.4 L362.4 142.0" stroke="#e0556b" stroke-width="1.6"/>
<circle cx="508.5" cy="148.7" r="3.4" fill="#2ec26b" opacity="0.85"/>
<circle cx="393.3" cy="69.7" r="3.4" fill="#2ec26b" opacity="0.85"/>
<circle cx="517.4" cy="148.0" r="3.4" fill="#2ec26b" opacity="0.85"/>
<path d="M503.4 270.7 L509.8 277.1 M503.4 277.1 L509.8 270.7" stroke="#e0556b" stroke-width="1.6"/>
<path d="M500.1 163.2 L506.5 169.6 M500.1 169.6 L506.5 163.2" stroke="#e0556b" stroke-width="1.6"/>
<circle cx="436.0" cy="219.1" r="3.4" fill="#2ec26b" opacity="0.85"/>
<path d="M453.1 37.9 L459.5 44.3 M453.1 44.3 L459.5 37.9" stroke="#e0556b" stroke-width="1.6"/>
<circle cx="427.1" cy="54.6" r="3.4" fill="#2ec26b" opacity="0.85"/>
<path d="M381.2 228.1 L387.6 234.5 M381.2 234.5 L387.6 228.1" stroke="#e0556b" stroke-width="1.6"/>
<circle cx="506.1" cy="177.2" r="3.4" fill="#2ec26b" opacity="0.85"/>
<path d="M497.2 132.7 L503.6 139.1 M497.2 139.1 L503.6 132.7" stroke="#e0556b" stroke-width="1.6"/>
<circle cx="371.4" cy="118.1" r="3.4" fill="#2ec26b" opacity="0.85"/>
<path d="M369.8 167.6 L376.2 174.0 M369.8 174.0 L376.2 167.6" stroke="#e0556b" stroke-width="1.6"/>
<circle cx="397.4" cy="90.4" r="3.4" fill="#2ec26b" opacity="0.85"/>
<circle cx="454.1" cy="259.8" r="3.4" fill="#2ec26b" opacity="0.85"/>
<path d="M413.7 246.6 L420.1 253.0 M413.7 253.0 L420.1 246.6" stroke="#e0556b" stroke-width="1.6"/>
<path d="M449.3 236.0 L455.7 242.4 M449.3 242.4 L455.7 236.0" stroke="#e0556b" stroke-width="1.6"/>
<path d="M397.1 79.2 L403.5 85.6 M397.1 85.6 L403.5 79.2" stroke="#e0556b" stroke-width="1.6"/>
<path d="M396.3 219.4 L402.7 225.8 M396.3 225.8 L402.7 219.4" stroke="#e0556b" stroke-width="1.6"/>
<path d="M385.0 193.1 L391.4 199.5 M385.0 199.5 L391.4 193.1" stroke="#e0556b" stroke-width="1.6"/>
<path d="M373.9 171.2 L380.3 177.6 M373.9 177.6 L380.3 171.2" stroke="#e0556b" stroke-width="1.6"/>
<path d="M483.4 34.5 L489.8 40.9 M483.4 40.9 L489.8 34.5" stroke="#e0556b" stroke-width="1.6"/>
<circle cx="364.9" cy="145.9" r="3.4" fill="#2ec26b" opacity="0.85"/>
<circle cx="501.2" cy="130.9" r="3.4" fill="#2ec26b" opacity="0.85"/>
<path d="M442.5 218.7 L448.9 225.1 M442.5 225.1 L448.9 218.7" stroke="#e0556b" stroke-width="1.6"/>
<path d="M358.2 148.2 L364.6 154.6 M358.2 154.6 L364.6 148.2" stroke="#e0556b" stroke-width="1.6"/>
<path d="M423.1 52.1 L429.5 58.5 M423.1 58.5 L429.5 52.1" stroke="#e0556b" stroke-width="1.6"/>
</svg>