<svg xmlns="http://www.w3.org/2000/svg" width="560" height="300" font-family="sans-serif">
<rect x="0" y="0" width="560" height="300" fill="#1b1b1b"/>
<text x="20" y="16" fill="#ddd" font-size="13">F. Haller (HYM) — 175 tiros, Clasificatorio</text>
<rect x="20" y="28" width="520" height="252" fill="none" stroke="#555"/>
<path d="M428.7 136.1 L435.1 142.5 M428.7 142.5 L435.1 136.1" stroke="#e0556b" stroke-width="1.6"/>
<circle cx="494.7" cy="229.2" r="3.4" fill="#2ec26b" opacity="0.85"/>
<circle cx="431.5" cy="172.9" r="3.4" fill="#2ec26b" opacity="0.85"/>
<circle cx="377.9" cy="181.5" r="3.4" fill="#2ec26b" opacity="0.85"/>
<circle cx="494.7" cy="77.5" r="3.4" fill="#2ec26b" opacity="0.85"/>
<path d="M501.3 78.6 L507.7 85.0 M501.3 85.0 L507.7 78.6" stroke="#e0556b" stroke-width="1.6"/>
<path d="M366.6 151.2 L373.0 157.6 M366.6 157.6 L373.0 151.2" stroke="#e0556b" stroke-width="1.6"/>
<circle cx="425.8" cy="175.1" r="3.4" fill="#2ec26b" opacity="0.85"/>
<circle cx="522.3" cy="66.9" r="3.4" fill="#2ec26b" opacity="0.85"/>
<circle cx="508.5" cy="207.1" r="3.4" fill="#2ec26b" opacity="0.85"/>
<circle cx="516.7" cy="144.4" r="3.4" fill="#2ec26b" opacity="0.85"/>
<circle cx="453.8" cy="264.6" r="3.4" fill="#2ec26b" opacity="0.85"/>
<circle cx="495.2" cy="85.9" r="3.4" fill="#2ec26b" opacity="0.85"/>
<circle cx="525.2" cy="78.1" r="3.4" fill="#2ec26b" opacity="0.85"/>
<path d="M515.5 93.4 L521.9 99.8 M515.5 99.8 L521.9 93.4" stroke="#e0556b" stroke-width="1.6"/>
<path d="M507.4 90.6 L513.8 97.0 M507.4 97.0 L513.8 90.6" stroke="#e0556b" stroke-width="1.6"/>
<path d="M412.8 119.2 L419.2 125.6 M412.8 125.6 L419.2 119.2" stroke="#e0556b" stroke-width="1.6"/>
<circle cx="443.6" cy="134.5" r="3.4" fill="#2ec26b" opacity="0.85"/>
<path d="M494.8 122.0 L501.2 128.4 M494.8 128.4 L501.2 122.0" stroke="#e0556b" stroke-width="1.6"/>
<circle cx="481.8" cy="153.7" r="3.4" fill="#2ec26b" opacity="0.85"/>
<circle cx="426.6" cy="172.9" r="3.4" fill="#2ec26b" opacity="0.85"/>
<path d="M465.6 90.7 L472.0 97.1 M465.6 97.1 L472.0 90.7" stroke="#e0556b" stroke-width="1.6"/>
<circle cx="489.0" cy="133.8" r="3.4" fill="#2ec26b" opacity="0.85"/>
<circle cx="486.6" cy="145.2" r="3.4" fill="#2ec26b" opacity="0.85"/>
<path d="M459.9 137.7 L466.3 144.1 M459.9 144.1 L466.3 137.7" stroke="#e0556b" stroke-width="1.6"/>
<path d="M511.0 102.8 L517.4 109.2 M511.0 109.2 L517.4 102.8" stroke="#e0556b" stroke-width="1.6"/>
<path d="M509.4 88.6 L515.8 95.0 M509.4 95.0 L515.8 88.6" stroke="#e0556b" stroke-width="1.6"/>
<path d="M518.8 84.9 L525.2 91.3 M518.8 91.3 L525.2 84.9" stroke="#e0556b" stroke-width="1.6"/>
<path d="M522.0 90.6 L528.4 97.0 M522.0 97.0 L528.4 90.6" stroke="#e0556b" stroke-width="1.6"/>
<path d="M394.7 87.7 L401.1 94.1 M394.7 94.1 L401.1 87.7" stroke="#e0556b" stroke-width="1.6"/>
<circle cx="509.0" cy="154.3" r="3.4" fill="#2ec26b" opacity="0.85"/>
<path d="M392.2 82.0 L398.6 88.4 M392.2 88.4 L398.6 82.0" stroke="#e0556b" stroke-width="1.6"/>
<circle cx="509.8" cy="150.7" r="3.4" fill="#2ec26b" opacity="0.85"/>
<circle cx="513.1" cy="155.7" r="3.4" fill="#2ec26b" opacity="0.85"/>
<circle cx="444.9" cy="159.3" r="3.4" fill="#2ec26b" opacity="0.85"/>
<circle cx="446.0" cy="126.0" r="3.4" fill="#2ec26b" opacity="0.85"/>
<path d="M416.1 154.1 L422.5 160.5 M416.1 160.5 L422.5 154.1" stroke="#e0556b" stroke-width="1.6"/>
<circle cx="514.2" cy="141.6" r="3.4" fill="#2ec26b" opacity="0.85"/>
<circle cx="503.7" cy="128.1" r="3.4" fill="#2ec26b" opacity="0.85"/>
<circle cx="493.1" cy="267.6" r="3.4" fill="#2ec26b" opacity="0.85"/>
<circle cx="508.2" cy="207.0" r="3.4" fill="#2ec26b" opacity="0.85"/>
<path d="M479.9 99.8 L486.3 106.2 M479.9 106.2 L486.3 99.8" stroke="#e0556b" stroke-width="1.6"/>
<circle cx="414.1" cy="202.7" r="3.4" fill="#2ec26b" opacity="0.85"/>
<circle cx="435.5" cy="140.2" r="3.4" fill="#2ec26b" opacity="0.85"/>
<circle cx="402.3" cy="229.2" r="3.4" fill="#2ec26b" opacity="0.85"/>
<path d="M504.5 159.8 L510.9 166.2 M504.5 166.2 L510.9 159.8" stroke="#e0556b" stroke-width="1.6"/>
<circle cx="497.2" cy="143.7" r="3.4" fill="#2ec26b" opacity="0.85"/>
<circle cx="495.5" cy="131.6" r="3.4" fill="#2ec26b" opacity="0.85"/>
<path d="M507.7 100.7 L514.1 107.1 M507.7 107.1 L514.1 100.7" stroke="#e0556b" stroke-width="1.6"/>
<path d="M485.5 202.3 L491.9 208.7 M485.5 208.7 L491.9 202.3" stroke="#e0556b" stroke-width="1.6"/>
<circle cx="424.7" cy="62.4" r="3.4" fill="#2ec26b" opacity="0.85"/>
<path d="M490.4 151.8 L496.8 158.2 M490.4 158.2 L496.8 151.8" stroke="#e0556b" stroke-width="1.6"/>
<path d="M446.9 208.9 L453.3 215.3 M446.9 215.3 L453.3 208.9" stroke="#e0556b" stroke-width="1.6"/>
<path d="M527.2 212.4 L533.6 218.8 M527.2 218.8 L533.6 212.4" stroke="#e0556b" stroke-width="1.6"/>
<path d="M422.6 151.2 L429.0 157.6 M422.6 157.6 L429.0 151.2" stroke="#e0556b" stroke-width="1.6"/>
<path d="M369.8 148.4 L376.2 154.8 M369.8 154.8 L376.2 148.4" stroke="#e0556b" stroke-width="1.6"/>
<circle cx="493.9" cy="113.9" r="3.4" fill="#2ec26b" opacity="0.85"/>
<circle cx="448.5" cy="237.0" r="3.4" fill="#2ec26b" opacity="0.85"/>
<path d="M494.0 85.7 L500.4 92.1 M494.0 92.1 L500.4 85.7" stroke="#e0556b" stroke-width="1.6"/>
<circle cx="396.6" cy="201.4" r="3.4" fill="#2ec26b" opacity="0.85"/>
<circle cx="460.6" cy="93.2" r="3.4" fill="#2ec26b" opacity="0.85"/>
<path d="M368.2 157.6 L374.6 164.0 M368.2 164.0 L374.6 157.6" stroke="#e0556b" stroke-width="1.6"/>
<path d="M509.0 76.3 L515.4 82.7 M509.0 82.7 L515.4 76.3" stroke="#e0556b" stroke-width="1.6"/>
<path d="M400.4 232.2 L406.8 238.6 M400.4 238.6 L406.8 232.2" stroke="#e0556b" stroke-width="1.6"/>
<path d="M505.6 150.8 L512.0 157.2 M505.6 157.2 L512.0 150.8" stroke="#e0556b" stroke-width="1.6"/>
<path d="M477.4 102.7 L483.8 109.1 M477.4 109.1 L483.8 102.7" stroke="#e0556b" stroke-width="1.6"/>
<path d="M500.1 220.1 L506.5 226.5 M500.1 226.5 L506.5 220.1" stroke="#e0556b" stroke-width="1.6"/>
<circle cx="507.4" cy="155.0" r="3.4" fill="#2ec26b" opacity="0.85"/>
<circle cx="376.8" cy="145.0" r="3.4" fill="#2ec26b" opacity="0.85"/>
<circle cx="410.8" cy="165.0" r="3.4" fill="#2ec26b" opacity="0.85"/>
<path d="M406.0 233.0 L412.4 239.4 M406.0 239.4 L412.4 233.0" stroke="#e0556b" stroke-width="1.6"/>
<circle cx="489.6" cy="176.4" r="3.4" fill="#2ec26b" opacity="0.85"/>
<circle cx="516.3" cy="61.0" r="3.4" fill="#2ec26b" opacity="0.85"/>
<circle cx="510.6" cy="136.5" r="3.4" fill="#2ec26b" opacity="0.85"/>
<path d="M495.6 137.0 L502.0 143.4 M495.6 143.4 L502.0 137.0" stroke="#e0556b" stroke-width="1.6"/>
<circle cx="418.5" cy="160.1" r="3.4" fill="#2ec26b" opacity="0.85"/>
<circle cx="507.7" cy="160.1" r="3.4" fill="#2ec26b" opacity="0.85"/>
<path d="M374.7 149.8 L381.1 156.2 M374.7 156.2 L381.1 149.8" stroke="#e0556b" stroke-width="1.6"/>
<path d="M376.0 182.4 L382.4 188.8 M376.0 188.8 L382.4 182.4" stroke="#e0556b" stroke-width="1.6"/>
<circle cx="486.3" cy="193.4" r="3.4" fill="#2ec26b" opacity="0.85"/>
<path d="M505.0 141.1 L511.4 147.5 M505.0 147.5 L511.4 141.1" stroke="#e0556b" stroke-width="1.6"/>
<circle cx="501.7" cy="153.6" r="3.4" fill="#2ec26b" opacity="0.85"/>
<path d="M397.9 77.0 L404.3 83.4 M397.9 83.4 L404.3 77.0" stroke="#e0556b" stroke-width="1.6"/>
<circle cx="423.8" cy="155.0" r="3.4" fill="#2ec26b" opacity="0.85"/>
<circle cx="426.6" cy="60.5" r="3.4" fill="#2ec26b" opacity="0.85"/>
<circle cx="488.3" cy="199.3" r="3.4" fill="#2ec26b" opacity="0.85"/>
<path d="M395.8 82.9 L402.2 89.3 M395.8 89.3 L402.2 82.9" stroke="#e0556b" stroke-width="1.6"/>
<circle cx="444.4" cy="121.7" r="3.4" fill="#2ec26b" opacity="0.85"/>
<path d="M372.3 155.5 L378.7 161.9 M372.3 161.9 L378.7 155.5" stroke="#e0556b" stroke-width="1.6"/>
<circle cx="382.0" cy="176.5" r="3.4" fill="#2ec26b" opacity="0.85"/>
<circle cx="441.7" cy="170.7" r="3.4" fill="#2ec26b" opacity="0.85"/>
<circle cx="474.9" cy="103.0" r="3.4" fill="#2ec26b" opacity="0.85"/>
<circle cx="415.3" cy="133.1" r="3.4" fill="#2ec26b" opacity="0.85"/>
<path d="M466.4 211.0 L472.8 217.4 M466.4 217.4 L472.8 211.0" stroke="#e0556b" stroke-width="1.6"/>
<circle cx="480.9" cy="106.0" r="3.4" fill="#2ec26b" opacity="0.85"/>
<path d="M476.9 178.3 L483.3 184.7 M476.9 184.7 L483.3 178.3" stroke="#e0556b" stroke-width="1.6"/>
<path d="M488.3 104.3 L494.7 110.7 M488.3 110.7 L494.7 104.3" stroke="#e0556b" stroke-width="1.6"/>
<path d="M474.5 266.5 L480.9 272.9 M474.5 272.9 L480.9 266.5" stroke="#e0556b" stroke-width="1.6"/>
<circle cx="499.4" cy="79.3" r="3.4" fill="#2ec26b" opacity="0.85"/>
<path d="M392.4 217.0 L398.8 223.4 M392.4 223.4 L398.8 217.0" stroke="#e0556b" stroke-width="1.6"/>
<circle cx="515.7" cy="156.8" r="3.4" fill="#2ec26b" opacity="0.85"/>
<circle cx="475.1" cy="232.3" r="3.4" fill="#2ec26b" opacity="0.85"/>
<circle cx="484.8" cy="252.2" r="3.4" fill="#2ec26b" opacity="0.85"/>
<path d="M508.4 74.6 L514.8 81.0 M508.4 81.0 L514.8 74.6" stroke="#e0556b" stroke-width="1.6"/>
<circle cx="492.9" cy="182.5" r="3.4" fill="#2ec26b" opacity="0.85"/>
<circle cx="455.7" cy="198.9" r="3.4" fill="#2ec26b" opacity="0.85"/>
<circle cx="485.7" cy="203.8" r="3.4" fill="#2ec26b" opacity="0.85"/>
<circle cx="493.6" cy="155.0" r="3.4" fill="#2ec26b" opacity="0.85"/>
<circle cx="492.8" cy="156.4" r="3.4" fill="#2ec26b" opacity="0.85"/>
<path d="M483.9 142.5 L490.3 148.9 M483.9 148.9 L490.3 142.5" stroke="#e0556b" stroke-width="1.6"/>
<path d="M510.2 67.9 L516.6 74.3 M510.2 74.3 L516.6 67.9" stroke="#e0556b" stroke-width="1.6"/>
<circle cx="506.9" cy="133.8" r="3.4" fill="#2ec26b" opacity="0.85"/>
<path d="M408.8 148.4 L415.2 154.8 M408.8 154.8 L415.2 148.4" stroke="#e0556b" stroke-width="1.6"/>
<path d="M377.9 205.3 L384.3 211.7 M377.9 211.7 L384.3 205.3" stroke="#e0556b" stroke-width="1.6"/>
<circle cx="369.0" cy="121.0" r="3.4" fill="#2ec26b" opacity="0.85"/>
<circle cx="355.2" cy="147.3" r="3.4" fill="#2ec26b" opacity="0.85"/>
<circle cx="483.8" cy="60.3" r="3.4" fill="#2ec26b" opacity="0.85"/>
<path d="M483.1 35.8 L489.5 42.2 M483.1 42.2 L489.5 35.8" stroke="#e0556b" stroke-width="1.6"/>
<path d="M406.0 233.0 L412.4 239.4 M406.0 239.4 L412.4 233.0" stroke="#e0556b" stroke-width="1.6"/>
<path d="M496.9 67.8 L503.3 74.2 M496.9 74.2 L503.3 67.8" stroke="#e0556b" stroke-width="1.6"/>
<path d="M505.0 86.3 L511.4 92.7 M505.0 92.7 L511.4 86.3" stroke="#e0556b" stroke-width="1.6"/>
<path d="M406.0 232.2 L412.4 238.6 M406.0 238.6 L412.4 232.2" stroke="#e0556b" stroke-width="1.6"/>
<path d="M492.8 137.6 L499.2 144.0 M492.8 144.0 L499.2 137.6" stroke="#e0556b" stroke-width="1.6"/>
<circle cx="511.5" cy="160.7" r="3.4" fill="#2ec26b" opacity="0.85"/>
<path d="M446.6 176.0 L453.0 182.4 M446.6 182.4 L453.0 176.0" stroke="#e0556b" stroke-width="1.6"/>
<circle cx="518.0" cy="157.9" r="3.4" fill="#2ec26b" opacity="0.85"/>
<path d="M516.4 77.0 L522.8 83.4 M516.4 83.4 L522.8 77.0" stroke="#e0556b" stroke-width="1.6"/>
<circle cx="429.5" cy="167.8" r="3.4" fill="#2ec26b" opacity="0.85"/>
<path d="M506.6 154.7 L513.0 161.1 M506.6 161.1 L513.0 154.7" stroke="#e0556b" stroke-width="1.6"/>
<circle cx="387.6" cy="108.9" r="3.4" fill="#2ec26b" opacity="0.85"/>
<path d="M523.2 90.0 L529.6 96.4 M523.2 96.4 L529.6 90.0" stroke="#e0556b" stroke-width="1.6"/>
<path d="M424.2 245.9 L430.6 252.3 M424.2 252.3 L430.6 245.9" stroke="#e0556b" stroke-width="1.6"/>
<path d="M495.6 59.4 L502.0 65.8 M495.6 65.8 L502.0 59.4" stroke="#e0556b" stroke-width="1.6"/>
<path d="M492.3 245.2 L498.7 251.6 M492.3 251.6 L498.7 245.2" stroke="#e0556b" stroke-width="1.6"/>
<path d="M492.3 154.1 L498.7 160.5 M492.3 160.5 L498.7 154.1" stroke="#e0556b" stroke-width="1.6"/>
<path d="M505.6 150.8 L512.0 157.2 M505.6 157.2 L512.0 150.8" stroke="#e0556b" stroke-width="1.6"/>
<path d="M497.2 60.1 L503.6 66.5 M497.2 66.5 L503.6 60.1" stroke="#e0556b" stroke-width="1.6"/>
<path d="M356.6 134.0 L363.0 140.4 M356.6 140.4 L363.0 134.0" stroke="#e0556b" stroke-width="1.6"/>
<path d="M451.5 167.5 L457.9 173.9 M451.5 173.9 L457.9 167.5" stroke="#e0556b" stroke-width="1.6"/>
<circle cx="492.0" cy="71.0" r="3.4" fill="#2ec26b" opacity="0.85"/>
<path d="M442.5 130.4 L448.9 136.8 M442.5 136.8 L448.9 130.4" stroke="#e0556b" stroke-width="1.6"/>
<circle cx="483.8" cy="184.9" r="3.4" fill="#2ec26b" opacity="0.85"/>
<circle cx="511.5" cy="224.1" r="3.4" fill="#2ec26b" opacity="0.85"/>
<circle cx="501.7" cy="93.1" r="3.4" fill="#2ec26b" opacity="0.85"/>
<circle cx="472.8" cy="87.5" r="3.4" fill="#2ec26b" opacity="0.85"/>
<circle cx="379.5" cy="117.4" r="3.4" fill="#2ec26b" opacity="0.85"/>
<path d="M502.1 182.6 L508.5 189.0 M502.1 189.0 L508.5 182.6" stroke="#e0556b" stroke-width="1.6"/>
<circle cx="510.9" cy="143.0" r="3.4" fill="#2ec26b" opacity="0.85"/>
<path d="M380.4 92.9 L386.8 99.3 M380.4 99.3 L386.8 92.9" stroke="#e0556b" stroke-width="1.6"/>
<path d="M504.5 264.4 L510.9 270.8 M504.5 270.8 L510.9 264.4" stroke="#e0556b" stroke-width="1.6"/>
<path d="M504.2 94.9 L510.6 101.3 M504.2 101.3 L510.6 94.9" stroke="#e0556b" stroke-width="1.6"/>
<circle cx="492.8" cy="219.1" r="3.4" fill="#2ec26b" opacity="0.85"/>
<path d="M496.9 235.8 L503.3 242.2 M496.9 242.2 L503.3 235.8" stroke="#e0556b" stroke-width="1.6"/>
<circle cx="506.9" cy="143.0" r="3.4" fill="#2ec26b" opacity="0.85"/>
<path d="M357.7 156.2 L364.1 162.6 M357.7 162.6 L364.1 156.2" stroke="#e0556b" stroke-width="1.6"/>
<circle cx="485.8" cy="98.2" r="3.4" fill="#2ec26b" opacity="0.85"/>
<circle cx="420.9" cy="252.0" r="3.4" fill="#2ec26b" opacity="0.85"/>
<path d="M505.6 150.8 L512.0 157.2 M505.6 157.2 L512.0 150.8" stroke="#e0556b" stroke-width="1.6"/>
<path d="M438.5 220.9 L444.9 227.3 M438.5 227.3 L444.9 220.9" stroke="#e0556b" stroke-width="1.6"/>
<path d="M514.8 76.3 L521.2 82.7 M514.8 82.7 L521.2 76.3" stroke="#e0556b" stroke-width="1.6"/>
<circle cx="406.0" cy="249.0" r="3.4" fill="#2ec26b" opacity="0.85"/>
<path d="M487.1 77.0 L493.5 83.4 M487.1 83.4 L493.5 77.0" stroke="#e0556b" stroke-width="1.6"/>
<circle cx="498.0" cy="157.3" r="3.4" fill="#2ec26b" opacity="0.85"/>
<path d="M405.6 246.6 L412.0 253.0 M405.6 253.0 L412.0 246.6" stroke="#e0556b" stroke-width="1.6"/>
<path d="M481.8 179.7 L488.2 186.1 M481.8 186.1 L488.2 179.7" stroke="#e0556b" stroke-width="1.6"/>
<circle cx="499.6" cy="140.2" r="3.4" fill="#2ec26b" opacity="0.85"/>
<circle cx="494.7" cy="207.8" r="3.4" fill="#2ec26b" opacity="0.85"/>
<circle cx="420.5" cy="249.6" r="3.4" fill="#2ec26b" opacity="0.85"/>
<circle cx="499.3" cy="229.0" r="3.4" fill="#2ec26b" opacity="0.85"/>
<path d="M507.4 167.5 L513.8 173.9 M507.4 173.9 L513.8 167.5" stroke="#e0556b" stroke-width="1.6"/>
<circle cx="376.8" cy="111.6" r="3.4" fill="#2ec26b" opacity="0.85"/>
<circle cx="474.9" cy="85.9" r="3.4" fill="#2ec26b" opacity="0.85"/>
<path d="M509.0 135.4 L515.4 141.8 M509.0 141.8 L515.4 135.4" stroke="#e0556b" stroke-width="1.6"/>
<circle cx="503.3" cy="240.4" r="3.4" fill="#2ec26b" opacity="0.85"/>
<circle cx="508.8" cy="154.0" r="3.4" fill="#2ec26b" opacity="0.85"/>
</svg>