<svg xmlns="http://www.w3.org/2000/svg" width="560" height="300" font-family="sans-serif">
<rect x="0" y="0" width="560" height="300" fill="#1b1b1b"/>
<text x="20" y="16" fill="#ddd" font-size="13">F. Medina (COR) — 158 tiros, Clasificatorio</text>
<rect x="20" y="28" width="520" height="252" fill="none" stroke="#555"/>
<circle cx="507.7" cy="143.0" r="3.4" fill="#2ec26b" opacity="0.85"/>
<path d="M507.0 201.8 L513.4 208.2 M507.0 208.2 L513.4 201.8" stroke="#e0556b" stroke-width="1.6"/>
<circle cx="503.7" cy="178.6" r="3.4" fill="#2ec26b" opacity="0.85"/>
<circle cx="511.8" cy="38.4" r="3.4" fill="#2ec26b" opacity="0.85"/>
<path d="M420.9 59.4 L427.3 65.8 M420.9 65.8 L427.3 59.4" stroke="#e0556b" stroke-width="1.6"/>
<circle cx="420.9" cy="241.3" r="3.4" fill="#2ec26b" opacity="0.85"/>
<circle cx="509.8" cy="142.2" r="3.4" fill="#2ec26b" opacity="0.85"/>
<circle cx="377.6" cy="127.9" r="3.4" fill="#2ec26b" opacity="0.85"/>
<path d="M491.2 161.8 L497.6 168.2 M491.2 168.2 L497.6 161.8" stroke="#e0556b" stroke-width="1.6"/>
<path d="M354.9 158.2 L361.3 164.6 M354.9 164.6 L361.3 158.2" stroke="#e0556b" stroke-width="1.6"/>
<path d="M506.6 161.8 L513.0 168.2 M506.6 168.2 L513.0 161.8" stroke="#e0556b" stroke-width="1.6"/>
<path d="M375.2 156.8 L381.6 163.2 M375.2 163.2 L381.6 156.8" stroke="#e0556b" stroke-width="1.6"/>
<path d="M502.6 166.0 L509.0 172.4 M502.6 172.4 L509.0 166.0" stroke="#e0556b" stroke-width="1.6"/>
<path d="M442.5 47.2 L448.9 53.6 M442.5 53.6 L448.9 47.2" stroke="#e0556b" stroke-width="1.6"/>
<path d="M513.9 269.3 L520.3 275.7 M513.9 275.7 L520.3 269.3" stroke="#e0556b" stroke-width="1.6"/>
<circle cx="374.7" cy="150.1" r="3.4" fill="#2ec26b" opacity="0.85"/>
<path d="M511.0 140.5 L517.4 146.9 M511.0 146.9 L517.4 140.5" stroke="#e0556b" stroke-width="1.6"/>
<path d="M438.8 253.7 L445.2 260.1 M438.8 260.1 L445.2 253.7" stroke="#e0556b" stroke-width="1.6"/>
<path d="M503.7 34.5 L510.1 40.9 M503.7 40.9 L510.1 34.5" stroke="#e0556b" stroke-width="1.6"/>
<path d="M386.9 82.2 L393.3 88.6 M386.9 88.6 L393.3 82.2" stroke="#e0556b" stroke-width="1.6"/>
<path d="M370.7 151.9 L377.1 158.3 M370.7 158.3 L377.1 151.9" stroke="#e0556b" stroke-width="1.6"/>
<circle cx="521.2" cy="125.1" r="3.4" fill="#2ec26b" opacity="0.85"/>
<circle cx="412.5" cy="234.7" r="3.4" fill="#2ec26b" opacity="0.85"/>
<circle cx="457.4" cy="246.0" r="3.4" fill="#2ec26b" opacity="0.85"/>
<path d="M413.4 63.5 L419.8 69.9 M413.4 69.9 L419.8 63.5" stroke="#e0556b" stroke-width="1.6"/>
<path d="M406.0 76.3 L412.4 82.7 M406.0 82.7 L412.4 76.3" stroke="#e0556b" stroke-width="1.6"/>
<path d="M506.6 155.4 L513.0 161.8 M506.6 161.8 L513.0 155.4" stroke="#e0556b" stroke-width="1.6"/>
<path d="M373.6 141.8 L380.0 148.2 M373.6 148.2 L380.0 141.8" stroke="#e0556b" stroke-width="1.6"/>
<path d="M512.3 166.8 L518.7 173.2 M512.3 173.2 L518.7 166.8" stroke="#e0556b" stroke-width="1.6"/>
<path d="M478.2 72.8 L484.6 79.2 M478.2 79.2 L484.6 72.8" stroke="#e0556b" stroke-width="1.6"/>
<path d="M435.2 47.2 L441.6 53.6 M435.2 53.6 L441.6 47.2" stroke="#e0556b" stroke-width="1.6"/>
<path d="M367.1 154.7 L373.5 161.1 M367.1 161.1 L373.5 154.7" stroke="#e0556b" stroke-width="1.6"/>
<path d="M445.0 258.6 L451.4 265.0 M445.0 265.0 L451.4 258.6" stroke="#e0556b" stroke-width="1.6"/>
<circle cx="493.6" cy="37.6" r="3.4" fill="#2ec26b" opacity="0.85"/>
<circle cx="514.7" cy="39.7" r="3.4" fill="#2ec26b" opacity="0.85"/>
<circle cx="516.7" cy="134.5" r="3.4" fill="#2ec26b" opacity="0.85"/>
<path d="M515.1 129.9 L521.5 136.3 M515.1 136.3 L521.5 129.9" stroke="#e0556b" stroke-width="1.6"/>
<path d="M391.8 84.3 L398.2 90.7 M391.8 90.7 L398.2 84.3" stroke="#e0556b" stroke-width="1.6"/>
<circle cx="529.6" cy="269.7" r="3.4" fill="#2ec26b" opacity="0.85"/>
<path d="M484.9 180.7 L491.3 187.1 M484.9 187.1 L491.3 180.7" stroke="#e0556b" stroke-width="1.6"/>
<circle cx="387.5" cy="92.1" r="3.4" fill="#2ec26b" opacity="0.85"/>
<path d="M495.4 118.8 L501.8 125.2 M495.4 125.2 L501.8 118.8" stroke="#e0556b" stroke-width="1.6"/>
<path d="M385.9 197.8 L392.3 204.2 M385.9 204.2 L392.3 197.8" stroke="#e0556b" stroke-width="1.6"/>
<path d="M521.4 271.8 L527.8 278.2 M521.4 278.2 L527.8 271.8" stroke="#e0556b" stroke-width="1.6"/>
<path d="M508.4 179.3 L514.8 185.7 M508.4 185.7 L514.8 179.3" stroke="#e0556b" stroke-width="1.6"/>
<circle cx="457.3" cy="38.7" r="3.4" fill="#2ec26b" opacity="0.85"/>
<circle cx="402.9" cy="67.2" r="3.4" fill="#2ec26b" opacity="0.85"/>
<path d="M414.3 64.0 L420.7 70.4 M414.3 70.4 L420.7 64.0" stroke="#e0556b" stroke-width="1.6"/>
<path d="M408.6 239.1 L415.0 245.5 M408.6 245.5 L415.0 239.1" stroke="#e0556b" stroke-width="1.6"/>
<path d="M501.9 35.5 L508.3 41.9 M501.9 41.9 L508.3 35.5" stroke="#e0556b" stroke-width="1.6"/>
<path d="M493.0 182.1 L499.4 188.5 M493.0 188.5 L499.4 182.1" stroke="#e0556b" stroke-width="1.6"/>
<path d="M429.6 54.3 L436.0 60.7 M429.6 60.7 L436.0 54.3" stroke="#e0556b" stroke-width="1.6"/>
<path d="M372.0 208.7 L378.4 215.1 M372.0 215.1 L378.4 208.7" stroke="#e0556b" stroke-width="1.6"/>
<circle cx="470.9" cy="41.1" r="3.4" fill="#2ec26b" opacity="0.85"/>
<path d="M427.1 47.2 L433.5 53.6 M427.1 53.6 L433.5 47.2" stroke="#e0556b" stroke-width="1.6"/>
<circle cx="519.6" cy="147.9" r="3.4" fill="#2ec26b" opacity="0.85"/>
<path d="M507.4 121.9 L513.8 128.3 M507.4 128.3 L513.8 121.9" stroke="#e0556b" stroke-width="1.6"/>
<path d="M407.2 248.0 L413.6 254.4 M407.2 254.4 L413.6 248.0" stroke="#e0556b" stroke-width="1.6"/>
<path d="M507.0 71.5 L513.4 77.9 M507.0 77.9 L513.4 71.5" stroke="#e0556b" stroke-width="1.6"/>
<circle cx="412.5" cy="256.8" r="3.4" fill="#2ec26b" opacity="0.85"/>
<path d="M492.0 270.0 L498.4 276.4 M492.0 276.4 L498.4 270.0" stroke="#e0556b" stroke-width="1.6"/>
<circle cx="488.7" cy="143.6" r="3.4" fill="#2ec26b" opacity="0.85"/>
<path d="M389.3 62.2 L395.7 68.6 M389.3 68.6 L395.7 62.2" stroke="#e0556b" stroke-width="1.6"/>
<circle cx="506.9" cy="165.8" r="3.4" fill="#2ec26b" opacity="0.85"/>
<circle cx="479.3" cy="103.2" r="3.4" fill="#2ec26b" opacity="0.85"/>
<circle cx="506.1" cy="195.0" r="3.4" fill="#2ec26b" opacity="0.85"/>
<path d="M396.6 46.6 L403.0 53.0 M396.6 53.0 L403.0 46.6" stroke="#e0556b" stroke-width="1.6"/>
<circle cx="468.8" cy="165.1" r="3.4" fill="#2ec26b" opacity="0.85"/>
<path d="M520.7 35.9 L527.1 42.3 M520.7 42.3 L527.1 35.9" stroke="#e0556b" stroke-width="1.6"/>
<path d="M495.6 197.5 L502.0 203.9 M495.6 203.9 L502.0 197.5" stroke="#e0556b" stroke-width="1.6"/>
<path d="M425.0 85.0 L431.4 91.4 M425.0 91.4 L431.4 85.0" stroke="#e0556b" stroke-width="1.6"/>
<path d="M373.1 66.5 L379.5 72.9 M373.1 72.9 L379.5 66.5" stroke="#e0556b" stroke-width="1.6"/>
<circle cx="509.3" cy="155.1" r="3.4" fill="#2ec26b" opacity="0.85"/>
<circle cx="510.6" cy="159.3" r="3.4" fill="#2ec26b" opacity="0.85"/>
<path d="M451.5 55.7 L457.9 62.1 M451.5 62.1 L457.9 55.7" stroke="#e0556b" stroke-width="1.6"/>
<circle cx="483.8" cy="159.3" r="3.4" fill="#2ec26b" opacity="0.85"/>
<path d="M483.1 143.3 L489.5 149.7 M483.1 149.7 L489.5 143.3" stroke="#e0556b" stroke-width="1.6"/>
<circle cx="510.9" cy="135.2" r="3.4" fill="#2ec26b" opacity="0.85"/>
<path d="M410.4 239.5 L416.8 245.9 M410.4 245.9 L416.8 239.5" stroke="#e0556b" stroke-width="1.6"/>
<path d="M517.5 270.8 L523.9 277.2 M517.5 277.2 L523.9 270.8" stroke="#e0556b" stroke-width="1.6"/>
<path d="M507.0 132.7 L513.4 139.1 M507.0 139.1 L513.4 132.7" stroke="#e0556b" stroke-width="1.6"/>
<circle cx="506.1" cy="138.0" r="3.4" fill="#2ec26b" opacity="0.85"/>
<circle cx="461.5" cy="183.6" r="3.4" fill="#2ec26b" opacity="0.85"/>
<circle cx="450.9" cy="44.8" r="3.4" fill="#2ec26b" opacity="0.85"/>
<circle cx="502.9" cy="38.3" r="3.4" fill="#2ec26b" opacity="0.85"/>
<circle cx="436.8" cy="261.1" r="3.4" fill="#2ec26b" opacity="0.85"/>
<circle cx="376.8" cy="176.4" r="3.4" fill="#2ec26b" opacity="0.85"/>
<circle cx="509.0" cy="250.4" r="3.4" fill="#2ec26b" opacity="0.85"/>
<path d="M382.5 212.3 L388.9 218.7 M382.5 218.7 L388.9 212.3" stroke="#e0556b" stroke-width="1.6"/>
<path d="M490.4 169.6 L496.8 176.0 M490.4 176.0 L496.8 169.6" stroke="#e0556b" stroke-width="1.6"/>
<path d="M367.1 96.3 L373.5 102.7 M367.1 102.7 L373.5 96.3" stroke="#e0556b" stroke-width="1.6"/>
<circle cx="510.6" cy="90.9" r="3.4" fill="#2ec26b" opacity="0.85"/>
<path d="M500.1 149.0 L506.5 155.4 M500.1 155.4 L506.5 149.0" stroke="#e0556b" stroke-width="1.6"/>
<path d="M388.5 69.4 L394.9 75.8 M388.5 75.8 L394.9 69.4" stroke="#e0556b" stroke-width="1.6"/>
<path d="M486.4 141.8 L492.8 148.2 M486.4 148.2 L492.8 141.8" stroke="#e0556b" stroke-width="1.6"/>
<path d="M430.4 255.0 L436.8 261.4 M430.4 261.4 L436.8 255.0" stroke="#e0556b" stroke-width="1.6"/>
<path d="M483.1 168.9 L489.5 175.3 M483.1 175.3 L489.5 168.9" stroke="#e0556b" stroke-width="1.6"/>
<path d="M500.1 125.4 L506.5 131.8 M500.1 131.8 L506.5 125.4" stroke="#e0556b" stroke-width="1.6"/>
<circle cx="487.1" cy="165.7" r="3.4" fill="#2ec26b" opacity="0.85"/>
<circle cx="496.8" cy="172.8" r="3.4" fill="#2ec26b" opacity="0.85"/>
<path d="M432.3 48.7 L438.7 55.1 M432.3 55.1 L438.7 48.7" stroke="#e0556b" stroke-width="1.6"/>
<circle cx="494.7" cy="138.0" r="3.4" fill="#2ec26b" opacity="0.85"/>
<circle cx="377.8" cy="123.4" r="3.4" fill="#2ec26b" opacity="0.85"/>
<circle cx="506.7" cy="177.5" r="3.4" fill="#2ec26b" opacity="0.85"/>
<path d="M450.8 149.4 L457.2 155.8 M450.8 155.8 L457.2 149.4" stroke="#e0556b" stroke-width="1.6"/>
<circle cx="505.1" cy="157.6" r="3.4" fill="#2ec26b" opacity="0.85"/>
<path d="M452.5 171.4 L458.9 177.8 M452.5 177.8 L458.9 171.4" stroke="#e0556b" stroke-width="1.6"/>
<circle cx="437.0" cy="49.3" r="3.4" fill="#2ec26b" opacity="0.85"/>
<path d="M516.5 134.4 L522.9 140.8 M516.5 140.8 L522.9 134.4" stroke="#e0556b" stroke-width="1.6"/>
<path d="M482.5 64.7 L488.9 71.1 M482.5 71.1 L488.9 64.7" stroke="#e0556b" stroke-width="1.6"/>
<circle cx="503.5" cy="122.7" r="3.4" fill="#2ec26b" opacity="0.85"/>
<path d="M402.1 68.2 L408.5 74.6 M402.1 74.6 L408.5 68.2" stroke="#e0556b" stroke-width="1.6"/>
<circle cx="506.7" cy="177.5" r="3.4" fill="#2ec26b" opacity="0.85"/>
<path d="M506.0 144.4 L512.4 150.8 M506.0 150.8 L512.4 144.4" stroke="#e0556b" stroke-width="1.6"/>
<path d="M516.5 176.4 L522.9 182.8 M516.5 182.8 L522.9 176.4" stroke="#e0556b" stroke-width="1.6"/>
<path d="M398.1 226.2 L404.5 232.6 M398.1 232.6 L404.5 226.2" stroke="#e0556b" stroke-width="1.6"/>
<circle cx="515.0" cy="181.5" r="3.4" fill="#2ec26b" opacity="0.85"/>
<circle cx="510.9" cy="157.3" r="3.4" fill="#2ec26b" opacity="0.85"/>
<path d="M505.8 141.1 L512.2 147.5 M505.8 147.5 L512.2 141.1" stroke="#e0556b" stroke-width="1.6"/>
<path d="M507.7 149.1 L514.1 155.5 M507.7 155.5 L514.1 149.1" stroke="#e0556b" stroke-width="1.6"/>
<circle cx="505.3" cy="148.7" r="3.4" fill="#2ec26b" opacity="0.85"/>
<path d="M336.3 190.9 L342.7 197.3 M336.3 197.3 L342.7 190.9" stroke="#e0556b" stroke-width="1.6"/>
<circle cx="504.5" cy="174.4" r="3.4" fill="#2ec26b" opacity="0.85"/>
<circle cx="509.3" cy="170.1" r="3.4" fill="#2ec26b" opacity="0.85"/>
<circle cx="368.2" cy="193.6" r="3.4" fill="#2ec26b" opacity="0.85"/>
<path d="M506.1 176.9 L512.5 183.3 M506.1 183.3 L512.5 176.9" stroke="#e0556b" stroke-width="1.6"/>
<circle cx="508.5" cy="184.3" r="3.4" fill="#2ec26b" opacity="0.85"/>
<circle cx="505.0" cy="126.5" r="3.4" fill="#2ec26b" opacity="0.85"/>
<path d="M397.1 57.1 L403.5 63.5 M397.1 63.5 L403.5 57.1" stroke="#e0556b" stroke-width="1.6"/>
<path d="M388.2 79.9 L394.6 86.3 M388.2 86.3 L394.6 79.9" stroke="#e0556b" stroke-width="1.6"/>
<path d="M378.5 76.3 L384.9 82.7 M378.5 82.7 L384.9 76.3" stroke="#e0556b" stroke-width="1.6"/>
<path d="M382.5 218.7 L388.9 225.1 M382.5 225.1 L388.9 218.7" stroke="#e0556b" stroke-width="1.6"/>
<path d="M481.5 153.2 L487.9 159.6 M481.5 159.6 L487.9 153.2" stroke="#e0556b" stroke-width="1.6"/>
<path d="M398.7 242.9 L405.1 249.3 M398.7 249.3 L405.1 242.9" stroke="#e0556b" stroke-width="1.6"/>
<circle cx="509.0" cy="148.6" r="3.4" fill="#2ec26b" opacity="0.85"/>
<circle cx="508.2" cy="36.8" r="3.4" fill="#2ec26b" opacity="0.85"/>
<circle cx="500.1" cy="156.4" r="3.4" fill="#2ec26b" opacity="0.85"/>
<path d="M448.2 233.7 L454.6 240.1 M448.2 240.1 L454.6 233.7" stroke="#e0556b" stroke-width="1.6"/>
<path d="M472.9 154.1 L479.3 160.5 M472.9 160.5 L479.3 154.1" stroke="#e0556b" stroke-width="1.6"/>
<path d="M376.3 218.9 L382.7 225.3 M376.3 225.3 L382.7 218.9" stroke="#e0556b" stroke-width="1.6"/>
<path d="M500.5 151.9 L506.9 158.3 M500.5 158.3 L506.9 151.9" stroke="#e0556b" stroke-width="1.6"/>
<circle cx="510.2" cy="155.1" r="3.4" fill="#2ec26b" opacity="0.85"/>
<path d="M488.2 151.8 L494.6 158.2 M488.2 158.2 L494.6 151.8" stroke="#e0556b" stroke-width="1.6"/>
<path d="M414.4 121.6 L420.8 128.0 M414.4 128.0 L420.8 121.6" stroke="#e0556b" stroke-width="1.6"/>
<circle cx="375.0" cy="177.3" r="3.4" fill="#2ec26b" opacity="0.85"/>
<path d="M516.5 33.3 L522.9 39.7 M516.5 39.7 L522.9 33.3" stroke="#e0556b" stroke-width="1.6"/>
<circle cx="503.3" cy="164.3" r="3.4" fill="#2ec26b" opacity="0.85"/>
<path d="M451.5 39.3 L457.9 45.7 M451.5 45.7 L457.9 39.3" stroke="#e0556b" stroke-width="1.6"/>
<circle cx="427.9" cy="182.0" r="3.4" fill="#2ec26b" opacity="0.85"/>
<path d="M500.1 190.2 L506.5 196.6 M500.1 196.6 L506.5 190.2" stroke="#e0556b" stroke-width="1.6"/>
<circle cx="510.2" cy="143.7" r="3.4" fill="#2ec26b" opacity="0.85"/>
<path d="M508.6 31.6 L515.0 38.0 M508.6 38.0 L515.0 31.6" stroke="#e0556b" stroke-width="1.6"/>
<path d="M496.4 119.9 L502.8 126.3 M496.4 126.3 L502.8 119.9" stroke="#e0556b" stroke-width="1.6"/>
<path d="M460.7 156.9 L467.1 163.3 M460.7 163.3 L467.1 156.9" stroke="#e0556b" stroke-width="1.6"/>
<path d="M506.1 134.8 L512.5 141.2 M506.1 141.2 L512.5 134.8" stroke="#e0556b" stroke-width="1.6"/>
<path d="M458.0 44.3 L464.4 50.7 M458.0 50.7 L464.4 44.3" stroke="#e0556b" stroke-width="1.6"/>
<path d="M392.6 67.9 L399.0 74.3 M392.6 74.3 L399.0 67.9" stroke="#e0556b" stroke-width="1.6"/>
<circle cx="465.5" cy="42.7" r="3.4" fill="#2ec26b" opacity="0.85"/>
</svg>