<svg xmlns="http://www.w3.org/2000/svg" width="560" height="300" font-family="sans-serif">
<rect x="0" y="0" width="560" height="300" fill="#1b1b1b"/>
<text x="20" y="16" fill="#ddd" font-size="13">F. Terra (DSC) — 248 tiros, Clasificatorio</text>
<rect x="20" y="28" width="520" height="252" fill="none" stroke="#555"/>
<path d="M509.9 90.6 L516.3 97.0 M509.9 97.0 L516.3 90.6" stroke="#e0556b" stroke-width="1.6"/>
<path d="M380.9 237.9 L387.3 244.3 M380.9 244.3 L387.3 237.9" stroke="#e0556b" stroke-width="1.6"/>
<circle cx="501.7" cy="118.0" r="3.4" fill="#2ec26b" opacity="0.85"/>
<path d="M303.3 153.4 L309.7 159.8 M303.3 159.8 L309.7 153.4" stroke="#e0556b" stroke-width="1.6"/>
<path d="M501.3 139.8 L507.7 146.2 M501.3 146.2 L507.7 139.8" stroke="#e0556b" stroke-width="1.6"/>
<path d="M359.3 77.9 L365.7 84.3 M359.3 84.3 L365.7 77.9" stroke="#e0556b" stroke-width="1.6"/>
<circle cx="377.9" cy="71.1" r="3.4" fill="#2ec26b" opacity="0.85"/>
<circle cx="504.5" cy="163.0" r="3.4" fill="#2ec26b" opacity="0.85"/>
<path d="M511.0 154.1 L517.4 160.5 M511.0 160.5 L517.4 154.1" stroke="#e0556b" stroke-width="1.6"/>
<path d="M510.7 132.6 L517.1 139.0 M510.7 139.0 L517.1 132.6" stroke="#e0556b" stroke-width="1.6"/>
<circle cx="455.4" cy="94.5" r="3.4" fill="#2ec26b" opacity="0.85"/>
<circle cx="426.3" cy="253.2" r="3.4" fill="#2ec26b" opacity="0.85"/>
<path d="M508.3 133.3 L514.7 139.7 M508.3 139.7 L514.7 133.3" stroke="#e0556b" stroke-width="1.6"/>
<circle cx="387.6" cy="70.4" r="3.4" fill="#2ec26b" opacity="0.85"/>
<path d="M509.4 162.6 L515.8 169.0 M509.4 169.0 L515.8 162.6" stroke="#e0556b" stroke-width="1.6"/>
<path d="M373.1 97.8 L379.5 104.2 M373.1 104.2 L379.5 97.8" stroke="#e0556b" stroke-width="1.6"/>
<circle cx="441.2" cy="187.9" r="3.4" fill="#2ec26b" opacity="0.85"/>
<circle cx="364.9" cy="161.5" r="3.4" fill="#2ec26b" opacity="0.85"/>
<path d="M438.8 185.4 L445.2 191.8 M438.8 191.8 L445.2 185.4" stroke="#e0556b" stroke-width="1.6"/>
<path d="M444.5 193.9 L450.9 200.3 M444.5 200.3 L450.9 193.9" stroke="#e0556b" stroke-width="1.6"/>
<circle cx="371.4" cy="180.1" r="3.4" fill="#2ec26b" opacity="0.85"/>
<circle cx="450.6" cy="190.6" r="3.4" fill="#2ec26b" opacity="0.85"/>
<circle cx="370.3" cy="201.3" r="3.4" fill="#2ec26b" opacity="0.85"/>
<path d="M483.9 112.6 L490.3 119.0 M483.9 119.0 L490.3 112.6" stroke="#e0556b" stroke-width="1.6"/>
<path d="M505.0 208.7 L511.4 215.1 M505.0 215.1 L511.4 208.7" stroke="#e0556b" stroke-width="1.6"/>
<path d="M367.1 172.4 L373.5 178.8 M367.1 178.8 L373.5 172.4" stroke="#e0556b" stroke-width="1.6"/>
<circle cx="493.6" cy="162.1" r="3.4" fill="#2ec26b" opacity="0.85"/>
<circle cx="412.5" cy="174.2" r="3.4" fill="#2ec26b" opacity="0.85"/>
<path d="M449.9 104.1 L456.3 110.5 M449.9 110.5 L456.3 104.1" stroke="#e0556b" stroke-width="1.6"/>
<circle cx="378.4" cy="226.9" r="3.4" fill="#2ec26b" opacity="0.85"/>
<path d="M399.5 242.9 L405.9 249.3 M399.5 249.3 L405.9 242.9" stroke="#e0556b" stroke-width="1.6"/>
<path d="M513.1 272.1 L519.5 278.5 M513.1 278.5 L519.5 272.1" stroke="#e0556b" stroke-width="1.6"/>
<path d="M424.7 191.6 L431.1 198.0 M424.7 198.0 L431.1 191.6" stroke="#e0556b" stroke-width="1.6"/>
<circle cx="446.6" cy="207.7" r="3.4" fill="#2ec26b" opacity="0.85"/>
<circle cx="511.8" cy="155.8" r="3.4" fill="#2ec26b" opacity="0.85"/>
<path d="M361.7 63.0 L368.1 69.4 M361.7 69.4 L368.1 63.0" stroke="#e0556b" stroke-width="1.6"/>
<circle cx="436.0" cy="257.5" r="3.4" fill="#2ec26b" opacity="0.85"/>
<path d="M410.1 239.4 L416.5 245.8 M410.1 245.8 L416.5 239.4" stroke="#e0556b" stroke-width="1.6"/>
<path d="M492.8 129.7 L499.2 136.1 M492.8 136.1 L499.2 129.7" stroke="#e0556b" stroke-width="1.6"/>
<circle cx="514.7" cy="147.9" r="3.4" fill="#2ec26b" opacity="0.85"/>
<circle cx="419.3" cy="259.1" r="3.4" fill="#2ec26b" opacity="0.85"/>
<path d="M353.6 180.4 L360.0 186.8 M353.6 186.8 L360.0 180.4" stroke="#e0556b" stroke-width="1.6"/>
<path d="M495.6 118.5 L502.0 124.9 M495.6 124.9 L502.0 118.5" stroke="#e0556b" stroke-width="1.6"/>
<path d="M493.2 165.5 L499.6 171.9 M493.2 171.9 L499.6 165.5" stroke="#e0556b" stroke-width="1.6"/>
<path d="M496.1 158.9 L502.5 165.3 M496.1 165.3 L502.5 158.9" stroke="#e0556b" stroke-width="1.6"/>
<path d="M487.1 152.5 L493.5 158.9 M487.1 158.9 L493.5 152.5" stroke="#e0556b" stroke-width="1.6"/>
<circle cx="368.7" cy="150.7" r="3.4" fill="#2ec26b" opacity="0.85"/>
<path d="M389.0 88.4 L395.4 94.8 M389.0 94.8 L395.4 88.4" stroke="#e0556b" stroke-width="1.6"/>
<path d="M381.7 95.6 L388.1 102.0 M381.7 102.0 L388.1 95.6" stroke="#e0556b" stroke-width="1.6"/>
<circle cx="358.1" cy="165.0" r="3.4" fill="#2ec26b" opacity="0.85"/>
<circle cx="364.1" cy="198.6" r="3.4" fill="#2ec26b" opacity="0.85"/>
<path d="M506.1 155.5 L512.5 161.9 M506.1 161.9 L512.5 155.5" stroke="#e0556b" stroke-width="1.6"/>
<circle cx="472.0" cy="168.7" r="3.4" fill="#2ec26b" opacity="0.85"/>
<circle cx="393.0" cy="225.5" r="3.4" fill="#2ec26b" opacity="0.85"/>
<circle cx="507.4" cy="119.4" r="3.4" fill="#2ec26b" opacity="0.85"/>
<circle cx="477.4" cy="226.9" r="3.4" fill="#2ec26b" opacity="0.85"/>
<path d="M390.6 253.6 L397.0 260.0 M390.6 260.0 L397.0 253.6" stroke="#e0556b" stroke-width="1.6"/>
<path d="M444.1 96.3 L450.5 102.7 M444.1 102.7 L450.5 96.3" stroke="#e0556b" stroke-width="1.6"/>
<circle cx="453.1" cy="260.3" r="3.4" fill="#2ec26b" opacity="0.85"/>
<path d="M489.9 182.6 L496.3 189.0 M489.9 189.0 L496.3 182.6" stroke="#e0556b" stroke-width="1.6"/>
<circle cx="508.8" cy="154.0" r="3.4" fill="#2ec26b" opacity="0.85"/>
<path d="M369.8 223.1 L376.2 229.5 M369.8 229.5 L376.2 223.1" stroke="#e0556b" stroke-width="1.6"/>
<circle cx="512.6" cy="155.1" r="3.4" fill="#2ec26b" opacity="0.85"/>
<path d="M429.9 251.6 L436.3 258.0 M429.9 258.0 L436.3 251.6" stroke="#e0556b" stroke-width="1.6"/>
<path d="M416.9 41.6 L423.3 48.0 M416.9 48.0 L423.3 41.6" stroke="#e0556b" stroke-width="1.6"/>
<path d="M417.7 107.8 L424.1 114.2 M417.7 114.2 L424.1 107.8" stroke="#e0556b" stroke-width="1.6"/>
<circle cx="517.4" cy="145.9" r="3.4" fill="#2ec26b" opacity="0.85"/>
<circle cx="407.9" cy="66.2" r="3.4" fill="#2ec26b" opacity="0.85"/>
<path d="M429.1 257.3 L435.5 263.7 M429.1 263.7 L435.5 257.3" stroke="#e0556b" stroke-width="1.6"/>
<circle cx="514.2" cy="145.9" r="3.4" fill="#2ec26b" opacity="0.85"/>
<path d="M414.1 68.5 L420.5 74.9 M414.1 74.9 L420.5 68.5" stroke="#e0556b" stroke-width="1.6"/>
<path d="M504.2 178.8 L510.6 185.2 M504.2 185.2 L510.6 178.8" stroke="#e0556b" stroke-width="1.6"/>
<circle cx="509.0" cy="155.0" r="3.4" fill="#2ec26b" opacity="0.85"/>
<path d="M494.5 171.0 L500.9 177.4 M494.5 177.4 L500.9 171.0" stroke="#e0556b" stroke-width="1.6"/>
<circle cx="516.3" cy="164.3" r="3.4" fill="#2ec26b" opacity="0.85"/>
<circle cx="514.2" cy="118.1" r="3.4" fill="#2ec26b" opacity="0.85"/>
<path d="M515.1 154.1 L521.5 160.5 M515.1 160.5 L521.5 154.1" stroke="#e0556b" stroke-width="1.6"/>
<path d="M400.7 224.6 L407.1 231.0 M400.7 231.0 L407.1 224.6" stroke="#e0556b" stroke-width="1.6"/>
<path d="M501.3 133.4 L507.7 139.8 M501.3 139.8 L507.7 133.4" stroke="#e0556b" stroke-width="1.6"/>
<path d="M511.0 126.3 L517.4 132.7 M511.0 132.7 L517.4 126.3" stroke="#e0556b" stroke-width="1.6"/>
<path d="M483.4 156.9 L489.8 163.3 M483.4 163.3 L489.8 156.9" stroke="#e0556b" stroke-width="1.6"/>
<path d="M468.0 131.3 L474.4 137.7 M468.0 137.7 L474.4 131.3" stroke="#e0556b" stroke-width="1.6"/>
<circle cx="370.3" cy="150.0" r="3.4" fill="#2ec26b" opacity="0.85"/>
<path d="M401.2 242.9 L407.6 249.3 M401.2 249.3 L407.6 242.9" stroke="#e0556b" stroke-width="1.6"/>
<path d="M356.6 128.3 L363.0 134.7 M356.6 134.7 L363.0 128.3" stroke="#e0556b" stroke-width="1.6"/>
<path d="M386.6 74.9 L393.0 81.3 M386.6 81.3 L393.0 74.9" stroke="#e0556b" stroke-width="1.6"/>
<path d="M406.0 57.8 L412.4 64.2 M406.0 64.2 L412.4 57.8" stroke="#e0556b" stroke-width="1.6"/>
<path d="M453.4 129.2 L459.8 135.6 M453.4 135.6 L459.8 129.2" stroke="#e0556b" stroke-width="1.6"/>
<path d="M422.6 129.9 L429.0 136.3 M422.6 136.3 L429.0 129.9" stroke="#e0556b" stroke-width="1.6"/>
<path d="M352.8 162.6 L359.2 169.0 M352.8 169.0 L359.2 162.6" stroke="#e0556b" stroke-width="1.6"/>
<path d="M496.4 105.0 L502.8 111.4 M496.4 111.4 L502.8 105.0" stroke="#e0556b" stroke-width="1.6"/>
<path d="M480.2 128.4 L486.6 134.8 M480.2 134.8 L486.6 128.4" stroke="#e0556b" stroke-width="1.6"/>
<path d="M446.1 110.0 L452.5 116.4 M446.1 116.4 L452.5 110.0" stroke="#e0556b" stroke-width="1.6"/>
<path d="M493.2 148.4 L499.6 154.8 M493.2 154.8 L499.6 148.4" stroke="#e0556b" stroke-width="1.6"/>
<path d="M342.3 125.6 L348.7 132.0 M342.3 132.0 L348.7 125.6" stroke="#e0556b" stroke-width="1.6"/>
<circle cx="378.4" cy="177.1" r="3.4" fill="#2ec26b" opacity="0.85"/>
<path d="M451.5 41.5 L457.9 47.9 M451.5 47.9 L457.9 41.5" stroke="#e0556b" stroke-width="1.6"/>
<circle cx="526.8" cy="125.1" r="3.4" fill="#2ec26b" opacity="0.85"/>
<path d="M427.1 250.0 L433.5 256.4 M427.1 256.4 L433.5 250.0" stroke="#e0556b" stroke-width="1.6"/>
<path d="M482.3 119.0 L488.7 125.4 M482.3 125.4 L488.7 119.0" stroke="#e0556b" stroke-width="1.6"/>
<circle cx="470.9" cy="131.5" r="3.4" fill="#2ec26b" opacity="0.85"/>
<circle cx="466.0" cy="135.1" r="3.4" fill="#2ec26b" opacity="0.85"/>
<path d="M386.6 88.4 L393.0 94.8 M386.6 94.8 L393.0 88.4" stroke="#e0556b" stroke-width="1.6"/>
<path d="M507.0 127.7 L513.4 134.1 M507.0 134.1 L513.4 127.7" stroke="#e0556b" stroke-width="1.6"/>
<path d="M498.0 181.8 L504.4 188.2 M498.0 188.2 L504.4 181.8" stroke="#e0556b" stroke-width="1.6"/>
<path d="M371.5 134.8 L377.9 141.2 M371.5 141.2 L377.9 134.8" stroke="#e0556b" stroke-width="1.6"/>
<path d="M450.2 65.8 L456.6 72.2 M450.2 72.2 L456.6 65.8" stroke="#e0556b" stroke-width="1.6"/>
<path d="M409.6 65.8 L416.0 72.2 M409.6 72.2 L416.0 65.8" stroke="#e0556b" stroke-width="1.6"/>
<circle cx="425.8" cy="60.5" r="3.4" fill="#2ec26b" opacity="0.85"/>
<circle cx="483.4" cy="153.7" r="3.4" fill="#2ec26b" opacity="0.85"/>
<circle cx="368.2" cy="165.8" r="3.4" fill="#2ec26b" opacity="0.85"/>
<circle cx="443.6" cy="208.5" r="3.4" fill="#2ec26b" opacity="0.85"/>
<circle cx="499.6" cy="140.2" r="3.4" fill="#2ec26b" opacity="0.85"/>
<circle cx="504.5" cy="140.2" r="3.4" fill="#2ec26b" opacity="0.85"/>
<path d="M380.4 87.2 L386.8 93.6 M380.4 93.6 L386.8 87.2" stroke="#e0556b" stroke-width="1.6"/>
<path d="M498.5 163.9 L504.9 170.3 M498.5 170.3 L504.9 163.9" stroke="#e0556b" stroke-width="1.6"/>
<path d="M444.1 195.2 L450.5 201.6 M444.1 201.6 L450.5 195.2" stroke="#e0556b" stroke-width="1.6"/>
<path d="M489.6 139.0 L496.0 145.4 M489.6 145.4 L496.0 139.0" stroke="#e0556b" stroke-width="1.6"/>
<path d="M384.1 201.6 L390.5 208.0 M384.1 208.0 L390.5 201.6" stroke="#e0556b" stroke-width="1.6"/>
<path d="M372.8 207.3 L379.2 213.7 M372.8 213.7 L379.2 207.3" stroke="#e0556b" stroke-width="1.6"/>
<path d="M371.1 130.4 L377.5 136.8 M371.1 136.8 L377.5 130.4" stroke="#e0556b" stroke-width="1.6"/>
<circle cx="500.1" cy="140.8" r="3.4" fill="#2ec26b" opacity="0.85"/>
<path d="M422.6 119.2 L429.0 125.6 M422.6 125.6 L429.0 119.2" stroke="#e0556b" stroke-width="1.6"/>
<path d="M532.9 175.4 L539.3 181.8 M532.9 181.8 L539.3 175.4" stroke="#e0556b" stroke-width="1.6"/>
<path d="M455.8 78.6 L462.2 85.0 M455.8 85.0 L462.2 78.6" stroke="#e0556b" stroke-width="1.6"/>
<path d="M488.3 157.6 L494.7 164.0 M488.3 164.0 L494.7 157.6" stroke="#e0556b" stroke-width="1.6"/>
<path d="M425.8 126.3 L432.2 132.7 M425.8 132.7 L432.2 126.3" stroke="#e0556b" stroke-width="1.6"/>
<circle cx="515.0" cy="140.2" r="3.4" fill="#2ec26b" opacity="0.85"/>
<circle cx="515.0" cy="171.5" r="3.4" fill="#2ec26b" opacity="0.85"/>
<circle cx="517.4" cy="165.1" r="3.4" fill="#2ec26b" opacity="0.85"/>
<circle cx="400.6" cy="222.8" r="3.4" fill="#2ec26b" opacity="0.85"/>
<path d="M365.6 115.9 L372.0 122.3 M365.6 122.3 L372.0 115.9" stroke="#e0556b" stroke-width="1.6"/>
<circle cx="435.4" cy="55.0" r="3.4" fill="#2ec26b" opacity="0.85"/>
<circle cx="445.9" cy="200.3" r="3.4" fill="#2ec26b" opacity="0.85"/>
<circle cx="368.8" cy="119.1" r="3.4" fill="#2ec26b" opacity="0.85"/>
<circle cx="506.7" cy="176.8" r="3.4" fill="#2ec26b" opacity="0.85"/>
<circle cx="501.1" cy="173.2" r="3.4" fill="#2ec26b" opacity="0.85"/>
<path d="M372.1 166.4 L378.5 172.8 M372.1 172.8 L378.5 166.4" stroke="#e0556b" stroke-width="1.6"/>
<path d="M428.9 146.5 L435.3 152.9 M428.9 152.9 L435.3 146.5" stroke="#e0556b" stroke-width="1.6"/>
<path d="M450.8 93.8 L457.2 100.2 M450.8 100.2 L457.2 93.8" stroke="#e0556b" stroke-width="1.6"/>
<path d="M502.7 180.7 L509.1 187.1 M502.7 187.1 L509.1 180.7" stroke="#e0556b" stroke-width="1.6"/>
<circle cx="511.6" cy="159.7" r="3.4" fill="#2ec26b" opacity="0.85"/>
<path d="M511.6 159.3 L518.0 165.7 M511.6 165.7 L518.0 159.3" stroke="#e0556b" stroke-width="1.6"/>
<path d="M456.5 89.6 L462.9 96.0 M456.5 96.0 L462.9 89.6" stroke="#e0556b" stroke-width="1.6"/>
<circle cx="510.8" cy="147.6" r="3.4" fill="#2ec26b" opacity="0.85"/>
<circle cx="506.7" cy="186.7" r="3.4" fill="#2ec26b" opacity="0.85"/>
<path d="M355.9 217.7 L362.3 224.1 M355.9 224.1 L362.3 217.7" stroke="#e0556b" stroke-width="1.6"/>
<circle cx="358.3" cy="160.4" r="3.4" fill="#2ec26b" opacity="0.85"/>
<circle cx="502.7" cy="171.8" r="3.4" fill="#2ec26b" opacity="0.85"/>
<path d="M402.1 222.0 L408.5 228.4 M402.1 228.4 L408.5 222.0" stroke="#e0556b" stroke-width="1.6"/>
<circle cx="461.3" cy="235.1" r="3.4" fill="#2ec26b" opacity="0.85"/>
<path d="M510.0 130.2 L516.4 136.6 M510.0 136.6 L516.4 130.2" stroke="#e0556b" stroke-width="1.6"/>
<circle cx="494.4" cy="156.4" r="3.4" fill="#2ec26b" opacity="0.85"/>
<path d="M487.1 180.3 L493.5 186.7 M487.1 186.7 L493.5 180.3" stroke="#e0556b" stroke-width="1.6"/>
<path d="M456.3 121.9 L462.7 128.3 M456.3 128.3 L462.7 121.9" stroke="#e0556b" stroke-width="1.6"/>
<path d="M474.2 111.2 L480.6 117.6 M474.2 117.6 L480.6 111.2" stroke="#e0556b" stroke-width="1.6"/>
<path d="M444.1 187.4 L450.5 193.8 M444.1 193.8 L450.5 187.4" stroke="#e0556b" stroke-width="1.6"/>
<path d="M504.2 92.7 L510.6 99.1 M504.2 99.1 L510.6 92.7" stroke="#e0556b" stroke-width="1.6"/>
<path d="M402.0 61.4 L408.4 67.8 M402.0 67.8 L408.4 61.4" stroke="#e0556b" stroke-width="1.6"/>
<circle cx="384.4" cy="70.4" r="3.4" fill="#2ec26b" opacity="0.85"/>
<path d="M385.3 65.8 L391.7 72.2 M385.3 72.2 L391.7 65.8" stroke="#e0556b" stroke-width="1.6"/>
<circle cx="416.9" cy="160.1" r="3.4" fill="#2ec26b" opacity="0.85"/>
<path d="M412.1 117.1 L418.5 123.5 M412.1 123.5 L418.5 117.1" stroke="#e0556b" stroke-width="1.6"/>
<circle cx="510.9" cy="174.4" r="3.4" fill="#2ec26b" opacity="0.85"/>
<path d="M365.8 182.6 L372.2 189.0 M365.8 189.0 L372.2 182.6" stroke="#e0556b" stroke-width="1.6"/>
<path d="M439.6 95.7 L446.0 102.1 M439.6 102.1 L446.0 95.7" stroke="#e0556b" stroke-width="1.6"/>
<path d="M399.1 229.5 L405.5 235.9 M399.1 235.9 L405.5 229.5" stroke="#e0556b" stroke-width="1.6"/>
<circle cx="495.5" cy="168.7" r="3.4" fill="#2ec26b" opacity="0.85"/>
<path d="M386.7 47.6 L393.1 54.0 M386.7 54.0 L393.1 47.6" stroke="#e0556b" stroke-width="1.6"/>
<path d="M514.1 119.5 L520.5 125.9 M514.1 125.9 L520.5 119.5" stroke="#e0556b" stroke-width="1.6"/>
<path d="M424.8 253.3 L431.2 259.7 M424.8 259.7 L431.2 253.3" stroke="#e0556b" stroke-width="1.6"/>
<path d="M454.1 39.7 L460.5 46.1 M454.1 46.1 L460.5 39.7" stroke="#e0556b" stroke-width="1.6"/>
<path d="M420.8 188.5 L427.2 194.9 M420.8 194.9 L427.2 188.5" stroke="#e0556b" stroke-width="1.6"/>
<path d="M504.4 149.4 L510.8 155.8 M504.4 155.8 L510.8 149.4" stroke="#e0556b" stroke-width="1.6"/>
<path d="M497.1 267.6 L503.5 274.0 M497.1 274.0 L503.5 267.6" stroke="#e0556b" stroke-width="1.6"/>
<circle cx="509.2" cy="147.6" r="3.4" fill="#2ec26b" opacity="0.85"/>
<circle cx="509.2" cy="136.9" r="3.4" fill="#2ec26b" opacity="0.85"/>
<circle cx="504.3" cy="160.4" r="3.4" fill="#2ec26b" opacity="0.85"/>
<circle cx="470.2" cy="126.2" r="3.4" fill="#2ec26b" opacity="0.85"/>
<circle cx="355.9" cy="127.0" r="3.4" fill="#2ec26b" opacity="0.85"/>
<path d="M345.3 137.3 L351.7 143.7 M345.3 143.7 L351.7 137.3" stroke="#e0556b" stroke-width="1.6"/>
<path d="M489.7 169.3 L496.1 175.7 M489.7 175.7 L496.1 169.3" stroke="#e0556b" stroke-width="1.6"/>
<circle cx="514.1" cy="160.4" r="3.4" fill="#2ec26b" opacity="0.85"/>
<path d="M453.2 259.0 L459.6 265.4 M453.2 265.4 L459.6 259.0" stroke="#e0556b" stroke-width="1.6"/>
<circle cx="511.5" cy="142.2" r="3.4" fill="#2ec26b" opacity="0.85"/>
<path d="M503.4 157.5 L509.8 163.9 M503.4 163.9 L509.8 157.5" stroke="#e0556b" stroke-width="1.6"/>
<path d="M412.5 236.5 L418.9 242.9 M412.5 242.9 L418.9 236.5" stroke="#e0556b" stroke-width="1.6"/>
<path d="M382.5 186.0 L388.9 192.4 M382.5 192.4 L388.9 186.0" stroke="#e0556b" stroke-width="1.6"/>
<path d="M468.5 97.7 L474.9 104.1 M468.5 104.1 L474.9 97.7" stroke="#e0556b" stroke-width="1.6"/>
<path d="M490.4 178.8 L496.8 185.2 M490.4 185.2 L496.8 178.8" stroke="#e0556b" stroke-width="1.6"/>
<circle cx="428.7" cy="59.6" r="3.4" fill="#2ec26b" opacity="0.85"/>
<circle cx="386.9" cy="103.2" r="3.4" fill="#2ec26b" opacity="0.85"/>
<circle cx="440.4" cy="255.5" r="3.4" fill="#2ec26b" opacity="0.85"/>
<circle cx="510.9" cy="165.8" r="3.4" fill="#2ec26b" opacity="0.85"/>
<path d="M371.5 133.4 L377.9 139.8 M371.5 139.8 L377.9 133.4" stroke="#e0556b" stroke-width="1.6"/>
<path d="M496.4 164.8 L502.8 171.2 M496.4 171.2 L502.8 164.8" stroke="#e0556b" stroke-width="1.6"/>
<circle cx="512.6" cy="168.7" r="3.4" fill="#2ec26b" opacity="0.85"/>
<circle cx="505.3" cy="145.9" r="3.4" fill="#2ec26b" opacity="0.85"/>
<circle cx="497.2" cy="159.4" r="3.4" fill="#2ec26b" opacity="0.85"/>
<path d="M497.2 150.5 L503.6 156.9 M497.2 156.9 L503.6 150.5" stroke="#e0556b" stroke-width="1.6"/>
<circle cx="508.5" cy="143.0" r="3.4" fill="#2ec26b" opacity="0.85"/>
<path d="M377.9 76.5 L384.3 82.9 M377.9 82.9 L384.3 76.5" stroke="#e0556b" stroke-width="1.6"/>
<circle cx="505.3" cy="151.6" r="3.4" fill="#2ec26b" opacity="0.85"/>
<path d="M360.1 105.7 L366.5 112.1 M360.1 112.1 L366.5 105.7" stroke="#e0556b" stroke-width="1.6"/>
<circle cx="406.0" cy="250.4" r="3.4" fill="#2ec26b" opacity="0.85"/>
<path d="M360.6 173.9 L367.0 180.3 M360.6 180.3 L367.0 173.9" stroke="#e0556b" stroke-width="1.6"/>
<path d="M393.1 133.3 L399.5 139.7 M393.1 139.7 L399.5 133.3" stroke="#e0556b" stroke-width="1.6"/>
<path d="M389.0 236.5 L395.4 242.9 M389.0 242.9 L395.4 236.5" stroke="#e0556b" stroke-width="1.6"/>
<path d="M465.2 110.5 L471.6 116.9 M465.2 116.9 L471.6 110.5" stroke="#e0556b" stroke-width="1.6"/>
<path d="M494.5 189.5 L500.9 195.9 M494.5 195.9 L500.9 189.5" stroke="#e0556b" stroke-width="1.6"/>
<path d="M456.3 186.0 L462.7 192.4 M456.3 192.4 L462.7 186.0" stroke="#e0556b" stroke-width="1.6"/>
<path d="M490.4 124.7 L496.8 131.1 M490.4 131.1 L496.8 124.7" stroke="#e0556b" stroke-width="1.6"/>
<path d="M436.0 48.6 L442.4 55.0 M436.0 55.0 L442.4 48.6" stroke="#e0556b" stroke-width="1.6"/>
<path d="M485.5 178.8 L491.9 185.2 M485.5 185.2 L491.9 178.8" stroke="#e0556b" stroke-width="1.6"/>
<path d="M490.4 124.0 L496.8 130.4 M490.4 130.4 L496.8 124.0" stroke="#e0556b" stroke-width="1.6"/>
<path d="M363.4 151.2 L369.8 157.6 M363.4 157.6 L369.8 151.2" stroke="#e0556b" stroke-width="1.6"/>
<circle cx="398.2" cy="234.2" r="3.4" fill="#2ec26b" opacity="0.85"/>
<path d="M437.2 191.1 L443.6 197.5 M437.2 197.5 L443.6 191.1" stroke="#e0556b" stroke-width="1.6"/>
<path d="M387.7 218.9 L394.1 225.3 M387.7 225.3 L394.1 218.9" stroke="#e0556b" stroke-width="1.6"/>
<path d="M423.4 258.0 L429.8 264.4 M423.4 264.4 L429.8 258.0" stroke="#e0556b" stroke-width="1.6"/>
<path d="M455.8 219.6 L462.2 226.0 M455.8 226.0 L462.2 219.6" stroke="#e0556b" stroke-width="1.6"/>
<path d="M446.9 261.6 L453.3 268.0 M446.9 268.0 L453.3 261.6" stroke="#e0556b" stroke-width="1.6"/>
<path d="M491.5 140.5 L497.9 146.9 M491.5 146.9 L497.9 140.5" stroke="#e0556b" stroke-width="1.6"/>
<circle cx="443.6" cy="265.5" r="3.4" fill="#2ec26b" opacity="0.85"/>
<circle cx="416.0" cy="67.6" r="3.4" fill="#2ec26b" opacity="0.85"/>
<circle cx="475.3" cy="239.9" r="3.4" fill="#2ec26b" opacity="0.85"/>
<circle cx="497.2" cy="139.5" r="3.4" fill="#2ec26b" opacity="0.85"/>
<path d="M439.6 252.3 L446.0 258.7 M439.6 258.7 L446.0 252.3" stroke="#e0556b" stroke-width="1.6"/>
<path d="M490.4 188.8 L496.8 195.2 M490.4 195.2 L496.8 188.8" stroke="#e0556b" stroke-width="1.6"/>
<path d="M452.2 190.2 L458.6 196.6 M452.2 196.6 L458.6 190.2" stroke="#e0556b" stroke-width="1.6"/>
<path d="M374.4 144.7 L380.8 151.1 M374.4 151.1 L380.8 144.7" stroke="#e0556b" stroke-width="1.6"/>
<path d="M488.8 188.1 L495.2 194.5 M488.8 194.5 L495.2 188.1" stroke="#e0556b" stroke-width="1.6"/>
<path d="M458.1 128.0 L464.5 134.4 M458.1 134.4 L464.5 128.0" stroke="#e0556b" stroke-width="1.6"/>
<path d="M346.9 96.0 L353.3 102.4 M346.9 102.4 L353.3 96.0" stroke="#e0556b" stroke-width="1.6"/>
<path d="M447.6 44.0 L454.0 50.4 M447.6 50.4 L454.0 44.0" stroke="#e0556b" stroke-width="1.6"/>
<path d="M463.0 111.6 L469.4 118.0 M463.0 118.0 L469.4 111.6" stroke="#e0556b" stroke-width="1.6"/>
<path d="M334.8 164.3 L341.2 170.7 M334.8 170.7 L341.2 164.3" stroke="#e0556b" stroke-width="1.6"/>
<circle cx="396.4" cy="228.7" r="3.4" fill="#2ec26b" opacity="0.85"/>
<path d="M507.6 146.5 L514.0 152.9 M507.6 152.9 L514.0 146.5" stroke="#e0556b" stroke-width="1.6"/>
<circle cx="389.9" cy="57.9" r="3.4" fill="#2ec26b" opacity="0.85"/>
<path d="M511.6 164.3 L518.0 170.7 M511.6 170.7 L518.0 164.3" stroke="#e0556b" stroke-width="1.6"/>
<path d="M483.9 113.4 L490.3 119.8 M483.9 119.8 L490.3 113.4" stroke="#e0556b" stroke-width="1.6"/>
<path d="M421.8 244.5 L428.2 250.9 M421.8 250.9 L428.2 244.5" stroke="#e0556b" stroke-width="1.6"/>
<path d="M501.3 182.6 L507.7 189.0 M501.3 189.0 L507.7 182.6" stroke="#e0556b" stroke-width="1.6"/>
<path d="M475.3 221.0 L481.7 227.4 M475.3 227.4 L481.7 221.0" stroke="#e0556b" stroke-width="1.6"/>
<circle cx="484.2" cy="151.6" r="3.4" fill="#2ec26b" opacity="0.85"/>
<path d="M373.1 119.9 L379.5 126.3 M373.1 126.3 L379.5 119.9" stroke="#e0556b" stroke-width="1.6"/>
<circle cx="447.7" cy="157.3" r="3.4" fill="#2ec26b" opacity="0.85"/>
</svg>