<svg xmlns="http://www.w3.org/2000/svg" width="560" height="300" font-family="sans-serif">
<rect x="0" y="0" width="560" height="300" fill="#1b1b1b"/>
<text x="20" y="16" fill="#ddd" font-size="13">J. Canty (HYM) — 200 tiros, Clasificatorio</text>
<rect x="20" y="28" width="520" height="252" fill="none" stroke="#555"/>
<circle cx="506.6" cy="159.3" r="3.4" fill="#2ec26b" opacity="0.85"/>
<circle cx="499.3" cy="156.4" r="3.4" fill="#2ec26b" opacity="0.85"/>
<circle cx="514.7" cy="145.7" r="3.4" fill="#2ec26b" opacity="0.85"/>
<path d="M476.6 147.5 L483.0 153.9 M476.6 153.9 L483.0 147.5" stroke="#e0556b" stroke-width="1.6"/>
<circle cx="518.0" cy="147.2" r="3.4" fill="#2ec26b" opacity="0.85"/>
<circle cx="489.0" cy="154.4" r="3.4" fill="#2ec26b" opacity="0.85"/>
<path d="M505.6 150.8 L512.0 157.2 M505.6 157.2 L512.0 150.8" stroke="#e0556b" stroke-width="1.6"/>
<circle cx="516.7" cy="165.1" r="3.4" fill="#2ec26b" opacity="0.85"/>
<circle cx="518.3" cy="168.7" r="3.4" fill="#2ec26b" opacity="0.85"/>
<path d="M499.6 127.0 L506.0 133.4 M499.6 133.4 L506.0 127.0" stroke="#e0556b" stroke-width="1.6"/>
<circle cx="503.3" cy="136.5" r="3.4" fill="#2ec26b" opacity="0.85"/>
<path d="M509.9 161.8 L516.3 168.2 M509.9 168.2 L516.3 161.8" stroke="#e0556b" stroke-width="1.6"/>
<path d="M421.5 138.3 L427.9 144.7 M421.5 144.7 L427.9 138.3" stroke="#e0556b" stroke-width="1.6"/>
<path d="M484.7 159.6 L491.1 166.0 M484.7 166.0 L491.1 159.6" stroke="#e0556b" stroke-width="1.6"/>
<circle cx="508.2" cy="167.1" r="3.4" fill="#2ec26b" opacity="0.85"/>
<circle cx="510.6" cy="159.3" r="3.4" fill="#2ec26b" opacity="0.85"/>
<path d="M513.1 165.3 L519.5 171.7 M513.1 171.7 L519.5 165.3" stroke="#e0556b" stroke-width="1.6"/>
<path d="M477.4 135.4 L483.8 141.8 M477.4 141.8 L483.8 135.4" stroke="#e0556b" stroke-width="1.6"/>
<path d="M472.9 154.1 L479.3 160.5 M472.9 160.5 L479.3 154.1" stroke="#e0556b" stroke-width="1.6"/>
<circle cx="510.9" cy="163.7" r="3.4" fill="#2ec26b" opacity="0.85"/>
<path d="M504.5 165.5 L510.9 171.9 M504.5 171.9 L510.9 165.5" stroke="#e0556b" stroke-width="1.6"/>
<circle cx="488.3" cy="135.2" r="3.4" fill="#2ec26b" opacity="0.85"/>
<circle cx="501.2" cy="143.0" r="3.4" fill="#2ec26b" opacity="0.85"/>
<circle cx="480.9" cy="174.4" r="3.4" fill="#2ec26b" opacity="0.85"/>
<circle cx="468.8" cy="150.1" r="3.4" fill="#2ec26b" opacity="0.85"/>
<circle cx="506.1" cy="131.6" r="3.4" fill="#2ec26b" opacity="0.85"/>
<path d="M442.8 141.2 L449.2 147.6 M442.8 147.6 L449.2 141.2" stroke="#e0556b" stroke-width="1.6"/>
<path d="M478.2 174.6 L484.6 181.0 M478.2 181.0 L484.6 174.6" stroke="#e0556b" stroke-width="1.6"/>
<circle cx="492.8" cy="113.0" r="3.4" fill="#2ec26b" opacity="0.85"/>
<path d="M505.6 150.8 L512.0 157.2 M505.6 157.2 L512.0 150.8" stroke="#e0556b" stroke-width="1.6"/>
<circle cx="477.4" cy="166.4" r="3.4" fill="#2ec26b" opacity="0.85"/>
<path d="M469.3 141.8 L475.7 148.2 M469.3 148.2 L475.7 141.8" stroke="#e0556b" stroke-width="1.6"/>
<circle cx="496.0" cy="179.9" r="3.4" fill="#2ec26b" opacity="0.85"/>
<path d="M485.1 111.4 L491.5 117.8 M485.1 117.8 L491.5 111.4" stroke="#e0556b" stroke-width="1.6"/>
<circle cx="510.2" cy="160.1" r="3.4" fill="#2ec26b" opacity="0.85"/>
<path d="M483.4 159.8 L489.8 166.2 M483.4 166.2 L489.8 159.8" stroke="#e0556b" stroke-width="1.6"/>
<circle cx="496.8" cy="149.3" r="3.4" fill="#2ec26b" opacity="0.85"/>
<path d="M457.1 170.3 L463.5 176.7 M457.1 176.7 L463.5 170.3" stroke="#e0556b" stroke-width="1.6"/>
<circle cx="501.7" cy="159.3" r="3.4" fill="#2ec26b" opacity="0.85"/>
<path d="M488.0 129.0 L494.4 135.4 M488.0 135.4 L494.4 129.0" stroke="#e0556b" stroke-width="1.6"/>
<circle cx="529.3" cy="132.9" r="3.4" fill="#2ec26b" opacity="0.85"/>
<circle cx="519.6" cy="136.5" r="3.4" fill="#2ec26b" opacity="0.85"/>
<path d="M511.5 107.0 L517.9 113.4 M511.5 113.4 L517.9 107.0" stroke="#e0556b" stroke-width="1.6"/>
<path d="M511.5 130.4 L517.9 136.8 M511.5 136.8 L517.9 130.4" stroke="#e0556b" stroke-width="1.6"/>
<circle cx="521.2" cy="182.0" r="3.4" fill="#2ec26b" opacity="0.85"/>
<circle cx="513.1" cy="161.4" r="3.4" fill="#2ec26b" opacity="0.85"/>
<path d="M492.0 161.8 L498.4 168.2 M492.0 168.2 L498.4 161.8" stroke="#e0556b" stroke-width="1.6"/>
<circle cx="517.1" cy="155.7" r="3.4" fill="#2ec26b" opacity="0.85"/>
<path d="M519.1 182.6 L525.5 189.0 M519.1 189.0 L525.5 182.6" stroke="#e0556b" stroke-width="1.6"/>
<path d="M502.9 151.9 L509.3 158.3 M502.9 158.3 L509.3 151.9" stroke="#e0556b" stroke-width="1.6"/>
<path d="M494.0 181.1 L500.4 187.5 M494.0 187.5 L500.4 181.1" stroke="#e0556b" stroke-width="1.6"/>
<circle cx="512.6" cy="164.4" r="3.4" fill="#2ec26b" opacity="0.85"/>
<circle cx="500.1" cy="130.1" r="3.4" fill="#2ec26b" opacity="0.85"/>
<circle cx="509.8" cy="147.9" r="3.4" fill="#2ec26b" opacity="0.85"/>
<path d="M504.2 169.6 L510.6 176.0 M504.2 176.0 L510.6 169.6" stroke="#e0556b" stroke-width="1.6"/>
<path d="M500.1 179.6 L506.5 186.0 M500.1 186.0 L506.5 179.6" stroke="#e0556b" stroke-width="1.6"/>
<circle cx="490.3" cy="159.3" r="3.4" fill="#2ec26b" opacity="0.85"/>
<path d="M474.2 171.0 L480.6 177.4 M474.2 177.4 L480.6 171.0" stroke="#e0556b" stroke-width="1.6"/>
<circle cx="496.4" cy="128.8" r="3.4" fill="#2ec26b" opacity="0.85"/>
<circle cx="510.9" cy="143.7" r="3.4" fill="#2ec26b" opacity="0.85"/>
<path d="M508.6 158.3 L515.0 164.7 M508.6 164.7 L515.0 158.3" stroke="#e0556b" stroke-width="1.6"/>
<circle cx="484.2" cy="154.4" r="3.4" fill="#2ec26b" opacity="0.85"/>
<path d="M513.1 141.8 L519.5 148.2 M513.1 148.2 L519.5 141.8" stroke="#e0556b" stroke-width="1.6"/>
<path d="M507.4 141.8 L513.8 148.2 M507.4 148.2 L513.8 141.8" stroke="#e0556b" stroke-width="1.6"/>
<circle cx="509.8" cy="152.2" r="3.4" fill="#2ec26b" opacity="0.85"/>
<circle cx="513.4" cy="151.6" r="3.4" fill="#2ec26b" opacity="0.85"/>
<circle cx="510.2" cy="150.1" r="3.4" fill="#2ec26b" opacity="0.85"/>
<path d="M459.9 134.8 L466.3 141.2 M459.9 141.2 L466.3 134.8" stroke="#e0556b" stroke-width="1.6"/>
<circle cx="515.0" cy="163.0" r="3.4" fill="#2ec26b" opacity="0.85"/>
<path d="M517.5 146.9 L523.9 153.3 M517.5 153.3 L523.9 146.9" stroke="#e0556b" stroke-width="1.6"/>
<circle cx="514.2" cy="155.1" r="3.4" fill="#2ec26b" opacity="0.85"/>
<circle cx="505.3" cy="140.9" r="3.4" fill="#2ec26b" opacity="0.85"/>
<circle cx="499.3" cy="161.4" r="3.4" fill="#2ec26b" opacity="0.85"/>
<path d="M488.0 149.7 L494.4 156.1 M488.0 156.1 L494.4 149.7" stroke="#e0556b" stroke-width="1.6"/>
<circle cx="502.5" cy="167.8" r="3.4" fill="#2ec26b" opacity="0.85"/>
<path d="M470.9 160.4 L477.3 166.8 M470.9 166.8 L477.3 160.4" stroke="#e0556b" stroke-width="1.6"/>
<circle cx="490.3" cy="130.8" r="3.4" fill="#2ec26b" opacity="0.85"/>
<circle cx="509.8" cy="162.1" r="3.4" fill="#2ec26b" opacity="0.85"/>
<circle cx="506.6" cy="146.5" r="3.4" fill="#2ec26b" opacity="0.85"/>
<circle cx="506.1" cy="143.7" r="3.4" fill="#2ec26b" opacity="0.85"/>
<path d="M462.3 151.2 L468.7 157.6 M462.3 157.6 L468.7 151.2" stroke="#e0556b" stroke-width="1.6"/>
<circle cx="515.8" cy="163.7" r="3.4" fill="#2ec26b" opacity="0.85"/>
<path d="M486.4 148.2 L492.8 154.6 M486.4 154.6 L492.8 148.2" stroke="#e0556b" stroke-width="1.6"/>
<circle cx="507.4" cy="153.6" r="3.4" fill="#2ec26b" opacity="0.85"/>
<circle cx="500.1" cy="171.4" r="3.4" fill="#2ec26b" opacity="0.85"/>
<circle cx="483.8" cy="155.7" r="3.4" fill="#2ec26b" opacity="0.85"/>
<path d="M500.1 180.3 L506.5 186.7 M500.1 186.7 L506.5 180.3" stroke="#e0556b" stroke-width="1.6"/>
<circle cx="508.8" cy="154.0" r="3.4" fill="#2ec26b" opacity="0.85"/>
<path d="M509.9 124.0 L516.3 130.4 M509.9 130.4 L516.3 124.0" stroke="#e0556b" stroke-width="1.6"/>
<circle cx="515.5" cy="134.3" r="3.4" fill="#2ec26b" opacity="0.85"/>
<path d="M488.3 134.1 L494.7 140.5 M488.3 140.5 L494.7 134.1" stroke="#e0556b" stroke-width="1.6"/>
<circle cx="496.4" cy="171.5" r="3.4" fill="#2ec26b" opacity="0.85"/>
<circle cx="500.1" cy="177.8" r="3.4" fill="#2ec26b" opacity="0.85"/>
<circle cx="520.3" cy="183.5" r="3.4" fill="#2ec26b" opacity="0.85"/>
<circle cx="509.8" cy="167.1" r="3.4" fill="#2ec26b" opacity="0.85"/>
<path d="M510.7 167.5 L517.1 173.9 M510.7 173.9 L517.1 167.5" stroke="#e0556b" stroke-width="1.6"/>
<circle cx="515.8" cy="191.4" r="3.4" fill="#2ec26b" opacity="0.85"/>
<circle cx="502.7" cy="154.0" r="3.4" fill="#2ec26b" opacity="0.85"/>
<circle cx="516.5" cy="176.8" r="3.4" fill="#2ec26b" opacity="0.85"/>
<path d="M509.2 149.4 L515.6 155.8 M509.2 155.8 L515.6 149.4" stroke="#e0556b" stroke-width="1.6"/>
<circle cx="501.9" cy="145.5" r="3.4" fill="#2ec26b" opacity="0.85"/>
<circle cx="498.6" cy="105.6" r="3.4" fill="#2ec26b" opacity="0.85"/>
<path d="M514.9 180.7 L521.3 187.1 M514.9 187.1 L521.3 180.7" stroke="#e0556b" stroke-width="1.6"/>
<circle cx="511.6" cy="161.8" r="3.4" fill="#2ec26b" opacity="0.85"/>
<path d="M503.5 148.7 L509.9 155.1 M503.5 155.1 L509.9 148.7" stroke="#e0556b" stroke-width="1.6"/>
<path d="M472.7 152.9 L479.1 159.3 M472.7 159.3 L479.1 152.9" stroke="#e0556b" stroke-width="1.6"/>
<path d="M507.6 141.6 L514.0 148.0 M507.6 148.0 L514.0 141.6" stroke="#e0556b" stroke-width="1.6"/>
<path d="M503.5 144.4 L509.9 150.8 M503.5 150.8 L509.9 144.4" stroke="#e0556b" stroke-width="1.6"/>
<circle cx="522.2" cy="156.1" r="3.4" fill="#2ec26b" opacity="0.85"/>
<circle cx="508.8" cy="154.0" r="3.4" fill="#2ec26b" opacity="0.85"/>
<circle cx="499.3" cy="158.6" r="3.4" fill="#2ec26b" opacity="0.85"/>
<path d="M413.4 163.9 L419.8 170.3 M413.4 170.3 L419.8 163.9" stroke="#e0556b" stroke-width="1.6"/>
<circle cx="487.1" cy="160.7" r="3.4" fill="#2ec26b" opacity="0.85"/>
<path d="M475.8 145.4 L482.2 151.8 M475.8 151.8 L482.2 145.4" stroke="#e0556b" stroke-width="1.6"/>
<circle cx="505.0" cy="145.7" r="3.4" fill="#2ec26b" opacity="0.85"/>
<circle cx="508.2" cy="156.4" r="3.4" fill="#2ec26b" opacity="0.85"/>
<path d="M503.7 139.8 L510.1 146.2 M503.7 146.2 L510.1 139.8" stroke="#e0556b" stroke-width="1.6"/>
<circle cx="502.8" cy="160.1" r="3.4" fill="#2ec26b" opacity="0.85"/>
<circle cx="502.0" cy="151.6" r="3.4" fill="#2ec26b" opacity="0.85"/>
<path d="M505.6 150.8 L512.0 157.2 M505.6 157.2 L512.0 150.8" stroke="#e0556b" stroke-width="1.6"/>
<circle cx="514.2" cy="143.0" r="3.4" fill="#2ec26b" opacity="0.85"/>
<circle cx="498.0" cy="157.3" r="3.4" fill="#2ec26b" opacity="0.85"/>
<circle cx="504.5" cy="145.9" r="3.4" fill="#2ec26b" opacity="0.85"/>
<path d="M492.3 149.1 L498.7 155.5 M492.3 155.5 L498.7 149.1" stroke="#e0556b" stroke-width="1.6"/>
<circle cx="490.3" cy="130.8" r="3.4" fill="#2ec26b" opacity="0.85"/>
<circle cx="482.2" cy="152.2" r="3.4" fill="#2ec26b" opacity="0.85"/>
<circle cx="487.1" cy="156.4" r="3.4" fill="#2ec26b" opacity="0.85"/>
<circle cx="499.6" cy="182.9" r="3.4" fill="#2ec26b" opacity="0.85"/>
<path d="M510.2 174.0 L516.6 180.4 M510.2 180.4 L516.6 174.0" stroke="#e0556b" stroke-width="1.6"/>
<circle cx="497.2" cy="128.1" r="3.4" fill="#2ec26b" opacity="0.85"/>
<path d="M497.2 149.1 L503.6 155.5 M497.2 155.5 L503.6 149.1" stroke="#e0556b" stroke-width="1.6"/>
<path d="M514.2 169.7 L520.6 176.1 M514.2 176.1 L520.6 169.7" stroke="#e0556b" stroke-width="1.6"/>
<circle cx="514.2" cy="165.8" r="3.4" fill="#2ec26b" opacity="0.85"/>
<circle cx="500.1" cy="152.9" r="3.4" fill="#2ec26b" opacity="0.85"/>
<circle cx="515.5" cy="155.7" r="3.4" fill="#2ec26b" opacity="0.85"/>
<path d="M474.2 185.2 L480.6 191.6 M474.2 191.6 L480.6 185.2" stroke="#e0556b" stroke-width="1.6"/>
<circle cx="514.7" cy="159.3" r="3.4" fill="#2ec26b" opacity="0.85"/>
<path d="M461.2 157.5 L467.6 163.9 M461.2 163.9 L467.6 157.5" stroke="#e0556b" stroke-width="1.6"/>
<circle cx="513.1" cy="157.1" r="3.4" fill="#2ec26b" opacity="0.85"/>
<circle cx="482.5" cy="151.6" r="3.4" fill="#2ec26b" opacity="0.85"/>
<circle cx="510.9" cy="154.4" r="3.4" fill="#2ec26b" opacity="0.85"/>
<path d="M464.8 137.0 L471.2 143.4 M464.8 143.4 L471.2 137.0" stroke="#e0556b" stroke-width="1.6"/>
<path d="M445.3 151.2 L451.7 157.6 M445.3 157.6 L451.7 151.2" stroke="#e0556b" stroke-width="1.6"/>
<path d="M456.7 129.2 L463.1 135.6 M456.7 135.6 L463.1 129.2" stroke="#e0556b" stroke-width="1.6"/>
<circle cx="510.2" cy="155.1" r="3.4" fill="#2ec26b" opacity="0.85"/>
<circle cx="509.3" cy="148.7" r="3.4" fill="#2ec26b" opacity="0.85"/>
<circle cx="510.2" cy="149.4" r="3.4" fill="#2ec26b" opacity="0.85"/>
<path d="M503.7 171.2 L510.1 177.6 M503.7 177.6 L510.1 171.2" stroke="#e0556b" stroke-width="1.6"/>
<path d="M481.8 162.6 L488.2 169.0 M481.8 169.0 L488.2 162.6" stroke="#e0556b" stroke-width="1.6"/>
<path d="M496.4 164.0 L502.8 170.4 M496.4 170.4 L502.8 164.0" stroke="#e0556b" stroke-width="1.6"/>
<circle cx="499.6" cy="93.9" r="3.4" fill="#2ec26b" opacity="0.85"/>
<circle cx="495.5" cy="140.2" r="3.4" fill="#2ec26b" opacity="0.85"/>
<path d="M500.5 164.0 L506.9 170.4 M500.5 170.4 L506.9 164.0" stroke="#e0556b" stroke-width="1.6"/>
<path d="M492.3 147.7 L498.7 154.1 M492.3 154.1 L498.7 147.7" stroke="#e0556b" stroke-width="1.6"/>
<path d="M492.3 147.7 L498.7 154.1 M492.3 154.1 L498.7 147.7" stroke="#e0556b" stroke-width="1.6"/>
<path d="M499.6 89.3 L506.0 95.7 M499.6 95.7 L506.0 89.3" stroke="#e0556b" stroke-width="1.6"/>
<path d="M487.1 153.2 L493.5 159.6 M487.1 159.6 L493.5 153.2" stroke="#e0556b" stroke-width="1.6"/>
<path d="M483.1 149.0 L489.5 155.4 M483.1 155.4 L489.5 149.0" stroke="#e0556b" stroke-width="1.6"/>
<path d="M504.2 126.9 L510.6 133.3 M504.2 133.3 L510.6 126.9" stroke="#e0556b" stroke-width="1.6"/>
<path d="M505.6 150.8 L512.0 157.2 M505.6 157.2 L512.0 150.8" stroke="#e0556b" stroke-width="1.6"/>
<path d="M500.1 156.1 L506.5 162.5 M500.1 162.5 L506.5 156.1" stroke="#e0556b" stroke-width="1.6"/>
<circle cx="484.7" cy="150.0" r="3.4" fill="#2ec26b" opacity="0.85"/>
<circle cx="469.3" cy="157.1" r="3.4" fill="#2ec26b" opacity="0.85"/>
<circle cx="505.0" cy="142.2" r="3.4" fill="#2ec26b" opacity="0.85"/>
<path d="M489.6 170.3 L496.0 176.7 M489.6 176.7 L496.0 170.3" stroke="#e0556b" stroke-width="1.6"/>
<path d="M505.6 150.8 L512.0 157.2 M505.6 157.2 L512.0 150.8" stroke="#e0556b" stroke-width="1.6"/>
<circle cx="506.1" cy="151.6" r="3.4" fill="#2ec26b" opacity="0.85"/>
<circle cx="507.7" cy="157.3" r="3.4" fill="#2ec26b" opacity="0.85"/>
<path d="M501.3 105.7 L507.7 112.1 M501.3 112.1 L507.7 105.7" stroke="#e0556b" stroke-width="1.6"/>
<path d="M503.7 159.1 L510.1 165.5 M503.7 165.5 L510.1 159.1" stroke="#e0556b" stroke-width="1.6"/>
<circle cx="503.7" cy="149.4" r="3.4" fill="#2ec26b" opacity="0.85"/>
<path d="M505.6 150.8 L512.0 157.2 M505.6 157.2 L512.0 150.8" stroke="#e0556b" stroke-width="1.6"/>
<circle cx="507.4" cy="181.3" r="3.4" fill="#2ec26b" opacity="0.85"/>
<circle cx="505.8" cy="136.5" r="3.4" fill="#2ec26b" opacity="0.85"/>
<circle cx="459.5" cy="154.3" r="3.4" fill="#2ec26b" opacity="0.85"/>
<circle cx="474.1" cy="129.4" r="3.4" fill="#2ec26b" opacity="0.85"/>
<path d="M444.1 167.5 L450.5 173.9 M444.1 173.9 L450.5 167.5" stroke="#e0556b" stroke-width="1.6"/>
<path d="M482.3 149.0 L488.7 155.4 M482.3 155.4 L488.7 149.0" stroke="#e0556b" stroke-width="1.6"/>
<circle cx="499.3" cy="165.0" r="3.4" fill="#2ec26b" opacity="0.85"/>
<circle cx="513.1" cy="127.2" r="3.4" fill="#2ec26b" opacity="0.85"/>
<path d="M478.6 134.1 L485.0 140.5 M478.6 140.5 L485.0 134.1" stroke="#e0556b" stroke-width="1.6"/>
<path d="M504.5 127.0 L510.9 133.4 M504.5 133.4 L510.9 127.0" stroke="#e0556b" stroke-width="1.6"/>
<path d="M476.1 156.9 L482.5 163.3 M476.1 163.3 L482.5 156.9" stroke="#e0556b" stroke-width="1.6"/>
<path d="M503.7 173.3 L510.1 179.7 M503.7 179.7 L510.1 173.3" stroke="#e0556b" stroke-width="1.6"/>
<circle cx="508.8" cy="154.0" r="3.4" fill="#2ec26b" opacity="0.85"/>
<circle cx="504.5" cy="168.7" r="3.4" fill="#2ec26b" opacity="0.85"/>
<circle cx="504.5" cy="188.6" r="3.4" fill="#2ec26b" opacity="0.85"/>
<circle cx="511.8" cy="165.1" r="3.4" fill="#2ec26b" opacity="0.85"/>
<path d="M498.8 145.5 L505.2 151.9 M498.8 151.9 L505.2 145.5" stroke="#e0556b" stroke-width="1.6"/>
<circle cx="498.0" cy="146.6" r="3.4" fill="#2ec26b" opacity="0.85"/>
<path d="M483.4 129.9 L489.8 136.3 M483.4 136.3 L489.8 129.9" stroke="#e0556b" stroke-width="1.6"/>
<circle cx="506.1" cy="160.1" r="3.4" fill="#2ec26b" opacity="0.85"/>
<circle cx="506.9" cy="157.3" r="3.4" fill="#2ec26b" opacity="0.85"/>
<circle cx="472.5" cy="206.2" r="3.4" fill="#2ec26b" opacity="0.85"/>
<circle cx="499.3" cy="155.7" r="3.4" fill="#2ec26b" opacity="0.85"/>
<circle cx="508.2" cy="134.3" r="3.4" fill="#2ec26b" opacity="0.85"/>
<path d="M422.2 119.0 L428.6 125.4 M422.2 125.4 L428.6 119.0" stroke="#e0556b" stroke-width="1.6"/>
<path d="M500.1 118.3 L506.5 124.7 M500.1 124.7 L506.5 118.3" stroke="#e0556b" stroke-width="1.6"/>
<path d="M471.7 127.6 L478.1 134.0 M471.7 134.0 L478.1 127.6" stroke="#e0556b" stroke-width="1.6"/>
<path d="M505.6 150.8 L512.0 157.2 M505.6 157.2 L512.0 150.8" stroke="#e0556b" stroke-width="1.6"/>
</svg>