<svg xmlns="http://www.w3.org/2000/svg" width="560" height="300" font-family="sans-serif">
<rect x="0" y="0" width="560" height="300" fill="#1b1b1b"/>
<text x="20" y="16" fill="#ddd" font-size="13">J. Feldeine (CNF) — 243 tiros, Clasificatorio</text>
<rect x="20" y="28" width="520" height="252" fill="none" stroke="#555"/>
<path d="M348.8 90.7 L355.2 97.1 M348.8 97.1 L355.2 90.7" stroke="#e0556b" stroke-width="1.6"/>
<path d="M490.7 150.5 L497.1 156.9 M490.7 156.9 L497.1 150.5" stroke="#e0556b" stroke-width="1.6"/>
<path d="M350.4 144.1 L356.8 150.5 M350.4 150.5 L356.8 144.1" stroke="#e0556b" stroke-width="1.6"/>
<path d="M501.3 265.1 L507.7 271.5 M501.3 271.5 L507.7 265.1" stroke="#e0556b" stroke-width="1.6"/>
<circle cx="354.4" cy="160.1" r="3.4" fill="#2ec26b" opacity="0.85"/>
<path d="M362.5 204.6 L368.9 211.0 M362.5 211.0 L368.9 204.6" stroke="#e0556b" stroke-width="1.6"/>
<path d="M359.3 102.8 L365.7 109.2 M359.3 109.2 L365.7 102.8" stroke="#e0556b" stroke-width="1.6"/>
<path d="M412.8 242.4 L419.2 248.8 M412.8 248.8 L419.2 242.4" stroke="#e0556b" stroke-width="1.6"/>
<path d="M341.4 146.9 L347.8 153.3 M341.4 153.3 L347.8 146.9" stroke="#e0556b" stroke-width="1.6"/>
<circle cx="494.7" cy="146.6" r="3.4" fill="#2ec26b" opacity="0.85"/>
<circle cx="509.0" cy="155.0" r="3.4" fill="#2ec26b" opacity="0.85"/>
<path d="M477.4 141.8 L483.8 148.2 M477.4 148.2 L483.8 141.8" stroke="#e0556b" stroke-width="1.6"/>
<path d="M481.5 179.6 L487.9 186.0 M481.5 186.0 L487.9 179.6" stroke="#e0556b" stroke-width="1.6"/>
<path d="M379.2 244.3 L385.6 250.7 M379.2 250.7 L385.6 244.3" stroke="#e0556b" stroke-width="1.6"/>
<path d="M354.9 161.8 L361.3 168.2 M354.9 168.2 L361.3 161.8" stroke="#e0556b" stroke-width="1.6"/>
<path d="M402.0 250.7 L408.4 257.1 M402.0 257.1 L408.4 250.7" stroke="#e0556b" stroke-width="1.6"/>
<path d="M362.5 218.1 L368.9 224.5 M362.5 224.5 L368.9 218.1" stroke="#e0556b" stroke-width="1.6"/>
<circle cx="393.3" cy="71.8" r="3.4" fill="#2ec26b" opacity="0.85"/>
<path d="M427.4 119.9 L433.8 126.3 M427.4 126.3 L433.8 119.9" stroke="#e0556b" stroke-width="1.6"/>
<path d="M502.1 182.6 L508.5 189.0 M502.1 189.0 L508.5 182.6" stroke="#e0556b" stroke-width="1.6"/>
<path d="M475.3 243.8 L481.7 250.2 M475.3 250.2 L481.7 243.8" stroke="#e0556b" stroke-width="1.6"/>
<circle cx="514.2" cy="180.1" r="3.4" fill="#2ec26b" opacity="0.85"/>
<path d="M502.9 168.3 L509.3 174.7 M502.9 174.7 L509.3 168.3" stroke="#e0556b" stroke-width="1.6"/>
<path d="M387.7 65.1 L394.1 71.5 M387.7 71.5 L394.1 65.1" stroke="#e0556b" stroke-width="1.6"/>
<circle cx="474.1" cy="150.0" r="3.4" fill="#2ec26b" opacity="0.85"/>
<circle cx="514.7" cy="86.7" r="3.4" fill="#2ec26b" opacity="0.85"/>
<circle cx="415.7" cy="56.8" r="3.4" fill="#2ec26b" opacity="0.85"/>
<circle cx="493.6" cy="122.2" r="3.4" fill="#2ec26b" opacity="0.85"/>
<circle cx="406.0" cy="68.1" r="3.4" fill="#2ec26b" opacity="0.85"/>
<circle cx="498.5" cy="165.0" r="3.4" fill="#2ec26b" opacity="0.85"/>
<circle cx="361.7" cy="99.6" r="3.4" fill="#2ec26b" opacity="0.85"/>
<circle cx="360.9" cy="129.5" r="3.4" fill="#2ec26b" opacity="0.85"/>
<path d="M481.8 146.2 L488.2 152.6 M481.8 152.6 L488.2 146.2" stroke="#e0556b" stroke-width="1.6"/>
<circle cx="519.9" cy="86.1" r="3.4" fill="#2ec26b" opacity="0.85"/>
<circle cx="420.1" cy="46.2" r="3.4" fill="#2ec26b" opacity="0.85"/>
<circle cx="501.2" cy="150.9" r="3.4" fill="#2ec26b" opacity="0.85"/>
<path d="M420.2 238.8 L426.6 245.2 M420.2 245.2 L426.6 238.8" stroke="#e0556b" stroke-width="1.6"/>
<circle cx="371.4" cy="217.1" r="3.4" fill="#2ec26b" opacity="0.85"/>
<path d="M350.8 147.5 L357.2 153.9 M350.8 153.9 L357.2 147.5" stroke="#e0556b" stroke-width="1.6"/>
<circle cx="482.2" cy="153.6" r="3.4" fill="#2ec26b" opacity="0.85"/>
<path d="M492.0 153.9 L498.4 160.3 M492.0 160.3 L498.4 153.9" stroke="#e0556b" stroke-width="1.6"/>
<path d="M350.8 137.6 L357.2 144.0 M350.8 144.0 L357.2 137.6" stroke="#e0556b" stroke-width="1.6"/>
<path d="M506.6 136.1 L513.0 142.5 M506.6 142.5 L513.0 136.1" stroke="#e0556b" stroke-width="1.6"/>
<path d="M363.8 126.9 L370.2 133.3 M363.8 133.3 L370.2 126.9" stroke="#e0556b" stroke-width="1.6"/>
<circle cx="448.5" cy="197.1" r="3.4" fill="#2ec26b" opacity="0.85"/>
<circle cx="417.6" cy="58.3" r="3.4" fill="#2ec26b" opacity="0.85"/>
<path d="M384.4 231.0 L390.8 237.4 M384.4 237.4 L390.8 231.0" stroke="#e0556b" stroke-width="1.6"/>
<circle cx="518.3" cy="92.5" r="3.4" fill="#2ec26b" opacity="0.85"/>
<circle cx="490.3" cy="151.4" r="3.4" fill="#2ec26b" opacity="0.85"/>
<circle cx="383.3" cy="241.8" r="3.4" fill="#2ec26b" opacity="0.85"/>
<circle cx="409.2" cy="71.0" r="3.4" fill="#2ec26b" opacity="0.85"/>
<path d="M380.1 99.1 L386.5 105.5 M380.1 105.5 L386.5 99.1" stroke="#e0556b" stroke-width="1.6"/>
<circle cx="489.6" cy="272.5" r="3.4" fill="#2ec26b" opacity="0.85"/>
<circle cx="509.8" cy="159.3" r="3.4" fill="#2ec26b" opacity="0.85"/>
<path d="M370.3 209.5 L376.7 215.9 M370.3 215.9 L376.7 209.5" stroke="#e0556b" stroke-width="1.6"/>
<path d="M396.6 45.9 L403.0 52.3 M396.6 52.3 L403.0 45.9" stroke="#e0556b" stroke-width="1.6"/>
<path d="M446.1 43.0 L452.5 49.4 M446.1 49.4 L452.5 43.0" stroke="#e0556b" stroke-width="1.6"/>
<path d="M501.3 181.1 L507.7 187.5 M501.3 187.5 L507.7 181.1" stroke="#e0556b" stroke-width="1.6"/>
<path d="M373.9 235.2 L380.3 241.6 M373.9 241.6 L380.3 235.2" stroke="#e0556b" stroke-width="1.6"/>
<path d="M485.5 225.8 L491.9 232.2 M485.5 232.2 L491.9 225.8" stroke="#e0556b" stroke-width="1.6"/>
<path d="M360.6 221.6 L367.0 228.0 M360.6 228.0 L367.0 221.6" stroke="#e0556b" stroke-width="1.6"/>
<circle cx="506.9" cy="98.9" r="3.4" fill="#2ec26b" opacity="0.85"/>
<circle cx="372.2" cy="110.3" r="3.4" fill="#2ec26b" opacity="0.85"/>
<circle cx="389.3" cy="88.9" r="3.4" fill="#2ec26b" opacity="0.85"/>
<path d="M499.6 217.4 L506.0 223.8 M499.6 223.8 L506.0 217.4" stroke="#e0556b" stroke-width="1.6"/>
<circle cx="447.7" cy="154.4" r="3.4" fill="#2ec26b" opacity="0.85"/>
<circle cx="431.5" cy="251.2" r="3.4" fill="#2ec26b" opacity="0.85"/>
<path d="M466.4 131.3 L472.8 137.7 M466.4 137.7 L472.8 131.3" stroke="#e0556b" stroke-width="1.6"/>
<circle cx="462.3" cy="175.1" r="3.4" fill="#2ec26b" opacity="0.85"/>
<path d="M510.2 145.5 L516.6 151.9 M510.2 151.9 L516.6 145.5" stroke="#e0556b" stroke-width="1.6"/>
<circle cx="369.5" cy="140.8" r="3.4" fill="#2ec26b" opacity="0.85"/>
<circle cx="366.2" cy="118.7" r="3.4" fill="#2ec26b" opacity="0.85"/>
<circle cx="359.8" cy="155.0" r="3.4" fill="#2ec26b" opacity="0.85"/>
<path d="M373.6 211.6 L380.0 218.0 M373.6 218.0 L380.0 211.6" stroke="#e0556b" stroke-width="1.6"/>
<path d="M506.6 147.5 L513.0 153.9 M506.6 153.9 L513.0 147.5" stroke="#e0556b" stroke-width="1.6"/>
<path d="M514.8 87.7 L521.2 94.1 M514.8 94.1 L521.2 87.7" stroke="#e0556b" stroke-width="1.6"/>
<path d="M511.5 149.0 L517.9 155.4 M511.5 155.4 L517.9 149.0" stroke="#e0556b" stroke-width="1.6"/>
<path d="M412.5 67.8 L418.9 74.2 M412.5 74.2 L418.9 67.8" stroke="#e0556b" stroke-width="1.6"/>
<circle cx="406.0" cy="68.1" r="3.4" fill="#2ec26b" opacity="0.85"/>
<path d="M368.2 60.1 L374.6 66.5 M368.2 66.5 L374.6 60.1" stroke="#e0556b" stroke-width="1.6"/>
<path d="M378.8 62.2 L385.2 68.6 M378.8 68.6 L385.2 62.2" stroke="#e0556b" stroke-width="1.6"/>
<circle cx="502.8" cy="175.8" r="3.4" fill="#2ec26b" opacity="0.85"/>
<path d="M399.1 60.1 L405.5 66.5 M399.1 66.5 L405.5 60.1" stroke="#e0556b" stroke-width="1.6"/>
<path d="M481.0 195.4 L487.4 201.8 M481.0 201.8 L487.4 195.4" stroke="#e0556b" stroke-width="1.6"/>
<path d="M489.6 39.3 L496.0 45.7 M489.6 45.7 L496.0 39.3" stroke="#e0556b" stroke-width="1.6"/>
<circle cx="455.8" cy="64.0" r="3.4" fill="#2ec26b" opacity="0.85"/>
<circle cx="377.1" cy="159.4" r="3.4" fill="#2ec26b" opacity="0.85"/>
<path d="M420.2 185.4 L426.6 191.8 M420.2 191.8 L426.6 185.4" stroke="#e0556b" stroke-width="1.6"/>
<path d="M373.1 125.6 L379.5 132.0 M373.1 132.0 L379.5 125.6" stroke="#e0556b" stroke-width="1.6"/>
<path d="M498.0 170.5 L504.4 176.9 M498.0 176.9 L504.4 170.5" stroke="#e0556b" stroke-width="1.6"/>
<circle cx="507.7" cy="163.0" r="3.4" fill="#2ec26b" opacity="0.85"/>
<path d="M387.7 213.2 L394.1 219.6 M387.7 219.6 L394.1 213.2" stroke="#e0556b" stroke-width="1.6"/>
<circle cx="506.6" cy="119.4" r="3.4" fill="#2ec26b" opacity="0.85"/>
<path d="M504.2 139.7 L510.6 146.1 M504.2 146.1 L510.6 139.7" stroke="#e0556b" stroke-width="1.6"/>
<circle cx="510.6" cy="160.7" r="3.4" fill="#2ec26b" opacity="0.85"/>
<circle cx="468.4" cy="40.4" r="3.4" fill="#2ec26b" opacity="0.85"/>
<path d="M423.1 242.2 L429.5 248.6 M423.1 248.6 L429.5 242.2" stroke="#e0556b" stroke-width="1.6"/>
<path d="M499.3 173.9 L505.7 180.3 M499.3 180.3 L505.7 173.9" stroke="#e0556b" stroke-width="1.6"/>
<path d="M499.3 167.5 L505.7 173.9 M499.3 173.9 L505.7 167.5" stroke="#e0556b" stroke-width="1.6"/>
<circle cx="409.2" cy="244.7" r="3.4" fill="#2ec26b" opacity="0.85"/>
<path d="M390.6 219.4 L397.0 225.8 M390.6 225.8 L397.0 219.4" stroke="#e0556b" stroke-width="1.6"/>
<path d="M407.2 238.1 L413.6 244.5 M407.2 244.5 L413.6 238.1" stroke="#e0556b" stroke-width="1.6"/>
<path d="M374.7 211.7 L381.1 218.1 M374.7 218.1 L381.1 211.7" stroke="#e0556b" stroke-width="1.6"/>
<path d="M371.5 119.2 L377.9 125.6 M371.5 125.6 L377.9 119.2" stroke="#e0556b" stroke-width="1.6"/>
<circle cx="494.7" cy="158.0" r="3.4" fill="#2ec26b" opacity="0.85"/>
<circle cx="486.3" cy="63.9" r="3.4" fill="#2ec26b" opacity="0.85"/>
<circle cx="472.5" cy="220.5" r="3.4" fill="#2ec26b" opacity="0.85"/>
<path d="M384.1 76.3 L390.5 82.7 M384.1 82.7 L390.5 76.3" stroke="#e0556b" stroke-width="1.6"/>
<circle cx="456.3" cy="39.7" r="3.4" fill="#2ec26b" opacity="0.85"/>
<circle cx="491.2" cy="145.0" r="3.4" fill="#2ec26b" opacity="0.85"/>
<path d="M477.4 148.2 L483.8 154.6 M477.4 154.6 L483.8 148.2" stroke="#e0556b" stroke-width="1.6"/>
<circle cx="503.3" cy="150.0" r="3.4" fill="#2ec26b" opacity="0.85"/>
<path d="M346.0 138.3 L352.4 144.7 M346.0 144.7 L352.4 138.3" stroke="#e0556b" stroke-width="1.6"/>
<path d="M426.6 247.3 L433.0 253.7 M426.6 253.7 L433.0 247.3" stroke="#e0556b" stroke-width="1.6"/>
<circle cx="472.0" cy="152.3" r="3.4" fill="#2ec26b" opacity="0.85"/>
<path d="M408.8 61.5 L415.2 67.9 M408.8 67.9 L415.2 61.5" stroke="#e0556b" stroke-width="1.6"/>
<circle cx="498.8" cy="149.4" r="3.4" fill="#2ec26b" opacity="0.85"/>
<path d="M504.5 165.5 L510.9 171.9 M504.5 171.9 L510.9 165.5" stroke="#e0556b" stroke-width="1.6"/>
<path d="M495.6 161.2 L502.0 167.6 M495.6 167.6 L502.0 161.2" stroke="#e0556b" stroke-width="1.6"/>
<path d="M413.7 65.8 L420.1 72.2 M413.7 72.2 L420.1 65.8" stroke="#e0556b" stroke-width="1.6"/>
<circle cx="380.0" cy="185.6" r="3.4" fill="#2ec26b" opacity="0.85"/>
<path d="M437.7 210.2 L444.1 216.6 M437.7 216.6 L444.1 210.2" stroke="#e0556b" stroke-width="1.6"/>
<path d="M384.1 223.0 L390.5 229.4 M384.1 229.4 L390.5 223.0" stroke="#e0556b" stroke-width="1.6"/>
<path d="M503.4 158.9 L509.8 165.3 M503.4 165.3 L509.8 158.9" stroke="#e0556b" stroke-width="1.6"/>
<path d="M344.7 100.0 L351.1 106.4 M344.7 106.4 L351.1 100.0" stroke="#e0556b" stroke-width="1.6"/>
<circle cx="500.4" cy="141.6" r="3.4" fill="#2ec26b" opacity="0.85"/>
<circle cx="410.4" cy="54.8" r="3.4" fill="#2ec26b" opacity="0.85"/>
<circle cx="442.8" cy="40.5" r="3.4" fill="#2ec26b" opacity="0.85"/>
<circle cx="489.0" cy="153.0" r="3.4" fill="#2ec26b" opacity="0.85"/>
<circle cx="357.6" cy="129.5" r="3.4" fill="#2ec26b" opacity="0.85"/>
<path d="M470.1 174.6 L476.5 181.0 M470.1 181.0 L476.5 174.6" stroke="#e0556b" stroke-width="1.6"/>
<circle cx="487.1" cy="162.8" r="3.4" fill="#2ec26b" opacity="0.85"/>
<path d="M493.6 68.5 L500.0 74.9 M493.6 74.9 L500.0 68.5" stroke="#e0556b" stroke-width="1.6"/>
<path d="M401.2 59.2 L407.6 65.6 M401.2 65.6 L407.6 59.2" stroke="#e0556b" stroke-width="1.6"/>
<path d="M413.4 161.1 L419.8 167.5 M413.4 167.5 L419.8 161.1" stroke="#e0556b" stroke-width="1.6"/>
<circle cx="471.7" cy="226.9" r="3.4" fill="#2ec26b" opacity="0.85"/>
<path d="M496.9 150.4 L503.3 156.8 M496.9 156.8 L503.3 150.4" stroke="#e0556b" stroke-width="1.6"/>
<circle cx="503.3" cy="170.7" r="3.4" fill="#2ec26b" opacity="0.85"/>
<path d="M352.5 150.4 L358.9 156.8 M352.5 156.8 L358.9 150.4" stroke="#e0556b" stroke-width="1.6"/>
<path d="M428.7 42.9 L435.1 49.3 M428.7 49.3 L435.1 42.9" stroke="#e0556b" stroke-width="1.6"/>
<circle cx="512.2" cy="162.1" r="3.4" fill="#2ec26b" opacity="0.85"/>
<circle cx="440.1" cy="182.8" r="3.4" fill="#2ec26b" opacity="0.85"/>
<path d="M418.2 54.3 L424.6 60.7 M418.2 60.7 L424.6 54.3" stroke="#e0556b" stroke-width="1.6"/>
<circle cx="493.6" cy="180.6" r="3.4" fill="#2ec26b" opacity="0.85"/>
<circle cx="420.1" cy="250.5" r="3.4" fill="#2ec26b" opacity="0.85"/>
<path d="M394.2 67.9 L400.6 74.3 M394.2 74.3 L400.6 67.9" stroke="#e0556b" stroke-width="1.6"/>
<path d="M481.8 199.6 L488.2 206.0 M481.8 206.0 L488.2 199.6" stroke="#e0556b" stroke-width="1.6"/>
<circle cx="501.2" cy="163.7" r="3.4" fill="#2ec26b" opacity="0.85"/>
<path d="M513.1 272.8 L519.5 279.2 M513.1 279.2 L519.5 272.8" stroke="#e0556b" stroke-width="1.6"/>
<circle cx="445.7" cy="142.9" r="3.4" fill="#2ec26b" opacity="0.85"/>
<circle cx="494.4" cy="178.5" r="3.4" fill="#2ec26b" opacity="0.85"/>
<path d="M355.7 175.3 L362.1 181.7 M355.7 181.7 L362.1 175.3" stroke="#e0556b" stroke-width="1.6"/>
<path d="M513.1 224.4 L519.5 230.8 M513.1 230.8 L519.5 224.4" stroke="#e0556b" stroke-width="1.6"/>
<path d="M504.2 182.4 L510.6 188.8 M504.2 188.8 L510.6 182.4" stroke="#e0556b" stroke-width="1.6"/>
<path d="M477.4 176.7 L483.8 183.1 M477.4 183.1 L483.8 176.7" stroke="#e0556b" stroke-width="1.6"/>
<circle cx="515.0" cy="203.5" r="3.4" fill="#2ec26b" opacity="0.85"/>
<circle cx="489.9" cy="200.0" r="3.4" fill="#2ec26b" opacity="0.85"/>
<path d="M485.1 193.2 L491.5 199.6 M485.1 199.6 L491.5 193.2" stroke="#e0556b" stroke-width="1.6"/>
<circle cx="448.5" cy="157.3" r="3.4" fill="#2ec26b" opacity="0.85"/>
<circle cx="447.7" cy="133.8" r="3.4" fill="#2ec26b" opacity="0.85"/>
<circle cx="475.3" cy="200.0" r="3.4" fill="#2ec26b" opacity="0.85"/>
<path d="M381.2 217.4 L387.6 223.8 M381.2 223.8 L387.6 217.4" stroke="#e0556b" stroke-width="1.6"/>
<path d="M385.3 211.0 L391.7 217.4 M385.3 217.4 L391.7 211.0" stroke="#e0556b" stroke-width="1.6"/>
<circle cx="442.0" cy="163.0" r="3.4" fill="#2ec26b" opacity="0.85"/>
<circle cx="403.1" cy="62.6" r="3.4" fill="#2ec26b" opacity="0.85"/>
<path d="M386.1 58.7 L392.5 65.1 M386.1 65.1 L392.5 58.7" stroke="#e0556b" stroke-width="1.6"/>
<path d="M508.6 197.5 L515.0 203.9 M508.6 203.9 L515.0 197.5" stroke="#e0556b" stroke-width="1.6"/>
<path d="M371.5 75.8 L377.9 82.2 M371.5 82.2 L377.9 75.8" stroke="#e0556b" stroke-width="1.6"/>
<circle cx="415.3" cy="169.4" r="3.4" fill="#2ec26b" opacity="0.85"/>
<path d="M498.0 188.2 L504.4 194.6 M498.0 194.6 L504.4 188.2" stroke="#e0556b" stroke-width="1.6"/>
<circle cx="501.2" cy="175.1" r="3.4" fill="#2ec26b" opacity="0.85"/>
<path d="M374.7 193.9 L381.1 200.3 M374.7 200.3 L381.1 193.9" stroke="#e0556b" stroke-width="1.6"/>
<path d="M498.0 181.1 L504.4 187.5 M498.0 187.5 L504.4 181.1" stroke="#e0556b" stroke-width="1.6"/>
<circle cx="491.2" cy="99.5" r="3.4" fill="#2ec26b" opacity="0.85"/>
<circle cx="496.8" cy="185.6" r="3.4" fill="#2ec26b" opacity="0.85"/>
<path d="M506.6 99.1 L513.0 105.5 M506.6 105.5 L513.0 99.1" stroke="#e0556b" stroke-width="1.6"/>
<circle cx="364.9" cy="125.2" r="3.4" fill="#2ec26b" opacity="0.85"/>
<circle cx="369.8" cy="76.8" r="3.4" fill="#2ec26b" opacity="0.85"/>
<path d="M382.0 219.6 L388.4 226.0 M382.0 226.0 L388.4 219.6" stroke="#e0556b" stroke-width="1.6"/>
<circle cx="381.1" cy="93.9" r="3.4" fill="#2ec26b" opacity="0.85"/>
<circle cx="511.8" cy="155.8" r="3.4" fill="#2ec26b" opacity="0.85"/>
<path d="M361.7 150.5 L368.1 156.9 M361.7 156.9 L368.1 150.5" stroke="#e0556b" stroke-width="1.6"/>
<circle cx="391.7" cy="66.9" r="3.4" fill="#2ec26b" opacity="0.85"/>
<circle cx="406.3" cy="56.9" r="3.4" fill="#2ec26b" opacity="0.85"/>
<path d="M388.5 43.0 L394.9 49.4 M388.5 49.4 L394.9 43.0" stroke="#e0556b" stroke-width="1.6"/>
<circle cx="501.2" cy="234.9" r="3.4" fill="#2ec26b" opacity="0.85"/>
<circle cx="371.4" cy="202.8" r="3.4" fill="#2ec26b" opacity="0.85"/>
<circle cx="492.8" cy="167.8" r="3.4" fill="#2ec26b" opacity="0.85"/>
<circle cx="496.0" cy="157.1" r="3.4" fill="#2ec26b" opacity="0.85"/>
<path d="M344.4 151.1 L350.8 157.5 M344.4 157.5 L350.8 151.1" stroke="#e0556b" stroke-width="1.6"/>
<path d="M360.9 102.1 L367.3 108.5 M360.9 108.5 L367.3 102.1" stroke="#e0556b" stroke-width="1.6"/>
<path d="M491.5 169.7 L497.9 176.1 M491.5 176.1 L497.9 169.7" stroke="#e0556b" stroke-width="1.6"/>
<circle cx="462.8" cy="241.8" r="3.4" fill="#2ec26b" opacity="0.85"/>
<path d="M502.6 269.3 L509.0 275.7 M502.6 275.7 L509.0 269.3" stroke="#e0556b" stroke-width="1.6"/>
<path d="M467.7 176.0 L474.1 182.4 M467.7 182.4 L474.1 176.0" stroke="#e0556b" stroke-width="1.6"/>
<path d="M406.0 69.9 L412.4 76.3 M406.0 76.3 L412.4 69.9" stroke="#e0556b" stroke-width="1.6"/>
<circle cx="484.7" cy="158.6" r="3.4" fill="#2ec26b" opacity="0.85"/>
<path d="M501.8 163.9 L508.2 170.3 M501.8 170.3 L508.2 163.9" stroke="#e0556b" stroke-width="1.6"/>
<path d="M382.0 216.7 L388.4 223.1 M382.0 223.1 L388.4 216.7" stroke="#e0556b" stroke-width="1.6"/>
<path d="M507.0 175.4 L513.4 181.8 M507.0 181.8 L513.4 175.4" stroke="#e0556b" stroke-width="1.6"/>
<circle cx="462.3" cy="42.7" r="3.4" fill="#2ec26b" opacity="0.85"/>
<path d="M375.5 125.6 L381.9 132.0 M375.5 132.0 L381.9 125.6" stroke="#e0556b" stroke-width="1.6"/>
<path d="M367.9 174.6 L374.3 181.0 M367.9 181.0 L374.3 174.6" stroke="#e0556b" stroke-width="1.6"/>
<path d="M508.3 269.3 L514.7 275.7 M508.3 275.7 L514.7 269.3" stroke="#e0556b" stroke-width="1.6"/>
<circle cx="434.4" cy="110.9" r="3.4" fill="#2ec26b" opacity="0.85"/>
<path d="M443.4 43.6 L449.8 50.0 M443.4 50.0 L449.8 43.6" stroke="#e0556b" stroke-width="1.6"/>
<circle cx="399.5" cy="69.6" r="3.4" fill="#2ec26b" opacity="0.85"/>
<path d="M357.5 103.8 L363.9 110.2 M357.5 110.2 L363.9 103.8" stroke="#e0556b" stroke-width="1.6"/>
<path d="M420.8 61.8 L427.2 68.2 M420.8 68.2 L427.2 61.8" stroke="#e0556b" stroke-width="1.6"/>
<circle cx="499.4" cy="139.1" r="3.4" fill="#2ec26b" opacity="0.85"/>
<path d="M516.5 34.0 L522.9 40.4 M516.5 40.4 L522.9 34.0" stroke="#e0556b" stroke-width="1.6"/>
<circle cx="442.7" cy="124.1" r="3.4" fill="#2ec26b" opacity="0.85"/>
<path d="M381.1 66.1 L387.5 72.5 M381.1 72.5 L387.5 66.1" stroke="#e0556b" stroke-width="1.6"/>
<path d="M500.3 138.7 L506.7 145.1 M500.3 145.1 L506.7 138.7" stroke="#e0556b" stroke-width="1.6"/>
<path d="M486.5 140.8 L492.9 147.2 M486.5 147.2 L492.9 140.8" stroke="#e0556b" stroke-width="1.6"/>
<path d="M474.3 268.3 L480.7 274.7 M474.3 274.7 L480.7 268.3" stroke="#e0556b" stroke-width="1.6"/>
<circle cx="516.5" cy="164.0" r="3.4" fill="#2ec26b" opacity="0.85"/>
<path d="M459.7 117.3 L466.1 123.7 M459.7 123.7 L466.1 117.3" stroke="#e0556b" stroke-width="1.6"/>
<path d="M478.4 188.5 L484.8 194.9 M478.4 194.9 L484.8 188.5" stroke="#e0556b" stroke-width="1.6"/>
<circle cx="480.6" cy="180.6" r="3.4" fill="#2ec26b" opacity="0.85"/>
<path d="M408.5 67.1 L414.9 73.5 M408.5 73.5 L414.9 67.1" stroke="#e0556b" stroke-width="1.6"/>
<path d="M367.9 99.1 L374.3 105.5 M367.9 105.5 L374.3 99.1" stroke="#e0556b" stroke-width="1.6"/>
<circle cx="513.1" cy="159.3" r="3.4" fill="#2ec26b" opacity="0.85"/>
<path d="M489.6 133.3 L496.0 139.7 M489.6 139.7 L496.0 133.3" stroke="#e0556b" stroke-width="1.6"/>
<path d="M507.7 163.3 L514.1 169.7 M507.7 169.7 L514.1 163.3" stroke="#e0556b" stroke-width="1.6"/>
<path d="M409.6 191.1 L416.0 197.5 M409.6 197.5 L416.0 191.1" stroke="#e0556b" stroke-width="1.6"/>
<path d="M507.0 153.4 L513.4 159.8 M507.0 159.8 L513.4 153.4" stroke="#e0556b" stroke-width="1.6"/>
<path d="M408.0 71.5 L414.4 77.9 M408.0 77.9 L414.4 71.5" stroke="#e0556b" stroke-width="1.6"/>
<path d="M412.8 59.4 L419.2 65.8 M412.8 65.8 L419.2 59.4" stroke="#e0556b" stroke-width="1.6"/>
<path d="M425.8 49.4 L432.2 55.8 M425.8 55.8 L432.2 49.4" stroke="#e0556b" stroke-width="1.6"/>
<path d="M476.9 191.1 L483.3 197.5 M476.9 197.5 L483.3 191.1" stroke="#e0556b" stroke-width="1.6"/>
<circle cx="400.6" cy="79.7" r="3.4" fill="#2ec26b" opacity="0.85"/>
<circle cx="385.2" cy="112.4" r="3.4" fill="#2ec26b" opacity="0.85"/>
<circle cx="379.5" cy="107.5" r="3.4" fill="#2ec26b" opacity="0.85"/>
<path d="M377.9 86.4 L384.3 92.8 M377.9 92.8 L384.3 86.4" stroke="#e0556b" stroke-width="1.6"/>
<circle cx="452.5" cy="106.0" r="3.4" fill="#2ec26b" opacity="0.85"/>
<circle cx="395.0" cy="222.1" r="3.4" fill="#2ec26b" opacity="0.85"/>
<circle cx="507.7" cy="64.7" r="3.4" fill="#2ec26b" opacity="0.85"/>
<path d="M463.9 132.0 L470.3 138.4 M463.9 138.4 L470.3 132.0" stroke="#e0556b" stroke-width="1.6"/>
<circle cx="481.8" cy="138.8" r="3.4" fill="#2ec26b" opacity="0.85"/>
<path d="M509.0 145.4 L515.4 151.8 M509.0 151.8 L515.4 145.4" stroke="#e0556b" stroke-width="1.6"/>
<circle cx="511.5" cy="147.2" r="3.4" fill="#2ec26b" opacity="0.85"/>
<circle cx="507.4" cy="163.6" r="3.4" fill="#2ec26b" opacity="0.85"/>
</svg>