<svg xmlns="http://www.w3.org/2000/svg" width="560" height="300" font-family="sans-serif">
<rect x="0" y="0" width="560" height="300" fill="#1b1b1b"/>
<text x="20" y="16" fill="#ddd" font-size="13">J. Matos (BIG) — 330 tiros, Clasificatorio</text>
<rect x="20" y="28" width="520" height="252" fill="none" stroke="#555"/>
<path d="M429.6 249.3 L436.0 255.7 M429.6 255.7 L436.0 249.3" stroke="#e0556b" stroke-width="1.6"/>
<path d="M481.5 183.8 L487.9 190.2 M481.5 190.2 L487.9 183.8" stroke="#e0556b" stroke-width="1.6"/>
<circle cx="452.2" cy="40.4" r="3.4" fill="#2ec26b" opacity="0.85"/>
<path d="M458.0 35.8 L464.4 42.2 M458.0 42.2 L464.4 35.8" stroke="#e0556b" stroke-width="1.6"/>
<path d="M500.1 144.7 L506.5 151.1 M500.1 151.1 L506.5 144.7" stroke="#e0556b" stroke-width="1.6"/>
<path d="M402.8 228.0 L409.2 234.4 M402.8 234.4 L409.2 228.0" stroke="#e0556b" stroke-width="1.6"/>
<path d="M504.2 158.9 L510.6 165.3 M504.2 165.3 L510.6 158.9" stroke="#e0556b" stroke-width="1.6"/>
<circle cx="513.4" cy="190.0" r="3.4" fill="#2ec26b" opacity="0.85"/>
<path d="M394.2 91.4 L400.6 97.8 M394.2 97.8 L400.6 91.4" stroke="#e0556b" stroke-width="1.6"/>
<circle cx="426.6" cy="54.8" r="3.4" fill="#2ec26b" opacity="0.85"/>
<circle cx="370.6" cy="182.9" r="3.4" fill="#2ec26b" opacity="0.85"/>
<circle cx="510.2" cy="169.4" r="3.4" fill="#2ec26b" opacity="0.85"/>
<path d="M357.7 148.4 L364.1 154.8 M357.7 154.8 L364.1 148.4" stroke="#e0556b" stroke-width="1.6"/>
<path d="M352.8 137.0 L359.2 143.4 M352.8 143.4 L359.2 137.0" stroke="#e0556b" stroke-width="1.6"/>
<path d="M485.1 157.6 L491.5 164.0 M485.1 164.0 L491.5 157.6" stroke="#e0556b" stroke-width="1.6"/>
<circle cx="505.3" cy="148.0" r="3.4" fill="#2ec26b" opacity="0.85"/>
<circle cx="373.0" cy="95.3" r="3.4" fill="#2ec26b" opacity="0.85"/>
<path d="M348.8 162.6 L355.2 169.0 M348.8 169.0 L355.2 162.6" stroke="#e0556b" stroke-width="1.6"/>
<path d="M490.7 139.8 L497.1 146.2 M490.7 146.2 L497.1 139.8" stroke="#e0556b" stroke-width="1.6"/>
<circle cx="488.3" cy="150.9" r="3.4" fill="#2ec26b" opacity="0.85"/>
<circle cx="492.8" cy="273.2" r="3.4" fill="#2ec26b" opacity="0.85"/>
<circle cx="454.7" cy="224.8" r="3.4" fill="#2ec26b" opacity="0.85"/>
<path d="M410.1 53.6 L416.5 60.0 M410.1 60.0 L416.5 53.6" stroke="#e0556b" stroke-width="1.6"/>
<circle cx="455.4" cy="150.7" r="3.4" fill="#2ec26b" opacity="0.85"/>
<path d="M402.8 244.3 L409.2 250.7 M402.8 250.7 L409.2 244.3" stroke="#e0556b" stroke-width="1.6"/>
<circle cx="505.0" cy="37.6" r="3.4" fill="#2ec26b" opacity="0.85"/>
<path d="M488.0 98.4 L494.4 104.8 M488.0 104.8 L494.4 98.4" stroke="#e0556b" stroke-width="1.6"/>
<circle cx="497.7" cy="130.8" r="3.4" fill="#2ec26b" opacity="0.85"/>
<path d="M441.7 37.2 L448.1 43.6 M441.7 43.6 L448.1 37.2" stroke="#e0556b" stroke-width="1.6"/>
<circle cx="423.8" cy="119.4" r="3.4" fill="#2ec26b" opacity="0.85"/>
<path d="M396.3 240.8 L402.7 247.2 M396.3 247.2 L402.7 240.8" stroke="#e0556b" stroke-width="1.6"/>
<circle cx="521.2" cy="39.0" r="3.4" fill="#2ec26b" opacity="0.85"/>
<path d="M504.2 190.9 L510.6 197.3 M504.2 197.3 L510.6 190.9" stroke="#e0556b" stroke-width="1.6"/>
<circle cx="505.0" cy="108.0" r="3.4" fill="#2ec26b" opacity="0.85"/>
<path d="M412.1 148.4 L418.5 154.8 M412.1 154.8 L418.5 148.4" stroke="#e0556b" stroke-width="1.6"/>
<path d="M469.6 198.2 L476.0 204.6 M469.6 204.6 L476.0 198.2" stroke="#e0556b" stroke-width="1.6"/>
<path d="M429.9 255.2 L436.3 261.6 M429.9 261.6 L436.3 255.2" stroke="#e0556b" stroke-width="1.6"/>
<circle cx="508.5" cy="166.5" r="3.4" fill="#2ec26b" opacity="0.85"/>
<path d="M384.4 86.4 L390.8 92.8 M384.4 92.8 L390.8 86.4" stroke="#e0556b" stroke-width="1.6"/>
<path d="M412.8 238.8 L419.2 245.2 M412.8 245.2 L419.2 238.8" stroke="#e0556b" stroke-width="1.6"/>
<circle cx="510.2" cy="226.3" r="3.4" fill="#2ec26b" opacity="0.85"/>
<path d="M494.8 149.1 L501.2 155.5 M494.8 155.5 L501.2 149.1" stroke="#e0556b" stroke-width="1.6"/>
<circle cx="510.9" cy="140.2" r="3.4" fill="#2ec26b" opacity="0.85"/>
<path d="M493.2 142.7 L499.6 149.1 M493.2 149.1 L499.6 142.7" stroke="#e0556b" stroke-width="1.6"/>
<path d="M491.5 162.6 L497.9 169.0 M491.5 169.0 L497.9 162.6" stroke="#e0556b" stroke-width="1.6"/>
<circle cx="482.5" cy="178.6" r="3.4" fill="#2ec26b" opacity="0.85"/>
<path d="M429.6 147.5 L436.0 153.9 M429.6 153.9 L436.0 147.5" stroke="#e0556b" stroke-width="1.6"/>
<circle cx="495.2" cy="174.2" r="3.4" fill="#2ec26b" opacity="0.85"/>
<path d="M471.7 157.5 L478.1 163.9 M471.7 163.9 L478.1 157.5" stroke="#e0556b" stroke-width="1.6"/>
<path d="M404.4 67.8 L410.8 74.2 M404.4 74.2 L410.8 67.8" stroke="#e0556b" stroke-width="1.6"/>
<circle cx="483.8" cy="162.1" r="3.4" fill="#2ec26b" opacity="0.85"/>
<circle cx="442.5" cy="211.2" r="3.4" fill="#2ec26b" opacity="0.85"/>
<circle cx="415.3" cy="55.5" r="3.4" fill="#2ec26b" opacity="0.85"/>
<circle cx="494.7" cy="132.4" r="3.4" fill="#2ec26b" opacity="0.85"/>
<circle cx="503.7" cy="180.1" r="3.4" fill="#2ec26b" opacity="0.85"/>
<path d="M425.8 57.3 L432.2 63.7 M425.8 63.7 L432.2 57.3" stroke="#e0556b" stroke-width="1.6"/>
<circle cx="457.4" cy="271.2" r="3.4" fill="#2ec26b" opacity="0.85"/>
<path d="M462.3 35.9 L468.7 42.3 M462.3 42.3 L468.7 35.9" stroke="#e0556b" stroke-width="1.6"/>
<circle cx="495.5" cy="121.7" r="3.4" fill="#2ec26b" opacity="0.85"/>
<path d="M382.0 211.0 L388.4 217.4 M382.0 217.4 L388.4 211.0" stroke="#e0556b" stroke-width="1.6"/>
<circle cx="507.7" cy="133.1" r="3.4" fill="#2ec26b" opacity="0.85"/>
<circle cx="455.8" cy="263.3" r="3.4" fill="#2ec26b" opacity="0.85"/>
<circle cx="414.4" cy="162.3" r="3.4" fill="#2ec26b" opacity="0.85"/>
<path d="M501.3 143.4 L507.7 149.8 M501.3 149.8 L507.7 143.4" stroke="#e0556b" stroke-width="1.6"/>
<path d="M390.9 223.8 L397.3 230.2 M390.9 230.2 L397.3 223.8" stroke="#e0556b" stroke-width="1.6"/>
<circle cx="498.0" cy="149.4" r="3.4" fill="#2ec26b" opacity="0.85"/>
<path d="M502.1 149.8 L508.5 156.2 M502.1 156.2 L508.5 149.8" stroke="#e0556b" stroke-width="1.6"/>
<path d="M359.8 200.2 L366.2 206.6 M359.8 206.6 L366.2 200.2" stroke="#e0556b" stroke-width="1.6"/>
<circle cx="500.1" cy="88.1" r="3.4" fill="#2ec26b" opacity="0.85"/>
<circle cx="483.8" cy="154.3" r="3.4" fill="#2ec26b" opacity="0.85"/>
<path d="M462.8 218.7 L469.2 225.1 M462.8 225.1 L469.2 218.7" stroke="#e0556b" stroke-width="1.6"/>
<path d="M484.7 149.7 L491.1 156.1 M484.7 156.1 L491.1 149.7" stroke="#e0556b" stroke-width="1.6"/>
<path d="M510.7 158.9 L517.1 165.3 M510.7 165.3 L517.1 158.9" stroke="#e0556b" stroke-width="1.6"/>
<path d="M399.5 229.4 L405.9 235.8 M399.5 235.8 L405.9 229.4" stroke="#e0556b" stroke-width="1.6"/>
<circle cx="520.3" cy="157.9" r="3.4" fill="#2ec26b" opacity="0.85"/>
<circle cx="510.6" cy="155.7" r="3.4" fill="#2ec26b" opacity="0.85"/>
<circle cx="464.4" cy="251.1" r="3.4" fill="#2ec26b" opacity="0.85"/>
<path d="M470.9 176.0 L477.3 182.4 M470.9 182.4 L477.3 176.0" stroke="#e0556b" stroke-width="1.6"/>
<circle cx="514.7" cy="156.4" r="3.4" fill="#2ec26b" opacity="0.85"/>
<path d="M498.5 150.4 L504.9 156.8 M498.5 156.8 L504.9 150.4" stroke="#e0556b" stroke-width="1.6"/>
<path d="M500.1 178.1 L506.5 184.5 M500.1 184.5 L506.5 178.1" stroke="#e0556b" stroke-width="1.6"/>
<circle cx="393.0" cy="226.9" r="3.4" fill="#2ec26b" opacity="0.85"/>
<circle cx="510.9" cy="149.4" r="3.4" fill="#2ec26b" opacity="0.85"/>
<path d="M422.6 248.8 L429.0 255.2 M422.6 255.2 L429.0 248.8" stroke="#e0556b" stroke-width="1.6"/>
<path d="M498.8 144.8 L505.2 151.2 M498.8 151.2 L505.2 144.8" stroke="#e0556b" stroke-width="1.6"/>
<path d="M511.8 149.1 L518.2 155.5 M511.8 155.5 L518.2 149.1" stroke="#e0556b" stroke-width="1.6"/>
<path d="M504.5 126.3 L510.9 132.7 M504.5 132.7 L510.9 126.3" stroke="#e0556b" stroke-width="1.6"/>
<circle cx="485.8" cy="149.4" r="3.4" fill="#2ec26b" opacity="0.85"/>
<path d="M381.2 200.3 L387.6 206.7 M381.2 206.7 L387.6 200.3" stroke="#e0556b" stroke-width="1.6"/>
<path d="M414.4 105.7 L420.8 112.1 M414.4 112.1 L420.8 105.7" stroke="#e0556b" stroke-width="1.6"/>
<path d="M514.2 142.7 L520.6 149.1 M514.2 149.1 L520.6 142.7" stroke="#e0556b" stroke-width="1.6"/>
<circle cx="513.4" cy="117.4" r="3.4" fill="#2ec26b" opacity="0.85"/>
<path d="M379.6 192.5 L386.0 198.9 M379.6 198.9 L386.0 192.5" stroke="#e0556b" stroke-width="1.6"/>
<path d="M510.0 272.5 L516.4 278.9 M510.0 278.9 L516.4 272.5" stroke="#e0556b" stroke-width="1.6"/>
<circle cx="432.1" cy="255.1" r="3.4" fill="#2ec26b" opacity="0.85"/>
<path d="M391.6 62.5 L398.0 68.9 M391.6 68.9 L398.0 62.5" stroke="#e0556b" stroke-width="1.6"/>
<circle cx="406.2" cy="63.6" r="3.4" fill="#2ec26b" opacity="0.85"/>
<path d="M491.4 270.4 L497.8 276.8 M491.4 276.8 L497.8 270.4" stroke="#e0556b" stroke-width="1.6"/>
<circle cx="503.5" cy="270.8" r="3.4" fill="#2ec26b" opacity="0.85"/>
<path d="M423.2 47.6 L429.6 54.0 M423.2 54.0 L429.6 47.6" stroke="#e0556b" stroke-width="1.6"/>
<path d="M474.3 135.2 L480.7 141.6 M474.3 141.6 L480.7 135.2" stroke="#e0556b" stroke-width="1.6"/>
<circle cx="486.4" cy="164.0" r="3.4" fill="#2ec26b" opacity="0.85"/>
<circle cx="490.5" cy="136.9" r="3.4" fill="#2ec26b" opacity="0.85"/>
<path d="M418.3 252.6 L424.7 259.0 M418.3 259.0 L424.7 252.6" stroke="#e0556b" stroke-width="1.6"/>
<circle cx="471.9" cy="176.8" r="3.4" fill="#2ec26b" opacity="0.85"/>
<path d="M436.9 253.9 L443.3 260.3 M436.9 260.3 L443.3 253.9" stroke="#e0556b" stroke-width="1.6"/>
<path d="M480.0 166.4 L486.4 172.8 M480.0 172.8 L486.4 166.4" stroke="#e0556b" stroke-width="1.6"/>
<path d="M502.7 113.1 L509.1 119.5 M502.7 119.5 L509.1 113.1" stroke="#e0556b" stroke-width="1.6"/>
<path d="M459.7 193.5 L466.1 199.9 M459.7 199.9 L466.1 193.5" stroke="#e0556b" stroke-width="1.6"/>
<path d="M510.0 30.5 L516.4 36.9 M510.0 36.9 L516.4 30.5" stroke="#e0556b" stroke-width="1.6"/>
<path d="M408.6 236.2 L415.0 242.6 M408.6 242.6 L415.0 236.2" stroke="#e0556b" stroke-width="1.6"/>
<path d="M364.7 204.5 L371.1 210.9 M364.7 210.9 L371.1 204.5" stroke="#e0556b" stroke-width="1.6"/>
<circle cx="502.5" cy="165.0" r="3.4" fill="#2ec26b" opacity="0.85"/>
<path d="M366.3 101.3 L372.7 107.7 M366.3 107.7 L372.7 101.3" stroke="#e0556b" stroke-width="1.6"/>
<circle cx="439.2" cy="213.4" r="3.4" fill="#2ec26b" opacity="0.85"/>
<circle cx="496.8" cy="150.7" r="3.4" fill="#2ec26b" opacity="0.85"/>
<path d="M407.6 252.9 L414.0 259.3 M407.6 259.3 L414.0 252.9" stroke="#e0556b" stroke-width="1.6"/>
<circle cx="382.0" cy="71.1" r="3.4" fill="#2ec26b" opacity="0.85"/>
<path d="M395.8 65.1 L402.2 71.5 M395.8 71.5 L402.2 65.1" stroke="#e0556b" stroke-width="1.6"/>
<path d="M501.3 149.1 L507.7 155.5 M501.3 155.5 L507.7 149.1" stroke="#e0556b" stroke-width="1.6"/>
<path d="M355.3 156.2 L361.7 162.6 M355.3 162.6 L361.7 156.2" stroke="#e0556b" stroke-width="1.6"/>
<path d="M453.1 217.3 L459.5 223.7 M453.1 223.7 L459.5 217.3" stroke="#e0556b" stroke-width="1.6"/>
<path d="M501.3 141.2 L507.7 147.6 M501.3 147.6 L507.7 141.2" stroke="#e0556b" stroke-width="1.6"/>
<path d="M358.5 155.5 L364.9 161.9 M358.5 161.9 L364.9 155.5" stroke="#e0556b" stroke-width="1.6"/>
<circle cx="498.0" cy="148.7" r="3.4" fill="#2ec26b" opacity="0.85"/>
<circle cx="500.4" cy="153.7" r="3.4" fill="#2ec26b" opacity="0.85"/>
<path d="M400.7 231.0 L407.1 237.4 M400.7 237.4 L407.1 231.0" stroke="#e0556b" stroke-width="1.6"/>
<path d="M501.3 28.8 L507.7 35.2 M501.3 35.2 L507.7 28.8" stroke="#e0556b" stroke-width="1.6"/>
<path d="M485.8 131.3 L492.2 137.7 M485.8 137.7 L492.2 131.3" stroke="#e0556b" stroke-width="1.6"/>
<path d="M468.8 115.6 L475.2 122.0 M468.8 122.0 L475.2 115.6" stroke="#e0556b" stroke-width="1.6"/>
<path d="M490.7 174.7 L497.1 181.1 M490.7 181.1 L497.1 174.7" stroke="#e0556b" stroke-width="1.6"/>
<circle cx="489.6" cy="273.2" r="3.4" fill="#2ec26b" opacity="0.85"/>
<circle cx="456.3" cy="190.6" r="3.4" fill="#2ec26b" opacity="0.85"/>
<circle cx="403.6" cy="68.1" r="3.4" fill="#2ec26b" opacity="0.85"/>
<path d="M447.4 255.7 L453.8 262.1 M447.4 262.1 L453.8 255.7" stroke="#e0556b" stroke-width="1.6"/>
<path d="M370.3 118.3 L376.7 124.7 M370.3 124.7 L376.7 118.3" stroke="#e0556b" stroke-width="1.6"/>
<path d="M476.6 176.0 L483.0 182.4 M476.6 182.4 L483.0 176.0" stroke="#e0556b" stroke-width="1.6"/>
<path d="M483.1 178.1 L489.5 184.5 M483.1 184.5 L489.5 178.1" stroke="#e0556b" stroke-width="1.6"/>
<path d="M493.6 178.1 L500.0 184.5 M493.6 184.5 L500.0 178.1" stroke="#e0556b" stroke-width="1.6"/>
<circle cx="495.2" cy="130.8" r="3.4" fill="#2ec26b" opacity="0.85"/>
<path d="M502.6 192.4 L509.0 198.8 M502.6 198.8 L509.0 192.4" stroke="#e0556b" stroke-width="1.6"/>
<circle cx="509.8" cy="162.1" r="3.4" fill="#2ec26b" opacity="0.85"/>
<path d="M513.9 144.0 L520.3 150.4 M513.9 150.4 L520.3 144.0" stroke="#e0556b" stroke-width="1.6"/>
<circle cx="518.7" cy="160.7" r="3.4" fill="#2ec26b" opacity="0.85"/>
<path d="M514.8 143.3 L521.2 149.7 M514.8 149.7 L521.2 143.3" stroke="#e0556b" stroke-width="1.6"/>
<path d="M387.4 251.4 L393.8 257.8 M387.4 257.8 L393.8 251.4" stroke="#e0556b" stroke-width="1.6"/>
<path d="M495.3 141.8 L501.7 148.2 M495.3 148.2 L501.7 141.8" stroke="#e0556b" stroke-width="1.6"/>
<circle cx="500.1" cy="187.7" r="3.4" fill="#2ec26b" opacity="0.85"/>
<path d="M361.4 233.7 L367.8 240.1 M361.4 240.1 L367.8 233.7" stroke="#e0556b" stroke-width="1.6"/>
<circle cx="513.1" cy="269.6" r="3.4" fill="#2ec26b" opacity="0.85"/>
<circle cx="466.8" cy="270.3" r="3.4" fill="#2ec26b" opacity="0.85"/>
<path d="M445.0 262.8 L451.4 269.2 M445.0 269.2 L451.4 262.8" stroke="#e0556b" stroke-width="1.6"/>
<path d="M515.9 119.2 L522.3 125.6 M515.9 125.6 L522.3 119.2" stroke="#e0556b" stroke-width="1.6"/>
<path d="M494.8 175.4 L501.2 181.8 M494.8 181.8 L501.2 175.4" stroke="#e0556b" stroke-width="1.6"/>
<circle cx="512.6" cy="158.7" r="3.4" fill="#2ec26b" opacity="0.85"/>
<circle cx="382.8" cy="66.2" r="3.4" fill="#2ec26b" opacity="0.85"/>
<path d="M448.6 256.6 L455.0 263.0 M448.6 263.0 L455.0 256.6" stroke="#e0556b" stroke-width="1.6"/>
<path d="M420.2 220.3 L426.6 226.7 M420.2 226.7 L426.6 220.3" stroke="#e0556b" stroke-width="1.6"/>
<path d="M510.2 266.5 L516.6 272.9 M510.2 272.9 L516.6 266.5" stroke="#e0556b" stroke-width="1.6"/>
<path d="M380.4 104.3 L386.8 110.7 M380.4 110.7 L386.8 104.3" stroke="#e0556b" stroke-width="1.6"/>
<circle cx="511.8" cy="166.5" r="3.4" fill="#2ec26b" opacity="0.85"/>
<circle cx="502.0" cy="160.1" r="3.4" fill="#2ec26b" opacity="0.85"/>
<path d="M365.0 70.8 L371.4 77.2 M365.0 77.2 L371.4 70.8" stroke="#e0556b" stroke-width="1.6"/>
<path d="M457.4 224.6 L463.8 231.0 M457.4 231.0 L463.8 224.6" stroke="#e0556b" stroke-width="1.6"/>
<path d="M362.5 88.6 L368.9 95.0 M362.5 95.0 L368.9 88.6" stroke="#e0556b" stroke-width="1.6"/>
<path d="M452.6 263.0 L459.0 269.4 M452.6 269.4 L459.0 263.0" stroke="#e0556b" stroke-width="1.6"/>
<path d="M394.2 53.0 L400.6 59.4 M394.2 59.4 L400.6 53.0" stroke="#e0556b" stroke-width="1.6"/>
<path d="M450.2 162.6 L456.6 169.0 M450.2 169.0 L456.6 162.6" stroke="#e0556b" stroke-width="1.6"/>
<path d="M489.9 122.8 L496.3 129.2 M489.9 129.2 L496.3 122.8" stroke="#e0556b" stroke-width="1.6"/>
<circle cx="513.1" cy="128.6" r="3.4" fill="#2ec26b" opacity="0.85"/>
<circle cx="496.0" cy="127.9" r="3.4" fill="#2ec26b" opacity="0.85"/>
<circle cx="367.0" cy="210.5" r="3.4" fill="#2ec26b" opacity="0.85"/>
<circle cx="518.0" cy="120.1" r="3.4" fill="#2ec26b" opacity="0.85"/>
<circle cx="384.1" cy="94.5" r="3.4" fill="#2ec26b" opacity="0.85"/>
<circle cx="498.5" cy="127.9" r="3.4" fill="#2ec26b" opacity="0.85"/>
<path d="M479.0 172.4 L485.4 178.8 M479.0 178.8 L485.4 172.4" stroke="#e0556b" stroke-width="1.6"/>
<path d="M484.7 93.4 L491.1 99.8 M484.7 99.8 L491.1 93.4" stroke="#e0556b" stroke-width="1.6"/>
<circle cx="449.8" cy="93.1" r="3.4" fill="#2ec26b" opacity="0.85"/>
<path d="M427.9 208.7 L434.3 215.1 M427.9 215.1 L434.3 208.7" stroke="#e0556b" stroke-width="1.6"/>
<path d="M443.5 227.0 L449.9 233.4 M443.5 233.4 L449.9 227.0" stroke="#e0556b" stroke-width="1.6"/>
<circle cx="518.9" cy="147.6" r="3.4" fill="#2ec26b" opacity="0.85"/>
<path d="M480.8 192.8 L487.2 199.2 M480.8 199.2 L487.2 192.8" stroke="#e0556b" stroke-width="1.6"/>
<path d="M514.1 136.6 L520.5 143.0 M514.1 143.0 L520.5 136.6" stroke="#e0556b" stroke-width="1.6"/>
<circle cx="390.7" cy="225.2" r="3.4" fill="#2ec26b" opacity="0.85"/>
<circle cx="505.1" cy="198.9" r="3.4" fill="#2ec26b" opacity="0.85"/>
<path d="M481.6 263.3 L488.0 269.7 M481.6 269.7 L488.0 263.3" stroke="#e0556b" stroke-width="1.6"/>
<path d="M366.4 73.2 L372.8 79.6 M366.4 79.6 L372.8 73.2" stroke="#e0556b" stroke-width="1.6"/>
<circle cx="389.1" cy="56.5" r="3.4" fill="#2ec26b" opacity="0.85"/>
<path d="M424.1 250.5 L430.5 256.9 M424.1 256.9 L430.5 250.5" stroke="#e0556b" stroke-width="1.6"/>
<circle cx="508.8" cy="154.0" r="3.4" fill="#2ec26b" opacity="0.85"/>
<path d="M509.2 128.7 L515.6 135.1 M509.2 135.1 L515.6 128.7" stroke="#e0556b" stroke-width="1.6"/>
<circle cx="513.2" cy="158.3" r="3.4" fill="#2ec26b" opacity="0.85"/>
<circle cx="516.5" cy="156.1" r="3.4" fill="#2ec26b" opacity="0.85"/>
<path d="M513.3 164.3 L519.7 170.7 M513.3 170.7 L519.7 164.3" stroke="#e0556b" stroke-width="1.6"/>
<circle cx="505.9" cy="148.3" r="3.4" fill="#2ec26b" opacity="0.85"/>
<circle cx="512.4" cy="173.9" r="3.4" fill="#2ec26b" opacity="0.85"/>
<circle cx="447.5" cy="47.2" r="3.4" fill="#2ec26b" opacity="0.85"/>
<path d="M374.7 114.2 L381.1 120.6 M374.7 120.6 L381.1 114.2" stroke="#e0556b" stroke-width="1.6"/>
<circle cx="516.7" cy="180.1" r="3.4" fill="#2ec26b" opacity="0.85"/>
<path d="M429.9 50.9 L436.3 57.3 M429.9 57.3 L436.3 50.9" stroke="#e0556b" stroke-width="1.6"/>
<circle cx="514.2" cy="130.2" r="3.4" fill="#2ec26b" opacity="0.85"/>
<path d="M503.7 54.4 L510.1 60.8 M503.7 60.8 L510.1 54.4" stroke="#e0556b" stroke-width="1.6"/>
<circle cx="504.5" cy="148.7" r="3.4" fill="#2ec26b" opacity="0.85"/>
<path d="M515.1 176.2 L521.5 182.6 M515.1 182.6 L521.5 176.2" stroke="#e0556b" stroke-width="1.6"/>
<path d="M440.9 258.6 L447.3 265.0 M440.9 265.0 L447.3 258.6" stroke="#e0556b" stroke-width="1.6"/>
<path d="M449.9 161.1 L456.3 167.5 M449.9 167.5 L456.3 161.1" stroke="#e0556b" stroke-width="1.6"/>
<circle cx="521.2" cy="177.1" r="3.4" fill="#2ec26b" opacity="0.85"/>
<path d="M521.2 173.2 L527.6 179.6 M521.2 179.6 L527.6 173.2" stroke="#e0556b" stroke-width="1.6"/>
<path d="M509.9 127.6 L516.3 134.0 M509.9 134.0 L516.3 127.6" stroke="#e0556b" stroke-width="1.6"/>
<path d="M507.4 114.8 L513.8 121.2 M507.4 121.2 L513.8 114.8" stroke="#e0556b" stroke-width="1.6"/>
<path d="M516.4 125.4 L522.8 131.8 M516.4 131.8 L522.8 125.4" stroke="#e0556b" stroke-width="1.6"/>
<circle cx="451.4" cy="264.6" r="3.4" fill="#2ec26b" opacity="0.85"/>
<circle cx="423.8" cy="253.9" r="3.4" fill="#2ec26b" opacity="0.85"/>
<circle cx="427.9" cy="56.8" r="3.4" fill="#2ec26b" opacity="0.85"/>
<path d="M440.9 255.0 L447.3 261.4 M440.9 261.4 L447.3 255.0" stroke="#e0556b" stroke-width="1.6"/>
<path d="M408.8 128.4 L415.2 134.8 M408.8 134.8 L415.2 128.4" stroke="#e0556b" stroke-width="1.6"/>
<path d="M490.7 156.9 L497.1 163.3 M490.7 163.3 L497.1 156.9" stroke="#e0556b" stroke-width="1.6"/>
<path d="M496.4 155.5 L502.8 161.9 M496.4 161.9 L502.8 155.5" stroke="#e0556b" stroke-width="1.6"/>
<circle cx="384.4" cy="80.4" r="3.4" fill="#2ec26b" opacity="0.85"/>
<circle cx="397.4" cy="67.6" r="3.4" fill="#2ec26b" opacity="0.85"/>
<path d="M384.4 231.7 L390.8 238.1 M384.4 238.1 L390.8 231.7" stroke="#e0556b" stroke-width="1.6"/>
<path d="M383.3 229.4 L389.7 235.8 M383.3 235.8 L389.7 229.4" stroke="#e0556b" stroke-width="1.6"/>
<path d="M467.7 36.5 L474.1 42.9 M467.7 42.9 L474.1 36.5" stroke="#e0556b" stroke-width="1.6"/>
<circle cx="500.1" cy="245.4" r="3.4" fill="#2ec26b" opacity="0.85"/>
<path d="M429.6 52.1 L436.0 58.5 M429.6 58.5 L436.0 52.1" stroke="#e0556b" stroke-width="1.6"/>
<circle cx="509.8" cy="170.7" r="3.4" fill="#2ec26b" opacity="0.85"/>
<path d="M522.0 131.1 L528.4 137.5 M522.0 137.5 L528.4 131.1" stroke="#e0556b" stroke-width="1.6"/>
<circle cx="431.1" cy="260.3" r="3.4" fill="#2ec26b" opacity="0.85"/>
<circle cx="509.8" cy="162.1" r="3.4" fill="#2ec26b" opacity="0.85"/>
<path d="M448.2 261.4 L454.6 267.8 M448.2 267.8 L454.6 261.4" stroke="#e0556b" stroke-width="1.6"/>
<path d="M498.0 158.3 L504.4 164.7 M498.0 164.7 L504.4 158.3" stroke="#e0556b" stroke-width="1.6"/>
<path d="M518.3 168.3 L524.7 174.7 M518.3 174.7 L524.7 168.3" stroke="#e0556b" stroke-width="1.6"/>
<path d="M429.9 213.9 L436.3 220.3 M429.9 220.3 L436.3 213.9" stroke="#e0556b" stroke-width="1.6"/>
<circle cx="508.8" cy="154.0" r="3.4" fill="#2ec26b" opacity="0.85"/>
<path d="M501.3 180.4 L507.7 186.8 M501.3 186.8 L507.7 180.4" stroke="#e0556b" stroke-width="1.6"/>
<circle cx="510.2" cy="172.2" r="3.4" fill="#2ec26b" opacity="0.85"/>
<circle cx="500.9" cy="273.2" r="3.4" fill="#2ec26b" opacity="0.85"/>
<path d="M407.6 240.1 L414.0 246.5 M407.6 246.5 L414.0 240.1" stroke="#e0556b" stroke-width="1.6"/>
<circle cx="482.2" cy="179.2" r="3.4" fill="#2ec26b" opacity="0.85"/>
<path d="M480.6 131.1 L487.0 137.5 M480.6 137.5 L487.0 131.1" stroke="#e0556b" stroke-width="1.6"/>
<path d="M473.4 136.1 L479.8 142.5 M473.4 142.5 L479.8 136.1" stroke="#e0556b" stroke-width="1.6"/>
<circle cx="487.9" cy="174.2" r="3.4" fill="#2ec26b" opacity="0.85"/>
<circle cx="374.7" cy="123.1" r="3.4" fill="#2ec26b" opacity="0.85"/>
<path d="M397.4 77.9 L403.8 84.3 M397.4 84.3 L403.8 77.9" stroke="#e0556b" stroke-width="1.6"/>
<circle cx="488.3" cy="140.2" r="3.4" fill="#2ec26b" opacity="0.85"/>
<circle cx="500.4" cy="180.1" r="3.4" fill="#2ec26b" opacity="0.85"/>
<path d="M449.3 202.5 L455.7 208.9 M449.3 208.9 L455.7 202.5" stroke="#e0556b" stroke-width="1.6"/>
<circle cx="394.1" cy="69.7" r="3.4" fill="#2ec26b" opacity="0.85"/>
<circle cx="409.5" cy="240.6" r="3.4" fill="#2ec26b" opacity="0.85"/>
<path d="M377.9 103.5 L384.3 109.9 M377.9 109.9 L384.3 103.5" stroke="#e0556b" stroke-width="1.6"/>
<circle cx="515.8" cy="270.4" r="3.4" fill="#2ec26b" opacity="0.85"/>
<circle cx="501.7" cy="159.3" r="3.4" fill="#2ec26b" opacity="0.85"/>
<path d="M411.7 56.4 L418.1 62.8 M411.7 62.8 L418.1 56.4" stroke="#e0556b" stroke-width="1.6"/>
<path d="M386.6 79.2 L393.0 85.6 M386.6 85.6 L393.0 79.2" stroke="#e0556b" stroke-width="1.6"/>
<path d="M496.1 136.8 L502.5 143.2 M496.1 143.2 L502.5 136.8" stroke="#e0556b" stroke-width="1.6"/>
<path d="M469.3 134.0 L475.7 140.4 M469.3 140.4 L475.7 134.0" stroke="#e0556b" stroke-width="1.6"/>
<path d="M402.8 249.3 L409.2 255.7 M402.8 255.7 L409.2 249.3" stroke="#e0556b" stroke-width="1.6"/>
<path d="M496.1 157.5 L502.5 163.9 M496.1 163.9 L502.5 157.5" stroke="#e0556b" stroke-width="1.6"/>
<path d="M500.1 153.2 L506.5 159.6 M500.1 159.6 L506.5 153.2" stroke="#e0556b" stroke-width="1.6"/>
<circle cx="422.4" cy="249.4" r="3.4" fill="#2ec26b" opacity="0.85"/>
<path d="M509.2 184.3 L515.6 190.7 M509.2 190.7 L515.6 184.3" stroke="#e0556b" stroke-width="1.6"/>
<circle cx="503.5" cy="164.0" r="3.4" fill="#2ec26b" opacity="0.85"/>
<circle cx="455.7" cy="266.5" r="3.4" fill="#2ec26b" opacity="0.85"/>
<path d="M424.8 192.1 L431.2 198.5 M424.8 198.5 L431.2 192.1" stroke="#e0556b" stroke-width="1.6"/>
<path d="M458.9 188.5 L465.3 194.9 M458.9 194.9 L465.3 188.5" stroke="#e0556b" stroke-width="1.6"/>
<circle cx="480.8" cy="148.3" r="3.4" fill="#2ec26b" opacity="0.85"/>
<path d="M494.6 33.3 L501.0 39.7 M494.6 39.7 L501.0 33.3" stroke="#e0556b" stroke-width="1.6"/>
<circle cx="434.5" cy="261.5" r="3.4" fill="#2ec26b" opacity="0.85"/>
<path d="M506.8 35.5 L513.2 41.9 M506.8 41.9 L513.2 35.5" stroke="#e0556b" stroke-width="1.6"/>
<circle cx="512.4" cy="156.8" r="3.4" fill="#2ec26b" opacity="0.85"/>
<circle cx="512.4" cy="127.7" r="3.4" fill="#2ec26b" opacity="0.85"/>
<circle cx="475.1" cy="268.6" r="3.4" fill="#2ec26b" opacity="0.85"/>
<path d="M411.1 41.9 L417.5 48.3 M411.1 48.3 L417.5 41.9" stroke="#e0556b" stroke-width="1.6"/>
<circle cx="393.2" cy="236.6" r="3.4" fill="#2ec26b" opacity="0.85"/>
<path d="M395.6 76.8 L402.0 83.2 M395.6 83.2 L402.0 76.8" stroke="#e0556b" stroke-width="1.6"/>
<circle cx="492.8" cy="170.0" r="3.4" fill="#2ec26b" opacity="0.85"/>
<path d="M409.3 236.5 L415.7 242.9 M409.3 242.9 L415.7 236.5" stroke="#e0556b" stroke-width="1.6"/>
<circle cx="467.6" cy="177.8" r="3.4" fill="#2ec26b" opacity="0.85"/>
<path d="M492.0 166.8 L498.4 173.2 M492.0 173.2 L498.4 166.8" stroke="#e0556b" stroke-width="1.6"/>
<path d="M497.7 178.8 L504.1 185.2 M497.7 185.2 L504.1 178.8" stroke="#e0556b" stroke-width="1.6"/>
<path d="M478.8 159.1 L485.2 165.5 M478.8 165.5 L485.2 159.1" stroke="#e0556b" stroke-width="1.6"/>
<path d="M433.9 106.4 L440.3 112.8 M433.9 112.8 L440.3 106.4" stroke="#e0556b" stroke-width="1.6"/>
<path d="M406.3 228.8 L412.7 235.2 M406.3 235.2 L412.7 228.8" stroke="#e0556b" stroke-width="1.6"/>
<path d="M502.9 129.9 L509.3 136.3 M502.9 136.3 L509.3 129.9" stroke="#e0556b" stroke-width="1.6"/>
<circle cx="395.8" cy="222.8" r="3.4" fill="#2ec26b" opacity="0.85"/>
<circle cx="481.8" cy="164.4" r="3.4" fill="#2ec26b" opacity="0.85"/>
<path d="M378.8 207.5 L385.2 213.9 M378.8 213.9 L385.2 207.5" stroke="#e0556b" stroke-width="1.6"/>
<circle cx="384.4" cy="112.4" r="3.4" fill="#2ec26b" opacity="0.85"/>
<path d="M475.3 129.2 L481.7 135.6 M475.3 135.6 L481.7 129.2" stroke="#e0556b" stroke-width="1.6"/>
<path d="M458.9 38.3 L465.3 44.7 M458.9 44.7 L465.3 38.3" stroke="#e0556b" stroke-width="1.6"/>
<circle cx="403.7" cy="255.1" r="3.4" fill="#2ec26b" opacity="0.85"/>
<circle cx="425.6" cy="257.2" r="3.4" fill="#2ec26b" opacity="0.85"/>
<path d="M510.0 120.9 L516.4 127.3 M510.0 127.3 L516.4 120.9" stroke="#e0556b" stroke-width="1.6"/>
<path d="M428.9 44.7 L435.3 51.1 M428.9 51.1 L435.3 44.7" stroke="#e0556b" stroke-width="1.6"/>
<path d="M504.4 167.2 L510.8 173.6 M504.4 173.6 L510.8 167.2" stroke="#e0556b" stroke-width="1.6"/>
<circle cx="514.1" cy="159.7" r="3.4" fill="#2ec26b" opacity="0.85"/>
<circle cx="464.5" cy="229.4" r="3.4" fill="#2ec26b" opacity="0.85"/>
<circle cx="517.3" cy="165.4" r="3.4" fill="#2ec26b" opacity="0.85"/>
<path d="M373.7 76.8 L380.1 83.2 M373.7 83.2 L380.1 76.8" stroke="#e0556b" stroke-width="1.6"/>
<circle cx="480.8" cy="81.4" r="3.4" fill="#2ec26b" opacity="0.85"/>
<path d="M421.6 249.8 L428.0 256.2 M421.6 256.2 L428.0 249.8" stroke="#e0556b" stroke-width="1.6"/>
<circle cx="490.3" cy="93.8" r="3.4" fill="#2ec26b" opacity="0.85"/>
<path d="M496.9 161.8 L503.3 168.2 M496.9 168.2 L503.3 161.8" stroke="#e0556b" stroke-width="1.6"/>
<circle cx="365.4" cy="158.6" r="3.4" fill="#2ec26b" opacity="0.85"/>
<path d="M494.5 177.4 L500.9 183.8 M494.5 183.8 L500.9 177.4" stroke="#e0556b" stroke-width="1.6"/>
<path d="M494.5 167.5 L500.9 173.9 M494.5 173.9 L500.9 167.5" stroke="#e0556b" stroke-width="1.6"/>
<path d="M511.5 97.7 L517.9 104.1 M511.5 104.1 L517.9 97.7" stroke="#e0556b" stroke-width="1.6"/>
<path d="M508.3 145.4 L514.7 151.8 M508.3 151.8 L514.7 145.4" stroke="#e0556b" stroke-width="1.6"/>
<path d="M430.4 45.0 L436.8 51.4 M430.4 51.4 L436.8 45.0" stroke="#e0556b" stroke-width="1.6"/>
<path d="M427.4 152.6 L433.8 159.0 M427.4 159.0 L433.8 152.6" stroke="#e0556b" stroke-width="1.6"/>
<path d="M514.2 177.6 L520.6 184.0 M514.2 184.0 L520.6 177.6" stroke="#e0556b" stroke-width="1.6"/>
<path d="M478.6 113.5 L485.0 119.9 M478.6 119.9 L485.0 113.5" stroke="#e0556b" stroke-width="1.6"/>
<path d="M424.2 101.4 L430.6 107.8 M424.2 107.8 L430.6 101.4" stroke="#e0556b" stroke-width="1.6"/>
<path d="M420.6 257.9 L427.0 264.3 M420.6 264.3 L427.0 257.9" stroke="#e0556b" stroke-width="1.6"/>
<circle cx="414.1" cy="248.2" r="3.4" fill="#2ec26b" opacity="0.85"/>
<path d="M451.5 149.7 L457.9 156.1 M451.5 156.1 L457.9 149.7" stroke="#e0556b" stroke-width="1.6"/>
<path d="M486.4 153.9 L492.8 160.3 M486.4 160.3 L492.8 153.9" stroke="#e0556b" stroke-width="1.6"/>
<path d="M395.5 66.4 L401.9 72.8 M395.5 72.8 L401.9 66.4" stroke="#e0556b" stroke-width="1.6"/>
<path d="M505.8 147.5 L512.2 153.9 M505.8 153.9 L512.2 147.5" stroke="#e0556b" stroke-width="1.6"/>
<path d="M474.2 160.4 L480.6 166.8 M474.2 166.8 L480.6 160.4" stroke="#e0556b" stroke-width="1.6"/>
<path d="M416.1 248.0 L422.5 254.4 M416.1 254.4 L422.5 248.0" stroke="#e0556b" stroke-width="1.6"/>
<circle cx="496.4" cy="148.0" r="3.4" fill="#2ec26b" opacity="0.85"/>
<path d="M505.6 150.8 L512.0 157.2 M505.6 157.2 L512.0 150.8" stroke="#e0556b" stroke-width="1.6"/>
<path d="M384.4 51.6 L390.8 58.0 M384.4 58.0 L390.8 51.6" stroke="#e0556b" stroke-width="1.6"/>
<path d="M360.9 168.3 L367.3 174.7 M360.9 174.7 L367.3 168.3" stroke="#e0556b" stroke-width="1.6"/>
<path d="M473.7 141.2 L480.1 147.6 M473.7 147.6 L480.1 141.2" stroke="#e0556b" stroke-width="1.6"/>
<path d="M382.8 216.7 L389.2 223.1 M382.8 223.1 L389.2 216.7" stroke="#e0556b" stroke-width="1.6"/>
<circle cx="378.7" cy="205.0" r="3.4" fill="#2ec26b" opacity="0.85"/>
<path d="M492.3 99.3 L498.7 105.7 M492.3 105.7 L498.7 99.3" stroke="#e0556b" stroke-width="1.6"/>
<path d="M371.5 65.8 L377.9 72.2 M371.5 72.2 L377.9 65.8" stroke="#e0556b" stroke-width="1.6"/>
</svg>