<svg xmlns="http://www.w3.org/2000/svg" width="560" height="300" font-family="sans-serif">
<rect x="0" y="0" width="560" height="300" fill="#1b1b1b"/>
<text x="20" y="16" fill="#ddd" font-size="13">J. Santiso (AGU) — 184 tiros, Clasificatorio</text>
<rect x="20" y="28" width="520" height="252" fill="none" stroke="#555"/>
<path d="M377.9 103.5 L384.3 109.9 M377.9 109.9 L384.3 103.5" stroke="#e0556b" stroke-width="1.6"/>
<path d="M498.8 165.5 L505.2 171.9 M498.8 171.9 L505.2 165.5" stroke="#e0556b" stroke-width="1.6"/>
<path d="M406.3 226.7 L412.7 233.1 M406.3 233.1 L412.7 226.7" stroke="#e0556b" stroke-width="1.6"/>
<path d="M507.7 137.7 L514.1 144.1 M507.7 144.1 L514.1 137.7" stroke="#e0556b" stroke-width="1.6"/>
<path d="M501.3 156.2 L507.7 162.6 M501.3 162.6 L507.7 156.2" stroke="#e0556b" stroke-width="1.6"/>
<circle cx="393.3" cy="86.1" r="3.4" fill="#2ec26b" opacity="0.85"/>
<circle cx="503.3" cy="140.8" r="3.4" fill="#2ec26b" opacity="0.85"/>
<circle cx="509.8" cy="162.1" r="3.4" fill="#2ec26b" opacity="0.85"/>
<path d="M496.9 176.0 L503.3 182.4 M496.9 182.4 L503.3 176.0" stroke="#e0556b" stroke-width="1.6"/>
<path d="M367.1 158.9 L373.5 165.3 M367.1 165.3 L373.5 158.9" stroke="#e0556b" stroke-width="1.6"/>
<circle cx="493.6" cy="157.1" r="3.4" fill="#2ec26b" opacity="0.85"/>
<path d="M506.6 168.9 L513.0 175.3 M506.6 175.3 L513.0 168.9" stroke="#e0556b" stroke-width="1.6"/>
<path d="M509.0 268.5 L515.4 274.9 M509.0 274.9 L515.4 268.5" stroke="#e0556b" stroke-width="1.6"/>
<circle cx="396.3" cy="233.3" r="3.4" fill="#2ec26b" opacity="0.85"/>
<circle cx="501.7" cy="162.1" r="3.4" fill="#2ec26b" opacity="0.85"/>
<path d="M517.5 171.2 L523.9 177.6 M517.5 177.6 L523.9 171.2" stroke="#e0556b" stroke-width="1.6"/>
<circle cx="516.7" cy="169.4" r="3.4" fill="#2ec26b" opacity="0.85"/>
<circle cx="475.3" cy="36.3" r="3.4" fill="#2ec26b" opacity="0.85"/>
<path d="M527.2 271.5 L533.6 277.9 M527.2 277.9 L533.6 271.5" stroke="#e0556b" stroke-width="1.6"/>
<path d="M513.9 144.7 L520.3 151.1 M513.9 151.1 L520.3 144.7" stroke="#e0556b" stroke-width="1.6"/>
<circle cx="443.3" cy="50.4" r="3.4" fill="#2ec26b" opacity="0.85"/>
<path d="M513.1 139.0 L519.5 145.4 M513.1 145.4 L519.5 139.0" stroke="#e0556b" stroke-width="1.6"/>
<path d="M526.1 125.4 L532.5 131.8 M526.1 131.8 L532.5 125.4" stroke="#e0556b" stroke-width="1.6"/>
<circle cx="387.3" cy="202.0" r="3.4" fill="#2ec26b" opacity="0.85"/>
<circle cx="496.8" cy="157.1" r="3.4" fill="#2ec26b" opacity="0.85"/>
<path d="M443.4 40.8 L449.8 47.2 M443.4 47.2 L449.8 40.8" stroke="#e0556b" stroke-width="1.6"/>
<path d="M399.1 63.0 L405.5 69.4 M399.1 69.4 L405.5 63.0" stroke="#e0556b" stroke-width="1.6"/>
<path d="M365.0 188.2 L371.4 194.6 M365.0 194.6 L371.4 188.2" stroke="#e0556b" stroke-width="1.6"/>
<path d="M481.8 150.5 L488.2 156.9 M481.8 156.9 L488.2 150.5" stroke="#e0556b" stroke-width="1.6"/>
<path d="M337.4 123.5 L343.8 129.9 M337.4 129.9 L343.8 123.5" stroke="#e0556b" stroke-width="1.6"/>
<path d="M355.3 101.4 L361.7 107.8 M355.3 107.8 L361.7 101.4" stroke="#e0556b" stroke-width="1.6"/>
<path d="M442.8 40.2 L449.2 46.6 M442.8 46.6 L449.2 40.2" stroke="#e0556b" stroke-width="1.6"/>
<circle cx="461.5" cy="146.6" r="3.4" fill="#2ec26b" opacity="0.85"/>
<path d="M381.2 74.3 L387.6 80.7 M381.2 80.7 L387.6 74.3" stroke="#e0556b" stroke-width="1.6"/>
<path d="M482.6 128.4 L489.0 134.8 M482.6 134.8 L489.0 128.4" stroke="#e0556b" stroke-width="1.6"/>
<path d="M371.5 153.4 L377.9 159.8 M371.5 159.8 L377.9 153.4" stroke="#e0556b" stroke-width="1.6"/>
<path d="M388.5 95.0 L394.9 101.4 M388.5 101.4 L394.9 95.0" stroke="#e0556b" stroke-width="1.6"/>
<path d="M392.2 94.1 L398.6 100.5 M392.2 100.5 L398.6 94.1" stroke="#e0556b" stroke-width="1.6"/>
<circle cx="503.3" cy="163.6" r="3.4" fill="#2ec26b" opacity="0.85"/>
<path d="M385.7 204.5 L392.1 210.9 M385.7 210.9 L392.1 204.5" stroke="#e0556b" stroke-width="1.6"/>
<circle cx="417.3" cy="68.1" r="3.4" fill="#2ec26b" opacity="0.85"/>
<path d="M375.2 141.1 L381.6 147.5 M375.2 147.5 L381.6 141.1" stroke="#e0556b" stroke-width="1.6"/>
<path d="M483.9 170.3 L490.3 176.7 M483.9 176.7 L490.3 170.3" stroke="#e0556b" stroke-width="1.6"/>
<path d="M454.7 156.8 L461.1 163.2 M454.7 163.2 L461.1 156.8" stroke="#e0556b" stroke-width="1.6"/>
<path d="M504.2 158.9 L510.6 165.3 M504.2 165.3 L510.6 158.9" stroke="#e0556b" stroke-width="1.6"/>
<path d="M373.6 198.8 L380.0 205.2 M373.6 205.2 L380.0 198.8" stroke="#e0556b" stroke-width="1.6"/>
<path d="M367.1 155.4 L373.5 161.8 M367.1 161.8 L373.5 155.4" stroke="#e0556b" stroke-width="1.6"/>
<circle cx="388.5" cy="86.1" r="3.4" fill="#2ec26b" opacity="0.85"/>
<circle cx="378.7" cy="108.9" r="3.4" fill="#2ec26b" opacity="0.85"/>
<circle cx="377.9" cy="103.9" r="3.4" fill="#2ec26b" opacity="0.85"/>
<circle cx="504.5" cy="153.0" r="3.4" fill="#2ec26b" opacity="0.85"/>
<path d="M365.0 186.8 L371.4 193.2 M365.0 193.2 L371.4 186.8" stroke="#e0556b" stroke-width="1.6"/>
<circle cx="515.0" cy="166.5" r="3.4" fill="#2ec26b" opacity="0.85"/>
<path d="M511.0 174.7 L517.4 181.1 M511.0 181.1 L517.4 174.7" stroke="#e0556b" stroke-width="1.6"/>
<circle cx="384.4" cy="118.8" r="3.4" fill="#2ec26b" opacity="0.85"/>
<circle cx="504.5" cy="154.4" r="3.4" fill="#2ec26b" opacity="0.85"/>
<circle cx="412.0" cy="244.1" r="3.4" fill="#2ec26b" opacity="0.85"/>
<path d="M371.5 90.7 L377.9 97.1 M371.5 97.1 L377.9 90.7" stroke="#e0556b" stroke-width="1.6"/>
<circle cx="515.8" cy="168.0" r="3.4" fill="#2ec26b" opacity="0.85"/>
<path d="M514.2 181.8 L520.6 188.2 M514.2 188.2 L520.6 181.8" stroke="#e0556b" stroke-width="1.6"/>
<circle cx="439.6" cy="51.2" r="3.4" fill="#2ec26b" opacity="0.85"/>
<path d="M514.8 170.3 L521.2 176.7 M514.8 176.7 L521.2 170.3" stroke="#e0556b" stroke-width="1.6"/>
<path d="M437.7 45.7 L444.1 52.1 M437.7 52.1 L444.1 45.7" stroke="#e0556b" stroke-width="1.6"/>
<path d="M411.7 235.8 L418.1 242.2 M411.7 242.2 L418.1 235.8" stroke="#e0556b" stroke-width="1.6"/>
<path d="M409.3 62.1 L415.7 68.5 M409.3 68.5 L415.7 62.1" stroke="#e0556b" stroke-width="1.6"/>
<path d="M499.3 121.2 L505.7 127.6 M499.3 127.6 L505.7 121.2" stroke="#e0556b" stroke-width="1.6"/>
<circle cx="513.1" cy="271.0" r="3.4" fill="#2ec26b" opacity="0.85"/>
<circle cx="512.2" cy="178.5" r="3.4" fill="#2ec26b" opacity="0.85"/>
<path d="M479.0 268.5 L485.4 274.9 M479.0 274.9 L485.4 268.5" stroke="#e0556b" stroke-width="1.6"/>
<path d="M425.5 51.4 L431.9 57.8 M425.5 57.8 L431.9 51.4" stroke="#e0556b" stroke-width="1.6"/>
<path d="M500.1 158.2 L506.5 164.6 M500.1 164.6 L506.5 158.2" stroke="#e0556b" stroke-width="1.6"/>
<path d="M358.5 109.2 L364.9 115.6 M358.5 115.6 L364.9 109.2" stroke="#e0556b" stroke-width="1.6"/>
<circle cx="506.9" cy="182.9" r="3.4" fill="#2ec26b" opacity="0.85"/>
<circle cx="512.6" cy="137.3" r="3.4" fill="#2ec26b" opacity="0.85"/>
<path d="M374.7 166.2 L381.1 172.6 M374.7 172.6 L381.1 166.2" stroke="#e0556b" stroke-width="1.6"/>
<circle cx="509.3" cy="179.4" r="3.4" fill="#2ec26b" opacity="0.85"/>
<circle cx="515.8" cy="171.5" r="3.4" fill="#2ec26b" opacity="0.85"/>
<circle cx="404.7" cy="227.0" r="3.4" fill="#2ec26b" opacity="0.85"/>
<path d="M376.0 181.0 L382.4 187.4 M376.0 187.4 L382.4 181.0" stroke="#e0556b" stroke-width="1.6"/>
<path d="M373.6 114.1 L380.0 120.5 M373.6 120.5 L380.0 114.1" stroke="#e0556b" stroke-width="1.6"/>
<circle cx="513.1" cy="180.6" r="3.4" fill="#2ec26b" opacity="0.85"/>
<path d="M513.9 165.3 L520.3 171.7 M513.9 171.7 L520.3 165.3" stroke="#e0556b" stroke-width="1.6"/>
<circle cx="480.9" cy="158.7" r="3.4" fill="#2ec26b" opacity="0.85"/>
<circle cx="512.6" cy="155.1" r="3.4" fill="#2ec26b" opacity="0.85"/>
<path d="M459.1 260.8 L465.5 267.2 M459.1 267.2 L465.5 260.8" stroke="#e0556b" stroke-width="1.6"/>
<path d="M498.0 149.8 L504.4 156.2 M498.0 156.2 L504.4 149.8" stroke="#e0556b" stroke-width="1.6"/>
<path d="M492.3 134.1 L498.7 140.5 M492.3 140.5 L498.7 134.1" stroke="#e0556b" stroke-width="1.6"/>
<path d="M504.2 167.5 L510.6 173.9 M504.2 173.9 L510.6 167.5" stroke="#e0556b" stroke-width="1.6"/>
<path d="M505.8 50.7 L512.2 57.1 M505.8 57.1 L512.2 50.7" stroke="#e0556b" stroke-width="1.6"/>
<path d="M444.1 257.1 L450.5 263.5 M444.1 263.5 L450.5 257.1" stroke="#e0556b" stroke-width="1.6"/>
<path d="M392.2 216.6 L398.6 223.0 M392.2 223.0 L398.6 216.6" stroke="#e0556b" stroke-width="1.6"/>
<path d="M433.6 259.3 L440.0 265.7 M433.6 265.7 L440.0 259.3" stroke="#e0556b" stroke-width="1.6"/>
<path d="M369.5 83.5 L375.9 89.9 M369.5 89.9 L375.9 83.5" stroke="#e0556b" stroke-width="1.6"/>
<path d="M503.4 148.2 L509.8 154.6 M503.4 154.6 L509.8 148.2" stroke="#e0556b" stroke-width="1.6"/>
<circle cx="464.4" cy="157.1" r="3.4" fill="#2ec26b" opacity="0.85"/>
<path d="M493.6 151.1 L500.0 157.5 M493.6 157.5 L500.0 151.1" stroke="#e0556b" stroke-width="1.6"/>
<path d="M483.4 151.2 L489.8 157.6 M483.4 157.6 L489.8 151.2" stroke="#e0556b" stroke-width="1.6"/>
<path d="M352.0 115.6 L358.4 122.0 M352.0 122.0 L358.4 115.6" stroke="#e0556b" stroke-width="1.6"/>
<path d="M507.0 168.3 L513.4 174.7 M507.0 174.7 L513.4 168.3" stroke="#e0556b" stroke-width="1.6"/>
<path d="M496.4 159.8 L502.8 166.2 M496.4 166.2 L502.8 159.8" stroke="#e0556b" stroke-width="1.6"/>
<path d="M371.1 94.9 L377.5 101.3 M371.1 101.3 L377.5 94.9" stroke="#e0556b" stroke-width="1.6"/>
<path d="M488.8 144.0 L495.2 150.4 M488.8 150.4 L495.2 144.0" stroke="#e0556b" stroke-width="1.6"/>
<path d="M386.6 79.9 L393.0 86.3 M386.6 86.3 L393.0 79.9" stroke="#e0556b" stroke-width="1.6"/>
<path d="M470.9 101.3 L477.3 107.7 M470.9 107.7 L477.3 101.3" stroke="#e0556b" stroke-width="1.6"/>
<circle cx="423.4" cy="256.9" r="3.4" fill="#2ec26b" opacity="0.85"/>
<circle cx="363.3" cy="123.8" r="3.4" fill="#2ec26b" opacity="0.85"/>
<path d="M492.3 130.6 L498.7 137.0 M492.3 137.0 L498.7 130.6" stroke="#e0556b" stroke-width="1.6"/>
<path d="M363.8 156.1 L370.2 162.5 M363.8 162.5 L370.2 156.1" stroke="#e0556b" stroke-width="1.6"/>
<path d="M409.3 244.3 L415.7 250.7 M409.3 250.7 L415.7 244.3" stroke="#e0556b" stroke-width="1.6"/>
<path d="M373.9 161.2 L380.3 167.6 M373.9 167.6 L380.3 161.2" stroke="#e0556b" stroke-width="1.6"/>
<circle cx="377.1" cy="179.4" r="3.4" fill="#2ec26b" opacity="0.85"/>
<path d="M486.7 139.1 L493.1 145.5 M486.7 145.5 L493.1 139.1" stroke="#e0556b" stroke-width="1.6"/>
<path d="M497.7 35.8 L504.1 42.2 M497.7 42.2 L504.1 35.8" stroke="#e0556b" stroke-width="1.6"/>
<circle cx="509.8" cy="271.0" r="3.4" fill="#2ec26b" opacity="0.85"/>
<path d="M428.7 248.6 L435.1 255.0 M428.7 255.0 L435.1 248.6" stroke="#e0556b" stroke-width="1.6"/>
<path d="M504.2 144.7 L510.6 151.1 M504.2 151.1 L510.6 144.7" stroke="#e0556b" stroke-width="1.6"/>
<path d="M372.3 166.9 L378.7 173.3 M372.3 173.3 L378.7 166.9" stroke="#e0556b" stroke-width="1.6"/>
<path d="M387.7 88.6 L394.1 95.0 M387.7 95.0 L394.1 88.6" stroke="#e0556b" stroke-width="1.6"/>
<circle cx="445.7" cy="48.2" r="3.4" fill="#2ec26b" opacity="0.85"/>
<path d="M471.7 35.8 L478.1 42.2 M471.7 42.2 L478.1 35.8" stroke="#e0556b" stroke-width="1.6"/>
<path d="M513.1 175.3 L519.5 181.7 M513.1 181.7 L519.5 175.3" stroke="#e0556b" stroke-width="1.6"/>
<path d="M406.0 65.6 L412.4 72.0 M406.0 72.0 L412.4 65.6" stroke="#e0556b" stroke-width="1.6"/>
<path d="M444.1 258.6 L450.5 265.0 M444.1 265.0 L450.5 258.6" stroke="#e0556b" stroke-width="1.6"/>
<circle cx="516.3" cy="174.2" r="3.4" fill="#2ec26b" opacity="0.85"/>
<circle cx="514.2" cy="123.1" r="3.4" fill="#2ec26b" opacity="0.85"/>
<circle cx="506.1" cy="171.5" r="3.4" fill="#2ec26b" opacity="0.85"/>
<circle cx="518.3" cy="176.5" r="3.4" fill="#2ec26b" opacity="0.85"/>
<path d="M511.5 32.9 L517.9 39.3 M511.5 39.3 L517.9 32.9" stroke="#e0556b" stroke-width="1.6"/>
<path d="M409.3 69.2 L415.7 75.6 M409.3 75.6 L415.7 69.2" stroke="#e0556b" stroke-width="1.6"/>
<circle cx="446.6" cy="258.9" r="3.4" fill="#2ec26b" opacity="0.85"/>
<circle cx="510.9" cy="145.9" r="3.4" fill="#2ec26b" opacity="0.85"/>
<circle cx="423.4" cy="248.4" r="3.4" fill="#2ec26b" opacity="0.85"/>
<circle cx="506.1" cy="135.9" r="3.4" fill="#2ec26b" opacity="0.85"/>
<path d="M386.9 83.6 L393.3 90.0 M386.9 90.0 L393.3 83.6" stroke="#e0556b" stroke-width="1.6"/>
<circle cx="509.8" cy="144.3" r="3.4" fill="#2ec26b" opacity="0.85"/>
<circle cx="496.0" cy="182.0" r="3.4" fill="#2ec26b" opacity="0.85"/>
<circle cx="371.9" cy="144.3" r="3.4" fill="#2ec26b" opacity="0.85"/>
<path d="M376.8 213.7 L383.2 220.1 M376.8 220.1 L383.2 213.7" stroke="#e0556b" stroke-width="1.6"/>
<path d="M488.8 264.3 L495.2 270.7 M488.8 270.7 L495.2 264.3" stroke="#e0556b" stroke-width="1.6"/>
<circle cx="514.2" cy="154.4" r="3.4" fill="#2ec26b" opacity="0.85"/>
<path d="M506.1 154.1 L512.5 160.5 M506.1 160.5 L512.5 154.1" stroke="#e0556b" stroke-width="1.6"/>
<circle cx="507.7" cy="153.7" r="3.4" fill="#2ec26b" opacity="0.85"/>
<path d="M394.2 224.6 L400.6 231.0 M394.2 231.0 L400.6 224.6" stroke="#e0556b" stroke-width="1.6"/>
<path d="M366.3 185.2 L372.7 191.6 M366.3 191.6 L372.7 185.2" stroke="#e0556b" stroke-width="1.6"/>
<circle cx="377.6" cy="165.7" r="3.4" fill="#2ec26b" opacity="0.85"/>
<circle cx="515.5" cy="153.6" r="3.4" fill="#2ec26b" opacity="0.85"/>
<path d="M384.1 92.0 L390.5 98.4 M384.1 98.4 L390.5 92.0" stroke="#e0556b" stroke-width="1.6"/>
<path d="M381.2 218.9 L387.6 225.3 M381.2 225.3 L387.6 218.9" stroke="#e0556b" stroke-width="1.6"/>
<circle cx="510.9" cy="172.9" r="3.4" fill="#2ec26b" opacity="0.85"/>
<path d="M511.0 31.6 L517.4 38.0 M511.0 38.0 L517.4 31.6" stroke="#e0556b" stroke-width="1.6"/>
<path d="M484.7 182.4 L491.1 188.8 M484.7 188.8 L491.1 182.4" stroke="#e0556b" stroke-width="1.6"/>
<path d="M464.4 164.6 L470.8 171.0 M464.4 171.0 L470.8 164.6" stroke="#e0556b" stroke-width="1.6"/>
<path d="M462.8 133.3 L469.2 139.7 M462.8 139.7 L469.2 133.3" stroke="#e0556b" stroke-width="1.6"/>
<path d="M370.3 178.8 L376.7 185.2 M370.3 185.2 L376.7 178.8" stroke="#e0556b" stroke-width="1.6"/>
<circle cx="444.1" cy="258.2" r="3.4" fill="#2ec26b" opacity="0.85"/>
<circle cx="502.5" cy="188.4" r="3.4" fill="#2ec26b" opacity="0.85"/>
<path d="M296.0 169.7 L302.4 176.1 M296.0 176.1 L302.4 169.7" stroke="#e0556b" stroke-width="1.6"/>
<circle cx="510.2" cy="182.9" r="3.4" fill="#2ec26b" opacity="0.85"/>
<path d="M411.2 55.1 L417.6 61.5 M411.2 61.5 L417.6 55.1" stroke="#e0556b" stroke-width="1.6"/>
<path d="M473.7 150.5 L480.1 156.9 M473.7 156.9 L480.1 150.5" stroke="#e0556b" stroke-width="1.6"/>
<circle cx="486.6" cy="140.2" r="3.4" fill="#2ec26b" opacity="0.85"/>
<circle cx="406.3" cy="225.6" r="3.4" fill="#2ec26b" opacity="0.85"/>
<path d="M504.5 145.5 L510.9 151.9 M504.5 151.9 L510.9 145.5" stroke="#e0556b" stroke-width="1.6"/>
<path d="M365.8 149.1 L372.2 155.5 M365.8 155.5 L372.2 149.1" stroke="#e0556b" stroke-width="1.6"/>
<circle cx="519.6" cy="151.4" r="3.4" fill="#2ec26b" opacity="0.85"/>
<circle cx="365.4" cy="151.4" r="3.4" fill="#2ec26b" opacity="0.85"/>
<path d="M387.4 107.7 L393.8 114.1 M387.4 114.1 L393.8 107.7" stroke="#e0556b" stroke-width="1.6"/>
<path d="M475.3 185.4 L481.7 191.8 M475.3 191.8 L481.7 185.4" stroke="#e0556b" stroke-width="1.6"/>
<circle cx="373.0" cy="89.6" r="3.4" fill="#2ec26b" opacity="0.85"/>
<circle cx="458.2" cy="158.7" r="3.4" fill="#2ec26b" opacity="0.85"/>
<circle cx="366.6" cy="128.8" r="3.4" fill="#2ec26b" opacity="0.85"/>
<path d="M484.2 159.8 L490.6 166.2 M484.2 166.2 L490.6 159.8" stroke="#e0556b" stroke-width="1.6"/>
<path d="M490.4 129.7 L496.8 136.1 M490.4 136.1 L496.8 129.7" stroke="#e0556b" stroke-width="1.6"/>
<path d="M487.1 178.8 L493.5 185.2 M487.1 185.2 L493.5 178.8" stroke="#e0556b" stroke-width="1.6"/>
<path d="M490.4 176.0 L496.8 182.4 M490.4 182.4 L496.8 176.0" stroke="#e0556b" stroke-width="1.6"/>
<path d="M504.2 271.4 L510.6 277.8 M504.2 277.8 L510.6 271.4" stroke="#e0556b" stroke-width="1.6"/>
<path d="M519.6 35.1 L526.0 41.5 M519.6 41.5 L526.0 35.1" stroke="#e0556b" stroke-width="1.6"/>
<path d="M388.2 247.9 L394.6 254.3 M388.2 254.3 L394.6 247.9" stroke="#e0556b" stroke-width="1.6"/>
<circle cx="500.9" cy="156.4" r="3.4" fill="#2ec26b" opacity="0.85"/>
<path d="M505.8 107.7 L512.2 114.1 M505.8 114.1 L512.2 107.7" stroke="#e0556b" stroke-width="1.6"/>
<circle cx="505.8" cy="110.2" r="3.4" fill="#2ec26b" opacity="0.85"/>
<path d="M397.1 233.7 L403.5 240.1 M397.1 240.1 L403.5 233.7" stroke="#e0556b" stroke-width="1.6"/>
<path d="M486.4 178.8 L492.8 185.2 M486.4 185.2 L492.8 178.8" stroke="#e0556b" stroke-width="1.6"/>
<path d="M400.4 63.5 L406.8 69.9 M400.4 69.9 L406.8 63.5" stroke="#e0556b" stroke-width="1.6"/>
</svg>