<svg xmlns="http://www.w3.org/2000/svg" width="560" height="300" font-family="sans-serif">
<rect x="0" y="0" width="560" height="300" fill="#1b1b1b"/>
<text x="20" y="16" fill="#ddd" font-size="13">J. Strings (GOE) — 166 tiros, Clasificatorio</text>
<rect x="20" y="28" width="520" height="252" fill="none" stroke="#555"/>
<circle cx="446.0" cy="194.3" r="3.4" fill="#2ec26b" opacity="0.85"/>
<path d="M473.7 213.9 L480.1 220.3 M473.7 220.3 L480.1 213.9" stroke="#e0556b" stroke-width="1.6"/>
<circle cx="452.5" cy="92.5" r="3.4" fill="#2ec26b" opacity="0.85"/>
<path d="M443.7 142.0 L450.1 148.4 M443.7 148.4 L450.1 142.0" stroke="#e0556b" stroke-width="1.6"/>
<path d="M500.5 94.3 L506.9 100.7 M500.5 100.7 L506.9 94.3" stroke="#e0556b" stroke-width="1.6"/>
<path d="M497.7 119.8 L504.1 126.2 M497.7 126.2 L504.1 119.8" stroke="#e0556b" stroke-width="1.6"/>
<circle cx="498.5" cy="145.0" r="3.4" fill="#2ec26b" opacity="0.85"/>
<circle cx="506.6" cy="165.0" r="3.4" fill="#2ec26b" opacity="0.85"/>
<path d="M453.9 177.4 L460.3 183.8 M453.9 183.8 L460.3 177.4" stroke="#e0556b" stroke-width="1.6"/>
<path d="M456.3 115.5 L462.7 121.9 M456.3 121.9 L462.7 115.5" stroke="#e0556b" stroke-width="1.6"/>
<circle cx="493.8" cy="157.6" r="3.4" fill="#2ec26b" opacity="0.85"/>
<circle cx="514.8" cy="161.1" r="3.4" fill="#2ec26b" opacity="0.85"/>
<circle cx="450.8" cy="122.7" r="3.4" fill="#2ec26b" opacity="0.85"/>
<path d="M467.8 66.1 L474.2 72.5 M467.8 72.5 L474.2 66.1" stroke="#e0556b" stroke-width="1.6"/>
<path d="M507.6 173.6 L514.0 180.0 M507.6 180.0 L514.0 173.6" stroke="#e0556b" stroke-width="1.6"/>
<path d="M477.6 171.4 L484.0 177.8 M477.6 177.8 L484.0 171.4" stroke="#e0556b" stroke-width="1.6"/>
<circle cx="435.4" cy="87.8" r="3.4" fill="#2ec26b" opacity="0.85"/>
<circle cx="502.7" cy="81.4" r="3.4" fill="#2ec26b" opacity="0.85"/>
<path d="M483.2 234.8 L489.6 241.2 M483.2 241.2 L489.6 234.8" stroke="#e0556b" stroke-width="1.6"/>
<circle cx="503.5" cy="182.5" r="3.4" fill="#2ec26b" opacity="0.85"/>
<path d="M505.6 150.8 L512.0 157.2 M505.6 157.2 L512.0 150.8" stroke="#e0556b" stroke-width="1.6"/>
<circle cx="515.7" cy="151.2" r="3.4" fill="#2ec26b" opacity="0.85"/>
<circle cx="521.3" cy="179.6" r="3.4" fill="#2ec26b" opacity="0.85"/>
<circle cx="422.4" cy="102.0" r="3.4" fill="#2ec26b" opacity="0.85"/>
<circle cx="477.5" cy="127.0" r="3.4" fill="#2ec26b" opacity="0.85"/>
<path d="M465.4 82.5 L471.8 88.9 M465.4 88.9 L471.8 82.5" stroke="#e0556b" stroke-width="1.6"/>
<circle cx="468.6" cy="134.1" r="3.4" fill="#2ec26b" opacity="0.85"/>
<circle cx="492.2" cy="143.3" r="3.4" fill="#2ec26b" opacity="0.85"/>
<path d="M476.6 151.1 L483.0 157.5 M476.6 157.5 L483.0 151.1" stroke="#e0556b" stroke-width="1.6"/>
<path d="M511.5 70.6 L517.9 77.0 M511.5 77.0 L517.9 70.6" stroke="#e0556b" stroke-width="1.6"/>
<circle cx="478.2" cy="135.1" r="3.4" fill="#2ec26b" opacity="0.85"/>
<path d="M458.7 139.0 L465.1 145.4 M458.7 145.4 L465.1 139.0" stroke="#e0556b" stroke-width="1.6"/>
<path d="M507.4 92.0 L513.8 98.4 M507.4 98.4 L513.8 92.0" stroke="#e0556b" stroke-width="1.6"/>
<path d="M496.9 182.4 L503.3 188.8 M496.9 188.8 L503.3 182.4" stroke="#e0556b" stroke-width="1.6"/>
<circle cx="434.4" cy="153.6" r="3.4" fill="#2ec26b" opacity="0.85"/>
<circle cx="482.5" cy="142.3" r="3.4" fill="#2ec26b" opacity="0.85"/>
<path d="M511.8 78.6 L518.2 85.0 M511.8 85.0 L518.2 78.6" stroke="#e0556b" stroke-width="1.6"/>
<circle cx="510.9" cy="156.6" r="3.4" fill="#2ec26b" opacity="0.85"/>
<path d="M491.5 181.1 L497.9 187.5 M491.5 187.5 L497.9 181.1" stroke="#e0556b" stroke-width="1.6"/>
<circle cx="512.6" cy="106.7" r="3.4" fill="#2ec26b" opacity="0.85"/>
<circle cx="509.3" cy="116.0" r="3.4" fill="#2ec26b" opacity="0.85"/>
<path d="M496.4 171.9 L502.8 178.3 M496.4 178.3 L502.8 171.9" stroke="#e0556b" stroke-width="1.6"/>
<path d="M485.8 213.2 L492.2 219.6 M485.8 219.6 L492.2 213.2" stroke="#e0556b" stroke-width="1.6"/>
<path d="M456.3 180.3 L462.7 186.7 M456.3 186.7 L462.7 180.3" stroke="#e0556b" stroke-width="1.6"/>
<path d="M516.4 203.8 L522.8 210.2 M516.4 210.2 L522.8 203.8" stroke="#e0556b" stroke-width="1.6"/>
<path d="M471.7 179.6 L478.1 186.0 M471.7 186.0 L478.1 179.6" stroke="#e0556b" stroke-width="1.6"/>
<path d="M494.5 176.0 L500.9 182.4 M494.5 182.4 L500.9 176.0" stroke="#e0556b" stroke-width="1.6"/>
<path d="M503.4 169.6 L509.8 176.0 M503.4 176.0 L509.8 169.6" stroke="#e0556b" stroke-width="1.6"/>
<path d="M470.9 149.0 L477.3 155.4 M470.9 155.4 L477.3 149.0" stroke="#e0556b" stroke-width="1.6"/>
<circle cx="497.7" cy="133.6" r="3.4" fill="#2ec26b" opacity="0.85"/>
<path d="M425.5 153.2 L431.9 159.6 M425.5 159.6 L431.9 153.2" stroke="#e0556b" stroke-width="1.6"/>
<circle cx="451.4" cy="165.0" r="3.4" fill="#2ec26b" opacity="0.85"/>
<path d="M419.8 55.0 L426.2 61.4 M419.8 61.4 L426.2 55.0" stroke="#e0556b" stroke-width="1.6"/>
<path d="M416.9 154.8 L423.3 161.2 M416.9 161.2 L423.3 154.8" stroke="#e0556b" stroke-width="1.6"/>
<path d="M437.2 150.5 L443.6 156.9 M437.2 156.9 L443.6 150.5" stroke="#e0556b" stroke-width="1.6"/>
<circle cx="493.9" cy="192.2" r="3.4" fill="#2ec26b" opacity="0.85"/>
<circle cx="488.9" cy="151.9" r="3.4" fill="#2ec26b" opacity="0.85"/>
<circle cx="433.7" cy="199.6" r="3.4" fill="#2ec26b" opacity="0.85"/>
<circle cx="488.1" cy="144.8" r="3.4" fill="#2ec26b" opacity="0.85"/>
<path d="M455.7 182.1 L462.1 188.5 M455.7 188.5 L462.1 182.1" stroke="#e0556b" stroke-width="1.6"/>
<path d="M467.8 176.4 L474.2 182.8 M467.8 182.8 L474.2 176.4" stroke="#e0556b" stroke-width="1.6"/>
<circle cx="502.7" cy="163.2" r="3.4" fill="#2ec26b" opacity="0.85"/>
<circle cx="404.5" cy="168.2" r="3.4" fill="#2ec26b" opacity="0.85"/>
<circle cx="499.4" cy="75.0" r="3.4" fill="#2ec26b" opacity="0.85"/>
<circle cx="405.3" cy="57.2" r="3.4" fill="#2ec26b" opacity="0.85"/>
<path d="M458.1 116.6 L464.5 123.0 M458.1 123.0 L464.5 116.6" stroke="#e0556b" stroke-width="1.6"/>
<path d="M497.1 88.2 L503.5 94.6 M497.1 94.6 L503.5 88.2" stroke="#e0556b" stroke-width="1.6"/>
<path d="M437.0 170.0 L443.4 176.4 M437.0 176.4 L443.4 170.0" stroke="#e0556b" stroke-width="1.6"/>
<circle cx="426.3" cy="137.9" r="3.4" fill="#2ec26b" opacity="0.85"/>
<path d="M445.0 229.4 L451.4 235.8 M445.0 235.8 L451.4 229.4" stroke="#e0556b" stroke-width="1.6"/>
<circle cx="496.8" cy="140.0" r="3.4" fill="#2ec26b" opacity="0.85"/>
<path d="M511.5 178.8 L517.9 185.2 M511.5 185.2 L517.9 178.8" stroke="#e0556b" stroke-width="1.6"/>
<circle cx="470.9" cy="151.4" r="3.4" fill="#2ec26b" opacity="0.85"/>
<path d="M475.3 151.2 L481.7 157.6 M475.3 157.6 L481.7 151.2" stroke="#e0556b" stroke-width="1.6"/>
<path d="M462.3 68.6 L468.7 75.0 M462.3 75.0 L468.7 68.6" stroke="#e0556b" stroke-width="1.6"/>
<circle cx="450.9" cy="154.4" r="3.4" fill="#2ec26b" opacity="0.85"/>
<circle cx="477.4" cy="174.9" r="3.4" fill="#2ec26b" opacity="0.85"/>
<path d="M446.6 147.5 L453.0 153.9 M446.6 153.9 L453.0 147.5" stroke="#e0556b" stroke-width="1.6"/>
<path d="M410.9 245.8 L417.3 252.2 M410.9 252.2 L417.3 245.8" stroke="#e0556b" stroke-width="1.6"/>
<circle cx="492.8" cy="135.8" r="3.4" fill="#2ec26b" opacity="0.85"/>
<circle cx="470.9" cy="142.2" r="3.4" fill="#2ec26b" opacity="0.85"/>
<circle cx="487.1" cy="148.6" r="3.4" fill="#2ec26b" opacity="0.85"/>
<path d="M499.6 177.6 L506.0 184.0 M499.6 184.0 L506.0 177.6" stroke="#e0556b" stroke-width="1.6"/>
<circle cx="523.2" cy="187.2" r="3.4" fill="#2ec26b" opacity="0.85"/>
<path d="M440.4 181.1 L446.8 187.5 M440.4 187.5 L446.8 181.1" stroke="#e0556b" stroke-width="1.6"/>
<path d="M413.7 105.0 L420.1 111.4 M413.7 111.4 L420.1 105.0" stroke="#e0556b" stroke-width="1.6"/>
<path d="M491.2 125.4 L497.6 131.8 M491.2 131.8 L497.6 125.4" stroke="#e0556b" stroke-width="1.6"/>
<circle cx="364.6" cy="157.1" r="3.4" fill="#2ec26b" opacity="0.85"/>
<circle cx="371.1" cy="122.2" r="3.4" fill="#2ec26b" opacity="0.85"/>
<circle cx="508.8" cy="154.0" r="3.4" fill="#2ec26b" opacity="0.85"/>
<path d="M460.4 186.7 L466.8 193.1 M460.4 193.1 L466.8 186.7" stroke="#e0556b" stroke-width="1.6"/>
<circle cx="428.7" cy="51.1" r="3.4" fill="#2ec26b" opacity="0.85"/>
<path d="M461.2 184.5 L467.6 190.9 M461.2 190.9 L467.6 184.5" stroke="#e0556b" stroke-width="1.6"/>
<circle cx="466.0" cy="178.5" r="3.4" fill="#2ec26b" opacity="0.85"/>
<circle cx="513.9" cy="230.5" r="3.4" fill="#2ec26b" opacity="0.85"/>
<path d="M370.3 116.9 L376.7 123.3 M370.3 123.3 L376.7 116.9" stroke="#e0556b" stroke-width="1.6"/>
<circle cx="455.8" cy="163.0" r="3.4" fill="#2ec26b" opacity="0.85"/>
<path d="M368.2 98.6 L374.6 105.0 M368.2 105.0 L374.6 98.6" stroke="#e0556b" stroke-width="1.6"/>
<path d="M431.5 144.1 L437.9 150.5 M431.5 150.5 L437.9 144.1" stroke="#e0556b" stroke-width="1.6"/>
<circle cx="462.3" cy="158.7" r="3.4" fill="#2ec26b" opacity="0.85"/>
<circle cx="507.7" cy="175.8" r="3.4" fill="#2ec26b" opacity="0.85"/>
<path d="M511.8 220.3 L518.2 226.7 M511.8 226.7 L518.2 220.3" stroke="#e0556b" stroke-width="1.6"/>
<path d="M505.6 150.8 L512.0 157.2 M505.6 157.2 L512.0 150.8" stroke="#e0556b" stroke-width="1.6"/>
<circle cx="446.0" cy="77.5" r="3.4" fill="#2ec26b" opacity="0.85"/>
<path d="M426.3 89.9 L432.7 96.3 M426.3 96.3 L432.7 89.9" stroke="#e0556b" stroke-width="1.6"/>
<path d="M370.3 107.7 L376.7 114.1 M370.3 114.1 L376.7 107.7" stroke="#e0556b" stroke-width="1.6"/>
<path d="M462.0 149.0 L468.4 155.4 M462.0 155.4 L468.4 149.0" stroke="#e0556b" stroke-width="1.6"/>
<path d="M487.1 155.4 L493.5 161.8 M487.1 161.8 L493.5 155.4" stroke="#e0556b" stroke-width="1.6"/>
<path d="M489.6 150.4 L496.0 156.8 M489.6 156.8 L496.0 150.4" stroke="#e0556b" stroke-width="1.6"/>
<path d="M503.4 147.5 L509.8 153.9 M503.4 153.9 L509.8 147.5" stroke="#e0556b" stroke-width="1.6"/>
<circle cx="481.4" cy="216.9" r="3.4" fill="#2ec26b" opacity="0.85"/>
<path d="M386.1 77.2 L392.5 83.6 M386.1 83.6 L392.5 77.2" stroke="#e0556b" stroke-width="1.6"/>
<path d="M482.6 145.5 L489.0 151.9 M482.6 151.9 L489.0 145.5" stroke="#e0556b" stroke-width="1.6"/>
<circle cx="514.2" cy="138.8" r="3.4" fill="#2ec26b" opacity="0.85"/>
<circle cx="480.9" cy="149.4" r="3.4" fill="#2ec26b" opacity="0.85"/>
<path d="M403.9 169.0 L410.3 175.4 M403.9 175.4 L410.3 169.0" stroke="#e0556b" stroke-width="1.6"/>
<circle cx="388.5" cy="217.1" r="3.4" fill="#2ec26b" opacity="0.85"/>
<path d="M489.6 183.1 L496.0 189.5 M489.6 189.5 L496.0 183.1" stroke="#e0556b" stroke-width="1.6"/>
<path d="M472.5 92.0 L478.9 98.4 M472.5 98.4 L478.9 92.0" stroke="#e0556b" stroke-width="1.6"/>
<circle cx="476.6" cy="167.1" r="3.4" fill="#2ec26b" opacity="0.85"/>
<circle cx="499.3" cy="167.8" r="3.4" fill="#2ec26b" opacity="0.85"/>
<path d="M436.0 40.0 L442.4 46.4 M436.0 46.4 L442.4 40.0" stroke="#e0556b" stroke-width="1.6"/>
<circle cx="492.0" cy="176.4" r="3.4" fill="#2ec26b" opacity="0.85"/>
<path d="M471.7 141.8 L478.1 148.2 M471.7 148.2 L478.1 141.8" stroke="#e0556b" stroke-width="1.6"/>
<path d="M368.2 102.8 L374.6 109.2 M368.2 109.2 L374.6 102.8" stroke="#e0556b" stroke-width="1.6"/>
<circle cx="472.0" cy="197.1" r="3.4" fill="#2ec26b" opacity="0.85"/>
<path d="M494.8 189.7 L501.2 196.1 M494.8 196.1 L501.2 189.7" stroke="#e0556b" stroke-width="1.6"/>
<circle cx="486.6" cy="102.5" r="3.4" fill="#2ec26b" opacity="0.85"/>
<circle cx="460.6" cy="149.4" r="3.4" fill="#2ec26b" opacity="0.85"/>
<path d="M457.4 195.4 L463.8 201.8 M457.4 201.8 L463.8 195.4" stroke="#e0556b" stroke-width="1.6"/>
<path d="M512.6 179.0 L519.0 185.4 M512.6 185.4 L519.0 179.0" stroke="#e0556b" stroke-width="1.6"/>
<path d="M438.8 186.8 L445.2 193.2 M438.8 193.2 L445.2 186.8" stroke="#e0556b" stroke-width="1.6"/>
<path d="M514.2 124.9 L520.6 131.3 M514.2 131.3 L520.6 124.9" stroke="#e0556b" stroke-width="1.6"/>
<circle cx="520.7" cy="172.2" r="3.4" fill="#2ec26b" opacity="0.85"/>
<path d="M509.4 206.7 L515.8 213.1 M509.4 213.1 L515.8 206.7" stroke="#e0556b" stroke-width="1.6"/>
<path d="M488.3 179.7 L494.7 186.1 M488.3 186.1 L494.7 179.7" stroke="#e0556b" stroke-width="1.6"/>
<path d="M489.1 203.2 L495.5 209.6 M489.1 209.6 L495.5 203.2" stroke="#e0556b" stroke-width="1.6"/>
<path d="M441.7 200.9 L448.1 207.3 M441.7 207.3 L448.1 200.9" stroke="#e0556b" stroke-width="1.6"/>
<path d="M496.1 178.8 L502.5 185.2 M496.1 185.2 L502.5 178.8" stroke="#e0556b" stroke-width="1.6"/>
<circle cx="512.2" cy="122.2" r="3.4" fill="#2ec26b" opacity="0.85"/>
<path d="M424.7 49.3 L431.1 55.7 M424.7 55.7 L431.1 49.3" stroke="#e0556b" stroke-width="1.6"/>
<path d="M494.5 184.5 L500.9 190.9 M494.5 190.9 L500.9 184.5" stroke="#e0556b" stroke-width="1.6"/>
<path d="M489.6 173.2 L496.0 179.6 M489.6 179.6 L496.0 173.2" stroke="#e0556b" stroke-width="1.6"/>
<circle cx="508.8" cy="154.0" r="3.4" fill="#2ec26b" opacity="0.85"/>
<circle cx="513.1" cy="142.9" r="3.4" fill="#2ec26b" opacity="0.85"/>
<circle cx="429.5" cy="56.0" r="3.4" fill="#2ec26b" opacity="0.85"/>
<circle cx="514.7" cy="130.8" r="3.4" fill="#2ec26b" opacity="0.85"/>
<path d="M506.6 186.0 L513.0 192.4 M506.6 192.4 L513.0 186.0" stroke="#e0556b" stroke-width="1.6"/>
<circle cx="511.5" cy="128.6" r="3.4" fill="#2ec26b" opacity="0.85"/>
<path d="M373.6 147.5 L380.0 153.9 M373.6 153.9 L380.0 147.5" stroke="#e0556b" stroke-width="1.6"/>
<path d="M505.6 150.8 L512.0 157.2 M505.6 157.2 L512.0 150.8" stroke="#e0556b" stroke-width="1.6"/>
<circle cx="474.1" cy="176.4" r="3.4" fill="#2ec26b" opacity="0.85"/>
<circle cx="505.0" cy="183.5" r="3.4" fill="#2ec26b" opacity="0.85"/>
<circle cx="507.4" cy="165.0" r="3.4" fill="#2ec26b" opacity="0.85"/>
<path d="M451.5 160.4 L457.9 166.8 M451.5 166.8 L457.9 160.4" stroke="#e0556b" stroke-width="1.6"/>
<circle cx="513.9" cy="139.3" r="3.4" fill="#2ec26b" opacity="0.85"/>
<circle cx="512.2" cy="142.2" r="3.4" fill="#2ec26b" opacity="0.85"/>
<circle cx="506.6" cy="165.7" r="3.4" fill="#2ec26b" opacity="0.85"/>
<path d="M470.9 166.0 L477.3 172.4 M470.9 172.4 L477.3 166.0" stroke="#e0556b" stroke-width="1.6"/>
<path d="M503.4 170.3 L509.8 176.7 M503.4 176.7 L509.8 170.3" stroke="#e0556b" stroke-width="1.6"/>
<path d="M476.6 136.1 L483.0 142.5 M476.6 142.5 L483.0 136.1" stroke="#e0556b" stroke-width="1.6"/>
<path d="M372.0 188.8 L378.4 195.2 M372.0 195.2 L378.4 188.8" stroke="#e0556b" stroke-width="1.6"/>
<path d="M426.6 97.1 L433.0 103.5 M426.6 103.5 L433.0 97.1" stroke="#e0556b" stroke-width="1.6"/>
<circle cx="508.5" cy="165.8" r="3.4" fill="#2ec26b" opacity="0.85"/>
<circle cx="499.6" cy="172.2" r="3.4" fill="#2ec26b" opacity="0.85"/>
<path d="M459.1 165.5 L465.5 171.9 M459.1 171.9 L465.5 165.5" stroke="#e0556b" stroke-width="1.6"/>
</svg>