<svg xmlns="http://www.w3.org/2000/svg" width="560" height="300" font-family="sans-serif">
<rect x="0" y="0" width="560" height="300" fill="#1b1b1b"/>
<text x="20" y="16" fill="#ddd" font-size="13">M. Giano (UAT) — 227 tiros, Clasificatorio</text>
<rect x="20" y="28" width="520" height="252" fill="none" stroke="#555"/>
<path d="M502.9 166.9 L509.3 173.3 M502.9 173.3 L509.3 166.9" stroke="#e0556b" stroke-width="1.6"/>
<circle cx="521.5" cy="270.4" r="3.4" fill="#2ec26b" opacity="0.85"/>
<path d="M503.7 137.0 L510.1 143.4 M503.7 143.4 L510.1 137.0" stroke="#e0556b" stroke-width="1.6"/>
<path d="M369.0 204.6 L375.4 211.0 M369.0 211.0 L375.4 204.6" stroke="#e0556b" stroke-width="1.6"/>
<path d="M401.5 65.1 L407.9 71.5 M401.5 71.5 L407.9 65.1" stroke="#e0556b" stroke-width="1.6"/>
<path d="M504.5 268.0 L510.9 274.4 M504.5 274.4 L510.9 268.0" stroke="#e0556b" stroke-width="1.6"/>
<circle cx="384.9" cy="87.4" r="3.4" fill="#2ec26b" opacity="0.85"/>
<circle cx="521.2" cy="140.0" r="3.4" fill="#2ec26b" opacity="0.85"/>
<path d="M417.4 117.6 L423.8 124.0 M417.4 124.0 L423.8 117.6" stroke="#e0556b" stroke-width="1.6"/>
<circle cx="513.9" cy="160.0" r="3.4" fill="#2ec26b" opacity="0.85"/>
<path d="M441.7 259.3 L448.1 265.7 M441.7 265.7 L448.1 259.3" stroke="#e0556b" stroke-width="1.6"/>
<circle cx="501.7" cy="34.0" r="3.4" fill="#2ec26b" opacity="0.85"/>
<path d="M412.8 61.5 L419.2 67.9 M412.8 67.9 L419.2 61.5" stroke="#e0556b" stroke-width="1.6"/>
<circle cx="434.7" cy="52.6" r="3.4" fill="#2ec26b" opacity="0.85"/>
<path d="M510.2 265.8 L516.6 272.2 M510.2 272.2 L516.6 265.8" stroke="#e0556b" stroke-width="1.6"/>
<circle cx="489.6" cy="273.9" r="3.4" fill="#2ec26b" opacity="0.85"/>
<circle cx="431.9" cy="54.6" r="3.4" fill="#2ec26b" opacity="0.85"/>
<path d="M394.7 241.5 L401.1 247.9 M394.7 247.9 L401.1 241.5" stroke="#e0556b" stroke-width="1.6"/>
<circle cx="501.7" cy="159.3" r="3.4" fill="#2ec26b" opacity="0.85"/>
<path d="M403.6 67.8 L410.0 74.2 M403.6 74.2 L410.0 67.8" stroke="#e0556b" stroke-width="1.6"/>
<path d="M516.7 164.8 L523.1 171.2 M516.7 171.2 L523.1 164.8" stroke="#e0556b" stroke-width="1.6"/>
<path d="M456.7 268.0 L463.1 274.4 M456.7 274.4 L463.1 268.0" stroke="#e0556b" stroke-width="1.6"/>
<circle cx="495.5" cy="172.9" r="3.4" fill="#2ec26b" opacity="0.85"/>
<path d="M499.6 117.1 L506.0 123.5 M499.6 123.5 L506.0 117.1" stroke="#e0556b" stroke-width="1.6"/>
<circle cx="524.4" cy="139.3" r="3.4" fill="#2ec26b" opacity="0.85"/>
<circle cx="390.9" cy="209.9" r="3.4" fill="#2ec26b" opacity="0.85"/>
<circle cx="512.6" cy="269.7" r="3.4" fill="#2ec26b" opacity="0.85"/>
<path d="M515.9 128.4 L522.3 134.8 M515.9 134.8 L522.3 128.4" stroke="#e0556b" stroke-width="1.6"/>
<path d="M524.0 265.1 L530.4 271.5 M524.0 271.5 L530.4 265.1" stroke="#e0556b" stroke-width="1.6"/>
<circle cx="512.6" cy="145.9" r="3.4" fill="#2ec26b" opacity="0.85"/>
<path d="M500.9 145.4 L507.3 151.8 M500.9 151.8 L507.3 145.4" stroke="#e0556b" stroke-width="1.6"/>
<circle cx="507.4" cy="160.0" r="3.4" fill="#2ec26b" opacity="0.85"/>
<path d="M380.1 200.9 L386.5 207.3 M380.1 207.3 L386.5 200.9" stroke="#e0556b" stroke-width="1.6"/>
<path d="M513.1 35.8 L519.5 42.2 M513.1 42.2 L519.5 35.8" stroke="#e0556b" stroke-width="1.6"/>
<circle cx="503.7" cy="154.4" r="3.4" fill="#2ec26b" opacity="0.85"/>
<path d="M364.2 112.1 L370.6 118.5 M364.2 118.5 L370.6 112.1" stroke="#e0556b" stroke-width="1.6"/>
<circle cx="510.2" cy="135.2" r="3.4" fill="#2ec26b" opacity="0.85"/>
<path d="M507.0 136.3 L513.4 142.7 M507.0 142.7 L513.4 136.3" stroke="#e0556b" stroke-width="1.6"/>
<circle cx="501.2" cy="128.8" r="3.4" fill="#2ec26b" opacity="0.85"/>
<circle cx="380.4" cy="188.6" r="3.4" fill="#2ec26b" opacity="0.85"/>
<circle cx="507.7" cy="140.2" r="3.4" fill="#2ec26b" opacity="0.85"/>
<circle cx="407.1" cy="143.0" r="3.4" fill="#2ec26b" opacity="0.85"/>
<circle cx="513.1" cy="35.4" r="3.4" fill="#2ec26b" opacity="0.85"/>
<circle cx="506.6" cy="166.4" r="3.4" fill="#2ec26b" opacity="0.85"/>
<path d="M499.3 158.9 L505.7 165.3 M499.3 165.3 L505.7 158.9" stroke="#e0556b" stroke-width="1.6"/>
<circle cx="517.1" cy="36.8" r="3.4" fill="#2ec26b" opacity="0.85"/>
<circle cx="509.8" cy="143.6" r="3.4" fill="#2ec26b" opacity="0.85"/>
<path d="M444.3 254.0 L450.7 260.4 M444.3 260.4 L450.7 254.0" stroke="#e0556b" stroke-width="1.6"/>
<path d="M510.0 268.3 L516.4 274.7 M510.0 274.7 L516.4 268.3" stroke="#e0556b" stroke-width="1.6"/>
<path d="M401.3 226.2 L407.7 232.6 M401.3 232.6 L407.7 226.2" stroke="#e0556b" stroke-width="1.6"/>
<circle cx="397.2" cy="222.3" r="3.4" fill="#2ec26b" opacity="0.85"/>
<path d="M503.5 269.0 L509.9 275.4 M503.5 275.4 L509.9 269.0" stroke="#e0556b" stroke-width="1.6"/>
<path d="M477.6 124.5 L484.0 130.9 M477.6 130.9 L484.0 124.5" stroke="#e0556b" stroke-width="1.6"/>
<circle cx="378.5" cy="191.7" r="3.4" fill="#2ec26b" opacity="0.85"/>
<circle cx="441.8" cy="50.1" r="3.4" fill="#2ec26b" opacity="0.85"/>
<path d="M465.4 143.0 L471.8 149.4 M465.4 149.4 L471.8 143.0" stroke="#e0556b" stroke-width="1.6"/>
<circle cx="488.9" cy="149.0" r="3.4" fill="#2ec26b" opacity="0.85"/>
<path d="M497.9 269.7 L504.3 276.1 M497.9 276.1 L504.3 269.7" stroke="#e0556b" stroke-width="1.6"/>
<path d="M403.7 239.1 L410.1 245.5 M403.7 245.5 L410.1 239.1" stroke="#e0556b" stroke-width="1.6"/>
<path d="M377.8 201.4 L384.2 207.8 M377.8 207.8 L384.2 201.4" stroke="#e0556b" stroke-width="1.6"/>
<circle cx="416.9" cy="250.5" r="3.4" fill="#2ec26b" opacity="0.85"/>
<path d="M514.2 128.4 L520.6 134.8 M514.2 134.8 L520.6 128.4" stroke="#e0556b" stroke-width="1.6"/>
<path d="M382.0 203.2 L388.4 209.6 M382.0 209.6 L388.4 203.2" stroke="#e0556b" stroke-width="1.6"/>
<circle cx="514.2" cy="137.3" r="3.4" fill="#2ec26b" opacity="0.85"/>
<path d="M449.3 97.1 L455.7 103.5 M449.3 103.5 L455.7 97.1" stroke="#e0556b" stroke-width="1.6"/>
<path d="M517.5 119.9 L523.9 126.3 M517.5 126.3 L523.9 119.9" stroke="#e0556b" stroke-width="1.6"/>
<circle cx="373.9" cy="171.5" r="3.4" fill="#2ec26b" opacity="0.85"/>
<circle cx="516.7" cy="160.8" r="3.4" fill="#2ec26b" opacity="0.85"/>
<circle cx="425.4" cy="258.2" r="3.4" fill="#2ec26b" opacity="0.85"/>
<path d="M508.3 175.3 L514.7 181.7 M508.3 181.7 L514.7 175.3" stroke="#e0556b" stroke-width="1.6"/>
<circle cx="516.3" cy="165.0" r="3.4" fill="#2ec26b" opacity="0.85"/>
<circle cx="518.0" cy="141.5" r="3.4" fill="#2ec26b" opacity="0.85"/>
<path d="M476.1 223.1 L482.5 229.5 M476.1 229.5 L482.5 223.1" stroke="#e0556b" stroke-width="1.6"/>
<path d="M355.3 155.5 L361.7 161.9 M355.3 161.9 L361.7 155.5" stroke="#e0556b" stroke-width="1.6"/>
<path d="M347.9 142.7 L354.3 149.1 M347.9 149.1 L354.3 142.7" stroke="#e0556b" stroke-width="1.6"/>
<circle cx="528.5" cy="36.8" r="3.4" fill="#2ec26b" opacity="0.85"/>
<circle cx="498.5" cy="151.4" r="3.4" fill="#2ec26b" opacity="0.85"/>
<path d="M483.9 272.1 L490.3 278.5 M483.9 278.5 L490.3 272.1" stroke="#e0556b" stroke-width="1.6"/>
<circle cx="496.8" cy="157.1" r="3.4" fill="#2ec26b" opacity="0.85"/>
<circle cx="496.0" cy="147.9" r="3.4" fill="#2ec26b" opacity="0.85"/>
<path d="M509.9 142.5 L516.3 148.9 M509.9 148.9 L516.3 142.5" stroke="#e0556b" stroke-width="1.6"/>
<path d="M465.6 122.0 L472.0 128.4 M465.6 128.4 L472.0 122.0" stroke="#e0556b" stroke-width="1.6"/>
<circle cx="515.8" cy="165.1" r="3.4" fill="#2ec26b" opacity="0.85"/>
<path d="M387.7 63.0 L394.1 69.4 M387.7 69.4 L394.1 63.0" stroke="#e0556b" stroke-width="1.6"/>
<circle cx="494.7" cy="166.5" r="3.4" fill="#2ec26b" opacity="0.85"/>
<path d="M348.8 144.1 L355.2 150.5 M348.8 150.5 L355.2 144.1" stroke="#e0556b" stroke-width="1.6"/>
<circle cx="367.9" cy="213.4" r="3.4" fill="#2ec26b" opacity="0.85"/>
<path d="M473.4 38.6 L479.8 45.0 M473.4 45.0 L479.8 38.6" stroke="#e0556b" stroke-width="1.6"/>
<circle cx="507.4" cy="38.3" r="3.4" fill="#2ec26b" opacity="0.85"/>
<circle cx="517.4" cy="36.3" r="3.4" fill="#2ec26b" opacity="0.85"/>
<path d="M383.7 71.5 L390.1 77.9 M383.7 77.9 L390.1 71.5" stroke="#e0556b" stroke-width="1.6"/>
<circle cx="509.3" cy="141.6" r="3.4" fill="#2ec26b" opacity="0.85"/>
<circle cx="400.6" cy="68.3" r="3.4" fill="#2ec26b" opacity="0.85"/>
<path d="M507.7 87.9 L514.1 94.3 M507.7 94.3 L514.1 87.9" stroke="#e0556b" stroke-width="1.6"/>
<circle cx="382.0" cy="111.0" r="3.4" fill="#2ec26b" opacity="0.85"/>
<path d="M513.1 173.2 L519.5 179.6 M513.1 179.6 L519.5 173.2" stroke="#e0556b" stroke-width="1.6"/>
<path d="M464.4 267.8 L470.8 274.2 M464.4 274.2 L470.8 267.8" stroke="#e0556b" stroke-width="1.6"/>
<path d="M509.9 127.6 L516.3 134.0 M509.9 134.0 L516.3 127.6" stroke="#e0556b" stroke-width="1.6"/>
<path d="M424.7 247.9 L431.1 254.3 M424.7 254.3 L431.1 247.9" stroke="#e0556b" stroke-width="1.6"/>
<path d="M410.4 62.2 L416.8 68.6 M410.4 68.6 L416.8 62.2" stroke="#e0556b" stroke-width="1.6"/>
<circle cx="519.1" cy="137.3" r="3.4" fill="#2ec26b" opacity="0.85"/>
<circle cx="514.2" cy="134.5" r="3.4" fill="#2ec26b" opacity="0.85"/>
<path d="M436.4 250.2 L442.8 256.6 M436.4 256.6 L442.8 250.2" stroke="#e0556b" stroke-width="1.6"/>
<path d="M450.2 39.5 L456.6 45.9 M450.2 45.9 L456.6 39.5" stroke="#e0556b" stroke-width="1.6"/>
<path d="M374.7 147.7 L381.1 154.1 M374.7 154.1 L381.1 147.7" stroke="#e0556b" stroke-width="1.6"/>
<circle cx="501.2" cy="145.2" r="3.4" fill="#2ec26b" opacity="0.85"/>
<circle cx="486.6" cy="37.7" r="3.4" fill="#2ec26b" opacity="0.85"/>
<circle cx="511.8" cy="165.1" r="3.4" fill="#2ec26b" opacity="0.85"/>
<circle cx="373.0" cy="154.4" r="3.4" fill="#2ec26b" opacity="0.85"/>
<circle cx="506.9" cy="138.8" r="3.4" fill="#2ec26b" opacity="0.85"/>
<circle cx="396.6" cy="81.8" r="3.4" fill="#2ec26b" opacity="0.85"/>
<circle cx="506.6" cy="142.2" r="3.4" fill="#2ec26b" opacity="0.85"/>
<path d="M506.6 114.8 L513.0 121.2 M506.6 121.2 L513.0 114.8" stroke="#e0556b" stroke-width="1.6"/>
<path d="M513.1 144.7 L519.5 151.1 M513.1 151.1 L519.5 144.7" stroke="#e0556b" stroke-width="1.6"/>
<circle cx="506.6" cy="165.0" r="3.4" fill="#2ec26b" opacity="0.85"/>
<circle cx="514.2" cy="272.6" r="3.4" fill="#2ec26b" opacity="0.85"/>
<path d="M509.4 31.6 L515.8 38.0 M509.4 38.0 L515.8 31.6" stroke="#e0556b" stroke-width="1.6"/>
<circle cx="510.2" cy="168.7" r="3.4" fill="#2ec26b" opacity="0.85"/>
<path d="M472.1 119.2 L478.5 125.6 M472.1 125.6 L478.5 119.2" stroke="#e0556b" stroke-width="1.6"/>
<path d="M446.9 233.8 L453.3 240.2 M446.9 240.2 L453.3 233.8" stroke="#e0556b" stroke-width="1.6"/>
<path d="M482.6 268.0 L489.0 274.4 M482.6 274.4 L489.0 268.0" stroke="#e0556b" stroke-width="1.6"/>
<path d="M497.2 144.1 L503.6 150.5 M497.2 150.5 L503.6 144.1" stroke="#e0556b" stroke-width="1.6"/>
<circle cx="504.5" cy="165.1" r="3.4" fill="#2ec26b" opacity="0.85"/>
<path d="M497.7 171.7 L504.1 178.1 M497.7 178.1 L504.1 171.7" stroke="#e0556b" stroke-width="1.6"/>
<circle cx="403.6" cy="246.1" r="3.4" fill="#2ec26b" opacity="0.85"/>
<circle cx="466.0" cy="269.6" r="3.4" fill="#2ec26b" opacity="0.85"/>
<path d="M384.1 225.8 L390.5 232.2 M384.1 232.2 L390.5 225.8" stroke="#e0556b" stroke-width="1.6"/>
<path d="M500.1 146.8 L506.5 153.2 M500.1 153.2 L506.5 146.8" stroke="#e0556b" stroke-width="1.6"/>
<circle cx="402.7" cy="230.5" r="3.4" fill="#2ec26b" opacity="0.85"/>
<path d="M493.6 161.8 L500.0 168.2 M493.6 168.2 L500.0 161.8" stroke="#e0556b" stroke-width="1.6"/>
<path d="M423.9 53.6 L430.3 60.0 M423.9 60.0 L430.3 53.6" stroke="#e0556b" stroke-width="1.6"/>
<circle cx="472.5" cy="38.3" r="3.4" fill="#2ec26b" opacity="0.85"/>
<circle cx="500.9" cy="176.4" r="3.4" fill="#2ec26b" opacity="0.85"/>
<circle cx="384.1" cy="207.7" r="3.4" fill="#2ec26b" opacity="0.85"/>
<path d="M385.0 98.4 L391.4 104.8 M385.0 104.8 L391.4 98.4" stroke="#e0556b" stroke-width="1.6"/>
<path d="M480.6 180.3 L487.0 186.7 M480.6 186.7 L487.0 180.3" stroke="#e0556b" stroke-width="1.6"/>
<path d="M492.8 171.0 L499.2 177.4 M492.8 177.4 L499.2 171.0" stroke="#e0556b" stroke-width="1.6"/>
<path d="M293.6 129.9 L300.0 136.3 M293.6 136.3 L300.0 129.9" stroke="#e0556b" stroke-width="1.6"/>
<circle cx="502.8" cy="121.0" r="3.4" fill="#2ec26b" opacity="0.85"/>
<circle cx="483.4" cy="182.9" r="3.4" fill="#2ec26b" opacity="0.85"/>
<circle cx="491.5" cy="143.0" r="3.4" fill="#2ec26b" opacity="0.85"/>
<path d="M499.6 116.4 L506.0 122.8 M499.6 122.8 L506.0 116.4" stroke="#e0556b" stroke-width="1.6"/>
<circle cx="501.2" cy="172.2" r="3.4" fill="#2ec26b" opacity="0.85"/>
<circle cx="502.8" cy="133.8" r="3.4" fill="#2ec26b" opacity="0.85"/>
<circle cx="424.0" cy="92.8" r="3.4" fill="#2ec26b" opacity="0.85"/>
<circle cx="514.1" cy="272.2" r="3.4" fill="#2ec26b" opacity="0.85"/>
<path d="M385.1 53.3 L391.5 59.7 M385.1 59.7 L391.5 53.3" stroke="#e0556b" stroke-width="1.6"/>
<circle cx="515.7" cy="38.7" r="3.4" fill="#2ec26b" opacity="0.85"/>
<path d="M418.3 55.4 L424.7 61.8 M418.3 61.8 L424.7 55.4" stroke="#e0556b" stroke-width="1.6"/>
<path d="M510.9 131.6 L517.3 138.0 M510.9 138.0 L517.3 131.6" stroke="#e0556b" stroke-width="1.6"/>
<path d="M408.6 238.4 L415.0 244.8 M408.6 244.8 L415.0 238.4" stroke="#e0556b" stroke-width="1.6"/>
<circle cx="518.1" cy="142.6" r="3.4" fill="#2ec26b" opacity="0.85"/>
<path d="M404.6 58.3 L411.0 64.7 M404.6 64.7 L411.0 58.3" stroke="#e0556b" stroke-width="1.6"/>
<circle cx="472.7" cy="36.5" r="3.4" fill="#2ec26b" opacity="0.85"/>
<path d="M506.0 170.7 L512.4 177.1 M506.0 177.1 L512.4 170.7" stroke="#e0556b" stroke-width="1.6"/>
<path d="M517.5 185.4 L523.9 191.8 M517.5 191.8 L523.9 185.4" stroke="#e0556b" stroke-width="1.6"/>
<circle cx="415.3" cy="257.6" r="3.4" fill="#2ec26b" opacity="0.85"/>
<path d="M489.1 186.8 L495.5 193.2 M489.1 193.2 L495.5 186.8" stroke="#e0556b" stroke-width="1.6"/>
<circle cx="451.4" cy="184.9" r="3.4" fill="#2ec26b" opacity="0.85"/>
<path d="M480.6 109.8 L487.0 116.2 M480.6 116.2 L487.0 109.8" stroke="#e0556b" stroke-width="1.6"/>
<path d="M354.9 157.5 L361.3 163.9 M354.9 163.9 L361.3 157.5" stroke="#e0556b" stroke-width="1.6"/>
<path d="M517.1 270.0 L523.5 276.4 M517.1 276.4 L523.5 270.0" stroke="#e0556b" stroke-width="1.6"/>
<circle cx="420.1" cy="245.6" r="3.4" fill="#2ec26b" opacity="0.85"/>
<path d="M500.5 133.4 L506.9 139.8 M500.5 139.8 L506.9 133.4" stroke="#e0556b" stroke-width="1.6"/>
<circle cx="494.7" cy="150.9" r="3.4" fill="#2ec26b" opacity="0.85"/>
<circle cx="477.7" cy="145.2" r="3.4" fill="#2ec26b" opacity="0.85"/>
<path d="M397.1 224.4 L403.5 230.8 M397.1 230.8 L403.5 224.4" stroke="#e0556b" stroke-width="1.6"/>
<path d="M440.9 255.7 L447.3 262.1 M440.9 262.1 L447.3 255.7" stroke="#e0556b" stroke-width="1.6"/>
<circle cx="501.7" cy="131.5" r="3.4" fill="#2ec26b" opacity="0.85"/>
<path d="M395.5 84.9 L401.9 91.3 M395.5 91.3 L401.9 84.9" stroke="#e0556b" stroke-width="1.6"/>
<circle cx="512.6" cy="171.5" r="3.4" fill="#2ec26b" opacity="0.85"/>
<path d="M373.9 199.6 L380.3 206.0 M373.9 206.0 L380.3 199.6" stroke="#e0556b" stroke-width="1.6"/>
<path d="M513.5 129.2 L519.9 135.6 M513.5 135.6 L519.9 129.2" stroke="#e0556b" stroke-width="1.6"/>
<circle cx="454.1" cy="264.0" r="3.4" fill="#2ec26b" opacity="0.85"/>
<circle cx="491.5" cy="130.9" r="3.4" fill="#2ec26b" opacity="0.85"/>
<path d="M493.6 173.9 L500.0 180.3 M493.6 180.3 L500.0 173.9" stroke="#e0556b" stroke-width="1.6"/>
<circle cx="419.8" cy="150.7" r="3.4" fill="#2ec26b" opacity="0.85"/>
<path d="M449.9 260.0 L456.3 266.4 M449.9 266.4 L456.3 260.0" stroke="#e0556b" stroke-width="1.6"/>
<circle cx="401.1" cy="235.4" r="3.4" fill="#2ec26b" opacity="0.85"/>
<path d="M502.6 270.0 L509.0 276.4 M502.6 276.4 L509.0 270.0" stroke="#e0556b" stroke-width="1.6"/>
<path d="M363.8 145.4 L370.2 151.8 M363.8 151.8 L370.2 145.4" stroke="#e0556b" stroke-width="1.6"/>
<path d="M498.5 113.4 L504.9 119.8 M498.5 119.8 L504.9 113.4" stroke="#e0556b" stroke-width="1.6"/>
<path d="M440.4 45.2 L446.8 51.6 M440.4 51.6 L446.8 45.2" stroke="#e0556b" stroke-width="1.6"/>
<circle cx="508.8" cy="154.0" r="3.4" fill="#2ec26b" opacity="0.85"/>
<path d="M512.6 30.9 L519.0 37.3 M512.6 37.3 L519.0 30.9" stroke="#e0556b" stroke-width="1.6"/>
<path d="M442.8 253.7 L449.2 260.1 M442.8 260.1 L449.2 253.7" stroke="#e0556b" stroke-width="1.6"/>
<path d="M502.1 124.9 L508.5 131.3 M502.1 131.3 L508.5 124.9" stroke="#e0556b" stroke-width="1.6"/>
<circle cx="516.3" cy="273.2" r="3.4" fill="#2ec26b" opacity="0.85"/>
<circle cx="521.2" cy="157.9" r="3.4" fill="#2ec26b" opacity="0.85"/>
<path d="M512.3 270.0 L518.7 276.4 M512.3 276.4 L518.7 270.0" stroke="#e0556b" stroke-width="1.6"/>
<circle cx="522.0" cy="159.3" r="3.4" fill="#2ec26b" opacity="0.85"/>
<circle cx="520.3" cy="165.0" r="3.4" fill="#2ec26b" opacity="0.85"/>
<circle cx="510.6" cy="155.7" r="3.4" fill="#2ec26b" opacity="0.85"/>
<path d="M505.8 153.9 L512.2 160.3 M505.8 160.3 L512.2 153.9" stroke="#e0556b" stroke-width="1.6"/>
<path d="M395.5 80.6 L401.9 87.0 M395.5 87.0 L401.9 80.6" stroke="#e0556b" stroke-width="1.6"/>
<path d="M505.6 150.8 L512.0 157.2 M505.6 157.2 L512.0 150.8" stroke="#e0556b" stroke-width="1.6"/>
<circle cx="494.4" cy="146.5" r="3.4" fill="#2ec26b" opacity="0.85"/>
<path d="M507.4 141.1 L513.8 147.5 M507.4 147.5 L513.8 141.1" stroke="#e0556b" stroke-width="1.6"/>
<circle cx="510.2" cy="154.4" r="3.4" fill="#2ec26b" opacity="0.85"/>
<circle cx="513.4" cy="156.6" r="3.4" fill="#2ec26b" opacity="0.85"/>
<circle cx="514.2" cy="143.7" r="3.4" fill="#2ec26b" opacity="0.85"/>
<path d="M511.8 31.6 L518.2 38.0 M511.8 38.0 L518.2 31.6" stroke="#e0556b" stroke-width="1.6"/>
<path d="M499.6 142.7 L506.0 149.1 M499.6 149.1 L506.0 142.7" stroke="#e0556b" stroke-width="1.6"/>
<path d="M501.3 128.4 L507.7 134.8 M501.3 134.8 L507.7 128.4" stroke="#e0556b" stroke-width="1.6"/>
<path d="M416.9 47.3 L423.3 53.7 M416.9 53.7 L423.3 47.3" stroke="#e0556b" stroke-width="1.6"/>
<circle cx="510.9" cy="146.6" r="3.4" fill="#2ec26b" opacity="0.85"/>
<circle cx="395.8" cy="222.1" r="3.4" fill="#2ec26b" opacity="0.85"/>
<path d="M499.6 139.8 L506.0 146.2 M499.6 146.2 L506.0 139.8" stroke="#e0556b" stroke-width="1.6"/>
<path d="M500.5 268.0 L506.9 274.4 M500.5 274.4 L506.9 268.0" stroke="#e0556b" stroke-width="1.6"/>
<path d="M398.2 219.6 L404.6 226.0 M398.2 226.0 L404.6 219.6" stroke="#e0556b" stroke-width="1.6"/>
<path d="M514.2 166.9 L520.6 173.3 M514.2 173.3 L520.6 166.9" stroke="#e0556b" stroke-width="1.6"/>
<circle cx="502.5" cy="147.9" r="3.4" fill="#2ec26b" opacity="0.85"/>
<path d="M408.5 65.6 L414.9 72.0 M408.5 72.0 L414.9 65.6" stroke="#e0556b" stroke-width="1.6"/>
<path d="M508.3 139.0 L514.7 145.4 M508.3 145.4 L514.7 139.0" stroke="#e0556b" stroke-width="1.6"/>
<path d="M479.2 137.3 L485.6 143.7 M479.2 143.7 L485.6 137.3" stroke="#e0556b" stroke-width="1.6"/>
<circle cx="514.8" cy="162.5" r="3.4" fill="#2ec26b" opacity="0.85"/>
<circle cx="406.9" cy="245.8" r="3.4" fill="#2ec26b" opacity="0.85"/>
<path d="M389.2 87.4 L395.6 93.8 M389.2 93.8 L395.6 87.4" stroke="#e0556b" stroke-width="1.6"/>
<path d="M444.3 157.2 L450.7 163.6 M444.3 163.6 L450.7 157.2" stroke="#e0556b" stroke-width="1.6"/>
<circle cx="509.2" cy="128.4" r="3.4" fill="#2ec26b" opacity="0.85"/>
<path d="M402.1 240.5 L408.5 246.9 M402.1 246.9 L408.5 240.5" stroke="#e0556b" stroke-width="1.6"/>
<path d="M410.2 49.0 L416.6 55.4 M410.2 55.4 L416.6 49.0" stroke="#e0556b" stroke-width="1.6"/>
<circle cx="512.4" cy="36.5" r="3.4" fill="#2ec26b" opacity="0.85"/>
<circle cx="454.0" cy="222.3" r="3.4" fill="#2ec26b" opacity="0.85"/>
<path d="M493.0 33.3 L499.4 39.7 M493.0 39.7 L499.4 33.3" stroke="#e0556b" stroke-width="1.6"/>
<path d="M492.2 134.4 L498.6 140.8 M492.2 140.8 L498.6 134.4" stroke="#e0556b" stroke-width="1.6"/>
<path d="M506.0 163.6 L512.4 170.0 M506.0 170.0 L512.4 163.6" stroke="#e0556b" stroke-width="1.6"/>
</svg>