<svg xmlns="http://www.w3.org/2000/svg" width="560" height="300" font-family="sans-serif">
<rect x="0" y="0" width="560" height="300" fill="#1b1b1b"/>
<text x="20" y="16" fill="#ddd" font-size="13">M. Oyenard (GOE) — 162 tiros, Clasificatorio</text>
<rect x="20" y="28" width="520" height="252" fill="none" stroke="#555"/>
<circle cx="500.4" cy="165.1" r="3.4" fill="#2ec26b" opacity="0.85"/>
<circle cx="509.3" cy="154.4" r="3.4" fill="#2ec26b" opacity="0.85"/>
<path d="M479.3 116.4 L485.7 122.8 M479.3 122.8 L485.7 116.4" stroke="#e0556b" stroke-width="1.6"/>
<circle cx="504.5" cy="148.7" r="3.4" fill="#2ec26b" opacity="0.85"/>
<circle cx="508.8" cy="154.0" r="3.4" fill="#2ec26b" opacity="0.85"/>
<path d="M443.7 114.9 L450.1 121.3 M443.7 121.3 L450.1 114.9" stroke="#e0556b" stroke-width="1.6"/>
<circle cx="488.3" cy="154.4" r="3.4" fill="#2ec26b" opacity="0.85"/>
<path d="M495.3 177.4 L501.7 183.8 M495.3 183.8 L501.7 177.4" stroke="#e0556b" stroke-width="1.6"/>
<path d="M489.6 169.6 L496.0 176.0 M489.6 176.0 L496.0 169.6" stroke="#e0556b" stroke-width="1.6"/>
<circle cx="508.8" cy="154.0" r="3.4" fill="#2ec26b" opacity="0.85"/>
<circle cx="500.1" cy="160.0" r="3.4" fill="#2ec26b" opacity="0.85"/>
<circle cx="496.8" cy="158.6" r="3.4" fill="#2ec26b" opacity="0.85"/>
<circle cx="501.7" cy="157.9" r="3.4" fill="#2ec26b" opacity="0.85"/>
<path d="M409.3 244.3 L415.7 250.7 M409.3 250.7 L415.7 244.3" stroke="#e0556b" stroke-width="1.6"/>
<circle cx="477.7" cy="143.0" r="3.4" fill="#2ec26b" opacity="0.85"/>
<path d="M442.8 40.9 L449.2 47.3 M442.8 47.3 L449.2 40.9" stroke="#e0556b" stroke-width="1.6"/>
<circle cx="513.4" cy="165.8" r="3.4" fill="#2ec26b" opacity="0.85"/>
<path d="M438.0 256.6 L444.4 263.0 M438.0 263.0 L444.4 256.6" stroke="#e0556b" stroke-width="1.6"/>
<path d="M462.3 108.5 L468.7 114.9 M462.3 114.9 L468.7 108.5" stroke="#e0556b" stroke-width="1.6"/>
<path d="M487.5 268.7 L493.9 275.1 M487.5 275.1 L493.9 268.7" stroke="#e0556b" stroke-width="1.6"/>
<path d="M509.4 122.8 L515.8 129.2 M509.4 129.2 L515.8 122.8" stroke="#e0556b" stroke-width="1.6"/>
<path d="M434.4 256.4 L440.8 262.8 M434.4 262.8 L440.8 256.4" stroke="#e0556b" stroke-width="1.6"/>
<circle cx="518.7" cy="160.0" r="3.4" fill="#2ec26b" opacity="0.85"/>
<circle cx="510.6" cy="150.7" r="3.4" fill="#2ec26b" opacity="0.85"/>
<circle cx="509.8" cy="162.1" r="3.4" fill="#2ec26b" opacity="0.85"/>
<circle cx="515.5" cy="162.1" r="3.4" fill="#2ec26b" opacity="0.85"/>
<circle cx="470.9" cy="150.7" r="3.4" fill="#2ec26b" opacity="0.85"/>
<circle cx="430.6" cy="91.8" r="3.4" fill="#2ec26b" opacity="0.85"/>
<circle cx="507.7" cy="155.1" r="3.4" fill="#2ec26b" opacity="0.85"/>
<circle cx="511.8" cy="137.3" r="3.4" fill="#2ec26b" opacity="0.85"/>
<path d="M468.8 60.1 L475.2 66.5 M468.8 66.5 L475.2 60.1" stroke="#e0556b" stroke-width="1.6"/>
<circle cx="504.5" cy="153.7" r="3.4" fill="#2ec26b" opacity="0.85"/>
<circle cx="508.8" cy="154.0" r="3.4" fill="#2ec26b" opacity="0.85"/>
<circle cx="517.1" cy="159.3" r="3.4" fill="#2ec26b" opacity="0.85"/>
<circle cx="518.0" cy="129.4" r="3.4" fill="#2ec26b" opacity="0.85"/>
<circle cx="522.0" cy="125.1" r="3.4" fill="#2ec26b" opacity="0.85"/>
<circle cx="488.9" cy="99.9" r="3.4" fill="#2ec26b" opacity="0.85"/>
<path d="M365.6 160.0 L372.0 166.4 M365.6 166.4 L372.0 160.0" stroke="#e0556b" stroke-width="1.6"/>
<path d="M411.1 66.1 L417.5 72.5 M411.1 72.5 L417.5 66.1" stroke="#e0556b" stroke-width="1.6"/>
<path d="M424.8 52.6 L431.2 59.0 M424.8 59.0 L431.2 52.6" stroke="#e0556b" stroke-width="1.6"/>
<circle cx="475.1" cy="131.9" r="3.4" fill="#2ec26b" opacity="0.85"/>
<path d="M489.7 181.4 L496.1 187.8 M489.7 187.8 L496.1 181.4" stroke="#e0556b" stroke-width="1.6"/>
<circle cx="407.8" cy="74.3" r="3.4" fill="#2ec26b" opacity="0.85"/>
<circle cx="512.4" cy="184.6" r="3.4" fill="#2ec26b" opacity="0.85"/>
<circle cx="506.7" cy="179.6" r="3.4" fill="#2ec26b" opacity="0.85"/>
<circle cx="495.4" cy="137.6" r="3.4" fill="#2ec26b" opacity="0.85"/>
<path d="M453.2 264.0 L459.6 270.4 M453.2 270.4 L459.6 264.0" stroke="#e0556b" stroke-width="1.6"/>
<circle cx="475.1" cy="139.1" r="3.4" fill="#2ec26b" opacity="0.85"/>
<circle cx="431.3" cy="158.3" r="3.4" fill="#2ec26b" opacity="0.85"/>
<circle cx="459.0" cy="265.5" r="3.4" fill="#2ec26b" opacity="0.85"/>
<path d="M425.8 128.4 L432.2 134.8 M425.8 134.8 L432.2 128.4" stroke="#e0556b" stroke-width="1.6"/>
<circle cx="477.7" cy="143.0" r="3.4" fill="#2ec26b" opacity="0.85"/>
<circle cx="504.1" cy="228.3" r="3.4" fill="#2ec26b" opacity="0.85"/>
<path d="M425.5 154.7 L431.9 161.1 M425.5 161.1 L431.9 154.7" stroke="#e0556b" stroke-width="1.6"/>
<path d="M476.8 178.6 L483.2 185.0 M476.8 185.0 L483.2 178.6" stroke="#e0556b" stroke-width="1.6"/>
<path d="M446.0 182.1 L452.4 188.5 M446.0 188.5 L452.4 182.1" stroke="#e0556b" stroke-width="1.6"/>
<circle cx="506.7" cy="127.7" r="3.4" fill="#2ec26b" opacity="0.85"/>
<path d="M493.0 123.8 L499.4 130.2 M493.0 130.2 L499.4 123.8" stroke="#e0556b" stroke-width="1.6"/>
<circle cx="496.2" cy="180.3" r="3.4" fill="#2ec26b" opacity="0.85"/>
<path d="M520.6 270.4 L527.0 276.8 M520.6 276.8 L527.0 270.4" stroke="#e0556b" stroke-width="1.6"/>
<path d="M476.8 175.0 L483.2 181.4 M476.8 181.4 L483.2 175.0" stroke="#e0556b" stroke-width="1.6"/>
<path d="M449.2 202.8 L455.6 209.2 M449.2 209.2 L455.6 202.8" stroke="#e0556b" stroke-width="1.6"/>
<circle cx="497.8" cy="38.0" r="3.4" fill="#2ec26b" opacity="0.85"/>
<circle cx="512.4" cy="134.1" r="3.4" fill="#2ec26b" opacity="0.85"/>
<path d="M422.4 54.7 L428.8 61.1 M422.4 61.1 L428.8 54.7" stroke="#e0556b" stroke-width="1.6"/>
<path d="M470.3 132.3 L476.7 138.7 M470.3 138.7 L476.7 132.3" stroke="#e0556b" stroke-width="1.6"/>
<circle cx="501.9" cy="184.6" r="3.4" fill="#2ec26b" opacity="0.85"/>
<circle cx="514.1" cy="210.2" r="3.4" fill="#2ec26b" opacity="0.85"/>
<circle cx="482.4" cy="125.5" r="3.4" fill="#2ec26b" opacity="0.85"/>
<circle cx="480.8" cy="127.7" r="3.4" fill="#2ec26b" opacity="0.85"/>
<path d="M369.8 164.0 L376.2 170.4 M369.8 170.4 L376.2 164.0" stroke="#e0556b" stroke-width="1.6"/>
<path d="M495.6 32.3 L502.0 38.7 M495.6 38.7 L502.0 32.3" stroke="#e0556b" stroke-width="1.6"/>
<path d="M495.6 118.5 L502.0 124.9 M495.6 124.9 L502.0 118.5" stroke="#e0556b" stroke-width="1.6"/>
<path d="M490.7 33.1 L497.1 39.5 M490.7 39.5 L497.1 33.1" stroke="#e0556b" stroke-width="1.6"/>
<path d="M482.3 198.1 L488.7 204.5 M482.3 204.5 L488.7 198.1" stroke="#e0556b" stroke-width="1.6"/>
<circle cx="503.3" cy="158.6" r="3.4" fill="#2ec26b" opacity="0.85"/>
<circle cx="506.6" cy="162.8" r="3.4" fill="#2ec26b" opacity="0.85"/>
<path d="M497.2 145.5 L503.6 151.9 M497.2 151.9 L503.6 145.5" stroke="#e0556b" stroke-width="1.6"/>
<circle cx="460.6" cy="208.5" r="3.4" fill="#2ec26b" opacity="0.85"/>
<path d="M425.0 154.1 L431.4 160.5 M425.0 160.5 L431.4 154.1" stroke="#e0556b" stroke-width="1.6"/>
<path d="M483.4 152.6 L489.8 159.0 M483.4 159.0 L489.8 152.6" stroke="#e0556b" stroke-width="1.6"/>
<circle cx="511.8" cy="146.6" r="3.4" fill="#2ec26b" opacity="0.85"/>
<path d="M494.0 151.2 L500.4 157.6 M494.0 157.6 L500.4 151.2" stroke="#e0556b" stroke-width="1.6"/>
<path d="M497.7 136.1 L504.1 142.5 M497.7 142.5 L504.1 136.1" stroke="#e0556b" stroke-width="1.6"/>
<path d="M484.2 154.1 L490.6 160.5 M484.2 160.5 L490.6 154.1" stroke="#e0556b" stroke-width="1.6"/>
<path d="M514.2 266.5 L520.6 272.9 M514.2 272.9 L520.6 266.5" stroke="#e0556b" stroke-width="1.6"/>
<path d="M486.7 129.2 L493.1 135.6 M486.7 135.6 L493.1 129.2" stroke="#e0556b" stroke-width="1.6"/>
<path d="M493.6 174.6 L500.0 181.0 M493.6 181.0 L500.0 174.6" stroke="#e0556b" stroke-width="1.6"/>
<path d="M436.4 170.5 L442.8 176.9 M436.4 176.9 L442.8 170.5" stroke="#e0556b" stroke-width="1.6"/>
<path d="M374.4 180.3 L380.8 186.7 M374.4 186.7 L380.8 180.3" stroke="#e0556b" stroke-width="1.6"/>
<circle cx="451.4" cy="45.4" r="3.4" fill="#2ec26b" opacity="0.85"/>
<circle cx="386.5" cy="229.8" r="3.4" fill="#2ec26b" opacity="0.85"/>
<path d="M511.5 133.3 L517.9 139.7 M511.5 139.7 L517.9 133.3" stroke="#e0556b" stroke-width="1.6"/>
<circle cx="422.4" cy="57.2" r="3.4" fill="#2ec26b" opacity="0.85"/>
<path d="M404.6 58.3 L411.0 64.7 M404.6 64.7 L411.0 58.3" stroke="#e0556b" stroke-width="1.6"/>
<path d="M411.9 55.4 L418.3 61.8 M411.9 61.8 L418.3 55.4" stroke="#e0556b" stroke-width="1.6"/>
<path d="M514.1 167.9 L520.5 174.3 M514.1 174.3 L520.5 167.9" stroke="#e0556b" stroke-width="1.6"/>
<circle cx="513.2" cy="156.1" r="3.4" fill="#2ec26b" opacity="0.85"/>
<circle cx="508.8" cy="154.0" r="3.4" fill="#2ec26b" opacity="0.85"/>
<circle cx="506.7" cy="145.5" r="3.4" fill="#2ec26b" opacity="0.85"/>
<path d="M455.7 39.0 L462.1 45.4 M455.7 45.4 L462.1 39.0" stroke="#e0556b" stroke-width="1.6"/>
<path d="M476.0 149.4 L482.4 155.8 M476.0 155.8 L482.4 149.4" stroke="#e0556b" stroke-width="1.6"/>
<path d="M493.6 124.7 L500.0 131.1 M493.6 131.1 L500.0 124.7" stroke="#e0556b" stroke-width="1.6"/>
<path d="M431.2 255.7 L437.6 262.1 M431.2 262.1 L437.6 255.7" stroke="#e0556b" stroke-width="1.6"/>
<path d="M407.6 71.3 L414.0 77.7 M407.6 77.7 L414.0 71.3" stroke="#e0556b" stroke-width="1.6"/>
<circle cx="380.8" cy="105.9" r="3.4" fill="#2ec26b" opacity="0.85"/>
<path d="M520.4 36.5 L526.8 42.9 M520.4 42.9 L526.8 36.5" stroke="#e0556b" stroke-width="1.6"/>
<circle cx="502.5" cy="167.1" r="3.4" fill="#2ec26b" opacity="0.85"/>
<circle cx="508.8" cy="154.0" r="3.4" fill="#2ec26b" opacity="0.85"/>
<path d="M451.5 153.9 L457.9 160.3 M451.5 160.3 L457.9 153.9" stroke="#e0556b" stroke-width="1.6"/>
<path d="M503.4 34.4 L509.8 40.8 M503.4 40.8 L509.8 34.4" stroke="#e0556b" stroke-width="1.6"/>
<circle cx="426.6" cy="255.5" r="3.4" fill="#2ec26b" opacity="0.85"/>
<circle cx="499.6" cy="151.6" r="3.4" fill="#2ec26b" opacity="0.85"/>
<path d="M485.1 196.8 L491.5 203.2 M485.1 203.2 L491.5 196.8" stroke="#e0556b" stroke-width="1.6"/>
<path d="M505.6 150.8 L512.0 157.2 M505.6 157.2 L512.0 150.8" stroke="#e0556b" stroke-width="1.6"/>
<circle cx="508.8" cy="154.0" r="3.4" fill="#2ec26b" opacity="0.85"/>
<path d="M484.2 139.1 L490.6 145.5 M484.2 145.5 L490.6 139.1" stroke="#e0556b" stroke-width="1.6"/>
<path d="M495.4 127.3 L501.8 133.7 M495.4 133.7 L501.8 127.3" stroke="#e0556b" stroke-width="1.6"/>
<circle cx="508.8" cy="154.0" r="3.4" fill="#2ec26b" opacity="0.85"/>
<circle cx="517.3" cy="164.7" r="3.4" fill="#2ec26b" opacity="0.85"/>
<circle cx="402.9" cy="236.6" r="3.4" fill="#2ec26b" opacity="0.85"/>
<circle cx="514.1" cy="163.2" r="3.4" fill="#2ec26b" opacity="0.85"/>
<path d="M428.1 86.7 L434.5 93.1 M428.1 93.1 L434.5 86.7" stroke="#e0556b" stroke-width="1.6"/>
<path d="M490.6 167.2 L497.0 173.6 M490.6 173.6 L497.0 167.2" stroke="#e0556b" stroke-width="1.6"/>
<circle cx="508.4" cy="141.9" r="3.4" fill="#2ec26b" opacity="0.85"/>
<circle cx="480.8" cy="272.2" r="3.4" fill="#2ec26b" opacity="0.85"/>
<circle cx="452.4" cy="263.6" r="3.4" fill="#2ec26b" opacity="0.85"/>
<path d="M472.7 37.6 L479.1 44.0 M472.7 44.0 L479.1 37.6" stroke="#e0556b" stroke-width="1.6"/>
<circle cx="498.6" cy="157.6" r="3.4" fill="#2ec26b" opacity="0.85"/>
<circle cx="516.3" cy="87.4" r="3.4" fill="#2ec26b" opacity="0.85"/>
<path d="M484.2 62.2 L490.6 68.6 M484.2 68.6 L490.6 62.2" stroke="#e0556b" stroke-width="1.6"/>
<path d="M517.5 28.8 L523.9 35.2 M517.5 35.2 L523.9 28.8" stroke="#e0556b" stroke-width="1.6"/>
<circle cx="509.3" cy="174.4" r="3.4" fill="#2ec26b" opacity="0.85"/>
<circle cx="509.3" cy="179.4" r="3.4" fill="#2ec26b" opacity="0.85"/>
<circle cx="486.3" cy="150.0" r="3.4" fill="#2ec26b" opacity="0.85"/>
<path d="M497.7 173.2 L504.1 179.6 M497.7 179.6 L504.1 173.2" stroke="#e0556b" stroke-width="1.6"/>
<path d="M506.6 134.0 L513.0 140.4 M506.6 140.4 L513.0 134.0" stroke="#e0556b" stroke-width="1.6"/>
<circle cx="508.8" cy="154.0" r="3.4" fill="#2ec26b" opacity="0.85"/>
<path d="M512.3 213.0 L518.7 219.4 M512.3 219.4 L518.7 213.0" stroke="#e0556b" stroke-width="1.6"/>
<circle cx="465.2" cy="270.3" r="3.4" fill="#2ec26b" opacity="0.85"/>
<circle cx="490.3" cy="165.7" r="3.4" fill="#2ec26b" opacity="0.85"/>
<path d="M429.9 41.6 L436.3 48.0 M429.9 48.0 L436.3 41.6" stroke="#e0556b" stroke-width="1.6"/>
<path d="M392.2 251.4 L398.6 257.8 M392.2 257.8 L398.6 251.4" stroke="#e0556b" stroke-width="1.6"/>
<path d="M484.7 147.5 L491.1 153.9 M484.7 153.9 L491.1 147.5" stroke="#e0556b" stroke-width="1.6"/>
<circle cx="502.5" cy="157.9" r="3.4" fill="#2ec26b" opacity="0.85"/>
<circle cx="492.3" cy="151.6" r="3.4" fill="#2ec26b" opacity="0.85"/>
<path d="M524.0 211.7 L530.4 218.1 M524.0 218.1 L530.4 211.7" stroke="#e0556b" stroke-width="1.6"/>
<path d="M505.6 150.8 L512.0 157.2 M505.6 157.2 L512.0 150.8" stroke="#e0556b" stroke-width="1.6"/>
<circle cx="510.9" cy="143.7" r="3.4" fill="#2ec26b" opacity="0.85"/>
<circle cx="510.9" cy="136.6" r="3.4" fill="#2ec26b" opacity="0.85"/>
<path d="M488.3 118.5 L494.7 124.9 M488.3 124.9 L494.7 118.5" stroke="#e0556b" stroke-width="1.6"/>
<circle cx="511.5" cy="141.5" r="3.4" fill="#2ec26b" opacity="0.85"/>
<path d="M509.0 141.8 L515.4 148.2 M509.0 148.2 L515.4 141.8" stroke="#e0556b" stroke-width="1.6"/>
<path d="M454.7 86.3 L461.1 92.7 M454.7 92.7 L461.1 86.3" stroke="#e0556b" stroke-width="1.6"/>
<path d="M368.7 182.4 L375.1 188.8 M368.7 188.8 L375.1 182.4" stroke="#e0556b" stroke-width="1.6"/>
<path d="M428.7 195.9 L435.1 202.3 M428.7 202.3 L435.1 195.9" stroke="#e0556b" stroke-width="1.6"/>
<path d="M484.7 34.4 L491.1 40.8 M484.7 40.8 L491.1 34.4" stroke="#e0556b" stroke-width="1.6"/>
<circle cx="402.4" cy="69.5" r="3.4" fill="#2ec26b" opacity="0.85"/>
<circle cx="508.8" cy="154.0" r="3.4" fill="#2ec26b" opacity="0.85"/>
<circle cx="505.3" cy="219.9" r="3.4" fill="#2ec26b" opacity="0.85"/>
<path d="M455.0 139.1 L461.4 145.5 M455.0 145.5 L461.4 139.1" stroke="#e0556b" stroke-width="1.6"/>
<path d="M517.5 269.4 L523.9 275.8 M517.5 275.8 L523.9 269.4" stroke="#e0556b" stroke-width="1.6"/>
</svg>