<svg xmlns="http://www.w3.org/2000/svg" width="560" height="300" font-family="sans-serif">
<rect x="0" y="0" width="560" height="300" fill="#1b1b1b"/>
<text x="20" y="16" fill="#ddd" font-size="13">M. Sarni (UUN) — 171 tiros, Clasificatorio</text>
<rect x="20" y="28" width="520" height="252" fill="none" stroke="#555"/>
<path d="M493.6 190.2 L500.0 196.6 M493.6 196.6 L500.0 190.2" stroke="#e0556b" stroke-width="1.6"/>
<path d="M477.4 183.1 L483.8 189.5 M477.4 189.5 L483.8 183.1" stroke="#e0556b" stroke-width="1.6"/>
<circle cx="487.1" cy="177.1" r="3.4" fill="#2ec26b" opacity="0.85"/>
<path d="M376.8 193.8 L383.2 200.2 M376.8 200.2 L383.2 193.8" stroke="#e0556b" stroke-width="1.6"/>
<path d="M372.8 146.8 L379.2 153.2 M372.8 153.2 L379.2 146.8" stroke="#e0556b" stroke-width="1.6"/>
<path d="M461.2 179.6 L467.6 186.0 M461.2 186.0 L467.6 179.6" stroke="#e0556b" stroke-width="1.6"/>
<circle cx="487.4" cy="182.2" r="3.4" fill="#2ec26b" opacity="0.85"/>
<path d="M382.8 205.3 L389.2 211.7 M382.8 211.7 L389.2 205.3" stroke="#e0556b" stroke-width="1.6"/>
<path d="M480.2 156.2 L486.6 162.6 M480.2 162.6 L486.6 156.2" stroke="#e0556b" stroke-width="1.6"/>
<circle cx="489.9" cy="209.2" r="3.4" fill="#2ec26b" opacity="0.85"/>
<path d="M472.1 196.8 L478.5 203.2 M472.1 203.2 L478.5 196.8" stroke="#e0556b" stroke-width="1.6"/>
<path d="M437.2 250.9 L443.6 257.3 M437.2 257.3 L443.6 250.9" stroke="#e0556b" stroke-width="1.6"/>
<path d="M462.3 219.6 L468.7 226.0 M462.3 226.0 L468.7 219.6" stroke="#e0556b" stroke-width="1.6"/>
<circle cx="503.7" cy="174.4" r="3.4" fill="#2ec26b" opacity="0.85"/>
<path d="M511.5 167.5 L517.9 173.9 M511.5 173.9 L517.9 167.5" stroke="#e0556b" stroke-width="1.6"/>
<circle cx="470.9" cy="154.3" r="3.4" fill="#2ec26b" opacity="0.85"/>
<path d="M513.1 107.0 L519.5 113.4 M513.1 113.4 L519.5 107.0" stroke="#e0556b" stroke-width="1.6"/>
<path d="M506.6 179.6 L513.0 186.0 M506.6 186.0 L513.0 179.6" stroke="#e0556b" stroke-width="1.6"/>
<circle cx="418.9" cy="249.0" r="3.4" fill="#2ec26b" opacity="0.85"/>
<circle cx="507.4" cy="176.4" r="3.4" fill="#2ec26b" opacity="0.85"/>
<path d="M380.4 102.1 L386.8 108.5 M380.4 108.5 L386.8 102.1" stroke="#e0556b" stroke-width="1.6"/>
<circle cx="395.0" cy="88.2" r="3.4" fill="#2ec26b" opacity="0.85"/>
<circle cx="511.8" cy="166.5" r="3.4" fill="#2ec26b" opacity="0.85"/>
<path d="M393.4 216.0 L399.8 222.4 M393.4 222.4 L399.8 216.0" stroke="#e0556b" stroke-width="1.6"/>
<circle cx="508.8" cy="154.0" r="3.4" fill="#2ec26b" opacity="0.85"/>
<path d="M476.1 117.8 L482.5 124.2 M476.1 124.2 L482.5 117.8" stroke="#e0556b" stroke-width="1.6"/>
<circle cx="374.7" cy="159.4" r="3.4" fill="#2ec26b" opacity="0.85"/>
<path d="M408.5 241.5 L414.9 247.9 M408.5 247.9 L414.9 241.5" stroke="#e0556b" stroke-width="1.6"/>
<path d="M473.4 144.7 L479.8 151.1 M473.4 151.1 L479.8 144.7" stroke="#e0556b" stroke-width="1.6"/>
<path d="M459.6 178.8 L466.0 185.2 M459.6 185.2 L466.0 178.8" stroke="#e0556b" stroke-width="1.6"/>
<path d="M505.0 138.3 L511.4 144.7 M505.0 144.7 L511.4 138.3" stroke="#e0556b" stroke-width="1.6"/>
<circle cx="367.4" cy="134.5" r="3.4" fill="#2ec26b" opacity="0.85"/>
<circle cx="514.2" cy="153.7" r="3.4" fill="#2ec26b" opacity="0.85"/>
<path d="M467.7 195.9 L474.1 202.3 M467.7 202.3 L474.1 195.9" stroke="#e0556b" stroke-width="1.6"/>
<circle cx="441.7" cy="118.7" r="3.4" fill="#2ec26b" opacity="0.85"/>
<circle cx="367.0" cy="177.8" r="3.4" fill="#2ec26b" opacity="0.85"/>
<path d="M451.5 174.6 L457.9 181.0 M451.5 181.0 L457.9 174.6" stroke="#e0556b" stroke-width="1.6"/>
<circle cx="504.1" cy="152.2" r="3.4" fill="#2ec26b" opacity="0.85"/>
<circle cx="493.6" cy="103.8" r="3.4" fill="#2ec26b" opacity="0.85"/>
<circle cx="473.3" cy="149.3" r="3.4" fill="#2ec26b" opacity="0.85"/>
<circle cx="371.1" cy="102.3" r="3.4" fill="#2ec26b" opacity="0.85"/>
<path d="M362.2 153.2 L368.6 159.6 M362.2 159.6 L368.6 153.2" stroke="#e0556b" stroke-width="1.6"/>
<circle cx="477.4" cy="151.4" r="3.4" fill="#2ec26b" opacity="0.85"/>
<path d="M359.8 151.8 L366.2 158.2 M359.8 158.2 L366.2 151.8" stroke="#e0556b" stroke-width="1.6"/>
<path d="M488.3 161.2 L494.7 167.6 M488.3 167.6 L494.7 161.2" stroke="#e0556b" stroke-width="1.6"/>
<circle cx="493.9" cy="151.6" r="3.4" fill="#2ec26b" opacity="0.85"/>
<circle cx="381.1" cy="217.1" r="3.4" fill="#2ec26b" opacity="0.85"/>
<path d="M478.6 147.7 L485.0 154.1 M478.6 154.1 L485.0 147.7" stroke="#e0556b" stroke-width="1.6"/>
<path d="M518.3 151.2 L524.7 157.6 M518.3 157.6 L524.7 151.2" stroke="#e0556b" stroke-width="1.6"/>
<circle cx="519.6" cy="169.2" r="3.4" fill="#2ec26b" opacity="0.85"/>
<path d="M380.1 199.5 L386.5 205.9 M380.1 205.9 L386.5 199.5" stroke="#e0556b" stroke-width="1.6"/>
<path d="M446.6 131.9 L453.0 138.3 M446.6 138.3 L453.0 131.9" stroke="#e0556b" stroke-width="1.6"/>
<circle cx="416.6" cy="72.4" r="3.4" fill="#2ec26b" opacity="0.85"/>
<path d="M500.9 163.2 L507.3 169.6 M500.9 169.6 L507.3 163.2" stroke="#e0556b" stroke-width="1.6"/>
<path d="M383.3 209.5 L389.7 215.9 M383.3 215.9 L389.7 209.5" stroke="#e0556b" stroke-width="1.6"/>
<path d="M505.8 182.4 L512.2 188.8 M505.8 188.8 L512.2 182.4" stroke="#e0556b" stroke-width="1.6"/>
<path d="M504.5 188.2 L510.9 194.6 M504.5 194.6 L510.9 188.2" stroke="#e0556b" stroke-width="1.6"/>
<path d="M501.3 175.4 L507.7 181.8 M501.3 181.8 L507.7 175.4" stroke="#e0556b" stroke-width="1.6"/>
<circle cx="487.1" cy="160.0" r="3.4" fill="#2ec26b" opacity="0.85"/>
<circle cx="506.6" cy="169.2" r="3.4" fill="#2ec26b" opacity="0.85"/>
<circle cx="407.6" cy="64.6" r="3.4" fill="#2ec26b" opacity="0.85"/>
<path d="M507.7 188.2 L514.1 194.6 M507.7 194.6 L514.1 188.2" stroke="#e0556b" stroke-width="1.6"/>
<path d="M436.4 149.1 L442.8 155.5 M436.4 155.5 L442.8 149.1" stroke="#e0556b" stroke-width="1.6"/>
<circle cx="497.7" cy="141.5" r="3.4" fill="#2ec26b" opacity="0.85"/>
<path d="M403.6 115.5 L410.0 121.9 M403.6 121.9 L410.0 115.5" stroke="#e0556b" stroke-width="1.6"/>
<circle cx="438.8" cy="176.5" r="3.4" fill="#2ec26b" opacity="0.85"/>
<path d="M505.3 173.3 L511.7 179.7 M505.3 179.7 L511.7 173.3" stroke="#e0556b" stroke-width="1.6"/>
<path d="M451.8 139.8 L458.2 146.2 M451.8 146.2 L458.2 139.8" stroke="#e0556b" stroke-width="1.6"/>
<path d="M458.3 261.6 L464.7 268.0 M458.3 268.0 L464.7 261.6" stroke="#e0556b" stroke-width="1.6"/>
<path d="M383.7 207.5 L390.1 213.9 M383.7 213.9 L390.1 207.5" stroke="#e0556b" stroke-width="1.6"/>
<path d="M493.2 171.2 L499.6 177.6 M493.2 177.6 L499.6 171.2" stroke="#e0556b" stroke-width="1.6"/>
<path d="M476.1 152.6 L482.5 159.0 M476.1 159.0 L482.5 152.6" stroke="#e0556b" stroke-width="1.6"/>
<circle cx="370.3" cy="140.0" r="3.4" fill="#2ec26b" opacity="0.85"/>
<circle cx="369.5" cy="192.0" r="3.4" fill="#2ec26b" opacity="0.85"/>
<path d="M461.2 94.9 L467.6 101.3 M461.2 101.3 L467.6 94.9" stroke="#e0556b" stroke-width="1.6"/>
<path d="M503.7 185.4 L510.1 191.8 M503.7 191.8 L510.1 185.4" stroke="#e0556b" stroke-width="1.6"/>
<path d="M429.9 148.4 L436.3 154.8 M429.9 154.8 L436.3 148.4" stroke="#e0556b" stroke-width="1.6"/>
<path d="M395.8 65.1 L402.2 71.5 M395.8 71.5 L402.2 65.1" stroke="#e0556b" stroke-width="1.6"/>
<path d="M335.8 146.2 L342.2 152.6 M335.8 152.6 L342.2 146.2" stroke="#e0556b" stroke-width="1.6"/>
<circle cx="437.1" cy="262.6" r="3.4" fill="#2ec26b" opacity="0.85"/>
<path d="M484.7 134.0 L491.1 140.4 M484.7 140.4 L491.1 134.0" stroke="#e0556b" stroke-width="1.6"/>
<path d="M502.6 134.7 L509.0 141.1 M502.6 141.1 L509.0 134.7" stroke="#e0556b" stroke-width="1.6"/>
<circle cx="441.7" cy="167.8" r="3.4" fill="#2ec26b" opacity="0.85"/>
<circle cx="516.7" cy="180.1" r="3.4" fill="#2ec26b" opacity="0.85"/>
<circle cx="515.0" cy="132.4" r="3.4" fill="#2ec26b" opacity="0.85"/>
<path d="M513.1 136.8 L519.5 143.2 M513.1 143.2 L519.5 136.8" stroke="#e0556b" stroke-width="1.6"/>
<path d="M462.8 121.9 L469.2 128.3 M462.8 128.3 L469.2 121.9" stroke="#e0556b" stroke-width="1.6"/>
<circle cx="429.8" cy="204.2" r="3.4" fill="#2ec26b" opacity="0.85"/>
<path d="M455.8 183.3 L462.2 189.7 M455.8 189.7 L462.2 183.3" stroke="#e0556b" stroke-width="1.6"/>
<path d="M459.9 154.8 L466.3 161.2 M459.9 161.2 L466.3 154.8" stroke="#e0556b" stroke-width="1.6"/>
<path d="M517.5 144.8 L523.9 151.2 M517.5 151.2 L523.9 144.8" stroke="#e0556b" stroke-width="1.6"/>
<path d="M499.6 179.0 L506.0 185.4 M499.6 185.4 L506.0 179.0" stroke="#e0556b" stroke-width="1.6"/>
<path d="M446.1 114.2 L452.5 120.6 M446.1 120.6 L452.5 114.2" stroke="#e0556b" stroke-width="1.6"/>
<circle cx="509.3" cy="127.4" r="3.4" fill="#2ec26b" opacity="0.85"/>
<circle cx="492.3" cy="172.9" r="3.4" fill="#2ec26b" opacity="0.85"/>
<circle cx="508.8" cy="154.0" r="3.4" fill="#2ec26b" opacity="0.85"/>
<circle cx="516.3" cy="176.4" r="3.4" fill="#2ec26b" opacity="0.85"/>
<path d="M423.9 167.5 L430.3 173.9 M423.9 173.9 L430.3 167.5" stroke="#e0556b" stroke-width="1.6"/>
<path d="M492.8 146.8 L499.2 153.2 M492.8 153.2 L499.2 146.8" stroke="#e0556b" stroke-width="1.6"/>
<path d="M412.5 57.1 L418.9 63.5 M412.5 63.5 L418.9 57.1" stroke="#e0556b" stroke-width="1.6"/>
<circle cx="425.4" cy="184.9" r="3.4" fill="#2ec26b" opacity="0.85"/>
<path d="M408.2 145.6 L414.6 152.0 M408.2 152.0 L414.6 145.6" stroke="#e0556b" stroke-width="1.6"/>
<circle cx="354.0" cy="170.7" r="3.4" fill="#2ec26b" opacity="0.85"/>
<path d="M409.3 168.9 L415.7 175.3 M409.3 175.3 L415.7 168.9" stroke="#e0556b" stroke-width="1.6"/>
<circle cx="486.6" cy="151.6" r="3.4" fill="#2ec26b" opacity="0.85"/>
<path d="M355.3 148.4 L361.7 154.8 M355.3 154.8 L361.7 148.4" stroke="#e0556b" stroke-width="1.6"/>
<path d="M506.1 146.9 L512.5 153.3 M506.1 153.3 L512.5 146.9" stroke="#e0556b" stroke-width="1.6"/>
<path d="M490.7 170.5 L497.1 176.9 M490.7 176.9 L497.1 170.5" stroke="#e0556b" stroke-width="1.6"/>
<circle cx="498.8" cy="148.0" r="3.4" fill="#2ec26b" opacity="0.85"/>
<path d="M415.3 151.2 L421.7 157.6 M415.3 157.6 L421.7 151.2" stroke="#e0556b" stroke-width="1.6"/>
<path d="M356.0 205.3 L362.4 211.7 M356.0 211.7 L362.4 205.3" stroke="#e0556b" stroke-width="1.6"/>
<path d="M470.4 129.9 L476.8 136.3 M470.4 136.3 L476.8 129.9" stroke="#e0556b" stroke-width="1.6"/>
<path d="M470.4 181.8 L476.8 188.2 M470.4 188.2 L476.8 181.8" stroke="#e0556b" stroke-width="1.6"/>
<circle cx="508.8" cy="154.0" r="3.4" fill="#2ec26b" opacity="0.85"/>
<path d="M459.1 134.1 L465.5 140.5 M459.1 140.5 L465.5 134.1" stroke="#e0556b" stroke-width="1.6"/>
<path d="M511.5 165.3 L517.9 171.7 M511.5 171.7 L517.9 165.3" stroke="#e0556b" stroke-width="1.6"/>
<path d="M473.4 179.6 L479.8 186.0 M473.4 186.0 L479.8 179.6" stroke="#e0556b" stroke-width="1.6"/>
<path d="M479.2 175.0 L485.6 181.4 M479.2 181.4 L485.6 175.0" stroke="#e0556b" stroke-width="1.6"/>
<path d="M450.8 147.2 L457.2 153.6 M450.8 153.6 L457.2 147.2" stroke="#e0556b" stroke-width="1.6"/>
<circle cx="493.8" cy="141.2" r="3.4" fill="#2ec26b" opacity="0.85"/>
<circle cx="379.4" cy="123.4" r="3.4" fill="#2ec26b" opacity="0.85"/>
<path d="M383.5 105.2 L389.9 111.6 M383.5 111.6 L389.9 105.2" stroke="#e0556b" stroke-width="1.6"/>
<circle cx="502.7" cy="169.6" r="3.4" fill="#2ec26b" opacity="0.85"/>
<path d="M482.6 148.4 L489.0 154.8 M482.6 154.8 L489.0 148.4" stroke="#e0556b" stroke-width="1.6"/>
<path d="M423.4 159.8 L429.8 166.2 M423.4 166.2 L429.8 159.8" stroke="#e0556b" stroke-width="1.6"/>
<path d="M498.0 134.1 L504.4 140.5 M498.0 140.5 L504.4 134.1" stroke="#e0556b" stroke-width="1.6"/>
<path d="M424.2 250.9 L430.6 257.3 M424.2 257.3 L430.6 250.9" stroke="#e0556b" stroke-width="1.6"/>
<path d="M503.7 129.9 L510.1 136.3 M503.7 136.3 L510.1 129.9" stroke="#e0556b" stroke-width="1.6"/>
<circle cx="494.4" cy="170.7" r="3.4" fill="#2ec26b" opacity="0.85"/>
<path d="M393.1 81.3 L399.5 87.7 M393.1 87.7 L399.5 81.3" stroke="#e0556b" stroke-width="1.6"/>
<circle cx="504.1" cy="142.2" r="3.4" fill="#2ec26b" opacity="0.85"/>
<circle cx="456.3" cy="179.9" r="3.4" fill="#2ec26b" opacity="0.85"/>
<circle cx="509.0" cy="168.5" r="3.4" fill="#2ec26b" opacity="0.85"/>
<circle cx="490.3" cy="174.9" r="3.4" fill="#2ec26b" opacity="0.85"/>
<path d="M506.6 107.7 L513.0 114.1 M506.6 114.1 L513.0 107.7" stroke="#e0556b" stroke-width="1.6"/>
<path d="M491.2 133.3 L497.6 139.7 M491.2 139.7 L497.6 133.3" stroke="#e0556b" stroke-width="1.6"/>
<path d="M490.4 186.0 L496.8 192.4 M490.4 192.4 L496.8 186.0" stroke="#e0556b" stroke-width="1.6"/>
<path d="M509.9 175.3 L516.3 181.7 M509.9 181.7 L516.3 175.3" stroke="#e0556b" stroke-width="1.6"/>
<circle cx="470.9" cy="186.3" r="3.4" fill="#2ec26b" opacity="0.85"/>
<path d="M506.6 116.9 L513.0 123.3 M506.6 123.3 L513.0 116.9" stroke="#e0556b" stroke-width="1.6"/>
<path d="M511.8 152.6 L518.2 159.0 M511.8 159.0 L518.2 152.6" stroke="#e0556b" stroke-width="1.6"/>
<path d="M511.8 154.1 L518.2 160.5 M511.8 160.5 L518.2 154.1" stroke="#e0556b" stroke-width="1.6"/>
<circle cx="514.2" cy="156.6" r="3.4" fill="#2ec26b" opacity="0.85"/>
<path d="M510.7 141.8 L517.1 148.2 M510.7 148.2 L517.1 141.8" stroke="#e0556b" stroke-width="1.6"/>
<path d="M432.0 126.9 L438.4 133.3 M432.0 133.3 L438.4 126.9" stroke="#e0556b" stroke-width="1.6"/>
<circle cx="517.1" cy="153.6" r="3.4" fill="#2ec26b" opacity="0.85"/>
<circle cx="518.0" cy="155.7" r="3.4" fill="#2ec26b" opacity="0.85"/>
<circle cx="516.3" cy="174.2" r="3.4" fill="#2ec26b" opacity="0.85"/>
<path d="M434.4 141.1 L440.8 147.5 M434.4 147.5 L440.8 141.1" stroke="#e0556b" stroke-width="1.6"/>
<circle cx="516.3" cy="184.9" r="3.4" fill="#2ec26b" opacity="0.85"/>
<path d="M397.1 232.2 L403.5 238.6 M397.1 238.6 L403.5 232.2" stroke="#e0556b" stroke-width="1.6"/>
<path d="M412.5 245.0 L418.9 251.4 M412.5 251.4 L418.9 245.0" stroke="#e0556b" stroke-width="1.6"/>
<circle cx="492.3" cy="180.1" r="3.4" fill="#2ec26b" opacity="0.85"/>
<circle cx="456.6" cy="262.6" r="3.4" fill="#2ec26b" opacity="0.85"/>
<path d="M514.2 193.9 L520.6 200.3 M514.2 200.3 L520.6 193.9" stroke="#e0556b" stroke-width="1.6"/>
<circle cx="502.8" cy="133.1" r="3.4" fill="#2ec26b" opacity="0.85"/>
<circle cx="519.7" cy="166.1" r="3.4" fill="#2ec26b" opacity="0.85"/>
<path d="M489.7 138.0 L496.1 144.4 M489.7 144.4 L496.1 138.0" stroke="#e0556b" stroke-width="1.6"/>
<path d="M438.6 187.8 L445.0 194.2 M438.6 194.2 L445.0 187.8" stroke="#e0556b" stroke-width="1.6"/>
<path d="M379.4 194.9 L385.8 201.3 M379.4 201.3 L385.8 194.9" stroke="#e0556b" stroke-width="1.6"/>
<path d="M403.7 242.6 L410.1 249.0 M403.7 249.0 L410.1 242.6" stroke="#e0556b" stroke-width="1.6"/>
<circle cx="383.3" cy="193.4" r="3.4" fill="#2ec26b" opacity="0.85"/>
<circle cx="431.9" cy="262.5" r="3.4" fill="#2ec26b" opacity="0.85"/>
<circle cx="386.9" cy="93.9" r="3.4" fill="#2ec26b" opacity="0.85"/>
<path d="M481.8 120.6 L488.2 127.0 M481.8 127.0 L488.2 120.6" stroke="#e0556b" stroke-width="1.6"/>
<circle cx="507.7" cy="145.2" r="3.4" fill="#2ec26b" opacity="0.85"/>
<path d="M511.0 163.3 L517.4 169.7 M511.0 169.7 L517.4 163.3" stroke="#e0556b" stroke-width="1.6"/>
<path d="M425.8 260.8 L432.2 267.2 M425.8 267.2 L432.2 260.8" stroke="#e0556b" stroke-width="1.6"/>
<path d="M430.4 245.8 L436.8 252.2 M430.4 252.2 L436.8 245.8" stroke="#e0556b" stroke-width="1.6"/>
<path d="M394.2 231.7 L400.6 238.1 M394.2 238.1 L400.6 231.7" stroke="#e0556b" stroke-width="1.6"/>
<path d="M445.3 169.0 L451.7 175.4 M445.3 175.4 L451.7 169.0" stroke="#e0556b" stroke-width="1.6"/>
</svg>