<svg xmlns="http://www.w3.org/2000/svg" width="560" height="300" font-family="sans-serif">
<rect x="0" y="0" width="560" height="300" fill="#1b1b1b"/>
<text x="20" y="16" fill="#ddd" font-size="13">N. Martinez (MAL) — 196 tiros, Clasificatorio</text>
<rect x="20" y="28" width="520" height="252" fill="none" stroke="#555"/>
<circle cx="506.6" cy="159.3" r="3.4" fill="#2ec26b" opacity="0.85"/>
<path d="M423.1 59.2 L429.5 65.6 M423.1 65.6 L429.5 59.2" stroke="#e0556b" stroke-width="1.6"/>
<circle cx="497.7" cy="159.3" r="3.4" fill="#2ec26b" opacity="0.85"/>
<path d="M491.2 35.8 L497.6 42.2 M491.2 42.2 L497.6 35.8" stroke="#e0556b" stroke-width="1.6"/>
<circle cx="503.3" cy="156.4" r="3.4" fill="#2ec26b" opacity="0.85"/>
<path d="M500.1 267.8 L506.5 274.2 M500.1 274.2 L506.5 267.8" stroke="#e0556b" stroke-width="1.6"/>
<path d="M475.0 140.4 L481.4 146.8 M475.0 146.8 L481.4 140.4" stroke="#e0556b" stroke-width="1.6"/>
<path d="M496.9 219.4 L503.3 225.8 M496.9 225.8 L503.3 219.4" stroke="#e0556b" stroke-width="1.6"/>
<path d="M498.0 162.6 L504.4 169.0 M498.0 169.0 L504.4 162.6" stroke="#e0556b" stroke-width="1.6"/>
<circle cx="501.2" cy="188.6" r="3.4" fill="#2ec26b" opacity="0.85"/>
<circle cx="509.8" cy="130.8" r="3.4" fill="#2ec26b" opacity="0.85"/>
<path d="M494.5 119.0 L500.9 125.4 M494.5 125.4 L500.9 119.0" stroke="#e0556b" stroke-width="1.6"/>
<path d="M496.1 124.7 L502.5 131.1 M496.1 131.1 L502.5 124.7" stroke="#e0556b" stroke-width="1.6"/>
<circle cx="496.8" cy="135.8" r="3.4" fill="#2ec26b" opacity="0.85"/>
<path d="M503.4 171.7 L509.8 178.1 M503.4 178.1 L509.8 171.7" stroke="#e0556b" stroke-width="1.6"/>
<path d="M485.5 136.1 L491.9 142.5 M485.5 142.5 L491.9 136.1" stroke="#e0556b" stroke-width="1.6"/>
<path d="M494.0 132.7 L500.4 139.1 M494.0 139.1 L500.4 132.7" stroke="#e0556b" stroke-width="1.6"/>
<path d="M494.5 252.2 L500.9 258.6 M494.5 258.6 L500.9 252.2" stroke="#e0556b" stroke-width="1.6"/>
<path d="M502.6 158.9 L509.0 165.3 M502.6 165.3 L509.0 158.9" stroke="#e0556b" stroke-width="1.6"/>
<circle cx="501.2" cy="138.8" r="3.4" fill="#2ec26b" opacity="0.85"/>
<path d="M505.6 150.8 L512.0 157.2 M505.6 157.2 L512.0 150.8" stroke="#e0556b" stroke-width="1.6"/>
<circle cx="510.9" cy="168.7" r="3.4" fill="#2ec26b" opacity="0.85"/>
<path d="M509.9 159.6 L516.3 166.0 M509.9 166.0 L516.3 159.6" stroke="#e0556b" stroke-width="1.6"/>
<path d="M503.4 131.1 L509.8 137.5 M503.4 137.5 L509.8 131.1" stroke="#e0556b" stroke-width="1.6"/>
<path d="M503.4 134.0 L509.8 140.4 M503.4 140.4 L509.8 134.0" stroke="#e0556b" stroke-width="1.6"/>
<path d="M467.7 232.2 L474.1 238.6 M467.7 238.6 L474.1 232.2" stroke="#e0556b" stroke-width="1.6"/>
<circle cx="508.2" cy="158.6" r="3.4" fill="#2ec26b" opacity="0.85"/>
<circle cx="512.2" cy="147.2" r="3.4" fill="#2ec26b" opacity="0.85"/>
<path d="M505.8 36.5 L512.2 42.9 M505.8 42.9 L512.2 36.5" stroke="#e0556b" stroke-width="1.6"/>
<path d="M503.4 136.8 L509.8 143.2 M503.4 143.2 L509.8 136.8" stroke="#e0556b" stroke-width="1.6"/>
<path d="M505.6 150.8 L512.0 157.2 M505.6 157.2 L512.0 150.8" stroke="#e0556b" stroke-width="1.6"/>
<path d="M472.1 179.7 L478.5 186.1 M472.1 186.1 L478.5 179.7" stroke="#e0556b" stroke-width="1.6"/>
<circle cx="511.8" cy="163.0" r="3.4" fill="#2ec26b" opacity="0.85"/>
<circle cx="509.3" cy="165.8" r="3.4" fill="#2ec26b" opacity="0.85"/>
<circle cx="513.9" cy="157.1" r="3.4" fill="#2ec26b" opacity="0.85"/>
<path d="M523.6 30.8 L530.0 37.2 M523.6 37.2 L530.0 30.8" stroke="#e0556b" stroke-width="1.6"/>
<circle cx="510.9" cy="133.1" r="3.4" fill="#2ec26b" opacity="0.85"/>
<path d="M505.6 150.8 L512.0 157.2 M505.6 157.2 L512.0 150.8" stroke="#e0556b" stroke-width="1.6"/>
<circle cx="502.0" cy="142.3" r="3.4" fill="#2ec26b" opacity="0.85"/>
<circle cx="498.8" cy="266.9" r="3.4" fill="#2ec26b" opacity="0.85"/>
<path d="M404.7 245.2 L411.1 251.6 M404.7 251.6 L411.1 245.2" stroke="#e0556b" stroke-width="1.6"/>
<path d="M507.7 141.2 L514.1 147.6 M507.7 147.6 L514.1 141.2" stroke="#e0556b" stroke-width="1.6"/>
<circle cx="455.0" cy="36.3" r="3.4" fill="#2ec26b" opacity="0.85"/>
<path d="M494.8 29.5 L501.2 35.9 M494.8 35.9 L501.2 29.5" stroke="#e0556b" stroke-width="1.6"/>
<path d="M412.8 245.2 L419.2 251.6 M412.8 251.6 L419.2 245.2" stroke="#e0556b" stroke-width="1.6"/>
<circle cx="503.3" cy="153.6" r="3.4" fill="#2ec26b" opacity="0.85"/>
<path d="M480.6 143.3 L487.0 149.7 M480.6 149.7 L487.0 143.3" stroke="#e0556b" stroke-width="1.6"/>
<path d="M492.8 147.5 L499.2 153.9 M492.8 153.9 L499.2 147.5" stroke="#e0556b" stroke-width="1.6"/>
<circle cx="497.7" cy="157.1" r="3.4" fill="#2ec26b" opacity="0.85"/>
<circle cx="431.9" cy="261.8" r="3.4" fill="#2ec26b" opacity="0.85"/>
<circle cx="508.8" cy="154.0" r="3.4" fill="#2ec26b" opacity="0.85"/>
<path d="M493.0 130.9 L499.4 137.3 M493.0 137.3 L499.4 130.9" stroke="#e0556b" stroke-width="1.6"/>
<path d="M505.6 150.8 L512.0 157.2 M505.6 157.2 L512.0 150.8" stroke="#e0556b" stroke-width="1.6"/>
<path d="M426.5 249.0 L432.9 255.4 M426.5 255.4 L432.9 249.0" stroke="#e0556b" stroke-width="1.6"/>
<circle cx="479.2" cy="161.8" r="3.4" fill="#2ec26b" opacity="0.85"/>
<circle cx="462.9" cy="165.4" r="3.4" fill="#2ec26b" opacity="0.85"/>
<path d="M482.5 267.6 L488.9 274.0 M482.5 274.0 L488.9 267.6" stroke="#e0556b" stroke-width="1.6"/>
<circle cx="497.8" cy="167.5" r="3.4" fill="#2ec26b" opacity="0.85"/>
<path d="M509.2 30.5 L515.6 36.9 M509.2 36.9 L515.6 30.5" stroke="#e0556b" stroke-width="1.6"/>
<path d="M501.9 184.3 L508.3 190.7 M501.9 190.7 L508.3 184.3" stroke="#e0556b" stroke-width="1.6"/>
<path d="M491.4 169.3 L497.8 175.7 M491.4 175.7 L497.8 169.3" stroke="#e0556b" stroke-width="1.6"/>
<circle cx="495.4" cy="181.0" r="3.4" fill="#2ec26b" opacity="0.85"/>
<circle cx="512.4" cy="38.0" r="3.4" fill="#2ec26b" opacity="0.85"/>
<path d="M521.6 176.9 L528.0 183.3 M521.6 183.3 L528.0 176.9" stroke="#e0556b" stroke-width="1.6"/>
<path d="M449.9 256.4 L456.3 262.8 M449.9 262.8 L456.3 256.4" stroke="#e0556b" stroke-width="1.6"/>
<path d="M503.4 160.4 L509.8 166.8 M503.4 166.8 L509.8 160.4" stroke="#e0556b" stroke-width="1.6"/>
<circle cx="500.9" cy="165.7" r="3.4" fill="#2ec26b" opacity="0.85"/>
<path d="M490.4 270.0 L496.8 276.4 M490.4 276.4 L496.8 270.0" stroke="#e0556b" stroke-width="1.6"/>
<path d="M505.6 150.8 L512.0 157.2 M505.6 157.2 L512.0 150.8" stroke="#e0556b" stroke-width="1.6"/>
<path d="M505.6 150.8 L512.0 157.2 M505.6 157.2 L512.0 150.8" stroke="#e0556b" stroke-width="1.6"/>
<circle cx="509.8" cy="155.7" r="3.4" fill="#2ec26b" opacity="0.85"/>
<circle cx="496.8" cy="165.0" r="3.4" fill="#2ec26b" opacity="0.85"/>
<circle cx="412.0" cy="65.4" r="3.4" fill="#2ec26b" opacity="0.85"/>
<circle cx="371.4" cy="177.9" r="3.4" fill="#2ec26b" opacity="0.85"/>
<circle cx="485.0" cy="88.9" r="3.4" fill="#2ec26b" opacity="0.85"/>
<circle cx="379.5" cy="200.0" r="3.4" fill="#2ec26b" opacity="0.85"/>
<path d="M502.9 268.0 L509.3 274.4 M502.9 274.4 L509.3 268.0" stroke="#e0556b" stroke-width="1.6"/>
<circle cx="498.0" cy="146.6" r="3.4" fill="#2ec26b" opacity="0.85"/>
<path d="M455.8 158.3 L462.2 164.7 M455.8 164.7 L462.2 158.3" stroke="#e0556b" stroke-width="1.6"/>
<circle cx="506.6" cy="163.6" r="3.4" fill="#2ec26b" opacity="0.85"/>
<path d="M509.9 141.8 L516.3 148.2 M509.9 148.2 L516.3 141.8" stroke="#e0556b" stroke-width="1.6"/>
<circle cx="505.8" cy="146.5" r="3.4" fill="#2ec26b" opacity="0.85"/>
<path d="M383.7 106.4 L390.1 112.8 M383.7 112.8 L390.1 106.4" stroke="#e0556b" stroke-width="1.6"/>
<path d="M506.1 161.9 L512.5 168.3 M506.1 168.3 L512.5 161.9" stroke="#e0556b" stroke-width="1.6"/>
<path d="M498.8 176.2 L505.2 182.6 M498.8 182.6 L505.2 176.2" stroke="#e0556b" stroke-width="1.6"/>
<path d="M503.7 132.0 L510.1 138.4 M503.7 138.4 L510.1 132.0" stroke="#e0556b" stroke-width="1.6"/>
<path d="M508.6 137.7 L515.0 144.1 M508.6 144.1 L515.0 137.7" stroke="#e0556b" stroke-width="1.6"/>
<circle cx="498.0" cy="168.7" r="3.4" fill="#2ec26b" opacity="0.85"/>
<circle cx="496.4" cy="177.9" r="3.4" fill="#2ec26b" opacity="0.85"/>
<path d="M517.5 270.8 L523.9 277.2 M517.5 277.2 L523.9 270.8" stroke="#e0556b" stroke-width="1.6"/>
<path d="M430.4 50.0 L436.8 56.4 M430.4 56.4 L436.8 50.0" stroke="#e0556b" stroke-width="1.6"/>
<path d="M436.9 252.9 L443.3 259.3 M436.9 259.3 L443.3 252.9" stroke="#e0556b" stroke-width="1.6"/>
<circle cx="418.2" cy="244.7" r="3.4" fill="#2ec26b" opacity="0.85"/>
<circle cx="472.0" cy="155.1" r="3.4" fill="#2ec26b" opacity="0.85"/>
<circle cx="510.2" cy="217.1" r="3.4" fill="#2ec26b" opacity="0.85"/>
<path d="M443.7 258.0 L450.1 264.4 M443.7 264.4 L450.1 258.0" stroke="#e0556b" stroke-width="1.6"/>
<circle cx="485.8" cy="152.3" r="3.4" fill="#2ec26b" opacity="0.85"/>
<path d="M504.5 270.8 L510.9 277.2 M504.5 277.2 L510.9 270.8" stroke="#e0556b" stroke-width="1.6"/>
<circle cx="506.1" cy="172.9" r="3.4" fill="#2ec26b" opacity="0.85"/>
<path d="M498.5 110.5 L504.9 116.9 M498.5 116.9 L504.9 110.5" stroke="#e0556b" stroke-width="1.6"/>
<circle cx="474.9" cy="176.4" r="3.4" fill="#2ec26b" opacity="0.85"/>
<circle cx="414.1" cy="65.3" r="3.4" fill="#2ec26b" opacity="0.85"/>
<path d="M404.4 72.8 L410.8 79.2 M404.4 79.2 L410.8 72.8" stroke="#e0556b" stroke-width="1.6"/>
<circle cx="517.1" cy="150.0" r="3.4" fill="#2ec26b" opacity="0.85"/>
<circle cx="519.6" cy="147.9" r="3.4" fill="#2ec26b" opacity="0.85"/>
<path d="M401.2 227.3 L407.6 233.7 M401.2 233.7 L407.6 227.3" stroke="#e0556b" stroke-width="1.6"/>
<path d="M501.3 169.7 L507.7 176.1 M501.3 176.1 L507.7 169.7" stroke="#e0556b" stroke-width="1.6"/>
<circle cx="500.4" cy="32.0" r="3.4" fill="#2ec26b" opacity="0.85"/>
<path d="M468.8 34.5 L475.2 40.9 M468.8 40.9 L475.2 34.5" stroke="#e0556b" stroke-width="1.6"/>
<path d="M393.4 212.4 L399.8 218.8 M393.4 218.8 L399.8 212.4" stroke="#e0556b" stroke-width="1.6"/>
<circle cx="510.9" cy="154.4" r="3.4" fill="#2ec26b" opacity="0.85"/>
<circle cx="492.3" cy="148.0" r="3.4" fill="#2ec26b" opacity="0.85"/>
<path d="M500.5 31.6 L506.9 38.0 M500.5 38.0 L506.9 31.6" stroke="#e0556b" stroke-width="1.6"/>
<path d="M400.4 238.6 L406.8 245.0 M400.4 245.0 L406.8 238.6" stroke="#e0556b" stroke-width="1.6"/>
<path d="M432.0 257.9 L438.4 264.3 M432.0 264.3 L438.4 257.9" stroke="#e0556b" stroke-width="1.6"/>
<circle cx="399.5" cy="241.8" r="3.4" fill="#2ec26b" opacity="0.85"/>
<path d="M487.1 156.1 L493.5 162.5 M487.1 162.5 L493.5 156.1" stroke="#e0556b" stroke-width="1.6"/>
<path d="M501.8 147.5 L508.2 153.9 M501.8 153.9 L508.2 147.5" stroke="#e0556b" stroke-width="1.6"/>
<path d="M410.1 62.8 L416.5 69.2 M410.1 69.2 L416.5 62.8" stroke="#e0556b" stroke-width="1.6"/>
<circle cx="454.7" cy="44.0" r="3.4" fill="#2ec26b" opacity="0.85"/>
<path d="M376.0 147.5 L382.4 153.9 M376.0 153.9 L382.4 147.5" stroke="#e0556b" stroke-width="1.6"/>
<circle cx="503.3" cy="165.7" r="3.4" fill="#2ec26b" opacity="0.85"/>
<circle cx="395.4" cy="241.1" r="3.4" fill="#2ec26b" opacity="0.85"/>
<path d="M443.7 45.9 L450.1 52.3 M443.7 52.3 L450.1 45.9" stroke="#e0556b" stroke-width="1.6"/>
<path d="M503.7 169.7 L510.1 176.1 M503.7 176.1 L510.1 169.7" stroke="#e0556b" stroke-width="1.6"/>
<circle cx="501.2" cy="160.1" r="3.4" fill="#2ec26b" opacity="0.85"/>
<circle cx="505.3" cy="160.1" r="3.4" fill="#2ec26b" opacity="0.85"/>
<circle cx="462.3" cy="264.8" r="3.4" fill="#2ec26b" opacity="0.85"/>
<path d="M479.3 170.5 L485.7 176.9 M479.3 176.9 L485.7 170.5" stroke="#e0556b" stroke-width="1.6"/>
<path d="M476.1 165.5 L482.5 171.9 M476.1 171.9 L482.5 165.5" stroke="#e0556b" stroke-width="1.6"/>
<circle cx="507.7" cy="168.0" r="3.4" fill="#2ec26b" opacity="0.85"/>
<circle cx="507.7" cy="160.1" r="3.4" fill="#2ec26b" opacity="0.85"/>
<path d="M511.0 127.7 L517.4 134.1 M511.0 134.1 L517.4 127.7" stroke="#e0556b" stroke-width="1.6"/>
<path d="M436.4 40.2 L442.8 46.6 M436.4 46.6 L442.8 40.2" stroke="#e0556b" stroke-width="1.6"/>
<path d="M456.7 265.1 L463.1 271.5 M456.7 271.5 L463.1 265.1" stroke="#e0556b" stroke-width="1.6"/>
<path d="M517.5 171.2 L523.9 177.6 M517.5 177.6 L523.9 171.2" stroke="#e0556b" stroke-width="1.6"/>
<circle cx="505.8" cy="150.0" r="3.4" fill="#2ec26b" opacity="0.85"/>
<path d="M444.1 256.4 L450.5 262.8 M444.1 262.8 L450.5 256.4" stroke="#e0556b" stroke-width="1.6"/>
<circle cx="508.2" cy="152.2" r="3.4" fill="#2ec26b" opacity="0.85"/>
<path d="M507.6 173.6 L514.0 180.0 M507.6 180.0 L514.0 173.6" stroke="#e0556b" stroke-width="1.6"/>
<path d="M476.8 34.0 L483.2 40.4 M476.8 40.4 L483.2 34.0" stroke="#e0556b" stroke-width="1.6"/>
<circle cx="520.6" cy="171.1" r="3.4" fill="#2ec26b" opacity="0.85"/>
<circle cx="510.8" cy="164.7" r="3.4" fill="#2ec26b" opacity="0.85"/>
<circle cx="402.9" cy="78.6" r="3.4" fill="#2ec26b" opacity="0.85"/>
<circle cx="392.4" cy="218.1" r="3.4" fill="#2ec26b" opacity="0.85"/>
<circle cx="523.8" cy="36.5" r="3.4" fill="#2ec26b" opacity="0.85"/>
<path d="M393.2 64.7 L399.6 71.1 M393.2 71.1 L399.6 64.7" stroke="#e0556b" stroke-width="1.6"/>
<circle cx="518.1" cy="171.1" r="3.4" fill="#2ec26b" opacity="0.85"/>
<circle cx="437.0" cy="119.8" r="3.4" fill="#2ec26b" opacity="0.85"/>
<circle cx="524.6" cy="38.0" r="3.4" fill="#2ec26b" opacity="0.85"/>
<path d="M377.0 72.5 L383.4 78.9 M377.0 78.9 L383.4 72.5" stroke="#e0556b" stroke-width="1.6"/>
<circle cx="367.2" cy="106.3" r="3.4" fill="#2ec26b" opacity="0.85"/>
<circle cx="398.0" cy="61.5" r="3.4" fill="#2ec26b" opacity="0.85"/>
<circle cx="505.1" cy="151.2" r="3.4" fill="#2ec26b" opacity="0.85"/>
<circle cx="523.8" cy="166.1" r="3.4" fill="#2ec26b" opacity="0.85"/>
<path d="M474.3 266.1 L480.7 272.5 M474.3 272.5 L480.7 266.1" stroke="#e0556b" stroke-width="1.6"/>
<circle cx="514.8" cy="146.2" r="3.4" fill="#2ec26b" opacity="0.85"/>
<path d="M365.6 172.9 L372.0 179.3 M365.6 179.3 L372.0 172.9" stroke="#e0556b" stroke-width="1.6"/>
<circle cx="508.8" cy="154.0" r="3.4" fill="#2ec26b" opacity="0.85"/>
<circle cx="508.4" cy="181.0" r="3.4" fill="#2ec26b" opacity="0.85"/>
<circle cx="446.7" cy="45.1" r="3.4" fill="#2ec26b" opacity="0.85"/>
<circle cx="512.4" cy="149.0" r="3.4" fill="#2ec26b" opacity="0.85"/>
<circle cx="411.0" cy="235.9" r="3.4" fill="#2ec26b" opacity="0.85"/>
<circle cx="511.6" cy="154.7" r="3.4" fill="#2ec26b" opacity="0.85"/>
<path d="M484.9 268.3 L491.3 274.7 M484.9 274.7 L491.3 268.3" stroke="#e0556b" stroke-width="1.6"/>
<path d="M437.0 40.4 L443.4 46.8 M437.0 46.8 L443.4 40.4" stroke="#e0556b" stroke-width="1.6"/>
<path d="M425.7 53.3 L432.1 59.7 M425.7 59.7 L432.1 53.3" stroke="#e0556b" stroke-width="1.6"/>
<circle cx="525.4" cy="270.8" r="3.4" fill="#2ec26b" opacity="0.85"/>
<path d="M432.8 250.7 L439.2 257.1 M432.8 257.1 L439.2 250.7" stroke="#e0556b" stroke-width="1.6"/>
<circle cx="509.8" cy="165.0" r="3.4" fill="#2ec26b" opacity="0.85"/>
<circle cx="516.3" cy="39.7" r="3.4" fill="#2ec26b" opacity="0.85"/>
<path d="M406.9 235.8 L413.3 242.2 M406.9 242.2 L413.3 235.8" stroke="#e0556b" stroke-width="1.6"/>
<path d="M484.7 30.8 L491.1 37.2 M484.7 37.2 L491.1 30.8" stroke="#e0556b" stroke-width="1.6"/>
<circle cx="513.9" cy="153.6" r="3.4" fill="#2ec26b" opacity="0.85"/>
<path d="M521.2 204.5 L527.6 210.9 M521.2 210.9 L527.6 204.5" stroke="#e0556b" stroke-width="1.6"/>
<path d="M488.0 110.5 L494.4 116.9 M488.0 116.9 L494.4 110.5" stroke="#e0556b" stroke-width="1.6"/>
<circle cx="513.1" cy="126.5" r="3.4" fill="#2ec26b" opacity="0.85"/>
<path d="M517.5 31.6 L523.9 38.0 M517.5 38.0 L523.9 31.6" stroke="#e0556b" stroke-width="1.6"/>
<path d="M466.4 263.0 L472.8 269.4 M466.4 269.4 L472.8 263.0" stroke="#e0556b" stroke-width="1.6"/>
<path d="M485.8 33.1 L492.2 39.5 M485.8 39.5 L492.2 33.1" stroke="#e0556b" stroke-width="1.6"/>
<circle cx="416.9" cy="57.6" r="3.4" fill="#2ec26b" opacity="0.85"/>
<path d="M487.5 156.9 L493.9 163.3 M487.5 163.3 L493.9 156.9" stroke="#e0556b" stroke-width="1.6"/>
<path d="M444.5 36.6 L450.9 43.0 M444.5 43.0 L450.9 36.6" stroke="#e0556b" stroke-width="1.6"/>
<path d="M490.7 150.5 L497.1 156.9 M490.7 156.9 L497.1 150.5" stroke="#e0556b" stroke-width="1.6"/>
<path d="M478.2 149.7 L484.6 156.1 M478.2 156.1 L484.6 149.7" stroke="#e0556b" stroke-width="1.6"/>
<path d="M431.2 257.1 L437.6 263.5 M431.2 263.5 L437.6 257.1" stroke="#e0556b" stroke-width="1.6"/>
<circle cx="447.3" cy="269.6" r="3.4" fill="#2ec26b" opacity="0.85"/>
<path d="M403.6 67.8 L410.0 74.2 M403.6 74.2 L410.0 67.8" stroke="#e0556b" stroke-width="1.6"/>
<path d="M482.3 156.1 L488.7 162.5 M482.3 162.5 L488.7 156.1" stroke="#e0556b" stroke-width="1.6"/>
<circle cx="515.7" cy="175.3" r="3.4" fill="#2ec26b" opacity="0.85"/>
<circle cx="448.3" cy="51.5" r="3.4" fill="#2ec26b" opacity="0.85"/>
<circle cx="419.9" cy="56.5" r="3.4" fill="#2ec26b" opacity="0.85"/>
<path d="M399.7 231.9 L406.1 238.3 M399.7 238.3 L406.1 231.9" stroke="#e0556b" stroke-width="1.6"/>
<circle cx="511.6" cy="157.6" r="3.4" fill="#2ec26b" opacity="0.85"/>
<path d="M382.7 233.4 L389.1 239.8 M382.7 239.8 L389.1 233.4" stroke="#e0556b" stroke-width="1.6"/>
<circle cx="513.2" cy="156.8" r="3.4" fill="#2ec26b" opacity="0.85"/>
</svg>