<svg xmlns="http://www.w3.org/2000/svg" width="560" height="300" font-family="sans-serif">
<rect x="0" y="0" width="560" height="300" fill="#1b1b1b"/>
<text x="20" y="16" fill="#ddd" font-size="13">N. Pomoli (CAP) — 249 tiros, Clasificatorio</text>
<rect x="20" y="28" width="520" height="252" fill="none" stroke="#555"/>
<circle cx="509.8" cy="170.7" r="3.4" fill="#2ec26b" opacity="0.85"/>
<path d="M494.5 161.8 L500.9 168.2 M494.5 168.2 L500.9 161.8" stroke="#e0556b" stroke-width="1.6"/>
<path d="M498.5 28.7 L504.9 35.1 M498.5 35.1 L504.9 28.7" stroke="#e0556b" stroke-width="1.6"/>
<path d="M371.1 94.9 L377.5 101.3 M371.1 101.3 L377.5 94.9" stroke="#e0556b" stroke-width="1.6"/>
<circle cx="505.8" cy="170.7" r="3.4" fill="#2ec26b" opacity="0.85"/>
<path d="M488.0 133.3 L494.4 139.7 M488.0 139.7 L494.4 133.3" stroke="#e0556b" stroke-width="1.6"/>
<path d="M468.5 149.0 L474.9 155.4 M468.5 155.4 L474.9 149.0" stroke="#e0556b" stroke-width="1.6"/>
<path d="M494.8 146.9 L501.2 153.3 M494.8 153.3 L501.2 146.9" stroke="#e0556b" stroke-width="1.6"/>
<path d="M348.8 148.4 L355.2 154.8 M348.8 154.8 L355.2 148.4" stroke="#e0556b" stroke-width="1.6"/>
<path d="M505.6 150.8 L512.0 157.2 M505.6 157.2 L512.0 150.8" stroke="#e0556b" stroke-width="1.6"/>
<path d="M515.1 268.0 L521.5 274.4 M515.1 274.4 L521.5 268.0" stroke="#e0556b" stroke-width="1.6"/>
<path d="M397.4 83.6 L403.8 90.0 M397.4 90.0 L403.8 83.6" stroke="#e0556b" stroke-width="1.6"/>
<path d="M375.5 130.6 L381.9 137.0 M375.5 137.0 L381.9 130.6" stroke="#e0556b" stroke-width="1.6"/>
<circle cx="513.4" cy="184.3" r="3.4" fill="#2ec26b" opacity="0.85"/>
<path d="M498.0 182.6 L504.4 189.0 M498.0 189.0 L504.4 182.6" stroke="#e0556b" stroke-width="1.6"/>
<path d="M446.1 38.8 L452.5 45.2 M446.1 45.2 L452.5 38.8" stroke="#e0556b" stroke-width="1.6"/>
<path d="M485.8 156.9 L492.2 163.3 M485.8 163.3 L492.2 156.9" stroke="#e0556b" stroke-width="1.6"/>
<circle cx="483.4" cy="155.8" r="3.4" fill="#2ec26b" opacity="0.85"/>
<path d="M462.8 34.4 L469.2 40.8 M462.8 40.8 L469.2 34.4" stroke="#e0556b" stroke-width="1.6"/>
<path d="M463.6 262.1 L470.0 268.5 M463.6 268.5 L470.0 262.1" stroke="#e0556b" stroke-width="1.6"/>
<circle cx="500.1" cy="173.5" r="3.4" fill="#2ec26b" opacity="0.85"/>
<circle cx="394.6" cy="95.2" r="3.4" fill="#2ec26b" opacity="0.85"/>
<path d="M393.1 219.4 L399.5 225.8 M393.1 225.8 L399.5 219.4" stroke="#e0556b" stroke-width="1.6"/>
<path d="M466.1 153.2 L472.5 159.6 M466.1 159.6 L472.5 153.2" stroke="#e0556b" stroke-width="1.6"/>
<circle cx="485.5" cy="172.1" r="3.4" fill="#2ec26b" opacity="0.85"/>
<circle cx="500.9" cy="175.6" r="3.4" fill="#2ec26b" opacity="0.85"/>
<path d="M414.1 61.4 L420.5 67.8 M414.1 67.8 L420.5 61.4" stroke="#e0556b" stroke-width="1.6"/>
<circle cx="480.6" cy="133.6" r="3.4" fill="#2ec26b" opacity="0.85"/>
<path d="M516.4 173.2 L522.8 179.6 M516.4 179.6 L522.8 173.2" stroke="#e0556b" stroke-width="1.6"/>
<circle cx="522.0" cy="160.0" r="3.4" fill="#2ec26b" opacity="0.85"/>
<path d="M516.4 136.8 L522.8 143.2 M516.4 143.2 L522.8 136.8" stroke="#e0556b" stroke-width="1.6"/>
<path d="M449.0 42.2 L455.4 48.6 M449.0 48.6 L455.4 42.2" stroke="#e0556b" stroke-width="1.6"/>
<circle cx="508.8" cy="154.0" r="3.4" fill="#2ec26b" opacity="0.85"/>
<circle cx="514.7" cy="162.1" r="3.4" fill="#2ec26b" opacity="0.85"/>
<circle cx="512.2" cy="37.6" r="3.4" fill="#2ec26b" opacity="0.85"/>
<circle cx="510.9" cy="145.9" r="3.4" fill="#2ec26b" opacity="0.85"/>
<path d="M504.5 134.1 L510.9 140.5 M504.5 140.5 L510.9 134.1" stroke="#e0556b" stroke-width="1.6"/>
<circle cx="513.4" cy="166.5" r="3.4" fill="#2ec26b" opacity="0.85"/>
<circle cx="510.2" cy="136.6" r="3.4" fill="#2ec26b" opacity="0.85"/>
<path d="M423.4 248.0 L429.8 254.4 M423.4 254.4 L429.8 248.0" stroke="#e0556b" stroke-width="1.6"/>
<circle cx="508.8" cy="154.0" r="3.4" fill="#2ec26b" opacity="0.85"/>
<circle cx="496.4" cy="126.0" r="3.4" fill="#2ec26b" opacity="0.85"/>
<circle cx="515.8" cy="157.3" r="3.4" fill="#2ec26b" opacity="0.85"/>
<circle cx="454.7" cy="42.5" r="3.4" fill="#2ec26b" opacity="0.85"/>
<circle cx="518.7" cy="130.8" r="3.4" fill="#2ec26b" opacity="0.85"/>
<circle cx="373.5" cy="165.0" r="3.4" fill="#2ec26b" opacity="0.85"/>
<path d="M517.1 269.3 L523.5 275.7 M517.1 275.7 L523.5 269.3" stroke="#e0556b" stroke-width="1.6"/>
<circle cx="449.0" cy="265.3" r="3.4" fill="#2ec26b" opacity="0.85"/>
<circle cx="479.0" cy="152.2" r="3.4" fill="#2ec26b" opacity="0.85"/>
<circle cx="488.3" cy="140.2" r="3.4" fill="#2ec26b" opacity="0.85"/>
<path d="M494.8 139.8 L501.2 146.2 M494.8 146.2 L501.2 139.8" stroke="#e0556b" stroke-width="1.6"/>
<circle cx="508.8" cy="154.0" r="3.4" fill="#2ec26b" opacity="0.85"/>
<circle cx="513.4" cy="271.2" r="3.4" fill="#2ec26b" opacity="0.85"/>
<circle cx="512.6" cy="39.1" r="3.4" fill="#2ec26b" opacity="0.85"/>
<circle cx="415.7" cy="69.6" r="3.4" fill="#2ec26b" opacity="0.85"/>
<path d="M437.7 50.7 L444.1 57.1 M437.7 57.1 L444.1 50.7" stroke="#e0556b" stroke-width="1.6"/>
<path d="M433.6 53.6 L440.0 60.0 M433.6 60.0 L440.0 53.6" stroke="#e0556b" stroke-width="1.6"/>
<circle cx="495.5" cy="34.8" r="3.4" fill="#2ec26b" opacity="0.85"/>
<path d="M442.8 253.7 L449.2 260.1 M442.8 260.1 L449.2 253.7" stroke="#e0556b" stroke-width="1.6"/>
<path d="M488.3 31.6 L494.7 38.0 M488.3 38.0 L494.7 31.6" stroke="#e0556b" stroke-width="1.6"/>
<path d="M501.3 164.8 L507.7 171.2 M501.3 171.2 L507.7 164.8" stroke="#e0556b" stroke-width="1.6"/>
<path d="M509.4 34.5 L515.8 40.9 M509.4 40.9 L515.8 34.5" stroke="#e0556b" stroke-width="1.6"/>
<circle cx="517.4" cy="132.4" r="3.4" fill="#2ec26b" opacity="0.85"/>
<circle cx="516.3" cy="135.1" r="3.4" fill="#2ec26b" opacity="0.85"/>
<path d="M382.5 190.9 L388.9 197.3 M382.5 197.3 L388.9 190.9" stroke="#e0556b" stroke-width="1.6"/>
<circle cx="522.8" cy="174.9" r="3.4" fill="#2ec26b" opacity="0.85"/>
<circle cx="495.2" cy="150.7" r="3.4" fill="#2ec26b" opacity="0.85"/>
<path d="M485.7 136.6 L492.1 143.0 M485.7 143.0 L492.1 136.6" stroke="#e0556b" stroke-width="1.6"/>
<circle cx="440.2" cy="44.4" r="3.4" fill="#2ec26b" opacity="0.85"/>
<path d="M489.7 170.7 L496.1 177.1 M489.7 177.1 L496.1 170.7" stroke="#e0556b" stroke-width="1.6"/>
<path d="M469.5 122.3 L475.9 128.7 M469.5 128.7 L475.9 122.3" stroke="#e0556b" stroke-width="1.6"/>
<path d="M503.5 175.7 L509.9 182.1 M503.5 182.1 L509.9 175.7" stroke="#e0556b" stroke-width="1.6"/>
<circle cx="516.5" cy="182.5" r="3.4" fill="#2ec26b" opacity="0.85"/>
<path d="M378.6 112.4 L385.0 118.8 M378.6 118.8 L385.0 112.4" stroke="#e0556b" stroke-width="1.6"/>
<path d="M430.5 53.3 L436.9 59.7 M430.5 59.7 L436.9 53.3" stroke="#e0556b" stroke-width="1.6"/>
<path d="M487.3 182.1 L493.7 188.5 M487.3 188.5 L493.7 182.1" stroke="#e0556b" stroke-width="1.6"/>
<path d="M403.7 73.9 L410.1 80.3 M403.7 80.3 L410.1 73.9" stroke="#e0556b" stroke-width="1.6"/>
<path d="M433.8 45.4 L440.2 51.8 M433.8 51.8 L440.2 45.4" stroke="#e0556b" stroke-width="1.6"/>
<path d="M489.7 106.7 L496.1 113.1 M489.7 113.1 L496.1 106.7" stroke="#e0556b" stroke-width="1.6"/>
<path d="M511.0 142.7 L517.4 149.1 M511.0 149.1 L517.4 142.7" stroke="#e0556b" stroke-width="1.6"/>
<path d="M439.6 255.9 L446.0 262.3 M439.6 262.3 L446.0 255.9" stroke="#e0556b" stroke-width="1.6"/>
<path d="M390.9 63.0 L397.3 69.4 M390.9 69.4 L397.3 63.0" stroke="#e0556b" stroke-width="1.6"/>
<circle cx="510.9" cy="151.6" r="3.4" fill="#2ec26b" opacity="0.85"/>
<path d="M492.3 138.4 L498.7 144.8 M492.3 144.8 L498.7 138.4" stroke="#e0556b" stroke-width="1.6"/>
<circle cx="427.9" cy="56.8" r="3.4" fill="#2ec26b" opacity="0.85"/>
<circle cx="479.0" cy="132.9" r="3.4" fill="#2ec26b" opacity="0.85"/>
<circle cx="506.6" cy="175.6" r="3.4" fill="#2ec26b" opacity="0.85"/>
<circle cx="414.1" cy="249.0" r="3.4" fill="#2ec26b" opacity="0.85"/>
<circle cx="480.6" cy="41.1" r="3.4" fill="#2ec26b" opacity="0.85"/>
<path d="M439.3 50.0 L445.7 56.4 M439.3 56.4 L445.7 50.0" stroke="#e0556b" stroke-width="1.6"/>
<path d="M514.8 111.2 L521.2 117.6 M514.8 117.6 L521.2 111.2" stroke="#e0556b" stroke-width="1.6"/>
<circle cx="518.7" cy="169.2" r="3.4" fill="#2ec26b" opacity="0.85"/>
<path d="M515.5 267.8 L521.9 274.2 M515.5 274.2 L521.9 267.8" stroke="#e0556b" stroke-width="1.6"/>
<circle cx="509.3" cy="143.7" r="3.4" fill="#2ec26b" opacity="0.85"/>
<circle cx="366.6" cy="163.0" r="3.4" fill="#2ec26b" opacity="0.85"/>
<path d="M361.7 124.2 L368.1 130.6 M361.7 130.6 L368.1 124.2" stroke="#e0556b" stroke-width="1.6"/>
<circle cx="485.0" cy="164.4" r="3.4" fill="#2ec26b" opacity="0.85"/>
<path d="M415.3 250.9 L421.7 257.3 M415.3 257.3 L421.7 250.9" stroke="#e0556b" stroke-width="1.6"/>
<path d="M491.5 140.5 L497.9 146.9 M491.5 146.9 L497.9 140.5" stroke="#e0556b" stroke-width="1.6"/>
<circle cx="467.1" cy="146.6" r="3.4" fill="#2ec26b" opacity="0.85"/>
<circle cx="501.2" cy="160.1" r="3.4" fill="#2ec26b" opacity="0.85"/>
<path d="M426.6 248.0 L433.0 254.4 M426.6 254.4 L433.0 248.0" stroke="#e0556b" stroke-width="1.6"/>
<path d="M482.6 134.1 L489.0 140.5 M482.6 140.5 L489.0 134.1" stroke="#e0556b" stroke-width="1.6"/>
<circle cx="388.2" cy="227.6" r="3.4" fill="#2ec26b" opacity="0.85"/>
<path d="M473.4 127.6 L479.8 134.0 M473.4 134.0 L479.8 127.6" stroke="#e0556b" stroke-width="1.6"/>
<circle cx="418.9" cy="253.2" r="3.4" fill="#2ec26b" opacity="0.85"/>
<path d="M483.1 124.7 L489.5 131.1 M483.1 131.1 L489.5 124.7" stroke="#e0556b" stroke-width="1.6"/>
<circle cx="399.5" cy="241.8" r="3.4" fill="#2ec26b" opacity="0.85"/>
<path d="M419.0 53.6 L425.4 60.0 M419.0 60.0 L425.4 53.6" stroke="#e0556b" stroke-width="1.6"/>
<circle cx="489.6" cy="136.5" r="3.4" fill="#2ec26b" opacity="0.85"/>
<path d="M483.9 119.0 L490.3 125.4 M483.9 125.4 L490.3 119.0" stroke="#e0556b" stroke-width="1.6"/>
<path d="M518.0 270.0 L524.4 276.4 M518.0 276.4 L524.4 270.0" stroke="#e0556b" stroke-width="1.6"/>
<circle cx="424.7" cy="51.1" r="3.4" fill="#2ec26b" opacity="0.85"/>
<path d="M395.5 247.2 L401.9 253.6 M395.5 253.6 L401.9 247.2" stroke="#e0556b" stroke-width="1.6"/>
<circle cx="482.2" cy="150.0" r="3.4" fill="#2ec26b" opacity="0.85"/>
<path d="M511.0 119.9 L517.4 126.3 M511.0 126.3 L517.4 119.9" stroke="#e0556b" stroke-width="1.6"/>
<circle cx="517.4" cy="157.3" r="3.4" fill="#2ec26b" opacity="0.85"/>
<path d="M519.1 131.3 L525.5 137.7 M519.1 137.7 L525.5 131.3" stroke="#e0556b" stroke-width="1.6"/>
<circle cx="439.6" cy="54.1" r="3.4" fill="#2ec26b" opacity="0.85"/>
<path d="M412.1 57.3 L418.5 63.7 M412.1 63.7 L418.5 57.3" stroke="#e0556b" stroke-width="1.6"/>
<path d="M511.5 161.8 L517.9 168.2 M511.5 168.2 L517.9 161.8" stroke="#e0556b" stroke-width="1.6"/>
<path d="M481.5 152.5 L487.9 158.9 M481.5 158.9 L487.9 152.5" stroke="#e0556b" stroke-width="1.6"/>
<circle cx="393.0" cy="93.8" r="3.4" fill="#2ec26b" opacity="0.85"/>
<path d="M520.7 268.0 L527.1 274.4 M520.7 274.4 L527.1 268.0" stroke="#e0556b" stroke-width="1.6"/>
<path d="M479.3 160.5 L485.7 166.9 M479.3 166.9 L485.7 160.5" stroke="#e0556b" stroke-width="1.6"/>
<path d="M505.6 150.8 L512.0 157.2 M505.6 157.2 L512.0 150.8" stroke="#e0556b" stroke-width="1.6"/>
<path d="M444.5 147.7 L450.9 154.1 M444.5 154.1 L450.9 147.7" stroke="#e0556b" stroke-width="1.6"/>
<circle cx="504.5" cy="140.9" r="3.4" fill="#2ec26b" opacity="0.85"/>
<path d="M424.2 254.4 L430.6 260.8 M424.2 260.8 L430.6 254.4" stroke="#e0556b" stroke-width="1.6"/>
<path d="M416.1 251.6 L422.5 258.0 M416.1 258.0 L422.5 251.6" stroke="#e0556b" stroke-width="1.6"/>
<path d="M414.4 246.6 L420.8 253.0 M414.4 253.0 L420.8 246.6" stroke="#e0556b" stroke-width="1.6"/>
<circle cx="499.6" cy="144.4" r="3.4" fill="#2ec26b" opacity="0.85"/>
<path d="M501.3 185.4 L507.7 191.8 M501.3 191.8 L507.7 185.4" stroke="#e0556b" stroke-width="1.6"/>
<path d="M372.3 93.6 L378.7 100.0 M372.3 100.0 L378.7 93.6" stroke="#e0556b" stroke-width="1.6"/>
<path d="M461.2 37.2 L467.6 43.6 M461.2 43.6 L467.6 37.2" stroke="#e0556b" stroke-width="1.6"/>
<path d="M503.4 102.0 L509.8 108.4 M503.4 108.4 L509.8 102.0" stroke="#e0556b" stroke-width="1.6"/>
<path d="M500.9 158.9 L507.3 165.3 M500.9 165.3 L507.3 158.9" stroke="#e0556b" stroke-width="1.6"/>
<path d="M432.8 260.0 L439.2 266.4 M432.8 266.4 L439.2 260.0" stroke="#e0556b" stroke-width="1.6"/>
<circle cx="403.6" cy="236.2" r="3.4" fill="#2ec26b" opacity="0.85"/>
<circle cx="496.8" cy="125.1" r="3.4" fill="#2ec26b" opacity="0.85"/>
<path d="M487.1 36.5 L493.5 42.9 M487.1 42.9 L493.5 36.5" stroke="#e0556b" stroke-width="1.6"/>
<circle cx="496.8" cy="165.7" r="3.4" fill="#2ec26b" opacity="0.85"/>
<circle cx="402.3" cy="237.7" r="3.4" fill="#2ec26b" opacity="0.85"/>
<circle cx="413.6" cy="70.4" r="3.4" fill="#2ec26b" opacity="0.85"/>
<path d="M373.9 161.9 L380.3 168.3 M373.9 168.3 L380.3 161.9" stroke="#e0556b" stroke-width="1.6"/>
<circle cx="410.4" cy="67.6" r="3.4" fill="#2ec26b" opacity="0.85"/>
<path d="M499.6 143.4 L506.0 149.8 M499.6 149.8 L506.0 143.4" stroke="#e0556b" stroke-width="1.6"/>
<path d="M496.9 144.7 L503.3 151.1 M496.9 151.1 L503.3 144.7" stroke="#e0556b" stroke-width="1.6"/>
<path d="M508.3 124.7 L514.7 131.1 M508.3 131.1 L514.7 124.7" stroke="#e0556b" stroke-width="1.6"/>
<circle cx="493.1" cy="133.8" r="3.4" fill="#2ec26b" opacity="0.85"/>
<path d="M511.8 179.7 L518.2 186.1 M511.8 186.1 L518.2 179.7" stroke="#e0556b" stroke-width="1.6"/>
<circle cx="498.8" cy="177.2" r="3.4" fill="#2ec26b" opacity="0.85"/>
<circle cx="488.3" cy="161.5" r="3.4" fill="#2ec26b" opacity="0.85"/>
<path d="M380.1 198.8 L386.5 205.2 M380.1 205.2 L386.5 198.8" stroke="#e0556b" stroke-width="1.6"/>
<path d="M380.1 80.6 L386.5 87.0 M380.1 87.0 L386.5 80.6" stroke="#e0556b" stroke-width="1.6"/>
<path d="M481.5 143.3 L487.9 149.7 M481.5 149.7 L487.9 143.3" stroke="#e0556b" stroke-width="1.6"/>
<path d="M480.6 166.0 L487.0 172.4 M480.6 172.4 L487.0 166.0" stroke="#e0556b" stroke-width="1.6"/>
<circle cx="480.6" cy="156.4" r="3.4" fill="#2ec26b" opacity="0.85"/>
<path d="M373.6 141.8 L380.0 148.2 M373.6 148.2 L380.0 141.8" stroke="#e0556b" stroke-width="1.6"/>
<path d="M403.1 224.6 L409.5 231.0 M403.1 231.0 L409.5 224.6" stroke="#e0556b" stroke-width="1.6"/>
<path d="M470.4 128.4 L476.8 134.8 M470.4 134.8 L476.8 128.4" stroke="#e0556b" stroke-width="1.6"/>
<path d="M495.6 151.2 L502.0 157.6 M495.6 157.6 L502.0 151.2" stroke="#e0556b" stroke-width="1.6"/>
<path d="M417.7 60.8 L424.1 67.2 M417.7 67.2 L424.1 60.8" stroke="#e0556b" stroke-width="1.6"/>
<path d="M434.7 190.4 L441.1 196.8 M434.7 196.8 L441.1 190.4" stroke="#e0556b" stroke-width="1.6"/>
<path d="M479.3 269.4 L485.7 275.8 M479.3 275.8 L485.7 269.4" stroke="#e0556b" stroke-width="1.6"/>
<path d="M503.4 164.6 L509.8 171.0 M503.4 171.0 L509.8 164.6" stroke="#e0556b" stroke-width="1.6"/>
<path d="M503.4 136.1 L509.8 142.5 M503.4 142.5 L509.8 136.1" stroke="#e0556b" stroke-width="1.6"/>
<circle cx="455.4" cy="156.4" r="3.4" fill="#2ec26b" opacity="0.85"/>
<path d="M500.9 165.3 L507.3 171.7 M500.9 171.7 L507.3 165.3" stroke="#e0556b" stroke-width="1.6"/>
<path d="M490.4 152.5 L496.8 158.9 M490.4 158.9 L496.8 152.5" stroke="#e0556b" stroke-width="1.6"/>
<path d="M495.3 167.5 L501.7 173.9 M495.3 173.9 L501.7 167.5" stroke="#e0556b" stroke-width="1.6"/>
<circle cx="414.1" cy="237.6" r="3.4" fill="#2ec26b" opacity="0.85"/>
<path d="M413.4 64.9 L419.8 71.3 M413.4 71.3 L419.8 64.9" stroke="#e0556b" stroke-width="1.6"/>
<path d="M514.4 265.5 L520.8 271.9 M514.4 271.9 L520.8 265.5" stroke="#e0556b" stroke-width="1.6"/>
<circle cx="423.4" cy="66.2" r="3.4" fill="#2ec26b" opacity="0.85"/>
<circle cx="472.0" cy="39.1" r="3.4" fill="#2ec26b" opacity="0.85"/>
<path d="M439.6 250.9 L446.0 257.3 M439.6 257.3 L446.0 250.9" stroke="#e0556b" stroke-width="1.6"/>
<path d="M378.8 182.6 L385.2 189.0 M378.8 189.0 L385.2 182.6" stroke="#e0556b" stroke-width="1.6"/>
<circle cx="507.7" cy="151.6" r="3.4" fill="#2ec26b" opacity="0.85"/>
<circle cx="409.5" cy="256.9" r="3.4" fill="#2ec26b" opacity="0.85"/>
<circle cx="504.5" cy="37.7" r="3.4" fill="#2ec26b" opacity="0.85"/>
<path d="M386.1 101.4 L392.5 107.8 M386.1 107.8 L392.5 101.4" stroke="#e0556b" stroke-width="1.6"/>
<path d="M451.5 47.2 L457.9 53.6 M451.5 53.6 L457.9 47.2" stroke="#e0556b" stroke-width="1.6"/>
<path d="M490.4 33.6 L496.8 40.0 M490.4 40.0 L496.8 33.6" stroke="#e0556b" stroke-width="1.6"/>
<circle cx="383.3" cy="189.9" r="3.4" fill="#2ec26b" opacity="0.85"/>
<circle cx="519.6" cy="150.7" r="3.4" fill="#2ec26b" opacity="0.85"/>
<path d="M516.4 149.7 L522.8 156.1 M516.4 156.1 L522.8 149.7" stroke="#e0556b" stroke-width="1.6"/>
<path d="M467.7 210.9 L474.1 217.3 M467.7 217.3 L474.1 210.9" stroke="#e0556b" stroke-width="1.6"/>
<path d="M512.3 153.2 L518.7 159.6 M512.3 159.6 L518.7 153.2" stroke="#e0556b" stroke-width="1.6"/>
<path d="M402.8 235.1 L409.2 241.5 M402.8 241.5 L409.2 235.1" stroke="#e0556b" stroke-width="1.6"/>
<path d="M516.4 180.3 L522.8 186.7 M516.4 186.7 L522.8 180.3" stroke="#e0556b" stroke-width="1.6"/>
<circle cx="406.0" cy="234.0" r="3.4" fill="#2ec26b" opacity="0.85"/>
<path d="M410.4 236.7 L416.8 243.1 M410.4 243.1 L416.8 236.7" stroke="#e0556b" stroke-width="1.6"/>
<path d="M417.7 236.7 L424.1 243.1 M417.7 243.1 L424.1 236.7" stroke="#e0556b" stroke-width="1.6"/>
<circle cx="377.9" cy="188.6" r="3.4" fill="#2ec26b" opacity="0.85"/>
<circle cx="515.8" cy="153.0" r="3.4" fill="#2ec26b" opacity="0.85"/>
<circle cx="460.6" cy="44.1" r="3.4" fill="#2ec26b" opacity="0.85"/>
<path d="M381.2 105.7 L387.6 112.1 M381.2 112.1 L387.6 105.7" stroke="#e0556b" stroke-width="1.6"/>
<path d="M502.1 155.5 L508.5 161.9 M502.1 161.9 L508.5 155.5" stroke="#e0556b" stroke-width="1.6"/>
<path d="M484.2 141.2 L490.6 147.6 M484.2 147.6 L490.6 141.2" stroke="#e0556b" stroke-width="1.6"/>
<circle cx="377.9" cy="204.2" r="3.4" fill="#2ec26b" opacity="0.85"/>
<path d="M403.1 57.3 L409.5 63.7 M403.1 63.7 L409.5 57.3" stroke="#e0556b" stroke-width="1.6"/>
<circle cx="502.8" cy="271.2" r="3.4" fill="#2ec26b" opacity="0.85"/>
<circle cx="507.7" cy="152.3" r="3.4" fill="#2ec26b" opacity="0.85"/>
<path d="M493.2 150.5 L499.6 156.9 M493.2 156.9 L499.6 150.5" stroke="#e0556b" stroke-width="1.6"/>
<circle cx="478.5" cy="155.1" r="3.4" fill="#2ec26b" opacity="0.85"/>
<path d="M490.7 145.5 L497.1 151.9 M490.7 151.9 L497.1 145.5" stroke="#e0556b" stroke-width="1.6"/>
<path d="M416.6 247.9 L423.0 254.3 M416.6 254.3 L423.0 247.9" stroke="#e0556b" stroke-width="1.6"/>
<path d="M503.4 153.2 L509.8 159.6 M503.4 159.6 L509.8 153.2" stroke="#e0556b" stroke-width="1.6"/>
<path d="M507.4 30.8 L513.8 37.2 M507.4 37.2 L513.8 30.8" stroke="#e0556b" stroke-width="1.6"/>
<circle cx="416.9" cy="246.3" r="3.4" fill="#2ec26b" opacity="0.85"/>
<circle cx="397.4" cy="228.5" r="3.4" fill="#2ec26b" opacity="0.85"/>
<path d="M461.5 154.1 L467.9 160.5 M461.5 160.5 L467.9 154.1" stroke="#e0556b" stroke-width="1.6"/>
<circle cx="395.0" cy="63.3" r="3.4" fill="#2ec26b" opacity="0.85"/>
<path d="M472.1 119.2 L478.5 125.6 M472.1 125.6 L478.5 119.2" stroke="#e0556b" stroke-width="1.6"/>
<path d="M488.8 133.3 L495.2 139.7 M488.8 139.7 L495.2 133.3" stroke="#e0556b" stroke-width="1.6"/>
<circle cx="502.5" cy="136.5" r="3.4" fill="#2ec26b" opacity="0.85"/>
<path d="M473.4 136.1 L479.8 142.5 M473.4 142.5 L479.8 136.1" stroke="#e0556b" stroke-width="1.6"/>
<path d="M485.5 178.8 L491.9 185.2 M485.5 185.2 L491.9 178.8" stroke="#e0556b" stroke-width="1.6"/>
<path d="M522.0 33.6 L528.4 40.0 M522.0 40.0 L528.4 33.6" stroke="#e0556b" stroke-width="1.6"/>
<path d="M406.0 241.5 L412.4 247.9 M406.0 247.9 L412.4 241.5" stroke="#e0556b" stroke-width="1.6"/>
<path d="M484.7 133.3 L491.1 139.7 M484.7 139.7 L491.1 133.3" stroke="#e0556b" stroke-width="1.6"/>
<circle cx="376.8" cy="199.8" r="3.4" fill="#2ec26b" opacity="0.85"/>
<path d="M488.3 166.2 L494.7 172.6 M488.3 172.6 L494.7 166.2" stroke="#e0556b" stroke-width="1.6"/>
<path d="M501.3 129.2 L507.7 135.6 M501.3 135.6 L507.7 129.2" stroke="#e0556b" stroke-width="1.6"/>
<path d="M370.7 194.6 L377.1 201.0 M370.7 201.0 L377.1 194.6" stroke="#e0556b" stroke-width="1.6"/>
<circle cx="423.4" cy="254.1" r="3.4" fill="#2ec26b" opacity="0.85"/>
<path d="M488.3 161.9 L494.7 168.3 M488.3 168.3 L494.7 161.9" stroke="#e0556b" stroke-width="1.6"/>
<circle cx="420.9" cy="46.9" r="3.4" fill="#2ec26b" opacity="0.85"/>
<circle cx="513.1" cy="157.9" r="3.4" fill="#2ec26b" opacity="0.85"/>
<path d="M458.0 42.9 L464.4 49.3 M458.0 49.3 L464.4 42.9" stroke="#e0556b" stroke-width="1.6"/>
<path d="M422.2 53.6 L428.6 60.0 M422.2 60.0 L428.6 53.6" stroke="#e0556b" stroke-width="1.6"/>
<path d="M385.0 236.5 L391.4 242.9 M385.0 242.9 L391.4 236.5" stroke="#e0556b" stroke-width="1.6"/>
<circle cx="395.4" cy="241.8" r="3.4" fill="#2ec26b" opacity="0.85"/>
<path d="M503.4 120.5 L509.8 126.9 M503.4 126.9 L509.8 120.5" stroke="#e0556b" stroke-width="1.6"/>
<path d="M490.4 120.5 L496.8 126.9 M490.4 126.9 L496.8 120.5" stroke="#e0556b" stroke-width="1.6"/>
<circle cx="457.9" cy="40.4" r="3.4" fill="#2ec26b" opacity="0.85"/>
<path d="M416.1 240.2 L422.5 246.6 M416.1 246.6 L422.5 240.2" stroke="#e0556b" stroke-width="1.6"/>
<circle cx="516.7" cy="175.1" r="3.4" fill="#2ec26b" opacity="0.85"/>
<circle cx="493.9" cy="179.4" r="3.4" fill="#2ec26b" opacity="0.85"/>
<path d="M498.8 174.7 L505.2 181.1 M498.8 181.1 L505.2 174.7" stroke="#e0556b" stroke-width="1.6"/>
<circle cx="502.0" cy="163.7" r="3.4" fill="#2ec26b" opacity="0.85"/>
<path d="M516.4 30.1 L522.8 36.5 M516.4 36.5 L522.8 30.1" stroke="#e0556b" stroke-width="1.6"/>
<circle cx="508.2" cy="160.0" r="3.4" fill="#2ec26b" opacity="0.85"/>
<circle cx="506.6" cy="140.8" r="3.4" fill="#2ec26b" opacity="0.85"/>
<circle cx="488.7" cy="158.6" r="3.4" fill="#2ec26b" opacity="0.85"/>
<path d="M512.3 173.2 L518.7 179.6 M512.3 179.6 L518.7 173.2" stroke="#e0556b" stroke-width="1.6"/>
<path d="M513.9 172.4 L520.3 178.8 M513.9 178.8 L520.3 172.4" stroke="#e0556b" stroke-width="1.6"/>
<circle cx="507.4" cy="187.0" r="3.4" fill="#2ec26b" opacity="0.85"/>
</svg>