<svg xmlns="http://www.w3.org/2000/svg" width="560" height="300" font-family="sans-serif">
<rect x="0" y="0" width="560" height="300" fill="#1b1b1b"/>
<text x="20" y="16" fill="#ddd" font-size="13">P. Prieto (CNF) — 188 tiros, Clasificatorio</text>
<rect x="20" y="28" width="520" height="252" fill="none" stroke="#555"/>
<path d="M519.1 31.6 L525.5 38.0 M519.1 38.0 L525.5 31.6" stroke="#e0556b" stroke-width="1.6"/>
<path d="M404.7 243.1 L411.1 249.5 M404.7 249.5 L411.1 243.1" stroke="#e0556b" stroke-width="1.6"/>
<circle cx="386.9" cy="225.6" r="3.4" fill="#2ec26b" opacity="0.85"/>
<path d="M492.0 149.0 L498.4 155.4 M492.0 155.4 L498.4 149.0" stroke="#e0556b" stroke-width="1.6"/>
<circle cx="493.6" cy="152.2" r="3.4" fill="#2ec26b" opacity="0.85"/>
<path d="M440.9 264.3 L447.3 270.7 M440.9 270.7 L447.3 264.3" stroke="#e0556b" stroke-width="1.6"/>
<path d="M391.4 234.4 L397.8 240.8 M391.4 240.8 L397.8 234.4" stroke="#e0556b" stroke-width="1.6"/>
<path d="M377.6 233.0 L384.0 239.4 M377.6 239.4 L384.0 233.0" stroke="#e0556b" stroke-width="1.6"/>
<circle cx="419.3" cy="254.1" r="3.4" fill="#2ec26b" opacity="0.85"/>
<path d="M477.7 132.0 L484.1 138.4 M477.7 138.4 L484.1 132.0" stroke="#e0556b" stroke-width="1.6"/>
<circle cx="512.6" cy="151.6" r="3.4" fill="#2ec26b" opacity="0.85"/>
<circle cx="503.3" cy="167.1" r="3.4" fill="#2ec26b" opacity="0.85"/>
<path d="M415.0 56.4 L421.4 62.8 M415.0 62.8 L421.4 56.4" stroke="#e0556b" stroke-width="1.6"/>
<circle cx="484.7" cy="148.6" r="3.4" fill="#2ec26b" opacity="0.85"/>
<circle cx="381.7" cy="100.2" r="3.4" fill="#2ec26b" opacity="0.85"/>
<path d="M501.3 146.2 L507.7 152.6 M501.3 152.6 L507.7 146.2" stroke="#e0556b" stroke-width="1.6"/>
<path d="M488.3 147.7 L494.7 154.1 M488.3 154.1 L494.7 147.7" stroke="#e0556b" stroke-width="1.6"/>
<circle cx="384.4" cy="83.2" r="3.4" fill="#2ec26b" opacity="0.85"/>
<path d="M413.7 250.9 L420.1 257.3 M413.7 257.3 L420.1 250.9" stroke="#e0556b" stroke-width="1.6"/>
<path d="M394.2 91.4 L400.6 97.8 M394.2 97.8 L400.6 91.4" stroke="#e0556b" stroke-width="1.6"/>
<path d="M492.3 149.8 L498.7 156.2 M492.3 156.2 L498.7 149.8" stroke="#e0556b" stroke-width="1.6"/>
<circle cx="482.5" cy="270.4" r="3.4" fill="#2ec26b" opacity="0.85"/>
<path d="M498.0 151.9 L504.4 158.3 M498.0 158.3 L504.4 151.9" stroke="#e0556b" stroke-width="1.6"/>
<circle cx="503.3" cy="37.6" r="3.4" fill="#2ec26b" opacity="0.85"/>
<path d="M503.4 35.8 L509.8 42.2 M503.4 42.2 L509.8 35.8" stroke="#e0556b" stroke-width="1.6"/>
<path d="M457.1 265.7 L463.5 272.1 M457.1 272.1 L463.5 265.7" stroke="#e0556b" stroke-width="1.6"/>
<circle cx="481.8" cy="274.0" r="3.4" fill="#2ec26b" opacity="0.85"/>
<path d="M502.9 159.1 L509.3 165.5 M502.9 165.5 L509.3 159.1" stroke="#e0556b" stroke-width="1.6"/>
<circle cx="427.1" cy="58.2" r="3.4" fill="#2ec26b" opacity="0.85"/>
<circle cx="450.6" cy="266.0" r="3.4" fill="#2ec26b" opacity="0.85"/>
<path d="M367.4 160.5 L373.8 166.9 M367.4 166.9 L373.8 160.5" stroke="#e0556b" stroke-width="1.6"/>
<circle cx="514.2" cy="145.9" r="3.4" fill="#2ec26b" opacity="0.85"/>
<circle cx="519.1" cy="145.9" r="3.4" fill="#2ec26b" opacity="0.85"/>
<path d="M381.2 89.3 L387.6 95.7 M381.2 95.7 L387.6 89.3" stroke="#e0556b" stroke-width="1.6"/>
<circle cx="506.6" cy="150.7" r="3.4" fill="#2ec26b" opacity="0.85"/>
<circle cx="490.3" cy="34.0" r="3.4" fill="#2ec26b" opacity="0.85"/>
<path d="M384.4 87.2 L390.8 93.6 M384.4 93.6 L390.8 87.2" stroke="#e0556b" stroke-width="1.6"/>
<circle cx="508.5" cy="145.9" r="3.4" fill="#2ec26b" opacity="0.85"/>
<circle cx="510.2" cy="153.0" r="3.4" fill="#2ec26b" opacity="0.85"/>
<path d="M502.1 170.5 L508.5 176.9 M502.1 176.9 L508.5 170.5" stroke="#e0556b" stroke-width="1.6"/>
<circle cx="513.4" cy="157.3" r="3.4" fill="#2ec26b" opacity="0.85"/>
<circle cx="509.3" cy="159.4" r="3.4" fill="#2ec26b" opacity="0.85"/>
<circle cx="513.1" cy="162.1" r="3.4" fill="#2ec26b" opacity="0.85"/>
<circle cx="520.3" cy="37.6" r="3.4" fill="#2ec26b" opacity="0.85"/>
<circle cx="434.4" cy="254.6" r="3.4" fill="#2ec26b" opacity="0.85"/>
<path d="M375.5 203.2 L381.9 209.6 M375.5 209.6 L381.9 203.2" stroke="#e0556b" stroke-width="1.6"/>
<circle cx="513.4" cy="33.4" r="3.4" fill="#2ec26b" opacity="0.85"/>
<path d="M495.6 102.8 L502.0 109.2 M495.6 109.2 L502.0 102.8" stroke="#e0556b" stroke-width="1.6"/>
<circle cx="492.3" cy="34.8" r="3.4" fill="#2ec26b" opacity="0.85"/>
<circle cx="509.3" cy="140.2" r="3.4" fill="#2ec26b" opacity="0.85"/>
<path d="M498.0 31.6 L504.4 38.0 M498.0 38.0 L504.4 31.6" stroke="#e0556b" stroke-width="1.6"/>
<circle cx="396.6" cy="61.2" r="3.4" fill="#2ec26b" opacity="0.85"/>
<path d="M499.6 134.1 L506.0 140.5 M499.6 140.5 L506.0 134.1" stroke="#e0556b" stroke-width="1.6"/>
<circle cx="361.7" cy="95.3" r="3.4" fill="#2ec26b" opacity="0.85"/>
<circle cx="510.9" cy="151.6" r="3.4" fill="#2ec26b" opacity="0.85"/>
<path d="M504.5 35.9 L510.9 42.3 M504.5 42.3 L510.9 35.9" stroke="#e0556b" stroke-width="1.6"/>
<path d="M489.9 267.2 L496.3 273.6 M489.9 273.6 L496.3 267.2" stroke="#e0556b" stroke-width="1.6"/>
<path d="M509.4 132.7 L515.8 139.1 M509.4 139.1 L515.8 132.7" stroke="#e0556b" stroke-width="1.6"/>
<path d="M502.1 137.7 L508.5 144.1 M502.1 144.1 L508.5 137.7" stroke="#e0556b" stroke-width="1.6"/>
<path d="M497.2 137.0 L503.6 143.4 M497.2 143.4 L503.6 137.0" stroke="#e0556b" stroke-width="1.6"/>
<path d="M392.2 81.3 L398.6 87.7 M392.2 87.7 L398.6 81.3" stroke="#e0556b" stroke-width="1.6"/>
<circle cx="508.2" cy="147.2" r="3.4" fill="#2ec26b" opacity="0.85"/>
<circle cx="509.0" cy="165.0" r="3.4" fill="#2ec26b" opacity="0.85"/>
<path d="M497.7 32.2 L504.1 38.6 M497.7 38.6 L504.1 32.2" stroke="#e0556b" stroke-width="1.6"/>
<circle cx="376.8" cy="142.2" r="3.4" fill="#2ec26b" opacity="0.85"/>
<path d="M446.9 260.8 L453.3 267.2 M446.9 267.2 L453.3 260.8" stroke="#e0556b" stroke-width="1.6"/>
<path d="M483.4 154.1 L489.8 160.5 M483.4 160.5 L489.8 154.1" stroke="#e0556b" stroke-width="1.6"/>
<path d="M368.2 231.7 L374.6 238.1 M368.2 238.1 L374.6 231.7" stroke="#e0556b" stroke-width="1.6"/>
<path d="M494.8 139.8 L501.2 146.2 M494.8 146.2 L501.2 139.8" stroke="#e0556b" stroke-width="1.6"/>
<path d="M403.9 245.2 L410.3 251.6 M403.9 251.6 L410.3 245.2" stroke="#e0556b" stroke-width="1.6"/>
<circle cx="518.0" cy="39.7" r="3.4" fill="#2ec26b" opacity="0.85"/>
<path d="M501.8 126.2 L508.2 132.6 M501.8 132.6 L508.2 126.2" stroke="#e0556b" stroke-width="1.6"/>
<circle cx="498.5" cy="161.4" r="3.4" fill="#2ec26b" opacity="0.85"/>
<path d="M350.1 175.3 L356.5 181.7 M350.1 181.7 L356.5 175.3" stroke="#e0556b" stroke-width="1.6"/>
<circle cx="352.4" cy="153.6" r="3.4" fill="#2ec26b" opacity="0.85"/>
<path d="M462.3 40.2 L468.7 46.6 M462.3 46.6 L468.7 40.2" stroke="#e0556b" stroke-width="1.6"/>
<path d="M513.5 106.4 L519.9 112.8 M513.5 112.8 L519.9 106.4" stroke="#e0556b" stroke-width="1.6"/>
<path d="M455.8 40.9 L462.2 47.3 M455.8 47.3 L462.2 40.9" stroke="#e0556b" stroke-width="1.6"/>
<circle cx="511.8" cy="169.4" r="3.4" fill="#2ec26b" opacity="0.85"/>
<circle cx="517.4" cy="270.4" r="3.4" fill="#2ec26b" opacity="0.85"/>
<path d="M504.5 136.3 L510.9 142.7 M504.5 142.7 L510.9 136.3" stroke="#e0556b" stroke-width="1.6"/>
<circle cx="403.1" cy="217.1" r="3.4" fill="#2ec26b" opacity="0.85"/>
<path d="M419.8 242.2 L426.2 248.6 M419.8 248.6 L426.2 242.2" stroke="#e0556b" stroke-width="1.6"/>
<path d="M505.0 265.7 L511.4 272.1 M505.0 272.1 L511.4 265.7" stroke="#e0556b" stroke-width="1.6"/>
<circle cx="415.7" cy="48.9" r="3.4" fill="#2ec26b" opacity="0.85"/>
<circle cx="503.3" cy="165.7" r="3.4" fill="#2ec26b" opacity="0.85"/>
<circle cx="513.1" cy="169.2" r="3.4" fill="#2ec26b" opacity="0.85"/>
<circle cx="389.8" cy="82.4" r="3.4" fill="#2ec26b" opacity="0.85"/>
<path d="M412.5 235.1 L418.9 241.5 M412.5 241.5 L418.9 235.1" stroke="#e0556b" stroke-width="1.6"/>
<circle cx="429.8" cy="49.1" r="3.4" fill="#2ec26b" opacity="0.85"/>
<path d="M401.5 245.2 L407.9 251.6 M401.5 251.6 L407.9 245.2" stroke="#e0556b" stroke-width="1.6"/>
<circle cx="510.9" cy="162.3" r="3.4" fill="#2ec26b" opacity="0.85"/>
<path d="M419.3 250.9 L425.7 257.3 M419.3 257.3 L425.7 250.9" stroke="#e0556b" stroke-width="1.6"/>
<circle cx="504.5" cy="148.0" r="3.4" fill="#2ec26b" opacity="0.85"/>
<circle cx="395.4" cy="71.0" r="3.4" fill="#2ec26b" opacity="0.85"/>
<path d="M502.6 36.5 L509.0 42.9 M502.6 42.9 L509.0 36.5" stroke="#e0556b" stroke-width="1.6"/>
<circle cx="506.6" cy="149.3" r="3.4" fill="#2ec26b" opacity="0.85"/>
<circle cx="500.1" cy="155.7" r="3.4" fill="#2ec26b" opacity="0.85"/>
<circle cx="504.1" cy="273.2" r="3.4" fill="#2ec26b" opacity="0.85"/>
<circle cx="511.8" cy="148.7" r="3.4" fill="#2ec26b" opacity="0.85"/>
<path d="M505.3 146.2 L511.7 152.6 M505.3 152.6 L511.7 146.2" stroke="#e0556b" stroke-width="1.6"/>
<path d="M420.9 253.0 L427.3 259.4 M420.9 259.4 L427.3 253.0" stroke="#e0556b" stroke-width="1.6"/>
<path d="M390.1 63.0 L396.5 69.4 M390.1 69.4 L396.5 63.0" stroke="#e0556b" stroke-width="1.6"/>
<circle cx="426.6" cy="47.7" r="3.4" fill="#2ec26b" opacity="0.85"/>
<path d="M489.9 182.6 L496.3 189.0 M489.9 189.0 L496.3 182.6" stroke="#e0556b" stroke-width="1.6"/>
<path d="M506.6 197.3 L513.0 203.7 M506.6 203.7 L513.0 197.3" stroke="#e0556b" stroke-width="1.6"/>
<path d="M373.6 102.0 L380.0 108.4 M373.6 108.4 L380.0 102.0" stroke="#e0556b" stroke-width="1.6"/>
<path d="M486.7 125.6 L493.1 132.0 M486.7 132.0 L493.1 125.6" stroke="#e0556b" stroke-width="1.6"/>
<path d="M368.2 57.3 L374.6 63.7 M368.2 63.7 L374.6 57.3" stroke="#e0556b" stroke-width="1.6"/>
<path d="M394.2 60.1 L400.6 66.5 M394.2 66.5 L400.6 60.1" stroke="#e0556b" stroke-width="1.6"/>
<path d="M501.3 31.6 L507.7 38.0 M501.3 38.0 L507.7 31.6" stroke="#e0556b" stroke-width="1.6"/>
<circle cx="437.1" cy="262.6" r="3.4" fill="#2ec26b" opacity="0.85"/>
<circle cx="500.9" cy="164.3" r="3.4" fill="#2ec26b" opacity="0.85"/>
<path d="M448.2 143.3 L454.6 149.7 M448.2 149.7 L454.6 143.3" stroke="#e0556b" stroke-width="1.6"/>
<circle cx="503.3" cy="165.0" r="3.4" fill="#2ec26b" opacity="0.85"/>
<circle cx="477.4" cy="152.9" r="3.4" fill="#2ec26b" opacity="0.85"/>
<circle cx="465.2" cy="39.7" r="3.4" fill="#2ec26b" opacity="0.85"/>
<path d="M482.3 129.0 L488.7 135.4 M482.3 135.4 L488.7 129.0" stroke="#e0556b" stroke-width="1.6"/>
<circle cx="407.6" cy="247.5" r="3.4" fill="#2ec26b" opacity="0.85"/>
<path d="M406.0 56.4 L412.4 62.8 M406.0 62.8 L412.4 56.4" stroke="#e0556b" stroke-width="1.6"/>
<circle cx="513.4" cy="160.1" r="3.4" fill="#2ec26b" opacity="0.85"/>
<circle cx="498.0" cy="145.9" r="3.4" fill="#2ec26b" opacity="0.85"/>
<circle cx="497.2" cy="154.4" r="3.4" fill="#2ec26b" opacity="0.85"/>
<path d="M428.7 262.1 L435.1 268.5 M428.7 268.5 L435.1 262.1" stroke="#e0556b" stroke-width="1.6"/>
<path d="M496.9 151.8 L503.3 158.2 M496.9 158.2 L503.3 151.8" stroke="#e0556b" stroke-width="1.6"/>
<path d="M499.3 273.5 L505.7 279.9 M499.3 279.9 L505.7 273.5" stroke="#e0556b" stroke-width="1.6"/>
<path d="M490.4 156.1 L496.8 162.5 M490.4 162.5 L496.8 156.1" stroke="#e0556b" stroke-width="1.6"/>
<circle cx="410.4" cy="246.3" r="3.4" fill="#2ec26b" opacity="0.85"/>
<path d="M463.9 261.6 L470.3 268.0 M463.9 268.0 L470.3 261.6" stroke="#e0556b" stroke-width="1.6"/>
<circle cx="502.0" cy="150.9" r="3.4" fill="#2ec26b" opacity="0.85"/>
<path d="M389.0 64.2 L395.4 70.6 M389.0 70.6 L395.4 64.2" stroke="#e0556b" stroke-width="1.6"/>
<circle cx="510.6" cy="154.3" r="3.4" fill="#2ec26b" opacity="0.85"/>
<path d="M508.3 151.8 L514.7 158.2 M508.3 158.2 L514.7 151.8" stroke="#e0556b" stroke-width="1.6"/>
<circle cx="361.7" cy="106.0" r="3.4" fill="#2ec26b" opacity="0.85"/>
<path d="M420.2 53.0 L426.6 59.4 M420.2 59.4 L426.6 53.0" stroke="#e0556b" stroke-width="1.6"/>
<circle cx="419.3" cy="63.3" r="3.4" fill="#2ec26b" opacity="0.85"/>
<circle cx="389.3" cy="211.4" r="3.4" fill="#2ec26b" opacity="0.85"/>
<path d="M511.8 124.2 L518.2 130.6 M511.8 130.6 L518.2 124.2" stroke="#e0556b" stroke-width="1.6"/>
<circle cx="487.9" cy="39.0" r="3.4" fill="#2ec26b" opacity="0.85"/>
<path d="M433.6 258.6 L440.0 265.0 M433.6 265.0 L440.0 258.6" stroke="#e0556b" stroke-width="1.6"/>
<path d="M509.9 156.1 L516.3 162.5 M509.9 162.5 L516.3 156.1" stroke="#e0556b" stroke-width="1.6"/>
<path d="M511.0 265.1 L517.4 271.5 M511.0 271.5 L517.4 265.1" stroke="#e0556b" stroke-width="1.6"/>
<path d="M404.7 67.2 L411.1 73.6 M404.7 73.6 L411.1 67.2" stroke="#e0556b" stroke-width="1.6"/>
<path d="M383.7 91.4 L390.1 97.8 M383.7 97.8 L390.1 91.4" stroke="#e0556b" stroke-width="1.6"/>
<circle cx="509.3" cy="165.1" r="3.4" fill="#2ec26b" opacity="0.85"/>
<path d="M481.8 30.2 L488.2 36.6 M481.8 36.6 L488.2 30.2" stroke="#e0556b" stroke-width="1.6"/>
<path d="M388.5 203.9 L394.9 210.3 M388.5 210.3 L394.9 203.9" stroke="#e0556b" stroke-width="1.6"/>
<path d="M379.2 130.4 L385.6 136.8 M379.2 136.8 L385.6 130.4" stroke="#e0556b" stroke-width="1.6"/>
<path d="M506.6 163.2 L513.0 169.6 M506.6 169.6 L513.0 163.2" stroke="#e0556b" stroke-width="1.6"/>
<circle cx="430.3" cy="61.0" r="3.4" fill="#2ec26b" opacity="0.85"/>
<circle cx="379.2" cy="150.0" r="3.4" fill="#2ec26b" opacity="0.85"/>
<circle cx="511.5" cy="141.5" r="3.4" fill="#2ec26b" opacity="0.85"/>
<path d="M517.5 169.0 L523.9 175.4 M517.5 175.4 L523.9 169.0" stroke="#e0556b" stroke-width="1.6"/>
<circle cx="517.4" cy="125.2" r="3.4" fill="#2ec26b" opacity="0.85"/>
<path d="M511.8 201.0 L518.2 207.4 M511.8 207.4 L518.2 201.0" stroke="#e0556b" stroke-width="1.6"/>
<circle cx="466.8" cy="267.5" r="3.4" fill="#2ec26b" opacity="0.85"/>
<path d="M368.7 219.4 L375.1 225.8 M368.7 225.8 L375.1 219.4" stroke="#e0556b" stroke-width="1.6"/>
<path d="M448.2 257.1 L454.6 263.5 M448.2 263.5 L454.6 257.1" stroke="#e0556b" stroke-width="1.6"/>
<circle cx="508.8" cy="154.0" r="3.4" fill="#2ec26b" opacity="0.85"/>
<path d="M453.2 261.2 L459.6 267.6 M453.2 267.6 L459.6 261.2" stroke="#e0556b" stroke-width="1.6"/>
<path d="M374.6 212.7 L381.0 219.1 M374.6 219.1 L381.0 212.7" stroke="#e0556b" stroke-width="1.6"/>
<path d="M389.2 53.3 L395.6 59.7 M389.2 59.7 L395.6 53.3" stroke="#e0556b" stroke-width="1.6"/>
<circle cx="519.7" cy="184.6" r="3.4" fill="#2ec26b" opacity="0.85"/>
<path d="M376.2 91.0 L382.6 97.4 M376.2 97.4 L382.6 91.0" stroke="#e0556b" stroke-width="1.6"/>
<path d="M446.7 152.9 L453.1 159.3 M446.7 159.3 L453.1 152.9" stroke="#e0556b" stroke-width="1.6"/>
<circle cx="510.8" cy="33.0" r="3.4" fill="#2ec26b" opacity="0.85"/>
<circle cx="507.6" cy="165.4" r="3.4" fill="#2ec26b" opacity="0.85"/>
<path d="M471.1 267.6 L477.5 274.0 M471.1 274.0 L477.5 267.6" stroke="#e0556b" stroke-width="1.6"/>
<path d="M429.7 245.5 L436.1 251.9 M429.7 251.9 L436.1 245.5" stroke="#e0556b" stroke-width="1.6"/>
<circle cx="518.1" cy="161.1" r="3.4" fill="#2ec26b" opacity="0.85"/>
<path d="M380.2 199.2 L386.6 205.6 M380.2 205.6 L386.6 199.2" stroke="#e0556b" stroke-width="1.6"/>
<path d="M505.8 143.3 L512.2 149.7 M505.8 149.7 L512.2 143.3" stroke="#e0556b" stroke-width="1.6"/>
<path d="M506.6 270.7 L513.0 277.1 M506.6 277.1 L513.0 270.7" stroke="#e0556b" stroke-width="1.6"/>
<path d="M511.5 149.0 L517.9 155.4 M511.5 155.4 L517.9 149.0" stroke="#e0556b" stroke-width="1.6"/>
<path d="M453.9 42.9 L460.3 49.3 M453.9 49.3 L460.3 42.9" stroke="#e0556b" stroke-width="1.6"/>
<path d="M376.0 195.9 L382.4 202.3 M376.0 202.3 L382.4 195.9" stroke="#e0556b" stroke-width="1.6"/>
<circle cx="380.8" cy="199.1" r="3.4" fill="#2ec26b" opacity="0.85"/>
<circle cx="469.6" cy="34.8" r="3.4" fill="#2ec26b" opacity="0.85"/>
<path d="M408.0 236.7 L414.4 243.1 M408.0 243.1 L414.4 236.7" stroke="#e0556b" stroke-width="1.6"/>
<path d="M502.1 151.9 L508.5 158.3 M502.1 158.3 L508.5 151.9" stroke="#e0556b" stroke-width="1.6"/>
<path d="M514.2 265.8 L520.6 272.2 M514.2 272.2 L520.6 265.8" stroke="#e0556b" stroke-width="1.6"/>
<circle cx="437.1" cy="155.1" r="3.4" fill="#2ec26b" opacity="0.85"/>
<circle cx="388.5" cy="98.2" r="3.4" fill="#2ec26b" opacity="0.85"/>
<circle cx="506.9" cy="143.0" r="3.4" fill="#2ec26b" opacity="0.85"/>
<path d="M392.6 77.2 L399.0 83.6 M392.6 83.6 L399.0 77.2" stroke="#e0556b" stroke-width="1.6"/>
<path d="M493.6 134.7 L500.0 141.1 M493.6 141.1 L500.0 134.7" stroke="#e0556b" stroke-width="1.6"/>
<circle cx="508.2" cy="37.6" r="3.4" fill="#2ec26b" opacity="0.85"/>
<path d="M419.0 238.6 L425.4 245.0 M419.0 245.0 L425.4 238.6" stroke="#e0556b" stroke-width="1.6"/>
</svg>