<svg xmlns="http://www.w3.org/2000/svg" width="560" height="300" font-family="sans-serif">
<rect x="0" y="0" width="560" height="300" fill="#1b1b1b"/>
<text x="20" y="16" fill="#ddd" font-size="13">Q. Wilson (UAT) — 235 tiros, Clasificatorio</text>
<rect x="20" y="28" width="520" height="252" fill="none" stroke="#555"/>
<path d="M468.8 149.1 L475.2 155.5 M468.8 155.5 L475.2 149.1" stroke="#e0556b" stroke-width="1.6"/>
<circle cx="431.5" cy="91.8" r="3.4" fill="#2ec26b" opacity="0.85"/>
<circle cx="513.4" cy="160.1" r="3.4" fill="#2ec26b" opacity="0.85"/>
<path d="M430.7 169.7 L437.1 176.1 M430.7 176.1 L437.1 169.7" stroke="#e0556b" stroke-width="1.6"/>
<circle cx="413.6" cy="153.7" r="3.4" fill="#2ec26b" opacity="0.85"/>
<circle cx="516.7" cy="163.0" r="3.4" fill="#2ec26b" opacity="0.85"/>
<circle cx="431.1" cy="204.8" r="3.4" fill="#2ec26b" opacity="0.85"/>
<path d="M381.7 230.8 L388.1 237.2 M381.7 237.2 L388.1 230.8" stroke="#e0556b" stroke-width="1.6"/>
<path d="M510.7 136.1 L517.1 142.5 M510.7 142.5 L517.1 136.1" stroke="#e0556b" stroke-width="1.6"/>
<circle cx="514.7" cy="159.3" r="3.4" fill="#2ec26b" opacity="0.85"/>
<path d="M480.6 180.3 L487.0 186.7 M480.6 186.7 L487.0 180.3" stroke="#e0556b" stroke-width="1.6"/>
<circle cx="500.1" cy="172.8" r="3.4" fill="#2ec26b" opacity="0.85"/>
<path d="M389.0 231.5 L395.4 237.9 M389.0 237.9 L395.4 231.5" stroke="#e0556b" stroke-width="1.6"/>
<path d="M487.5 73.6 L493.9 80.0 M487.5 80.0 L493.9 73.6" stroke="#e0556b" stroke-width="1.6"/>
<circle cx="511.8" cy="145.2" r="3.4" fill="#2ec26b" opacity="0.85"/>
<circle cx="421.7" cy="140.2" r="3.4" fill="#2ec26b" opacity="0.85"/>
<path d="M411.2 145.5 L417.6 151.9 M411.2 151.9 L417.6 145.5" stroke="#e0556b" stroke-width="1.6"/>
<path d="M505.6 150.8 L512.0 157.2 M505.6 157.2 L512.0 150.8" stroke="#e0556b" stroke-width="1.6"/>
<circle cx="514.2" cy="155.8" r="3.4" fill="#2ec26b" opacity="0.85"/>
<path d="M504.5 136.3 L510.9 142.7 M504.5 142.7 L510.9 136.3" stroke="#e0556b" stroke-width="1.6"/>
<circle cx="509.3" cy="156.6" r="3.4" fill="#2ec26b" opacity="0.85"/>
<path d="M505.6 150.8 L512.0 157.2 M505.6 157.2 L512.0 150.8" stroke="#e0556b" stroke-width="1.6"/>
<path d="M394.7 141.8 L401.1 148.2 M394.7 148.2 L401.1 141.8" stroke="#e0556b" stroke-width="1.6"/>
<circle cx="505.0" cy="152.9" r="3.4" fill="#2ec26b" opacity="0.85"/>
<circle cx="422.2" cy="184.9" r="3.4" fill="#2ec26b" opacity="0.85"/>
<circle cx="513.9" cy="157.9" r="3.4" fill="#2ec26b" opacity="0.85"/>
<path d="M505.8 151.8 L512.2 158.2 M505.8 158.2 L512.2 151.8" stroke="#e0556b" stroke-width="1.6"/>
<circle cx="459.5" cy="201.3" r="3.4" fill="#2ec26b" opacity="0.85"/>
<circle cx="514.7" cy="160.0" r="3.4" fill="#2ec26b" opacity="0.85"/>
<circle cx="514.7" cy="159.3" r="3.4" fill="#2ec26b" opacity="0.85"/>
<circle cx="483.1" cy="253.2" r="3.4" fill="#2ec26b" opacity="0.85"/>
<circle cx="428.2" cy="98.2" r="3.4" fill="#2ec26b" opacity="0.85"/>
<circle cx="410.4" cy="196.4" r="3.4" fill="#2ec26b" opacity="0.85"/>
<circle cx="404.7" cy="187.2" r="3.4" fill="#2ec26b" opacity="0.85"/>
<path d="M510.2 244.5 L516.6 250.9 M510.2 250.9 L516.6 244.5" stroke="#e0556b" stroke-width="1.6"/>
<circle cx="454.1" cy="106.0" r="3.4" fill="#2ec26b" opacity="0.85"/>
<path d="M459.9 228.8 L466.3 235.2 M459.9 235.2 L466.3 228.8" stroke="#e0556b" stroke-width="1.6"/>
<path d="M500.5 164.8 L506.9 171.2 M500.5 171.2 L506.9 164.8" stroke="#e0556b" stroke-width="1.6"/>
<circle cx="518.7" cy="167.8" r="3.4" fill="#2ec26b" opacity="0.85"/>
<path d="M496.9 67.8 L503.3 74.2 M496.9 74.2 L503.3 67.8" stroke="#e0556b" stroke-width="1.6"/>
<path d="M513.1 156.8 L519.5 163.2 M513.1 163.2 L519.5 156.8" stroke="#e0556b" stroke-width="1.6"/>
<path d="M493.6 224.4 L500.0 230.8 M493.6 230.8 L500.0 224.4" stroke="#e0556b" stroke-width="1.6"/>
<path d="M502.1 124.2 L508.5 130.6 M502.1 130.6 L508.5 124.2" stroke="#e0556b" stroke-width="1.6"/>
<circle cx="510.9" cy="146.6" r="3.4" fill="#2ec26b" opacity="0.85"/>
<circle cx="510.9" cy="146.6" r="3.4" fill="#2ec26b" opacity="0.85"/>
<path d="M509.4 80.7 L515.8 87.1 M509.4 87.1 L515.8 80.7" stroke="#e0556b" stroke-width="1.6"/>
<circle cx="514.2" cy="148.0" r="3.4" fill="#2ec26b" opacity="0.85"/>
<path d="M506.6 157.5 L513.0 163.9 M506.6 163.9 L513.0 157.5" stroke="#e0556b" stroke-width="1.6"/>
<circle cx="418.9" cy="98.1" r="3.4" fill="#2ec26b" opacity="0.85"/>
<circle cx="508.2" cy="162.1" r="3.4" fill="#2ec26b" opacity="0.85"/>
<path d="M511.5 158.2 L517.9 164.6 M511.5 164.6 L517.9 158.2" stroke="#e0556b" stroke-width="1.6"/>
<path d="M483.9 140.4 L490.3 146.8 M483.9 146.8 L490.3 140.4" stroke="#e0556b" stroke-width="1.6"/>
<path d="M443.7 207.5 L450.1 213.9 M443.7 213.9 L450.1 207.5" stroke="#e0556b" stroke-width="1.6"/>
<circle cx="423.4" cy="156.6" r="3.4" fill="#2ec26b" opacity="0.85"/>
<path d="M491.5 63.7 L497.9 70.1 M491.5 70.1 L497.9 63.7" stroke="#e0556b" stroke-width="1.6"/>
<path d="M414.4 151.9 L420.8 158.3 M414.4 158.3 L420.8 151.9" stroke="#e0556b" stroke-width="1.6"/>
<path d="M409.3 113.4 L415.7 119.8 M409.3 119.8 L415.7 113.4" stroke="#e0556b" stroke-width="1.6"/>
<circle cx="492.0" cy="88.1" r="3.4" fill="#2ec26b" opacity="0.85"/>
<circle cx="511.5" cy="159.3" r="3.4" fill="#2ec26b" opacity="0.85"/>
<circle cx="508.8" cy="154.0" r="3.4" fill="#2ec26b" opacity="0.85"/>
<path d="M460.4 126.9 L466.8 133.3 M460.4 133.3 L466.8 126.9" stroke="#e0556b" stroke-width="1.6"/>
<circle cx="497.0" cy="168.9" r="3.4" fill="#2ec26b" opacity="0.85"/>
<path d="M463.8 94.6 L470.2 101.0 M463.8 101.0 L470.2 94.6" stroke="#e0556b" stroke-width="1.6"/>
<circle cx="475.9" cy="146.9" r="3.4" fill="#2ec26b" opacity="0.85"/>
<circle cx="500.3" cy="206.7" r="3.4" fill="#2ec26b" opacity="0.85"/>
<path d="M481.6 88.9 L488.0 95.3 M481.6 95.3 L488.0 88.9" stroke="#e0556b" stroke-width="1.6"/>
<path d="M433.8 118.8 L440.2 125.2 M433.8 125.2 L440.2 118.8" stroke="#e0556b" stroke-width="1.6"/>
<path d="M476.0 141.6 L482.4 148.0 M476.0 148.0 L482.4 141.6" stroke="#e0556b" stroke-width="1.6"/>
<circle cx="490.5" cy="179.6" r="3.4" fill="#2ec26b" opacity="0.85"/>
<path d="M437.0 142.3 L443.4 148.7 M437.0 148.7 L443.4 142.3" stroke="#e0556b" stroke-width="1.6"/>
<path d="M501.9 177.1 L508.3 183.5 M501.9 183.5 L508.3 177.1" stroke="#e0556b" stroke-width="1.6"/>
<path d="M484.1 183.5 L490.5 189.9 M484.1 189.9 L490.5 183.5" stroke="#e0556b" stroke-width="1.6"/>
<path d="M416.1 108.5 L422.5 114.9 M416.1 114.9 L422.5 108.5" stroke="#e0556b" stroke-width="1.6"/>
<circle cx="514.2" cy="160.1" r="3.4" fill="#2ec26b" opacity="0.85"/>
<circle cx="514.2" cy="163.0" r="3.4" fill="#2ec26b" opacity="0.85"/>
<circle cx="450.9" cy="159.4" r="3.4" fill="#2ec26b" opacity="0.85"/>
<path d="M491.5 138.4 L497.9 144.8 M491.5 144.8 L497.9 138.4" stroke="#e0556b" stroke-width="1.6"/>
<circle cx="433.1" cy="215.6" r="3.4" fill="#2ec26b" opacity="0.85"/>
<path d="M515.5 185.2 L521.9 191.6 M515.5 191.6 L521.9 185.2" stroke="#e0556b" stroke-width="1.6"/>
<path d="M475.0 147.5 L481.4 153.9 M475.0 153.9 L481.4 147.5" stroke="#e0556b" stroke-width="1.6"/>
<circle cx="515.5" cy="156.4" r="3.4" fill="#2ec26b" opacity="0.85"/>
<circle cx="516.3" cy="148.6" r="3.4" fill="#2ec26b" opacity="0.85"/>
<path d="M512.3 181.7 L518.7 188.1 M512.3 188.1 L518.7 181.7" stroke="#e0556b" stroke-width="1.6"/>
<circle cx="514.7" cy="159.3" r="3.4" fill="#2ec26b" opacity="0.85"/>
<path d="M485.1 128.4 L491.5 134.8 M485.1 134.8 L491.5 128.4" stroke="#e0556b" stroke-width="1.6"/>
<circle cx="500.4" cy="200.0" r="3.4" fill="#2ec26b" opacity="0.85"/>
<circle cx="420.1" cy="121.0" r="3.4" fill="#2ec26b" opacity="0.85"/>
<path d="M462.3 216.7 L468.7 223.1 M462.3 223.1 L468.7 216.7" stroke="#e0556b" stroke-width="1.6"/>
<circle cx="501.2" cy="143.0" r="3.4" fill="#2ec26b" opacity="0.85"/>
<path d="M481.8 151.9 L488.2 158.3 M481.8 158.3 L488.2 151.9" stroke="#e0556b" stroke-width="1.6"/>
<circle cx="514.2" cy="143.0" r="3.4" fill="#2ec26b" opacity="0.85"/>
<circle cx="504.5" cy="142.3" r="3.4" fill="#2ec26b" opacity="0.85"/>
<path d="M504.5 74.3 L510.9 80.7 M504.5 80.7 L510.9 74.3" stroke="#e0556b" stroke-width="1.6"/>
<path d="M454.2 145.5 L460.6 151.9 M454.2 151.9 L460.6 145.5" stroke="#e0556b" stroke-width="1.6"/>
<path d="M488.8 151.1 L495.2 157.5 M488.8 157.5 L495.2 151.1" stroke="#e0556b" stroke-width="1.6"/>
<path d="M505.8 154.7 L512.2 161.1 M505.8 161.1 L512.2 154.7" stroke="#e0556b" stroke-width="1.6"/>
<circle cx="493.6" cy="150.7" r="3.4" fill="#2ec26b" opacity="0.85"/>
<circle cx="500.1" cy="150.7" r="3.4" fill="#2ec26b" opacity="0.85"/>
<circle cx="503.3" cy="152.9" r="3.4" fill="#2ec26b" opacity="0.85"/>
<path d="M492.0 149.7 L498.4 156.1 M492.0 156.1 L498.4 149.7" stroke="#e0556b" stroke-width="1.6"/>
<circle cx="496.8" cy="144.3" r="3.4" fill="#2ec26b" opacity="0.85"/>
<circle cx="508.5" cy="143.0" r="3.4" fill="#2ec26b" opacity="0.85"/>
<path d="M465.6 156.9 L472.0 163.3 M465.6 163.3 L472.0 156.9" stroke="#e0556b" stroke-width="1.6"/>
<circle cx="501.2" cy="158.0" r="3.4" fill="#2ec26b" opacity="0.85"/>
<circle cx="502.8" cy="192.2" r="3.4" fill="#2ec26b" opacity="0.85"/>
<circle cx="449.3" cy="160.1" r="3.4" fill="#2ec26b" opacity="0.85"/>
<path d="M495.6 137.7 L502.0 144.1 M495.6 144.1 L502.0 137.7" stroke="#e0556b" stroke-width="1.6"/>
<circle cx="509.8" cy="140.8" r="3.4" fill="#2ec26b" opacity="0.85"/>
<path d="M505.0 57.8 L511.4 64.2 M505.0 64.2 L511.4 57.8" stroke="#e0556b" stroke-width="1.6"/>
<path d="M491.2 149.7 L497.6 156.1 M491.2 156.1 L497.6 149.7" stroke="#e0556b" stroke-width="1.6"/>
<circle cx="511.5" cy="139.3" r="3.4" fill="#2ec26b" opacity="0.85"/>
<path d="M500.9 139.0 L507.3 145.4 M500.9 145.4 L507.3 139.0" stroke="#e0556b" stroke-width="1.6"/>
<path d="M513.9 136.1 L520.3 142.5 M513.9 142.5 L520.3 136.1" stroke="#e0556b" stroke-width="1.6"/>
<circle cx="505.0" cy="147.2" r="3.4" fill="#2ec26b" opacity="0.85"/>
<circle cx="428.7" cy="127.2" r="3.4" fill="#2ec26b" opacity="0.85"/>
<path d="M470.1 110.5 L476.5 116.9 M470.1 116.9 L476.5 110.5" stroke="#e0556b" stroke-width="1.6"/>
<circle cx="511.5" cy="167.1" r="3.4" fill="#2ec26b" opacity="0.85"/>
<circle cx="505.0" cy="170.7" r="3.4" fill="#2ec26b" opacity="0.85"/>
<path d="M506.1 231.0 L512.5 237.4 M506.1 237.4 L512.5 231.0" stroke="#e0556b" stroke-width="1.6"/>
<path d="M480.2 131.3 L486.6 137.7 M480.2 137.7 L486.6 131.3" stroke="#e0556b" stroke-width="1.6"/>
<path d="M458.3 85.7 L464.7 92.1 M458.3 92.1 L464.7 85.7" stroke="#e0556b" stroke-width="1.6"/>
<circle cx="506.9" cy="167.2" r="3.4" fill="#2ec26b" opacity="0.85"/>
<path d="M485.1 169.0 L491.5 175.4 M485.1 175.4 L491.5 169.0" stroke="#e0556b" stroke-width="1.6"/>
<circle cx="509.3" cy="167.2" r="3.4" fill="#2ec26b" opacity="0.85"/>
<circle cx="495.5" cy="169.4" r="3.4" fill="#2ec26b" opacity="0.85"/>
<path d="M416.1 239.5 L422.5 245.9 M416.1 245.9 L422.5 239.5" stroke="#e0556b" stroke-width="1.6"/>
<path d="M473.4 228.0 L479.8 234.4 M473.4 234.4 L479.8 228.0" stroke="#e0556b" stroke-width="1.6"/>
<path d="M516.4 99.1 L522.8 105.5 M516.4 105.5 L522.8 99.1" stroke="#e0556b" stroke-width="1.6"/>
<path d="M483.9 156.1 L490.3 162.5 M483.9 162.5 L490.3 156.1" stroke="#e0556b" stroke-width="1.6"/>
<path d="M408.5 127.6 L414.9 134.0 M408.5 134.0 L414.9 127.6" stroke="#e0556b" stroke-width="1.6"/>
<circle cx="514.7" cy="136.5" r="3.4" fill="#2ec26b" opacity="0.85"/>
<circle cx="513.1" cy="166.4" r="3.4" fill="#2ec26b" opacity="0.85"/>
<circle cx="493.6" cy="135.1" r="3.4" fill="#2ec26b" opacity="0.85"/>
<circle cx="517.4" cy="170.1" r="3.4" fill="#2ec26b" opacity="0.85"/>
<path d="M405.6 173.3 L412.0 179.7 M405.6 179.7 L412.0 173.3" stroke="#e0556b" stroke-width="1.6"/>
<circle cx="433.1" cy="109.6" r="3.4" fill="#2ec26b" opacity="0.85"/>
<circle cx="519.1" cy="179.4" r="3.4" fill="#2ec26b" opacity="0.85"/>
<circle cx="509.3" cy="146.6" r="3.4" fill="#2ec26b" opacity="0.85"/>
<circle cx="499.6" cy="180.8" r="3.4" fill="#2ec26b" opacity="0.85"/>
<circle cx="498.8" cy="238.4" r="3.4" fill="#2ec26b" opacity="0.85"/>
<circle cx="386.9" cy="200.0" r="3.4" fill="#2ec26b" opacity="0.85"/>
<circle cx="521.3" cy="211.0" r="3.4" fill="#2ec26b" opacity="0.85"/>
<circle cx="517.3" cy="168.2" r="3.4" fill="#2ec26b" opacity="0.85"/>
<circle cx="517.3" cy="159.7" r="3.4" fill="#2ec26b" opacity="0.85"/>
<path d="M445.1 116.6 L451.5 123.0 M445.1 123.0 L451.5 116.6" stroke="#e0556b" stroke-width="1.6"/>
<circle cx="516.5" cy="144.0" r="3.4" fill="#2ec26b" opacity="0.85"/>
<circle cx="452.4" cy="72.1" r="3.4" fill="#2ec26b" opacity="0.85"/>
<circle cx="508.4" cy="222.3" r="3.4" fill="#2ec26b" opacity="0.85"/>
<path d="M430.5 244.1 L436.9 250.5 M430.5 250.5 L436.9 244.1" stroke="#e0556b" stroke-width="1.6"/>
<circle cx="511.6" cy="159.7" r="3.4" fill="#2ec26b" opacity="0.85"/>
<circle cx="514.8" cy="141.2" r="3.4" fill="#2ec26b" opacity="0.85"/>
<path d="M391.6 159.3 L398.0 165.7 M391.6 165.7 L398.0 159.3" stroke="#e0556b" stroke-width="1.6"/>
<circle cx="514.1" cy="164.0" r="3.4" fill="#2ec26b" opacity="0.85"/>
<path d="M468.7 78.9 L475.1 85.3 M468.7 85.3 L475.1 78.9" stroke="#e0556b" stroke-width="1.6"/>
<path d="M426.5 218.4 L432.9 224.8 M426.5 224.8 L432.9 218.4" stroke="#e0556b" stroke-width="1.6"/>
<circle cx="504.5" cy="148.7" r="3.4" fill="#2ec26b" opacity="0.85"/>
<circle cx="507.7" cy="175.8" r="3.4" fill="#2ec26b" opacity="0.85"/>
<circle cx="472.0" cy="76.1" r="3.4" fill="#2ec26b" opacity="0.85"/>
<path d="M417.7 159.8 L424.1 166.2 M417.7 166.2 L424.1 159.8" stroke="#e0556b" stroke-width="1.6"/>
<circle cx="505.3" cy="151.6" r="3.4" fill="#2ec26b" opacity="0.85"/>
<circle cx="501.2" cy="151.6" r="3.4" fill="#2ec26b" opacity="0.85"/>
<circle cx="497.2" cy="237.0" r="3.4" fill="#2ec26b" opacity="0.85"/>
<path d="M485.1 208.9 L491.5 215.3 M485.1 215.3 L491.5 208.9" stroke="#e0556b" stroke-width="1.6"/>
<path d="M506.6 94.9 L513.0 101.3 M506.6 101.3 L513.0 94.9" stroke="#e0556b" stroke-width="1.6"/>
<path d="M503.4 219.4 L509.8 225.8 M503.4 225.8 L509.8 219.4" stroke="#e0556b" stroke-width="1.6"/>
<circle cx="496.8" cy="155.0" r="3.4" fill="#2ec26b" opacity="0.85"/>
<circle cx="511.5" cy="206.2" r="3.4" fill="#2ec26b" opacity="0.85"/>
<circle cx="513.1" cy="161.4" r="3.4" fill="#2ec26b" opacity="0.85"/>
<circle cx="505.8" cy="174.9" r="3.4" fill="#2ec26b" opacity="0.85"/>
<path d="M507.7 224.6 L514.1 231.0 M507.7 231.0 L514.1 224.6" stroke="#e0556b" stroke-width="1.6"/>
<circle cx="450.9" cy="74.7" r="3.4" fill="#2ec26b" opacity="0.85"/>
<circle cx="503.7" cy="131.6" r="3.4" fill="#2ec26b" opacity="0.85"/>
<path d="M462.3 161.2 L468.7 167.6 M462.3 167.6 L468.7 161.2" stroke="#e0556b" stroke-width="1.6"/>
<circle cx="500.4" cy="168.0" r="3.4" fill="#2ec26b" opacity="0.85"/>
<path d="M496.4 178.3 L502.8 184.7 M496.4 184.7 L502.8 178.3" stroke="#e0556b" stroke-width="1.6"/>
<path d="M498.0 166.2 L504.4 172.6 M498.0 172.6 L504.4 166.2" stroke="#e0556b" stroke-width="1.6"/>
<circle cx="490.3" cy="127.9" r="3.4" fill="#2ec26b" opacity="0.85"/>
<circle cx="487.1" cy="168.5" r="3.4" fill="#2ec26b" opacity="0.85"/>
<path d="M519.1 206.0 L525.5 212.4 M519.1 212.4 L525.5 206.0" stroke="#e0556b" stroke-width="1.6"/>
<circle cx="502.8" cy="182.9" r="3.4" fill="#2ec26b" opacity="0.85"/>
<circle cx="458.2" cy="215.6" r="3.4" fill="#2ec26b" opacity="0.85"/>
<circle cx="489.0" cy="177.2" r="3.4" fill="#2ec26b" opacity="0.85"/>
<path d="M501.3 186.1 L507.7 192.5 M501.3 192.5 L507.7 186.1" stroke="#e0556b" stroke-width="1.6"/>
<circle cx="486.6" cy="164.4" r="3.4" fill="#2ec26b" opacity="0.85"/>
<path d="M457.0 117.9 L463.4 124.3 M457.0 124.3 L463.4 117.9" stroke="#e0556b" stroke-width="1.6"/>
<circle cx="504.5" cy="172.9" r="3.4" fill="#2ec26b" opacity="0.85"/>
<circle cx="497.2" cy="189.3" r="3.4" fill="#2ec26b" opacity="0.85"/>
<path d="M421.8 131.3 L428.2 137.7 M421.8 137.7 L428.2 131.3" stroke="#e0556b" stroke-width="1.6"/>
<circle cx="489.9" cy="183.6" r="3.4" fill="#2ec26b" opacity="0.85"/>
<circle cx="495.2" cy="173.5" r="3.4" fill="#2ec26b" opacity="0.85"/>
<circle cx="502.5" cy="215.5" r="3.4" fill="#2ec26b" opacity="0.85"/>
<path d="M459.6 185.2 L466.0 191.6 M459.6 191.6 L466.0 185.2" stroke="#e0556b" stroke-width="1.6"/>
<circle cx="495.2" cy="137.9" r="3.4" fill="#2ec26b" opacity="0.85"/>
<path d="M497.7 124.0 L504.1 130.4 M497.7 130.4 L504.1 124.0" stroke="#e0556b" stroke-width="1.6"/>
<circle cx="497.7" cy="127.9" r="3.4" fill="#2ec26b" opacity="0.85"/>
<circle cx="415.7" cy="156.4" r="3.4" fill="#2ec26b" opacity="0.85"/>
<circle cx="482.2" cy="132.2" r="3.4" fill="#2ec26b" opacity="0.85"/>
<circle cx="508.8" cy="154.0" r="3.4" fill="#2ec26b" opacity="0.85"/>
<circle cx="507.7" cy="151.6" r="3.4" fill="#2ec26b" opacity="0.85"/>
<path d="M475.3 215.3 L481.7 221.7 M475.3 221.7 L481.7 215.3" stroke="#e0556b" stroke-width="1.6"/>
<circle cx="510.9" cy="156.6" r="3.4" fill="#2ec26b" opacity="0.85"/>
<path d="M504.5 154.1 L510.9 160.5 M504.5 160.5 L510.9 154.1" stroke="#e0556b" stroke-width="1.6"/>
<circle cx="507.7" cy="145.9" r="3.4" fill="#2ec26b" opacity="0.85"/>
<circle cx="519.9" cy="142.3" r="3.4" fill="#2ec26b" opacity="0.85"/>
<circle cx="515.5" cy="153.6" r="3.4" fill="#2ec26b" opacity="0.85"/>
<circle cx="514.7" cy="162.1" r="3.4" fill="#2ec26b" opacity="0.85"/>
<path d="M474.2 238.6 L480.6 245.0 M474.2 245.0 L480.6 238.6" stroke="#e0556b" stroke-width="1.6"/>
<circle cx="514.7" cy="151.4" r="3.4" fill="#2ec26b" opacity="0.85"/>
<path d="M367.9 153.2 L374.3 159.6 M367.9 159.6 L374.3 153.2" stroke="#e0556b" stroke-width="1.6"/>
<circle cx="509.0" cy="157.9" r="3.4" fill="#2ec26b" opacity="0.85"/>
<path d="M506.6 170.3 L513.0 176.7 M506.6 176.7 L513.0 170.3" stroke="#e0556b" stroke-width="1.6"/>
<path d="M508.3 96.3 L514.7 102.7 M508.3 102.7 L514.7 96.3" stroke="#e0556b" stroke-width="1.6"/>
<path d="M427.4 209.6 L433.8 216.0 M427.4 216.0 L433.8 209.6" stroke="#e0556b" stroke-width="1.6"/>
<circle cx="504.5" cy="150.1" r="3.4" fill="#2ec26b" opacity="0.85"/>
<circle cx="507.7" cy="140.9" r="3.4" fill="#2ec26b" opacity="0.85"/>
<path d="M514.2 162.6 L520.6 169.0 M514.2 169.0 L520.6 162.6" stroke="#e0556b" stroke-width="1.6"/>
<path d="M423.4 139.8 L429.8 146.2 M423.4 146.2 L429.8 139.8" stroke="#e0556b" stroke-width="1.6"/>
<circle cx="437.1" cy="120.3" r="3.4" fill="#2ec26b" opacity="0.85"/>
<circle cx="502.0" cy="231.3" r="3.4" fill="#2ec26b" opacity="0.85"/>
<path d="M412.1 147.7 L418.5 154.1 M412.1 154.1 L418.5 147.7" stroke="#e0556b" stroke-width="1.6"/>
<circle cx="511.8" cy="148.7" r="3.4" fill="#2ec26b" opacity="0.85"/>
<path d="M510.7 175.3 L517.1 181.7 M510.7 181.7 L517.1 175.3" stroke="#e0556b" stroke-width="1.6"/>
<circle cx="517.1" cy="155.7" r="3.4" fill="#2ec26b" opacity="0.85"/>
<circle cx="521.2" cy="162.1" r="3.4" fill="#2ec26b" opacity="0.85"/>
<circle cx="509.8" cy="155.7" r="3.4" fill="#2ec26b" opacity="0.85"/>
<path d="M467.7 72.1 L474.1 78.5 M467.7 78.5 L474.1 72.1" stroke="#e0556b" stroke-width="1.6"/>
<path d="M462.2 98.8 L468.6 105.2 M462.2 105.2 L468.6 98.8" stroke="#e0556b" stroke-width="1.6"/>
<path d="M516.5 164.3 L522.9 170.7 M516.5 170.7 L522.9 164.3" stroke="#e0556b" stroke-width="1.6"/>
<circle cx="519.7" cy="166.1" r="3.4" fill="#2ec26b" opacity="0.85"/>
<path d="M501.1 151.5 L507.5 157.9 M501.1 157.9 L507.5 151.5" stroke="#e0556b" stroke-width="1.6"/>
<path d="M505.2 139.4 L511.6 145.8 M505.2 145.8 L511.6 139.4" stroke="#e0556b" stroke-width="1.6"/>
<circle cx="514.8" cy="157.6" r="3.4" fill="#2ec26b" opacity="0.85"/>
<path d="M466.2 233.4 L472.6 239.8 M466.2 239.8 L472.6 233.4" stroke="#e0556b" stroke-width="1.6"/>
<path d="M493.0 166.4 L499.4 172.8 M493.0 172.8 L499.4 166.4" stroke="#e0556b" stroke-width="1.6"/>
<circle cx="507.6" cy="124.8" r="3.4" fill="#2ec26b" opacity="0.85"/>
</svg>