<svg xmlns="http://www.w3.org/2000/svg" width="560" height="300" font-family="sans-serif">
<rect x="0" y="0" width="560" height="300" fill="#1b1b1b"/>
<text x="20" y="16" fill="#ddd" font-size="13">R. Abell (MAL) — 196 tiros, Clasificatorio</text>
<rect x="20" y="28" width="520" height="252" fill="none" stroke="#555"/>
<circle cx="510.6" cy="162.8" r="3.4" fill="#2ec26b" opacity="0.85"/>
<circle cx="444.1" cy="66.7" r="3.4" fill="#2ec26b" opacity="0.85"/>
<circle cx="509.0" cy="149.3" r="3.4" fill="#2ec26b" opacity="0.85"/>
<circle cx="509.8" cy="147.9" r="3.4" fill="#2ec26b" opacity="0.85"/>
<path d="M474.2 33.6 L480.6 40.0 M474.2 40.0 L480.6 33.6" stroke="#e0556b" stroke-width="1.6"/>
<path d="M365.0 107.8 L371.4 114.2 M365.0 114.2 L371.4 107.8" stroke="#e0556b" stroke-width="1.6"/>
<path d="M441.2 260.1 L447.6 266.5 M441.2 266.5 L447.6 260.1" stroke="#e0556b" stroke-width="1.6"/>
<path d="M505.3 69.4 L511.7 75.8 M505.3 75.8 L511.7 69.4" stroke="#e0556b" stroke-width="1.6"/>
<path d="M488.3 266.5 L494.7 272.9 M488.3 272.9 L494.7 266.5" stroke="#e0556b" stroke-width="1.6"/>
<path d="M427.4 56.6 L433.8 63.0 M427.4 63.0 L433.8 56.6" stroke="#e0556b" stroke-width="1.6"/>
<path d="M501.3 168.3 L507.7 174.7 M501.3 174.7 L507.7 168.3" stroke="#e0556b" stroke-width="1.6"/>
<path d="M367.1 122.6 L373.5 129.0 M367.1 129.0 L373.5 122.6" stroke="#e0556b" stroke-width="1.6"/>
<circle cx="504.1" cy="118.7" r="3.4" fill="#2ec26b" opacity="0.85"/>
<circle cx="381.7" cy="199.1" r="3.4" fill="#2ec26b" opacity="0.85"/>
<circle cx="495.2" cy="142.9" r="3.4" fill="#2ec26b" opacity="0.85"/>
<path d="M387.4 92.7 L393.8 99.1 M387.4 99.1 L393.8 92.7" stroke="#e0556b" stroke-width="1.6"/>
<circle cx="489.6" cy="134.3" r="3.4" fill="#2ec26b" opacity="0.85"/>
<circle cx="498.5" cy="250.4" r="3.4" fill="#2ec26b" opacity="0.85"/>
<circle cx="389.3" cy="99.6" r="3.4" fill="#2ec26b" opacity="0.85"/>
<circle cx="485.0" cy="156.6" r="3.4" fill="#2ec26b" opacity="0.85"/>
<path d="M504.5 165.5 L510.9 171.9 M504.5 171.9 L510.9 165.5" stroke="#e0556b" stroke-width="1.6"/>
<circle cx="397.4" cy="219.2" r="3.4" fill="#2ec26b" opacity="0.85"/>
<circle cx="501.2" cy="143.0" r="3.4" fill="#2ec26b" opacity="0.85"/>
<circle cx="368.2" cy="168.7" r="3.4" fill="#2ec26b" opacity="0.85"/>
<circle cx="500.9" cy="150.7" r="3.4" fill="#2ec26b" opacity="0.85"/>
<path d="M466.9 36.5 L473.3 42.9 M466.9 42.9 L473.3 36.5" stroke="#e0556b" stroke-width="1.6"/>
<path d="M483.9 158.9 L490.3 165.3 M483.9 165.3 L490.3 158.9" stroke="#e0556b" stroke-width="1.6"/>
<path d="M492.0 107.7 L498.4 114.1 M492.0 114.1 L498.4 107.7" stroke="#e0556b" stroke-width="1.6"/>
<path d="M435.2 94.9 L441.6 101.3 M435.2 101.3 L441.6 94.9" stroke="#e0556b" stroke-width="1.6"/>
<path d="M374.7 166.9 L381.1 173.3 M374.7 173.3 L381.1 166.9" stroke="#e0556b" stroke-width="1.6"/>
<circle cx="504.5" cy="168.0" r="3.4" fill="#2ec26b" opacity="0.85"/>
<circle cx="512.6" cy="146.6" r="3.4" fill="#2ec26b" opacity="0.85"/>
<path d="M442.1 255.9 L448.5 262.3 M442.1 262.3 L448.5 255.9" stroke="#e0556b" stroke-width="1.6"/>
<circle cx="433.1" cy="235.6" r="3.4" fill="#2ec26b" opacity="0.85"/>
<path d="M375.5 114.2 L381.9 120.6 M375.5 120.6 L381.9 114.2" stroke="#e0556b" stroke-width="1.6"/>
<circle cx="510.9" cy="168.7" r="3.4" fill="#2ec26b" opacity="0.85"/>
<path d="M505.6 150.8 L512.0 157.2 M505.6 157.2 L512.0 150.8" stroke="#e0556b" stroke-width="1.6"/>
<circle cx="507.7" cy="165.1" r="3.4" fill="#2ec26b" opacity="0.85"/>
<path d="M403.1 228.1 L409.5 234.5 M403.1 234.5 L409.5 228.1" stroke="#e0556b" stroke-width="1.6"/>
<circle cx="507.7" cy="145.9" r="3.4" fill="#2ec26b" opacity="0.85"/>
<path d="M370.7 151.9 L377.1 158.3 M370.7 158.3 L377.1 151.9" stroke="#e0556b" stroke-width="1.6"/>
<path d="M487.1 47.9 L493.5 54.3 M487.1 54.3 L493.5 47.9" stroke="#e0556b" stroke-width="1.6"/>
<path d="M509.0 164.6 L515.4 171.0 M509.0 171.0 L515.4 164.6" stroke="#e0556b" stroke-width="1.6"/>
<path d="M509.0 32.2 L515.4 38.6 M509.0 38.6 L515.4 32.2" stroke="#e0556b" stroke-width="1.6"/>
<circle cx="509.8" cy="159.3" r="3.4" fill="#2ec26b" opacity="0.85"/>
<path d="M371.1 150.4 L377.5 156.8 M371.1 156.8 L377.5 150.4" stroke="#e0556b" stroke-width="1.6"/>
<path d="M496.1 156.8 L502.5 163.2 M496.1 163.2 L502.5 156.8" stroke="#e0556b" stroke-width="1.6"/>
<circle cx="492.8" cy="36.8" r="3.4" fill="#2ec26b" opacity="0.85"/>
<circle cx="418.9" cy="241.1" r="3.4" fill="#2ec26b" opacity="0.85"/>
<circle cx="505.0" cy="145.0" r="3.4" fill="#2ec26b" opacity="0.85"/>
<path d="M373.6 170.3 L380.0 176.7 M373.6 176.7 L380.0 170.3" stroke="#e0556b" stroke-width="1.6"/>
<path d="M370.7 154.1 L377.1 160.5 M370.7 160.5 L377.1 154.1" stroke="#e0556b" stroke-width="1.6"/>
<circle cx="503.7" cy="143.0" r="3.4" fill="#2ec26b" opacity="0.85"/>
<circle cx="429.8" cy="109.6" r="3.4" fill="#2ec26b" opacity="0.85"/>
<path d="M420.9 245.2 L427.3 251.6 M420.9 251.6 L427.3 245.2" stroke="#e0556b" stroke-width="1.6"/>
<circle cx="492.3" cy="115.3" r="3.4" fill="#2ec26b" opacity="0.85"/>
<circle cx="506.1" cy="143.0" r="3.4" fill="#2ec26b" opacity="0.85"/>
<path d="M396.6 85.0 L403.0 91.4 M396.6 91.4 L403.0 85.0" stroke="#e0556b" stroke-width="1.6"/>
<path d="M501.3 139.8 L507.7 146.2 M501.3 146.2 L507.7 139.8" stroke="#e0556b" stroke-width="1.6"/>
<path d="M376.8 194.5 L383.2 200.9 M376.8 200.9 L383.2 194.5" stroke="#e0556b" stroke-width="1.6"/>
<path d="M390.6 218.7 L397.0 225.1 M390.6 225.1 L397.0 218.7" stroke="#e0556b" stroke-width="1.6"/>
<path d="M479.3 270.8 L485.7 277.2 M479.3 277.2 L485.7 270.8" stroke="#e0556b" stroke-width="1.6"/>
<circle cx="518.3" cy="180.8" r="3.4" fill="#2ec26b" opacity="0.85"/>
<circle cx="446.0" cy="205.7" r="3.4" fill="#2ec26b" opacity="0.85"/>
<circle cx="398.2" cy="106.0" r="3.4" fill="#2ec26b" opacity="0.85"/>
<circle cx="508.5" cy="174.4" r="3.4" fill="#2ec26b" opacity="0.85"/>
<path d="M457.4 236.0 L463.8 242.4 M457.4 242.4 L463.8 236.0" stroke="#e0556b" stroke-width="1.6"/>
<path d="M370.7 134.1 L377.1 140.5 M370.7 140.5 L377.1 134.1" stroke="#e0556b" stroke-width="1.6"/>
<circle cx="514.2" cy="135.2" r="3.4" fill="#2ec26b" opacity="0.85"/>
<circle cx="370.6" cy="123.1" r="3.4" fill="#2ec26b" opacity="0.85"/>
<path d="M382.0 219.6 L388.4 226.0 M382.0 226.0 L388.4 219.6" stroke="#e0556b" stroke-width="1.6"/>
<path d="M363.4 87.2 L369.8 93.6 M363.4 93.6 L369.8 87.2" stroke="#e0556b" stroke-width="1.6"/>
<path d="M502.9 151.9 L509.3 158.3 M502.9 158.3 L509.3 151.9" stroke="#e0556b" stroke-width="1.6"/>
<path d="M362.5 160.5 L368.9 166.9 M362.5 166.9 L368.9 160.5" stroke="#e0556b" stroke-width="1.6"/>
<circle cx="502.8" cy="140.2" r="3.4" fill="#2ec26b" opacity="0.85"/>
<circle cx="377.9" cy="91.8" r="3.4" fill="#2ec26b" opacity="0.85"/>
<path d="M363.4 175.4 L369.8 181.8 M363.4 181.8 L369.8 175.4" stroke="#e0556b" stroke-width="1.6"/>
<path d="M484.7 31.5 L491.1 37.9 M484.7 37.9 L491.1 31.5" stroke="#e0556b" stroke-width="1.6"/>
<circle cx="424.7" cy="55.3" r="3.4" fill="#2ec26b" opacity="0.85"/>
<path d="M397.9 240.1 L404.3 246.5 M397.9 246.5 L404.3 240.1" stroke="#e0556b" stroke-width="1.6"/>
<circle cx="386.5" cy="81.7" r="3.4" fill="#2ec26b" opacity="0.85"/>
<circle cx="363.8" cy="159.3" r="3.4" fill="#2ec26b" opacity="0.85"/>
<path d="M396.3 59.2 L402.7 65.6 M396.3 65.6 L402.7 59.2" stroke="#e0556b" stroke-width="1.6"/>
<circle cx="396.3" cy="77.4" r="3.4" fill="#2ec26b" opacity="0.85"/>
<circle cx="499.3" cy="159.3" r="3.4" fill="#2ec26b" opacity="0.85"/>
<circle cx="384.9" cy="88.1" r="3.4" fill="#2ec26b" opacity="0.85"/>
<path d="M477.6 83.9 L484.0 90.3 M477.6 90.3 L484.0 83.9" stroke="#e0556b" stroke-width="1.6"/>
<path d="M407.0 61.1 L413.4 67.5 M407.0 67.5 L413.4 61.1" stroke="#e0556b" stroke-width="1.6"/>
<path d="M409.5 239.8 L415.9 246.2 M409.5 246.2 L415.9 239.8" stroke="#e0556b" stroke-width="1.6"/>
<path d="M416.7 45.4 L423.1 51.8 M416.7 51.8 L423.1 45.4" stroke="#e0556b" stroke-width="1.6"/>
<circle cx="446.7" cy="43.6" r="3.4" fill="#2ec26b" opacity="0.85"/>
<circle cx="497.8" cy="134.1" r="3.4" fill="#2ec26b" opacity="0.85"/>
<path d="M379.4 91.0 L385.8 97.4 M379.4 97.4 L385.8 91.0" stroke="#e0556b" stroke-width="1.6"/>
<path d="M389.2 219.8 L395.6 226.2 M389.2 226.2 L395.6 219.8" stroke="#e0556b" stroke-width="1.6"/>
<path d="M400.5 56.1 L406.9 62.5 M400.5 62.5 L406.9 56.1" stroke="#e0556b" stroke-width="1.6"/>
<path d="M437.2 43.0 L443.6 49.4 M437.2 49.4 L443.6 43.0" stroke="#e0556b" stroke-width="1.6"/>
<path d="M442.1 155.5 L448.5 161.9 M442.1 161.9 L448.5 155.5" stroke="#e0556b" stroke-width="1.6"/>
<path d="M374.7 143.4 L381.1 149.8 M374.7 149.8 L381.1 143.4" stroke="#e0556b" stroke-width="1.6"/>
<circle cx="510.9" cy="145.2" r="3.4" fill="#2ec26b" opacity="0.85"/>
<path d="M515.1 168.3 L521.5 174.7 M515.1 174.7 L521.5 168.3" stroke="#e0556b" stroke-width="1.6"/>
<path d="M399.1 229.5 L405.5 235.9 M399.1 235.9 L405.5 229.5" stroke="#e0556b" stroke-width="1.6"/>
<circle cx="515.5" cy="162.1" r="3.4" fill="#2ec26b" opacity="0.85"/>
<circle cx="446.6" cy="256.8" r="3.4" fill="#2ec26b" opacity="0.85"/>
<circle cx="416.6" cy="237.6" r="3.4" fill="#2ec26b" opacity="0.85"/>
<circle cx="430.3" cy="57.5" r="3.4" fill="#2ec26b" opacity="0.85"/>
<path d="M402.0 57.8 L408.4 64.2 M402.0 64.2 L408.4 57.8" stroke="#e0556b" stroke-width="1.6"/>
<path d="M496.9 190.2 L503.3 196.6 M496.9 196.6 L503.3 190.2" stroke="#e0556b" stroke-width="1.6"/>
<circle cx="396.3" cy="214.8" r="3.4" fill="#2ec26b" opacity="0.85"/>
<circle cx="504.1" cy="145.7" r="3.4" fill="#2ec26b" opacity="0.85"/>
<circle cx="454.7" cy="212.7" r="3.4" fill="#2ec26b" opacity="0.85"/>
<path d="M403.6 247.9 L410.0 254.3 M403.6 254.3 L410.0 247.9" stroke="#e0556b" stroke-width="1.6"/>
<path d="M512.3 33.6 L518.7 40.0 M512.3 40.0 L518.7 33.6" stroke="#e0556b" stroke-width="1.6"/>
<circle cx="355.7" cy="157.9" r="3.4" fill="#2ec26b" opacity="0.85"/>
<path d="M471.2 235.2 L477.6 241.6 M471.2 241.6 L477.6 235.2" stroke="#e0556b" stroke-width="1.6"/>
<circle cx="515.8" cy="130.9" r="3.4" fill="#2ec26b" opacity="0.85"/>
<circle cx="488.3" cy="151.6" r="3.4" fill="#2ec26b" opacity="0.85"/>
<path d="M494.8 150.5 L501.2 156.9 M494.8 156.9 L501.2 150.5" stroke="#e0556b" stroke-width="1.6"/>
<path d="M432.9 51.2 L439.3 57.6 M432.9 57.6 L439.3 51.2" stroke="#e0556b" stroke-width="1.6"/>
<path d="M384.1 82.7 L390.5 89.1 M384.1 89.1 L390.5 82.7" stroke="#e0556b" stroke-width="1.6"/>
<circle cx="511.5" cy="142.2" r="3.4" fill="#2ec26b" opacity="0.85"/>
<path d="M506.6 139.0 L513.0 145.4 M506.6 145.4 L513.0 139.0" stroke="#e0556b" stroke-width="1.6"/>
<path d="M506.1 265.1 L512.5 271.5 M506.1 271.5 L512.5 265.1" stroke="#e0556b" stroke-width="1.6"/>
<circle cx="422.5" cy="242.7" r="3.4" fill="#2ec26b" opacity="0.85"/>
<path d="M375.5 176.9 L381.9 183.3 M375.5 183.3 L381.9 176.9" stroke="#e0556b" stroke-width="1.6"/>
<circle cx="416.0" cy="142.3" r="3.4" fill="#2ec26b" opacity="0.85"/>
<circle cx="511.8" cy="143.0" r="3.4" fill="#2ec26b" opacity="0.85"/>
<path d="M506.1 166.9 L512.5 173.3 M506.1 173.3 L512.5 166.9" stroke="#e0556b" stroke-width="1.6"/>
<path d="M449.3 191.8 L455.7 198.2 M449.3 198.2 L455.7 191.8" stroke="#e0556b" stroke-width="1.6"/>
<path d="M411.2 211.7 L417.6 218.1 M411.2 218.1 L417.6 211.7" stroke="#e0556b" stroke-width="1.6"/>
<path d="M363.4 139.8 L369.8 146.2 M363.4 146.2 L369.8 139.8" stroke="#e0556b" stroke-width="1.6"/>
<path d="M394.2 221.0 L400.6 227.4 M394.2 227.4 L400.6 221.0" stroke="#e0556b" stroke-width="1.6"/>
<path d="M373.1 129.2 L379.5 135.6 M373.1 135.6 L379.5 129.2" stroke="#e0556b" stroke-width="1.6"/>
<circle cx="433.1" cy="252.7" r="3.4" fill="#2ec26b" opacity="0.85"/>
<path d="M400.7 161.9 L407.1 168.3 M400.7 168.3 L407.1 161.9" stroke="#e0556b" stroke-width="1.6"/>
<circle cx="380.4" cy="99.6" r="3.4" fill="#2ec26b" opacity="0.85"/>
<circle cx="512.6" cy="129.5" r="3.4" fill="#2ec26b" opacity="0.85"/>
<path d="M472.9 32.3 L479.3 38.7 M472.9 38.7 L479.3 32.3" stroke="#e0556b" stroke-width="1.6"/>
<path d="M511.0 166.9 L517.4 173.3 M511.0 173.3 L517.4 166.9" stroke="#e0556b" stroke-width="1.6"/>
<circle cx="426.6" cy="209.9" r="3.4" fill="#2ec26b" opacity="0.85"/>
<path d="M408.8 176.9 L415.2 183.3 M408.8 183.3 L415.2 176.9" stroke="#e0556b" stroke-width="1.6"/>
<path d="M330.1 149.8 L336.5 156.2 M330.1 156.2 L336.5 149.8" stroke="#e0556b" stroke-width="1.6"/>
<path d="M503.4 173.2 L509.8 179.6 M503.4 179.6 L509.8 173.2" stroke="#e0556b" stroke-width="1.6"/>
<path d="M421.5 241.5 L427.9 247.9 M421.5 247.9 L427.9 241.5" stroke="#e0556b" stroke-width="1.6"/>
<path d="M506.6 126.9 L513.0 133.3 M506.6 133.3 L513.0 126.9" stroke="#e0556b" stroke-width="1.6"/>
<path d="M379.2 193.1 L385.6 199.5 M379.2 199.5 L385.6 193.1" stroke="#e0556b" stroke-width="1.6"/>
<path d="M370.3 144.7 L376.7 151.1 M370.3 151.1 L376.7 144.7" stroke="#e0556b" stroke-width="1.6"/>
<path d="M498.5 188.1 L504.9 194.5 M498.5 194.5 L504.9 188.1" stroke="#e0556b" stroke-width="1.6"/>
<path d="M412.5 237.9 L418.9 244.3 M412.5 244.3 L418.9 237.9" stroke="#e0556b" stroke-width="1.6"/>
<circle cx="466.0" cy="269.6" r="3.4" fill="#2ec26b" opacity="0.85"/>
<path d="M440.1 89.2 L446.5 95.6 M440.1 95.6 L446.5 89.2" stroke="#e0556b" stroke-width="1.6"/>
<path d="M388.5 208.2 L394.9 214.6 M388.5 214.6 L394.9 208.2" stroke="#e0556b" stroke-width="1.6"/>
<path d="M523.2 270.8 L529.6 277.2 M523.2 277.2 L529.6 270.8" stroke="#e0556b" stroke-width="1.6"/>
<path d="M485.1 124.9 L491.5 131.3 M485.1 131.3 L491.5 124.9" stroke="#e0556b" stroke-width="1.6"/>
<path d="M468.8 85.0 L475.2 91.4 M468.8 91.4 L475.2 85.0" stroke="#e0556b" stroke-width="1.6"/>
<circle cx="496.4" cy="168.7" r="3.4" fill="#2ec26b" opacity="0.85"/>
<path d="M425.8 248.8 L432.2 255.2 M425.8 255.2 L432.2 248.8" stroke="#e0556b" stroke-width="1.6"/>
<path d="M395.5 215.2 L401.9 221.6 M395.5 221.6 L401.9 215.2" stroke="#e0556b" stroke-width="1.6"/>
<circle cx="500.1" cy="127.9" r="3.4" fill="#2ec26b" opacity="0.85"/>
<circle cx="444.9" cy="42.5" r="3.4" fill="#2ec26b" opacity="0.85"/>
<circle cx="507.4" cy="126.5" r="3.4" fill="#2ec26b" opacity="0.85"/>
<path d="M502.6 117.6 L509.0 124.0 M502.6 124.0 L509.0 117.6" stroke="#e0556b" stroke-width="1.6"/>
<path d="M406.0 60.0 L412.4 66.4 M406.0 66.4 L412.4 60.0" stroke="#e0556b" stroke-width="1.6"/>
<path d="M449.0 264.3 L455.4 270.7 M449.0 270.7 L455.4 264.3" stroke="#e0556b" stroke-width="1.6"/>
<circle cx="499.3" cy="152.9" r="3.4" fill="#2ec26b" opacity="0.85"/>
<circle cx="401.1" cy="157.1" r="3.4" fill="#2ec26b" opacity="0.85"/>
<circle cx="513.1" cy="165.0" r="3.4" fill="#2ec26b" opacity="0.85"/>
<circle cx="504.1" cy="215.5" r="3.4" fill="#2ec26b" opacity="0.85"/>
<path d="M363.8 150.4 L370.2 156.8 M363.8 156.8 L370.2 150.4" stroke="#e0556b" stroke-width="1.6"/>
<path d="M480.6 163.9 L487.0 170.3 M480.6 170.3 L487.0 163.9" stroke="#e0556b" stroke-width="1.6"/>
<circle cx="447.7" cy="40.5" r="3.4" fill="#2ec26b" opacity="0.85"/>
<path d="M416.9 57.3 L423.3 63.7 M416.9 63.7 L423.3 57.3" stroke="#e0556b" stroke-width="1.6"/>
<path d="M508.6 270.8 L515.0 277.2 M508.6 277.2 L515.0 270.8" stroke="#e0556b" stroke-width="1.6"/>
<path d="M505.3 140.5 L511.7 146.9 M505.3 146.9 L511.7 140.5" stroke="#e0556b" stroke-width="1.6"/>
<path d="M509.4 163.3 L515.8 169.7 M509.4 169.7 L515.8 163.3" stroke="#e0556b" stroke-width="1.6"/>
<circle cx="517.4" cy="160.8" r="3.4" fill="#2ec26b" opacity="0.85"/>
<circle cx="509.3" cy="141.6" r="3.4" fill="#2ec26b" opacity="0.85"/>
<path d="M390.9 214.6 L397.3 221.0 M390.9 221.0 L397.3 214.6" stroke="#e0556b" stroke-width="1.6"/>
<circle cx="514.2" cy="52.6" r="3.4" fill="#2ec26b" opacity="0.85"/>
<circle cx="448.5" cy="91.8" r="3.4" fill="#2ec26b" opacity="0.85"/>
<path d="M390.9 238.1 L397.3 244.5 M390.9 244.5 L397.3 238.1" stroke="#e0556b" stroke-width="1.6"/>
<path d="M375.5 94.3 L381.9 100.7 M375.5 100.7 L381.9 94.3" stroke="#e0556b" stroke-width="1.6"/>
<path d="M358.5 149.1 L364.9 155.5 M358.5 155.5 L364.9 149.1" stroke="#e0556b" stroke-width="1.6"/>
<path d="M387.7 69.4 L394.1 75.8 M387.7 75.8 L394.1 69.4" stroke="#e0556b" stroke-width="1.6"/>
<circle cx="507.7" cy="151.6" r="3.4" fill="#2ec26b" opacity="0.85"/>
<circle cx="506.9" cy="154.4" r="3.4" fill="#2ec26b" opacity="0.85"/>
<circle cx="500.4" cy="152.3" r="3.4" fill="#2ec26b" opacity="0.85"/>
<path d="M491.2 271.4 L497.6 277.8 M491.2 277.8 L497.6 271.4" stroke="#e0556b" stroke-width="1.6"/>
<path d="M500.1 152.5 L506.5 158.9 M500.1 158.9 L506.5 152.5" stroke="#e0556b" stroke-width="1.6"/>
<path d="M367.1 136.1 L373.5 142.5 M367.1 142.5 L373.5 136.1" stroke="#e0556b" stroke-width="1.6"/>
<circle cx="427.9" cy="54.6" r="3.4" fill="#2ec26b" opacity="0.85"/>
<circle cx="509.8" cy="151.4" r="3.4" fill="#2ec26b" opacity="0.85"/>
<path d="M494.5 33.6 L500.9 40.0 M494.5 40.0 L500.9 33.6" stroke="#e0556b" stroke-width="1.6"/>
<path d="M365.5 161.8 L371.9 168.2 M365.5 168.2 L371.9 161.8" stroke="#e0556b" stroke-width="1.6"/>
<circle cx="498.5" cy="157.1" r="3.4" fill="#2ec26b" opacity="0.85"/>
<circle cx="490.3" cy="273.9" r="3.4" fill="#2ec26b" opacity="0.85"/>
<path d="M437.7 47.2 L444.1 53.6 M437.7 53.6 L444.1 47.2" stroke="#e0556b" stroke-width="1.6"/>
</svg>