<svg xmlns="http://www.w3.org/2000/svg" width="560" height="300" font-family="sans-serif">
<rect x="0" y="0" width="560" height="300" fill="#1b1b1b"/>
<text x="20" y="16" fill="#ddd" font-size="13">R. Hassan (WEL) — 193 tiros, Clasificatorio</text>
<rect x="20" y="28" width="520" height="252" fill="none" stroke="#555"/>
<path d="M364.7 163.9 L371.1 170.3 M364.7 170.3 L371.1 163.9" stroke="#e0556b" stroke-width="1.6"/>
<path d="M399.5 226.6 L405.9 233.0 M399.5 233.0 L405.9 226.6" stroke="#e0556b" stroke-width="1.6"/>
<circle cx="481.4" cy="81.7" r="3.4" fill="#2ec26b" opacity="0.85"/>
<circle cx="444.9" cy="118.0" r="3.4" fill="#2ec26b" opacity="0.85"/>
<path d="M410.1 201.6 L416.5 208.0 M410.1 208.0 L416.5 201.6" stroke="#e0556b" stroke-width="1.6"/>
<circle cx="509.0" cy="189.2" r="3.4" fill="#2ec26b" opacity="0.85"/>
<circle cx="483.1" cy="156.4" r="3.4" fill="#2ec26b" opacity="0.85"/>
<circle cx="508.5" cy="185.8" r="3.4" fill="#2ec26b" opacity="0.85"/>
<path d="M482.6 75.8 L489.0 82.2 M482.6 82.2 L489.0 75.8" stroke="#e0556b" stroke-width="1.6"/>
<circle cx="508.8" cy="154.0" r="3.4" fill="#2ec26b" opacity="0.85"/>
<circle cx="494.7" cy="148.7" r="3.4" fill="#2ec26b" opacity="0.85"/>
<circle cx="491.5" cy="163.0" r="3.4" fill="#2ec26b" opacity="0.85"/>
<path d="M416.1 250.2 L422.5 256.6 M416.1 256.6 L422.5 250.2" stroke="#e0556b" stroke-width="1.6"/>
<path d="M435.2 157.5 L441.6 163.9 M435.2 163.9 L441.6 157.5" stroke="#e0556b" stroke-width="1.6"/>
<path d="M490.4 134.7 L496.8 141.1 M490.4 141.1 L496.8 134.7" stroke="#e0556b" stroke-width="1.6"/>
<circle cx="508.8" cy="154.0" r="3.4" fill="#2ec26b" opacity="0.85"/>
<path d="M487.1 172.4 L493.5 178.8 M487.1 178.8 L493.5 172.4" stroke="#e0556b" stroke-width="1.6"/>
<path d="M513.1 201.6 L519.5 208.0 M513.1 208.0 L519.5 201.6" stroke="#e0556b" stroke-width="1.6"/>
<path d="M488.8 89.2 L495.2 95.6 M488.8 95.6 L495.2 89.2" stroke="#e0556b" stroke-width="1.6"/>
<path d="M430.4 248.6 L436.8 255.0 M430.4 255.0 L436.8 248.6" stroke="#e0556b" stroke-width="1.6"/>
<circle cx="508.8" cy="154.0" r="3.4" fill="#2ec26b" opacity="0.85"/>
<circle cx="515.8" cy="187.9" r="3.4" fill="#2ec26b" opacity="0.85"/>
<path d="M413.7 137.0 L420.1 143.4 M413.7 143.4 L420.1 137.0" stroke="#e0556b" stroke-width="1.6"/>
<circle cx="517.4" cy="177.2" r="3.4" fill="#2ec26b" opacity="0.85"/>
<circle cx="504.5" cy="180.1" r="3.4" fill="#2ec26b" opacity="0.85"/>
<circle cx="506.9" cy="205.7" r="3.4" fill="#2ec26b" opacity="0.85"/>
<circle cx="514.2" cy="81.1" r="3.4" fill="#2ec26b" opacity="0.85"/>
<circle cx="475.3" cy="126.0" r="3.4" fill="#2ec26b" opacity="0.85"/>
<circle cx="521.5" cy="188.6" r="3.4" fill="#2ec26b" opacity="0.85"/>
<path d="M498.0 174.0 L504.4 180.4 M498.0 180.4 L504.4 174.0" stroke="#e0556b" stroke-width="1.6"/>
<path d="M415.0 164.6 L421.4 171.0 M415.0 171.0 L421.4 164.6" stroke="#e0556b" stroke-width="1.6"/>
<path d="M515.5 171.7 L521.9 178.1 M515.5 178.1 L521.9 171.7" stroke="#e0556b" stroke-width="1.6"/>
<path d="M505.6 150.8 L512.0 157.2 M505.6 157.2 L512.0 150.8" stroke="#e0556b" stroke-width="1.6"/>
<circle cx="516.3" cy="173.5" r="3.4" fill="#2ec26b" opacity="0.85"/>
<path d="M372.8 165.3 L379.2 171.7 M372.8 171.7 L379.2 165.3" stroke="#e0556b" stroke-width="1.6"/>
<path d="M483.9 189.5 L490.3 195.9 M483.9 195.9 L490.3 189.5" stroke="#e0556b" stroke-width="1.6"/>
<circle cx="495.2" cy="140.0" r="3.4" fill="#2ec26b" opacity="0.85"/>
<circle cx="480.6" cy="142.9" r="3.4" fill="#2ec26b" opacity="0.85"/>
<path d="M404.4 149.0 L410.8 155.4 M404.4 155.4 L410.8 149.0" stroke="#e0556b" stroke-width="1.6"/>
<path d="M499.3 171.7 L505.7 178.1 M499.3 178.1 L505.7 171.7" stroke="#e0556b" stroke-width="1.6"/>
<path d="M447.4 182.4 L453.8 188.8 M447.4 188.8 L453.8 182.4" stroke="#e0556b" stroke-width="1.6"/>
<circle cx="482.2" cy="145.7" r="3.4" fill="#2ec26b" opacity="0.85"/>
<path d="M367.1 168.2 L373.5 174.6 M367.1 174.6 L373.5 168.2" stroke="#e0556b" stroke-width="1.6"/>
<circle cx="493.6" cy="145.0" r="3.4" fill="#2ec26b" opacity="0.85"/>
<circle cx="493.6" cy="214.8" r="3.4" fill="#2ec26b" opacity="0.85"/>
<path d="M480.6 223.7 L487.0 230.1 M480.6 230.1 L487.0 223.7" stroke="#e0556b" stroke-width="1.6"/>
<circle cx="398.7" cy="244.0" r="3.4" fill="#2ec26b" opacity="0.85"/>
<path d="M455.8 154.1 L462.2 160.5 M455.8 160.5 L462.2 154.1" stroke="#e0556b" stroke-width="1.6"/>
<circle cx="494.7" cy="157.3" r="3.4" fill="#2ec26b" opacity="0.85"/>
<path d="M473.7 89.3 L480.1 95.7 M473.7 95.7 L480.1 89.3" stroke="#e0556b" stroke-width="1.6"/>
<circle cx="450.9" cy="127.4" r="3.4" fill="#2ec26b" opacity="0.85"/>
<circle cx="478.5" cy="90.4" r="3.4" fill="#2ec26b" opacity="0.85"/>
<circle cx="413.6" cy="140.9" r="3.4" fill="#2ec26b" opacity="0.85"/>
<circle cx="488.3" cy="151.6" r="3.4" fill="#2ec26b" opacity="0.85"/>
<circle cx="377.1" cy="93.9" r="3.4" fill="#2ec26b" opacity="0.85"/>
<circle cx="498.0" cy="83.2" r="3.4" fill="#2ec26b" opacity="0.85"/>
<circle cx="472.0" cy="86.1" r="3.4" fill="#2ec26b" opacity="0.85"/>
<circle cx="446.3" cy="90.9" r="3.4" fill="#2ec26b" opacity="0.85"/>
<circle cx="494.6" cy="82.1" r="3.4" fill="#2ec26b" opacity="0.85"/>
<circle cx="506.7" cy="230.2" r="3.4" fill="#2ec26b" opacity="0.85"/>
<circle cx="480.8" cy="184.6" r="3.4" fill="#2ec26b" opacity="0.85"/>
<circle cx="476.7" cy="151.9" r="3.4" fill="#2ec26b" opacity="0.85"/>
<circle cx="519.7" cy="161.8" r="3.4" fill="#2ec26b" opacity="0.85"/>
<path d="M458.9 125.9 L465.3 132.3 M458.9 132.3 L465.3 125.9" stroke="#e0556b" stroke-width="1.6"/>
<circle cx="505.1" cy="149.0" r="3.4" fill="#2ec26b" opacity="0.85"/>
<path d="M500.3 117.3 L506.7 123.7 M500.3 123.7 L506.7 117.3" stroke="#e0556b" stroke-width="1.6"/>
<circle cx="425.6" cy="99.9" r="3.4" fill="#2ec26b" opacity="0.85"/>
<circle cx="505.1" cy="117.0" r="3.4" fill="#2ec26b" opacity="0.85"/>
<circle cx="488.1" cy="168.9" r="3.4" fill="#2ec26b" opacity="0.85"/>
<path d="M433.0 249.0 L439.4 255.4 M433.0 255.4 L439.4 249.0" stroke="#e0556b" stroke-width="1.6"/>
<circle cx="433.7" cy="119.8" r="3.4" fill="#2ec26b" opacity="0.85"/>
<path d="M362.2 144.7 L368.6 151.1 M362.2 151.1 L368.6 144.7" stroke="#e0556b" stroke-width="1.6"/>
<circle cx="510.6" cy="75.3" r="3.4" fill="#2ec26b" opacity="0.85"/>
<circle cx="414.9" cy="154.3" r="3.4" fill="#2ec26b" opacity="0.85"/>
<path d="M397.1 65.6 L403.5 72.0 M397.1 72.0 L403.5 65.6" stroke="#e0556b" stroke-width="1.6"/>
<circle cx="469.3" cy="214.1" r="3.4" fill="#2ec26b" opacity="0.85"/>
<path d="M367.1 194.5 L373.5 200.9 M367.1 200.9 L373.5 194.5" stroke="#e0556b" stroke-width="1.6"/>
<circle cx="462.8" cy="178.5" r="3.4" fill="#2ec26b" opacity="0.85"/>
<path d="M401.2 146.8 L407.6 153.2 M401.2 153.2 L407.6 146.8" stroke="#e0556b" stroke-width="1.6"/>
<path d="M490.4 97.7 L496.8 104.1 M490.4 104.1 L496.8 97.7" stroke="#e0556b" stroke-width="1.6"/>
<path d="M487.1 141.8 L493.5 148.2 M487.1 148.2 L493.5 141.8" stroke="#e0556b" stroke-width="1.6"/>
<circle cx="418.2" cy="159.3" r="3.4" fill="#2ec26b" opacity="0.85"/>
<path d="M367.9 146.8 L374.3 153.2 M367.9 153.2 L374.3 146.8" stroke="#e0556b" stroke-width="1.6"/>
<circle cx="492.3" cy="154.4" r="3.4" fill="#2ec26b" opacity="0.85"/>
<circle cx="498.8" cy="149.4" r="3.4" fill="#2ec26b" opacity="0.85"/>
<circle cx="515.8" cy="150.9" r="3.4" fill="#2ec26b" opacity="0.85"/>
<path d="M492.3 149.8 L498.7 156.2 M492.3 156.2 L498.7 149.8" stroke="#e0556b" stroke-width="1.6"/>
<circle cx="465.5" cy="140.2" r="3.4" fill="#2ec26b" opacity="0.85"/>
<circle cx="513.4" cy="139.5" r="3.4" fill="#2ec26b" opacity="0.85"/>
<circle cx="425.0" cy="117.4" r="3.4" fill="#2ec26b" opacity="0.85"/>
<path d="M471.2 139.8 L477.6 146.2 M471.2 146.2 L477.6 139.8" stroke="#e0556b" stroke-width="1.6"/>
<path d="M498.0 222.4 L504.4 228.8 M498.0 228.8 L504.4 222.4" stroke="#e0556b" stroke-width="1.6"/>
<path d="M481.8 100.0 L488.2 106.4 M481.8 106.4 L488.2 100.0" stroke="#e0556b" stroke-width="1.6"/>
<path d="M368.2 143.4 L374.6 149.8 M368.2 149.8 L374.6 143.4" stroke="#e0556b" stroke-width="1.6"/>
<path d="M420.6 200.2 L427.0 206.6 M420.6 206.6 L427.0 200.2" stroke="#e0556b" stroke-width="1.6"/>
<path d="M428.7 107.7 L435.1 114.1 M428.7 114.1 L435.1 107.7" stroke="#e0556b" stroke-width="1.6"/>
<path d="M432.8 177.4 L439.2 183.8 M432.8 183.8 L439.2 177.4" stroke="#e0556b" stroke-width="1.6"/>
<circle cx="475.7" cy="199.8" r="3.4" fill="#2ec26b" opacity="0.85"/>
<path d="M470.9 104.8 L477.3 111.2 M470.9 111.2 L477.3 104.8" stroke="#e0556b" stroke-width="1.6"/>
<path d="M449.9 198.8 L456.3 205.2 M449.9 205.2 L456.3 198.8" stroke="#e0556b" stroke-width="1.6"/>
<circle cx="506.6" cy="174.9" r="3.4" fill="#2ec26b" opacity="0.85"/>
<circle cx="380.0" cy="150.7" r="3.4" fill="#2ec26b" opacity="0.85"/>
<circle cx="497.7" cy="89.5" r="3.4" fill="#2ec26b" opacity="0.85"/>
<path d="M485.5 240.8 L491.9 247.2 M485.5 247.2 L491.9 240.8" stroke="#e0556b" stroke-width="1.6"/>
<path d="M476.6 172.4 L483.0 178.8 M476.6 178.8 L483.0 172.4" stroke="#e0556b" stroke-width="1.6"/>
<path d="M376.8 139.0 L383.2 145.4 M376.8 145.4 L383.2 139.0" stroke="#e0556b" stroke-width="1.6"/>
<circle cx="493.9" cy="154.4" r="3.4" fill="#2ec26b" opacity="0.85"/>
<circle cx="507.7" cy="191.4" r="3.4" fill="#2ec26b" opacity="0.85"/>
<circle cx="516.7" cy="191.4" r="3.4" fill="#2ec26b" opacity="0.85"/>
<circle cx="501.2" cy="180.1" r="3.4" fill="#2ec26b" opacity="0.85"/>
<circle cx="510.9" cy="143.0" r="3.4" fill="#2ec26b" opacity="0.85"/>
<path d="M499.6 68.6 L506.0 75.0 M499.6 75.0 L506.0 68.6" stroke="#e0556b" stroke-width="1.6"/>
<path d="M456.7 151.9 L463.1 158.3 M456.7 158.3 L463.1 151.9" stroke="#e0556b" stroke-width="1.6"/>
<path d="M478.6 146.9 L485.0 153.3 M478.6 153.3 L485.0 146.9" stroke="#e0556b" stroke-width="1.6"/>
<path d="M488.3 181.1 L494.7 187.5 M488.3 187.5 L494.7 181.1" stroke="#e0556b" stroke-width="1.6"/>
<circle cx="492.8" cy="157.9" r="3.4" fill="#2ec26b" opacity="0.85"/>
<circle cx="508.8" cy="154.0" r="3.4" fill="#2ec26b" opacity="0.85"/>
<circle cx="485.5" cy="149.3" r="3.4" fill="#2ec26b" opacity="0.85"/>
<path d="M406.9 150.4 L413.3 156.8 M406.9 156.8 L413.3 150.4" stroke="#e0556b" stroke-width="1.6"/>
<circle cx="502.8" cy="145.9" r="3.4" fill="#2ec26b" opacity="0.85"/>
<path d="M504.5 154.1 L510.9 160.5 M504.5 160.5 L510.9 154.1" stroke="#e0556b" stroke-width="1.6"/>
<circle cx="489.9" cy="154.4" r="3.4" fill="#2ec26b" opacity="0.85"/>
<circle cx="489.9" cy="151.6" r="3.4" fill="#2ec26b" opacity="0.85"/>
<path d="M497.2 158.3 L503.6 164.7 M497.2 164.7 L503.6 158.3" stroke="#e0556b" stroke-width="1.6"/>
<circle cx="491.5" cy="155.8" r="3.4" fill="#2ec26b" opacity="0.85"/>
<path d="M368.2 107.1 L374.6 113.5 M368.2 113.5 L374.6 107.1" stroke="#e0556b" stroke-width="1.6"/>
<circle cx="489.0" cy="145.9" r="3.4" fill="#2ec26b" opacity="0.85"/>
<path d="M411.7 247.2 L418.1 253.6 M411.7 253.6 L418.1 247.2" stroke="#e0556b" stroke-width="1.6"/>
<circle cx="508.2" cy="176.4" r="3.4" fill="#2ec26b" opacity="0.85"/>
<circle cx="508.8" cy="154.0" r="3.4" fill="#2ec26b" opacity="0.85"/>
<path d="M461.2 141.8 L467.6 148.2 M461.2 148.2 L467.6 141.8" stroke="#e0556b" stroke-width="1.6"/>
<circle cx="449.8" cy="190.6" r="3.4" fill="#2ec26b" opacity="0.85"/>
<path d="M451.5 150.4 L457.9 156.8 M451.5 156.8 L457.9 150.4" stroke="#e0556b" stroke-width="1.6"/>
<circle cx="490.3" cy="155.7" r="3.4" fill="#2ec26b" opacity="0.85"/>
<circle cx="512.6" cy="135.2" r="3.4" fill="#2ec26b" opacity="0.85"/>
<circle cx="476.9" cy="155.8" r="3.4" fill="#2ec26b" opacity="0.85"/>
<circle cx="370.6" cy="191.4" r="3.4" fill="#2ec26b" opacity="0.85"/>
<circle cx="506.9" cy="72.6" r="3.4" fill="#2ec26b" opacity="0.85"/>
<path d="M505.3 206.7 L511.7 213.1 M505.3 213.1 L511.7 206.7" stroke="#e0556b" stroke-width="1.6"/>
<circle cx="484.2" cy="113.2" r="3.4" fill="#2ec26b" opacity="0.85"/>
<path d="M491.5 71.5 L497.9 77.9 M491.5 77.9 L497.9 71.5" stroke="#e0556b" stroke-width="1.6"/>
<circle cx="504.5" cy="151.6" r="3.4" fill="#2ec26b" opacity="0.85"/>
<path d="M446.1 102.8 L452.5 109.2 M446.1 109.2 L452.5 102.8" stroke="#e0556b" stroke-width="1.6"/>
<circle cx="491.5" cy="159.4" r="3.4" fill="#2ec26b" opacity="0.85"/>
<circle cx="504.5" cy="143.0" r="3.4" fill="#2ec26b" opacity="0.85"/>
<circle cx="492.3" cy="157.3" r="3.4" fill="#2ec26b" opacity="0.85"/>
<circle cx="508.8" cy="154.0" r="3.4" fill="#2ec26b" opacity="0.85"/>
<circle cx="502.8" cy="145.9" r="3.4" fill="#2ec26b" opacity="0.85"/>
<circle cx="502.8" cy="58.3" r="3.4" fill="#2ec26b" opacity="0.85"/>
<path d="M473.7 126.3 L480.1 132.7 M473.7 132.7 L480.1 126.3" stroke="#e0556b" stroke-width="1.6"/>
<circle cx="460.6" cy="100.3" r="3.4" fill="#2ec26b" opacity="0.85"/>
<path d="M410.4 230.3 L416.8 236.7 M410.4 236.7 L416.8 230.3" stroke="#e0556b" stroke-width="1.6"/>
<path d="M369.8 146.2 L376.2 152.6 M369.8 152.6 L376.2 146.2" stroke="#e0556b" stroke-width="1.6"/>
<circle cx="480.9" cy="174.4" r="3.4" fill="#2ec26b" opacity="0.85"/>
<circle cx="494.7" cy="177.9" r="3.4" fill="#2ec26b" opacity="0.85"/>
<path d="M373.1 156.9 L379.5 163.3 M373.1 163.3 L379.5 156.9" stroke="#e0556b" stroke-width="1.6"/>
<path d="M490.7 174.0 L497.1 180.4 M490.7 180.4 L497.1 174.0" stroke="#e0556b" stroke-width="1.6"/>
<path d="M495.6 176.9 L502.0 183.3 M495.6 183.3 L502.0 176.9" stroke="#e0556b" stroke-width="1.6"/>
<circle cx="490.3" cy="141.5" r="3.4" fill="#2ec26b" opacity="0.85"/>
<circle cx="512.3" cy="138.7" r="3.4" fill="#2ec26b" opacity="0.85"/>
<circle cx="482.2" cy="164.3" r="3.4" fill="#2ec26b" opacity="0.85"/>
<circle cx="485.5" cy="177.8" r="3.4" fill="#2ec26b" opacity="0.85"/>
<circle cx="505.8" cy="129.4" r="3.4" fill="#2ec26b" opacity="0.85"/>
<path d="M465.2 223.0 L471.6 229.4 M465.2 229.4 L471.6 223.0" stroke="#e0556b" stroke-width="1.6"/>
<circle cx="493.6" cy="173.5" r="3.4" fill="#2ec26b" opacity="0.85"/>
<path d="M427.1 115.5 L433.5 121.9 M427.1 121.9 L433.5 115.5" stroke="#e0556b" stroke-width="1.6"/>
<circle cx="496.0" cy="162.8" r="3.4" fill="#2ec26b" opacity="0.85"/>
<circle cx="513.1" cy="119.4" r="3.4" fill="#2ec26b" opacity="0.85"/>
<circle cx="498.5" cy="136.5" r="3.4" fill="#2ec26b" opacity="0.85"/>
<path d="M402.8 62.8 L409.2 69.2 M402.8 69.2 L409.2 62.8" stroke="#e0556b" stroke-width="1.6"/>
<circle cx="487.1" cy="93.8" r="3.4" fill="#2ec26b" opacity="0.85"/>
<circle cx="471.7" cy="172.1" r="3.4" fill="#2ec26b" opacity="0.85"/>
<path d="M501.3 151.2 L507.7 157.6 M501.3 157.6 L507.7 151.2" stroke="#e0556b" stroke-width="1.6"/>
<circle cx="374.7" cy="161.5" r="3.4" fill="#2ec26b" opacity="0.85"/>
<path d="M378.8 83.6 L385.2 90.0 M378.8 90.0 L385.2 83.6" stroke="#e0556b" stroke-width="1.6"/>
<path d="M406.3 145.5 L412.7 151.9 M406.3 151.9 L412.7 145.5" stroke="#e0556b" stroke-width="1.6"/>
<circle cx="515.8" cy="161.5" r="3.4" fill="#2ec26b" opacity="0.85"/>
<path d="M449.3 66.5 L455.7 72.9 M449.3 72.9 L455.7 66.5" stroke="#e0556b" stroke-width="1.6"/>
<path d="M390.1 92.9 L396.5 99.3 M390.1 99.3 L396.5 92.9" stroke="#e0556b" stroke-width="1.6"/>
<circle cx="458.2" cy="174.4" r="3.4" fill="#2ec26b" opacity="0.85"/>
<circle cx="475.3" cy="76.8" r="3.4" fill="#2ec26b" opacity="0.85"/>
<circle cx="482.5" cy="154.4" r="3.4" fill="#2ec26b" opacity="0.85"/>
<path d="M494.0 100.0 L500.4 106.4 M494.0 106.4 L500.4 100.0" stroke="#e0556b" stroke-width="1.6"/>
<circle cx="475.3" cy="146.6" r="3.4" fill="#2ec26b" opacity="0.85"/>
<circle cx="393.3" cy="64.7" r="3.4" fill="#2ec26b" opacity="0.85"/>
<path d="M484.2 145.5 L490.6 151.9 M484.2 151.9 L490.6 145.5" stroke="#e0556b" stroke-width="1.6"/>
<circle cx="502.5" cy="157.1" r="3.4" fill="#2ec26b" opacity="0.85"/>
<circle cx="485.5" cy="160.0" r="3.4" fill="#2ec26b" opacity="0.85"/>
<circle cx="414.1" cy="176.4" r="3.4" fill="#2ec26b" opacity="0.85"/>
<circle cx="500.1" cy="152.2" r="3.4" fill="#2ec26b" opacity="0.85"/>
<path d="M484.7 153.9 L491.1 160.3 M484.7 160.3 L491.1 153.9" stroke="#e0556b" stroke-width="1.6"/>
<circle cx="483.8" cy="160.0" r="3.4" fill="#2ec26b" opacity="0.85"/>
<circle cx="487.1" cy="156.4" r="3.4" fill="#2ec26b" opacity="0.85"/>
</svg>