<svg xmlns="http://www.w3.org/2000/svg" width="560" height="300" font-family="sans-serif">
<rect x="0" y="0" width="560" height="300" fill="#1b1b1b"/>
<text x="20" y="16" fill="#ddd" font-size="13">S. Hogan (CAP) — 240 tiros, Clasificatorio</text>
<rect x="20" y="28" width="520" height="252" fill="none" stroke="#555"/>
<path d="M522.9 30.8 L529.3 37.2 M522.9 37.2 L529.3 30.8" stroke="#e0556b" stroke-width="1.6"/>
<circle cx="501.7" cy="160.0" r="3.4" fill="#2ec26b" opacity="0.85"/>
<path d="M441.7 41.5 L448.1 47.9 M441.7 47.9 L448.1 41.5" stroke="#e0556b" stroke-width="1.6"/>
<path d="M436.0 257.1 L442.4 263.5 M436.0 263.5 L442.4 257.1" stroke="#e0556b" stroke-width="1.6"/>
<path d="M488.0 79.2 L494.4 85.6 M488.0 85.6 L494.4 79.2" stroke="#e0556b" stroke-width="1.6"/>
<circle cx="494.7" cy="152.3" r="3.4" fill="#2ec26b" opacity="0.85"/>
<circle cx="501.2" cy="151.6" r="3.4" fill="#2ec26b" opacity="0.85"/>
<path d="M389.3 230.3 L395.7 236.7 M389.3 236.7 L395.7 230.3" stroke="#e0556b" stroke-width="1.6"/>
<path d="M517.5 156.9 L523.9 163.3 M517.5 163.3 L523.9 156.9" stroke="#e0556b" stroke-width="1.6"/>
<circle cx="498.0" cy="183.6" r="3.4" fill="#2ec26b" opacity="0.85"/>
<circle cx="482.5" cy="129.5" r="3.4" fill="#2ec26b" opacity="0.85"/>
<circle cx="499.6" cy="143.0" r="3.4" fill="#2ec26b" opacity="0.85"/>
<path d="M491.5 179.7 L497.9 186.1 M491.5 186.1 L497.9 179.7" stroke="#e0556b" stroke-width="1.6"/>
<path d="M501.3 268.0 L507.7 274.4 M501.3 274.4 L507.7 268.0" stroke="#e0556b" stroke-width="1.6"/>
<path d="M498.8 35.2 L505.2 41.6 M498.8 41.6 L505.2 35.2" stroke="#e0556b" stroke-width="1.6"/>
<circle cx="436.3" cy="80.4" r="3.4" fill="#2ec26b" opacity="0.85"/>
<path d="M466.4 32.3 L472.8 38.7 M466.4 38.7 L472.8 32.3" stroke="#e0556b" stroke-width="1.6"/>
<circle cx="483.1" cy="34.0" r="3.4" fill="#2ec26b" opacity="0.85"/>
<path d="M389.0 84.9 L395.4 91.3 M389.0 91.3 L395.4 84.9" stroke="#e0556b" stroke-width="1.6"/>
<circle cx="514.7" cy="145.0" r="3.4" fill="#2ec26b" opacity="0.85"/>
<path d="M480.6 31.5 L487.0 37.9 M480.6 37.9 L487.0 31.5" stroke="#e0556b" stroke-width="1.6"/>
<path d="M460.4 87.0 L466.8 93.4 M460.4 93.4 L466.8 87.0" stroke="#e0556b" stroke-width="1.6"/>
<circle cx="388.5" cy="233.5" r="3.4" fill="#2ec26b" opacity="0.85"/>
<path d="M507.7 173.3 L514.1 179.7 M507.7 179.7 L514.1 173.3" stroke="#e0556b" stroke-width="1.6"/>
<circle cx="530.4" cy="271.2" r="3.4" fill="#2ec26b" opacity="0.85"/>
<path d="M518.3 162.6 L524.7 169.0 M518.3 169.0 L524.7 162.6" stroke="#e0556b" stroke-width="1.6"/>
<circle cx="423.4" cy="184.3" r="3.4" fill="#2ec26b" opacity="0.85"/>
<circle cx="441.2" cy="106.7" r="3.4" fill="#2ec26b" opacity="0.85"/>
<path d="M481.8 143.4 L488.2 149.8 M481.8 149.8 L488.2 143.4" stroke="#e0556b" stroke-width="1.6"/>
<path d="M449.3 43.0 L455.7 49.4 M449.3 49.4 L455.7 43.0" stroke="#e0556b" stroke-width="1.6"/>
<path d="M462.8 35.8 L469.2 42.2 M462.8 42.2 L469.2 35.8" stroke="#e0556b" stroke-width="1.6"/>
<circle cx="523.6" cy="36.8" r="3.4" fill="#2ec26b" opacity="0.85"/>
<path d="M411.7 65.6 L418.1 72.0 M411.7 72.0 L418.1 65.6" stroke="#e0556b" stroke-width="1.6"/>
<path d="M517.1 126.2 L523.5 132.6 M517.1 132.6 L523.5 126.2" stroke="#e0556b" stroke-width="1.6"/>
<path d="M494.5 144.7 L500.9 151.1 M494.5 151.1 L500.9 144.7" stroke="#e0556b" stroke-width="1.6"/>
<circle cx="503.7" cy="268.3" r="3.4" fill="#2ec26b" opacity="0.85"/>
<circle cx="504.5" cy="153.7" r="3.4" fill="#2ec26b" opacity="0.85"/>
<path d="M460.7 140.5 L467.1 146.9 M460.7 146.9 L467.1 140.5" stroke="#e0556b" stroke-width="1.6"/>
<circle cx="493.9" cy="157.3" r="3.4" fill="#2ec26b" opacity="0.85"/>
<circle cx="502.0" cy="35.5" r="3.4" fill="#2ec26b" opacity="0.85"/>
<path d="M507.7 107.1 L514.1 113.5 M507.7 113.5 L514.1 107.1" stroke="#e0556b" stroke-width="1.6"/>
<circle cx="412.0" cy="211.4" r="3.4" fill="#2ec26b" opacity="0.85"/>
<path d="M388.5 205.3 L394.9 211.7 M388.5 211.7 L394.9 205.3" stroke="#e0556b" stroke-width="1.6"/>
<circle cx="507.4" cy="160.0" r="3.4" fill="#2ec26b" opacity="0.85"/>
<circle cx="444.1" cy="204.1" r="3.4" fill="#2ec26b" opacity="0.85"/>
<circle cx="508.2" cy="165.7" r="3.4" fill="#2ec26b" opacity="0.85"/>
<circle cx="503.3" cy="163.6" r="3.4" fill="#2ec26b" opacity="0.85"/>
<path d="M515.9 34.5 L522.3 40.9 M515.9 40.9 L522.3 34.5" stroke="#e0556b" stroke-width="1.6"/>
<circle cx="527.2" cy="272.6" r="3.4" fill="#2ec26b" opacity="0.85"/>
<path d="M429.9 163.3 L436.3 169.7 M429.9 169.7 L436.3 163.3" stroke="#e0556b" stroke-width="1.6"/>
<path d="M394.2 208.2 L400.6 214.6 M394.2 214.6 L400.6 208.2" stroke="#e0556b" stroke-width="1.6"/>
<circle cx="508.5" cy="134.5" r="3.4" fill="#2ec26b" opacity="0.85"/>
<path d="M472.1 31.6 L478.5 38.0 M472.1 38.0 L478.5 31.6" stroke="#e0556b" stroke-width="1.6"/>
<path d="M502.1 175.4 L508.5 181.8 M502.1 181.8 L508.5 175.4" stroke="#e0556b" stroke-width="1.6"/>
<circle cx="485.0" cy="126.7" r="3.4" fill="#2ec26b" opacity="0.85"/>
<circle cx="437.6" cy="57.5" r="3.4" fill="#2ec26b" opacity="0.85"/>
<path d="M503.4 102.0 L509.8 108.4 M503.4 108.4 L509.8 102.0" stroke="#e0556b" stroke-width="1.6"/>
<path d="M487.1 124.7 L493.5 131.1 M487.1 131.1 L493.5 124.7" stroke="#e0556b" stroke-width="1.6"/>
<circle cx="516.3" cy="136.5" r="3.4" fill="#2ec26b" opacity="0.85"/>
<circle cx="516.3" cy="130.1" r="3.4" fill="#2ec26b" opacity="0.85"/>
<circle cx="502.7" cy="124.1" r="3.4" fill="#2ec26b" opacity="0.85"/>
<path d="M493.0 130.2 L499.4 136.6 M493.0 136.6 L499.4 130.2" stroke="#e0556b" stroke-width="1.6"/>
<path d="M487.3 185.0 L493.7 191.4 M487.3 191.4 L493.7 185.0" stroke="#e0556b" stroke-width="1.6"/>
<circle cx="508.4" cy="183.2" r="3.4" fill="#2ec26b" opacity="0.85"/>
<circle cx="501.9" cy="136.9" r="3.4" fill="#2ec26b" opacity="0.85"/>
<circle cx="473.5" cy="238.7" r="3.4" fill="#2ec26b" opacity="0.85"/>
<path d="M485.7 130.9 L492.1 137.3 M485.7 137.3 L492.1 130.9" stroke="#e0556b" stroke-width="1.6"/>
<circle cx="485.7" cy="163.2" r="3.4" fill="#2ec26b" opacity="0.85"/>
<circle cx="499.4" cy="273.6" r="3.4" fill="#2ec26b" opacity="0.85"/>
<path d="M465.4 167.2 L471.8 173.6 M465.4 173.6 L471.8 167.2" stroke="#e0556b" stroke-width="1.6"/>
<circle cx="487.3" cy="169.6" r="3.4" fill="#2ec26b" opacity="0.85"/>
<path d="M442.7 105.9 L449.1 112.3 M442.7 112.3 L449.1 105.9" stroke="#e0556b" stroke-width="1.6"/>
<path d="M508.4 108.8 L514.8 115.2 M508.4 115.2 L514.8 108.8" stroke="#e0556b" stroke-width="1.6"/>
<path d="M499.5 269.7 L505.9 276.1 M499.5 276.1 L505.9 269.7" stroke="#e0556b" stroke-width="1.6"/>
<circle cx="473.5" cy="94.2" r="3.4" fill="#2ec26b" opacity="0.85"/>
<path d="M481.6 168.6 L488.0 175.0 M481.6 175.0 L488.0 168.6" stroke="#e0556b" stroke-width="1.6"/>
<path d="M509.4 128.4 L515.8 134.8 M509.4 134.8 L515.8 128.4" stroke="#e0556b" stroke-width="1.6"/>
<path d="M410.4 238.8 L416.8 245.2 M410.4 245.2 L416.8 238.8" stroke="#e0556b" stroke-width="1.6"/>
<circle cx="510.2" cy="151.6" r="3.4" fill="#2ec26b" opacity="0.85"/>
<path d="M504.5 160.5 L510.9 166.9 M504.5 166.9 L510.9 160.5" stroke="#e0556b" stroke-width="1.6"/>
<circle cx="407.1" cy="72.6" r="3.4" fill="#2ec26b" opacity="0.85"/>
<path d="M459.9 35.2 L466.3 41.6 M459.9 41.6 L466.3 35.2" stroke="#e0556b" stroke-width="1.6"/>
<circle cx="514.2" cy="162.3" r="3.4" fill="#2ec26b" opacity="0.85"/>
<circle cx="477.4" cy="270.3" r="3.4" fill="#2ec26b" opacity="0.85"/>
<circle cx="509.8" cy="138.6" r="3.4" fill="#2ec26b" opacity="0.85"/>
<path d="M506.6 130.4 L513.0 136.8 M506.6 136.8 L513.0 130.4" stroke="#e0556b" stroke-width="1.6"/>
<circle cx="403.1" cy="66.9" r="3.4" fill="#2ec26b" opacity="0.85"/>
<path d="M519.1 268.0 L525.5 274.4 M519.1 274.4 L525.5 268.0" stroke="#e0556b" stroke-width="1.6"/>
<path d="M472.1 211.7 L478.5 218.1 M472.1 218.1 L478.5 211.7" stroke="#e0556b" stroke-width="1.6"/>
<circle cx="512.6" cy="165.8" r="3.4" fill="#2ec26b" opacity="0.85"/>
<path d="M452.6 159.8 L459.0 166.2 M452.6 166.2 L459.0 159.8" stroke="#e0556b" stroke-width="1.6"/>
<circle cx="490.3" cy="171.4" r="3.4" fill="#2ec26b" opacity="0.85"/>
<circle cx="495.2" cy="156.4" r="3.4" fill="#2ec26b" opacity="0.85"/>
<path d="M487.1 122.6 L493.5 129.0 M487.1 129.0 L493.5 122.6" stroke="#e0556b" stroke-width="1.6"/>
<path d="M410.9 136.8 L417.3 143.2 M410.9 143.2 L417.3 136.8" stroke="#e0556b" stroke-width="1.6"/>
<path d="M482.3 159.6 L488.7 166.0 M482.3 166.0 L488.7 159.6" stroke="#e0556b" stroke-width="1.6"/>
<circle cx="500.1" cy="159.3" r="3.4" fill="#2ec26b" opacity="0.85"/>
<circle cx="527.1" cy="54.4" r="3.4" fill="#2ec26b" opacity="0.85"/>
<circle cx="451.4" cy="271.0" r="3.4" fill="#2ec26b" opacity="0.85"/>
<circle cx="508.5" cy="148.7" r="3.4" fill="#2ec26b" opacity="0.85"/>
<circle cx="516.7" cy="157.3" r="3.4" fill="#2ec26b" opacity="0.85"/>
<circle cx="423.4" cy="249.1" r="3.4" fill="#2ec26b" opacity="0.85"/>
<circle cx="409.5" cy="195.7" r="3.4" fill="#2ec26b" opacity="0.85"/>
<circle cx="503.7" cy="190.0" r="3.4" fill="#2ec26b" opacity="0.85"/>
<path d="M500.5 33.8 L506.9 40.2 M500.5 40.2 L506.9 33.8" stroke="#e0556b" stroke-width="1.6"/>
<path d="M439.6 44.5 L446.0 50.9 M439.6 50.9 L446.0 44.5" stroke="#e0556b" stroke-width="1.6"/>
<circle cx="511.5" cy="144.3" r="3.4" fill="#2ec26b" opacity="0.85"/>
<circle cx="423.0" cy="152.2" r="3.4" fill="#2ec26b" opacity="0.85"/>
<path d="M507.4 157.5 L513.8 163.9 M507.4 163.9 L513.8 157.5" stroke="#e0556b" stroke-width="1.6"/>
<circle cx="506.6" cy="151.4" r="3.4" fill="#2ec26b" opacity="0.85"/>
<path d="M443.4 79.2 L449.8 85.6 M443.4 85.6 L449.8 79.2" stroke="#e0556b" stroke-width="1.6"/>
<path d="M451.8 207.5 L458.2 213.9 M451.8 213.9 L458.2 207.5" stroke="#e0556b" stroke-width="1.6"/>
<path d="M507.0 181.8 L513.4 188.2 M507.0 188.2 L513.4 181.8" stroke="#e0556b" stroke-width="1.6"/>
<path d="M390.9 64.4 L397.3 70.8 M390.9 70.8 L397.3 64.4" stroke="#e0556b" stroke-width="1.6"/>
<path d="M511.0 34.5 L517.4 40.9 M511.0 40.9 L517.4 34.5" stroke="#e0556b" stroke-width="1.6"/>
<path d="M494.0 125.6 L500.4 132.0 M494.0 132.0 L500.4 125.6" stroke="#e0556b" stroke-width="1.6"/>
<circle cx="439.6" cy="155.1" r="3.4" fill="#2ec26b" opacity="0.85"/>
<circle cx="510.9" cy="172.9" r="3.4" fill="#2ec26b" opacity="0.85"/>
<circle cx="506.6" cy="102.3" r="3.4" fill="#2ec26b" opacity="0.85"/>
<path d="M476.6 147.5 L483.0 153.9 M476.6 153.9 L483.0 147.5" stroke="#e0556b" stroke-width="1.6"/>
<circle cx="474.9" cy="162.8" r="3.4" fill="#2ec26b" opacity="0.85"/>
<circle cx="440.9" cy="202.0" r="3.4" fill="#2ec26b" opacity="0.85"/>
<circle cx="449.3" cy="113.9" r="3.4" fill="#2ec26b" opacity="0.85"/>
<path d="M502.9 133.4 L509.3 139.8 M502.9 139.8 L509.3 133.4" stroke="#e0556b" stroke-width="1.6"/>
<circle cx="510.2" cy="157.3" r="3.4" fill="#2ec26b" opacity="0.85"/>
<path d="M410.4 202.5 L416.8 208.9 M410.4 208.9 L416.8 202.5" stroke="#e0556b" stroke-width="1.6"/>
<circle cx="507.7" cy="141.6" r="3.4" fill="#2ec26b" opacity="0.85"/>
<circle cx="395.4" cy="226.9" r="3.4" fill="#2ec26b" opacity="0.85"/>
<circle cx="508.8" cy="154.0" r="3.4" fill="#2ec26b" opacity="0.85"/>
<circle cx="507.4" cy="36.8" r="3.4" fill="#2ec26b" opacity="0.85"/>
<path d="M496.1 164.6 L502.5 171.0 M496.1 171.0 L502.5 164.6" stroke="#e0556b" stroke-width="1.6"/>
<path d="M504.5 179.0 L510.9 185.4 M504.5 185.4 L510.9 179.0" stroke="#e0556b" stroke-width="1.6"/>
<path d="M416.9 244.5 L423.3 250.9 M416.9 250.9 L423.3 244.5" stroke="#e0556b" stroke-width="1.6"/>
<path d="M442.1 265.1 L448.5 271.5 M442.1 271.5 L448.5 265.1" stroke="#e0556b" stroke-width="1.6"/>
<circle cx="431.5" cy="157.3" r="3.4" fill="#2ec26b" opacity="0.85"/>
<circle cx="499.6" cy="148.7" r="3.4" fill="#2ec26b" opacity="0.85"/>
<path d="M484.2 139.8 L490.6 146.2 M484.2 146.2 L490.6 139.8" stroke="#e0556b" stroke-width="1.6"/>
<path d="M474.5 154.8 L480.9 161.2 M474.5 161.2 L480.9 154.8" stroke="#e0556b" stroke-width="1.6"/>
<path d="M388.2 221.6 L394.6 228.0 M388.2 228.0 L394.6 221.6" stroke="#e0556b" stroke-width="1.6"/>
<circle cx="485.5" cy="177.1" r="3.4" fill="#2ec26b" opacity="0.85"/>
<path d="M483.9 102.0 L490.3 108.4 M483.9 108.4 L490.3 102.0" stroke="#e0556b" stroke-width="1.6"/>
<circle cx="493.6" cy="127.9" r="3.4" fill="#2ec26b" opacity="0.85"/>
<circle cx="481.4" cy="165.7" r="3.4" fill="#2ec26b" opacity="0.85"/>
<path d="M432.0 185.2 L438.4 191.6 M432.0 191.6 L438.4 185.2" stroke="#e0556b" stroke-width="1.6"/>
<circle cx="510.9" cy="176.5" r="3.4" fill="#2ec26b" opacity="0.85"/>
<circle cx="456.6" cy="42.7" r="3.4" fill="#2ec26b" opacity="0.85"/>
<path d="M381.2 117.1 L387.6 123.5 M381.2 123.5 L387.6 117.1" stroke="#e0556b" stroke-width="1.6"/>
<path d="M494.0 129.9 L500.4 136.3 M494.0 136.3 L500.4 129.9" stroke="#e0556b" stroke-width="1.6"/>
<path d="M475.3 138.4 L481.7 144.8 M475.3 144.8 L481.7 138.4" stroke="#e0556b" stroke-width="1.6"/>
<path d="M410.4 71.5 L416.8 77.9 M410.4 77.9 L416.8 71.5" stroke="#e0556b" stroke-width="1.6"/>
<circle cx="480.6" cy="181.3" r="3.4" fill="#2ec26b" opacity="0.85"/>
<path d="M371.1 187.4 L377.5 193.8 M371.1 193.8 L377.5 187.4" stroke="#e0556b" stroke-width="1.6"/>
<circle cx="492.8" cy="33.3" r="3.4" fill="#2ec26b" opacity="0.85"/>
<circle cx="499.3" cy="169.2" r="3.4" fill="#2ec26b" opacity="0.85"/>
<path d="M478.2 144.7 L484.6 151.1 M478.2 151.1 L484.6 144.7" stroke="#e0556b" stroke-width="1.6"/>
<circle cx="425.8" cy="66.2" r="3.4" fill="#2ec26b" opacity="0.85"/>
<circle cx="437.9" cy="128.8" r="3.4" fill="#2ec26b" opacity="0.85"/>
<circle cx="377.1" cy="125.2" r="3.4" fill="#2ec26b" opacity="0.85"/>
<path d="M505.3 168.3 L511.7 174.7 M505.3 174.7 L511.7 168.3" stroke="#e0556b" stroke-width="1.6"/>
<path d="M499.6 171.9 L506.0 178.3 M499.6 178.3 L506.0 171.9" stroke="#e0556b" stroke-width="1.6"/>
<circle cx="504.5" cy="160.1" r="3.4" fill="#2ec26b" opacity="0.85"/>
<circle cx="509.8" cy="143.6" r="3.4" fill="#2ec26b" opacity="0.85"/>
<path d="M506.6 238.6 L513.0 245.0 M506.6 245.0 L513.0 238.6" stroke="#e0556b" stroke-width="1.6"/>
<circle cx="503.3" cy="157.1" r="3.4" fill="#2ec26b" opacity="0.85"/>
<circle cx="432.8" cy="56.8" r="3.4" fill="#2ec26b" opacity="0.85"/>
<path d="M366.3 155.4 L372.7 161.8 M366.3 161.8 L372.7 155.4" stroke="#e0556b" stroke-width="1.6"/>
<circle cx="505.8" cy="160.7" r="3.4" fill="#2ec26b" opacity="0.85"/>
<circle cx="493.6" cy="36.8" r="3.4" fill="#2ec26b" opacity="0.85"/>
<circle cx="425.4" cy="219.1" r="3.4" fill="#2ec26b" opacity="0.85"/>
<path d="M509.9 153.9 L516.3 160.3 M509.9 160.3 L516.3 153.9" stroke="#e0556b" stroke-width="1.6"/>
<circle cx="423.4" cy="60.5" r="3.4" fill="#2ec26b" opacity="0.85"/>
<circle cx="505.3" cy="172.2" r="3.4" fill="#2ec26b" opacity="0.85"/>
<circle cx="491.5" cy="170.8" r="3.4" fill="#2ec26b" opacity="0.85"/>
<circle cx="507.7" cy="140.9" r="3.4" fill="#2ec26b" opacity="0.85"/>
<circle cx="510.9" cy="150.1" r="3.4" fill="#2ec26b" opacity="0.85"/>
<path d="M463.9 134.8 L470.3 141.2 M463.9 141.2 L470.3 134.8" stroke="#e0556b" stroke-width="1.6"/>
<circle cx="503.7" cy="157.3" r="3.4" fill="#2ec26b" opacity="0.85"/>
<circle cx="509.0" cy="268.9" r="3.4" fill="#2ec26b" opacity="0.85"/>
<circle cx="507.4" cy="161.4" r="3.4" fill="#2ec26b" opacity="0.85"/>
<path d="M510.7 141.8 L517.1 148.2 M510.7 148.2 L517.1 141.8" stroke="#e0556b" stroke-width="1.6"/>
<circle cx="504.1" cy="100.9" r="3.4" fill="#2ec26b" opacity="0.85"/>
<circle cx="513.1" cy="36.8" r="3.4" fill="#2ec26b" opacity="0.85"/>
<circle cx="515.5" cy="230.5" r="3.4" fill="#2ec26b" opacity="0.85"/>
<path d="M515.5 153.2 L521.9 159.6 M515.5 159.6 L521.9 153.2" stroke="#e0556b" stroke-width="1.6"/>
<circle cx="436.0" cy="209.1" r="3.4" fill="#2ec26b" opacity="0.85"/>
<circle cx="444.1" cy="117.3" r="3.4" fill="#2ec26b" opacity="0.85"/>
<path d="M509.9 121.2 L516.3 127.6 M509.9 127.6 L516.3 121.2" stroke="#e0556b" stroke-width="1.6"/>
<circle cx="513.4" cy="150.1" r="3.4" fill="#2ec26b" opacity="0.85"/>
<path d="M488.3 208.2 L494.7 214.6 M488.3 214.6 L494.7 208.2" stroke="#e0556b" stroke-width="1.6"/>
<circle cx="514.2" cy="155.1" r="3.4" fill="#2ec26b" opacity="0.85"/>
<path d="M502.9 80.0 L509.3 86.4 M502.9 86.4 L509.3 80.0" stroke="#e0556b" stroke-width="1.6"/>
<circle cx="390.9" cy="93.2" r="3.4" fill="#2ec26b" opacity="0.85"/>
<circle cx="468.0" cy="145.2" r="3.4" fill="#2ec26b" opacity="0.85"/>
<circle cx="410.4" cy="144.4" r="3.4" fill="#2ec26b" opacity="0.85"/>
<path d="M496.4 149.8 L502.8 156.2 M496.4 156.2 L502.8 149.8" stroke="#e0556b" stroke-width="1.6"/>
<circle cx="503.7" cy="154.4" r="3.4" fill="#2ec26b" opacity="0.85"/>
<circle cx="507.7" cy="237.0" r="3.4" fill="#2ec26b" opacity="0.85"/>
<circle cx="493.9" cy="148.7" r="3.4" fill="#2ec26b" opacity="0.85"/>
<path d="M468.0 157.6 L474.4 164.0 M468.0 164.0 L474.4 157.6" stroke="#e0556b" stroke-width="1.6"/>
<path d="M498.8 178.3 L505.2 184.7 M498.8 184.7 L505.2 178.3" stroke="#e0556b" stroke-width="1.6"/>
<path d="M500.1 149.7 L506.5 156.1 M500.1 156.1 L506.5 149.7" stroke="#e0556b" stroke-width="1.6"/>
<path d="M465.2 224.4 L471.6 230.8 M465.2 230.8 L471.6 224.4" stroke="#e0556b" stroke-width="1.6"/>
<path d="M501.8 142.5 L508.2 148.9 M501.8 148.9 L508.2 142.5" stroke="#e0556b" stroke-width="1.6"/>
<circle cx="415.7" cy="194.8" r="3.4" fill="#2ec26b" opacity="0.85"/>
<circle cx="483.8" cy="150.7" r="3.4" fill="#2ec26b" opacity="0.85"/>
<circle cx="445.7" cy="108.0" r="3.4" fill="#2ec26b" opacity="0.85"/>
<circle cx="513.1" cy="36.8" r="3.4" fill="#2ec26b" opacity="0.85"/>
<circle cx="499.3" cy="158.6" r="3.4" fill="#2ec26b" opacity="0.85"/>
<circle cx="517.4" cy="188.6" r="3.4" fill="#2ec26b" opacity="0.85"/>
<path d="M489.1 211.0 L495.5 217.4 M489.1 217.4 L495.5 211.0" stroke="#e0556b" stroke-width="1.6"/>
<path d="M454.2 176.9 L460.6 183.3 M454.2 183.3 L460.6 176.9" stroke="#e0556b" stroke-width="1.6"/>
<circle cx="474.4" cy="163.7" r="3.4" fill="#2ec26b" opacity="0.85"/>
<path d="M476.9 271.5 L483.3 277.9 M476.9 277.9 L483.3 271.5" stroke="#e0556b" stroke-width="1.6"/>
<path d="M500.9 125.4 L507.3 131.8 M500.9 131.8 L507.3 125.4" stroke="#e0556b" stroke-width="1.6"/>
<path d="M397.9 237.9 L404.3 244.3 M397.9 244.3 L404.3 237.9" stroke="#e0556b" stroke-width="1.6"/>
<circle cx="382.4" cy="209.8" r="3.4" fill="#2ec26b" opacity="0.85"/>
<path d="M419.0 58.5 L425.4 64.9 M419.0 64.9 L425.4 58.5" stroke="#e0556b" stroke-width="1.6"/>
<circle cx="516.7" cy="176.5" r="3.4" fill="#2ec26b" opacity="0.85"/>
<circle cx="514.2" cy="97.5" r="3.4" fill="#2ec26b" opacity="0.85"/>
<path d="M400.7 233.8 L407.1 240.2 M400.7 240.2 L407.1 233.8" stroke="#e0556b" stroke-width="1.6"/>
<circle cx="452.5" cy="190.7" r="3.4" fill="#2ec26b" opacity="0.85"/>
<circle cx="510.9" cy="120.3" r="3.4" fill="#2ec26b" opacity="0.85"/>
<path d="M507.7 32.3 L514.1 38.7 M507.7 38.7 L514.1 32.3" stroke="#e0556b" stroke-width="1.6"/>
<circle cx="466.3" cy="186.5" r="3.4" fill="#2ec26b" opacity="0.85"/>
<circle cx="418.5" cy="251.2" r="3.4" fill="#2ec26b" opacity="0.85"/>
<path d="M502.6 161.1 L509.0 167.5 M502.6 167.5 L509.0 161.1" stroke="#e0556b" stroke-width="1.6"/>
<path d="M472.5 98.4 L478.9 104.8 M472.5 104.8 L478.9 98.4" stroke="#e0556b" stroke-width="1.6"/>
<circle cx="510.6" cy="123.7" r="3.4" fill="#2ec26b" opacity="0.85"/>
<path d="M393.1 58.5 L399.5 64.9 M393.1 64.9 L399.5 58.5" stroke="#e0556b" stroke-width="1.6"/>
<circle cx="499.3" cy="155.0" r="3.4" fill="#2ec26b" opacity="0.85"/>
<circle cx="511.5" cy="170.0" r="3.4" fill="#2ec26b" opacity="0.85"/>
<path d="M445.3 168.3 L451.7 174.7 M445.3 174.7 L451.7 168.3" stroke="#e0556b" stroke-width="1.6"/>
<circle cx="420.1" cy="61.2" r="3.4" fill="#2ec26b" opacity="0.85"/>
<path d="M514.2 171.9 L520.6 178.3 M514.2 178.3 L520.6 171.9" stroke="#e0556b" stroke-width="1.6"/>
<path d="M506.1 169.0 L512.5 175.4 M506.1 175.4 L512.5 169.0" stroke="#e0556b" stroke-width="1.6"/>
<circle cx="526.1" cy="132.2" r="3.4" fill="#2ec26b" opacity="0.85"/>
<circle cx="470.9" cy="120.1" r="3.4" fill="#2ec26b" opacity="0.85"/>
<circle cx="479.0" cy="205.5" r="3.4" fill="#2ec26b" opacity="0.85"/>
<circle cx="480.6" cy="134.3" r="3.4" fill="#2ec26b" opacity="0.85"/>
<circle cx="378.4" cy="178.5" r="3.4" fill="#2ec26b" opacity="0.85"/>
</svg>