<svg xmlns="http://www.w3.org/2000/svg" width="560" height="300" font-family="sans-serif">
<rect x="0" y="0" width="560" height="300" fill="#1b1b1b"/>
<text x="20" y="16" fill="#ddd" font-size="13">S. Ottonello (BIG) — 165 tiros, Clasificatorio</text>
<rect x="20" y="28" width="520" height="252" fill="none" stroke="#555"/>
<path d="M440.9 260.7 L447.3 267.1 M440.9 267.1 L447.3 260.7" stroke="#e0556b" stroke-width="1.6"/>
<circle cx="511.5" cy="145.0" r="3.4" fill="#2ec26b" opacity="0.85"/>
<circle cx="496.8" cy="161.4" r="3.4" fill="#2ec26b" opacity="0.85"/>
<path d="M430.7 156.2 L437.1 162.6 M430.7 162.6 L437.1 156.2" stroke="#e0556b" stroke-width="1.6"/>
<path d="M387.7 69.4 L394.1 75.8 M387.7 75.8 L394.1 69.4" stroke="#e0556b" stroke-width="1.6"/>
<path d="M467.2 34.5 L473.6 40.9 M467.2 40.9 L473.6 34.5" stroke="#e0556b" stroke-width="1.6"/>
<path d="M479.3 139.8 L485.7 146.2 M479.3 146.2 L485.7 139.8" stroke="#e0556b" stroke-width="1.6"/>
<circle cx="505.3" cy="148.0" r="3.4" fill="#2ec26b" opacity="0.85"/>
<path d="M495.6 141.2 L502.0 147.6 M495.6 147.6 L502.0 141.2" stroke="#e0556b" stroke-width="1.6"/>
<path d="M498.8 142.7 L505.2 149.1 M498.8 149.1 L505.2 142.7" stroke="#e0556b" stroke-width="1.6"/>
<path d="M498.8 158.3 L505.2 164.7 M498.8 164.7 L505.2 158.3" stroke="#e0556b" stroke-width="1.6"/>
<circle cx="499.3" cy="156.4" r="3.4" fill="#2ec26b" opacity="0.85"/>
<path d="M395.5 74.2 L401.9 80.6 M395.5 80.6 L401.9 74.2" stroke="#e0556b" stroke-width="1.6"/>
<path d="M492.0 161.1 L498.4 167.5 M492.0 167.5 L498.4 161.1" stroke="#e0556b" stroke-width="1.6"/>
<circle cx="496.8" cy="151.4" r="3.4" fill="#2ec26b" opacity="0.85"/>
<circle cx="511.5" cy="273.9" r="3.4" fill="#2ec26b" opacity="0.85"/>
<path d="M497.7 119.0 L504.1 125.4 M497.7 125.4 L504.1 119.0" stroke="#e0556b" stroke-width="1.6"/>
<circle cx="509.3" cy="157.3" r="3.4" fill="#2ec26b" opacity="0.85"/>
<path d="M474.5 30.9 L480.9 37.3 M474.5 37.3 L480.9 30.9" stroke="#e0556b" stroke-width="1.6"/>
<path d="M494.0 125.6 L500.4 132.0 M494.0 132.0 L500.4 125.6" stroke="#e0556b" stroke-width="1.6"/>
<path d="M496.9 33.6 L503.3 40.0 M496.9 40.0 L503.3 33.6" stroke="#e0556b" stroke-width="1.6"/>
<circle cx="493.6" cy="172.8" r="3.4" fill="#2ec26b" opacity="0.85"/>
<path d="M519.1 207.5 L525.5 213.9 M519.1 213.9 L525.5 207.5" stroke="#e0556b" stroke-width="1.6"/>
<path d="M505.6 150.8 L512.0 157.2 M505.6 157.2 L512.0 150.8" stroke="#e0556b" stroke-width="1.6"/>
<circle cx="504.5" cy="192.9" r="3.4" fill="#2ec26b" opacity="0.85"/>
<path d="M440.4 170.5 L446.8 176.9 M440.4 176.9 L446.8 170.5" stroke="#e0556b" stroke-width="1.6"/>
<path d="M377.2 76.5 L383.6 82.9 M377.2 82.9 L383.6 76.5" stroke="#e0556b" stroke-width="1.6"/>
<path d="M465.6 35.9 L472.0 42.3 M465.6 42.3 L472.0 35.9" stroke="#e0556b" stroke-width="1.6"/>
<circle cx="506.6" cy="157.9" r="3.4" fill="#2ec26b" opacity="0.85"/>
<path d="M509.9 156.8 L516.3 163.2 M509.9 163.2 L516.3 156.8" stroke="#e0556b" stroke-width="1.6"/>
<path d="M431.2 48.6 L437.6 55.0 M431.2 55.0 L437.6 48.6" stroke="#e0556b" stroke-width="1.6"/>
<circle cx="496.0" cy="155.7" r="3.4" fill="#2ec26b" opacity="0.85"/>
<circle cx="482.2" cy="71.7" r="3.4" fill="#2ec26b" opacity="0.85"/>
<circle cx="499.3" cy="150.0" r="3.4" fill="#2ec26b" opacity="0.85"/>
<circle cx="508.8" cy="154.0" r="3.4" fill="#2ec26b" opacity="0.85"/>
<path d="M415.7 59.2 L422.1 65.6 M415.7 65.6 L422.1 59.2" stroke="#e0556b" stroke-width="1.6"/>
<path d="M505.6 150.8 L512.0 157.2 M505.6 157.2 L512.0 150.8" stroke="#e0556b" stroke-width="1.6"/>
<path d="M501.8 121.9 L508.2 128.3 M501.8 128.3 L508.2 121.9" stroke="#e0556b" stroke-width="1.6"/>
<circle cx="516.7" cy="153.0" r="3.4" fill="#2ec26b" opacity="0.85"/>
<circle cx="520.7" cy="140.9" r="3.4" fill="#2ec26b" opacity="0.85"/>
<path d="M474.5 159.8 L480.9 166.2 M474.5 166.2 L480.9 159.8" stroke="#e0556b" stroke-width="1.6"/>
<path d="M486.5 118.8 L492.9 125.2 M486.5 125.2 L492.9 118.8" stroke="#e0556b" stroke-width="1.6"/>
<circle cx="501.9" cy="186.0" r="3.4" fill="#2ec26b" opacity="0.85"/>
<circle cx="508.8" cy="154.0" r="3.4" fill="#2ec26b" opacity="0.85"/>
<path d="M433.0 44.0 L439.4 50.4 M433.0 50.4 L439.4 44.0" stroke="#e0556b" stroke-width="1.6"/>
<path d="M439.5 148.7 L445.9 155.1 M439.5 155.1 L445.9 148.7" stroke="#e0556b" stroke-width="1.6"/>
<circle cx="492.2" cy="157.6" r="3.4" fill="#2ec26b" opacity="0.85"/>
<circle cx="508.8" cy="154.0" r="3.4" fill="#2ec26b" opacity="0.85"/>
<path d="M492.2 170.0 L498.6 176.4 M492.2 176.4 L498.6 170.0" stroke="#e0556b" stroke-width="1.6"/>
<path d="M492.0 149.7 L498.4 156.1 M492.0 156.1 L498.4 149.7" stroke="#e0556b" stroke-width="1.6"/>
<circle cx="486.3" cy="141.5" r="3.4" fill="#2ec26b" opacity="0.85"/>
<path d="M486.7 152.6 L493.1 159.0 M486.7 159.0 L493.1 152.6" stroke="#e0556b" stroke-width="1.6"/>
<circle cx="501.2" cy="141.6" r="3.4" fill="#2ec26b" opacity="0.85"/>
<path d="M504.5 63.0 L510.9 69.4 M504.5 69.4 L510.9 63.0" stroke="#e0556b" stroke-width="1.6"/>
<circle cx="408.8" cy="51.2" r="3.4" fill="#2ec26b" opacity="0.85"/>
<path d="M476.1 138.4 L482.5 144.8 M476.1 144.8 L482.5 138.4" stroke="#e0556b" stroke-width="1.6"/>
<path d="M438.8 50.9 L445.2 57.3 M438.8 57.3 L445.2 50.9" stroke="#e0556b" stroke-width="1.6"/>
<path d="M502.1 171.9 L508.5 178.3 M502.1 178.3 L508.5 171.9" stroke="#e0556b" stroke-width="1.6"/>
<circle cx="492.0" cy="173.5" r="3.4" fill="#2ec26b" opacity="0.85"/>
<path d="M477.4 119.0 L483.8 125.4 M477.4 125.4 L483.8 119.0" stroke="#e0556b" stroke-width="1.6"/>
<circle cx="483.1" cy="172.8" r="3.4" fill="#2ec26b" opacity="0.85"/>
<circle cx="504.1" cy="121.5" r="3.4" fill="#2ec26b" opacity="0.85"/>
<circle cx="496.0" cy="125.8" r="3.4" fill="#2ec26b" opacity="0.85"/>
<path d="M496.9 175.3 L503.3 181.7 M496.9 181.7 L503.3 175.3" stroke="#e0556b" stroke-width="1.6"/>
<circle cx="484.7" cy="174.2" r="3.4" fill="#2ec26b" opacity="0.85"/>
<path d="M458.0 163.2 L464.4 169.6 M458.0 169.6 L464.4 163.2" stroke="#e0556b" stroke-width="1.6"/>
<path d="M505.6 150.8 L512.0 157.2 M505.6 157.2 L512.0 150.8" stroke="#e0556b" stroke-width="1.6"/>
<path d="M490.4 237.2 L496.8 243.6 M490.4 243.6 L496.8 237.2" stroke="#e0556b" stroke-width="1.6"/>
<path d="M500.9 170.3 L507.3 176.7 M500.9 176.7 L507.3 170.3" stroke="#e0556b" stroke-width="1.6"/>
<circle cx="509.8" cy="159.3" r="3.4" fill="#2ec26b" opacity="0.85"/>
<path d="M516.4 178.8 L522.8 185.2 M516.4 185.2 L522.8 178.8" stroke="#e0556b" stroke-width="1.6"/>
<path d="M517.5 141.2 L523.9 147.6 M517.5 147.6 L523.9 141.2" stroke="#e0556b" stroke-width="1.6"/>
<circle cx="505.3" cy="175.1" r="3.4" fill="#2ec26b" opacity="0.85"/>
<circle cx="399.0" cy="66.2" r="3.4" fill="#2ec26b" opacity="0.85"/>
<circle cx="503.3" cy="123.0" r="3.4" fill="#2ec26b" opacity="0.85"/>
<circle cx="507.4" cy="90.2" r="3.4" fill="#2ec26b" opacity="0.85"/>
<path d="M507.6 141.6 L514.0 148.0 M507.6 148.0 L514.0 141.6" stroke="#e0556b" stroke-width="1.6"/>
<path d="M485.8 147.7 L492.2 154.1 M485.8 154.1 L492.2 147.7" stroke="#e0556b" stroke-width="1.6"/>
<circle cx="479.3" cy="163.0" r="3.4" fill="#2ec26b" opacity="0.85"/>
<circle cx="517.4" cy="131.6" r="3.4" fill="#2ec26b" opacity="0.85"/>
<path d="M478.6 205.3 L485.0 211.7 M478.6 211.7 L485.0 205.3" stroke="#e0556b" stroke-width="1.6"/>
<circle cx="390.9" cy="207.1" r="3.4" fill="#2ec26b" opacity="0.85"/>
<path d="M511.0 270.8 L517.4 277.2 M511.0 277.2 L517.4 270.8" stroke="#e0556b" stroke-width="1.6"/>
<path d="M514.2 167.6 L520.6 174.0 M514.2 174.0 L520.6 167.6" stroke="#e0556b" stroke-width="1.6"/>
<circle cx="516.7" cy="174.4" r="3.4" fill="#2ec26b" opacity="0.85"/>
<circle cx="509.8" cy="189.2" r="3.4" fill="#2ec26b" opacity="0.85"/>
<circle cx="516.3" cy="138.6" r="3.4" fill="#2ec26b" opacity="0.85"/>
<path d="M512.3 124.7 L518.7 131.1 M512.3 131.1 L518.7 124.7" stroke="#e0556b" stroke-width="1.6"/>
<path d="M505.3 144.1 L511.7 150.5 M505.3 150.5 L511.7 144.1" stroke="#e0556b" stroke-width="1.6"/>
<path d="M362.5 140.5 L368.9 146.9 M362.5 146.9 L368.9 140.5" stroke="#e0556b" stroke-width="1.6"/>
<circle cx="508.8" cy="154.0" r="3.4" fill="#2ec26b" opacity="0.85"/>
<circle cx="496.8" cy="153.6" r="3.4" fill="#2ec26b" opacity="0.85"/>
<circle cx="516.3" cy="175.6" r="3.4" fill="#2ec26b" opacity="0.85"/>
<path d="M515.1 133.4 L521.5 139.8 M515.1 139.8 L521.5 133.4" stroke="#e0556b" stroke-width="1.6"/>
<circle cx="519.1" cy="126.0" r="3.4" fill="#2ec26b" opacity="0.85"/>
<path d="M450.2 97.8 L456.6 104.2 M450.2 104.2 L456.6 97.8" stroke="#e0556b" stroke-width="1.6"/>
<circle cx="518.3" cy="170.8" r="3.4" fill="#2ec26b" opacity="0.85"/>
<circle cx="500.1" cy="119.4" r="3.4" fill="#2ec26b" opacity="0.85"/>
<circle cx="499.3" cy="178.5" r="3.4" fill="#2ec26b" opacity="0.85"/>
<path d="M492.0 128.3 L498.4 134.7 M492.0 134.7 L498.4 128.3" stroke="#e0556b" stroke-width="1.6"/>
<path d="M374.4 102.7 L380.8 109.1 M374.4 109.1 L380.8 102.7" stroke="#e0556b" stroke-width="1.6"/>
<circle cx="492.0" cy="170.7" r="3.4" fill="#2ec26b" opacity="0.85"/>
<circle cx="517.4" cy="183.6" r="3.4" fill="#2ec26b" opacity="0.85"/>
<circle cx="406.8" cy="142.2" r="3.4" fill="#2ec26b" opacity="0.85"/>
<circle cx="496.8" cy="152.2" r="3.4" fill="#2ec26b" opacity="0.85"/>
<path d="M378.5 210.2 L384.9 216.6 M378.5 216.6 L384.9 210.2" stroke="#e0556b" stroke-width="1.6"/>
<circle cx="488.7" cy="140.8" r="3.4" fill="#2ec26b" opacity="0.85"/>
<path d="M350.8 146.8 L357.2 153.2 M350.8 153.2 L357.2 146.8" stroke="#e0556b" stroke-width="1.6"/>
<circle cx="503.7" cy="150.1" r="3.4" fill="#2ec26b" opacity="0.85"/>
<circle cx="510.9" cy="153.7" r="3.4" fill="#2ec26b" opacity="0.85"/>
<path d="M501.3 149.1 L507.7 155.5 M501.3 155.5 L507.7 149.1" stroke="#e0556b" stroke-width="1.6"/>
<circle cx="512.6" cy="138.8" r="3.4" fill="#2ec26b" opacity="0.85"/>
<circle cx="501.2" cy="144.4" r="3.4" fill="#2ec26b" opacity="0.85"/>
<circle cx="508.5" cy="158.7" r="3.4" fill="#2ec26b" opacity="0.85"/>
<circle cx="512.6" cy="150.1" r="3.4" fill="#2ec26b" opacity="0.85"/>
<circle cx="439.6" cy="39.1" r="3.4" fill="#2ec26b" opacity="0.85"/>
<path d="M378.8 75.8 L385.2 82.2 M378.8 82.2 L385.2 75.8" stroke="#e0556b" stroke-width="1.6"/>
<path d="M505.3 161.2 L511.7 167.6 M505.3 167.6 L511.7 161.2" stroke="#e0556b" stroke-width="1.6"/>
<path d="M489.1 141.2 L495.5 147.6 M489.1 147.6 L495.5 141.2" stroke="#e0556b" stroke-width="1.6"/>
<circle cx="490.7" cy="168.0" r="3.4" fill="#2ec26b" opacity="0.85"/>
<path d="M507.6 141.6 L514.0 148.0 M507.6 148.0 L514.0 141.6" stroke="#e0556b" stroke-width="1.6"/>
<circle cx="509.2" cy="159.7" r="3.4" fill="#2ec26b" opacity="0.85"/>
<circle cx="512.4" cy="164.0" r="3.4" fill="#2ec26b" opacity="0.85"/>
<circle cx="439.4" cy="198.9" r="3.4" fill="#2ec26b" opacity="0.85"/>
<circle cx="498.6" cy="154.7" r="3.4" fill="#2ec26b" opacity="0.85"/>
<circle cx="518.9" cy="162.5" r="3.4" fill="#2ec26b" opacity="0.85"/>
<path d="M426.5 154.4 L432.9 160.8 M426.5 160.8 L432.9 154.4" stroke="#e0556b" stroke-width="1.6"/>
<path d="M514.1 170.7 L520.5 177.1 M514.1 177.1 L520.5 170.7" stroke="#e0556b" stroke-width="1.6"/>
<circle cx="499.4" cy="270.8" r="3.4" fill="#2ec26b" opacity="0.85"/>
<path d="M513.3 158.6 L519.7 165.0 M513.3 165.0 L519.7 158.6" stroke="#e0556b" stroke-width="1.6"/>
<circle cx="487.1" cy="96.6" r="3.4" fill="#2ec26b" opacity="0.85"/>
<path d="M499.3 119.0 L505.7 125.4 M499.3 125.4 L505.7 119.0" stroke="#e0556b" stroke-width="1.6"/>
<circle cx="488.7" cy="113.7" r="3.4" fill="#2ec26b" opacity="0.85"/>
<path d="M390.1 216.7 L396.5 223.1 M390.1 223.1 L396.5 216.7" stroke="#e0556b" stroke-width="1.6"/>
<path d="M484.2 270.8 L490.6 277.2 M484.2 277.2 L490.6 270.8" stroke="#e0556b" stroke-width="1.6"/>
<path d="M423.4 151.9 L429.8 158.3 M423.4 158.3 L429.8 151.9" stroke="#e0556b" stroke-width="1.6"/>
<circle cx="512.4" cy="138.4" r="3.4" fill="#2ec26b" opacity="0.85"/>
<circle cx="513.2" cy="164.0" r="3.4" fill="#2ec26b" opacity="0.85"/>
<circle cx="508.8" cy="154.0" r="3.4" fill="#2ec26b" opacity="0.85"/>
<circle cx="522.9" cy="146.2" r="3.4" fill="#2ec26b" opacity="0.85"/>
<circle cx="481.6" cy="153.3" r="3.4" fill="#2ec26b" opacity="0.85"/>
<circle cx="405.3" cy="77.1" r="3.4" fill="#2ec26b" opacity="0.85"/>
<path d="M491.4 143.7 L497.8 150.1 M491.4 150.1 L497.8 143.7" stroke="#e0556b" stroke-width="1.6"/>
<circle cx="514.1" cy="272.2" r="3.4" fill="#2ec26b" opacity="0.85"/>
<path d="M434.6 252.6 L441.0 259.0 M434.6 259.0 L441.0 252.6" stroke="#e0556b" stroke-width="1.6"/>
<circle cx="427.3" cy="155.4" r="3.4" fill="#2ec26b" opacity="0.85"/>
<path d="M514.8 102.7 L521.2 109.1 M514.8 109.1 L521.2 102.7" stroke="#e0556b" stroke-width="1.6"/>
<circle cx="519.6" cy="140.0" r="3.4" fill="#2ec26b" opacity="0.85"/>
<path d="M485.5 90.6 L491.9 97.0 M485.5 97.0 L491.9 90.6" stroke="#e0556b" stroke-width="1.6"/>
<path d="M516.4 116.2 L522.8 122.6 M516.4 122.6 L522.8 116.2" stroke="#e0556b" stroke-width="1.6"/>
<circle cx="507.4" cy="176.4" r="3.4" fill="#2ec26b" opacity="0.85"/>
<circle cx="507.4" cy="171.4" r="3.4" fill="#2ec26b" opacity="0.85"/>
<circle cx="519.1" cy="174.4" r="3.4" fill="#2ec26b" opacity="0.85"/>
<circle cx="422.5" cy="253.4" r="3.4" fill="#2ec26b" opacity="0.85"/>
<circle cx="523.2" cy="180.8" r="3.4" fill="#2ec26b" opacity="0.85"/>
<path d="M437.7 47.9 L444.1 54.3 M437.7 54.3 L444.1 47.9" stroke="#e0556b" stroke-width="1.6"/>
<path d="M509.9 150.4 L516.3 156.8 M509.9 156.8 L516.3 150.4" stroke="#e0556b" stroke-width="1.6"/>
<path d="M436.0 213.0 L442.4 219.4 M436.0 219.4 L442.4 213.0" stroke="#e0556b" stroke-width="1.6"/>
<circle cx="374.7" cy="190.0" r="3.4" fill="#2ec26b" opacity="0.85"/>
<path d="M488.3 142.7 L494.7 149.1 M488.3 149.1 L494.7 142.7" stroke="#e0556b" stroke-width="1.6"/>
<path d="M485.1 136.3 L491.5 142.7 M485.1 142.7 L491.5 136.3" stroke="#e0556b" stroke-width="1.6"/>
<path d="M446.1 40.9 L452.5 47.3 M446.1 47.3 L452.5 40.9" stroke="#e0556b" stroke-width="1.6"/>
<circle cx="504.5" cy="151.6" r="3.4" fill="#2ec26b" opacity="0.85"/>
<path d="M483.4 145.5 L489.8 151.9 M483.4 151.9 L489.8 145.5" stroke="#e0556b" stroke-width="1.6"/>
<path d="M506.1 91.4 L512.5 97.8 M506.1 97.8 L512.5 91.4" stroke="#e0556b" stroke-width="1.6"/>
</svg>