<svg xmlns="http://www.w3.org/2000/svg" width="560" height="300" font-family="sans-serif">
<rect x="0" y="0" width="560" height="300" fill="#1b1b1b"/>
<text x="20" y="16" fill="#ddd" font-size="13">S. Vescovi (CAP) — 210 tiros, Clasificatorio</text>
<rect x="20" y="28" width="520" height="252" fill="none" stroke="#555"/>
<circle cx="513.1" cy="142.2" r="3.4" fill="#2ec26b" opacity="0.85"/>
<circle cx="369.5" cy="101.6" r="3.4" fill="#2ec26b" opacity="0.85"/>
<circle cx="483.8" cy="153.6" r="3.4" fill="#2ec26b" opacity="0.85"/>
<circle cx="401.1" cy="76.7" r="3.4" fill="#2ec26b" opacity="0.85"/>
<circle cx="509.0" cy="150.7" r="3.4" fill="#2ec26b" opacity="0.85"/>
<circle cx="407.6" cy="60.3" r="3.4" fill="#2ec26b" opacity="0.85"/>
<circle cx="499.3" cy="150.0" r="3.4" fill="#2ec26b" opacity="0.85"/>
<path d="M368.2 94.3 L374.6 100.7 M368.2 100.7 L374.6 94.3" stroke="#e0556b" stroke-width="1.6"/>
<path d="M403.1 243.8 L409.5 250.2 M403.1 250.2 L409.5 243.8" stroke="#e0556b" stroke-width="1.6"/>
<circle cx="501.2" cy="150.1" r="3.4" fill="#2ec26b" opacity="0.85"/>
<circle cx="352.7" cy="155.8" r="3.4" fill="#2ec26b" opacity="0.85"/>
<circle cx="380.4" cy="85.4" r="3.4" fill="#2ec26b" opacity="0.85"/>
<path d="M377.9 68.6 L384.3 75.0 M377.9 75.0 L384.3 68.6" stroke="#e0556b" stroke-width="1.6"/>
<path d="M446.1 256.6 L452.5 263.0 M446.1 263.0 L452.5 256.6" stroke="#e0556b" stroke-width="1.6"/>
<path d="M502.9 136.3 L509.3 142.7 M502.9 142.7 L509.3 136.3" stroke="#e0556b" stroke-width="1.6"/>
<path d="M421.8 57.3 L428.2 63.7 M421.8 63.7 L428.2 57.3" stroke="#e0556b" stroke-width="1.6"/>
<path d="M423.4 243.8 L429.8 250.2 M423.4 250.2 L429.8 243.8" stroke="#e0556b" stroke-width="1.6"/>
<circle cx="505.8" cy="127.2" r="3.4" fill="#2ec26b" opacity="0.85"/>
<circle cx="491.2" cy="127.9" r="3.4" fill="#2ec26b" opacity="0.85"/>
<path d="M477.4 154.7 L483.8 161.1 M477.4 161.1 L483.8 154.7" stroke="#e0556b" stroke-width="1.6"/>
<circle cx="510.6" cy="137.2" r="3.4" fill="#2ec26b" opacity="0.85"/>
<circle cx="493.6" cy="165.0" r="3.4" fill="#2ec26b" opacity="0.85"/>
<circle cx="483.8" cy="119.4" r="3.4" fill="#2ec26b" opacity="0.85"/>
<path d="M403.6 226.6 L410.0 233.0 M403.6 233.0 L410.0 226.6" stroke="#e0556b" stroke-width="1.6"/>
<circle cx="508.2" cy="146.5" r="3.4" fill="#2ec26b" opacity="0.85"/>
<circle cx="426.3" cy="261.1" r="3.4" fill="#2ec26b" opacity="0.85"/>
<circle cx="369.5" cy="162.1" r="3.4" fill="#2ec26b" opacity="0.85"/>
<circle cx="513.1" cy="147.9" r="3.4" fill="#2ec26b" opacity="0.85"/>
<path d="M440.1 47.2 L446.5 53.6 M440.1 53.6 L446.5 47.2" stroke="#e0556b" stroke-width="1.6"/>
<path d="M373.1 179.7 L379.5 186.1 M373.1 186.1 L379.5 179.7" stroke="#e0556b" stroke-width="1.6"/>
<circle cx="512.6" cy="163.7" r="3.4" fill="#2ec26b" opacity="0.85"/>
<path d="M467.2 264.4 L473.6 270.8 M467.2 270.8 L473.6 264.4" stroke="#e0556b" stroke-width="1.6"/>
<circle cx="502.0" cy="148.7" r="3.4" fill="#2ec26b" opacity="0.85"/>
<circle cx="513.4" cy="137.3" r="3.4" fill="#2ec26b" opacity="0.85"/>
<circle cx="505.3" cy="34.8" r="3.4" fill="#2ec26b" opacity="0.85"/>
<path d="M511.0 129.9 L517.4 136.3 M511.0 136.3 L517.4 129.9" stroke="#e0556b" stroke-width="1.6"/>
<circle cx="488.3" cy="158.7" r="3.4" fill="#2ec26b" opacity="0.85"/>
<path d="M449.3 260.1 L455.7 266.5 M449.3 266.5 L455.7 260.1" stroke="#e0556b" stroke-width="1.6"/>
<circle cx="518.3" cy="131.6" r="3.4" fill="#2ec26b" opacity="0.85"/>
<path d="M530.1 136.1 L536.5 142.5 M530.1 142.5 L536.5 136.1" stroke="#e0556b" stroke-width="1.6"/>
<circle cx="508.2" cy="136.5" r="3.4" fill="#2ec26b" opacity="0.85"/>
<circle cx="513.1" cy="168.5" r="3.4" fill="#2ec26b" opacity="0.85"/>
<circle cx="444.4" cy="251.2" r="3.4" fill="#2ec26b" opacity="0.85"/>
<path d="M486.7 137.7 L493.1 144.1 M486.7 144.1 L493.1 137.7" stroke="#e0556b" stroke-width="1.6"/>
<path d="M489.9 139.1 L496.3 145.5 M489.9 145.5 L496.3 139.1" stroke="#e0556b" stroke-width="1.6"/>
<circle cx="505.3" cy="144.4" r="3.4" fill="#2ec26b" opacity="0.85"/>
<path d="M378.8 107.1 L385.2 113.5 M378.8 113.5 L385.2 107.1" stroke="#e0556b" stroke-width="1.6"/>
<circle cx="511.8" cy="137.3" r="3.4" fill="#2ec26b" opacity="0.85"/>
<path d="M491.5 135.6 L497.9 142.0 M491.5 142.0 L497.9 135.6" stroke="#e0556b" stroke-width="1.6"/>
<circle cx="462.3" cy="44.1" r="3.4" fill="#2ec26b" opacity="0.85"/>
<circle cx="418.9" cy="246.8" r="3.4" fill="#2ec26b" opacity="0.85"/>
<circle cx="447.3" cy="48.9" r="3.4" fill="#2ec26b" opacity="0.85"/>
<circle cx="515.5" cy="135.1" r="3.4" fill="#2ec26b" opacity="0.85"/>
<path d="M459.6 105.5 L466.0 111.9 M459.6 111.9 L466.0 105.5" stroke="#e0556b" stroke-width="1.6"/>
<path d="M407.0 64.0 L413.4 70.4 M407.0 70.4 L413.4 64.0" stroke="#e0556b" stroke-width="1.6"/>
<path d="M484.1 173.6 L490.5 180.0 M484.1 180.0 L490.5 173.6" stroke="#e0556b" stroke-width="1.6"/>
<path d="M493.0 187.8 L499.4 194.2 M493.0 194.2 L499.4 187.8" stroke="#e0556b" stroke-width="1.6"/>
<circle cx="368.0" cy="129.1" r="3.4" fill="#2ec26b" opacity="0.85"/>
<path d="M476.8 164.3 L483.2 170.7 M476.8 170.7 L483.2 164.3" stroke="#e0556b" stroke-width="1.6"/>
<circle cx="488.9" cy="143.3" r="3.4" fill="#2ec26b" opacity="0.85"/>
<circle cx="495.4" cy="128.4" r="3.4" fill="#2ec26b" opacity="0.85"/>
<path d="M385.9 202.1 L392.3 208.5 M385.9 208.5 L392.3 202.1" stroke="#e0556b" stroke-width="1.6"/>
<path d="M454.8 160.8 L461.2 167.2 M454.8 167.2 L461.2 160.8" stroke="#e0556b" stroke-width="1.6"/>
<path d="M499.5 120.2 L505.9 126.6 M499.5 126.6 L505.9 120.2" stroke="#e0556b" stroke-width="1.6"/>
<path d="M403.0 229.1 L409.4 235.5 M403.0 235.5 L409.4 229.1" stroke="#e0556b" stroke-width="1.6"/>
<path d="M504.4 125.9 L510.8 132.3 M504.4 132.3 L510.8 125.9" stroke="#e0556b" stroke-width="1.6"/>
<circle cx="437.8" cy="52.9" r="3.4" fill="#2ec26b" opacity="0.85"/>
<circle cx="364.0" cy="151.9" r="3.4" fill="#2ec26b" opacity="0.85"/>
<circle cx="484.0" cy="188.2" r="3.4" fill="#2ec26b" opacity="0.85"/>
<path d="M510.2 141.2 L516.6 147.6 M510.2 147.6 L516.6 141.2" stroke="#e0556b" stroke-width="1.6"/>
<circle cx="520.7" cy="271.2" r="3.4" fill="#2ec26b" opacity="0.85"/>
<circle cx="374.7" cy="157.3" r="3.4" fill="#2ec26b" opacity="0.85"/>
<circle cx="455.8" cy="263.3" r="3.4" fill="#2ec26b" opacity="0.85"/>
<circle cx="424.1" cy="49.8" r="3.4" fill="#2ec26b" opacity="0.85"/>
<path d="M322.8 110.0 L329.2 116.4 M322.8 116.4 L329.2 110.0" stroke="#e0556b" stroke-width="1.6"/>
<path d="M511.8 268.0 L518.2 274.4 M511.8 274.4 L518.2 268.0" stroke="#e0556b" stroke-width="1.6"/>
<path d="M458.3 263.0 L464.7 269.4 M458.3 269.4 L464.7 263.0" stroke="#e0556b" stroke-width="1.6"/>
<circle cx="504.5" cy="160.1" r="3.4" fill="#2ec26b" opacity="0.85"/>
<path d="M365.8 202.5 L372.2 208.9 M365.8 208.9 L372.2 202.5" stroke="#e0556b" stroke-width="1.6"/>
<path d="M373.1 58.0 L379.5 64.4 M373.1 64.4 L379.5 58.0" stroke="#e0556b" stroke-width="1.6"/>
<circle cx="513.1" cy="162.8" r="3.4" fill="#2ec26b" opacity="0.85"/>
<path d="M505.0 33.6 L511.4 40.0 M505.0 40.0 L511.4 33.6" stroke="#e0556b" stroke-width="1.6"/>
<circle cx="385.7" cy="104.5" r="3.4" fill="#2ec26b" opacity="0.85"/>
<path d="M339.5 124.7 L345.9 131.1 M339.5 131.1 L345.9 124.7" stroke="#e0556b" stroke-width="1.6"/>
<path d="M390.9 65.1 L397.3 71.5 M390.9 71.5 L397.3 65.1" stroke="#e0556b" stroke-width="1.6"/>
<circle cx="519.1" cy="180.1" r="3.4" fill="#2ec26b" opacity="0.85"/>
<path d="M399.1 250.9 L405.5 257.3 M399.1 257.3 L405.5 250.9" stroke="#e0556b" stroke-width="1.6"/>
<path d="M377.9 57.3 L384.3 63.7 M377.9 63.7 L384.3 57.3" stroke="#e0556b" stroke-width="1.6"/>
<path d="M498.0 174.7 L504.4 181.1 M498.0 181.1 L504.4 174.7" stroke="#e0556b" stroke-width="1.6"/>
<path d="M469.6 138.4 L476.0 144.8 M469.6 144.8 L476.0 138.4" stroke="#e0556b" stroke-width="1.6"/>
<path d="M476.1 133.4 L482.5 139.8 M476.1 139.8 L482.5 133.4" stroke="#e0556b" stroke-width="1.6"/>
<path d="M494.8 28.8 L501.2 35.2 M494.8 35.2 L501.2 28.8" stroke="#e0556b" stroke-width="1.6"/>
<circle cx="497.7" cy="122.2" r="3.4" fill="#2ec26b" opacity="0.85"/>
<path d="M406.9 54.3 L413.3 60.7 M406.9 60.7 L413.3 54.3" stroke="#e0556b" stroke-width="1.6"/>
<path d="M368.2 218.1 L374.6 224.5 M368.2 224.5 L374.6 218.1" stroke="#e0556b" stroke-width="1.6"/>
<circle cx="407.9" cy="51.9" r="3.4" fill="#2ec26b" opacity="0.85"/>
<circle cx="397.4" cy="234.2" r="3.4" fill="#2ec26b" opacity="0.85"/>
<path d="M397.4 241.6 L403.8 248.0 M397.4 248.0 L403.8 241.6" stroke="#e0556b" stroke-width="1.6"/>
<path d="M520.7 31.6 L527.1 38.0 M520.7 38.0 L527.1 31.6" stroke="#e0556b" stroke-width="1.6"/>
<circle cx="515.0" cy="35.5" r="3.4" fill="#2ec26b" opacity="0.85"/>
<path d="M387.7 231.0 L394.1 237.4 M387.7 237.4 L394.1 231.0" stroke="#e0556b" stroke-width="1.6"/>
<circle cx="419.8" cy="261.8" r="3.4" fill="#2ec26b" opacity="0.85"/>
<path d="M406.9 253.6 L413.3 260.0 M406.9 260.0 L413.3 253.6" stroke="#e0556b" stroke-width="1.6"/>
<path d="M518.8 270.0 L525.2 276.4 M518.8 276.4 L525.2 270.0" stroke="#e0556b" stroke-width="1.6"/>
<path d="M425.0 251.6 L431.4 258.0 M425.0 258.0 L431.4 251.6" stroke="#e0556b" stroke-width="1.6"/>
<path d="M353.6 169.7 L360.0 176.1 M353.6 176.1 L360.0 169.7" stroke="#e0556b" stroke-width="1.6"/>
<path d="M385.7 226.6 L392.1 233.0 M385.7 233.0 L392.1 226.6" stroke="#e0556b" stroke-width="1.6"/>
<path d="M397.9 247.2 L404.3 253.6 M397.9 253.6 L404.3 247.2" stroke="#e0556b" stroke-width="1.6"/>
<path d="M501.8 168.9 L508.2 175.3 M501.8 175.3 L508.2 168.9" stroke="#e0556b" stroke-width="1.6"/>
<path d="M472.9 268.0 L479.3 274.4 M472.9 274.4 L479.3 268.0" stroke="#e0556b" stroke-width="1.6"/>
<circle cx="458.2" cy="264.8" r="3.4" fill="#2ec26b" opacity="0.85"/>
<path d="M407.2 233.8 L413.6 240.2 M407.2 240.2 L413.6 233.8" stroke="#e0556b" stroke-width="1.6"/>
<circle cx="484.2" cy="139.5" r="3.4" fill="#2ec26b" opacity="0.85"/>
<circle cx="485.0" cy="271.2" r="3.4" fill="#2ec26b" opacity="0.85"/>
<circle cx="480.6" cy="157.1" r="3.4" fill="#2ec26b" opacity="0.85"/>
<path d="M396.3 234.4 L402.7 240.8 M396.3 240.8 L402.7 234.4" stroke="#e0556b" stroke-width="1.6"/>
<path d="M415.0 55.0 L421.4 61.4 M415.0 61.4 L421.4 55.0" stroke="#e0556b" stroke-width="1.6"/>
<circle cx="382.4" cy="215.5" r="3.4" fill="#2ec26b" opacity="0.85"/>
<circle cx="391.4" cy="82.4" r="3.4" fill="#2ec26b" opacity="0.85"/>
<path d="M397.4 224.6 L403.8 231.0 M397.4 231.0 L403.8 224.6" stroke="#e0556b" stroke-width="1.6"/>
<path d="M504.5 118.5 L510.9 124.9 M504.5 124.9 L510.9 118.5" stroke="#e0556b" stroke-width="1.6"/>
<path d="M507.0 130.6 L513.4 137.0 M507.0 137.0 L513.4 130.6" stroke="#e0556b" stroke-width="1.6"/>
<circle cx="372.2" cy="161.5" r="3.4" fill="#2ec26b" opacity="0.85"/>
<path d="M391.8 89.3 L398.2 95.7 M391.8 95.7 L398.2 89.3" stroke="#e0556b" stroke-width="1.6"/>
<path d="M474.2 158.9 L480.6 165.3 M474.2 165.3 L480.6 158.9" stroke="#e0556b" stroke-width="1.6"/>
<path d="M410.4 71.5 L416.8 77.9 M410.4 77.9 L416.8 71.5" stroke="#e0556b" stroke-width="1.6"/>
<circle cx="512.6" cy="162.3" r="3.4" fill="#2ec26b" opacity="0.85"/>
<circle cx="504.5" cy="143.7" r="3.4" fill="#2ec26b" opacity="0.85"/>
<circle cx="506.9" cy="140.2" r="3.4" fill="#2ec26b" opacity="0.85"/>
<circle cx="374.7" cy="141.6" r="3.4" fill="#2ec26b" opacity="0.85"/>
<path d="M378.5 202.3 L384.9 208.7 M378.5 208.7 L384.9 202.3" stroke="#e0556b" stroke-width="1.6"/>
<path d="M483.9 156.1 L490.3 162.5 M483.9 162.5 L490.3 156.1" stroke="#e0556b" stroke-width="1.6"/>
<circle cx="510.6" cy="36.1" r="3.4" fill="#2ec26b" opacity="0.85"/>
<circle cx="507.4" cy="146.5" r="3.4" fill="#2ec26b" opacity="0.85"/>
<path d="M360.6 152.5 L367.0 158.9 M360.6 158.9 L367.0 152.5" stroke="#e0556b" stroke-width="1.6"/>
<path d="M511.5 162.5 L517.9 168.9 M511.5 168.9 L517.9 162.5" stroke="#e0556b" stroke-width="1.6"/>
<path d="M401.2 225.8 L407.6 232.2 M401.2 232.2 L407.6 225.8" stroke="#e0556b" stroke-width="1.6"/>
<path d="M507.7 162.6 L514.1 169.0 M507.7 169.0 L514.1 162.6" stroke="#e0556b" stroke-width="1.6"/>
<path d="M408.8 236.0 L415.2 242.4 M408.8 242.4 L415.2 236.0" stroke="#e0556b" stroke-width="1.6"/>
<path d="M409.6 68.6 L416.0 75.0 M409.6 75.0 L416.0 68.6" stroke="#e0556b" stroke-width="1.6"/>
<path d="M457.4 260.8 L463.8 267.2 M457.4 267.2 L463.8 260.8" stroke="#e0556b" stroke-width="1.6"/>
<path d="M429.9 50.2 L436.3 56.6 M429.9 56.6 L436.3 50.2" stroke="#e0556b" stroke-width="1.6"/>
<circle cx="496.4" cy="145.9" r="3.4" fill="#2ec26b" opacity="0.85"/>
<path d="M411.2 231.0 L417.6 237.4 M411.2 237.4 L417.6 231.0" stroke="#e0556b" stroke-width="1.6"/>
<circle cx="445.3" cy="158.0" r="3.4" fill="#2ec26b" opacity="0.85"/>
<circle cx="428.7" cy="62.4" r="3.4" fill="#2ec26b" opacity="0.85"/>
<circle cx="509.0" cy="162.8" r="3.4" fill="#2ec26b" opacity="0.85"/>
<circle cx="393.0" cy="237.6" r="3.4" fill="#2ec26b" opacity="0.85"/>
<circle cx="506.6" cy="165.7" r="3.4" fill="#2ec26b" opacity="0.85"/>
<circle cx="509.0" cy="38.3" r="3.4" fill="#2ec26b" opacity="0.85"/>
<circle cx="510.6" cy="158.6" r="3.4" fill="#2ec26b" opacity="0.85"/>
<path d="M504.2 147.5 L510.6 153.9 M504.2 153.9 L510.6 147.5" stroke="#e0556b" stroke-width="1.6"/>
<path d="M511.5 156.1 L517.9 162.5 M511.5 162.5 L517.9 156.1" stroke="#e0556b" stroke-width="1.6"/>
<path d="M519.6 35.8 L526.0 42.2 M519.6 42.2 L526.0 35.8" stroke="#e0556b" stroke-width="1.6"/>
<circle cx="383.3" cy="117.3" r="3.4" fill="#2ec26b" opacity="0.85"/>
<path d="M409.3 75.6 L415.7 82.0 M409.3 82.0 L415.7 75.6" stroke="#e0556b" stroke-width="1.6"/>
<circle cx="441.7" cy="55.3" r="3.4" fill="#2ec26b" opacity="0.85"/>
<path d="M375.2 149.0 L381.6 155.4 M375.2 155.4 L381.6 149.0" stroke="#e0556b" stroke-width="1.6"/>
<path d="M382.0 105.7 L388.4 112.1 M382.0 112.1 L388.4 105.7" stroke="#e0556b" stroke-width="1.6"/>
<path d="M511.0 144.1 L517.4 150.5 M511.0 150.5 L517.4 144.1" stroke="#e0556b" stroke-width="1.6"/>
<path d="M514.2 139.1 L520.6 145.5 M514.2 145.5 L520.6 139.1" stroke="#e0556b" stroke-width="1.6"/>
<path d="M503.7 125.6 L510.1 132.0 M503.7 132.0 L510.1 125.6" stroke="#e0556b" stroke-width="1.6"/>
<path d="M379.6 102.1 L386.0 108.5 M379.6 108.5 L386.0 102.1" stroke="#e0556b" stroke-width="1.6"/>
<circle cx="514.2" cy="143.7" r="3.4" fill="#2ec26b" opacity="0.85"/>
<circle cx="503.7" cy="151.6" r="3.4" fill="#2ec26b" opacity="0.85"/>
<path d="M433.1 256.6 L439.5 263.0 M433.1 263.0 L439.5 256.6" stroke="#e0556b" stroke-width="1.6"/>
<circle cx="372.2" cy="170.1" r="3.4" fill="#2ec26b" opacity="0.85"/>
<circle cx="360.1" cy="144.4" r="3.4" fill="#2ec26b" opacity="0.85"/>
<path d="M474.5 126.3 L480.9 132.7 M474.5 132.7 L480.9 126.3" stroke="#e0556b" stroke-width="1.6"/>
<circle cx="487.9" cy="38.3" r="3.4" fill="#2ec26b" opacity="0.85"/>
<path d="M380.1 91.3 L386.5 97.7 M380.1 97.7 L386.5 91.3" stroke="#e0556b" stroke-width="1.6"/>
<circle cx="418.9" cy="252.5" r="3.4" fill="#2ec26b" opacity="0.85"/>
<path d="M337.1 195.9 L343.5 202.3 M337.1 202.3 L343.5 195.9" stroke="#e0556b" stroke-width="1.6"/>
<circle cx="505.3" cy="154.4" r="3.4" fill="#2ec26b" opacity="0.85"/>
<path d="M397.4 51.6 L403.8 58.0 M397.4 58.0 L403.8 51.6" stroke="#e0556b" stroke-width="1.6"/>
<path d="M472.9 196.8 L479.3 203.2 M472.9 203.2 L479.3 196.8" stroke="#e0556b" stroke-width="1.6"/>
<circle cx="508.5" cy="157.3" r="3.4" fill="#2ec26b" opacity="0.85"/>
<circle cx="368.2" cy="103.9" r="3.4" fill="#2ec26b" opacity="0.85"/>
<path d="M364.2 102.8 L370.6 109.2 M364.2 109.2 L370.6 102.8" stroke="#e0556b" stroke-width="1.6"/>
<circle cx="395.0" cy="60.5" r="3.4" fill="#2ec26b" opacity="0.85"/>
<circle cx="402.3" cy="68.3" r="3.4" fill="#2ec26b" opacity="0.85"/>
<circle cx="503.7" cy="171.5" r="3.4" fill="#2ec26b" opacity="0.85"/>
<circle cx="431.9" cy="53.2" r="3.4" fill="#2ec26b" opacity="0.85"/>
<circle cx="370.3" cy="180.6" r="3.4" fill="#2ec26b" opacity="0.85"/>
<path d="M481.5 146.8 L487.9 153.2 M481.5 153.2 L487.9 146.8" stroke="#e0556b" stroke-width="1.6"/>
<path d="M517.5 31.6 L523.9 38.0 M517.5 38.0 L523.9 31.6" stroke="#e0556b" stroke-width="1.6"/>
<path d="M433.1 255.2 L439.5 261.6 M433.1 261.6 L439.5 255.2" stroke="#e0556b" stroke-width="1.6"/>
<circle cx="360.9" cy="147.3" r="3.4" fill="#2ec26b" opacity="0.85"/>
<circle cx="433.1" cy="148.0" r="3.4" fill="#2ec26b" opacity="0.85"/>
<circle cx="367.4" cy="162.3" r="3.4" fill="#2ec26b" opacity="0.85"/>
<path d="M492.3 129.9 L498.7 136.3 M492.3 136.3 L498.7 129.9" stroke="#e0556b" stroke-width="1.6"/>
<path d="M498.8 117.8 L505.2 124.2 M498.8 124.2 L505.2 117.8" stroke="#e0556b" stroke-width="1.6"/>
<path d="M369.8 191.8 L376.2 198.2 M369.8 198.2 L376.2 191.8" stroke="#e0556b" stroke-width="1.6"/>
<path d="M515.5 270.0 L521.9 276.4 M515.5 276.4 L521.9 270.0" stroke="#e0556b" stroke-width="1.6"/>
<circle cx="507.4" cy="121.5" r="3.4" fill="#2ec26b" opacity="0.85"/>
<path d="M376.0 93.4 L382.4 99.8 M376.0 99.8 L382.4 93.4" stroke="#e0556b" stroke-width="1.6"/>
<circle cx="374.3" cy="140.8" r="3.4" fill="#2ec26b" opacity="0.85"/>
<circle cx="412.5" cy="68.1" r="3.4" fill="#2ec26b" opacity="0.85"/>
<path d="M377.6 211.6 L384.0 218.0 M377.6 218.0 L384.0 211.6" stroke="#e0556b" stroke-width="1.6"/>
<circle cx="378.7" cy="182.9" r="3.4" fill="#2ec26b" opacity="0.85"/>
<circle cx="362.5" cy="135.2" r="3.4" fill="#2ec26b" opacity="0.85"/>
<circle cx="457.4" cy="272.6" r="3.4" fill="#2ec26b" opacity="0.85"/>
<path d="M504.5 268.7 L510.9 275.1 M504.5 275.1 L510.9 268.7" stroke="#e0556b" stroke-width="1.6"/>
<circle cx="513.9" cy="170.7" r="3.4" fill="#2ec26b" opacity="0.85"/>
<path d="M409.3 243.6 L415.7 250.0 M409.3 250.0 L415.7 243.6" stroke="#e0556b" stroke-width="1.6"/>
<circle cx="514.7" cy="174.2" r="3.4" fill="#2ec26b" opacity="0.85"/>
<path d="M435.2 50.7 L441.6 57.1 M435.2 57.1 L441.6 50.7" stroke="#e0556b" stroke-width="1.6"/>
<circle cx="422.2" cy="51.8" r="3.4" fill="#2ec26b" opacity="0.85"/>
<circle cx="530.1" cy="236.2" r="3.4" fill="#2ec26b" opacity="0.85"/>
<path d="M513.1 269.3 L519.5 275.7 M513.1 275.7 L519.5 269.3" stroke="#e0556b" stroke-width="1.6"/>
</svg>