<svg xmlns="http://www.w3.org/2000/svg" width="560" height="300" font-family="sans-serif">
<rect x="0" y="0" width="560" height="300" fill="#1b1b1b"/>
<text x="20" y="16" fill="#ddd" font-size="13">S. Vidal (AGU) — 167 tiros, Clasificatorio</text>
<rect x="20" y="28" width="520" height="252" fill="none" stroke="#555"/>
<circle cx="511.8" cy="270.4" r="3.4" fill="#2ec26b" opacity="0.85"/>
<circle cx="519.9" cy="35.5" r="3.4" fill="#2ec26b" opacity="0.85"/>
<path d="M503.7 166.2 L510.1 172.6 M503.7 172.6 L510.1 166.2" stroke="#e0556b" stroke-width="1.6"/>
<path d="M519.1 191.1 L525.5 197.5 M519.1 197.5 L525.5 191.1" stroke="#e0556b" stroke-width="1.6"/>
<circle cx="370.6" cy="166.5" r="3.4" fill="#2ec26b" opacity="0.85"/>
<path d="M370.3 152.5 L376.7 158.9 M370.3 158.9 L376.7 152.5" stroke="#e0556b" stroke-width="1.6"/>
<path d="M490.4 167.5 L496.8 173.9 M490.4 173.9 L496.8 167.5" stroke="#e0556b" stroke-width="1.6"/>
<circle cx="508.2" cy="167.1" r="3.4" fill="#2ec26b" opacity="0.85"/>
<path d="M489.6 141.1 L496.0 147.5 M489.6 147.5 L496.0 141.1" stroke="#e0556b" stroke-width="1.6"/>
<path d="M477.7 265.8 L484.1 272.2 M477.7 272.2 L484.1 265.8" stroke="#e0556b" stroke-width="1.6"/>
<circle cx="438.8" cy="51.9" r="3.4" fill="#2ec26b" opacity="0.85"/>
<circle cx="521.2" cy="130.1" r="3.4" fill="#2ec26b" opacity="0.85"/>
<circle cx="514.7" cy="131.5" r="3.4" fill="#2ec26b" opacity="0.85"/>
<circle cx="504.1" cy="36.8" r="3.4" fill="#2ec26b" opacity="0.85"/>
<path d="M350.1 163.2 L356.5 169.6 M350.1 169.6 L356.5 163.2" stroke="#e0556b" stroke-width="1.6"/>
<circle cx="350.8" cy="159.3" r="3.4" fill="#2ec26b" opacity="0.85"/>
<circle cx="359.8" cy="145.0" r="3.4" fill="#2ec26b" opacity="0.85"/>
<path d="M421.5 253.6 L427.9 260.0 M421.5 260.0 L427.9 253.6" stroke="#e0556b" stroke-width="1.6"/>
<circle cx="391.4" cy="79.5" r="3.4" fill="#2ec26b" opacity="0.85"/>
<path d="M357.3 154.7 L363.7 161.1 M357.3 161.1 L363.7 154.7" stroke="#e0556b" stroke-width="1.6"/>
<path d="M481.0 149.1 L487.4 155.5 M481.0 155.5 L487.4 149.1" stroke="#e0556b" stroke-width="1.6"/>
<path d="M356.0 139.8 L362.4 146.2 M356.0 146.2 L362.4 139.8" stroke="#e0556b" stroke-width="1.6"/>
<circle cx="476.9" cy="271.2" r="3.4" fill="#2ec26b" opacity="0.85"/>
<path d="M505.6 150.8 L512.0 157.2 M505.6 157.2 L512.0 150.8" stroke="#e0556b" stroke-width="1.6"/>
<circle cx="508.5" cy="143.0" r="3.4" fill="#2ec26b" opacity="0.85"/>
<path d="M433.6 81.3 L440.0 87.7 M433.6 87.7 L440.0 81.3" stroke="#e0556b" stroke-width="1.6"/>
<circle cx="506.6" cy="165.0" r="3.4" fill="#2ec26b" opacity="0.85"/>
<path d="M380.1 196.6 L386.5 203.0 M380.1 203.0 L386.5 196.6" stroke="#e0556b" stroke-width="1.6"/>
<circle cx="383.3" cy="133.6" r="3.4" fill="#2ec26b" opacity="0.85"/>
<path d="M380.9 190.2 L387.3 196.6 M380.9 196.6 L387.3 190.2" stroke="#e0556b" stroke-width="1.6"/>
<circle cx="508.2" cy="93.8" r="3.4" fill="#2ec26b" opacity="0.85"/>
<path d="M506.6 152.5 L513.0 158.9 M506.6 158.9 L513.0 152.5" stroke="#e0556b" stroke-width="1.6"/>
<circle cx="487.1" cy="270.3" r="3.4" fill="#2ec26b" opacity="0.85"/>
<circle cx="509.0" cy="162.1" r="3.4" fill="#2ec26b" opacity="0.85"/>
<circle cx="413.3" cy="68.1" r="3.4" fill="#2ec26b" opacity="0.85"/>
<path d="M488.8 270.7 L495.2 277.1 M488.8 277.1 L495.2 270.7" stroke="#e0556b" stroke-width="1.6"/>
<circle cx="384.9" cy="218.4" r="3.4" fill="#2ec26b" opacity="0.85"/>
<path d="M444.5 37.3 L450.9 43.7 M444.5 43.7 L450.9 37.3" stroke="#e0556b" stroke-width="1.6"/>
<circle cx="401.4" cy="63.3" r="3.4" fill="#2ec26b" opacity="0.85"/>
<circle cx="397.4" cy="76.1" r="3.4" fill="#2ec26b" opacity="0.85"/>
<circle cx="388.5" cy="86.1" r="3.4" fill="#2ec26b" opacity="0.85"/>
<circle cx="403.9" cy="76.1" r="3.4" fill="#2ec26b" opacity="0.85"/>
<path d="M429.9 43.0 L436.3 49.4 M429.9 49.4 L436.3 43.0" stroke="#e0556b" stroke-width="1.6"/>
<circle cx="514.2" cy="158.0" r="3.4" fill="#2ec26b" opacity="0.85"/>
<circle cx="511.5" cy="139.3" r="3.4" fill="#2ec26b" opacity="0.85"/>
<path d="M500.9 174.6 L507.3 181.0 M500.9 181.0 L507.3 174.6" stroke="#e0556b" stroke-width="1.6"/>
<circle cx="461.2" cy="123.7" r="3.4" fill="#2ec26b" opacity="0.85"/>
<circle cx="522.8" cy="34.7" r="3.4" fill="#2ec26b" opacity="0.85"/>
<path d="M519.6 127.6 L526.0 134.0 M519.6 134.0 L526.0 127.6" stroke="#e0556b" stroke-width="1.6"/>
<circle cx="514.7" cy="132.2" r="3.4" fill="#2ec26b" opacity="0.85"/>
<circle cx="430.3" cy="253.2" r="3.4" fill="#2ec26b" opacity="0.85"/>
<path d="M506.6 130.4 L513.0 136.8 M506.6 136.8 L513.0 130.4" stroke="#e0556b" stroke-width="1.6"/>
<path d="M365.0 128.4 L371.4 134.8 M365.0 134.8 L371.4 128.4" stroke="#e0556b" stroke-width="1.6"/>
<circle cx="472.0" cy="268.3" r="3.4" fill="#2ec26b" opacity="0.85"/>
<circle cx="474.4" cy="271.2" r="3.4" fill="#2ec26b" opacity="0.85"/>
<circle cx="517.4" cy="180.1" r="3.4" fill="#2ec26b" opacity="0.85"/>
<circle cx="412.0" cy="234.2" r="3.4" fill="#2ec26b" opacity="0.85"/>
<path d="M478.6 155.5 L485.0 161.9 M478.6 161.9 L485.0 155.5" stroke="#e0556b" stroke-width="1.6"/>
<circle cx="520.3" cy="228.3" r="3.4" fill="#2ec26b" opacity="0.85"/>
<path d="M381.7 109.8 L388.1 116.2 M381.7 116.2 L388.1 109.8" stroke="#e0556b" stroke-width="1.6"/>
<path d="M459.6 262.8 L466.0 269.2 M459.6 269.2 L466.0 262.8" stroke="#e0556b" stroke-width="1.6"/>
<path d="M510.2 156.9 L516.6 163.3 M510.2 163.3 L516.6 156.9" stroke="#e0556b" stroke-width="1.6"/>
<circle cx="402.3" cy="227.0" r="3.4" fill="#2ec26b" opacity="0.85"/>
<circle cx="394.1" cy="214.2" r="3.4" fill="#2ec26b" opacity="0.85"/>
<path d="M387.7 206.7 L394.1 213.1 M387.7 213.1 L394.1 206.7" stroke="#e0556b" stroke-width="1.6"/>
<circle cx="468.8" cy="37.7" r="3.4" fill="#2ec26b" opacity="0.85"/>
<path d="M426.3 166.0 L432.7 172.4 M426.3 172.4 L432.7 166.0" stroke="#e0556b" stroke-width="1.6"/>
<path d="M505.0 33.6 L511.4 40.0 M505.0 40.0 L511.4 33.6" stroke="#e0556b" stroke-width="1.6"/>
<path d="M496.9 122.6 L503.3 129.0 M496.9 129.0 L503.3 122.6" stroke="#e0556b" stroke-width="1.6"/>
<circle cx="507.4" cy="145.0" r="3.4" fill="#2ec26b" opacity="0.85"/>
<path d="M518.0 133.3 L524.4 139.7 M518.0 139.7 L524.4 133.3" stroke="#e0556b" stroke-width="1.6"/>
<circle cx="419.8" cy="243.3" r="3.4" fill="#2ec26b" opacity="0.85"/>
<circle cx="419.8" cy="243.3" r="3.4" fill="#2ec26b" opacity="0.85"/>
<path d="M509.9 143.3 L516.3 149.7 M509.9 149.7 L516.3 143.3" stroke="#e0556b" stroke-width="1.6"/>
<circle cx="516.3" cy="147.9" r="3.4" fill="#2ec26b" opacity="0.85"/>
<path d="M373.6 150.4 L380.0 156.8 M373.6 156.8 L380.0 150.4" stroke="#e0556b" stroke-width="1.6"/>
<path d="M466.1 155.4 L472.5 161.8 M466.1 161.8 L472.5 155.4" stroke="#e0556b" stroke-width="1.6"/>
<circle cx="501.7" cy="157.9" r="3.4" fill="#2ec26b" opacity="0.85"/>
<circle cx="464.4" cy="160.0" r="3.4" fill="#2ec26b" opacity="0.85"/>
<path d="M354.9 139.0 L361.3 145.4 M354.9 145.4 L361.3 139.0" stroke="#e0556b" stroke-width="1.6"/>
<circle cx="388.9" cy="85.9" r="3.4" fill="#2ec26b" opacity="0.85"/>
<path d="M487.1 141.1 L493.5 147.5 M487.1 147.5 L493.5 141.1" stroke="#e0556b" stroke-width="1.6"/>
<path d="M374.4 213.0 L380.8 219.4 M374.4 219.4 L380.8 213.0" stroke="#e0556b" stroke-width="1.6"/>
<circle cx="371.4" cy="190.7" r="3.4" fill="#2ec26b" opacity="0.85"/>
<path d="M491.5 148.4 L497.9 154.8 M491.5 154.8 L497.9 148.4" stroke="#e0556b" stroke-width="1.6"/>
<path d="M522.3 156.9 L528.7 163.3 M522.3 163.3 L528.7 156.9" stroke="#e0556b" stroke-width="1.6"/>
<path d="M345.5 142.7 L351.9 149.1 M345.5 149.1 L351.9 142.7" stroke="#e0556b" stroke-width="1.6"/>
<circle cx="429.0" cy="249.1" r="3.4" fill="#2ec26b" opacity="0.85"/>
<path d="M416.9 60.1 L423.3 66.5 M416.9 66.5 L423.3 60.1" stroke="#e0556b" stroke-width="1.6"/>
<path d="M516.7 248.0 L523.1 254.4 M516.7 254.4 L523.1 248.0" stroke="#e0556b" stroke-width="1.6"/>
<circle cx="517.4" cy="35.5" r="3.4" fill="#2ec26b" opacity="0.85"/>
<path d="M423.1 55.7 L429.5 62.1 M423.1 62.1 L429.5 55.7" stroke="#e0556b" stroke-width="1.6"/>
<path d="M380.1 196.6 L386.5 203.0 M380.1 203.0 L386.5 196.6" stroke="#e0556b" stroke-width="1.6"/>
<circle cx="436.3" cy="255.5" r="3.4" fill="#2ec26b" opacity="0.85"/>
<circle cx="476.1" cy="180.8" r="3.4" fill="#2ec26b" opacity="0.85"/>
<path d="M482.6 145.5 L489.0 151.9 M482.6 151.9 L489.0 145.5" stroke="#e0556b" stroke-width="1.6"/>
<path d="M410.9 121.9 L417.3 128.3 M410.9 128.3 L417.3 121.9" stroke="#e0556b" stroke-width="1.6"/>
<circle cx="435.2" cy="112.3" r="3.4" fill="#2ec26b" opacity="0.85"/>
<path d="M505.8 183.1 L512.2 189.5 M505.8 189.5 L512.2 183.1" stroke="#e0556b" stroke-width="1.6"/>
<path d="M511.5 139.0 L517.9 145.4 M511.5 145.4 L517.9 139.0" stroke="#e0556b" stroke-width="1.6"/>
<path d="M374.7 170.5 L381.1 176.9 M374.7 176.9 L381.1 170.5" stroke="#e0556b" stroke-width="1.6"/>
<path d="M402.8 75.6 L409.2 82.0 M402.8 82.0 L409.2 75.6" stroke="#e0556b" stroke-width="1.6"/>
<path d="M448.2 99.1 L454.6 105.5 M448.2 105.5 L454.6 99.1" stroke="#e0556b" stroke-width="1.6"/>
<circle cx="474.1" cy="156.4" r="3.4" fill="#2ec26b" opacity="0.85"/>
<path d="M507.7 156.2 L514.1 162.6 M507.7 162.6 L514.1 156.2" stroke="#e0556b" stroke-width="1.6"/>
<path d="M501.3 136.3 L507.7 142.7 M501.3 142.7 L507.7 136.3" stroke="#e0556b" stroke-width="1.6"/>
<path d="M471.2 226.0 L477.6 232.4 M471.2 232.4 L477.6 226.0" stroke="#e0556b" stroke-width="1.6"/>
<path d="M446.1 128.4 L452.5 134.8 M446.1 134.8 L452.5 128.4" stroke="#e0556b" stroke-width="1.6"/>
<path d="M391.8 207.5 L398.2 213.9 M391.8 213.9 L398.2 207.5" stroke="#e0556b" stroke-width="1.6"/>
<path d="M376.3 144.1 L382.7 150.5 M376.3 150.5 L382.7 144.1" stroke="#e0556b" stroke-width="1.6"/>
<circle cx="427.4" cy="248.4" r="3.4" fill="#2ec26b" opacity="0.85"/>
<circle cx="406.8" cy="233.3" r="3.4" fill="#2ec26b" opacity="0.85"/>
<path d="M449.9 48.6 L456.3 55.0 M449.9 55.0 L456.3 48.6" stroke="#e0556b" stroke-width="1.6"/>
<circle cx="490.3" cy="270.3" r="3.4" fill="#2ec26b" opacity="0.85"/>
<path d="M503.7 107.1 L510.1 113.5 M503.7 113.5 L510.1 107.1" stroke="#e0556b" stroke-width="1.6"/>
<circle cx="511.8" cy="145.9" r="3.4" fill="#2ec26b" opacity="0.85"/>
<path d="M430.7 127.7 L437.1 134.1 M430.7 134.1 L437.1 127.7" stroke="#e0556b" stroke-width="1.6"/>
<path d="M513.1 145.4 L519.5 151.8 M513.1 151.8 L519.5 145.4" stroke="#e0556b" stroke-width="1.6"/>
<circle cx="388.9" cy="202.0" r="3.4" fill="#2ec26b" opacity="0.85"/>
<path d="M524.5 33.6 L530.9 40.0 M524.5 40.0 L530.9 33.6" stroke="#e0556b" stroke-width="1.6"/>
<path d="M485.5 164.6 L491.9 171.0 M485.5 171.0 L491.9 164.6" stroke="#e0556b" stroke-width="1.6"/>
<path d="M412.5 258.6 L418.9 265.0 M412.5 265.0 L418.9 258.6" stroke="#e0556b" stroke-width="1.6"/>
<path d="M369.5 142.5 L375.9 148.9 M369.5 148.9 L375.9 142.5" stroke="#e0556b" stroke-width="1.6"/>
<circle cx="503.3" cy="176.4" r="3.4" fill="#2ec26b" opacity="0.85"/>
<circle cx="428.7" cy="162.1" r="3.4" fill="#2ec26b" opacity="0.85"/>
<path d="M407.6 69.2 L414.0 75.6 M407.6 75.6 L414.0 69.2" stroke="#e0556b" stroke-width="1.6"/>
<path d="M412.5 249.3 L418.9 255.7 M412.5 255.7 L418.9 249.3" stroke="#e0556b" stroke-width="1.6"/>
<path d="M413.4 236.5 L419.8 242.9 M413.4 242.9 L419.8 236.5" stroke="#e0556b" stroke-width="1.6"/>
<path d="M417.4 246.5 L423.8 252.9 M417.4 252.9 L423.8 246.5" stroke="#e0556b" stroke-width="1.6"/>
<circle cx="442.8" cy="46.2" r="3.4" fill="#2ec26b" opacity="0.85"/>
<path d="M410.4 66.5 L416.8 72.9 M410.4 72.9 L416.8 66.5" stroke="#e0556b" stroke-width="1.6"/>
<path d="M506.1 176.2 L512.5 182.6 M506.1 182.6 L512.5 176.2" stroke="#e0556b" stroke-width="1.6"/>
<circle cx="387.6" cy="200.0" r="3.4" fill="#2ec26b" opacity="0.85"/>
<circle cx="512.2" cy="156.4" r="3.4" fill="#2ec26b" opacity="0.85"/>
<path d="M419.8 244.3 L426.2 250.7 M419.8 250.7 L426.2 244.3" stroke="#e0556b" stroke-width="1.6"/>
<path d="M373.6 157.5 L380.0 163.9 M373.6 163.9 L380.0 157.5" stroke="#e0556b" stroke-width="1.6"/>
<circle cx="516.3" cy="155.0" r="3.4" fill="#2ec26b" opacity="0.85"/>
<circle cx="451.4" cy="230.5" r="3.4" fill="#2ec26b" opacity="0.85"/>
<path d="M503.4 156.1 L509.8 162.5 M503.4 162.5 L509.8 156.1" stroke="#e0556b" stroke-width="1.6"/>
<circle cx="388.2" cy="106.6" r="3.4" fill="#2ec26b" opacity="0.85"/>
<circle cx="375.2" cy="154.3" r="3.4" fill="#2ec26b" opacity="0.85"/>
<path d="M500.9 147.5 L507.3 153.9 M500.9 153.9 L507.3 147.5" stroke="#e0556b" stroke-width="1.6"/>
<path d="M497.7 149.7 L504.1 156.1 M497.7 156.1 L504.1 149.7" stroke="#e0556b" stroke-width="1.6"/>
<circle cx="471.2" cy="121.0" r="3.4" fill="#2ec26b" opacity="0.85"/>
<path d="M432.0 113.4 L438.4 119.8 M432.0 119.8 L438.4 113.4" stroke="#e0556b" stroke-width="1.6"/>
<path d="M514.8 76.3 L521.2 82.7 M514.8 82.7 L521.2 76.3" stroke="#e0556b" stroke-width="1.6"/>
<path d="M490.4 107.7 L496.8 114.1 M490.4 114.1 L496.8 107.7" stroke="#e0556b" stroke-width="1.6"/>
<path d="M393.9 64.9 L400.3 71.3 M393.9 71.3 L400.3 64.9" stroke="#e0556b" stroke-width="1.6"/>
<circle cx="449.3" cy="137.3" r="3.4" fill="#2ec26b" opacity="0.85"/>
<circle cx="402.3" cy="81.1" r="3.4" fill="#2ec26b" opacity="0.85"/>
<circle cx="425.0" cy="61.2" r="3.4" fill="#2ec26b" opacity="0.85"/>
<path d="M387.7 98.6 L394.1 105.0 M387.7 105.0 L394.1 98.6" stroke="#e0556b" stroke-width="1.6"/>
<circle cx="449.3" cy="116.7" r="3.4" fill="#2ec26b" opacity="0.85"/>
<path d="M503.7 185.4 L510.1 191.8 M503.7 191.8 L510.1 185.4" stroke="#e0556b" stroke-width="1.6"/>
<circle cx="503.7" cy="189.3" r="3.4" fill="#2ec26b" opacity="0.85"/>
<circle cx="493.9" cy="172.2" r="3.4" fill="#2ec26b" opacity="0.85"/>
<path d="M369.0 163.3 L375.4 169.7 M369.0 169.7 L375.4 163.3" stroke="#e0556b" stroke-width="1.6"/>
<circle cx="377.9" cy="157.3" r="3.4" fill="#2ec26b" opacity="0.85"/>
<path d="M321.2 70.8 L327.6 77.2 M321.2 77.2 L327.6 70.8" stroke="#e0556b" stroke-width="1.6"/>
<path d="M379.2 103.4 L385.6 109.8 M379.2 109.8 L385.6 103.4" stroke="#e0556b" stroke-width="1.6"/>
<circle cx="379.2" cy="145.7" r="3.4" fill="#2ec26b" opacity="0.85"/>
<circle cx="506.6" cy="133.6" r="3.4" fill="#2ec26b" opacity="0.85"/>
<circle cx="435.2" cy="47.2" r="3.4" fill="#2ec26b" opacity="0.85"/>
<path d="M391.4 93.4 L397.8 99.8 M391.4 99.8 L397.8 93.4" stroke="#e0556b" stroke-width="1.6"/>
<path d="M458.0 162.5 L464.4 168.9 M458.0 168.9 L464.4 162.5" stroke="#e0556b" stroke-width="1.6"/>
<path d="M372.0 157.5 L378.4 163.9 M372.0 163.9 L378.4 157.5" stroke="#e0556b" stroke-width="1.6"/>
<path d="M533.4 139.7 L539.8 146.1 M533.4 146.1 L539.8 139.7" stroke="#e0556b" stroke-width="1.6"/>
</svg>