<svg xmlns="http://www.w3.org/2000/svg" width="560" height="300" font-family="sans-serif">
<rect x="0" y="0" width="560" height="300" fill="#1b1b1b"/>
<text x="20" y="16" fill="#ddd" font-size="13">T. Metzger (DSC) — 213 tiros, Clasificatorio</text>
<rect x="20" y="28" width="520" height="252" fill="none" stroke="#555"/>
<circle cx="497.7" cy="167.8" r="3.4" fill="#2ec26b" opacity="0.85"/>
<circle cx="508.8" cy="154.0" r="3.4" fill="#2ec26b" opacity="0.85"/>
<circle cx="506.6" cy="273.2" r="3.4" fill="#2ec26b" opacity="0.85"/>
<path d="M375.2 232.2 L381.6 238.6 M375.2 238.6 L381.6 232.2" stroke="#e0556b" stroke-width="1.6"/>
<circle cx="508.5" cy="153.7" r="3.4" fill="#2ec26b" opacity="0.85"/>
<path d="M404.7 54.4 L411.1 60.8 M404.7 60.8 L411.1 54.4" stroke="#e0556b" stroke-width="1.6"/>
<path d="M485.1 134.1 L491.5 140.5 M485.1 140.5 L491.5 134.1" stroke="#e0556b" stroke-width="1.6"/>
<circle cx="423.4" cy="50.5" r="3.4" fill="#2ec26b" opacity="0.85"/>
<circle cx="396.6" cy="66.9" r="3.4" fill="#2ec26b" opacity="0.85"/>
<path d="M524.0 34.5 L530.4 40.9 M524.0 40.9 L530.4 34.5" stroke="#e0556b" stroke-width="1.6"/>
<circle cx="508.8" cy="154.0" r="3.4" fill="#2ec26b" opacity="0.85"/>
<path d="M395.5 55.0 L401.9 61.4 M395.5 61.4 L401.9 55.0" stroke="#e0556b" stroke-width="1.6"/>
<circle cx="433.6" cy="50.4" r="3.4" fill="#2ec26b" opacity="0.85"/>
<circle cx="519.6" cy="140.8" r="3.4" fill="#2ec26b" opacity="0.85"/>
<path d="M500.1 161.8 L506.5 168.2 M500.1 168.2 L506.5 161.8" stroke="#e0556b" stroke-width="1.6"/>
<circle cx="514.2" cy="164.4" r="3.4" fill="#2ec26b" opacity="0.85"/>
<path d="M425.0 250.9 L431.4 257.3 M425.0 257.3 L431.4 250.9" stroke="#e0556b" stroke-width="1.6"/>
<circle cx="516.7" cy="90.4" r="3.4" fill="#2ec26b" opacity="0.85"/>
<path d="M515.9 266.5 L522.3 272.9 M515.9 272.9 L522.3 266.5" stroke="#e0556b" stroke-width="1.6"/>
<path d="M394.2 247.3 L400.6 253.7 M394.2 253.7 L400.6 247.3" stroke="#e0556b" stroke-width="1.6"/>
<circle cx="496.0" cy="110.9" r="3.4" fill="#2ec26b" opacity="0.85"/>
<path d="M471.7 148.2 L478.1 154.6 M471.7 154.6 L478.1 148.2" stroke="#e0556b" stroke-width="1.6"/>
<circle cx="368.7" cy="142.9" r="3.4" fill="#2ec26b" opacity="0.85"/>
<path d="M462.8 139.7 L469.2 146.1 M462.8 146.1 L469.2 139.7" stroke="#e0556b" stroke-width="1.6"/>
<circle cx="455.4" cy="36.8" r="3.4" fill="#2ec26b" opacity="0.85"/>
<circle cx="491.2" cy="148.6" r="3.4" fill="#2ec26b" opacity="0.85"/>
<circle cx="464.4" cy="42.5" r="3.4" fill="#2ec26b" opacity="0.85"/>
<circle cx="510.9" cy="151.6" r="3.4" fill="#2ec26b" opacity="0.85"/>
<path d="M512.6 34.5 L519.0 40.9 M512.6 40.9 L519.0 34.5" stroke="#e0556b" stroke-width="1.6"/>
<path d="M494.0 127.0 L500.4 133.4 M494.0 133.4 L500.4 127.0" stroke="#e0556b" stroke-width="1.6"/>
<path d="M520.7 32.3 L527.1 38.7 M520.7 38.7 L527.1 32.3" stroke="#e0556b" stroke-width="1.6"/>
<circle cx="514.2" cy="271.9" r="3.4" fill="#2ec26b" opacity="0.85"/>
<circle cx="400.6" cy="51.9" r="3.4" fill="#2ec26b" opacity="0.85"/>
<circle cx="407.1" cy="63.3" r="3.4" fill="#2ec26b" opacity="0.85"/>
<circle cx="446.0" cy="158.0" r="3.4" fill="#2ec26b" opacity="0.85"/>
<circle cx="509.8" cy="191.3" r="3.4" fill="#2ec26b" opacity="0.85"/>
<path d="M507.4 141.8 L513.8 148.2 M507.4 148.2 L513.8 141.8" stroke="#e0556b" stroke-width="1.6"/>
<path d="M399.1 60.1 L405.5 66.5 M399.1 66.5 L405.5 60.1" stroke="#e0556b" stroke-width="1.6"/>
<circle cx="515.8" cy="184.3" r="3.4" fill="#2ec26b" opacity="0.85"/>
<path d="M495.6 127.7 L502.0 134.1 M495.6 134.1 L502.0 127.7" stroke="#e0556b" stroke-width="1.6"/>
<path d="M491.2 230.1 L497.6 236.5 M491.2 236.5 L497.6 230.1" stroke="#e0556b" stroke-width="1.6"/>
<circle cx="508.2" cy="166.4" r="3.4" fill="#2ec26b" opacity="0.85"/>
<circle cx="482.2" cy="96.6" r="3.4" fill="#2ec26b" opacity="0.85"/>
<path d="M376.8 104.8 L383.2 111.2 M376.8 111.2 L383.2 104.8" stroke="#e0556b" stroke-width="1.6"/>
<path d="M399.1 60.1 L405.5 66.5 M399.1 66.5 L405.5 60.1" stroke="#e0556b" stroke-width="1.6"/>
<path d="M391.8 227.4 L398.2 233.8 M391.8 233.8 L398.2 227.4" stroke="#e0556b" stroke-width="1.6"/>
<path d="M381.2 213.2 L387.6 219.6 M381.2 219.6 L387.6 213.2" stroke="#e0556b" stroke-width="1.6"/>
<path d="M410.1 70.6 L416.5 77.0 M410.1 77.0 L416.5 70.6" stroke="#e0556b" stroke-width="1.6"/>
<path d="M432.8 52.1 L439.2 58.5 M432.8 58.5 L439.2 52.1" stroke="#e0556b" stroke-width="1.6"/>
<circle cx="432.8" cy="50.4" r="3.4" fill="#2ec26b" opacity="0.85"/>
<circle cx="369.0" cy="161.5" r="3.4" fill="#2ec26b" opacity="0.85"/>
<path d="M425.8 166.9 L432.2 173.3 M425.8 173.3 L432.2 166.9" stroke="#e0556b" stroke-width="1.6"/>
<path d="M391.8 80.0 L398.2 86.4 M391.8 86.4 L398.2 80.0" stroke="#e0556b" stroke-width="1.6"/>
<circle cx="509.3" cy="37.0" r="3.4" fill="#2ec26b" opacity="0.85"/>
<circle cx="452.5" cy="47.7" r="3.4" fill="#2ec26b" opacity="0.85"/>
<path d="M494.8 127.0 L501.2 133.4 M494.8 133.4 L501.2 127.0" stroke="#e0556b" stroke-width="1.6"/>
<path d="M377.9 58.7 L384.3 65.1 M377.9 65.1 L384.3 58.7" stroke="#e0556b" stroke-width="1.6"/>
<circle cx="472.0" cy="137.3" r="3.4" fill="#2ec26b" opacity="0.85"/>
<path d="M355.3 142.7 L361.7 149.1 M355.3 149.1 L361.7 142.7" stroke="#e0556b" stroke-width="1.6"/>
<path d="M406.3 236.7 L412.7 243.1 M406.3 243.1 L412.7 236.7" stroke="#e0556b" stroke-width="1.6"/>
<circle cx="450.9" cy="47.7" r="3.4" fill="#2ec26b" opacity="0.85"/>
<circle cx="513.1" cy="147.9" r="3.4" fill="#2ec26b" opacity="0.85"/>
<circle cx="406.8" cy="83.8" r="3.4" fill="#2ec26b" opacity="0.85"/>
<circle cx="507.4" cy="39.0" r="3.4" fill="#2ec26b" opacity="0.85"/>
<path d="M401.2 230.1 L407.6 236.5 M401.2 236.5 L407.6 230.1" stroke="#e0556b" stroke-width="1.6"/>
<circle cx="433.6" cy="258.2" r="3.4" fill="#2ec26b" opacity="0.85"/>
<circle cx="513.1" cy="153.6" r="3.4" fill="#2ec26b" opacity="0.85"/>
<path d="M462.0 148.2 L468.4 154.6 M462.0 154.6 L468.4 148.2" stroke="#e0556b" stroke-width="1.6"/>
<circle cx="510.2" cy="140.2" r="3.4" fill="#2ec26b" opacity="0.85"/>
<circle cx="446.0" cy="41.2" r="3.4" fill="#2ec26b" opacity="0.85"/>
<path d="M472.9 117.1 L479.3 123.5 M472.9 123.5 L479.3 117.1" stroke="#e0556b" stroke-width="1.6"/>
<circle cx="511.8" cy="145.9" r="3.4" fill="#2ec26b" opacity="0.85"/>
<circle cx="461.2" cy="151.4" r="3.4" fill="#2ec26b" opacity="0.85"/>
<circle cx="362.2" cy="213.4" r="3.4" fill="#2ec26b" opacity="0.85"/>
<circle cx="480.6" cy="138.6" r="3.4" fill="#2ec26b" opacity="0.85"/>
<circle cx="495.2" cy="125.1" r="3.4" fill="#2ec26b" opacity="0.85"/>
<path d="M385.3 54.4 L391.7 60.8 M385.3 60.8 L391.7 54.4" stroke="#e0556b" stroke-width="1.6"/>
<path d="M472.9 120.6 L479.3 127.0 M472.9 127.0 L479.3 120.6" stroke="#e0556b" stroke-width="1.6"/>
<path d="M347.9 153.4 L354.3 159.8 M347.9 159.8 L354.3 153.4" stroke="#e0556b" stroke-width="1.6"/>
<circle cx="494.7" cy="159.4" r="3.4" fill="#2ec26b" opacity="0.85"/>
<path d="M384.4 68.6 L390.8 75.0 M384.4 75.0 L390.8 68.6" stroke="#e0556b" stroke-width="1.6"/>
<path d="M505.6 150.8 L512.0 157.2 M505.6 157.2 L512.0 150.8" stroke="#e0556b" stroke-width="1.6"/>
<path d="M416.1 40.9 L422.5 47.3 M416.1 47.3 L422.5 40.9" stroke="#e0556b" stroke-width="1.6"/>
<circle cx="422.5" cy="256.9" r="3.4" fill="#2ec26b" opacity="0.85"/>
<circle cx="526.1" cy="36.8" r="3.4" fill="#2ec26b" opacity="0.85"/>
<path d="M490.4 146.1 L496.8 152.5 M490.4 152.5 L496.8 146.1" stroke="#e0556b" stroke-width="1.6"/>
<circle cx="380.0" cy="155.7" r="3.4" fill="#2ec26b" opacity="0.85"/>
<circle cx="373.9" cy="156.6" r="3.4" fill="#2ec26b" opacity="0.85"/>
<path d="M490.7 127.7 L497.1 134.1 M490.7 134.1 L497.1 127.7" stroke="#e0556b" stroke-width="1.6"/>
<circle cx="517.4" cy="168.7" r="3.4" fill="#2ec26b" opacity="0.85"/>
<path d="M505.6 150.8 L512.0 157.2 M505.6 157.2 L512.0 150.8" stroke="#e0556b" stroke-width="1.6"/>
<circle cx="405.3" cy="166.4" r="3.4" fill="#2ec26b" opacity="0.85"/>
<path d="M426.6 252.3 L433.0 258.7 M426.6 258.7 L433.0 252.3" stroke="#e0556b" stroke-width="1.6"/>
<circle cx="507.7" cy="176.5" r="3.4" fill="#2ec26b" opacity="0.85"/>
<circle cx="510.9" cy="118.1" r="3.4" fill="#2ec26b" opacity="0.85"/>
<circle cx="514.2" cy="168.0" r="3.4" fill="#2ec26b" opacity="0.85"/>
<path d="M374.7 80.0 L381.1 86.4 M374.7 86.4 L381.1 80.0" stroke="#e0556b" stroke-width="1.6"/>
<circle cx="508.5" cy="141.6" r="3.4" fill="#2ec26b" opacity="0.85"/>
<circle cx="506.9" cy="159.4" r="3.4" fill="#2ec26b" opacity="0.85"/>
<path d="M387.7 82.2 L394.1 88.6 M387.7 88.6 L394.1 82.2" stroke="#e0556b" stroke-width="1.6"/>
<circle cx="496.0" cy="36.8" r="3.4" fill="#2ec26b" opacity="0.85"/>
<circle cx="404.4" cy="79.5" r="3.4" fill="#2ec26b" opacity="0.85"/>
<path d="M399.5 70.6 L405.9 77.0 M399.5 77.0 L405.9 70.6" stroke="#e0556b" stroke-width="1.6"/>
<path d="M412.5 241.5 L418.9 247.9 M412.5 247.9 L418.9 241.5" stroke="#e0556b" stroke-width="1.6"/>
<circle cx="444.9" cy="258.9" r="3.4" fill="#2ec26b" opacity="0.85"/>
<circle cx="509.8" cy="176.4" r="3.4" fill="#2ec26b" opacity="0.85"/>
<circle cx="513.1" cy="33.3" r="3.4" fill="#2ec26b" opacity="0.85"/>
<path d="M436.9 49.3 L443.3 55.7 M436.9 55.7 L443.3 49.3" stroke="#e0556b" stroke-width="1.6"/>
<circle cx="509.3" cy="269.7" r="3.4" fill="#2ec26b" opacity="0.85"/>
<path d="M426.6 52.3 L433.0 58.7 M426.6 58.7 L433.0 52.3" stroke="#e0556b" stroke-width="1.6"/>
<path d="M387.5 212.7 L393.9 219.1 M387.5 219.1 L393.9 212.7" stroke="#e0556b" stroke-width="1.6"/>
<path d="M491.4 130.9 L497.8 137.3 M491.4 137.3 L497.8 130.9" stroke="#e0556b" stroke-width="1.6"/>
<path d="M498.7 133.0 L505.1 139.4 M498.7 139.4 L505.1 133.0" stroke="#e0556b" stroke-width="1.6"/>
<path d="M456.5 39.7 L462.9 46.1 M456.5 46.1 L462.9 39.7" stroke="#e0556b" stroke-width="1.6"/>
<path d="M394.8 217.7 L401.2 224.1 M394.8 224.1 L401.2 217.7" stroke="#e0556b" stroke-width="1.6"/>
<circle cx="389.1" cy="212.4" r="3.4" fill="#2ec26b" opacity="0.85"/>
<path d="M437.8 149.4 L444.2 155.8 M437.8 155.8 L444.2 149.4" stroke="#e0556b" stroke-width="1.6"/>
<circle cx="473.5" cy="120.5" r="3.4" fill="#2ec26b" opacity="0.85"/>
<path d="M491.4 207.8 L497.8 214.2 M491.4 214.2 L497.8 207.8" stroke="#e0556b" stroke-width="1.6"/>
<path d="M299.9 243.0 L306.3 249.4 M299.9 249.4 L306.3 243.0" stroke="#e0556b" stroke-width="1.6"/>
<path d="M476.0 133.0 L482.4 139.4 M476.0 139.4 L482.4 133.0" stroke="#e0556b" stroke-width="1.6"/>
<circle cx="427.3" cy="253.7" r="3.4" fill="#2ec26b" opacity="0.85"/>
<path d="M384.3 98.8 L390.7 105.2 M384.3 105.2 L390.7 98.8" stroke="#e0556b" stroke-width="1.6"/>
<path d="M366.4 160.8 L372.8 167.2 M366.4 167.2 L372.8 160.8" stroke="#e0556b" stroke-width="1.6"/>
<path d="M453.2 175.0 L459.6 181.4 M453.2 181.4 L459.6 175.0" stroke="#e0556b" stroke-width="1.6"/>
<circle cx="440.2" cy="52.9" r="3.4" fill="#2ec26b" opacity="0.85"/>
<path d="M468.7 36.9 L475.1 43.3 M468.7 43.3 L475.1 36.9" stroke="#e0556b" stroke-width="1.6"/>
<path d="M414.3 240.5 L420.7 246.9 M414.3 246.9 L420.7 240.5" stroke="#e0556b" stroke-width="1.6"/>
<path d="M486.5 176.4 L492.9 182.8 M486.5 182.8 L492.9 176.4" stroke="#e0556b" stroke-width="1.6"/>
<path d="M280.4 232.7 L286.8 239.1 M280.4 239.1 L286.8 232.7" stroke="#e0556b" stroke-width="1.6"/>
<path d="M497.9 265.4 L504.3 271.8 M497.9 271.8 L504.3 265.4" stroke="#e0556b" stroke-width="1.6"/>
<path d="M382.7 226.2 L389.1 232.6 M382.7 232.6 L389.1 226.2" stroke="#e0556b" stroke-width="1.6"/>
<path d="M438.5 186.7 L444.9 193.1 M438.5 193.1 L444.9 186.7" stroke="#e0556b" stroke-width="1.6"/>
<circle cx="505.0" cy="170.7" r="3.4" fill="#2ec26b" opacity="0.85"/>
<circle cx="393.8" cy="239.7" r="3.4" fill="#2ec26b" opacity="0.85"/>
<path d="M479.9 136.1 L486.3 142.5 M479.9 142.5 L486.3 136.1" stroke="#e0556b" stroke-width="1.6"/>
<circle cx="442.5" cy="48.9" r="3.4" fill="#2ec26b" opacity="0.85"/>
<circle cx="397.9" cy="68.1" r="3.4" fill="#2ec26b" opacity="0.85"/>
<circle cx="380.0" cy="204.1" r="3.4" fill="#2ec26b" opacity="0.85"/>
<circle cx="488.7" cy="156.4" r="3.4" fill="#2ec26b" opacity="0.85"/>
<path d="M360.6 154.7 L367.0 161.1 M360.6 161.1 L367.0 154.7" stroke="#e0556b" stroke-width="1.6"/>
<path d="M515.1 33.1 L521.5 39.5 M515.1 39.5 L521.5 33.1" stroke="#e0556b" stroke-width="1.6"/>
<path d="M386.1 233.8 L392.5 240.2 M386.1 240.2 L392.5 233.8" stroke="#e0556b" stroke-width="1.6"/>
<path d="M387.7 242.4 L394.1 248.8 M387.7 248.8 L394.1 242.4" stroke="#e0556b" stroke-width="1.6"/>
<path d="M377.9 237.4 L384.3 243.8 M377.9 243.8 L384.3 237.4" stroke="#e0556b" stroke-width="1.6"/>
<circle cx="516.5" cy="52.9" r="3.4" fill="#2ec26b" opacity="0.85"/>
<path d="M459.7 36.9 L466.1 43.3 M459.7 43.3 L466.1 36.9" stroke="#e0556b" stroke-width="1.6"/>
<circle cx="521.3" cy="111.3" r="3.4" fill="#2ec26b" opacity="0.85"/>
<path d="M505.2 145.1 L511.6 151.5 M505.2 151.5 L511.6 145.1" stroke="#e0556b" stroke-width="1.6"/>
<circle cx="508.8" cy="154.0" r="3.4" fill="#2ec26b" opacity="0.85"/>
<path d="M441.9 227.0 L448.3 233.4 M441.9 233.4 L448.3 227.0" stroke="#e0556b" stroke-width="1.6"/>
<path d="M434.6 46.9 L441.0 53.3 M434.6 53.3 L441.0 46.9" stroke="#e0556b" stroke-width="1.6"/>
<path d="M503.5 34.0 L509.9 40.4 M503.5 40.4 L509.9 34.0" stroke="#e0556b" stroke-width="1.6"/>
<circle cx="460.5" cy="42.2" r="3.4" fill="#2ec26b" opacity="0.85"/>
<path d="M419.2 244.8 L425.6 251.2 M419.2 251.2 L425.6 244.8" stroke="#e0556b" stroke-width="1.6"/>
<circle cx="510.0" cy="144.8" r="3.4" fill="#2ec26b" opacity="0.85"/>
<path d="M494.6 267.6 L501.0 274.0 M494.6 274.0 L501.0 267.6" stroke="#e0556b" stroke-width="1.6"/>
<path d="M462.2 36.9 L468.6 43.3 M462.2 43.3 L468.6 36.9" stroke="#e0556b" stroke-width="1.6"/>
<path d="M438.6 45.4 L445.0 51.8 M438.6 51.8 L445.0 45.4" stroke="#e0556b" stroke-width="1.6"/>
<path d="M415.1 236.2 L421.5 242.6 M415.1 242.6 L421.5 236.2" stroke="#e0556b" stroke-width="1.6"/>
<path d="M437.7 255.7 L444.1 262.1 M437.7 262.1 L444.1 255.7" stroke="#e0556b" stroke-width="1.6"/>
<path d="M376.8 178.8 L383.2 185.2 M376.8 185.2 L383.2 178.8" stroke="#e0556b" stroke-width="1.6"/>
<path d="M502.6 33.6 L509.0 40.0 M502.6 40.0 L509.0 33.6" stroke="#e0556b" stroke-width="1.6"/>
<circle cx="477.4" cy="41.1" r="3.4" fill="#2ec26b" opacity="0.85"/>
<circle cx="451.8" cy="157.3" r="3.4" fill="#2ec26b" opacity="0.85"/>
<path d="M453.4 260.8 L459.8 267.2 M453.4 267.2 L459.8 260.8" stroke="#e0556b" stroke-width="1.6"/>
<path d="M446.1 46.6 L452.5 53.0 M446.1 53.0 L452.5 46.6" stroke="#e0556b" stroke-width="1.6"/>
<path d="M502.9 141.2 L509.3 147.6 M502.9 147.6 L509.3 141.2" stroke="#e0556b" stroke-width="1.6"/>
<path d="M400.7 228.8 L407.1 235.2 M400.7 235.2 L407.1 228.8" stroke="#e0556b" stroke-width="1.6"/>
<path d="M408.0 70.1 L414.4 76.5 M408.0 76.5 L414.4 70.1" stroke="#e0556b" stroke-width="1.6"/>
<circle cx="507.7" cy="215.6" r="3.4" fill="#2ec26b" opacity="0.85"/>
<circle cx="448.5" cy="51.2" r="3.4" fill="#2ec26b" opacity="0.85"/>
<path d="M415.3 60.8 L421.7 67.2 M415.3 67.2 L421.7 60.8" stroke="#e0556b" stroke-width="1.6"/>
<circle cx="505.3" cy="147.3" r="3.4" fill="#2ec26b" opacity="0.85"/>
<circle cx="511.8" cy="145.9" r="3.4" fill="#2ec26b" opacity="0.85"/>
<circle cx="518.3" cy="34.8" r="3.4" fill="#2ec26b" opacity="0.85"/>
<path d="M382.8 82.9 L389.2 89.3 M382.8 89.3 L389.2 82.9" stroke="#e0556b" stroke-width="1.6"/>
<path d="M377.2 47.3 L383.6 53.7 M377.2 53.7 L383.6 47.3" stroke="#e0556b" stroke-width="1.6"/>
<path d="M489.1 147.7 L495.5 154.1 M489.1 154.1 L495.5 147.7" stroke="#e0556b" stroke-width="1.6"/>
<circle cx="512.6" cy="129.5" r="3.4" fill="#2ec26b" opacity="0.85"/>
<circle cx="507.7" cy="151.6" r="3.4" fill="#2ec26b" opacity="0.85"/>
<circle cx="500.1" cy="149.3" r="3.4" fill="#2ec26b" opacity="0.85"/>
<path d="M360.6 156.8 L367.0 163.2 M360.6 163.2 L367.0 156.8" stroke="#e0556b" stroke-width="1.6"/>
<path d="M489.6 32.2 L496.0 38.6 M489.6 38.6 L496.0 32.2" stroke="#e0556b" stroke-width="1.6"/>
<path d="M503.4 274.2 L509.8 280.6 M503.4 280.6 L509.8 274.2" stroke="#e0556b" stroke-width="1.6"/>
<path d="M498.5 134.0 L504.9 140.4 M498.5 140.4 L504.9 134.0" stroke="#e0556b" stroke-width="1.6"/>
<circle cx="511.5" cy="145.0" r="3.4" fill="#2ec26b" opacity="0.85"/>
<circle cx="508.8" cy="154.0" r="3.4" fill="#2ec26b" opacity="0.85"/>
<path d="M519.6 60.0 L526.0 66.4 M519.6 66.4 L526.0 60.0" stroke="#e0556b" stroke-width="1.6"/>
<circle cx="513.9" cy="153.6" r="3.4" fill="#2ec26b" opacity="0.85"/>
<path d="M429.9 38.8 L436.3 45.2 M429.9 45.2 L436.3 38.8" stroke="#e0556b" stroke-width="1.6"/>
<circle cx="504.5" cy="180.1" r="3.4" fill="#2ec26b" opacity="0.85"/>
<circle cx="491.5" cy="160.1" r="3.4" fill="#2ec26b" opacity="0.85"/>
<path d="M445.3 256.6 L451.7 263.0 M445.3 263.0 L451.7 256.6" stroke="#e0556b" stroke-width="1.6"/>
<circle cx="400.6" cy="58.3" r="3.4" fill="#2ec26b" opacity="0.85"/>
<path d="M503.7 206.0 L510.1 212.4 M503.7 212.4 L510.1 206.0" stroke="#e0556b" stroke-width="1.6"/>
<circle cx="498.0" cy="138.8" r="3.4" fill="#2ec26b" opacity="0.85"/>
<path d="M407.2 236.0 L413.6 242.4 M407.2 242.4 L413.6 236.0" stroke="#e0556b" stroke-width="1.6"/>
<path d="M500.5 272.9 L506.9 279.3 M500.5 279.3 L506.9 272.9" stroke="#e0556b" stroke-width="1.6"/>
<circle cx="484.2" cy="140.9" r="3.4" fill="#2ec26b" opacity="0.85"/>
<circle cx="517.1" cy="35.4" r="3.4" fill="#2ec26b" opacity="0.85"/>
<path d="M501.9 148.7 L508.3 155.1 M501.9 155.1 L508.3 148.7" stroke="#e0556b" stroke-width="1.6"/>
<circle cx="517.3" cy="146.9" r="3.4" fill="#2ec26b" opacity="0.85"/>
<path d="M514.9 34.8 L521.3 41.2 M514.9 41.2 L521.3 34.8" stroke="#e0556b" stroke-width="1.6"/>
<path d="M411.9 49.7 L418.3 56.1 M411.9 56.1 L418.3 49.7" stroke="#e0556b" stroke-width="1.6"/>
<circle cx="431.1" cy="53.2" r="3.4" fill="#2ec26b" opacity="0.85"/>
<path d="M479.0 184.5 L485.4 190.9 M479.0 190.9 L485.4 184.5" stroke="#e0556b" stroke-width="1.6"/>
<circle cx="503.3" cy="127.9" r="3.4" fill="#2ec26b" opacity="0.85"/>
<circle cx="415.7" cy="68.1" r="3.4" fill="#2ec26b" opacity="0.85"/>
<path d="M519.1 178.3 L525.5 184.7 M519.1 184.7 L525.5 178.3" stroke="#e0556b" stroke-width="1.6"/>
<path d="M408.8 236.7 L415.2 243.1 M408.8 243.1 L415.2 236.7" stroke="#e0556b" stroke-width="1.6"/>
<path d="M478.6 150.5 L485.0 156.9 M478.6 156.9 L485.0 150.5" stroke="#e0556b" stroke-width="1.6"/>
<path d="M478.6 34.5 L485.0 40.9 M478.6 40.9 L485.0 34.5" stroke="#e0556b" stroke-width="1.6"/>
</svg>