<svg xmlns="http://www.w3.org/2000/svg" width="560" height="300" font-family="sans-serif">
<rect x="0" y="0" width="560" height="300" fill="#1b1b1b"/>
<text x="20" y="16" fill="#ddd" font-size="13">T. Prince (UAT) — 247 tiros, Clasificatorio</text>
<rect x="20" y="28" width="520" height="252" fill="none" stroke="#555"/>
<circle cx="511.8" cy="161.5" r="3.4" fill="#2ec26b" opacity="0.85"/>
<path d="M425.8 104.3 L432.2 110.7 M425.8 110.7 L432.2 104.3" stroke="#e0556b" stroke-width="1.6"/>
<path d="M519.1 270.8 L525.5 277.2 M519.1 277.2 L525.5 270.8" stroke="#e0556b" stroke-width="1.6"/>
<circle cx="517.4" cy="173.7" r="3.4" fill="#2ec26b" opacity="0.85"/>
<circle cx="511.8" cy="77.5" r="3.4" fill="#2ec26b" opacity="0.85"/>
<path d="M351.2 175.4 L357.6 181.8 M351.2 181.8 L357.6 175.4" stroke="#e0556b" stroke-width="1.6"/>
<path d="M503.4 136.1 L509.8 142.5 M503.4 142.5 L509.8 136.1" stroke="#e0556b" stroke-width="1.6"/>
<path d="M416.6 79.2 L423.0 85.6 M416.6 85.6 L423.0 79.2" stroke="#e0556b" stroke-width="1.6"/>
<circle cx="393.0" cy="244.7" r="3.4" fill="#2ec26b" opacity="0.85"/>
<path d="M359.0 119.0 L365.4 125.4 M359.0 125.4 L365.4 119.0" stroke="#e0556b" stroke-width="1.6"/>
<circle cx="518.7" cy="162.1" r="3.4" fill="#2ec26b" opacity="0.85"/>
<circle cx="513.4" cy="152.3" r="3.4" fill="#2ec26b" opacity="0.85"/>
<path d="M511.0 266.5 L517.4 272.9 M511.0 272.9 L517.4 266.5" stroke="#e0556b" stroke-width="1.6"/>
<path d="M407.2 239.5 L413.6 245.9 M407.2 245.9 L413.6 239.5" stroke="#e0556b" stroke-width="1.6"/>
<path d="M507.0 136.3 L513.4 142.7 M507.0 142.7 L513.4 136.3" stroke="#e0556b" stroke-width="1.6"/>
<circle cx="511.8" cy="154.4" r="3.4" fill="#2ec26b" opacity="0.85"/>
<path d="M393.1 242.9 L399.5 249.3 M393.1 249.3 L399.5 242.9" stroke="#e0556b" stroke-width="1.6"/>
<path d="M432.0 52.8 L438.4 59.2 M432.0 59.2 L438.4 52.8" stroke="#e0556b" stroke-width="1.6"/>
<circle cx="514.7" cy="155.7" r="3.4" fill="#2ec26b" opacity="0.85"/>
<circle cx="513.1" cy="156.4" r="3.4" fill="#2ec26b" opacity="0.85"/>
<path d="M507.4 155.4 L513.8 161.8 M507.4 161.8 L513.8 155.4" stroke="#e0556b" stroke-width="1.6"/>
<circle cx="500.0" cy="140.0" r="3.4" fill="#2ec26b" opacity="0.85"/>
<circle cx="501.2" cy="157.3" r="3.4" fill="#2ec26b" opacity="0.85"/>
<circle cx="521.5" cy="166.5" r="3.4" fill="#2ec26b" opacity="0.85"/>
<path d="M390.1 50.2 L396.5 56.6 M390.1 56.6 L396.5 50.2" stroke="#e0556b" stroke-width="1.6"/>
<path d="M523.2 32.3 L529.6 38.7 M523.2 38.7 L529.6 32.3" stroke="#e0556b" stroke-width="1.6"/>
<circle cx="488.3" cy="168.0" r="3.4" fill="#2ec26b" opacity="0.85"/>
<path d="M504.5 62.2 L510.9 68.6 M504.5 68.6 L510.9 62.2" stroke="#e0556b" stroke-width="1.6"/>
<circle cx="506.6" cy="165.0" r="3.4" fill="#2ec26b" opacity="0.85"/>
<path d="M425.5 247.9 L431.9 254.3 M425.5 254.3 L431.9 247.9" stroke="#e0556b" stroke-width="1.6"/>
<path d="M435.2 47.9 L441.6 54.3 M435.2 54.3 L441.6 47.9" stroke="#e0556b" stroke-width="1.6"/>
<circle cx="510.9" cy="159.4" r="3.4" fill="#2ec26b" opacity="0.85"/>
<circle cx="510.9" cy="157.3" r="3.4" fill="#2ec26b" opacity="0.85"/>
<circle cx="508.8" cy="154.0" r="3.4" fill="#2ec26b" opacity="0.85"/>
<circle cx="379.5" cy="177.2" r="3.4" fill="#2ec26b" opacity="0.85"/>
<circle cx="516.7" cy="148.7" r="3.4" fill="#2ec26b" opacity="0.85"/>
<path d="M482.6 225.3 L489.0 231.7 M482.6 231.7 L489.0 225.3" stroke="#e0556b" stroke-width="1.6"/>
<path d="M389.0 229.4 L395.4 235.8 M389.0 235.8 L395.4 229.4" stroke="#e0556b" stroke-width="1.6"/>
<circle cx="510.6" cy="155.7" r="3.4" fill="#2ec26b" opacity="0.85"/>
<circle cx="511.5" cy="156.4" r="3.4" fill="#2ec26b" opacity="0.85"/>
<circle cx="509.0" cy="154.3" r="3.4" fill="#2ec26b" opacity="0.85"/>
<path d="M503.4 156.1 L509.8 162.5 M503.4 162.5 L509.8 156.1" stroke="#e0556b" stroke-width="1.6"/>
<path d="M406.0 238.6 L412.4 245.0 M406.0 245.0 L412.4 238.6" stroke="#e0556b" stroke-width="1.6"/>
<circle cx="516.3" cy="157.1" r="3.4" fill="#2ec26b" opacity="0.85"/>
<circle cx="508.8" cy="154.0" r="3.4" fill="#2ec26b" opacity="0.85"/>
<circle cx="415.7" cy="241.8" r="3.4" fill="#2ec26b" opacity="0.85"/>
<circle cx="501.2" cy="168.0" r="3.4" fill="#2ec26b" opacity="0.85"/>
<path d="M478.6 133.4 L485.0 139.8 M478.6 139.8 L485.0 133.4" stroke="#e0556b" stroke-width="1.6"/>
<circle cx="506.9" cy="175.8" r="3.4" fill="#2ec26b" opacity="0.85"/>
<path d="M386.9 89.3 L393.3 95.7 M386.9 95.7 L393.3 89.3" stroke="#e0556b" stroke-width="1.6"/>
<circle cx="505.3" cy="148.7" r="3.4" fill="#2ec26b" opacity="0.85"/>
<circle cx="510.9" cy="160.1" r="3.4" fill="#2ec26b" opacity="0.85"/>
<path d="M287.1 55.1 L293.5 61.5 M287.1 61.5 L293.5 55.1" stroke="#e0556b" stroke-width="1.6"/>
<path d="M430.4 261.4 L436.8 267.8 M430.4 267.8 L436.8 261.4" stroke="#e0556b" stroke-width="1.6"/>
<path d="M500.9 171.0 L507.3 177.4 M500.9 177.4 L507.3 171.0" stroke="#e0556b" stroke-width="1.6"/>
<circle cx="435.2" cy="257.5" r="3.4" fill="#2ec26b" opacity="0.85"/>
<circle cx="512.2" cy="273.2" r="3.4" fill="#2ec26b" opacity="0.85"/>
<circle cx="474.9" cy="143.6" r="3.4" fill="#2ec26b" opacity="0.85"/>
<circle cx="499.3" cy="273.9" r="3.4" fill="#2ec26b" opacity="0.85"/>
<circle cx="484.0" cy="139.1" r="3.4" fill="#2ec26b" opacity="0.85"/>
<path d="M497.9 197.1 L504.3 203.5 M497.9 203.5 L504.3 197.1" stroke="#e0556b" stroke-width="1.6"/>
<circle cx="517.3" cy="189.6" r="3.4" fill="#2ec26b" opacity="0.85"/>
<path d="M484.9 171.4 L491.3 177.8 M484.9 177.8 L491.3 171.4" stroke="#e0556b" stroke-width="1.6"/>
<path d="M430.7 265.1 L437.1 271.5 M430.7 271.5 L437.1 265.1" stroke="#e0556b" stroke-width="1.6"/>
<circle cx="510.2" cy="145.9" r="3.4" fill="#2ec26b" opacity="0.85"/>
<path d="M460.7 37.3 L467.1 43.7 M460.7 43.7 L467.1 37.3" stroke="#e0556b" stroke-width="1.6"/>
<path d="M497.2 179.7 L503.6 186.1 M497.2 186.1 L503.6 179.7" stroke="#e0556b" stroke-width="1.6"/>
<circle cx="512.6" cy="145.9" r="3.4" fill="#2ec26b" opacity="0.85"/>
<circle cx="470.9" cy="136.5" r="3.4" fill="#2ec26b" opacity="0.85"/>
<path d="M417.4 47.9 L423.8 54.3 M417.4 54.3 L423.8 47.9" stroke="#e0556b" stroke-width="1.6"/>
<path d="M488.0 149.0 L494.4 155.4 M488.0 155.4 L494.4 149.0" stroke="#e0556b" stroke-width="1.6"/>
<path d="M395.5 224.4 L401.9 230.8 M395.5 230.8 L401.9 224.4" stroke="#e0556b" stroke-width="1.6"/>
<path d="M404.7 58.0 L411.1 64.4 M404.7 64.4 L411.1 58.0" stroke="#e0556b" stroke-width="1.6"/>
<circle cx="508.8" cy="154.0" r="3.4" fill="#2ec26b" opacity="0.85"/>
<circle cx="502.8" cy="145.9" r="3.4" fill="#2ec26b" opacity="0.85"/>
<path d="M498.0 151.2 L504.4 157.6 M498.0 157.6 L504.4 151.2" stroke="#e0556b" stroke-width="1.6"/>
<circle cx="508.8" cy="154.0" r="3.4" fill="#2ec26b" opacity="0.85"/>
<path d="M485.1 79.3 L491.5 85.7 M485.1 85.7 L491.5 79.3" stroke="#e0556b" stroke-width="1.6"/>
<path d="M505.6 150.8 L512.0 157.2 M505.6 157.2 L512.0 150.8" stroke="#e0556b" stroke-width="1.6"/>
<circle cx="505.8" cy="156.4" r="3.4" fill="#2ec26b" opacity="0.85"/>
<circle cx="487.1" cy="208.4" r="3.4" fill="#2ec26b" opacity="0.85"/>
<path d="M496.1 154.7 L502.5 161.1 M496.1 161.1 L502.5 154.7" stroke="#e0556b" stroke-width="1.6"/>
<path d="M501.8 269.3 L508.2 275.7 M501.8 275.7 L508.2 269.3" stroke="#e0556b" stroke-width="1.6"/>
<path d="M496.1 79.2 L502.5 85.6 M496.1 85.6 L502.5 79.2" stroke="#e0556b" stroke-width="1.6"/>
<path d="M494.5 161.1 L500.9 167.5 M494.5 167.5 L500.9 161.1" stroke="#e0556b" stroke-width="1.6"/>
<path d="M485.1 125.6 L491.5 132.0 M485.1 132.0 L491.5 125.6" stroke="#e0556b" stroke-width="1.6"/>
<circle cx="508.8" cy="154.0" r="3.4" fill="#2ec26b" opacity="0.85"/>
<circle cx="500.4" cy="168.7" r="3.4" fill="#2ec26b" opacity="0.85"/>
<path d="M428.7 114.8 L435.1 121.2 M428.7 121.2 L435.1 114.8" stroke="#e0556b" stroke-width="1.6"/>
<circle cx="522.8" cy="39.7" r="3.4" fill="#2ec26b" opacity="0.85"/>
<circle cx="504.1" cy="133.6" r="3.4" fill="#2ec26b" opacity="0.85"/>
<circle cx="500.1" cy="169.2" r="3.4" fill="#2ec26b" opacity="0.85"/>
<path d="M490.4 148.2 L496.8 154.6 M490.4 154.6 L496.8 148.2" stroke="#e0556b" stroke-width="1.6"/>
<circle cx="508.8" cy="154.0" r="3.4" fill="#2ec26b" opacity="0.85"/>
<circle cx="505.8" cy="157.9" r="3.4" fill="#2ec26b" opacity="0.85"/>
<circle cx="493.6" cy="131.5" r="3.4" fill="#2ec26b" opacity="0.85"/>
<path d="M515.5 271.4 L521.9 277.8 M515.5 277.8 L521.9 271.4" stroke="#e0556b" stroke-width="1.6"/>
<path d="M434.4 250.7 L440.8 257.1 M434.4 257.1 L440.8 250.7" stroke="#e0556b" stroke-width="1.6"/>
<path d="M499.3 143.3 L505.7 149.7 M499.3 149.7 L505.7 143.3" stroke="#e0556b" stroke-width="1.6"/>
<circle cx="508.8" cy="154.0" r="3.4" fill="#2ec26b" opacity="0.85"/>
<path d="M500.9 154.7 L507.3 161.1 M500.9 161.1 L507.3 154.7" stroke="#e0556b" stroke-width="1.6"/>
<path d="M402.8 233.0 L409.2 239.4 M402.8 239.4 L409.2 233.0" stroke="#e0556b" stroke-width="1.6"/>
<path d="M511.0 85.0 L517.4 91.4 M511.0 91.4 L517.4 85.0" stroke="#e0556b" stroke-width="1.6"/>
<path d="M486.7 268.0 L493.1 274.4 M486.7 274.4 L493.1 268.0" stroke="#e0556b" stroke-width="1.6"/>
<path d="M519.6 138.3 L526.0 144.7 M519.6 144.7 L526.0 138.3" stroke="#e0556b" stroke-width="1.6"/>
<circle cx="491.2" cy="139.3" r="3.4" fill="#2ec26b" opacity="0.85"/>
<circle cx="514.7" cy="132.9" r="3.4" fill="#2ec26b" opacity="0.85"/>
<path d="M430.4 198.1 L436.8 204.5 M430.4 204.5 L436.8 198.1" stroke="#e0556b" stroke-width="1.6"/>
<path d="M500.1 126.9 L506.5 133.3 M500.1 133.3 L506.5 126.9" stroke="#e0556b" stroke-width="1.6"/>
<circle cx="498.5" cy="142.2" r="3.4" fill="#2ec26b" opacity="0.85"/>
<path d="M466.9 87.0 L473.3 93.4 M466.9 93.4 L473.3 87.0" stroke="#e0556b" stroke-width="1.6"/>
<path d="M501.8 156.1 L508.2 162.5 M501.8 162.5 L508.2 156.1" stroke="#e0556b" stroke-width="1.6"/>
<circle cx="520.7" cy="171.5" r="3.4" fill="#2ec26b" opacity="0.85"/>
<path d="M524.8 268.7 L531.2 275.1 M524.8 275.1 L531.2 268.7" stroke="#e0556b" stroke-width="1.6"/>
<path d="M515.1 167.6 L521.5 174.0 M515.1 174.0 L521.5 167.6" stroke="#e0556b" stroke-width="1.6"/>
<circle cx="517.4" cy="134.5" r="3.4" fill="#2ec26b" opacity="0.85"/>
<path d="M415.3 62.2 L421.7 68.6 M415.3 68.6 L421.7 62.2" stroke="#e0556b" stroke-width="1.6"/>
<circle cx="508.5" cy="144.4" r="3.4" fill="#2ec26b" opacity="0.85"/>
<path d="M500.5 129.9 L506.9 136.3 M500.5 136.3 L506.9 129.9" stroke="#e0556b" stroke-width="1.6"/>
<circle cx="509.3" cy="167.2" r="3.4" fill="#2ec26b" opacity="0.85"/>
<circle cx="501.2" cy="150.9" r="3.4" fill="#2ec26b" opacity="0.85"/>
<path d="M374.7 174.0 L381.1 180.4 M374.7 180.4 L381.1 174.0" stroke="#e0556b" stroke-width="1.6"/>
<path d="M504.2 164.6 L510.6 171.0 M504.2 171.0 L510.6 164.6" stroke="#e0556b" stroke-width="1.6"/>
<circle cx="501.7" cy="153.6" r="3.4" fill="#2ec26b" opacity="0.85"/>
<path d="M379.2 180.3 L385.6 186.7 M379.2 186.7 L385.6 180.3" stroke="#e0556b" stroke-width="1.6"/>
<path d="M466.1 140.4 L472.5 146.8 M466.1 146.8 L472.5 140.4" stroke="#e0556b" stroke-width="1.6"/>
<circle cx="513.1" cy="155.7" r="3.4" fill="#2ec26b" opacity="0.85"/>
<circle cx="482.2" cy="165.0" r="3.4" fill="#2ec26b" opacity="0.85"/>
<circle cx="509.8" cy="150.7" r="3.4" fill="#2ec26b" opacity="0.85"/>
<circle cx="504.1" cy="152.9" r="3.4" fill="#2ec26b" opacity="0.85"/>
<circle cx="509.0" cy="144.3" r="3.4" fill="#2ec26b" opacity="0.85"/>
<circle cx="513.4" cy="163.0" r="3.4" fill="#2ec26b" opacity="0.85"/>
<path d="M511.0 265.1 L517.4 271.5 M511.0 271.5 L517.4 265.1" stroke="#e0556b" stroke-width="1.6"/>
<circle cx="476.9" cy="74.7" r="3.4" fill="#2ec26b" opacity="0.85"/>
<path d="M499.6 171.2 L506.0 177.6 M499.6 177.6 L506.0 171.2" stroke="#e0556b" stroke-width="1.6"/>
<circle cx="507.7" cy="165.8" r="3.4" fill="#2ec26b" opacity="0.85"/>
<path d="M449.0 257.9 L455.4 264.3 M449.0 264.3 L455.4 257.9" stroke="#e0556b" stroke-width="1.6"/>
<circle cx="509.0" cy="152.2" r="3.4" fill="#2ec26b" opacity="0.85"/>
<circle cx="380.0" cy="164.3" r="3.4" fill="#2ec26b" opacity="0.85"/>
<path d="M400.4 230.1 L406.8 236.5 M400.4 236.5 L406.8 230.1" stroke="#e0556b" stroke-width="1.6"/>
<circle cx="514.7" cy="156.4" r="3.4" fill="#2ec26b" opacity="0.85"/>
<path d="M394.7 80.6 L401.1 87.0 M394.7 87.0 L401.1 80.6" stroke="#e0556b" stroke-width="1.6"/>
<circle cx="502.5" cy="127.9" r="3.4" fill="#2ec26b" opacity="0.85"/>
<path d="M487.1 177.4 L493.5 183.8 M487.1 183.8 L493.5 177.4" stroke="#e0556b" stroke-width="1.6"/>
<circle cx="483.1" cy="174.2" r="3.4" fill="#2ec26b" opacity="0.85"/>
<circle cx="499.3" cy="171.4" r="3.4" fill="#2ec26b" opacity="0.85"/>
<circle cx="503.7" cy="180.1" r="3.4" fill="#2ec26b" opacity="0.85"/>
<path d="M478.4 210.6 L484.8 217.0 M478.4 217.0 L484.8 210.6" stroke="#e0556b" stroke-width="1.6"/>
<circle cx="514.1" cy="161.8" r="3.4" fill="#2ec26b" opacity="0.85"/>
<circle cx="508.4" cy="149.7" r="3.4" fill="#2ec26b" opacity="0.85"/>
<circle cx="523.8" cy="159.7" r="3.4" fill="#2ec26b" opacity="0.85"/>
<circle cx="527.0" cy="270.8" r="3.4" fill="#2ec26b" opacity="0.85"/>
<circle cx="359.1" cy="119.8" r="3.4" fill="#2ec26b" opacity="0.85"/>
<circle cx="509.2" cy="154.7" r="3.4" fill="#2ec26b" opacity="0.85"/>
<path d="M405.4 61.1 L411.8 67.5 M405.4 67.5 L411.8 61.1" stroke="#e0556b" stroke-width="1.6"/>
<circle cx="500.3" cy="154.7" r="3.4" fill="#2ec26b" opacity="0.85"/>
<circle cx="503.5" cy="146.9" r="3.4" fill="#2ec26b" opacity="0.85"/>
<path d="M382.7 241.9 L389.1 248.3 M382.7 248.3 L389.1 241.9" stroke="#e0556b" stroke-width="1.6"/>
<circle cx="462.9" cy="111.3" r="3.4" fill="#2ec26b" opacity="0.85"/>
<circle cx="506.7" cy="166.8" r="3.4" fill="#2ec26b" opacity="0.85"/>
<path d="M510.9 154.4 L517.3 160.8 M510.9 160.8 L517.3 154.4" stroke="#e0556b" stroke-width="1.6"/>
<circle cx="503.7" cy="171.5" r="3.4" fill="#2ec26b" opacity="0.85"/>
<circle cx="501.2" cy="159.4" r="3.4" fill="#2ec26b" opacity="0.85"/>
<path d="M488.3 76.5 L494.7 82.9 M488.3 82.9 L494.7 76.5" stroke="#e0556b" stroke-width="1.6"/>
<circle cx="506.9" cy="138.0" r="3.4" fill="#2ec26b" opacity="0.85"/>
<path d="M511.0 206.7 L517.4 213.1 M511.0 213.1 L517.4 206.7" stroke="#e0556b" stroke-width="1.6"/>
<path d="M517.5 174.0 L523.9 180.4 M517.5 180.4 L523.9 174.0" stroke="#e0556b" stroke-width="1.6"/>
<circle cx="507.7" cy="178.6" r="3.4" fill="#2ec26b" opacity="0.85"/>
<path d="M406.0 252.2 L412.4 258.6 M406.0 258.6 L412.4 252.2" stroke="#e0556b" stroke-width="1.6"/>
<circle cx="468.4" cy="153.6" r="3.4" fill="#2ec26b" opacity="0.85"/>
<circle cx="451.4" cy="73.8" r="3.4" fill="#2ec26b" opacity="0.85"/>
<path d="M519.6 36.5 L526.0 42.9 M519.6 42.9 L526.0 36.5" stroke="#e0556b" stroke-width="1.6"/>
<path d="M523.6 36.5 L530.0 42.9 M523.6 42.9 L530.0 36.5" stroke="#e0556b" stroke-width="1.6"/>
<circle cx="496.8" cy="127.9" r="3.4" fill="#2ec26b" opacity="0.85"/>
<circle cx="508.5" cy="275.4" r="3.4" fill="#2ec26b" opacity="0.85"/>
<circle cx="525.5" cy="274.0" r="3.4" fill="#2ec26b" opacity="0.85"/>
<circle cx="490.7" cy="177.2" r="3.4" fill="#2ec26b" opacity="0.85"/>
<path d="M429.9 50.9 L436.3 57.3 M429.9 57.3 L436.3 50.9" stroke="#e0556b" stroke-width="1.6"/>
<circle cx="517.4" cy="186.5" r="3.4" fill="#2ec26b" opacity="0.85"/>
<circle cx="466.3" cy="150.9" r="3.4" fill="#2ec26b" opacity="0.85"/>
<circle cx="480.1" cy="126.7" r="3.4" fill="#2ec26b" opacity="0.85"/>
<circle cx="506.6" cy="120.1" r="3.4" fill="#2ec26b" opacity="0.85"/>
<path d="M448.2 173.9 L454.6 180.3 M448.2 180.3 L454.6 173.9" stroke="#e0556b" stroke-width="1.6"/>
<circle cx="401.1" cy="71.0" r="3.4" fill="#2ec26b" opacity="0.85"/>
<circle cx="397.9" cy="231.9" r="3.4" fill="#2ec26b" opacity="0.85"/>
<circle cx="500.1" cy="35.4" r="3.4" fill="#2ec26b" opacity="0.85"/>
<circle cx="425.8" cy="106.0" r="3.4" fill="#2ec26b" opacity="0.85"/>
<circle cx="417.6" cy="66.2" r="3.4" fill="#2ec26b" opacity="0.85"/>
<path d="M403.9 67.9 L410.3 74.3 M403.9 74.3 L410.3 67.9" stroke="#e0556b" stroke-width="1.6"/>
<path d="M408.0 248.0 L414.4 254.4 M408.0 254.4 L414.4 248.0" stroke="#e0556b" stroke-width="1.6"/>
<circle cx="485.8" cy="175.8" r="3.4" fill="#2ec26b" opacity="0.85"/>
<circle cx="431.9" cy="253.9" r="3.4" fill="#2ec26b" opacity="0.85"/>
<circle cx="490.3" cy="178.5" r="3.4" fill="#2ec26b" opacity="0.85"/>
<circle cx="508.8" cy="154.0" r="3.4" fill="#2ec26b" opacity="0.85"/>
<path d="M480.6 173.2 L487.0 179.6 M480.6 179.6 L487.0 173.2" stroke="#e0556b" stroke-width="1.6"/>
<path d="M500.9 130.4 L507.3 136.8 M500.9 136.8 L507.3 130.4" stroke="#e0556b" stroke-width="1.6"/>
<path d="M508.6 171.9 L515.0 178.3 M508.6 178.3 L515.0 171.9" stroke="#e0556b" stroke-width="1.6"/>
<circle cx="491.5" cy="180.1" r="3.4" fill="#2ec26b" opacity="0.85"/>
<path d="M521.6 268.0 L528.0 274.4 M521.6 274.4 L528.0 268.0" stroke="#e0556b" stroke-width="1.6"/>
<circle cx="507.7" cy="133.1" r="3.4" fill="#2ec26b" opacity="0.85"/>
<path d="M411.2 65.8 L417.6 72.2 M411.2 72.2 L417.6 65.8" stroke="#e0556b" stroke-width="1.6"/>
<path d="M442.8 255.2 L449.2 261.6 M442.8 261.6 L449.2 255.2" stroke="#e0556b" stroke-width="1.6"/>
<circle cx="510.9" cy="151.6" r="3.4" fill="#2ec26b" opacity="0.85"/>
<circle cx="513.1" cy="159.3" r="3.4" fill="#2ec26b" opacity="0.85"/>
<circle cx="513.1" cy="155.0" r="3.4" fill="#2ec26b" opacity="0.85"/>
<circle cx="490.3" cy="187.7" r="3.4" fill="#2ec26b" opacity="0.85"/>
<path d="M402.8 255.7 L409.2 262.1 M402.8 262.1 L409.2 255.7" stroke="#e0556b" stroke-width="1.6"/>
<circle cx="513.1" cy="162.1" r="3.4" fill="#2ec26b" opacity="0.85"/>
<circle cx="392.2" cy="102.3" r="3.4" fill="#2ec26b" opacity="0.85"/>
<circle cx="509.0" cy="160.7" r="3.4" fill="#2ec26b" opacity="0.85"/>
<circle cx="380.8" cy="218.4" r="3.4" fill="#2ec26b" opacity="0.85"/>
<path d="M507.4 169.6 L513.8 176.0 M507.4 176.0 L513.8 169.6" stroke="#e0556b" stroke-width="1.6"/>
<path d="M405.2 75.6 L411.6 82.0 M405.2 82.0 L411.6 75.6" stroke="#e0556b" stroke-width="1.6"/>
<path d="M477.7 127.7 L484.1 134.1 M477.7 134.1 L484.1 127.7" stroke="#e0556b" stroke-width="1.6"/>
<path d="M504.5 145.5 L510.9 151.9 M504.5 151.9 L510.9 145.5" stroke="#e0556b" stroke-width="1.6"/>
<path d="M505.6 150.8 L512.0 157.2 M505.6 157.2 L512.0 150.8" stroke="#e0556b" stroke-width="1.6"/>
<path d="M520.7 265.8 L527.1 272.2 M520.7 272.2 L527.1 265.8" stroke="#e0556b" stroke-width="1.6"/>
<path d="M490.7 145.5 L497.1 151.9 M490.7 151.9 L497.1 145.5" stroke="#e0556b" stroke-width="1.6"/>
<circle cx="506.1" cy="151.6" r="3.4" fill="#2ec26b" opacity="0.85"/>
<path d="M403.9 67.2 L410.3 73.6 M403.9 73.6 L410.3 67.2" stroke="#e0556b" stroke-width="1.6"/>
<circle cx="508.5" cy="152.3" r="3.4" fill="#2ec26b" opacity="0.85"/>
<circle cx="508.5" cy="140.9" r="3.4" fill="#2ec26b" opacity="0.85"/>
<circle cx="505.3" cy="148.7" r="3.4" fill="#2ec26b" opacity="0.85"/>
<path d="M399.5 225.1 L405.9 231.5 M399.5 231.5 L405.9 225.1" stroke="#e0556b" stroke-width="1.6"/>
<circle cx="514.7" cy="161.4" r="3.4" fill="#2ec26b" opacity="0.85"/>
<path d="M384.1 237.2 L390.5 243.6 M384.1 243.6 L390.5 237.2" stroke="#e0556b" stroke-width="1.6"/>
<circle cx="512.2" cy="162.8" r="3.4" fill="#2ec26b" opacity="0.85"/>
<circle cx="514.7" cy="167.8" r="3.4" fill="#2ec26b" opacity="0.85"/>
<circle cx="508.8" cy="154.0" r="3.4" fill="#2ec26b" opacity="0.85"/>
<path d="M389.0 99.8 L395.4 106.2 M389.0 106.2 L395.4 99.8" stroke="#e0556b" stroke-width="1.6"/>
<circle cx="518.0" cy="152.9" r="3.4" fill="#2ec26b" opacity="0.85"/>
<circle cx="517.3" cy="220.9" r="3.4" fill="#2ec26b" opacity="0.85"/>
<path d="M398.9 63.2 L405.3 69.6 M398.9 69.6 L405.3 63.2" stroke="#e0556b" stroke-width="1.6"/>
<circle cx="527.8" cy="100.6" r="3.4" fill="#2ec26b" opacity="0.85"/>
<path d="M514.9 187.1 L521.3 193.5 M514.9 193.5 L521.3 187.1" stroke="#e0556b" stroke-width="1.6"/>
<path d="M422.4 51.8 L428.8 58.2 M422.4 58.2 L428.8 51.8" stroke="#e0556b" stroke-width="1.6"/>
<circle cx="502.7" cy="150.4" r="3.4" fill="#2ec26b" opacity="0.85"/>
<circle cx="510.0" cy="147.6" r="3.4" fill="#2ec26b" opacity="0.85"/>
<circle cx="503.5" cy="154.7" r="3.4" fill="#2ec26b" opacity="0.85"/>
<path d="M505.6 150.8 L512.0 157.2 M505.6 157.2 L512.0 150.8" stroke="#e0556b" stroke-width="1.6"/>
<path d="M504.4 148.0 L510.8 154.4 M504.4 154.4 L510.8 148.0" stroke="#e0556b" stroke-width="1.6"/>
<path d="M490.6 178.6 L497.0 185.0 M490.6 185.0 L497.0 178.6" stroke="#e0556b" stroke-width="1.6"/>
<circle cx="489.7" cy="165.4" r="3.4" fill="#2ec26b" opacity="0.85"/>
<path d="M437.0 45.4 L443.4 51.8 M437.0 51.8 L443.4 45.4" stroke="#e0556b" stroke-width="1.6"/>
<path d="M516.5 162.9 L522.9 169.3 M516.5 169.3 L522.9 162.9" stroke="#e0556b" stroke-width="1.6"/>
<path d="M410.2 242.6 L416.6 249.0 M410.2 249.0 L416.6 242.6" stroke="#e0556b" stroke-width="1.6"/>
<path d="M387.5 219.1 L393.9 225.5 M387.5 225.5 L393.9 219.1" stroke="#e0556b" stroke-width="1.6"/>
</svg>